<svg xmlns="http://www.w3.org/2000/svg" viewBox="0 0 1920 1080" role="img"><defs><linearGradient id="sky" x2="0" y2="1"><stop stop-color="#315c6b"/><stop offset="1" stop-color="#091c18"/></linearGradient><filter id="sh"><feDropShadow dx="0" dy="14" stdDeviation="14" flood-opacity=".36"/></filter><filter id="gl"><feDropShadow dx="0" dy="0" stdDeviation="22" flood-color="#fff" flood-opacity=".7"/></filter></defs><rect width="1920" height="1080" fill="url(#sky)"/><circle cx="1610" cy="190" r="105" fill="#d1fae5" opacity=".75"/><path d="M0 700Q430 570 860 690T1920 620V1080H0Z" fill="#17351f"/>
<g filter="url(#sh)"><g fill="#14532d" stroke="#052e16" stroke-width="14"><circle cx="1240" cy="420" r="145"/><circle cx="1460" cy="330" r="175"/><circle cx="1700" cy="470" r="150"/></g><g stroke="#78350f" stroke-width="52"><path d="M1240 500v380M1460 430v450M1700 540v340"/></g>
<circle cx="1260" cy="800" r="110" fill="#fb923c" opacity=".3"/><g fill="#fb923c"><path d="M1260 820q-80-110 0-220q80 110 0 220z"/><path d="M1260 820q110-70 160 15q-130 45-160-15z"/></g><g fill="#d6d3d1" stroke="#57534e" stroke-width="12"><rect x="1100" y="855" width="300" height="40" rx="10"/><rect x="1125" y="820" width="250" height="40" rx="10"/></g>
<g transform="translate(1610 735)" fill="#111827" stroke="#4b5563" stroke-width="16"><path d="M-180 85Q-190-100 0-150Q190-100 180 85Q120 180 0 190Q-120 180-180 85Z"/><path d="M-125-85l-80-120 130 65M125-85l80-120-130 65"/><circle cx="-65" cy="-20" r="14" fill="#ef4444" stroke="none"/><circle cx="65" cy="-20" r="14" fill="#ef4444" stroke="none"/></g></g>
<g filter="url(#sh)" stroke="#1f2937" stroke-width="8.2">
    <rect x="849.9" y="533.9" width="90.19999999999999" height="82" rx="14.76" fill="#e0b085"/>
    <path d="M849.9 562.6v-31.159999999999997q45.099999999999994 -36.9 90.19999999999999 0v31.159999999999997q-45.099999999999994 -21.32 -90.19999999999999 0z" fill="#3f2a1d" stroke="none"/>
    <circle cx="878.6" cy="574.9" r="4.92" fill="#111827" stroke="none"/><circle cx="911.4" cy="574.9" r="4.92" fill="#111827" stroke="none"/>
    <rect x="837.6" y="620" width="114.8" height="127.1" rx="16.4" fill="#7c3aed"/>
    <rect x="790.04" y="632.3" width="47.559999999999995" height="118.89999999999999" rx="14.76" fill="#e0b085"/>
    <rect x="952.4" y="632.3" width="47.559999999999995" height="118.89999999999999" rx="14.76" fill="#e0b085"/>
    <rect x="842.52" y="747.1" width="45.099999999999994" height="127.1" rx="13.12" fill="#334155"/>
    <rect x="902.38" y="747.1" width="45.099999999999994" height="127.1" rx="13.12" fill="#334155"/>
    <path d="M952.4 687.24l77.89999999999999 -98.39999999999999" stroke="#7c4a2d" stroke-width="14.76" stroke-linecap="round"/><path d="M1018 579q36.9 -20.5 60.68 8.2q-34.44 37.72 -72.16 24.599999999999998z" fill="#cbd5e1" stroke="#475569" stroke-width="6.56"/>
  </g>
<g filter="url(#sh)"><rect x="70" y="65" width="980" height="300" rx="48" fill="#050816" opacity=".88"/><text x="120" y="160" font-family="sans-serif" font-size="56" font-weight="900" fill="#a7f3d0">밤이 오면 숲이 달라진다</text><text x="120" y="270" font-family="sans-serif" font-size="102" font-weight="1000" fill="#fff">마력숲 생존기</text><text x="124" y="335" font-family="sans-serif" font-size="36" font-weight="700" fill="#e5e7eb">채집 · 제작 · 건축 · 습격 방어</text></g>
<rect x="1160" y="900" width="650" height="95" rx="38" fill="#052e16" opacity=".94"/><text x="1485" y="963" text-anchor="middle" font-family="sans-serif" font-size="48" font-weight="900" fill="#fff">캠프를 지키고 더 깊은 숲으로!</text></svg>