<svg xmlns="http://www.w3.org/2000/svg" viewBox="0 0 1920 1080" role="img" aria-labelledby="t d">
<title id="t">MIDNIGHT INFECTION — 심야 감염전 [4대4]</title><desc id="d">어두운 시설 복도에서 인간 4명과 감염체 4명이 대치하는 Roblox풍 4대4 PvP 호러 카드</desc>
<defs>
<linearGradient id="hall" x2="0" y2="1"><stop stop-color="#25364c"/><stop offset="1" stop-color="#080a10"/></linearGradient>
<linearGradient id="blue" x2="0" y2="1"><stop stop-color="#dff6ff"/><stop offset="1" stop-color="#4aaee0"/></linearGradient>
<linearGradient id="red" x2="0" y2="1"><stop stop-color="#6b2332"/><stop offset="1" stop-color="#251017"/></linearGradient>
<filter id="sb"><feDropShadow dx="-9" dy="9" stdDeviation="14" flood-color="#20b9ff" flood-opacity=".65"/></filter>
<filter id="sr"><feDropShadow dx="9" dy="9" stdDeviation="14" flood-color="#ff2f50" flood-opacity=".65"/></filter>
</defs>
<rect width="1920" height="1080" fill="url(#hall)"/><path d="M960 205 1665 1080H255Z" fill="#27364b"/><path d="M0 0h420v1080H0zM1500 0h420v1080h-420z" fill="#0c1119"/>
<path d="M960 205 960 1080M730 490l-310 590M1190 490l310 590M575 705h770M454 860h1012" stroke="#4d5f75" stroke-width="10" opacity=".55"/>
<g fill="#a5c8dc" opacity=".6"><rect x="490" y="260" width="185" height="54"/><rect x="1245" y="260" width="185" height="54"/></g>
<path d="M895 375h130v165H895z" fill="#0c0f15" stroke="#4a5461" stroke-width="12"/><circle cx="960" cy="460" r="28" fill="#ffbe40"/>
<g filter="url(#sb)" stroke="#2d6280" stroke-width="12" stroke-linejoin="round">
<g transform="translate(520 690)"><circle cy="-78" r="50" fill="#f0c4a3"/><path d="M-58-25h116l24 136L0 163l-82-52z" fill="url(#blue)"/><path d="M-44 121-72 230M44 121l72 109" stroke="#314557" stroke-width="30"/></g>
<g transform="translate(700 630) scale(.88)"><circle cy="-78" r="50" fill="#d9ac8c"/><path d="M-58-25h116l24 136L0 163l-82-52z" fill="#6ec6e9"/><path d="M-44 121-72 230M44 121l72 109" stroke="#314557" stroke-width="30"/></g>
<g transform="translate(815 790) scale(.8)"><circle cy="-78" r="50" fill="#f1c09b"/><path d="M-58-25h116l24 136L0 163l-82-52z" fill="#5ea8d1"/><path d="M-44 121-72 230M44 121l72 109" stroke="#314557" stroke-width="30"/></g>
<g transform="translate(430 820) scale(.78)"><circle cy="-78" r="50" fill="#c99679"/><path d="M-58-25h116l24 136L0 163l-82-52z" fill="#80d4f3"/><path d="M-44 121-72 230M44 121l72 109" stroke="#314557" stroke-width="30"/></g>
</g>
<g filter="url(#sr)" stroke="#9c2a43" stroke-width="12" stroke-linejoin="round">
<g transform="translate(1400 690)"><circle cy="-78" r="53" fill="#69303b"/><path d="M-61-25h122l28 142L0 170l-89-53z" fill="url(#red)"/><path d="M-46 128-80 240M46 128l80 112" stroke="#31151c" stroke-width="32"/><path d="M-44-96-88-138M35-101l42-54" stroke="#ff4b66" stroke-width="16"/></g>
<g transform="translate(1220 630) scale(.88)"><circle cy="-78" r="53" fill="#6c2938"/><path d="M-61-25h122l28 142L0 170l-89-53z" fill="#4a1823"/><path d="M-46 128-80 240M46 128l80 112" stroke="#31151c" stroke-width="32"/><path d="M-44-96-88-138M35-101l42-54" stroke="#ff4b66" stroke-width="16"/></g>
<g transform="translate(1105 790) scale(.8)"><circle cy="-78" r="53" fill="#72303b"/><path d="M-61-25h122l28 142L0 170l-89-53z" fill="#54202a"/><path d="M-46 128-80 240M46 128l80 112" stroke="#31151c" stroke-width="32"/></g>
<g transform="translate(1490 820) scale(.78)"><circle cy="-78" r="53" fill="#612934"/><path d="M-61-25h122l28 142L0 170l-89-53z" fill="#41141e"/><path d="M-46 128-80 240M46 128l80 112" stroke="#31151c" stroke-width="32"/></g>
</g>
<path d="M930 560 870 1030h180l-60-470z" fill="#ff334f" opacity=".12"/><path d="M960 560v470" stroke="#fff" stroke-width="6" opacity=".25"/>
<rect x="68" y="66" width="1105" height="294" rx="46" fill="#07090e" opacity=".93"/>
<text x="116" y="195" font-family="Arial,DejaVu Sans,sans-serif" font-size="110" font-weight="900" fill="#fff">MIDNIGHT INFECTION</text>
<text x="120" y="292" font-family="Noto Sans CJK KR,DejaVu Sans,sans-serif" font-size="54" font-weight="800" fill="#ff5873">심야 감염전 [4대4]</text>
<rect x="1296" y="854" width="550" height="118" rx="38" fill="#8f1830" opacity=".94"/>
<text x="1571" y="932" text-anchor="middle" font-family="Noto Sans CJK KR,DejaVu Sans,sans-serif" font-size="50" font-weight="900" fill="#fff">잡히면 적이 된다</text>
</svg>
