<svg xmlns="http://www.w3.org/2000/svg" viewBox="0 0 1920 1080" role="img"><defs><linearGradient id="sky" x2="0" y2="1"><stop stop-color="#164e63"/><stop offset="1" stop-color="#083344"/></linearGradient><filter id="sh"><feDropShadow dx="0" dy="14" stdDeviation="14" flood-opacity=".36"/></filter><filter id="gl"><feDropShadow dx="0" dy="0" stdDeviation="22" flood-color="#fff" flood-opacity=".7"/></filter></defs><rect width="1920" height="1080" fill="url(#sky)"/><path d="M0 730Q420 620 870 720T1920 650V1080H0Z" fill="#134e4a"/>
<g filter="url(#sh)"><g transform="translate(1490 585)"><path d="M0-330 160-110 105 275-105 275-160-110Z" fill="#67e8f9" stroke="#ecfeff" stroke-width="18"/><path d="M0-330V275M-160-110h320M-105 275 0-110 105 275" fill="none" stroke="#0891b2" stroke-width="16"/></g><circle cx="1490" cy="585" r="360" fill="none" stroke="#67e8f9" stroke-width="16" opacity=".35"/>
<g transform="translate(1180 760)"><g filter="url(#sh)" stroke="#1f2937" stroke-width="5.5">
    <rect x="-30.250000000000004" y="-57.75000000000001" width="60.50000000000001" height="55.00000000000001" rx="9.9" fill="#efc39a"/>
    <path d="M-30.250000000000004 -38.5v-20.900000000000002q30.250000000000004 -24.750000000000004 60.50000000000001 0v20.900000000000002q-30.250000000000004 -14.3 -60.50000000000001 0z" fill="#1f2937" stroke="none"/>
    <circle cx="-11" cy="-30.250000000000004" r="3.3000000000000003" fill="#111827" stroke="none"/><circle cx="11" cy="-30.250000000000004" r="3.3000000000000003" fill="#111827" stroke="none"/>
    <rect x="-38.5" y="0" width="77" height="85.25" rx="11" fill="#0ea5e9"/>
    <rect x="-70.4" y="8.25" width="31.900000000000002" height="79.75" rx="9.9" fill="#efc39a"/>
    <rect x="38.5" y="8.25" width="31.900000000000002" height="79.75" rx="9.9" fill="#efc39a"/>
    <rect x="-35.2" y="85.25" width="30.250000000000004" height="85.25" rx="8.8" fill="#334155"/>
    <rect x="4.95" y="85.25" width="30.250000000000004" height="85.25" rx="8.8" fill="#334155"/>
    <path d="M35.75 41.25l60.50000000000001 -71.5" stroke="#f8fafc" stroke-width="9.9" stroke-linecap="round"/><path d="M82.5 -41.25l20.900000000000002 18.700000000000003" stroke="#facc15" stroke-width="8.8"/>
  </g></g><g transform="translate(1760 780) scale(-1 1)"><g filter="url(#sh)" stroke="#1f2937" stroke-width="4.8">
    <rect x="-26.4" y="-50.4" width="52.8" height="48" rx="8.64" fill="#c98e5b"/>
    <path d="M-26.4 -33.6v-18.24q26.4 -21.599999999999998 52.8 0v18.24q-26.4 -12.48 -52.8 0z" fill="#3f2a1d" stroke="none"/>
    <circle cx="-9.6" cy="-26.4" r="2.88" fill="#111827" stroke="none"/><circle cx="9.6" cy="-26.4" r="2.88" fill="#111827" stroke="none"/>
    <rect x="-33.6" y="0" width="67.2" height="74.39999999999999" rx="9.6" fill="#14b8a6"/>
    <rect x="-61.44" y="7.199999999999999" width="27.84" height="69.6" rx="8.64" fill="#c98e5b"/>
    <rect x="33.6" y="7.199999999999999" width="27.84" height="69.6" rx="8.64" fill="#c98e5b"/>
    <rect x="-30.72" y="74.39999999999999" width="26.4" height="74.39999999999999" rx="7.68" fill="#334155"/>
    <rect x="4.32" y="74.39999999999999" width="26.4" height="74.39999999999999" rx="7.68" fill="#334155"/>
    <path d="M33.6 36l48 -64.8" stroke="#d8b4fe" stroke-width="6.72" stroke-linecap="round"/><circle cx="83.03999999999999" cy="-30.72" r="10.559999999999999" fill="#f0abfc"/>
  </g></g></g>
<g filter="url(#sh)"><rect x="70" y="65" width="980" height="300" rx="48" fill="#050816" opacity=".88"/><text x="120" y="160" font-family="sans-serif" font-size="56" font-weight="900" fill="#cffafe">수정이 자랄수록 영웅도 강해진다</text><text x="120" y="270" font-family="sans-serif" font-size="102" font-weight="1000" fill="#fff">수정의 개화</text><text x="124" y="335" font-family="sans-serif" font-size="36" font-weight="700" fill="#e5e7eb">방치 성장 · 장비 · 파티 · 보스</text></g>
<rect x="1165" y="900" width="655" height="95" rx="38" fill="#083344" opacity=".94"/><text x="1492" y="964" text-anchor="middle" font-family="sans-serif" font-size="47" font-weight="900" fill="#fff">수정을 키우고 전투력을 폭발시켜!</text></svg>