<svg xmlns="http://www.w3.org/2000/svg" viewBox="0 0 1920 1080" role="img"><defs><linearGradient id="sky" x2="0" y2="1"><stop stop-color="#312e81"/><stop offset="1" stop-color="#111827"/></linearGradient><filter id="sh"><feDropShadow dx="0" dy="14" stdDeviation="14" flood-opacity=".36"/></filter><filter id="gl"><feDropShadow dx="0" dy="0" stdDeviation="22" flood-color="#fff" flood-opacity=".7"/></filter></defs><rect width="1920" height="1080" fill="url(#sky)"/>
<g filter="url(#sh)"><rect x="1110" y="320" width="135" height="135" rx="28" fill="#fb7185" stroke="#fff" stroke-width="12"/><rect x="1275" y="320" width="135" height="135" rx="28" fill="#f59e0b" stroke="#fff" stroke-width="12"/><rect x="1440" y="320" width="135" height="135" rx="28" fill="#fde047" stroke="#fff" stroke-width="12"/><rect x="1605" y="320" width="135" height="135" rx="28" fill="#4ade80" stroke="#fff" stroke-width="12"/><rect x="1110" y="500" width="135" height="135" rx="28" fill="#22d3ee" stroke="#fff" stroke-width="12"/><rect x="1275" y="500" width="135" height="135" rx="28" fill="#60a5fa" stroke="#fff" stroke-width="12"/><rect x="1440" y="500" width="135" height="135" rx="28" fill="#c084fc" stroke="#fff" stroke-width="12"/>
<path d="M1110 705Q1380 565 1740 745" stroke="#fff" stroke-width="20" fill="none" stroke-dasharray="18 22"/><path d="M1190 530l150 105 165-165 160 120" stroke="#fef08a" stroke-width="24" fill="none" filter="url(#gl)"/></g>
<g filter="url(#sh)" stroke="#1f2937" stroke-width="7.5">
    <rect x="888.75" y="571.25" width="82.5" height="75" rx="13.5" fill="#f1c27d"/>
    <path d="M888.75 597.5v-28.5q41.25 -33.75 82.5 0v28.5q-41.25 -19.5 -82.5 0z" fill="#3f2a1d" stroke="none"/>
    <circle cx="915" cy="608.75" r="4.5" fill="#111827" stroke="none"/><circle cx="945" cy="608.75" r="4.5" fill="#111827" stroke="none"/>
    <rect x="877.5" y="650" width="105" height="116.25" rx="15" fill="#7c3aed"/>
    <rect x="834" y="661.25" width="43.5" height="108.75" rx="13.5" fill="#f1c27d"/>
    <rect x="982.5" y="661.25" width="43.5" height="108.75" rx="13.5" fill="#f1c27d"/>
    <rect x="882" y="766.25" width="41.25" height="116.25" rx="12" fill="#334155"/>
    <rect x="936.75" y="766.25" width="41.25" height="116.25" rx="12" fill="#334155"/>
    <path d="M982.5 706.25l75 -101.25" stroke="#d8b4fe" stroke-width="10.5" stroke-linecap="round"/><circle cx="1059.75" cy="602" r="16.5" fill="#f0abfc"/>
  </g>
<g filter="url(#sh)"><rect x="70" y="65" width="980" height="300" rx="48" fill="#050816" opacity=".88"/><text x="120" y="160" font-family="sans-serif" font-size="56" font-weight="900" fill="#fef08a">색을 연결하면 연쇄가 터진다</text><text x="120" y="270" font-family="sans-serif" font-size="102" font-weight="1000" fill="#fff">색채의 연쇄</text><text x="124" y="335" font-family="sans-serif" font-size="36" font-weight="700" fill="#e5e7eb">블록을 움직이고 흐름을 만들어 콤보를 완성</text></g>
<rect x="1165" y="900" width="655" height="95" rx="38" fill="#4c1d95" opacity=".94"/><text x="1492" y="964" text-anchor="middle" font-family="sans-serif" font-size="48" font-weight="900" fill="#fff">한 번에 크게 연결할수록 강해져!</text></svg>