# chest - project-original survival asset
mtllib survival-core-world.mtl
o chest
v -1.5 -0.975 0
v 1.5 -0.975 0
v 1.5 0.975 0
v -1.5 0.975 0
v -1.5 -0.975 1.5
v 1.5 -0.975 1.5
v 1.5 0.975 1.5
v -1.5 0.975 1.5
v -1.37 -1.05 0.09
v -1.19 -1.05 0.09
v -1.19 -0.97 0.09
v -1.37 -0.97 0.09
v -1.37 -1.05 1.47
v -1.19 -1.05 1.47
v -1.19 -0.97 1.47
v -1.37 -0.97 1.47
v -0.09 -1.05 0.09
v 0.09 -1.05 0.09
v 0.09 -0.97 0.09
v -0.09 -0.97 0.09
v -0.09 -1.05 1.47
v 0.09 -1.05 1.47
v 0.09 -0.97 1.47
v -0.09 -0.97 1.47
v 1.19 -1.05 0.09
v 1.37 -1.05 0.09
v 1.37 -0.97 0.09
v 1.19 -0.97 0.09
v 1.19 -1.05 1.47
v 1.37 -1.05 1.47
v 1.37 -0.97 1.47
v 1.19 -0.97 1.47
v -1.525 -1 1.46
v 1.525 -1 1.46
v 1.525 1 1.46
v -1.525 1 1.46
v -1.525 -1 1.78
v 1.525 -1 1.78
v 1.525 1 1.78
v -1.525 1 1.78
v -1.46 -1.37 1.67
v 1.46 -1.37 1.67
v 1.46 -1.03 1.67
v -1.46 -1.03 1.67
v -1.46 -1.37 1.89
v 1.46 -1.37 1.89
v 1.46 -1.03 1.89
v -1.46 -1.03 1.89
v -1.46 -0.97 1.91
v 1.46 -0.97 1.91
v 1.46 -0.63 1.91
v -1.46 -0.63 1.91
v -1.46 -0.97 2.13
v 1.46 -0.97 2.13
v 1.46 -0.63 2.13
v -1.46 -0.63 2.13
v -1.46 -0.57 2.08569
v 1.46 -0.57 2.08569
v 1.46 -0.23 2.08569
v -1.46 -0.23 2.08569
v -1.46 -0.57 2.30569
v 1.46 -0.57 2.30569
v 1.46 -0.23 2.30569
v -1.46 -0.23 2.30569
v -1.46 -0.17 2.15
v 1.46 -0.17 2.15
v 1.46 0.17 2.15
v -1.46 0.17 2.15
v -1.46 -0.17 2.37
v 1.46 -0.17 2.37
v 1.46 0.17 2.37
v -1.46 0.17 2.37
v -1.46 0.23 2.08569
v 1.46 0.23 2.08569
v 1.46 0.57 2.08569
v -1.46 0.57 2.08569
v -1.46 0.23 2.30569
v 1.46 0.23 2.30569
v 1.46 0.57 2.30569
v -1.46 0.57 2.30569
v -1.46 0.63 1.91
v 1.46 0.63 1.91
v 1.46 0.97 1.91
v -1.46 0.97 1.91
v -1.46 0.63 2.13
v 1.46 0.63 2.13
v 1.46 0.97 2.13
v -1.46 0.97 2.13
v -1.46 1.03 1.67
v 1.46 1.03 1.67
v 1.46 1.37 1.67
v -1.46 1.37 1.67
v -1.46 1.03 1.89
v 1.46 1.03 1.89
v 1.46 1.37 1.89
v -1.46 1.37 1.89
v -0.1 -1.11 0.16
v 0.1 -1.11 0.16
v 0.1 -1.01 0.16
v -0.1 -1.01 0.16
v -0.1 -1.11 2.14
v 0.1 -1.11 2.14
v 0.1 -1.01 2.14
v -0.1 -1.01 2.14
v -0.28 -1.16 0.78
v 0.28 -1.16 0.78
v 0.28 -1.08 0.78
v -0.28 -1.08 0.78
v -0.28 -1.16 1.42
v 0.28 -1.16 1.42
v 0.28 -1.08 1.42
v -0.28 -1.08 1.42
v 0 -1.19 0.94
v 0 -1.19 0.94
v 0 -1.19 0.94
v 0 -1.19 0.94
v 0 -1.19 0.94
v 0 -1.19 0.94
v 0 -1.19 0.94
v 0 -1.19 0.94
v 0 -1.19 0.94
v 0 -1.19 0.94
v 0 -1.19 0.94
v 0 -1.19 0.94
v 0.07 -1.19 0.95876
v 0.06062 -1.1725 0.95876
v 0.035 -1.15969 0.95876
v 0 -1.155 0.95876
v -0.035 -1.15969 0.95876
v -0.06062 -1.1725 0.95876
v -0.07 -1.19 0.95876
v -0.06062 -1.2075 0.95876
v -0.035 -1.22031 0.95876
v 0 -1.225 0.95876
v 0.035 -1.22031 0.95876
v 0.06062 -1.2075 0.95876
v 0.12124 -1.19 1.01
v 0.105 -1.15969 1.01
v 0.06062 -1.1375 1.01
v 0 -1.12938 1.01
v -0.06062 -1.1375 1.01
v -0.105 -1.15969 1.01
v -0.12124 -1.19 1.01
v -0.105 -1.22031 1.01
v -0.06062 -1.2425 1.01
v 0 -1.25062 1.01
v 0.06062 -1.2425 1.01
v 0.105 -1.22031 1.01
v 0.14 -1.19 1.08
v 0.12124 -1.155 1.08
v 0.07 -1.12938 1.08
v 0 -1.12 1.08
v -0.07 -1.12938 1.08
v -0.12124 -1.155 1.08
v -0.14 -1.19 1.08
v -0.12124 -1.225 1.08
v -0.07 -1.25062 1.08
v 0 -1.26 1.08
v 0.07 -1.25062 1.08
v 0.12124 -1.225 1.08
v 0.12124 -1.19 1.15
v 0.105 -1.15969 1.15
v 0.06062 -1.1375 1.15
v 0 -1.12938 1.15
v -0.06062 -1.1375 1.15
v -0.105 -1.15969 1.15
v -0.12124 -1.19 1.15
v -0.105 -1.22031 1.15
v -0.06062 -1.2425 1.15
v 0 -1.25062 1.15
v 0.06062 -1.2425 1.15
v 0.105 -1.22031 1.15
v 0.07 -1.19 1.20124
v 0.06062 -1.1725 1.20124
v 0.035 -1.15969 1.20124
v 0 -1.155 1.20124
v -0.035 -1.15969 1.20124
v -0.06062 -1.1725 1.20124
v -0.07 -1.19 1.20124
v -0.06062 -1.2075 1.20124
v -0.035 -1.22031 1.20124
v 0 -1.225 1.20124
v 0.035 -1.22031 1.20124
v 0.06062 -1.2075 1.20124
v 0 -1.19 1.22
v 0 -1.19 1.22
v 0 -1.19 1.22
v 0 -1.19 1.22
v 0 -1.19 1.22
v 0 -1.19 1.22
v 0 -1.19 1.22
v 0 -1.19 1.22
v 0 -1.19 1.22
v 0 -1.19 1.22
v 0 -1.19 1.22
v 0 -1.19 1.22
v -1.3 0.45 0
v -0.9 0.45 0
v -0.9 0.85 0
v -1.3 0.85 0
v -1.3 0.45 0.24
v -0.9 0.45 0.24
v -0.9 0.85 0.24
v -1.3 0.85 0.24
v 0.9 0.45 0
v 1.3 0.45 0
v 1.3 0.85 0
v 0.9 0.85 0
v 0.9 0.45 0.24
v 1.3 0.45 0.24
v 1.3 0.85 0.24
v 0.9 0.85 0.24
g ChestBody
usemtl SURVIVAL_WOOD
f 1 2 3 4
f 5 8 7 6
f 1 5 6 2
f 2 6 7 3
f 3 7 8 4
f 5 1 4 8
g BodyBand-1.28
usemtl SURVIVAL_METAL_DARK
f 9 10 11 12
f 13 16 15 14
f 9 13 14 10
f 10 14 15 11
f 11 15 16 12
f 13 9 12 16
g BodyBand0
f 17 18 19 20
f 21 24 23 22
f 17 21 22 18
f 18 22 23 19
f 19 23 24 20
f 21 17 20 24
g BodyBand1.28
f 25 26 27 28
f 29 32 31 30
f 25 29 30 26
f 26 30 31 27
f 27 31 32 28
f 29 25 28 32
g ChestLidBase
usemtl SURVIVAL_WOOD_DARK
f 33 34 35 36
f 37 40 39 38
f 33 37 38 34
f 34 38 39 35
f 35 39 40 36
f 37 33 36 40
g LidSlat0
usemtl SURVIVAL_WOOD
f 41 42 43 44
f 45 48 47 46
f 41 45 46 42
f 42 46 47 43
f 43 47 48 44
f 45 41 44 48
g LidSlat1
usemtl SURVIVAL_WOOD_LIGHT
f 49 50 51 52
f 53 56 55 54
f 49 53 54 50
f 50 54 55 51
f 51 55 56 52
f 53 49 52 56
g LidSlat2
usemtl SURVIVAL_WOOD
f 57 58 59 60
f 61 64 63 62
f 57 61 62 58
f 58 62 63 59
f 59 63 64 60
f 61 57 60 64
g LidSlat3
usemtl SURVIVAL_WOOD_LIGHT
f 65 66 67 68
f 69 72 71 70
f 65 69 70 66
f 66 70 71 67
f 67 71 72 68
f 69 65 68 72
g LidSlat4
usemtl SURVIVAL_WOOD
f 73 74 75 76
f 77 80 79 78
f 73 77 78 74
f 74 78 79 75
f 75 79 80 76
f 77 73 76 80
g LidSlat5
usemtl SURVIVAL_WOOD_LIGHT
f 81 82 83 84
f 85 88 87 86
f 81 85 86 82
f 82 86 87 83
f 83 87 88 84
f 85 81 84 88
g LidSlat6
usemtl SURVIVAL_WOOD
f 89 90 91 92
f 93 96 95 94
f 89 93 94 90
f 90 94 95 91
f 91 95 96 92
f 93 89 92 96
g FrontBand
usemtl SURVIVAL_METAL_DARK
f 97 98 99 100
f 101 104 103 102
f 97 101 102 98
f 98 102 103 99
f 99 103 104 100
f 101 97 100 104
g LockPlate
usemtl SURVIVAL_METAL
f 105 106 107 108
f 109 112 111 110
f 105 109 110 106
f 106 110 111 107
f 107 111 112 108
f 109 105 108 112
g LockKnob
usemtl SURVIVAL_METAL_LIGHT
f 113 114 126 125
f 114 115 127 126
f 115 116 128 127
f 116 117 129 128
f 117 118 130 129
f 118 119 131 130
f 119 120 132 131
f 120 121 133 132
f 121 122 134 133
f 122 123 135 134
f 123 124 136 135
f 124 113 125 136
f 125 126 138 137
f 126 127 139 138
f 127 128 140 139
f 128 129 141 140
f 129 130 142 141
f 130 131 143 142
f 131 132 144 143
f 132 133 145 144
f 133 134 146 145
f 134 135 147 146
f 135 136 148 147
f 136 125 137 148
f 137 138 150 149
f 138 139 151 150
f 139 140 152 151
f 140 141 153 152
f 141 142 154 153
f 142 143 155 154
f 143 144 156 155
f 144 145 157 156
f 145 146 158 157
f 146 147 159 158
f 147 148 160 159
f 148 137 149 160
f 149 150 162 161
f 150 151 163 162
f 151 152 164 163
f 152 153 165 164
f 153 154 166 165
f 154 155 167 166
f 155 156 168 167
f 156 157 169 168
f 157 158 170 169
f 158 159 171 170
f 159 160 172 171
f 160 149 161 172
f 161 162 174 173
f 162 163 175 174
f 163 164 176 175
f 164 165 177 176
f 165 166 178 177
f 166 167 179 178
f 167 168 180 179
f 168 169 181 180
f 169 170 182 181
f 170 171 183 182
f 171 172 184 183
f 172 161 173 184
f 173 174 186 185
f 174 175 187 186
f 175 176 188 187
f 176 177 189 188
f 177 178 190 189
f 178 179 191 190
f 179 180 192 191
f 180 181 193 192
f 181 182 194 193
f 182 183 195 194
f 183 184 196 195
f 184 173 185 196
g FootL
usemtl SURVIVAL_WOOD_DARK
f 197 198 199 200
f 201 204 203 202
f 197 201 202 198
f 198 202 203 199
f 199 203 204 200
f 201 197 200 204
g FootR
f 205 206 207 208
f 209 212 211 210
f 205 209 210 206
f 206 210 211 207
f 207 211 212 208
f 209 205 208 212
