# crate - project-original survival asset
mtllib survival-core-world.mtl
o crate
v -1.3 -1.3 0
v 1.3 -1.3 0
v 1.3 1.3 0
v -1.3 1.3 0
v -1.3 -1.3 2.3
v 1.3 -1.3 2.3
v 1.3 1.3 2.3
v -1.3 1.3 2.3
v -1.21 -1.4 0.13
v 1.21 -1.4 0.13
v 1.21 -1.28 0.13
v -1.21 -1.28 0.13
v -1.21 -1.4 0.47
v 1.21 -1.4 0.47
v 1.21 -1.28 0.47
v -1.21 -1.28 0.47
v -1.21 -1.4 0.55
v 1.21 -1.4 0.55
v 1.21 -1.28 0.55
v -1.21 -1.28 0.55
v -1.21 -1.4 0.89
v 1.21 -1.4 0.89
v 1.21 -1.28 0.89
v -1.21 -1.28 0.89
v -1.21 -1.4 0.97
v 1.21 -1.4 0.97
v 1.21 -1.28 0.97
v -1.21 -1.28 0.97
v -1.21 -1.4 1.31
v 1.21 -1.4 1.31
v 1.21 -1.28 1.31
v -1.21 -1.28 1.31
v -1.21 -1.4 1.39
v 1.21 -1.4 1.39
v 1.21 -1.28 1.39
v -1.21 -1.28 1.39
v -1.21 -1.4 1.73
v 1.21 -1.4 1.73
v 1.21 -1.28 1.73
v -1.21 -1.28 1.73
v -1.21 -1.4 1.81
v 1.21 -1.4 1.81
v 1.21 -1.28 1.81
v -1.21 -1.28 1.81
v -1.21 -1.4 2.15
v 1.21 -1.4 2.15
v 1.21 -1.28 2.15
v -1.21 -1.28 2.15
v -1.26 -1.5 0
v -0.98 -1.5 0
v -0.98 -1.32 0
v -1.26 -1.32 0
v -1.26 -1.5 2.3
v -0.98 -1.5 2.3
v -0.98 -1.32 2.3
v -1.26 -1.32 2.3
v 0.98 -1.5 0
v 1.26 -1.5 0
v 1.26 -1.32 0
v 0.98 -1.32 0
v 0.98 -1.5 2.3
v 1.26 -1.5 2.3
v 1.26 -1.32 2.3
v 0.98 -1.32 2.3
v -0.92 -1.63 0.28
v -0.87142 -1.60071 0.22862
v -0.85129 -1.53 0.20734
v -0.87142 -1.45929 0.22862
v -0.92 -1.43 0.28
v -0.96858 -1.45929 0.33138
v -0.98871 -1.53 0.35266
v -0.96858 -1.60071 0.33138
v 0.92 -1.63 2.02
v 0.96858 -1.60071 1.96862
v 0.98871 -1.53 1.94734
v 0.96858 -1.45929 1.96862
v 0.92 -1.43 2.02
v 0.87142 -1.45929 2.07138
v 0.85129 -1.53 2.09266
v 0.87142 -1.60071 2.07138
v 0.92 -1.43 0.28
v 0.87142 -1.45929 0.22862
v 0.85129 -1.53 0.20734
v 0.87142 -1.60071 0.22862
v 0.92 -1.63 0.28
v 0.96858 -1.60071 0.33138
v 0.98871 -1.53 0.35266
v 0.96858 -1.45929 0.33138
v -0.92 -1.43 2.02
v -0.96858 -1.45929 1.96862
v -0.98871 -1.53 1.94734
v -0.96858 -1.60071 1.96862
v -0.92 -1.63 2.02
v -0.87142 -1.60071 2.07138
v -0.85129 -1.53 2.09266
v -0.87142 -1.45929 2.07138
v -1.275 -1.26 2.31
v 1.275 -1.26 2.31
v 1.275 -0.98 2.31
v -1.275 -0.98 2.31
v -1.275 -1.26 2.53
v 1.275 -1.26 2.53
v 1.275 -0.98 2.53
v -1.275 -0.98 2.53
v -1.275 0.98 2.31
v 1.275 0.98 2.31
v 1.275 1.26 2.31
v -1.275 1.26 2.31
v -1.275 0.98 2.53
v 1.275 0.98 2.53
v 1.275 1.26 2.53
v -1.275 1.26 2.53
v -0.36 -1.575 0.96
v 0.36 -1.575 0.96
v 0.36 -1.525 0.96
v -0.36 -1.525 0.96
v -0.36 -1.575 1.38
v 0.36 -1.575 1.38
v 0.36 -1.525 1.38
v -0.36 -1.525 1.38
g CrateCore
usemtl SURVIVAL_WOOD
f 1 2 3 4
f 5 8 7 6
f 1 5 6 2
f 2 6 7 3
f 3 7 8 4
f 5 1 4 8
g FrontPlank0
usemtl SURVIVAL_WOOD_LIGHT
f 9 10 11 12
f 13 16 15 14
f 9 13 14 10
f 10 14 15 11
f 11 15 16 12
f 13 9 12 16
g FrontPlank1
usemtl SURVIVAL_WOOD
f 17 18 19 20
f 21 24 23 22
f 17 21 22 18
f 18 22 23 19
f 19 23 24 20
f 21 17 20 24
g FrontPlank2
usemtl SURVIVAL_WOOD_LIGHT
f 25 26 27 28
f 29 32 31 30
f 25 29 30 26
f 26 30 31 27
f 27 31 32 28
f 29 25 28 32
g FrontPlank3
usemtl SURVIVAL_WOOD
f 33 34 35 36
f 37 40 39 38
f 33 37 38 34
f 34 38 39 35
f 35 39 40 36
f 37 33 36 40
g FrontPlank4
usemtl SURVIVAL_WOOD_LIGHT
f 41 42 43 44
f 45 48 47 46
f 41 45 46 42
f 42 46 47 43
f 43 47 48 44
f 45 41 44 48
g FrontPost-1.12
usemtl SURVIVAL_WOOD_DARK
f 49 50 51 52
f 53 56 55 54
f 49 53 54 50
f 50 54 55 51
f 51 55 56 52
f 53 49 52 56
g FrontPost1.12
f 57 58 59 60
f 61 64 63 62
f 57 61 62 58
f 58 62 63 59
f 59 63 64 60
f 61 57 60 64
g FrontBraceA
f 65 66 74 73
f 66 67 75 74
f 67 68 76 75
f 68 69 77 76
f 69 70 78 77
f 70 71 79 78
f 71 72 80 79
f 72 65 73 80
g FrontBraceB
f 81 82 90 89
f 82 83 91 90
f 83 84 92 91
f 84 85 93 92
f 85 86 94 93
f 86 87 95 94
f 87 88 96 95
f 88 81 89 96
g TopRail-1.12
f 97 98 99 100
f 101 104 103 102
f 97 101 102 98
f 98 102 103 99
f 99 103 104 100
f 101 97 100 104
g TopRail1.12
f 105 106 107 108
f 109 112 111 110
f 105 109 110 106
f 106 110 111 107
f 107 111 112 108
f 109 105 108 112
g StencilPlate
usemtl SURVIVAL_PAINT
f 113 114 115 116
f 117 120 119 118
f 113 117 118 114
f 114 118 119 115
f 115 119 120 116
f 117 113 116 120
