# door_single - project-original survival asset
mtllib survival-core-world.mtl
o door_single
v -1.15 -0.14 0
v 1.15 -0.14 0
v 1.15 0.14 0
v -1.15 0.14 0
v -1.15 -0.14 3.5
v 1.15 -0.14 3.5
v 1.15 0.14 3.5
v -1.15 0.14 3.5
v -1.06 -0.23 0.13
v -0.7 -0.23 0.13
v -0.7 -0.13 0.13
v -1.06 -0.13 0.13
v -1.06 -0.23 3.37
v -0.7 -0.23 3.37
v -0.7 -0.13 3.37
v -1.06 -0.13 3.37
v -0.62 -0.23 0.13
v -0.26 -0.23 0.13
v -0.26 -0.13 0.13
v -0.62 -0.13 0.13
v -0.62 -0.23 3.37
v -0.26 -0.23 3.37
v -0.26 -0.13 3.37
v -0.62 -0.13 3.37
v -0.18 -0.23 0.13
v 0.18 -0.23 0.13
v 0.18 -0.13 0.13
v -0.18 -0.13 0.13
v -0.18 -0.23 3.37
v 0.18 -0.23 3.37
v 0.18 -0.13 3.37
v -0.18 -0.13 3.37
v 0.26 -0.23 0.13
v 0.62 -0.23 0.13
v 0.62 -0.13 0.13
v 0.26 -0.13 0.13
v 0.26 -0.23 3.37
v 0.62 -0.23 3.37
v 0.62 -0.13 3.37
v 0.26 -0.13 3.37
v 0.7 -0.23 0.13
v 1.06 -0.23 0.13
v 1.06 -0.13 0.13
v 0.7 -0.13 0.13
v 0.7 -0.23 3.37
v 1.06 -0.23 3.37
v 1.06 -0.13 3.37
v 0.7 -0.13 3.37
v -1.46 -0.24 3.46
v 1.46 -0.24 3.46
v 1.46 0.24 3.46
v -1.46 0.24 3.46
v -1.46 -0.24 3.84
v 1.46 -0.24 3.84
v 1.46 0.24 3.84
v -1.46 0.24 3.84
v -1.47 -0.24 -0.005
v -1.09 -0.24 -0.005
v -1.09 0.24 -0.005
v -1.47 0.24 -0.005
v -1.47 -0.24 3.645
v -1.09 -0.24 3.645
v -1.09 0.24 3.645
v -1.47 0.24 3.645
v 1.09 -0.24 -0.005
v 1.47 -0.24 -0.005
v 1.47 0.24 -0.005
v 1.09 0.24 -0.005
v 1.09 -0.24 3.645
v 1.47 -0.24 3.645
v 1.47 0.24 3.645
v 1.09 0.24 3.645
v -0.8 -0.47 0.55
v -0.73504 -0.43778 0.50723
v -0.70813 -0.36 0.48951
v -0.73504 -0.28222 0.50723
v -0.8 -0.25 0.55
v -0.86496 -0.28222 0.59277
v -0.89187 -0.36 0.61049
v -0.86496 -0.43778 0.59277
v 0.8 -0.47 2.98
v 0.86496 -0.43778 2.93723
v 0.89187 -0.36 2.91951
v 0.86496 -0.28222 2.93723
v 0.8 -0.25 2.98
v 0.73504 -0.28222 3.02277
v 0.70813 -0.36 3.04049
v 0.73504 -0.43778 3.02277
v 0.78 -0.4 1.59
v 0.78 -0.4 1.59
v 0.78 -0.4 1.59
v 0.78 -0.4 1.59
v 0.78 -0.4 1.59
v 0.78 -0.4 1.59
v 0.78 -0.4 1.59
v 0.78 -0.4 1.59
v 0.78 -0.4 1.59
v 0.78 -0.4 1.59
v 0.78 -0.4 1.59
v 0.78 -0.4 1.59
v 0.845 -0.4 1.60742
v 0.83629 -0.375 1.60742
v 0.8125 -0.3567 1.60742
v 0.78 -0.35 1.60742
v 0.7475 -0.3567 1.60742
v 0.72371 -0.375 1.60742
v 0.715 -0.4 1.60742
v 0.72371 -0.425 1.60742
v 0.7475 -0.4433 1.60742
v 0.78 -0.45 1.60742
v 0.8125 -0.4433 1.60742
v 0.83629 -0.425 1.60742
v 0.89258 -0.4 1.655
v 0.8775 -0.3567 1.655
v 0.83629 -0.325 1.655
v 0.78 -0.3134 1.655
v 0.72371 -0.325 1.655
v 0.6825 -0.3567 1.655
v 0.66742 -0.4 1.655
v 0.6825 -0.4433 1.655
v 0.72371 -0.475 1.655
v 0.78 -0.4866 1.655
v 0.83629 -0.475 1.655
v 0.8775 -0.4433 1.655
v 0.91 -0.4 1.72
v 0.89258 -0.35 1.72
v 0.845 -0.3134 1.72
v 0.78 -0.3 1.72
v 0.715 -0.3134 1.72
v 0.66742 -0.35 1.72
v 0.65 -0.4 1.72
v 0.66742 -0.45 1.72
v 0.715 -0.4866 1.72
v 0.78 -0.5 1.72
v 0.845 -0.4866 1.72
v 0.89258 -0.45 1.72
v 0.89258 -0.4 1.785
v 0.8775 -0.3567 1.785
v 0.83629 -0.325 1.785
v 0.78 -0.3134 1.785
v 0.72371 -0.325 1.785
v 0.6825 -0.3567 1.785
v 0.66742 -0.4 1.785
v 0.6825 -0.4433 1.785
v 0.72371 -0.475 1.785
v 0.78 -0.4866 1.785
v 0.83629 -0.475 1.785
v 0.8775 -0.4433 1.785
v 0.845 -0.4 1.83258
v 0.83629 -0.375 1.83258
v 0.8125 -0.3567 1.83258
v 0.78 -0.35 1.83258
v 0.7475 -0.3567 1.83258
v 0.72371 -0.375 1.83258
v 0.715 -0.4 1.83258
v 0.72371 -0.425 1.83258
v 0.7475 -0.4433 1.83258
v 0.78 -0.45 1.83258
v 0.8125 -0.4433 1.83258
v 0.83629 -0.425 1.83258
v 0.78 -0.4 1.85
v 0.78 -0.4 1.85
v 0.78 -0.4 1.85
v 0.78 -0.4 1.85
v 0.78 -0.4 1.85
v 0.78 -0.4 1.85
v 0.78 -0.4 1.85
v 0.78 -0.4 1.85
v 0.78 -0.4 1.85
v 0.78 -0.4 1.85
v 0.78 -0.4 1.85
v 0.78 -0.4 1.85
v 0.66 -0.37 1.48
v 0.94 -0.37 1.48
v 0.94 -0.31 1.48
v 0.66 -0.31 1.48
v 0.66 -0.37 1.96
v 0.94 -0.37 1.96
v 0.94 -0.31 1.96
v 0.66 -0.31 1.96
v -1.16 -0.34 2.7
v -1.14243 -0.38243 2.7
v -1.1 -0.4 2.7
v -1.05757 -0.38243 2.7
v -1.04 -0.34 2.7
v -1.05757 -0.29757 2.7
v -1.1 -0.28 2.7
v -1.14243 -0.29757 2.7
v -1.16 -0.34 3.12
v -1.14243 -0.38243 3.12
v -1.1 -0.4 3.12
v -1.05757 -0.38243 3.12
v -1.04 -0.34 3.12
v -1.05757 -0.29757 3.12
v -1.1 -0.28 3.12
v -1.14243 -0.29757 3.12
v -1.16 -0.34 0.62
v -1.14243 -0.38243 0.62
v -1.1 -0.4 0.62
v -1.05757 -0.38243 0.62
v -1.04 -0.34 0.62
v -1.05757 -0.29757 0.62
v -1.1 -0.28 0.62
v -1.14243 -0.29757 0.62
v -1.16 -0.34 1.04
v -1.14243 -0.38243 1.04
v -1.1 -0.4 1.04
v -1.05757 -0.38243 1.04
v -1.04 -0.34 1.04
v -1.05757 -0.29757 1.04
v -1.1 -0.28 1.04
v -1.14243 -0.29757 1.04
g DoorSlab
usemtl SURVIVAL_WOOD
f 1 2 3 4
f 5 8 7 6
f 1 5 6 2
f 2 6 7 3
f 3 7 8 4
f 5 1 4 8
g DoorPlank0
f 9 10 11 12
f 13 16 15 14
f 9 13 14 10
f 10 14 15 11
f 11 15 16 12
f 13 9 12 16
g DoorPlank1
usemtl SURVIVAL_WOOD_LIGHT
f 17 18 19 20
f 21 24 23 22
f 17 21 22 18
f 18 22 23 19
f 19 23 24 20
f 21 17 20 24
g DoorPlank2
usemtl SURVIVAL_WOOD
f 25 26 27 28
f 29 32 31 30
f 25 29 30 26
f 26 30 31 27
f 27 31 32 28
f 29 25 28 32
g DoorPlank3
usemtl SURVIVAL_WOOD_LIGHT
f 33 34 35 36
f 37 40 39 38
f 33 37 38 34
f 34 38 39 35
f 35 39 40 36
f 37 33 36 40
g DoorPlank4
usemtl SURVIVAL_WOOD
f 41 42 43 44
f 45 48 47 46
f 41 45 46 42
f 42 46 47 43
f 43 47 48 44
f 45 41 44 48
g FrameTop
usemtl SURVIVAL_WOOD_DARK
f 49 50 51 52
f 53 56 55 54
f 49 53 54 50
f 50 54 55 51
f 51 55 56 52
f 53 49 52 56
g FrameLeft
f 57 58 59 60
f 61 64 63 62
f 57 61 62 58
f 58 62 63 59
f 59 63 64 60
f 61 57 60 64
g FrameRight
f 65 66 67 68
f 69 72 71 70
f 65 69 70 66
f 66 70 71 67
f 67 71 72 68
f 69 65 68 72
g Brace
f 73 74 82 81
f 74 75 83 82
f 75 76 84 83
f 76 77 85 84
f 77 78 86 85
f 78 79 87 86
f 79 80 88 87
f 80 73 81 88
g Handle
usemtl SURVIVAL_METAL
f 89 90 102 101
f 90 91 103 102
f 91 92 104 103
f 92 93 105 104
f 93 94 106 105
f 94 95 107 106
f 95 96 108 107
f 96 97 109 108
f 97 98 110 109
f 98 99 111 110
f 99 100 112 111
f 100 89 101 112
f 101 102 114 113
f 102 103 115 114
f 103 104 116 115
f 104 105 117 116
f 105 106 118 117
f 106 107 119 118
f 107 108 120 119
f 108 109 121 120
f 109 110 122 121
f 110 111 123 122
f 111 112 124 123
f 112 101 113 124
f 113 114 126 125
f 114 115 127 126
f 115 116 128 127
f 116 117 129 128
f 117 118 130 129
f 118 119 131 130
f 119 120 132 131
f 120 121 133 132
f 121 122 134 133
f 122 123 135 134
f 123 124 136 135
f 124 113 125 136
f 125 126 138 137
f 126 127 139 138
f 127 128 140 139
f 128 129 141 140
f 129 130 142 141
f 130 131 143 142
f 131 132 144 143
f 132 133 145 144
f 133 134 146 145
f 134 135 147 146
f 135 136 148 147
f 136 125 137 148
f 137 138 150 149
f 138 139 151 150
f 139 140 152 151
f 140 141 153 152
f 141 142 154 153
f 142 143 155 154
f 143 144 156 155
f 144 145 157 156
f 145 146 158 157
f 146 147 159 158
f 147 148 160 159
f 148 137 149 160
f 149 150 162 161
f 150 151 163 162
f 151 152 164 163
f 152 153 165 164
f 153 154 166 165
f 154 155 167 166
f 155 156 168 167
f 156 157 169 168
f 157 158 170 169
f 158 159 171 170
f 159 160 172 171
f 160 149 161 172
g LatchPlate
usemtl SURVIVAL_METAL_DARK
f 173 174 175 176
f 177 180 179 178
f 173 177 178 174
f 174 178 179 175
f 175 179 180 176
f 177 173 176 180
g HingeTop
usemtl SURVIVAL_METAL
f 181 182 190 189
f 182 183 191 190
f 183 184 192 191
f 184 185 193 192
f 185 186 194 193
f 186 187 195 194
f 187 188 196 195
f 188 181 189 196
g HingeBottom
f 197 198 206 205
f 198 199 207 206
f 199 200 208 207
f 200 201 209 208
f 201 202 210 209
f 202 203 211 210
f 203 204 212 211
f 204 197 205 212
