# foundation_rect - project-original survival asset
mtllib survival-core-world.mtl
o foundation_rect
v -3.2 -2.6 0
v 3.2 -2.6 0
v 3.2 2.6 0
v -3.2 2.6 0
v -3.2 -2.6 0.7
v 3.2 -2.6 0.7
v 3.2 2.6 0.7
v -3.2 2.6 0.7
v -3.19 -2.46 0.56
v -1.81 -2.46 0.56
v -1.81 -1.64 0.56
v -3.19 -1.64 0.56
v -3.19 -2.46 0.98
v -1.81 -2.46 0.98
v -1.81 -1.64 0.98
v -3.19 -1.64 0.98
v -1.54 -2.46 0.56
v -0.16 -2.46 0.56
v -0.16 -1.64 0.56
v -1.54 -1.64 0.56
v -1.54 -2.46 0.98
v -0.16 -2.46 0.98
v -0.16 -1.64 0.98
v -1.54 -1.64 0.98
v 0.16 -2.46 0.56
v 1.54 -2.46 0.56
v 1.54 -1.64 0.56
v 0.16 -1.64 0.56
v 0.16 -2.46 0.98
v 1.54 -2.46 0.98
v 1.54 -1.64 0.98
v 0.16 -1.64 0.98
v 1.81 -2.46 0.56
v 3.19 -2.46 0.56
v 3.19 -1.64 0.56
v 1.81 -1.64 0.56
v 1.81 -2.46 0.98
v 3.19 -2.46 0.98
v 3.19 -1.64 0.98
v 1.81 -1.64 0.98
v -3.19 1.64 0.56
v -1.81 1.64 0.56
v -1.81 2.46 0.56
v -3.19 2.46 0.56
v -3.19 1.64 0.98
v -1.81 1.64 0.98
v -1.81 2.46 0.98
v -3.19 2.46 0.98
v -1.54 1.64 0.56
v -0.16 1.64 0.56
v -0.16 2.46 0.56
v -1.54 2.46 0.56
v -1.54 1.64 0.98
v -0.16 1.64 0.98
v -0.16 2.46 0.98
v -1.54 2.46 0.98
v 0.16 1.64 0.56
v 1.54 1.64 0.56
v 1.54 2.46 0.56
v 0.16 2.46 0.56
v 0.16 1.64 0.98
v 1.54 1.64 0.98
v 1.54 2.46 0.98
v 0.16 2.46 0.98
v 1.81 1.64 0.56
v 3.19 1.64 0.56
v 3.19 2.46 0.56
v 1.81 2.46 0.56
v 1.81 1.64 0.98
v 3.19 1.64 0.98
v 3.19 2.46 0.98
v 1.81 2.46 0.98
v -2.83 -2.525 0.88
v -2.47 -2.525 0.88
v -2.47 2.525 0.88
v -2.83 2.525 0.88
v -2.83 -2.525 1.22
v -2.47 -2.525 1.22
v -2.47 2.525 1.22
v -2.83 2.525 1.22
v 2.47 -2.525 0.88
v 2.83 -2.525 0.88
v 2.83 2.525 0.88
v 2.47 2.525 0.88
v 2.47 -2.525 1.22
v 2.83 -2.525 1.22
v 2.83 2.525 1.22
v 2.47 2.525 1.22
v -2.5 -2.26 0.88
v 2.5 -2.26 0.88
v 2.5 -1.9 0.88
v -2.5 -1.9 0.88
v -2.5 -2.26 1.22
v 2.5 -2.26 1.22
v 2.5 -1.9 1.22
v -2.5 -1.9 1.22
v -2.5 1.9 0.88
v 2.5 1.9 0.88
v 2.5 2.26 0.88
v -2.5 2.26 0.88
v -2.5 1.9 1.22
v 2.5 1.9 1.22
v 2.5 2.26 1.22
v -2.5 2.26 1.22
g FoundationCore
usemtl SURVIVAL_STONE_DARK
f 1 2 3 4
f 5 8 7 6
f 1 5 6 2
f 2 6 7 3
f 3 7 8 4
f 5 1 4 8
g StoneBlock0
usemtl SURVIVAL_STONE_LIGHT
f 9 10 11 12
f 13 16 15 14
f 9 13 14 10
f 10 14 15 11
f 11 15 16 12
f 13 9 12 16
g StoneBlock1
usemtl SURVIVAL_STONE
f 17 18 19 20
f 21 24 23 22
f 17 21 22 18
f 18 22 23 19
f 19 23 24 20
f 21 17 20 24
g StoneBlock2
usemtl SURVIVAL_STONE_LIGHT
f 25 26 27 28
f 29 32 31 30
f 25 29 30 26
f 26 30 31 27
f 27 31 32 28
f 29 25 28 32
g StoneBlock3
usemtl SURVIVAL_STONE
f 33 34 35 36
f 37 40 39 38
f 33 37 38 34
f 34 38 39 35
f 35 39 40 36
f 37 33 36 40
g StoneBlock4
usemtl SURVIVAL_STONE_LIGHT
f 41 42 43 44
f 45 48 47 46
f 41 45 46 42
f 42 46 47 43
f 43 47 48 44
f 45 41 44 48
g StoneBlock5
usemtl SURVIVAL_STONE
f 49 50 51 52
f 53 56 55 54
f 49 53 54 50
f 50 54 55 51
f 51 55 56 52
f 53 49 52 56
g StoneBlock6
usemtl SURVIVAL_STONE_LIGHT
f 57 58 59 60
f 61 64 63 62
f 57 61 62 58
f 58 62 63 59
f 59 63 64 60
f 61 57 60 64
g StoneBlock7
usemtl SURVIVAL_STONE
f 65 66 67 68
f 69 72 71 70
f 65 69 70 66
f 66 70 71 67
f 67 71 72 68
f 69 65 68 72
g BeamX-2.65
usemtl SURVIVAL_WOOD_DARK
f 73 74 75 76
f 77 80 79 78
f 73 77 78 74
f 74 78 79 75
f 75 79 80 76
f 77 73 76 80
g BeamX2.65
f 81 82 83 84
f 85 88 87 86
f 81 85 86 82
f 82 86 87 83
f 83 87 88 84
f 85 81 84 88
g BeamY-2.08
f 89 90 91 92
f 93 96 95 94
f 89 93 94 90
f 90 94 95 91
f 91 95 96 92
f 93 89 92 96
g BeamY2.08
f 97 98 99 100
f 101 104 103 102
f 97 101 102 98
f 98 102 103 99
f 99 103 104 100
f 101 97 100 104
