# road_dirt - project-original survival asset
mtllib survival-core-world.mtl
o road_dirt
v -2.9 -3.9 0
v 2.9 -3.9 0
v 2.9 3.9 0
v -2.9 3.9 0
v -2.9 -3.9 0.12
v 2.9 -3.9 0.12
v 2.9 3.9 0.12
v -2.9 3.9 0.12
v -2.65 -3.8 0.09
v 2.55 -3.75 0.09
v 2.8 -2.4 0.09
v 2.55 -0.8 0.09
v 2.72 0.7 0.09
v 2.45 2.2 0.09
v 2.65 3.8 0.09
v -2.55 3.78 0.09
v -2.75 2.15 0.09
v -2.5 0.75 0.09
v -2.72 -0.85 0.09
v -2.48 -2.35 0.09
v -2.65 -3.8 0.19
v 2.55 -3.75 0.19
v 2.8 -2.4 0.19
v 2.55 -0.8 0.19
v 2.72 0.7 0.19
v 2.45 2.2 0.19
v 2.65 3.8 0.19
v -2.55 3.78 0.19
v -2.75 2.15 0.19
v -2.5 0.75 0.19
v -2.72 -0.85 0.19
v -2.48 -2.35 0.19
v -1.25 -3.4 0.215
v -0.95 -3.4 0.215
v -0.95 3.4 0.215
v -1.25 3.4 0.215
v -1.25 -3.4 0.265
v -0.95 -3.4 0.265
v -0.95 3.4 0.265
v -1.25 3.4 0.265
v 0.95 -3.4 0.215
v 1.25 -3.4 0.215
v 1.25 3.4 0.215
v 0.95 3.4 0.215
v 0.95 -3.4 0.265
v 1.25 -3.4 0.265
v 1.25 3.4 0.265
v 0.95 3.4 0.265
v 2.45 -3.2 0.11
v 2.45 -3.2 0.11
v 2.45 -3.2 0.11
v 2.45 -3.2 0.11
v 2.45 -3.2 0.11
v 2.45 -3.2 0.11
v 2.45 -3.2 0.11
v 2.45 -3.2 0.11
v 2.58519 -3.2 0.14056
v 2.54559 -3.05869 0.14056
v 2.45 -3.00015 0.14056
v 2.35441 -3.05869 0.14056
v 2.31481 -3.2 0.14056
v 2.35441 -3.34131 0.14056
v 2.45 -3.39985 0.14056
v 2.54559 -3.34131 0.14056
v 2.66874 -3.2 0.22056
v 2.60467 -2.97135 0.22056
v 2.45 -2.87664 0.22056
v 2.29533 -2.97135 0.22056
v 2.23126 -3.2 0.22056
v 2.29533 -3.42865 0.22056
v 2.45 -3.52336 0.22056
v 2.60467 -3.42865 0.22056
v 2.66874 -3.2 0.31944
v 2.60467 -2.97135 0.31944
v 2.45 -2.87664 0.31944
v 2.29533 -2.97135 0.31944
v 2.23126 -3.2 0.31944
v 2.29533 -3.42865 0.31944
v 2.45 -3.52336 0.31944
v 2.60467 -3.42865 0.31944
v 2.58519 -3.2 0.39944
v 2.54559 -3.05869 0.39944
v 2.45 -3.00015 0.39944
v 2.35441 -3.05869 0.39944
v 2.31481 -3.2 0.39944
v 2.35441 -3.34131 0.39944
v 2.45 -3.39985 0.39944
v 2.54559 -3.34131 0.39944
v 2.45 -3.2 0.43
v 2.45 -3.2 0.43
v 2.45 -3.2 0.43
v 2.45 -3.2 0.43
v 2.45 -3.2 0.43
v 2.45 -3.2 0.43
v 2.45 -3.2 0.43
v 2.45 -3.2 0.43
v -2.53 -2.5 0.11
v -2.53 -2.5 0.11
v -2.53 -2.5 0.11
v -2.53 -2.5 0.11
v -2.53 -2.5 0.11
v -2.53 -2.5 0.11
v -2.53 -2.5 0.11
v -2.53 -2.5 0.11
v -2.39481 -2.5 0.14056
v -2.43441 -2.35869 0.14056
v -2.53 -2.30015 0.14056
v -2.62559 -2.35869 0.14056
v -2.66519 -2.5 0.14056
v -2.62559 -2.64131 0.14056
v -2.53 -2.69985 0.14056
v -2.43441 -2.64131 0.14056
v -2.31126 -2.5 0.22056
v -2.37533 -2.27135 0.22056
v -2.53 -2.17664 0.22056
v -2.68467 -2.27135 0.22056
v -2.74874 -2.5 0.22056
v -2.68467 -2.72865 0.22056
v -2.53 -2.82336 0.22056
v -2.37533 -2.72865 0.22056
v -2.31126 -2.5 0.31944
v -2.37533 -2.27135 0.31944
v -2.53 -2.17664 0.31944
v -2.68467 -2.27135 0.31944
v -2.74874 -2.5 0.31944
v -2.68467 -2.72865 0.31944
v -2.53 -2.82336 0.31944
v -2.37533 -2.72865 0.31944
v -2.39481 -2.5 0.39944
v -2.43441 -2.35869 0.39944
v -2.53 -2.30015 0.39944
v -2.62559 -2.35869 0.39944
v -2.66519 -2.5 0.39944
v -2.62559 -2.64131 0.39944
v -2.53 -2.69985 0.39944
v -2.43441 -2.64131 0.39944
v -2.53 -2.5 0.43
v -2.53 -2.5 0.43
v -2.53 -2.5 0.43
v -2.53 -2.5 0.43
v -2.53 -2.5 0.43
v -2.53 -2.5 0.43
v -2.53 -2.5 0.43
v -2.53 -2.5 0.43
v 2.61 -1.8 0.11
v 2.61 -1.8 0.11
v 2.61 -1.8 0.11
v 2.61 -1.8 0.11
v 2.61 -1.8 0.11
v 2.61 -1.8 0.11
v 2.61 -1.8 0.11
v 2.61 -1.8 0.11
v 2.74519 -1.8 0.14056
v 2.70559 -1.65869 0.14056
v 2.61 -1.60015 0.14056
v 2.51441 -1.65869 0.14056
v 2.47481 -1.8 0.14056
v 2.51441 -1.94131 0.14056
v 2.61 -1.99985 0.14056
v 2.70559 -1.94131 0.14056
v 2.82874 -1.8 0.22056
v 2.76467 -1.57135 0.22056
v 2.61 -1.47664 0.22056
v 2.45533 -1.57135 0.22056
v 2.39126 -1.8 0.22056
v 2.45533 -2.02865 0.22056
v 2.61 -2.12336 0.22056
v 2.76467 -2.02865 0.22056
v 2.82874 -1.8 0.31944
v 2.76467 -1.57135 0.31944
v 2.61 -1.47664 0.31944
v 2.45533 -1.57135 0.31944
v 2.39126 -1.8 0.31944
v 2.45533 -2.02865 0.31944
v 2.61 -2.12336 0.31944
v 2.76467 -2.02865 0.31944
v 2.74519 -1.8 0.39944
v 2.70559 -1.65869 0.39944
v 2.61 -1.60015 0.39944
v 2.51441 -1.65869 0.39944
v 2.47481 -1.8 0.39944
v 2.51441 -1.94131 0.39944
v 2.61 -1.99985 0.39944
v 2.70559 -1.94131 0.39944
v 2.61 -1.8 0.43
v 2.61 -1.8 0.43
v 2.61 -1.8 0.43
v 2.61 -1.8 0.43
v 2.61 -1.8 0.43
v 2.61 -1.8 0.43
v 2.61 -1.8 0.43
v 2.61 -1.8 0.43
v -2.45 -1.1 0.11
v -2.45 -1.1 0.11
v -2.45 -1.1 0.11
v -2.45 -1.1 0.11
v -2.45 -1.1 0.11
v -2.45 -1.1 0.11
v -2.45 -1.1 0.11
v -2.45 -1.1 0.11
v -2.31481 -1.1 0.14056
v -2.35441 -0.95869 0.14056
v -2.45 -0.90015 0.14056
v -2.54559 -0.95869 0.14056
v -2.58519 -1.1 0.14056
v -2.54559 -1.24131 0.14056
v -2.45 -1.29985 0.14056
v -2.35441 -1.24131 0.14056
v -2.23126 -1.1 0.22056
v -2.29533 -0.87135 0.22056
v -2.45 -0.77664 0.22056
v -2.60467 -0.87135 0.22056
v -2.66874 -1.1 0.22056
v -2.60467 -1.32865 0.22056
v -2.45 -1.42336 0.22056
v -2.29533 -1.32865 0.22056
v -2.23126 -1.1 0.31944
v -2.29533 -0.87135 0.31944
v -2.45 -0.77664 0.31944
v -2.60467 -0.87135 0.31944
v -2.66874 -1.1 0.31944
v -2.60467 -1.32865 0.31944
v -2.45 -1.42336 0.31944
v -2.29533 -1.32865 0.31944
v -2.31481 -1.1 0.39944
v -2.35441 -0.95869 0.39944
v -2.45 -0.90015 0.39944
v -2.54559 -0.95869 0.39944
v -2.58519 -1.1 0.39944
v -2.54559 -1.24131 0.39944
v -2.45 -1.29985 0.39944
v -2.35441 -1.24131 0.39944
v -2.45 -1.1 0.43
v -2.45 -1.1 0.43
v -2.45 -1.1 0.43
v -2.45 -1.1 0.43
v -2.45 -1.1 0.43
v -2.45 -1.1 0.43
v -2.45 -1.1 0.43
v -2.45 -1.1 0.43
v 2.53 -0.4 0.11
v 2.53 -0.4 0.11
v 2.53 -0.4 0.11
v 2.53 -0.4 0.11
v 2.53 -0.4 0.11
v 2.53 -0.4 0.11
v 2.53 -0.4 0.11
v 2.53 -0.4 0.11
v 2.66519 -0.4 0.14056
v 2.62559 -0.25869 0.14056
v 2.53 -0.20015 0.14056
v 2.43441 -0.25869 0.14056
v 2.39481 -0.4 0.14056
v 2.43441 -0.54131 0.14056
v 2.53 -0.59985 0.14056
v 2.62559 -0.54131 0.14056
v 2.74874 -0.4 0.22056
v 2.68467 -0.17135 0.22056
v 2.53 -0.07664 0.22056
v 2.37533 -0.17135 0.22056
v 2.31126 -0.4 0.22056
v 2.37533 -0.62865 0.22056
v 2.53 -0.72336 0.22056
v 2.68467 -0.62865 0.22056
v 2.74874 -0.4 0.31944
v 2.68467 -0.17135 0.31944
v 2.53 -0.07664 0.31944
v 2.37533 -0.17135 0.31944
v 2.31126 -0.4 0.31944
v 2.37533 -0.62865 0.31944
v 2.53 -0.72336 0.31944
v 2.68467 -0.62865 0.31944
v 2.66519 -0.4 0.39944
v 2.62559 -0.25869 0.39944
v 2.53 -0.20015 0.39944
v 2.43441 -0.25869 0.39944
v 2.39481 -0.4 0.39944
v 2.43441 -0.54131 0.39944
v 2.53 -0.59985 0.39944
v 2.62559 -0.54131 0.39944
v 2.53 -0.4 0.43
v 2.53 -0.4 0.43
v 2.53 -0.4 0.43
v 2.53 -0.4 0.43
v 2.53 -0.4 0.43
v 2.53 -0.4 0.43
v 2.53 -0.4 0.43
v 2.53 -0.4 0.43
v -2.61 0.3 0.11
v -2.61 0.3 0.11
v -2.61 0.3 0.11
v -2.61 0.3 0.11
v -2.61 0.3 0.11
v -2.61 0.3 0.11
v -2.61 0.3 0.11
v -2.61 0.3 0.11
v -2.47481 0.3 0.14056
v -2.51441 0.44131 0.14056
v -2.61 0.49985 0.14056
v -2.70559 0.44131 0.14056
v -2.74519 0.3 0.14056
v -2.70559 0.15869 0.14056
v -2.61 0.10015 0.14056
v -2.51441 0.15869 0.14056
v -2.39126 0.3 0.22056
v -2.45533 0.52865 0.22056
v -2.61 0.62336 0.22056
v -2.76467 0.52865 0.22056
v -2.82874 0.3 0.22056
v -2.76467 0.07135 0.22056
v -2.61 -0.02336 0.22056
v -2.45533 0.07135 0.22056
v -2.39126 0.3 0.31944
v -2.45533 0.52865 0.31944
v -2.61 0.62336 0.31944
v -2.76467 0.52865 0.31944
v -2.82874 0.3 0.31944
v -2.76467 0.07135 0.31944
v -2.61 -0.02336 0.31944
v -2.45533 0.07135 0.31944
v -2.47481 0.3 0.39944
v -2.51441 0.44131 0.39944
v -2.61 0.49985 0.39944
v -2.70559 0.44131 0.39944
v -2.74519 0.3 0.39944
v -2.70559 0.15869 0.39944
v -2.61 0.10015 0.39944
v -2.51441 0.15869 0.39944
v -2.61 0.3 0.43
v -2.61 0.3 0.43
v -2.61 0.3 0.43
v -2.61 0.3 0.43
v -2.61 0.3 0.43
v -2.61 0.3 0.43
v -2.61 0.3 0.43
v -2.61 0.3 0.43
v 2.45 1 0.11
v 2.45 1 0.11
v 2.45 1 0.11
v 2.45 1 0.11
v 2.45 1 0.11
v 2.45 1 0.11
v 2.45 1 0.11
v 2.45 1 0.11
v 2.58519 1 0.14056
v 2.54559 1.14131 0.14056
v 2.45 1.19985 0.14056
v 2.35441 1.14131 0.14056
v 2.31481 1 0.14056
v 2.35441 0.85869 0.14056
v 2.45 0.80015 0.14056
v 2.54559 0.85869 0.14056
v 2.66874 1 0.22056
v 2.60467 1.22865 0.22056
v 2.45 1.32336 0.22056
v 2.29533 1.22865 0.22056
v 2.23126 1 0.22056
v 2.29533 0.77135 0.22056
v 2.45 0.67664 0.22056
v 2.60467 0.77135 0.22056
v 2.66874 1 0.31944
v 2.60467 1.22865 0.31944
v 2.45 1.32336 0.31944
v 2.29533 1.22865 0.31944
v 2.23126 1 0.31944
v 2.29533 0.77135 0.31944
v 2.45 0.67664 0.31944
v 2.60467 0.77135 0.31944
v 2.58519 1 0.39944
v 2.54559 1.14131 0.39944
v 2.45 1.19985 0.39944
v 2.35441 1.14131 0.39944
v 2.31481 1 0.39944
v 2.35441 0.85869 0.39944
v 2.45 0.80015 0.39944
v 2.54559 0.85869 0.39944
v 2.45 1 0.43
v 2.45 1 0.43
v 2.45 1 0.43
v 2.45 1 0.43
v 2.45 1 0.43
v 2.45 1 0.43
v 2.45 1 0.43
v 2.45 1 0.43
v -2.53 1.7 0.11
v -2.53 1.7 0.11
v -2.53 1.7 0.11
v -2.53 1.7 0.11
v -2.53 1.7 0.11
v -2.53 1.7 0.11
v -2.53 1.7 0.11
v -2.53 1.7 0.11
v -2.39481 1.7 0.14056
v -2.43441 1.84131 0.14056
v -2.53 1.89985 0.14056
v -2.62559 1.84131 0.14056
v -2.66519 1.7 0.14056
v -2.62559 1.55869 0.14056
v -2.53 1.50015 0.14056
v -2.43441 1.55869 0.14056
v -2.31126 1.7 0.22056
v -2.37533 1.92865 0.22056
v -2.53 2.02336 0.22056
v -2.68467 1.92865 0.22056
v -2.74874 1.7 0.22056
v -2.68467 1.47135 0.22056
v -2.53 1.37664 0.22056
v -2.37533 1.47135 0.22056
v -2.31126 1.7 0.31944
v -2.37533 1.92865 0.31944
v -2.53 2.02336 0.31944
v -2.68467 1.92865 0.31944
v -2.74874 1.7 0.31944
v -2.68467 1.47135 0.31944
v -2.53 1.37664 0.31944
v -2.37533 1.47135 0.31944
v -2.39481 1.7 0.39944
v -2.43441 1.84131 0.39944
v -2.53 1.89985 0.39944
v -2.62559 1.84131 0.39944
v -2.66519 1.7 0.39944
v -2.62559 1.55869 0.39944
v -2.53 1.50015 0.39944
v -2.43441 1.55869 0.39944
v -2.53 1.7 0.43
v -2.53 1.7 0.43
v -2.53 1.7 0.43
v -2.53 1.7 0.43
v -2.53 1.7 0.43
v -2.53 1.7 0.43
v -2.53 1.7 0.43
v -2.53 1.7 0.43
v 2.61 2.4 0.11
v 2.61 2.4 0.11
v 2.61 2.4 0.11
v 2.61 2.4 0.11
v 2.61 2.4 0.11
v 2.61 2.4 0.11
v 2.61 2.4 0.11
v 2.61 2.4 0.11
v 2.74519 2.4 0.14056
v 2.70559 2.54131 0.14056
v 2.61 2.59985 0.14056
v 2.51441 2.54131 0.14056
v 2.47481 2.4 0.14056
v 2.51441 2.25869 0.14056
v 2.61 2.20015 0.14056
v 2.70559 2.25869 0.14056
v 2.82874 2.4 0.22056
v 2.76467 2.62865 0.22056
v 2.61 2.72336 0.22056
v 2.45533 2.62865 0.22056
v 2.39126 2.4 0.22056
v 2.45533 2.17135 0.22056
v 2.61 2.07664 0.22056
v 2.76467 2.17135 0.22056
v 2.82874 2.4 0.31944
v 2.76467 2.62865 0.31944
v 2.61 2.72336 0.31944
v 2.45533 2.62865 0.31944
v 2.39126 2.4 0.31944
v 2.45533 2.17135 0.31944
v 2.61 2.07664 0.31944
v 2.76467 2.17135 0.31944
v 2.74519 2.4 0.39944
v 2.70559 2.54131 0.39944
v 2.61 2.59985 0.39944
v 2.51441 2.54131 0.39944
v 2.47481 2.4 0.39944
v 2.51441 2.25869 0.39944
v 2.61 2.20015 0.39944
v 2.70559 2.25869 0.39944
v 2.61 2.4 0.43
v 2.61 2.4 0.43
v 2.61 2.4 0.43
v 2.61 2.4 0.43
v 2.61 2.4 0.43
v 2.61 2.4 0.43
v 2.61 2.4 0.43
v 2.61 2.4 0.43
v -2.45 3.1 0.11
v -2.45 3.1 0.11
v -2.45 3.1 0.11
v -2.45 3.1 0.11
v -2.45 3.1 0.11
v -2.45 3.1 0.11
v -2.45 3.1 0.11
v -2.45 3.1 0.11
v -2.31481 3.1 0.14056
v -2.35441 3.24131 0.14056
v -2.45 3.29985 0.14056
v -2.54559 3.24131 0.14056
v -2.58519 3.1 0.14056
v -2.54559 2.95869 0.14056
v -2.45 2.90015 0.14056
v -2.35441 2.95869 0.14056
v -2.23126 3.1 0.22056
v -2.29533 3.32865 0.22056
v -2.45 3.42336 0.22056
v -2.60467 3.32865 0.22056
v -2.66874 3.1 0.22056
v -2.60467 2.87135 0.22056
v -2.45 2.77664 0.22056
v -2.29533 2.87135 0.22056
v -2.23126 3.1 0.31944
v -2.29533 3.32865 0.31944
v -2.45 3.42336 0.31944
v -2.60467 3.32865 0.31944
v -2.66874 3.1 0.31944
v -2.60467 2.87135 0.31944
v -2.45 2.77664 0.31944
v -2.29533 2.87135 0.31944
v -2.31481 3.1 0.39944
v -2.35441 3.24131 0.39944
v -2.45 3.29985 0.39944
v -2.54559 3.24131 0.39944
v -2.58519 3.1 0.39944
v -2.54559 2.95869 0.39944
v -2.45 2.90015 0.39944
v -2.35441 2.95869 0.39944
v -2.45 3.1 0.43
v -2.45 3.1 0.43
v -2.45 3.1 0.43
v -2.45 3.1 0.43
v -2.45 3.1 0.43
v -2.45 3.1 0.43
v -2.45 3.1 0.43
v -2.45 3.1 0.43
v -2.15 -2.8 0.12
v -2.15 -2.8 0.12
v -2.15 -2.8 0.12
v -2.15 -2.8 0.12
v -2.15 -2.8 0.12
v -2.15 -2.8 0.12
v -2.15 -2.8 0.12
v -2.15 -2.8 0.12
v -1.95201 -2.8 0.14929
v -2.01 -2.69 0.14929
v -2.15 -2.64444 0.14929
v -2.29 -2.69 0.14929
v -2.34799 -2.8 0.14929
v -2.29 -2.91 0.14929
v -2.15 -2.95556 0.14929
v -2.01 -2.91 0.14929
v -1.87 -2.8 0.22
v -1.95201 -2.64444 0.22
v -2.15 -2.58 0.22
v -2.34799 -2.64444 0.22
v -2.43 -2.8 0.22
v -2.34799 -2.95556 0.22
v -2.15 -3.02 0.22
v -1.95201 -2.95556 0.22
v -1.95201 -2.8 0.29071
v -2.01 -2.69 0.29071
v -2.15 -2.64444 0.29071
v -2.29 -2.69 0.29071
v -2.34799 -2.8 0.29071
v -2.29 -2.91 0.29071
v -2.15 -2.95556 0.29071
v -2.01 -2.91 0.29071
v -2.15 -2.8 0.32
v -2.15 -2.8 0.32
v -2.15 -2.8 0.32
v -2.15 -2.8 0.32
v -2.15 -2.8 0.32
v -2.15 -2.8 0.32
v -2.15 -2.8 0.32
v -2.15 -2.8 0.32
v -0.7 -2.8 0.12
v -0.7 -2.8 0.12
v -0.7 -2.8 0.12
v -0.7 -2.8 0.12
v -0.7 -2.8 0.12
v -0.7 -2.8 0.12
v -0.7 -2.8 0.12
v -0.7 -2.8 0.12
v -0.50201 -2.8 0.14929
v -0.56 -2.69 0.14929
v -0.7 -2.64444 0.14929
v -0.84 -2.69 0.14929
v -0.89799 -2.8 0.14929
v -0.84 -2.91 0.14929
v -0.7 -2.95556 0.14929
v -0.56 -2.91 0.14929
v -0.42 -2.8 0.22
v -0.50201 -2.64444 0.22
v -0.7 -2.58 0.22
v -0.89799 -2.64444 0.22
v -0.98 -2.8 0.22
v -0.89799 -2.95556 0.22
v -0.7 -3.02 0.22
v -0.50201 -2.95556 0.22
v -0.50201 -2.8 0.29071
v -0.56 -2.69 0.29071
v -0.7 -2.64444 0.29071
v -0.84 -2.69 0.29071
v -0.89799 -2.8 0.29071
v -0.84 -2.91 0.29071
v -0.7 -2.95556 0.29071
v -0.56 -2.91 0.29071
v -0.7 -2.8 0.32
v -0.7 -2.8 0.32
v -0.7 -2.8 0.32
v -0.7 -2.8 0.32
v -0.7 -2.8 0.32
v -0.7 -2.8 0.32
v -0.7 -2.8 0.32
v -0.7 -2.8 0.32
v 0.75 -2.8 0.12
v 0.75 -2.8 0.12
v 0.75 -2.8 0.12
v 0.75 -2.8 0.12
v 0.75 -2.8 0.12
v 0.75 -2.8 0.12
v 0.75 -2.8 0.12
v 0.75 -2.8 0.12
v 0.94799 -2.8 0.14929
v 0.89 -2.69 0.14929
v 0.75 -2.64444 0.14929
v 0.61 -2.69 0.14929
v 0.55201 -2.8 0.14929
v 0.61 -2.91 0.14929
v 0.75 -2.95556 0.14929
v 0.89 -2.91 0.14929
v 1.03 -2.8 0.22
v 0.94799 -2.64444 0.22
v 0.75 -2.58 0.22
v 0.55201 -2.64444 0.22
v 0.47 -2.8 0.22
v 0.55201 -2.95556 0.22
v 0.75 -3.02 0.22
v 0.94799 -2.95556 0.22
v 0.94799 -2.8 0.29071
v 0.89 -2.69 0.29071
v 0.75 -2.64444 0.29071
v 0.61 -2.69 0.29071
v 0.55201 -2.8 0.29071
v 0.61 -2.91 0.29071
v 0.75 -2.95556 0.29071
v 0.89 -2.91 0.29071
v 0.75 -2.8 0.32
v 0.75 -2.8 0.32
v 0.75 -2.8 0.32
v 0.75 -2.8 0.32
v 0.75 -2.8 0.32
v 0.75 -2.8 0.32
v 0.75 -2.8 0.32
v 0.75 -2.8 0.32
v 2.2 -2.8 0.12
v 2.2 -2.8 0.12
v 2.2 -2.8 0.12
v 2.2 -2.8 0.12
v 2.2 -2.8 0.12
v 2.2 -2.8 0.12
v 2.2 -2.8 0.12
v 2.2 -2.8 0.12
v 2.39799 -2.8 0.14929
v 2.34 -2.69 0.14929
v 2.2 -2.64444 0.14929
v 2.06 -2.69 0.14929
v 2.00201 -2.8 0.14929
v 2.06 -2.91 0.14929
v 2.2 -2.95556 0.14929
v 2.34 -2.91 0.14929
v 2.48 -2.8 0.22
v 2.39799 -2.64444 0.22
v 2.2 -2.58 0.22
v 2.00201 -2.64444 0.22
v 1.92 -2.8 0.22
v 2.00201 -2.95556 0.22
v 2.2 -3.02 0.22
v 2.39799 -2.95556 0.22
v 2.39799 -2.8 0.29071
v 2.34 -2.69 0.29071
v 2.2 -2.64444 0.29071
v 2.06 -2.69 0.29071
v 2.00201 -2.8 0.29071
v 2.06 -2.91 0.29071
v 2.2 -2.95556 0.29071
v 2.34 -2.91 0.29071
v 2.2 -2.8 0.32
v 2.2 -2.8 0.32
v 2.2 -2.8 0.32
v 2.2 -2.8 0.32
v 2.2 -2.8 0.32
v 2.2 -2.8 0.32
v 2.2 -2.8 0.32
v 2.2 -2.8 0.32
v -2.15 2.8 0.12
v -2.15 2.8 0.12
v -2.15 2.8 0.12
v -2.15 2.8 0.12
v -2.15 2.8 0.12
v -2.15 2.8 0.12
v -2.15 2.8 0.12
v -2.15 2.8 0.12
v -1.95201 2.8 0.14929
v -2.01 2.91 0.14929
v -2.15 2.95556 0.14929
v -2.29 2.91 0.14929
v -2.34799 2.8 0.14929
v -2.29 2.69 0.14929
v -2.15 2.64444 0.14929
v -2.01 2.69 0.14929
v -1.87 2.8 0.22
v -1.95201 2.95556 0.22
v -2.15 3.02 0.22
v -2.34799 2.95556 0.22
v -2.43 2.8 0.22
v -2.34799 2.64444 0.22
v -2.15 2.58 0.22
v -1.95201 2.64444 0.22
v -1.95201 2.8 0.29071
v -2.01 2.91 0.29071
v -2.15 2.95556 0.29071
v -2.29 2.91 0.29071
v -2.34799 2.8 0.29071
v -2.29 2.69 0.29071
v -2.15 2.64444 0.29071
v -2.01 2.69 0.29071
v -2.15 2.8 0.32
v -2.15 2.8 0.32
v -2.15 2.8 0.32
v -2.15 2.8 0.32
v -2.15 2.8 0.32
v -2.15 2.8 0.32
v -2.15 2.8 0.32
v -2.15 2.8 0.32
v -0.7 2.8 0.12
v -0.7 2.8 0.12
v -0.7 2.8 0.12
v -0.7 2.8 0.12
v -0.7 2.8 0.12
v -0.7 2.8 0.12
v -0.7 2.8 0.12
v -0.7 2.8 0.12
v -0.50201 2.8 0.14929
v -0.56 2.91 0.14929
v -0.7 2.95556 0.14929
v -0.84 2.91 0.14929
v -0.89799 2.8 0.14929
v -0.84 2.69 0.14929
v -0.7 2.64444 0.14929
v -0.56 2.69 0.14929
v -0.42 2.8 0.22
v -0.50201 2.95556 0.22
v -0.7 3.02 0.22
v -0.89799 2.95556 0.22
v -0.98 2.8 0.22
v -0.89799 2.64444 0.22
v -0.7 2.58 0.22
v -0.50201 2.64444 0.22
v -0.50201 2.8 0.29071
v -0.56 2.91 0.29071
v -0.7 2.95556 0.29071
v -0.84 2.91 0.29071
v -0.89799 2.8 0.29071
v -0.84 2.69 0.29071
v -0.7 2.64444 0.29071
v -0.56 2.69 0.29071
v -0.7 2.8 0.32
v -0.7 2.8 0.32
v -0.7 2.8 0.32
v -0.7 2.8 0.32
v -0.7 2.8 0.32
v -0.7 2.8 0.32
v -0.7 2.8 0.32
v -0.7 2.8 0.32
v 0.75 2.8 0.12
v 0.75 2.8 0.12
v 0.75 2.8 0.12
v 0.75 2.8 0.12
v 0.75 2.8 0.12
v 0.75 2.8 0.12
v 0.75 2.8 0.12
v 0.75 2.8 0.12
v 0.94799 2.8 0.14929
v 0.89 2.91 0.14929
v 0.75 2.95556 0.14929
v 0.61 2.91 0.14929
v 0.55201 2.8 0.14929
v 0.61 2.69 0.14929
v 0.75 2.64444 0.14929
v 0.89 2.69 0.14929
v 1.03 2.8 0.22
v 0.94799 2.95556 0.22
v 0.75 3.02 0.22
v 0.55201 2.95556 0.22
v 0.47 2.8 0.22
v 0.55201 2.64444 0.22
v 0.75 2.58 0.22
v 0.94799 2.64444 0.22
v 0.94799 2.8 0.29071
v 0.89 2.91 0.29071
v 0.75 2.95556 0.29071
v 0.61 2.91 0.29071
v 0.55201 2.8 0.29071
v 0.61 2.69 0.29071
v 0.75 2.64444 0.29071
v 0.89 2.69 0.29071
v 0.75 2.8 0.32
v 0.75 2.8 0.32
v 0.75 2.8 0.32
v 0.75 2.8 0.32
v 0.75 2.8 0.32
v 0.75 2.8 0.32
v 0.75 2.8 0.32
v 0.75 2.8 0.32
v 2.2 2.8 0.12
v 2.2 2.8 0.12
v 2.2 2.8 0.12
v 2.2 2.8 0.12
v 2.2 2.8 0.12
v 2.2 2.8 0.12
v 2.2 2.8 0.12
v 2.2 2.8 0.12
v 2.39799 2.8 0.14929
v 2.34 2.91 0.14929
v 2.2 2.95556 0.14929
v 2.06 2.91 0.14929
v 2.00201 2.8 0.14929
v 2.06 2.69 0.14929
v 2.2 2.64444 0.14929
v 2.34 2.69 0.14929
v 2.48 2.8 0.22
v 2.39799 2.95556 0.22
v 2.2 3.02 0.22
v 2.00201 2.95556 0.22
v 1.92 2.8 0.22
v 2.00201 2.64444 0.22
v 2.2 2.58 0.22
v 2.39799 2.64444 0.22
v 2.39799 2.8 0.29071
v 2.34 2.91 0.29071
v 2.2 2.95556 0.29071
v 2.06 2.91 0.29071
v 2.00201 2.8 0.29071
v 2.06 2.69 0.29071
v 2.2 2.64444 0.29071
v 2.34 2.69 0.29071
v 2.2 2.8 0.32
v 2.2 2.8 0.32
v 2.2 2.8 0.32
v 2.2 2.8 0.32
v 2.2 2.8 0.32
v 2.2 2.8 0.32
v 2.2 2.8 0.32
v 2.2 2.8 0.32
g RoadBed
usemtl SURVIVAL_DIRT_DARK
f 1 2 3 4
f 5 8 7 6
f 1 5 6 2
f 2 6 7 3
f 3 7 8 4
f 5 1 4 8
g RoadSurface
usemtl SURVIVAL_DIRT
f 9 10 22 21
f 10 11 23 22
f 11 12 24 23
f 12 13 25 24
f 13 14 26 25
f 14 15 27 26
f 15 16 28 27
f 16 17 29 28
f 17 18 30 29
f 18 19 31 30
f 19 20 32 31
f 20 9 21 32
f 20 19 18 17 16 15 14 13 12 11 10 9
f 21 22 23 24 25 26 27 28 29 30 31 32
g WheelRut-1.1
usemtl SURVIVAL_DIRT_WET
f 33 34 35 36
f 37 40 39 38
f 33 37 38 34
f 34 38 39 35
f 35 39 40 36
f 37 33 36 40
g WheelRut1.1
f 41 42 43 44
f 45 48 47 46
f 41 45 46 42
f 42 46 47 43
f 43 47 48 44
f 45 41 44 48
g EdgeStone0
usemtl SURVIVAL_STONE_DARK
f 49 50 58 57
f 50 51 59 58
f 51 52 60 59
f 52 53 61 60
f 53 54 62 61
f 54 55 63 62
f 55 56 64 63
f 56 49 57 64
f 57 58 66 65
f 58 59 67 66
f 59 60 68 67
f 60 61 69 68
f 61 62 70 69
f 62 63 71 70
f 63 64 72 71
f 64 57 65 72
f 65 66 74 73
f 66 67 75 74
f 67 68 76 75
f 68 69 77 76
f 69 70 78 77
f 70 71 79 78
f 71 72 80 79
f 72 65 73 80
f 73 74 82 81
f 74 75 83 82
f 75 76 84 83
f 76 77 85 84
f 77 78 86 85
f 78 79 87 86
f 79 80 88 87
f 80 73 81 88
f 81 82 90 89
f 82 83 91 90
f 83 84 92 91
f 84 85 93 92
f 85 86 94 93
f 86 87 95 94
f 87 88 96 95
f 88 81 89 96
g EdgeStone1
usemtl SURVIVAL_STONE
f 97 98 106 105
f 98 99 107 106
f 99 100 108 107
f 100 101 109 108
f 101 102 110 109
f 102 103 111 110
f 103 104 112 111
f 104 97 105 112
f 105 106 114 113
f 106 107 115 114
f 107 108 116 115
f 108 109 117 116
f 109 110 118 117
f 110 111 119 118
f 111 112 120 119
f 112 105 113 120
f 113 114 122 121
f 114 115 123 122
f 115 116 124 123
f 116 117 125 124
f 117 118 126 125
f 118 119 127 126
f 119 120 128 127
f 120 113 121 128
f 121 122 130 129
f 122 123 131 130
f 123 124 132 131
f 124 125 133 132
f 125 126 134 133
f 126 127 135 134
f 127 128 136 135
f 128 121 129 136
f 129 130 138 137
f 130 131 139 138
f 131 132 140 139
f 132 133 141 140
f 133 134 142 141
f 134 135 143 142
f 135 136 144 143
f 136 129 137 144
g EdgeStone2
f 145 146 154 153
f 146 147 155 154
f 147 148 156 155
f 148 149 157 156
f 149 150 158 157
f 150 151 159 158
f 151 152 160 159
f 152 145 153 160
f 153 154 162 161
f 154 155 163 162
f 155 156 164 163
f 156 157 165 164
f 157 158 166 165
f 158 159 167 166
f 159 160 168 167
f 160 153 161 168
f 161 162 170 169
f 162 163 171 170
f 163 164 172 171
f 164 165 173 172
f 165 166 174 173
f 166 167 175 174
f 167 168 176 175
f 168 161 169 176
f 169 170 178 177
f 170 171 179 178
f 171 172 180 179
f 172 173 181 180
f 173 174 182 181
f 174 175 183 182
f 175 176 184 183
f 176 169 177 184
f 177 178 186 185
f 178 179 187 186
f 179 180 188 187
f 180 181 189 188
f 181 182 190 189
f 182 183 191 190
f 183 184 192 191
f 184 177 185 192
g EdgeStone3
usemtl SURVIVAL_STONE_DARK
f 193 194 202 201
f 194 195 203 202
f 195 196 204 203
f 196 197 205 204
f 197 198 206 205
f 198 199 207 206
f 199 200 208 207
f 200 193 201 208
f 201 202 210 209
f 202 203 211 210
f 203 204 212 211
f 204 205 213 212
f 205 206 214 213
f 206 207 215 214
f 207 208 216 215
f 208 201 209 216
f 209 210 218 217
f 210 211 219 218
f 211 212 220 219
f 212 213 221 220
f 213 214 222 221
f 214 215 223 222
f 215 216 224 223
f 216 209 217 224
f 217 218 226 225
f 218 219 227 226
f 219 220 228 227
f 220 221 229 228
f 221 222 230 229
f 222 223 231 230
f 223 224 232 231
f 224 217 225 232
f 225 226 234 233
f 226 227 235 234
f 227 228 236 235
f 228 229 237 236
f 229 230 238 237
f 230 231 239 238
f 231 232 240 239
f 232 225 233 240
g EdgeStone4
usemtl SURVIVAL_STONE
f 241 242 250 249
f 242 243 251 250
f 243 244 252 251
f 244 245 253 252
f 245 246 254 253
f 246 247 255 254
f 247 248 256 255
f 248 241 249 256
f 249 250 258 257
f 250 251 259 258
f 251 252 260 259
f 252 253 261 260
f 253 254 262 261
f 254 255 263 262
f 255 256 264 263
f 256 249 257 264
f 257 258 266 265
f 258 259 267 266
f 259 260 268 267
f 260 261 269 268
f 261 262 270 269
f 262 263 271 270
f 263 264 272 271
f 264 257 265 272
f 265 266 274 273
f 266 267 275 274
f 267 268 276 275
f 268 269 277 276
f 269 270 278 277
f 270 271 279 278
f 271 272 280 279
f 272 265 273 280
f 273 274 282 281
f 274 275 283 282
f 275 276 284 283
f 276 277 285 284
f 277 278 286 285
f 278 279 287 286
f 279 280 288 287
f 280 273 281 288
g EdgeStone5
f 289 290 298 297
f 290 291 299 298
f 291 292 300 299
f 292 293 301 300
f 293 294 302 301
f 294 295 303 302
f 295 296 304 303
f 296 289 297 304
f 297 298 306 305
f 298 299 307 306
f 299 300 308 307
f 300 301 309 308
f 301 302 310 309
f 302 303 311 310
f 303 304 312 311
f 304 297 305 312
f 305 306 314 313
f 306 307 315 314
f 307 308 316 315
f 308 309 317 316
f 309 310 318 317
f 310 311 319 318
f 311 312 320 319
f 312 305 313 320
f 313 314 322 321
f 314 315 323 322
f 315 316 324 323
f 316 317 325 324
f 317 318 326 325
f 318 319 327 326
f 319 320 328 327
f 320 313 321 328
f 321 322 330 329
f 322 323 331 330
f 323 324 332 331
f 324 325 333 332
f 325 326 334 333
f 326 327 335 334
f 327 328 336 335
f 328 321 329 336
g EdgeStone6
usemtl SURVIVAL_STONE_DARK
f 337 338 346 345
f 338 339 347 346
f 339 340 348 347
f 340 341 349 348
f 341 342 350 349
f 342 343 351 350
f 343 344 352 351
f 344 337 345 352
f 345 346 354 353
f 346 347 355 354
f 347 348 356 355
f 348 349 357 356
f 349 350 358 357
f 350 351 359 358
f 351 352 360 359
f 352 345 353 360
f 353 354 362 361
f 354 355 363 362
f 355 356 364 363
f 356 357 365 364
f 357 358 366 365
f 358 359 367 366
f 359 360 368 367
f 360 353 361 368
f 361 362 370 369
f 362 363 371 370
f 363 364 372 371
f 364 365 373 372
f 365 366 374 373
f 366 367 375 374
f 367 368 376 375
f 368 361 369 376
f 369 370 378 377
f 370 371 379 378
f 371 372 380 379
f 372 373 381 380
f 373 374 382 381
f 374 375 383 382
f 375 376 384 383
f 376 369 377 384
g EdgeStone7
usemtl SURVIVAL_STONE
f 385 386 394 393
f 386 387 395 394
f 387 388 396 395
f 388 389 397 396
f 389 390 398 397
f 390 391 399 398
f 391 392 400 399
f 392 385 393 400
f 393 394 402 401
f 394 395 403 402
f 395 396 404 403
f 396 397 405 404
f 397 398 406 405
f 398 399 407 406
f 399 400 408 407
f 400 393 401 408
f 401 402 410 409
f 402 403 411 410
f 403 404 412 411
f 404 405 413 412
f 405 406 414 413
f 406 407 415 414
f 407 408 416 415
f 408 401 409 416
f 409 410 418 417
f 410 411 419 418
f 411 412 420 419
f 412 413 421 420
f 413 414 422 421
f 414 415 423 422
f 415 416 424 423
f 416 409 417 424
f 417 418 426 425
f 418 419 427 426
f 419 420 428 427
f 420 421 429 428
f 421 422 430 429
f 422 423 431 430
f 423 424 432 431
f 424 417 425 432
g EdgeStone8
f 433 434 442 441
f 434 435 443 442
f 435 436 444 443
f 436 437 445 444
f 437 438 446 445
f 438 439 447 446
f 439 440 448 447
f 440 433 441 448
f 441 442 450 449
f 442 443 451 450
f 443 444 452 451
f 444 445 453 452
f 445 446 454 453
f 446 447 455 454
f 447 448 456 455
f 448 441 449 456
f 449 450 458 457
f 450 451 459 458
f 451 452 460 459
f 452 453 461 460
f 453 454 462 461
f 454 455 463 462
f 455 456 464 463
f 456 449 457 464
f 457 458 466 465
f 458 459 467 466
f 459 460 468 467
f 460 461 469 468
f 461 462 470 469
f 462 463 471 470
f 463 464 472 471
f 464 457 465 472
f 465 466 474 473
f 466 467 475 474
f 467 468 476 475
f 468 469 477 476
f 469 470 478 477
f 470 471 479 478
f 471 472 480 479
f 472 465 473 480
g EdgeStone9
usemtl SURVIVAL_STONE_DARK
f 481 482 490 489
f 482 483 491 490
f 483 484 492 491
f 484 485 493 492
f 485 486 494 493
f 486 487 495 494
f 487 488 496 495
f 488 481 489 496
f 489 490 498 497
f 490 491 499 498
f 491 492 500 499
f 492 493 501 500
f 493 494 502 501
f 494 495 503 502
f 495 496 504 503
f 496 489 497 504
f 497 498 506 505
f 498 499 507 506
f 499 500 508 507
f 500 501 509 508
f 501 502 510 509
f 502 503 511 510
f 503 504 512 511
f 504 497 505 512
f 505 506 514 513
f 506 507 515 514
f 507 508 516 515
f 508 509 517 516
f 509 510 518 517
f 510 511 519 518
f 511 512 520 519
f 512 505 513 520
f 513 514 522 521
f 514 515 523 522
f 515 516 524 523
f 516 517 525 524
f 517 518 526 525
f 518 519 527 526
f 519 520 528 527
f 520 513 521 528
g GrassClump0
usemtl SURVIVAL_GRASS
f 529 530 538 537
f 530 531 539 538
f 531 532 540 539
f 532 533 541 540
f 533 534 542 541
f 534 535 543 542
f 535 536 544 543
f 536 529 537 544
f 537 538 546 545
f 538 539 547 546
f 539 540 548 547
f 540 541 549 548
f 541 542 550 549
f 542 543 551 550
f 543 544 552 551
f 544 537 545 552
f 545 546 554 553
f 546 547 555 554
f 547 548 556 555
f 548 549 557 556
f 549 550 558 557
f 550 551 559 558
f 551 552 560 559
f 552 545 553 560
f 553 554 562 561
f 554 555 563 562
f 555 556 564 563
f 556 557 565 564
f 557 558 566 565
f 558 559 567 566
f 559 560 568 567
f 560 553 561 568
g GrassClump1
f 569 570 578 577
f 570 571 579 578
f 571 572 580 579
f 572 573 581 580
f 573 574 582 581
f 574 575 583 582
f 575 576 584 583
f 576 569 577 584
f 577 578 586 585
f 578 579 587 586
f 579 580 588 587
f 580 581 589 588
f 581 582 590 589
f 582 583 591 590
f 583 584 592 591
f 584 577 585 592
f 585 586 594 593
f 586 587 595 594
f 587 588 596 595
f 588 589 597 596
f 589 590 598 597
f 590 591 599 598
f 591 592 600 599
f 592 585 593 600
f 593 594 602 601
f 594 595 603 602
f 595 596 604 603
f 596 597 605 604
f 597 598 606 605
f 598 599 607 606
f 599 600 608 607
f 600 593 601 608
g GrassClump2
f 609 610 618 617
f 610 611 619 618
f 611 612 620 619
f 612 613 621 620
f 613 614 622 621
f 614 615 623 622
f 615 616 624 623
f 616 609 617 624
f 617 618 626 625
f 618 619 627 626
f 619 620 628 627
f 620 621 629 628
f 621 622 630 629
f 622 623 631 630
f 623 624 632 631
f 624 617 625 632
f 625 626 634 633
f 626 627 635 634
f 627 628 636 635
f 628 629 637 636
f 629 630 638 637
f 630 631 639 638
f 631 632 640 639
f 632 625 633 640
f 633 634 642 641
f 634 635 643 642
f 635 636 644 643
f 636 637 645 644
f 637 638 646 645
f 638 639 647 646
f 639 640 648 647
f 640 633 641 648
g GrassClump3
f 649 650 658 657
f 650 651 659 658
f 651 652 660 659
f 652 653 661 660
f 653 654 662 661
f 654 655 663 662
f 655 656 664 663
f 656 649 657 664
f 657 658 666 665
f 658 659 667 666
f 659 660 668 667
f 660 661 669 668
f 661 662 670 669
f 662 663 671 670
f 663 664 672 671
f 664 657 665 672
f 665 666 674 673
f 666 667 675 674
f 667 668 676 675
f 668 669 677 676
f 669 670 678 677
f 670 671 679 678
f 671 672 680 679
f 672 665 673 680
f 673 674 682 681
f 674 675 683 682
f 675 676 684 683
f 676 677 685 684
f 677 678 686 685
f 678 679 687 686
f 679 680 688 687
f 680 673 681 688
g GrassClump4
f 689 690 698 697
f 690 691 699 698
f 691 692 700 699
f 692 693 701 700
f 693 694 702 701
f 694 695 703 702
f 695 696 704 703
f 696 689 697 704
f 697 698 706 705
f 698 699 707 706
f 699 700 708 707
f 700 701 709 708
f 701 702 710 709
f 702 703 711 710
f 703 704 712 711
f 704 697 705 712
f 705 706 714 713
f 706 707 715 714
f 707 708 716 715
f 708 709 717 716
f 709 710 718 717
f 710 711 719 718
f 711 712 720 719
f 712 705 713 720
f 713 714 722 721
f 714 715 723 722
f 715 716 724 723
f 716 717 725 724
f 717 718 726 725
f 718 719 727 726
f 719 720 728 727
f 720 713 721 728
g GrassClump5
f 729 730 738 737
f 730 731 739 738
f 731 732 740 739
f 732 733 741 740
f 733 734 742 741
f 734 735 743 742
f 735 736 744 743
f 736 729 737 744
f 737 738 746 745
f 738 739 747 746
f 739 740 748 747
f 740 741 749 748
f 741 742 750 749
f 742 743 751 750
f 743 744 752 751
f 744 737 745 752
f 745 746 754 753
f 746 747 755 754
f 747 748 756 755
f 748 749 757 756
f 749 750 758 757
f 750 751 759 758
f 751 752 760 759
f 752 745 753 760
f 753 754 762 761
f 754 755 763 762
f 755 756 764 763
f 756 757 765 764
f 757 758 766 765
f 758 759 767 766
f 759 760 768 767
f 760 753 761 768
g GrassClump6
f 769 770 778 777
f 770 771 779 778
f 771 772 780 779
f 772 773 781 780
f 773 774 782 781
f 774 775 783 782
f 775 776 784 783
f 776 769 777 784
f 777 778 786 785
f 778 779 787 786
f 779 780 788 787
f 780 781 789 788
f 781 782 790 789
f 782 783 791 790
f 783 784 792 791
f 784 777 785 792
f 785 786 794 793
f 786 787 795 794
f 787 788 796 795
f 788 789 797 796
f 789 790 798 797
f 790 791 799 798
f 791 792 800 799
f 792 785 793 800
f 793 794 802 801
f 794 795 803 802
f 795 796 804 803
f 796 797 805 804
f 797 798 806 805
f 798 799 807 806
f 799 800 808 807
f 800 793 801 808
g GrassClump7
f 809 810 818 817
f 810 811 819 818
f 811 812 820 819
f 812 813 821 820
f 813 814 822 821
f 814 815 823 822
f 815 816 824 823
f 816 809 817 824
f 817 818 826 825
f 818 819 827 826
f 819 820 828 827
f 820 821 829 828
f 821 822 830 829
f 822 823 831 830
f 823 824 832 831
f 824 817 825 832
f 825 826 834 833
f 826 827 835 834
f 827 828 836 835
f 828 829 837 836
f 829 830 838 837
f 830 831 839 838
f 831 832 840 839
f 832 825 833 840
f 833 834 842 841
f 834 835 843 842
f 835 836 844 843
f 836 837 845 844
f 837 838 846 845
f 838 839 847 846
f 839 840 848 847
f 840 833 841 848
