# roof_gable - project-original survival asset
mtllib survival-core-world.mtl
o roof_gable
v -3.2 -2.65 0.25
v 0 -2.65 2.15
v 3.2 -2.65 0.25
v -3.2 2.65 0.25
v 0 2.65 2.15
v 3.2 2.65 0.25
v -3.45 -2.78 0.2
v -0.05 -2.78 2.3
v 0.1 -2.78 2.08
v -3.15 -2.78 0.05
v -3.45 2.78 0.2
v -0.05 2.78 2.3
v 0.1 2.78 2.08
v -3.15 2.78 0.05
v 0.05 -2.78 2.3
v 3.45 -2.78 0.2
v 3.15 -2.78 0.05
v -0.1 -2.78 2.08
v 0.05 2.78 2.3
v 3.45 2.78 0.2
v 3.15 2.78 0.05
v -0.1 2.78 2.08
v -2.9 -2.55 0.33
v -2.86377 -2.52071 0.26927
v -2.84877 -2.45 0.24412
v -2.86377 -2.37929 0.26927
v -2.9 -2.35 0.33
v -2.93623 -2.37929 0.39073
v -2.95123 -2.45 0.41588
v -2.93623 -2.52071 0.39073
v 0 -2.53 2.06
v 0.02898 -2.50657 2.01142
v 0.04099 -2.45 1.9913
v 0.02898 -2.39343 2.01142
v 0 -2.37 2.06
v -0.02898 -2.39343 2.10858
v -0.04099 -2.45 2.1287
v -0.02898 -2.50657 2.10858
v -2.9 -1.3 0.33
v -2.86377 -1.27071 0.26927
v -2.84877 -1.2 0.24412
v -2.86377 -1.12929 0.26927
v -2.9 -1.1 0.33
v -2.93623 -1.12929 0.39073
v -2.95123 -1.2 0.41588
v -2.93623 -1.27071 0.39073
v 0 -1.28 2.06
v 0.02898 -1.25657 2.01142
v 0.04099 -1.2 1.9913
v 0.02898 -1.14343 2.01142
v 0 -1.12 2.06
v -0.02898 -1.14343 2.10858
v -0.04099 -1.2 2.1287
v -0.02898 -1.25657 2.10858
v -2.9 -0.1 0.33
v -2.86377 -0.07071 0.26927
v -2.84877 0 0.24412
v -2.86377 0.07071 0.26927
v -2.9 0.1 0.33
v -2.93623 0.07071 0.39073
v -2.95123 0 0.41588
v -2.93623 -0.07071 0.39073
v 0 -0.08 2.06
v 0.02898 -0.05657 2.01142
v 0.04099 0 1.9913
v 0.02898 0.05657 2.01142
v 0 0.08 2.06
v -0.02898 0.05657 2.10858
v -0.04099 0 2.1287
v -0.02898 -0.05657 2.10858
v -2.9 1.1 0.33
v -2.86377 1.12929 0.26927
v -2.84877 1.2 0.24412
v -2.86377 1.27071 0.26927
v -2.9 1.3 0.33
v -2.93623 1.27071 0.39073
v -2.95123 1.2 0.41588
v -2.93623 1.12929 0.39073
v 0 1.12 2.06
v 0.02898 1.14343 2.01142
v 0.04099 1.2 1.9913
v 0.02898 1.25657 2.01142
v 0 1.28 2.06
v -0.02898 1.25657 2.10858
v -0.04099 1.2 2.1287
v -0.02898 1.14343 2.10858
v -2.9 2.35 0.33
v -2.86377 2.37929 0.26927
v -2.84877 2.45 0.24412
v -2.86377 2.52071 0.26927
v -2.9 2.55 0.33
v -2.93623 2.52071 0.39073
v -2.95123 2.45 0.41588
v -2.93623 2.37929 0.39073
v 0 2.37 2.06
v 0.02898 2.39343 2.01142
v 0.04099 2.45 1.9913
v 0.02898 2.50657 2.01142
v 0 2.53 2.06
v -0.02898 2.50657 2.10858
v -0.04099 2.45 2.1287
v -0.02898 2.39343 2.10858
v 2.9 -2.35 0.33
v 2.86377 -2.37929 0.26927
v 2.84877 -2.45 0.24412
v 2.86377 -2.52071 0.26927
v 2.9 -2.55 0.33
v 2.93623 -2.52071 0.39073
v 2.95123 -2.45 0.41588
v 2.93623 -2.37929 0.39073
v 0 -2.37 2.06
v -0.02898 -2.39343 2.01142
v -0.04099 -2.45 1.9913
v -0.02898 -2.50657 2.01142
v 0 -2.53 2.06
v 0.02898 -2.50657 2.10858
v 0.04099 -2.45 2.1287
v 0.02898 -2.39343 2.10858
v 2.9 -1.1 0.33
v 2.86377 -1.12929 0.26927
v 2.84877 -1.2 0.24412
v 2.86377 -1.27071 0.26927
v 2.9 -1.3 0.33
v 2.93623 -1.27071 0.39073
v 2.95123 -1.2 0.41588
v 2.93623 -1.12929 0.39073
v 0 -1.12 2.06
v -0.02898 -1.14343 2.01142
v -0.04099 -1.2 1.9913
v -0.02898 -1.25657 2.01142
v 0 -1.28 2.06
v 0.02898 -1.25657 2.10858
v 0.04099 -1.2 2.1287
v 0.02898 -1.14343 2.10858
v 2.9 0.1 0.33
v 2.86377 0.07071 0.26927
v 2.84877 0 0.24412
v 2.86377 -0.07071 0.26927
v 2.9 -0.1 0.33
v 2.93623 -0.07071 0.39073
v 2.95123 0 0.41588
v 2.93623 0.07071 0.39073
v 0 0.08 2.06
v -0.02898 0.05657 2.01142
v -0.04099 0 1.9913
v -0.02898 -0.05657 2.01142
v 0 -0.08 2.06
v 0.02898 -0.05657 2.10858
v 0.04099 0 2.1287
v 0.02898 0.05657 2.10858
v 2.9 1.3 0.33
v 2.86377 1.27071 0.26927
v 2.84877 1.2 0.24412
v 2.86377 1.12929 0.26927
v 2.9 1.1 0.33
v 2.93623 1.12929 0.39073
v 2.95123 1.2 0.41588
v 2.93623 1.27071 0.39073
v 0 1.28 2.06
v -0.02898 1.25657 2.01142
v -0.04099 1.2 1.9913
v -0.02898 1.14343 2.01142
v 0 1.12 2.06
v 0.02898 1.14343 2.10858
v 0.04099 1.2 2.1287
v 0.02898 1.25657 2.10858
v 2.9 2.55 0.33
v 2.86377 2.52071 0.26927
v 2.84877 2.45 0.24412
v 2.86377 2.37929 0.26927
v 2.9 2.35 0.33
v 2.93623 2.37929 0.39073
v 2.95123 2.45 0.41588
v 2.93623 2.52071 0.39073
v 0 2.53 2.06
v -0.02898 2.50657 2.01142
v -0.04099 2.45 1.9913
v -0.02898 2.39343 2.01142
v 0 2.37 2.06
v 0.02898 2.39343 2.10858
v 0.04099 2.45 2.1287
v 0.02898 2.50657 2.10858
v -0.13 -2.925 2.09
v 0.13 -2.925 2.09
v 0.13 2.925 2.09
v -0.13 2.925 2.09
v -0.13 -2.925 2.35
v 0.13 -2.925 2.35
v 0.13 2.925 2.35
v -0.13 2.925 2.35
g RoofCore
usemtl SURVIVAL_WOOD_DARK
f 1 2 5 4
f 2 3 6 5
f 3 1 4 6
f 3 2 1
f 4 5 6
g RoofLeftSkin
usemtl SURVIVAL_WOOD
f 7 8 12 11
f 8 9 13 12
f 9 10 14 13
f 10 7 11 14
f 10 9 8 7
f 11 12 13 14
g RoofRightSkin
usemtl SURVIVAL_WOOD_LIGHT
f 15 16 20 19
f 16 17 21 20
f 17 18 22 21
f 18 15 19 22
f 18 17 16 15
f 19 20 21 22
g Rafter-2.45
usemtl SURVIVAL_WOOD_DARK
f 23 24 32 31
f 24 25 33 32
f 25 26 34 33
f 26 27 35 34
f 27 28 36 35
f 28 29 37 36
f 29 30 38 37
f 30 23 31 38
g Rafter-1.2
f 39 40 48 47
f 40 41 49 48
f 41 42 50 49
f 42 43 51 50
f 43 44 52 51
f 44 45 53 52
f 45 46 54 53
f 46 39 47 54
g Rafter0
f 55 56 64 63
f 56 57 65 64
f 57 58 66 65
f 58 59 67 66
f 59 60 68 67
f 60 61 69 68
f 61 62 70 69
f 62 55 63 70
g Rafter1.2
f 71 72 80 79
f 72 73 81 80
f 73 74 82 81
f 74 75 83 82
f 75 76 84 83
f 76 77 85 84
f 77 78 86 85
f 78 71 79 86
g Rafter2.45
f 87 88 96 95
f 88 89 97 96
f 89 90 98 97
f 90 91 99 98
f 91 92 100 99
f 92 93 101 100
f 93 94 102 101
f 94 87 95 102
g RafterR-2.45
f 103 104 112 111
f 104 105 113 112
f 105 106 114 113
f 106 107 115 114
f 107 108 116 115
f 108 109 117 116
f 109 110 118 117
f 110 103 111 118
g RafterR-1.2
f 119 120 128 127
f 120 121 129 128
f 121 122 130 129
f 122 123 131 130
f 123 124 132 131
f 124 125 133 132
f 125 126 134 133
f 126 119 127 134
g RafterR0
f 135 136 144 143
f 136 137 145 144
f 137 138 146 145
f 138 139 147 146
f 139 140 148 147
f 140 141 149 148
f 141 142 150 149
f 142 135 143 150
g RafterR1.2
f 151 152 160 159
f 152 153 161 160
f 153 154 162 161
f 154 155 163 162
f 155 156 164 163
f 156 157 165 164
f 157 158 166 165
f 158 151 159 166
g RafterR2.45
f 167 168 176 175
f 168 169 177 176
f 169 170 178 177
f 170 171 179 178
f 171 172 180 179
f 172 173 181 180
f 173 174 182 181
f 174 167 175 182
g RidgeCap
usemtl SURVIVAL_METAL_DARK
f 183 184 185 186
f 187 190 189 188
f 183 187 188 184
f 184 188 189 185
f 185 189 190 186
f 187 183 186 190
