# tree_crown_round - project-original survival asset
mtllib survival-core-world.mtl
o tree_crown_round
v 0 0 -0.15
v 0 0 -0.15
v 0 0 -0.15
v 0 0 -0.15
v 0 0 -0.15
v 0 0 -0.15
v 0 0 -0.15
v 0 0 -0.15
v 0 0 -0.15
v 0 0 -0.15
v 0 0 -0.15
v 0 0 -0.15
v 0 0 -0.15
v 0 0 -0.15
v 0.59316 0 -0.05104
v 0.53442 0.24076 -0.05104
v 0.36983 0.43383 -0.05104
v 0.13199 0.54098 -0.05104
v -0.13199 0.54098 -0.05104
v -0.36983 0.43383 -0.05104
v -0.53442 0.24076 -0.05104
v -0.59316 0 -0.05104
v -0.53442 -0.24076 -0.05104
v -0.36983 -0.43383 -0.05104
v -0.13199 -0.54098 -0.05104
v 0.13199 -0.54098 -0.05104
v 0.36983 -0.43383 -0.05104
v 0.53442 -0.24076 -0.05104
v 1.09602 0 0.23076
v 0.98748 0.44486 0.23076
v 0.68335 0.80162 0.23076
v 0.24389 0.9996 0.23076
v -0.24389 0.9996 0.23076
v -0.68335 0.80162 0.23076
v -0.98748 0.44486 0.23076
v -1.09602 0 0.23076
v -0.98748 -0.44486 0.23076
v -0.68335 -0.80162 0.23076
v -0.24389 -0.9996 0.23076
v 0.24389 -0.9996 0.23076
v 0.68335 -0.80162 0.23076
v 0.98748 -0.44486 0.23076
v 1.43201 0 0.65251
v 1.2902 0.58124 0.65251
v 0.89285 1.04736 0.65251
v 0.31865 1.30604 0.65251
v -0.31865 1.30604 0.65251
v -0.89285 1.04736 0.65251
v -1.2902 0.58124 0.65251
v -1.43201 0 0.65251
v -1.2902 -0.58124 0.65251
v -0.89285 -1.04736 0.65251
v -0.31865 -1.30604 0.65251
v 0.31865 -1.30604 0.65251
v 0.89285 -1.04736 0.65251
v 1.2902 -0.58124 0.65251
v 1.55 0 1.15
v 1.3965 0.62913 1.15
v 0.96641 1.13366 1.15
v 0.34491 1.41365 1.15
v -0.34491 1.41365 1.15
v -0.96641 1.13366 1.15
v -1.3965 0.62913 1.15
v -1.55 0 1.15
v -1.3965 -0.62913 1.15
v -0.96641 -1.13366 1.15
v -0.34491 -1.41365 1.15
v 0.34491 -1.41365 1.15
v 0.96641 -1.13366 1.15
v 1.3965 -0.62913 1.15
v 1.43201 0 1.64749
v 1.2902 0.58124 1.64749
v 0.89285 1.04736 1.64749
v 0.31865 1.30604 1.64749
v -0.31865 1.30604 1.64749
v -0.89285 1.04736 1.64749
v -1.2902 0.58124 1.64749
v -1.43201 0 1.64749
v -1.2902 -0.58124 1.64749
v -0.89285 -1.04736 1.64749
v -0.31865 -1.30604 1.64749
v 0.31865 -1.30604 1.64749
v 0.89285 -1.04736 1.64749
v 1.2902 -0.58124 1.64749
v 1.09602 0 2.06924
v 0.98748 0.44486 2.06924
v 0.68335 0.80162 2.06924
v 0.24389 0.9996 2.06924
v -0.24389 0.9996 2.06924
v -0.68335 0.80162 2.06924
v -0.98748 0.44486 2.06924
v -1.09602 0 2.06924
v -0.98748 -0.44486 2.06924
v -0.68335 -0.80162 2.06924
v -0.24389 -0.9996 2.06924
v 0.24389 -0.9996 2.06924
v 0.68335 -0.80162 2.06924
v 0.98748 -0.44486 2.06924
v 0.59316 0 2.35104
v 0.53442 0.24076 2.35104
v 0.36983 0.43383 2.35104
v 0.13199 0.54098 2.35104
v -0.13199 0.54098 2.35104
v -0.36983 0.43383 2.35104
v -0.53442 0.24076 2.35104
v -0.59316 0 2.35104
v -0.53442 -0.24076 2.35104
v -0.36983 -0.43383 2.35104
v -0.13199 -0.54098 2.35104
v 0.13199 -0.54098 2.35104
v 0.36983 -0.43383 2.35104
v 0.53442 -0.24076 2.35104
v 0 0 2.45
v 0 0 2.45
v 0 0 2.45
v 0 0 2.45
v 0 0 2.45
v 0 0 2.45
v 0 0 2.45
v 0 0 2.45
v 0 0 2.45
v 0 0 2.45
v 0 0 2.45
v 0 0 2.45
v 0 0 2.45
v 0 0 2.45
v 1.05 0.15 -0.16
v 1.05 0.15 -0.16
v 1.05 0.15 -0.16
v 1.05 0.15 -0.16
v 1.05 0.15 -0.16
v 1.05 0.15 -0.16
v 1.05 0.15 -0.16
v 1.05 0.15 -0.16
v 1.05 0.15 -0.16
v 1.05 0.15 -0.16
v 1.05 0.15 -0.16
v 1.05 0.15 -0.16
v 1.05 0.15 -0.16
v 1.05 0.15 -0.16
v 1.47095 0.15 -0.0854
v 1.42926 0.32932 -0.0854
v 1.31246 0.47313 -0.0854
v 1.14367 0.55294 -0.0854
v 0.95633 0.55294 -0.0854
v 0.78754 0.47313 -0.0854
v 0.67074 0.32932 -0.0854
v 0.62905 0.15 -0.0854
v 0.67074 -0.02932 -0.0854
v 0.78754 -0.17313 -0.0854
v 0.95633 -0.25294 -0.0854
v 1.14367 -0.25294 -0.0854
v 1.31246 -0.17313 -0.0854
v 1.42926 -0.02932 -0.0854
v 1.82782 0.15 0.12704
v 1.75079 0.48135 0.12704
v 1.53496 0.74707 0.12704
v 1.22308 0.89453 0.12704
v 0.87692 0.89453 0.12704
v 0.56504 0.74707 0.12704
v 0.34921 0.48135 0.12704
v 0.27218 0.15 0.12704
v 0.34921 -0.18135 0.12704
v 0.56504 -0.44707 0.12704
v 0.87692 -0.59453 0.12704
v 1.22308 -0.59453 0.12704
v 1.53496 -0.44707 0.12704
v 1.75079 -0.18135 0.12704
v 2.06627 0.15 0.44497
v 1.96563 0.58292 0.44497
v 1.68363 0.9301 0.44497
v 1.27614 1.12277 0.44497
v 0.82386 1.12277 0.44497
v 0.41637 0.9301 0.44497
v 0.13437 0.58292 0.44497
v 0.03373 0.15 0.44497
v 0.13437 -0.28292 0.44497
v 0.41637 -0.6301 0.44497
v 0.82386 -0.82277 0.44497
v 1.27614 -0.82277 0.44497
v 1.68363 -0.6301 0.44497
v 1.96563 -0.28292 0.44497
v 2.15 0.15 0.82
v 2.04107 0.61859 0.82
v 1.73584 0.99438 0.82
v 1.29477 1.20292 0.82
v 0.80523 1.20292 0.82
v 0.36416 0.99438 0.82
v 0.05893 0.61859 0.82
v -0.05 0.15 0.82
v 0.05893 -0.31859 0.82
v 0.36416 -0.69438 0.82
v 0.80523 -0.90292 0.82
v 1.29477 -0.90292 0.82
v 1.73584 -0.69438 0.82
v 2.04107 -0.31859 0.82
v 2.06627 0.15 1.19503
v 1.96563 0.58292 1.19503
v 1.68363 0.9301 1.19503
v 1.27614 1.12277 1.19503
v 0.82386 1.12277 1.19503
v 0.41637 0.9301 1.19503
v 0.13437 0.58292 1.19503
v 0.03373 0.15 1.19503
v 0.13437 -0.28292 1.19503
v 0.41637 -0.6301 1.19503
v 0.82386 -0.82277 1.19503
v 1.27614 -0.82277 1.19503
v 1.68363 -0.6301 1.19503
v 1.96563 -0.28292 1.19503
v 1.82782 0.15 1.51296
v 1.75079 0.48135 1.51296
v 1.53496 0.74707 1.51296
v 1.22308 0.89453 1.51296
v 0.87692 0.89453 1.51296
v 0.56504 0.74707 1.51296
v 0.34921 0.48135 1.51296
v 0.27218 0.15 1.51296
v 0.34921 -0.18135 1.51296
v 0.56504 -0.44707 1.51296
v 0.87692 -0.59453 1.51296
v 1.22308 -0.59453 1.51296
v 1.53496 -0.44707 1.51296
v 1.75079 -0.18135 1.51296
v 1.47095 0.15 1.7254
v 1.42926 0.32932 1.7254
v 1.31246 0.47313 1.7254
v 1.14367 0.55294 1.7254
v 0.95633 0.55294 1.7254
v 0.78754 0.47313 1.7254
v 0.67074 0.32932 1.7254
v 0.62905 0.15 1.7254
v 0.67074 -0.02932 1.7254
v 0.78754 -0.17313 1.7254
v 0.95633 -0.25294 1.7254
v 1.14367 -0.25294 1.7254
v 1.31246 -0.17313 1.7254
v 1.42926 -0.02932 1.7254
v 1.05 0.15 1.8
v 1.05 0.15 1.8
v 1.05 0.15 1.8
v 1.05 0.15 1.8
v 1.05 0.15 1.8
v 1.05 0.15 1.8
v 1.05 0.15 1.8
v 1.05 0.15 1.8
v 1.05 0.15 1.8
v 1.05 0.15 1.8
v 1.05 0.15 1.8
v 1.05 0.15 1.8
v 1.05 0.15 1.8
v 1.05 0.15 1.8
v -1.05 0.12 -0.16
v -1.05 0.12 -0.16
v -1.05 0.12 -0.16
v -1.05 0.12 -0.16
v -1.05 0.12 -0.16
v -1.05 0.12 -0.16
v -1.05 0.12 -0.16
v -1.05 0.12 -0.16
v -1.05 0.12 -0.16
v -1.05 0.12 -0.16
v -1.05 0.12 -0.16
v -1.05 0.12 -0.16
v -1.05 0.12 -0.16
v -1.05 0.12 -0.16
v -0.62139 0.12 -0.0854
v -0.66384 0.28936 -0.0854
v -0.78277 0.42518 -0.0854
v -0.95463 0.50055 -0.0854
v -1.14537 0.50055 -0.0854
v -1.31723 0.42518 -0.0854
v -1.43616 0.28936 -0.0854
v -1.47861 0.12 -0.0854
v -1.43616 -0.04936 -0.0854
v -1.31723 -0.18518 -0.0854
v -1.14537 -0.26055 -0.0854
v -0.95463 -0.26055 -0.0854
v -0.78277 -0.18518 -0.0854
v -0.66384 -0.04936 -0.0854
v -0.25804 0.12 0.12704
v -0.33647 0.43294 0.12704
v -0.55622 0.6839 0.12704
v -0.87377 0.82317 0.12704
v -1.22623 0.82317 0.12704
v -1.54378 0.6839 0.12704
v -1.76353 0.43294 0.12704
v -1.84196 0.12 0.12704
v -1.76353 -0.19294 0.12704
v -1.54378 -0.4439 0.12704
v -1.22623 -0.58317 0.12704
v -0.87377 -0.58317 0.12704
v -0.55622 -0.4439 0.12704
v -0.33647 -0.19294 0.12704
v -0.01525 0.12 0.44497
v -0.11773 0.52887 0.44497
v -0.40485 0.85676 0.44497
v -0.81975 1.03873 0.44497
v -1.28025 1.03873 0.44497
v -1.69515 0.85676 0.44497
v -1.98227 0.52887 0.44497
v -2.08475 0.12 0.44497
v -1.98227 -0.28887 0.44497
v -1.69515 -0.61676 0.44497
v -1.28025 -0.79873 0.44497
v -0.81975 -0.79873 0.44497
v -0.40485 -0.61676 0.44497
v -0.11773 -0.28887 0.44497
v 0.07 0.12 0.82
v -0.04091 0.56256 0.82
v -0.35169 0.91747 0.82
v -0.80078 1.11443 0.82
v -1.29922 1.11443 0.82
v -1.74831 0.91747 0.82
v -2.05909 0.56256 0.82
v -2.17 0.12 0.82
v -2.05909 -0.32256 0.82
v -1.74831 -0.67747 0.82
v -1.29922 -0.87443 0.82
v -0.80078 -0.87443 0.82
v -0.35169 -0.67747 0.82
v -0.04091 -0.32256 0.82
v -0.01525 0.12 1.19503
v -0.11773 0.52887 1.19503
v -0.40485 0.85676 1.19503
v -0.81975 1.03873 1.19503
v -1.28025 1.03873 1.19503
v -1.69515 0.85676 1.19503
v -1.98227 0.52887 1.19503
v -2.08475 0.12 1.19503
v -1.98227 -0.28887 1.19503
v -1.69515 -0.61676 1.19503
v -1.28025 -0.79873 1.19503
v -0.81975 -0.79873 1.19503
v -0.40485 -0.61676 1.19503
v -0.11773 -0.28887 1.19503
v -0.25804 0.12 1.51296
v -0.33647 0.43294 1.51296
v -0.55622 0.6839 1.51296
v -0.87377 0.82317 1.51296
v -1.22623 0.82317 1.51296
v -1.54378 0.6839 1.51296
v -1.76353 0.43294 1.51296
v -1.84196 0.12 1.51296
v -1.76353 -0.19294 1.51296
v -1.54378 -0.4439 1.51296
v -1.22623 -0.58317 1.51296
v -0.87377 -0.58317 1.51296
v -0.55622 -0.4439 1.51296
v -0.33647 -0.19294 1.51296
v -0.62139 0.12 1.7254
v -0.66384 0.28936 1.7254
v -0.78277 0.42518 1.7254
v -0.95463 0.50055 1.7254
v -1.14537 0.50055 1.7254
v -1.31723 0.42518 1.7254
v -1.43616 0.28936 1.7254
v -1.47861 0.12 1.7254
v -1.43616 -0.04936 1.7254
v -1.31723 -0.18518 1.7254
v -1.14537 -0.26055 1.7254
v -0.95463 -0.26055 1.7254
v -0.78277 -0.18518 1.7254
v -0.66384 -0.04936 1.7254
v -1.05 0.12 1.8
v -1.05 0.12 1.8
v -1.05 0.12 1.8
v -1.05 0.12 1.8
v -1.05 0.12 1.8
v -1.05 0.12 1.8
v -1.05 0.12 1.8
v -1.05 0.12 1.8
v -1.05 0.12 1.8
v -1.05 0.12 1.8
v -1.05 0.12 1.8
v -1.05 0.12 1.8
v -1.05 0.12 1.8
v -1.05 0.12 1.8
v 0.35 1.02 -0.14
v 0.35 1.02 -0.14
v 0.35 1.02 -0.14
v 0.35 1.02 -0.14
v 0.35 1.02 -0.14
v 0.35 1.02 -0.14
v 0.35 1.02 -0.14
v 0.35 1.02 -0.14
v 0.35 1.02 -0.14
v 0.35 1.02 -0.14
v 0.35 1.02 -0.14
v 0.35 1.02 -0.14
v 0.35 1.02 -0.14
v 0.35 1.02 -0.14
v 0.74034 1.02 -0.06997
v 0.70168 1.19434 -0.06997
v 0.59337 1.33415 -0.06997
v 0.43686 1.41174 -0.06997
v 0.26314 1.41174 -0.06997
v 0.10663 1.33415 -0.06997
v -0.00168 1.19434 -0.06997
v -0.04034 1.02 -0.06997
v -0.00168 0.84566 -0.06997
v 0.10663 0.70585 -0.06997
v 0.26314 0.62826 -0.06997
v 0.43686 0.62826 -0.06997
v 0.59337 0.70585 -0.06997
v 0.70168 0.84566 -0.06997
v 1.07125 1.02 0.12946
v 0.99982 1.34214 0.12946
v 0.79969 1.60048 0.12946
v 0.51049 1.74385 0.12946
v 0.18951 1.74385 0.12946
v -0.09969 1.60048 0.12946
v -0.29982 1.34214 0.12946
v -0.37125 1.02 0.12946
v -0.29982 0.69786 0.12946
v -0.09969 0.43952 0.12946
v 0.18951 0.29615 0.12946
v 0.51049 0.29615 0.12946
v 0.79969 0.43952 0.12946
v 0.99982 0.69786 0.12946
v 1.29236 1.02 0.42793
v 1.19903 1.4409 0.42793
v 0.93755 1.77843 0.42793
v 0.55969 1.96575 0.42793
v 0.14031 1.96575 0.42793
v -0.23755 1.77843 0.42793
v -0.49903 1.4409 0.42793
v -0.59236 1.02 0.42793
v -0.49903 0.5991 0.42793
v -0.23755 0.26157 0.42793
v 0.14031 0.07425 0.42793
v 0.55969 0.07425 0.42793
v 0.93755 0.26157 0.42793
v 1.19903 0.5991 0.42793
v 1.37 1.02 0.78
v 1.26899 1.47558 0.78
v 0.98596 1.84092 0.78
v 0.57697 2.04367 0.78
v 0.12303 2.04367 0.78
v -0.28596 1.84092 0.78
v -0.56899 1.47558 0.78
v -0.67 1.02 0.78
v -0.56899 0.56442 0.78
v -0.28596 0.19908 0.78
v 0.12303 -0.00367 0.78
v 0.57697 -0.00367 0.78
v 0.98596 0.19908 0.78
v 1.26899 0.56442 0.78
v 1.29236 1.02 1.13207
v 1.19903 1.4409 1.13207
v 0.93755 1.77843 1.13207
v 0.55969 1.96575 1.13207
v 0.14031 1.96575 1.13207
v -0.23755 1.77843 1.13207
v -0.49903 1.4409 1.13207
v -0.59236 1.02 1.13207
v -0.49903 0.5991 1.13207
v -0.23755 0.26157 1.13207
v 0.14031 0.07425 1.13207
v 0.55969 0.07425 1.13207
v 0.93755 0.26157 1.13207
v 1.19903 0.5991 1.13207
v 1.07125 1.02 1.43054
v 0.99982 1.34214 1.43054
v 0.79969 1.60048 1.43054
v 0.51049 1.74385 1.43054
v 0.18951 1.74385 1.43054
v -0.09969 1.60048 1.43054
v -0.29982 1.34214 1.43054
v -0.37125 1.02 1.43054
v -0.29982 0.69786 1.43054
v -0.09969 0.43952 1.43054
v 0.18951 0.29615 1.43054
v 0.51049 0.29615 1.43054
v 0.79969 0.43952 1.43054
v 0.99982 0.69786 1.43054
v 0.74034 1.02 1.62997
v 0.70168 1.19434 1.62997
v 0.59337 1.33415 1.62997
v 0.43686 1.41174 1.62997
v 0.26314 1.41174 1.62997
v 0.10663 1.33415 1.62997
v -0.00168 1.19434 1.62997
v -0.04034 1.02 1.62997
v -0.00168 0.84566 1.62997
v 0.10663 0.70585 1.62997
v 0.26314 0.62826 1.62997
v 0.43686 0.62826 1.62997
v 0.59337 0.70585 1.62997
v 0.70168 0.84566 1.62997
v 0.35 1.02 1.7
v 0.35 1.02 1.7
v 0.35 1.02 1.7
v 0.35 1.02 1.7
v 0.35 1.02 1.7
v 0.35 1.02 1.7
v 0.35 1.02 1.7
v 0.35 1.02 1.7
v 0.35 1.02 1.7
v 0.35 1.02 1.7
v 0.35 1.02 1.7
v 0.35 1.02 1.7
v 0.35 1.02 1.7
v 0.35 1.02 1.7
v -0.45 -1 -0.14
v -0.45 -1 -0.14
v -0.45 -1 -0.14
v -0.45 -1 -0.14
v -0.45 -1 -0.14
v -0.45 -1 -0.14
v -0.45 -1 -0.14
v -0.45 -1 -0.14
v -0.45 -1 -0.14
v -0.45 -1 -0.14
v -0.45 -1 -0.14
v -0.45 -1 -0.14
v -0.45 -1 -0.14
v -0.45 -1 -0.14
v -0.04818 -1 -0.07149
v -0.08797 -0.83396 -0.07149
v -0.19947 -0.70081 -0.07149
v -0.36059 -0.62691 -0.07149
v -0.53941 -0.62691 -0.07149
v -0.70053 -0.70081 -0.07149
v -0.81203 -0.83396 -0.07149
v -0.85182 -1 -0.07149
v -0.81203 -1.16604 -0.07149
v -0.70053 -1.29919 -0.07149
v -0.53941 -1.37309 -0.07149
v -0.36059 -1.37309 -0.07149
v -0.19947 -1.29919 -0.07149
v -0.08797 -1.16604 -0.07149
v 0.29246 -1 0.1236
v 0.21894 -0.6932 0.1236
v 0.01292 -0.44716 0.1236
v -0.28479 -0.31062 0.1236
v -0.61521 -0.31062 0.1236
v -0.91292 -0.44716 0.1236
v -1.11894 -0.6932 0.1236
v -1.19246 -1 0.1236
v -1.11894 -1.3068 0.1236
v -0.91292 -1.55284 0.1236
v -0.61521 -1.68938 0.1236
v -0.28479 -1.68938 0.1236
v 0.01292 -1.55284 0.1236
v 0.21894 -1.3068 0.1236
v 0.52007 -1 0.41558
v 0.42401 -0.59914 0.41558
v 0.15483 -0.27768 0.41558
v -0.23414 -0.09928 0.41558
v -0.66586 -0.09928 0.41558
v -1.05483 -0.27768 0.41558
v -1.32401 -0.59914 0.41558
v -1.42007 -1 0.41558
v -1.32401 -1.40086 0.41558
v -1.05483 -1.72232 0.41558
v -0.66586 -1.90072 0.41558
v -0.23414 -1.90072 0.41558
v 0.15483 -1.72232 0.41558
v 0.42401 -1.40086 0.41558
v 0.6 -1 0.76
v 0.49602 -0.56612 0.76
v 0.20466 -0.21817 0.76
v -0.21635 -0.02507 0.76
v -0.68365 -0.02507 0.76
v -1.10466 -0.21817 0.76
v -1.39602 -0.56612 0.76
v -1.5 -1 0.76
v -1.39602 -1.43388 0.76
v -1.10466 -1.78183 0.76
v -0.68365 -1.97493 0.76
v -0.21635 -1.97493 0.76
v 0.20466 -1.78183 0.76
v 0.49602 -1.43388 0.76
v 0.52007 -1 1.10442
v 0.42401 -0.59914 1.10442
v 0.15483 -0.27768 1.10442
v -0.23414 -0.09928 1.10442
v -0.66586 -0.09928 1.10442
v -1.05483 -0.27768 1.10442
v -1.32401 -0.59914 1.10442
v -1.42007 -1 1.10442
v -1.32401 -1.40086 1.10442
v -1.05483 -1.72232 1.10442
v -0.66586 -1.90072 1.10442
v -0.23414 -1.90072 1.10442
v 0.15483 -1.72232 1.10442
v 0.42401 -1.40086 1.10442
v 0.29246 -1 1.3964
v 0.21894 -0.6932 1.3964
v 0.01292 -0.44716 1.3964
v -0.28479 -0.31062 1.3964
v -0.61521 -0.31062 1.3964
v -0.91292 -0.44716 1.3964
v -1.11894 -0.6932 1.3964
v -1.19246 -1 1.3964
v -1.11894 -1.3068 1.3964
v -0.91292 -1.55284 1.3964
v -0.61521 -1.68938 1.3964
v -0.28479 -1.68938 1.3964
v 0.01292 -1.55284 1.3964
v 0.21894 -1.3068 1.3964
v -0.04818 -1 1.59149
v -0.08797 -0.83396 1.59149
v -0.19947 -0.70081 1.59149
v -0.36059 -0.62691 1.59149
v -0.53941 -0.62691 1.59149
v -0.70053 -0.70081 1.59149
v -0.81203 -0.83396 1.59149
v -0.85182 -1 1.59149
v -0.81203 -1.16604 1.59149
v -0.70053 -1.29919 1.59149
v -0.53941 -1.37309 1.59149
v -0.36059 -1.37309 1.59149
v -0.19947 -1.29919 1.59149
v -0.08797 -1.16604 1.59149
v -0.45 -1 1.66
v -0.45 -1 1.66
v -0.45 -1 1.66
v -0.45 -1 1.66
v -0.45 -1 1.66
v -0.45 -1 1.66
v -0.45 -1 1.66
v -0.45 -1 1.66
v -0.45 -1 1.66
v -0.45 -1 1.66
v -0.45 -1 1.66
v -0.45 -1 1.66
v -0.45 -1 1.66
v -0.45 -1 1.66
v 0.05 0.05 1.14
v 0.05 0.05 1.14
v 0.05 0.05 1.14
v 0.05 0.05 1.14
v 0.05 0.05 1.14
v 0.05 0.05 1.14
v 0.05 0.05 1.14
v 0.05 0.05 1.14
v 0.05 0.05 1.14
v 0.05 0.05 1.14
v 0.05 0.05 1.14
v 0.05 0.05 1.14
v 0.05 0.05 1.14
v 0.05 0.05 1.14
v 0.42503 0.05 1.20546
v 0.38789 0.20608 1.20546
v 0.28383 0.33124 1.20546
v 0.13345 0.4007 1.20546
v -0.03345 0.4007 1.20546
v -0.18383 0.33124 1.20546
v -0.28789 0.20608 1.20546
v -0.32503 0.05 1.20546
v -0.28789 -0.10608 1.20546
v -0.18383 -0.23124 1.20546
v -0.03345 -0.3007 1.20546
v 0.13345 -0.3007 1.20546
v 0.28383 -0.23124 1.20546
v 0.38789 -0.10608 1.20546
v 0.74296 0.05 1.39189
v 0.67434 0.33839 1.39189
v 0.48206 0.56967 1.39189
v 0.2042 0.69802 1.39189
v -0.1042 0.69802 1.39189
v -0.38206 0.56967 1.39189
v -0.57434 0.33839 1.39189
v -0.64296 0.05 1.39189
v -0.57434 -0.23839 1.39189
v -0.38206 -0.46967 1.39189
v -0.1042 -0.59802 1.39189
v 0.2042 -0.59802 1.39189
v 0.48206 -0.46967 1.39189
v 0.67434 -0.23839 1.39189
v 0.9554 0.05 1.67089
v 0.86574 0.4268 1.67089
v 0.61451 0.72898 1.67089
v 0.25147 0.89667 1.67089
v -0.15147 0.89667 1.67089
v -0.51451 0.72898 1.67089
v -0.76574 0.4268 1.67089
v -0.8554 0.05 1.67089
v -0.76574 -0.3268 1.67089
v -0.51451 -0.62898 1.67089
v -0.15147 -0.79667 1.67089
v 0.25147 -0.79667 1.67089
v 0.61451 -0.62898 1.67089
v 0.86574 -0.3268 1.67089
v 1.03 0.05 2
v 0.93295 0.45785 2
v 0.66102 0.78492 2
v 0.26807 0.96643 2
v -0.16807 0.96643 2
v -0.56102 0.78492 2
v -0.83295 0.45785 2
v -0.93 0.05 2
v -0.83295 -0.35785 2
v -0.56102 -0.68492 2
v -0.16807 -0.86643 2
v 0.26807 -0.86643 2
v 0.66102 -0.68492 2
v 0.93295 -0.35785 2
v 0.9554 0.05 2.32911
v 0.86574 0.4268 2.32911
v 0.61451 0.72898 2.32911
v 0.25147 0.89667 2.32911
v -0.15147 0.89667 2.32911
v -0.51451 0.72898 2.32911
v -0.76574 0.4268 2.32911
v -0.8554 0.05 2.32911
v -0.76574 -0.3268 2.32911
v -0.51451 -0.62898 2.32911
v -0.15147 -0.79667 2.32911
v 0.25147 -0.79667 2.32911
v 0.61451 -0.62898 2.32911
v 0.86574 -0.3268 2.32911
v 0.74296 0.05 2.60811
v 0.67434 0.33839 2.60811
v 0.48206 0.56967 2.60811
v 0.2042 0.69802 2.60811
v -0.1042 0.69802 2.60811
v -0.38206 0.56967 2.60811
v -0.57434 0.33839 2.60811
v -0.64296 0.05 2.60811
v -0.57434 -0.23839 2.60811
v -0.38206 -0.46967 2.60811
v -0.1042 -0.59802 2.60811
v 0.2042 -0.59802 2.60811
v 0.48206 -0.46967 2.60811
v 0.67434 -0.23839 2.60811
v 0.42503 0.05 2.79454
v 0.38789 0.20608 2.79454
v 0.28383 0.33124 2.79454
v 0.13345 0.4007 2.79454
v -0.03345 0.4007 2.79454
v -0.18383 0.33124 2.79454
v -0.28789 0.20608 2.79454
v -0.32503 0.05 2.79454
v -0.28789 -0.10608 2.79454
v -0.18383 -0.23124 2.79454
v -0.03345 -0.3007 2.79454
v 0.13345 -0.3007 2.79454
v 0.28383 -0.23124 2.79454
v 0.38789 -0.10608 2.79454
v 0.05 0.05 2.86
v 0.05 0.05 2.86
v 0.05 0.05 2.86
v 0.05 0.05 2.86
v 0.05 0.05 2.86
v 0.05 0.05 2.86
v 0.05 0.05 2.86
v 0.05 0.05 2.86
v 0.05 0.05 2.86
v 0.05 0.05 2.86
v 0.05 0.05 2.86
v 0.05 0.05 2.86
v 0.05 0.05 2.86
v 0.05 0.05 2.86
v 0 -0.07 0.3
v 0.02607 -0.04364 0.25188
v 0.0325 0.01558 0.23999
v 0.01447 0.06307 0.27329
v -0.01447 0.06307 0.32671
v -0.0325 0.01558 0.36001
v -0.02607 -0.04364 0.34812
v 1.2 -0.03 0.95
v 1.21117 -0.0187 0.92938
v 1.21393 0.00668 0.92428
v 1.2062 0.02703 0.93855
v 1.1938 0.02703 0.96145
v 1.18607 0.00668 0.97572
v 1.18883 -0.0187 0.97062
v 0.0473 -0.0516 0.3
v 0.04933 -0.01399 0.25234
v 0.01421 0.03416 0.24057
v -0.03161 0.05658 0.27355
v -0.05363 0.0364 0.32645
v -0.03526 -0.01119 0.35943
v 0.00965 -0.05036 0.34766
v 0.8688 0.7557 0.95
v 0.86967 0.77182 0.92958
v 0.85462 0.79246 0.92453
v 0.83498 0.80207 0.93867
v 0.82555 0.79342 0.96133
v 0.83342 0.77302 0.97547
v 0.85267 0.75624 0.97042
v 0.07 0 0.3
v 0.04364 0.02784 0.25288
v -0.01558 0.03472 0.24125
v -0.06307 0.01545 0.27385
v -0.06307 -0.01545 0.32615
v -0.01558 -0.03472 0.35875
v 0.04364 -0.02784 0.34712
v 0.03 1.1 0.95
v 0.0187 1.11193 0.92981
v -0.00668 1.11488 0.92482
v -0.02703 1.10662 0.93879
v -0.02703 1.09338 0.96121
v -0.00668 1.08512 0.97518
v 0.0187 1.08807 0.97019
v 0.0473 0.0516 0.3
v 0.00965 0.05036 0.25234
v -0.03526 0.01119 0.24057
v -0.05363 -0.0364 0.27355
v -0.03161 -0.05658 0.32645
v 0.01421 -0.03416 0.35943
v 0.04933 0.01399 0.34766
v -0.82826 0.79993 0.95
v -0.84439 0.7994 0.92958
v -0.86364 0.78261 0.92453
v -0.87151 0.76222 0.93867
v -0.86207 0.75357 0.96133
v -0.84244 0.76318 0.97547
v -0.82739 0.78381 0.97042
v 0 0.07 0.3
v -0.02607 0.04364 0.25188
v -0.0325 -0.01558 0.23999
v -0.01447 -0.06307 0.27329
v 0.01447 -0.06307 0.32671
v 0.0325 -0.01558 0.36001
v 0.02607 0.04364 0.34812
v -1.2 0.03 0.95
v -1.21117 0.0187 0.92938
v -1.21393 -0.00668 0.92428
v -1.2062 -0.02703 0.93855
v -1.1938 -0.02703 0.96145
v -1.18607 -0.00668 0.97572
v -1.18883 0.0187 0.97062
v -0.0473 0.0516 0.3
v -0.04933 0.01399 0.25234
v -0.01421 -0.03416 0.24057
v 0.03161 -0.05658 0.27355
v 0.05363 -0.0364 0.32645
v 0.03526 0.01119 0.35943
v -0.00965 0.05036 0.34766
v -0.8688 -0.7557 0.95
v -0.86967 -0.77182 0.92958
v -0.85462 -0.79246 0.92453
v -0.83498 -0.80207 0.93867
v -0.82555 -0.79342 0.96133
v -0.83342 -0.77302 0.97547
v -0.85267 -0.75624 0.97042
v -0.07 0 0.3
v -0.04364 -0.02784 0.25288
v 0.01558 -0.03472 0.24125
v 0.06307 -0.01545 0.27385
v 0.06307 0.01545 0.32615
v 0.01558 0.03472 0.35875
v -0.04364 0.02784 0.34712
v -0.03 -1.1 0.95
v -0.0187 -1.11193 0.92981
v 0.00668 -1.11488 0.92482
v 0.02703 -1.10662 0.93879
v 0.02703 -1.09338 0.96121
v 0.00668 -1.08512 0.97518
v -0.0187 -1.08807 0.97019
v -0.0473 -0.0516 0.3
v -0.00965 -0.05036 0.25234
v 0.03526 -0.01119 0.24057
v 0.05363 0.0364 0.27355
v 0.03161 0.05658 0.32645
v -0.01421 0.03416 0.35943
v -0.04933 -0.01399 0.34766
v 0.82826 -0.79993 0.95
v 0.84439 -0.7994 0.92958
v 0.86364 -0.78261 0.92453
v 0.87151 -0.76222 0.93867
v 0.86207 -0.75357 0.96133
v 0.84244 -0.76318 0.97547
v 0.82739 -0.78381 0.97042
g LeafLobe0
usemtl SURVIVAL_LEAF_LIGHT
f 1 2 16 15
f 2 3 17 16
f 3 4 18 17
f 4 5 19 18
f 5 6 20 19
f 6 7 21 20
f 7 8 22 21
f 8 9 23 22
f 9 10 24 23
f 10 11 25 24
f 11 12 26 25
f 12 13 27 26
f 13 14 28 27
f 14 1 15 28
f 15 16 30 29
f 16 17 31 30
f 17 18 32 31
f 18 19 33 32
f 19 20 34 33
f 20 21 35 34
f 21 22 36 35
f 22 23 37 36
f 23 24 38 37
f 24 25 39 38
f 25 26 40 39
f 26 27 41 40
f 27 28 42 41
f 28 15 29 42
f 29 30 44 43
f 30 31 45 44
f 31 32 46 45
f 32 33 47 46
f 33 34 48 47
f 34 35 49 48
f 35 36 50 49
f 36 37 51 50
f 37 38 52 51
f 38 39 53 52
f 39 40 54 53
f 40 41 55 54
f 41 42 56 55
f 42 29 43 56
f 43 44 58 57
f 44 45 59 58
f 45 46 60 59
f 46 47 61 60
f 47 48 62 61
f 48 49 63 62
f 49 50 64 63
f 50 51 65 64
f 51 52 66 65
f 52 53 67 66
f 53 54 68 67
f 54 55 69 68
f 55 56 70 69
f 56 43 57 70
f 57 58 72 71
f 58 59 73 72
f 59 60 74 73
f 60 61 75 74
f 61 62 76 75
f 62 63 77 76
f 63 64 78 77
f 64 65 79 78
f 65 66 80 79
f 66 67 81 80
f 67 68 82 81
f 68 69 83 82
f 69 70 84 83
f 70 57 71 84
f 71 72 86 85
f 72 73 87 86
f 73 74 88 87
f 74 75 89 88
f 75 76 90 89
f 76 77 91 90
f 77 78 92 91
f 78 79 93 92
f 79 80 94 93
f 80 81 95 94
f 81 82 96 95
f 82 83 97 96
f 83 84 98 97
f 84 71 85 98
f 85 86 100 99
f 86 87 101 100
f 87 88 102 101
f 88 89 103 102
f 89 90 104 103
f 90 91 105 104
f 91 92 106 105
f 92 93 107 106
f 93 94 108 107
f 94 95 109 108
f 95 96 110 109
f 96 97 111 110
f 97 98 112 111
f 98 85 99 112
f 99 100 114 113
f 100 101 115 114
f 101 102 116 115
f 102 103 117 116
f 103 104 118 117
f 104 105 119 118
f 105 106 120 119
f 106 107 121 120
f 107 108 122 121
f 108 109 123 122
f 109 110 124 123
f 110 111 125 124
f 111 112 126 125
f 112 99 113 126
g LeafLobe1
usemtl SURVIVAL_LEAF
f 127 128 142 141
f 128 129 143 142
f 129 130 144 143
f 130 131 145 144
f 131 132 146 145
f 132 133 147 146
f 133 134 148 147
f 134 135 149 148
f 135 136 150 149
f 136 137 151 150
f 137 138 152 151
f 138 139 153 152
f 139 140 154 153
f 140 127 141 154
f 141 142 156 155
f 142 143 157 156
f 143 144 158 157
f 144 145 159 158
f 145 146 160 159
f 146 147 161 160
f 147 148 162 161
f 148 149 163 162
f 149 150 164 163
f 150 151 165 164
f 151 152 166 165
f 152 153 167 166
f 153 154 168 167
f 154 141 155 168
f 155 156 170 169
f 156 157 171 170
f 157 158 172 171
f 158 159 173 172
f 159 160 174 173
f 160 161 175 174
f 161 162 176 175
f 162 163 177 176
f 163 164 178 177
f 164 165 179 178
f 165 166 180 179
f 166 167 181 180
f 167 168 182 181
f 168 155 169 182
f 169 170 184 183
f 170 171 185 184
f 171 172 186 185
f 172 173 187 186
f 173 174 188 187
f 174 175 189 188
f 175 176 190 189
f 176 177 191 190
f 177 178 192 191
f 178 179 193 192
f 179 180 194 193
f 180 181 195 194
f 181 182 196 195
f 182 169 183 196
f 183 184 198 197
f 184 185 199 198
f 185 186 200 199
f 186 187 201 200
f 187 188 202 201
f 188 189 203 202
f 189 190 204 203
f 190 191 205 204
f 191 192 206 205
f 192 193 207 206
f 193 194 208 207
f 194 195 209 208
f 195 196 210 209
f 196 183 197 210
f 197 198 212 211
f 198 199 213 212
f 199 200 214 213
f 200 201 215 214
f 201 202 216 215
f 202 203 217 216
f 203 204 218 217
f 204 205 219 218
f 205 206 220 219
f 206 207 221 220
f 207 208 222 221
f 208 209 223 222
f 209 210 224 223
f 210 197 211 224
f 211 212 226 225
f 212 213 227 226
f 213 214 228 227
f 214 215 229 228
f 215 216 230 229
f 216 217 231 230
f 217 218 232 231
f 218 219 233 232
f 219 220 234 233
f 220 221 235 234
f 221 222 236 235
f 222 223 237 236
f 223 224 238 237
f 224 211 225 238
f 225 226 240 239
f 226 227 241 240
f 227 228 242 241
f 228 229 243 242
f 229 230 244 243
f 230 231 245 244
f 231 232 246 245
f 232 233 247 246
f 233 234 248 247
f 234 235 249 248
f 235 236 250 249
f 236 237 251 250
f 237 238 252 251
f 238 225 239 252
g LeafLobe2
usemtl SURVIVAL_LEAF_DARK
f 253 254 268 267
f 254 255 269 268
f 255 256 270 269
f 256 257 271 270
f 257 258 272 271
f 258 259 273 272
f 259 260 274 273
f 260 261 275 274
f 261 262 276 275
f 262 263 277 276
f 263 264 278 277
f 264 265 279 278
f 265 266 280 279
f 266 253 267 280
f 267 268 282 281
f 268 269 283 282
f 269 270 284 283
f 270 271 285 284
f 271 272 286 285
f 272 273 287 286
f 273 274 288 287
f 274 275 289 288
f 275 276 290 289
f 276 277 291 290
f 277 278 292 291
f 278 279 293 292
f 279 280 294 293
f 280 267 281 294
f 281 282 296 295
f 282 283 297 296
f 283 284 298 297
f 284 285 299 298
f 285 286 300 299
f 286 287 301 300
f 287 288 302 301
f 288 289 303 302
f 289 290 304 303
f 290 291 305 304
f 291 292 306 305
f 292 293 307 306
f 293 294 308 307
f 294 281 295 308
f 295 296 310 309
f 296 297 311 310
f 297 298 312 311
f 298 299 313 312
f 299 300 314 313
f 300 301 315 314
f 301 302 316 315
f 302 303 317 316
f 303 304 318 317
f 304 305 319 318
f 305 306 320 319
f 306 307 321 320
f 307 308 322 321
f 308 295 309 322
f 309 310 324 323
f 310 311 325 324
f 311 312 326 325
f 312 313 327 326
f 313 314 328 327
f 314 315 329 328
f 315 316 330 329
f 316 317 331 330
f 317 318 332 331
f 318 319 333 332
f 319 320 334 333
f 320 321 335 334
f 321 322 336 335
f 322 309 323 336
f 323 324 338 337
f 324 325 339 338
f 325 326 340 339
f 326 327 341 340
f 327 328 342 341
f 328 329 343 342
f 329 330 344 343
f 330 331 345 344
f 331 332 346 345
f 332 333 347 346
f 333 334 348 347
f 334 335 349 348
f 335 336 350 349
f 336 323 337 350
f 337 338 352 351
f 338 339 353 352
f 339 340 354 353
f 340 341 355 354
f 341 342 356 355
f 342 343 357 356
f 343 344 358 357
f 344 345 359 358
f 345 346 360 359
f 346 347 361 360
f 347 348 362 361
f 348 349 363 362
f 349 350 364 363
f 350 337 351 364
f 351 352 366 365
f 352 353 367 366
f 353 354 368 367
f 354 355 369 368
f 355 356 370 369
f 356 357 371 370
f 357 358 372 371
f 358 359 373 372
f 359 360 374 373
f 360 361 375 374
f 361 362 376 375
f 362 363 377 376
f 363 364 378 377
f 364 351 365 378
g LeafLobe3
usemtl SURVIVAL_LEAF_LIGHT
f 379 380 394 393
f 380 381 395 394
f 381 382 396 395
f 382 383 397 396
f 383 384 398 397
f 384 385 399 398
f 385 386 400 399
f 386 387 401 400
f 387 388 402 401
f 388 389 403 402
f 389 390 404 403
f 390 391 405 404
f 391 392 406 405
f 392 379 393 406
f 393 394 408 407
f 394 395 409 408
f 395 396 410 409
f 396 397 411 410
f 397 398 412 411
f 398 399 413 412
f 399 400 414 413
f 400 401 415 414
f 401 402 416 415
f 402 403 417 416
f 403 404 418 417
f 404 405 419 418
f 405 406 420 419
f 406 393 407 420
f 407 408 422 421
f 408 409 423 422
f 409 410 424 423
f 410 411 425 424
f 411 412 426 425
f 412 413 427 426
f 413 414 428 427
f 414 415 429 428
f 415 416 430 429
f 416 417 431 430
f 417 418 432 431
f 418 419 433 432
f 419 420 434 433
f 420 407 421 434
f 421 422 436 435
f 422 423 437 436
f 423 424 438 437
f 424 425 439 438
f 425 426 440 439
f 426 427 441 440
f 427 428 442 441
f 428 429 443 442
f 429 430 444 443
f 430 431 445 444
f 431 432 446 445
f 432 433 447 446
f 433 434 448 447
f 434 421 435 448
f 435 436 450 449
f 436 437 451 450
f 437 438 452 451
f 438 439 453 452
f 439 440 454 453
f 440 441 455 454
f 441 442 456 455
f 442 443 457 456
f 443 444 458 457
f 444 445 459 458
f 445 446 460 459
f 446 447 461 460
f 447 448 462 461
f 448 435 449 462
f 449 450 464 463
f 450 451 465 464
f 451 452 466 465
f 452 453 467 466
f 453 454 468 467
f 454 455 469 468
f 455 456 470 469
f 456 457 471 470
f 457 458 472 471
f 458 459 473 472
f 459 460 474 473
f 460 461 475 474
f 461 462 476 475
f 462 449 463 476
f 463 464 478 477
f 464 465 479 478
f 465 466 480 479
f 466 467 481 480
f 467 468 482 481
f 468 469 483 482
f 469 470 484 483
f 470 471 485 484
f 471 472 486 485
f 472 473 487 486
f 473 474 488 487
f 474 475 489 488
f 475 476 490 489
f 476 463 477 490
f 477 478 492 491
f 478 479 493 492
f 479 480 494 493
f 480 481 495 494
f 481 482 496 495
f 482 483 497 496
f 483 484 498 497
f 484 485 499 498
f 485 486 500 499
f 486 487 501 500
f 487 488 502 501
f 488 489 503 502
f 489 490 504 503
f 490 477 491 504
g LeafLobe4
usemtl SURVIVAL_LEAF_DARK
f 505 506 520 519
f 506 507 521 520
f 507 508 522 521
f 508 509 523 522
f 509 510 524 523
f 510 511 525 524
f 511 512 526 525
f 512 513 527 526
f 513 514 528 527
f 514 515 529 528
f 515 516 530 529
f 516 517 531 530
f 517 518 532 531
f 518 505 519 532
f 519 520 534 533
f 520 521 535 534
f 521 522 536 535
f 522 523 537 536
f 523 524 538 537
f 524 525 539 538
f 525 526 540 539
f 526 527 541 540
f 527 528 542 541
f 528 529 543 542
f 529 530 544 543
f 530 531 545 544
f 531 532 546 545
f 532 519 533 546
f 533 534 548 547
f 534 535 549 548
f 535 536 550 549
f 536 537 551 550
f 537 538 552 551
f 538 539 553 552
f 539 540 554 553
f 540 541 555 554
f 541 542 556 555
f 542 543 557 556
f 543 544 558 557
f 544 545 559 558
f 545 546 560 559
f 546 533 547 560
f 547 548 562 561
f 548 549 563 562
f 549 550 564 563
f 550 551 565 564
f 551 552 566 565
f 552 553 567 566
f 553 554 568 567
f 554 555 569 568
f 555 556 570 569
f 556 557 571 570
f 557 558 572 571
f 558 559 573 572
f 559 560 574 573
f 560 547 561 574
f 561 562 576 575
f 562 563 577 576
f 563 564 578 577
f 564 565 579 578
f 565 566 580 579
f 566 567 581 580
f 567 568 582 581
f 568 569 583 582
f 569 570 584 583
f 570 571 585 584
f 571 572 586 585
f 572 573 587 586
f 573 574 588 587
f 574 561 575 588
f 575 576 590 589
f 576 577 591 590
f 577 578 592 591
f 578 579 593 592
f 579 580 594 593
f 580 581 595 594
f 581 582 596 595
f 582 583 597 596
f 583 584 598 597
f 584 585 599 598
f 585 586 600 599
f 586 587 601 600
f 587 588 602 601
f 588 575 589 602
f 589 590 604 603
f 590 591 605 604
f 591 592 606 605
f 592 593 607 606
f 593 594 608 607
f 594 595 609 608
f 595 596 610 609
f 596 597 611 610
f 597 598 612 611
f 598 599 613 612
f 599 600 614 613
f 600 601 615 614
f 601 602 616 615
f 602 589 603 616
f 603 604 618 617
f 604 605 619 618
f 605 606 620 619
f 606 607 621 620
f 607 608 622 621
f 608 609 623 622
f 609 610 624 623
f 610 611 625 624
f 611 612 626 625
f 612 613 627 626
f 613 614 628 627
f 614 615 629 628
f 615 616 630 629
f 616 603 617 630
g LeafLobe5
usemtl SURVIVAL_LEAF
f 631 632 646 645
f 632 633 647 646
f 633 634 648 647
f 634 635 649 648
f 635 636 650 649
f 636 637 651 650
f 637 638 652 651
f 638 639 653 652
f 639 640 654 653
f 640 641 655 654
f 641 642 656 655
f 642 643 657 656
f 643 644 658 657
f 644 631 645 658
f 645 646 660 659
f 646 647 661 660
f 647 648 662 661
f 648 649 663 662
f 649 650 664 663
f 650 651 665 664
f 651 652 666 665
f 652 653 667 666
f 653 654 668 667
f 654 655 669 668
f 655 656 670 669
f 656 657 671 670
f 657 658 672 671
f 658 645 659 672
f 659 660 674 673
f 660 661 675 674
f 661 662 676 675
f 662 663 677 676
f 663 664 678 677
f 664 665 679 678
f 665 666 680 679
f 666 667 681 680
f 667 668 682 681
f 668 669 683 682
f 669 670 684 683
f 670 671 685 684
f 671 672 686 685
f 672 659 673 686
f 673 674 688 687
f 674 675 689 688
f 675 676 690 689
f 676 677 691 690
f 677 678 692 691
f 678 679 693 692
f 679 680 694 693
f 680 681 695 694
f 681 682 696 695
f 682 683 697 696
f 683 684 698 697
f 684 685 699 698
f 685 686 700 699
f 686 673 687 700
f 687 688 702 701
f 688 689 703 702
f 689 690 704 703
f 690 691 705 704
f 691 692 706 705
f 692 693 707 706
f 693 694 708 707
f 694 695 709 708
f 695 696 710 709
f 696 697 711 710
f 697 698 712 711
f 698 699 713 712
f 699 700 714 713
f 700 687 701 714
f 701 702 716 715
f 702 703 717 716
f 703 704 718 717
f 704 705 719 718
f 705 706 720 719
f 706 707 721 720
f 707 708 722 721
f 708 709 723 722
f 709 710 724 723
f 710 711 725 724
f 711 712 726 725
f 712 713 727 726
f 713 714 728 727
f 714 701 715 728
f 715 716 730 729
f 716 717 731 730
f 717 718 732 731
f 718 719 733 732
f 719 720 734 733
f 720 721 735 734
f 721 722 736 735
f 722 723 737 736
f 723 724 738 737
f 724 725 739 738
f 725 726 740 739
f 726 727 741 740
f 727 728 742 741
f 728 715 729 742
f 729 730 744 743
f 730 731 745 744
f 731 732 746 745
f 732 733 747 746
f 733 734 748 747
f 734 735 749 748
f 735 736 750 749
f 736 737 751 750
f 737 738 752 751
f 738 739 753 752
f 739 740 754 753
f 740 741 755 754
f 741 742 756 755
f 742 729 743 756
g Twig0
usemtl SURVIVAL_WOOD
f 757 758 765 764
f 758 759 766 765
f 759 760 767 766
f 760 761 768 767
f 761 762 769 768
f 762 763 770 769
f 763 757 764 770
g Twig1
f 771 772 779 778
f 772 773 780 779
f 773 774 781 780
f 774 775 782 781
f 775 776 783 782
f 776 777 784 783
f 777 771 778 784
g Twig2
f 785 786 793 792
f 786 787 794 793
f 787 788 795 794
f 788 789 796 795
f 789 790 797 796
f 790 791 798 797
f 791 785 792 798
g Twig3
f 799 800 807 806
f 800 801 808 807
f 801 802 809 808
f 802 803 810 809
f 803 804 811 810
f 804 805 812 811
f 805 799 806 812
g Twig4
f 813 814 821 820
f 814 815 822 821
f 815 816 823 822
f 816 817 824 823
f 817 818 825 824
f 818 819 826 825
f 819 813 820 826
g Twig5
f 827 828 835 834
f 828 829 836 835
f 829 830 837 836
f 830 831 838 837
f 831 832 839 838
f 832 833 840 839
f 833 827 834 840
g Twig6
f 841 842 849 848
f 842 843 850 849
f 843 844 851 850
f 844 845 852 851
f 845 846 853 852
f 846 847 854 853
f 847 841 848 854
g Twig7
f 855 856 863 862
f 856 857 864 863
f 857 858 865 864
f 858 859 866 865
f 859 860 867 866
f 860 861 868 867
f 861 855 862 868
