# bird - project-original Roblox source asset
mtllib monster-adventure.mtl
o bird
v 0 0 0.63
v 0 0 0.63
v 0 0 0.63
v 0 0 0.63
v 0 0 0.63
v 0 0 0.63
v 0 0 0.63
v 0 0 0.63
v 0 0 0.63
v 0 0 0.63
v 0 0 0.63
v 0 0 0.63
v 0 0 0.63
v 0 0 0.63
v 0 0 0.63
v 0 0 0.63
v 0.24625 0 0.68548
v 0.22751 0.14136 0.68548
v 0.17413 0.26119 0.68548
v 0.09424 0.34126 0.68548
v 0 0.36938 0.68548
v -0.09424 0.34126 0.68548
v -0.17413 0.26119 0.68548
v -0.22751 0.14136 0.68548
v -0.24625 0 0.68548
v -0.22751 -0.14136 0.68548
v -0.17413 -0.26119 0.68548
v -0.09424 -0.34126 0.68548
v 0 -0.36938 0.68548
v 0.09424 -0.34126 0.68548
v 0.17413 -0.26119 0.68548
v 0.22751 -0.14136 0.68548
v 0.46281 0 0.84524
v 0.42758 0.26566 0.84524
v 0.32725 0.49088 0.84524
v 0.17711 0.64137 0.84524
v 0 0.69421 0.84524
v -0.17711 0.64137 0.84524
v -0.32725 0.49088 0.84524
v -0.42758 0.26566 0.84524
v -0.46281 0 0.84524
v -0.42758 -0.26566 0.84524
v -0.32725 -0.49088 0.84524
v -0.17711 -0.64137 0.84524
v 0 -0.69421 0.84524
v 0.17711 -0.64137 0.84524
v 0.32725 -0.49088 0.84524
v 0.42758 -0.26566 0.84524
v 0.62354 0 1.09
v 0.57607 0.35793 1.09
v 0.44091 0.66136 1.09
v 0.23862 0.86411 1.09
v 0 0.93531 1.09
v -0.23862 0.86411 1.09
v -0.44091 0.66136 1.09
v -0.57607 0.35793 1.09
v -0.62354 0 1.09
v -0.57607 -0.35793 1.09
v -0.44091 -0.66136 1.09
v -0.23862 -0.86411 1.09
v 0 -0.93531 1.09
v 0.23862 -0.86411 1.09
v 0.44091 -0.66136 1.09
v 0.57607 -0.35793 1.09
v 0.70906 0 1.39024
v 0.65509 0.40702 1.39024
v 0.50138 0.75207 1.39024
v 0.27135 0.98263 1.39024
v 0 1.06359 1.39024
v -0.27135 0.98263 1.39024
v -0.50138 0.75207 1.39024
v -0.65509 0.40702 1.39024
v -0.70906 0 1.39024
v -0.65509 -0.40702 1.39024
v -0.50138 -0.75207 1.39024
v -0.27135 -0.98263 1.39024
v 0 -1.06359 1.39024
v 0.27135 -0.98263 1.39024
v 0.50138 -0.75207 1.39024
v 0.65509 -0.40702 1.39024
v 0.70906 0 1.70976
v 0.65509 0.40702 1.70976
v 0.50138 0.75207 1.70976
v 0.27135 0.98263 1.70976
v 0 1.06359 1.70976
v -0.27135 0.98263 1.70976
v -0.50138 0.75207 1.70976
v -0.65509 0.40702 1.70976
v -0.70906 0 1.70976
v -0.65509 -0.40702 1.70976
v -0.50138 -0.75207 1.70976
v -0.27135 -0.98263 1.70976
v 0 -1.06359 1.70976
v 0.27135 -0.98263 1.70976
v 0.50138 -0.75207 1.70976
v 0.65509 -0.40702 1.70976
v 0.62354 0 2.01
v 0.57607 0.35793 2.01
v 0.44091 0.66136 2.01
v 0.23862 0.86411 2.01
v 0 0.93531 2.01
v -0.23862 0.86411 2.01
v -0.44091 0.66136 2.01
v -0.57607 0.35793 2.01
v -0.62354 0 2.01
v -0.57607 -0.35793 2.01
v -0.44091 -0.66136 2.01
v -0.23862 -0.86411 2.01
v 0 -0.93531 2.01
v 0.23862 -0.86411 2.01
v 0.44091 -0.66136 2.01
v 0.57607 -0.35793 2.01
v 0.46281 0 2.25476
v 0.42758 0.26566 2.25476
v 0.32725 0.49088 2.25476
v 0.17711 0.64137 2.25476
v 0 0.69421 2.25476
v -0.17711 0.64137 2.25476
v -0.32725 0.49088 2.25476
v -0.42758 0.26566 2.25476
v -0.46281 0 2.25476
v -0.42758 -0.26566 2.25476
v -0.32725 -0.49088 2.25476
v -0.17711 -0.64137 2.25476
v 0 -0.69421 2.25476
v 0.17711 -0.64137 2.25476
v 0.32725 -0.49088 2.25476
v 0.42758 -0.26566 2.25476
v 0.24625 0 2.41452
v 0.22751 0.14136 2.41452
v 0.17413 0.26119 2.41452
v 0.09424 0.34126 2.41452
v 0 0.36938 2.41452
v -0.09424 0.34126 2.41452
v -0.17413 0.26119 2.41452
v -0.22751 0.14136 2.41452
v -0.24625 0 2.41452
v -0.22751 -0.14136 2.41452
v -0.17413 -0.26119 2.41452
v -0.09424 -0.34126 2.41452
v 0 -0.36938 2.41452
v 0.09424 -0.34126 2.41452
v 0.17413 -0.26119 2.41452
v 0.22751 -0.14136 2.41452
v 0 0 2.47
v 0 0 2.47
v 0 0 2.47
v 0 0 2.47
v 0 0 2.47
v 0 0 2.47
v 0 0 2.47
v 0 0 2.47
v 0 0 2.47
v 0 0 2.47
v 0 0 2.47
v 0 0 2.47
v 0 0 2.47
v 0 0 2.47
v 0 0 2.47
v 0 0 2.47
v 0 -0.48 0.83
v 0 -0.48 0.83
v 0 -0.48 0.83
v 0 -0.48 0.83
v 0 -0.48 0.83
v 0 -0.48 0.83
v 0 -0.48 0.83
v 0 -0.48 0.83
v 0 -0.48 0.83
v 0 -0.48 0.83
v 0 -0.48 0.83
v 0 -0.48 0.83
v 0 -0.48 0.83
v 0 -0.48 0.83
v 0.26788 -0.48 0.89242
v 0.24135 -0.36045 0.89242
v 0.16702 -0.26458 0.89242
v 0.05961 -0.21138 0.89242
v -0.05961 -0.21138 0.89242
v -0.16702 -0.26458 0.89242
v -0.24135 -0.36045 0.89242
v -0.26788 -0.48 0.89242
v -0.24135 -0.59955 0.89242
v -0.16702 -0.69542 0.89242
v -0.05961 -0.74862 0.89242
v 0.05961 -0.74862 0.89242
v 0.16702 -0.69542 0.89242
v 0.24135 -0.59955 0.89242
v 0.49497 -0.48 1.07017
v 0.44596 -0.2591 1.07017
v 0.30861 -0.08196 1.07017
v 0.11014 0.01635 1.07017
v -0.11014 0.01635 1.07017
v -0.30861 -0.08196 1.07017
v -0.44596 -0.2591 1.07017
v -0.49497 -0.48 1.07017
v -0.44596 -0.7009 1.07017
v -0.30861 -0.87804 1.07017
v -0.11014 -0.97635 1.07017
v 0.11014 -0.97635 1.07017
v 0.30861 -0.87804 1.07017
v 0.44596 -0.7009 1.07017
v 0.64672 -0.48 1.3362
v 0.58267 -0.19138 1.3362
v 0.40322 0.04007 1.3362
v 0.14391 0.16852 1.3362
v -0.14391 0.16852 1.3362
v -0.40322 0.04007 1.3362
v -0.58267 -0.19138 1.3362
v -0.64672 -0.48 1.3362
v -0.58267 -0.76862 1.3362
v -0.40322 -1.00007 1.3362
v -0.14391 -1.12852 1.3362
v 0.14391 -1.12852 1.3362
v 0.40322 -1.00007 1.3362
v 0.58267 -0.76862 1.3362
v 0.7 -0.48 1.65
v 0.63068 -0.1676 1.65
v 0.43644 0.08292 1.65
v 0.15576 0.22195 1.65
v -0.15576 0.22195 1.65
v -0.43644 0.08292 1.65
v -0.63068 -0.1676 1.65
v -0.7 -0.48 1.65
v -0.63068 -0.7924 1.65
v -0.43644 -1.04292 1.65
v -0.15576 -1.18195 1.65
v 0.15576 -1.18195 1.65
v 0.43644 -1.04292 1.65
v 0.63068 -0.7924 1.65
v 0.64672 -0.48 1.9638
v 0.58267 -0.19138 1.9638
v 0.40322 0.04007 1.9638
v 0.14391 0.16852 1.9638
v -0.14391 0.16852 1.9638
v -0.40322 0.04007 1.9638
v -0.58267 -0.19138 1.9638
v -0.64672 -0.48 1.9638
v -0.58267 -0.76862 1.9638
v -0.40322 -1.00007 1.9638
v -0.14391 -1.12852 1.9638
v 0.14391 -1.12852 1.9638
v 0.40322 -1.00007 1.9638
v 0.58267 -0.76862 1.9638
v 0.49497 -0.48 2.22983
v 0.44596 -0.2591 2.22983
v 0.30861 -0.08196 2.22983
v 0.11014 0.01635 2.22983
v -0.11014 0.01635 2.22983
v -0.30861 -0.08196 2.22983
v -0.44596 -0.2591 2.22983
v -0.49497 -0.48 2.22983
v -0.44596 -0.7009 2.22983
v -0.30861 -0.87804 2.22983
v -0.11014 -0.97635 2.22983
v 0.11014 -0.97635 2.22983
v 0.30861 -0.87804 2.22983
v 0.44596 -0.7009 2.22983
v 0.26788 -0.48 2.40758
v 0.24135 -0.36045 2.40758
v 0.16702 -0.26458 2.40758
v 0.05961 -0.21138 2.40758
v -0.05961 -0.21138 2.40758
v -0.16702 -0.26458 2.40758
v -0.24135 -0.36045 2.40758
v -0.26788 -0.48 2.40758
v -0.24135 -0.59955 2.40758
v -0.16702 -0.69542 2.40758
v -0.05961 -0.74862 2.40758
v 0.05961 -0.74862 2.40758
v 0.16702 -0.69542 2.40758
v 0.24135 -0.59955 2.40758
v 0 -0.48 2.47
v 0 -0.48 2.47
v 0 -0.48 2.47
v 0 -0.48 2.47
v 0 -0.48 2.47
v 0 -0.48 2.47
v 0 -0.48 2.47
v 0 -0.48 2.47
v 0 -0.48 2.47
v 0 -0.48 2.47
v 0 -0.48 2.47
v 0 -0.48 2.47
v 0 -0.48 2.47
v 0 -0.48 2.47
v 0 -1.12 1.8
v 0 -1.12 1.8
v 0 -1.12 1.8
v 0 -1.12 1.8
v 0 -1.12 1.8
v 0 -1.12 1.8
v 0 -1.12 1.8
v 0 -1.12 1.8
v 0 -1.12 1.8
v 0 -1.12 1.8
v 0 -1.12 1.8
v 0 -1.12 1.8
v 0 -1.12 1.8
v 0 -1.12 1.8
v 0.19134 -1.12 1.83806
v 0.17239 -1.03366 1.83806
v 0.1193 -0.96442 1.83806
v 0.04258 -0.92599 1.83806
v -0.04258 -0.92599 1.83806
v -0.1193 -0.96442 1.83806
v -0.17239 -1.03366 1.83806
v -0.19134 -1.12 1.83806
v -0.17239 -1.20634 1.83806
v -0.1193 -1.27558 1.83806
v -0.04258 -1.31401 1.83806
v 0.04258 -1.31401 1.83806
v 0.1193 -1.27558 1.83806
v 0.17239 -1.20634 1.83806
v 0.35355 -1.12 1.94645
v 0.31854 -0.96046 1.94645
v 0.22044 -0.83252 1.94645
v 0.07867 -0.76152 1.94645
v -0.07867 -0.76152 1.94645
v -0.22044 -0.83252 1.94645
v -0.31854 -0.96046 1.94645
v -0.35355 -1.12 1.94645
v -0.31854 -1.27954 1.94645
v -0.22044 -1.40748 1.94645
v -0.07867 -1.47848 1.94645
v 0.07867 -1.47848 1.94645
v 0.22044 -1.40748 1.94645
v 0.31854 -1.27954 1.94645
v 0.46194 -1.12 2.10866
v 0.41619 -0.91155 2.10866
v 0.28801 -0.74439 2.10866
v 0.10279 -0.65163 2.10866
v -0.10279 -0.65163 2.10866
v -0.28801 -0.74439 2.10866
v -0.41619 -0.91155 2.10866
v -0.46194 -1.12 2.10866
v -0.41619 -1.32845 2.10866
v -0.28801 -1.49561 2.10866
v -0.10279 -1.58837 2.10866
v 0.10279 -1.58837 2.10866
v 0.28801 -1.49561 2.10866
v 0.41619 -1.32845 2.10866
v 0.5 -1.12 2.3
v 0.45048 -0.89438 2.3
v 0.31174 -0.71345 2.3
v 0.11126 -0.61304 2.3
v -0.11126 -0.61304 2.3
v -0.31174 -0.71345 2.3
v -0.45048 -0.89438 2.3
v -0.5 -1.12 2.3
v -0.45048 -1.34562 2.3
v -0.31174 -1.52655 2.3
v -0.11126 -1.62696 2.3
v 0.11126 -1.62696 2.3
v 0.31174 -1.52655 2.3
v 0.45048 -1.34562 2.3
v 0.46194 -1.12 2.49134
v 0.41619 -0.91155 2.49134
v 0.28801 -0.74439 2.49134
v 0.10279 -0.65163 2.49134
v -0.10279 -0.65163 2.49134
v -0.28801 -0.74439 2.49134
v -0.41619 -0.91155 2.49134
v -0.46194 -1.12 2.49134
v -0.41619 -1.32845 2.49134
v -0.28801 -1.49561 2.49134
v -0.10279 -1.58837 2.49134
v 0.10279 -1.58837 2.49134
v 0.28801 -1.49561 2.49134
v 0.41619 -1.32845 2.49134
v 0.35355 -1.12 2.65355
v 0.31854 -0.96046 2.65355
v 0.22044 -0.83252 2.65355
v 0.07867 -0.76152 2.65355
v -0.07867 -0.76152 2.65355
v -0.22044 -0.83252 2.65355
v -0.31854 -0.96046 2.65355
v -0.35355 -1.12 2.65355
v -0.31854 -1.27954 2.65355
v -0.22044 -1.40748 2.65355
v -0.07867 -1.47848 2.65355
v 0.07867 -1.47848 2.65355
v 0.22044 -1.40748 2.65355
v 0.31854 -1.27954 2.65355
v 0.19134 -1.12 2.76194
v 0.17239 -1.03366 2.76194
v 0.1193 -0.96442 2.76194
v 0.04258 -0.92599 2.76194
v -0.04258 -0.92599 2.76194
v -0.1193 -0.96442 2.76194
v -0.17239 -1.03366 2.76194
v -0.19134 -1.12 2.76194
v -0.17239 -1.20634 2.76194
v -0.1193 -1.27558 2.76194
v -0.04258 -1.31401 2.76194
v 0.04258 -1.31401 2.76194
v 0.1193 -1.27558 2.76194
v 0.17239 -1.20634 2.76194
v 0 -1.12 2.8
v 0 -1.12 2.8
v 0 -1.12 2.8
v 0 -1.12 2.8
v 0 -1.12 2.8
v 0 -1.12 2.8
v 0 -1.12 2.8
v 0 -1.12 2.8
v 0 -1.12 2.8
v 0 -1.12 2.8
v 0 -1.12 2.8
v 0 -1.12 2.8
v 0 -1.12 2.8
v 0 -1.12 2.8
v -0.2 -1.48 2.3
v -0.1618 -1.46277 2.18371
v -0.0618 -1.45212 2.11184
v 0.0618 -1.45212 2.11184
v 0.1618 -1.46277 2.18371
v 0.2 -1.48 2.3
v 0.1618 -1.49723 2.41629
v 0.0618 -1.50788 2.48816
v -0.0618 -1.50788 2.48816
v -0.1618 -1.49723 2.41629
v -0.02 -2.02 2.22
v -0.01618 -2.01828 2.20837
v -0.00618 -2.01721 2.20118
v 0.00618 -2.01721 2.20118
v 0.01618 -2.01828 2.20837
v 0.02 -2.02 2.22
v 0.01618 -2.02172 2.23163
v 0.00618 -2.02279 2.23882
v -0.00618 -2.02279 2.23882
v -0.01618 -2.02172 2.23163
v 0 -1.48 2.3
v 0 -2.02 2.22
v -0.42 -0.2 1.89
v -1.15 0.1 1.59
v -1.65 0.65 1.04
v -0.72 0.55 1.16
v -0.42 -0.2 2.01
v -1.15 0.1 1.71
v -1.65 0.65 1.16
v -0.72 0.55 1.28
v 0.42 -0.2 1.89
v 1.15 0.1 1.59
v 1.65 0.65 1.04
v 0.72 0.55 1.16
v 0.42 -0.2 2.01
v 1.15 0.1 1.71
v 1.65 0.65 1.16
v 0.72 0.55 1.28
v -0.48 0.75 1.29
v 0 2.15 0.86
v 0.48 0.75 1.29
v 0.22 0.65 1.49
v -0.22 0.65 1.49
v -0.48 0.75 1.41
v 0 2.15 0.98
v 0.48 0.75 1.41
v 0.22 0.65 1.61
v -0.22 0.65 1.61
v -0.15 0.1 0.88
v -0.1705 0.05055 0.87785
v -0.22 0.03007 0.87696
v -0.2695 0.05055 0.87785
v -0.29 0.1 0.88
v -0.2695 0.14945 0.88215
v -0.22 0.16993 0.88304
v -0.1705 0.14945 0.88215
v -0.17 0.12 0.42
v -0.18464 0.08468 0.41846
v -0.22 0.07005 0.41783
v -0.25536 0.08468 0.41846
v -0.27 0.12 0.42
v -0.25536 0.15532 0.42154
v -0.22 0.16995 0.42217
v -0.18464 0.15532 0.42154
v -0.22 0.1 0.88
v -0.22 0.12 0.42
v -0.24689 0.14241 0.42
v -0.22248 0.15111 0.40416
v -0.19621 0.13639 0.40025
v -0.18785 0.10932 0.41121
v -0.2037 0.0903 0.42879
v -0.23183 0.09364 0.43975
v -0.25105 0.11683 0.43584
v -0.32768 0.0064 0.2
v -0.32071 0.00889 0.19547
v -0.3132 0.00468 0.19436
v -0.31081 -0.00305 0.19749
v -0.31534 -0.00849 0.20251
v -0.32338 -0.00753 0.20564
v -0.32887 -0.00091 0.20453
v -0.22 0.12 0.42
v -0.32 0 0.2
v -0.255 0.12 0.42
v -0.24182 0.14402 0.4069
v -0.21221 0.14996 0.40366
v -0.18847 0.13333 0.41273
v -0.18847 0.10667 0.42727
v -0.21221 0.09004 0.43634
v -0.24182 0.09598 0.4331
v -0.23 0 0.2
v -0.22623 0.00686 0.19626
v -0.21777 0.00856 0.19533
v -0.21099 0.00381 0.19792
v -0.21099 -0.00381 0.20208
v -0.21777 -0.00856 0.20467
v -0.22623 -0.00686 0.20374
v -0.22 0.12 0.42
v -0.22 0 0.2
v -0.24689 0.09759 0.42
v -0.25105 0.12317 0.40416
v -0.23183 0.14636 0.40025
v -0.2037 0.1497 0.41121
v -0.18785 0.13068 0.42879
v -0.19621 0.10361 0.43975
v -0.22248 0.08889 0.43584
v -0.12768 -0.0064 0.2
v -0.12887 0.00091 0.19547
v -0.12338 0.00753 0.19436
v -0.11534 0.00849 0.19749
v -0.11081 0.00305 0.20251
v -0.1132 -0.00468 0.20564
v -0.12071 -0.00889 0.20453
v -0.22 0.12 0.42
v -0.12 0 0.2
v 0.29 0.1 0.88
v 0.2695 0.05055 0.87785
v 0.22 0.03007 0.87696
v 0.1705 0.05055 0.87785
v 0.15 0.1 0.88
v 0.1705 0.14945 0.88215
v 0.22 0.16993 0.88304
v 0.2695 0.14945 0.88215
v 0.27 0.12 0.42
v 0.25536 0.08468 0.41846
v 0.22 0.07005 0.41783
v 0.18464 0.08468 0.41846
v 0.17 0.12 0.42
v 0.18464 0.15532 0.42154
v 0.22 0.16995 0.42217
v 0.25536 0.15532 0.42154
v 0.22 0.1 0.88
v 0.22 0.12 0.42
v 0.19311 0.14241 0.42
v 0.21752 0.15111 0.40416
v 0.24379 0.13639 0.40025
v 0.25215 0.10932 0.41121
v 0.2363 0.0903 0.42879
v 0.20817 0.09364 0.43975
v 0.18895 0.11683 0.43584
v 0.11232 0.0064 0.2
v 0.11929 0.00889 0.19547
v 0.1268 0.00468 0.19436
v 0.12919 -0.00305 0.19749
v 0.12466 -0.00849 0.20251
v 0.11662 -0.00753 0.20564
v 0.11113 -0.00091 0.20453
v 0.22 0.12 0.42
v 0.12 0 0.2
v 0.185 0.12 0.42
v 0.19818 0.14402 0.4069
v 0.22779 0.14996 0.40366
v 0.25153 0.13333 0.41273
v 0.25153 0.10667 0.42727
v 0.22779 0.09004 0.43634
v 0.19818 0.09598 0.4331
v 0.21 0 0.2
v 0.21377 0.00686 0.19626
v 0.22223 0.00856 0.19533
v 0.22901 0.00381 0.19792
v 0.22901 -0.00381 0.20208
v 0.22223 -0.00856 0.20467
v 0.21377 -0.00686 0.20374
v 0.22 0.12 0.42
v 0.22 0 0.2
v 0.19311 0.09759 0.42
v 0.18895 0.12317 0.40416
v 0.20817 0.14636 0.40025
v 0.2363 0.1497 0.41121
v 0.25215 0.13068 0.42879
v 0.24379 0.10361 0.43975
v 0.21752 0.08889 0.43584
v 0.31232 -0.0064 0.2
v 0.31113 0.00091 0.19547
v 0.31662 0.00753 0.19436
v 0.32466 0.00849 0.19749
v 0.32919 0.00305 0.20251
v 0.3268 -0.00468 0.20564
v 0.31929 -0.00889 0.20453
v 0.22 0.12 0.42
v 0.32 0 0.2
v -0.19 -1.48 2.31
v -0.19 -1.48 2.31
v -0.19 -1.48 2.31
v -0.19 -1.48 2.31
v -0.19 -1.48 2.31
v -0.19 -1.48 2.31
v -0.19 -1.48 2.31
v -0.19 -1.48 2.31
v -0.19 -1.48 2.31
v -0.19 -1.48 2.31
v -0.145 -1.48 2.32206
v -0.15359 -1.46531 2.32206
v -0.17609 -1.45622 2.32206
v -0.20391 -1.45622 2.32206
v -0.22641 -1.46531 2.32206
v -0.235 -1.48 2.32206
v -0.22641 -1.49469 2.32206
v -0.20391 -1.50378 2.32206
v -0.17609 -1.50378 2.32206
v -0.15359 -1.49469 2.32206
v -0.11206 -1.48 2.355
v -0.12694 -1.45455 2.355
v -0.16591 -1.43882 2.355
v -0.21409 -1.43882 2.355
v -0.25306 -1.45455 2.355
v -0.26794 -1.48 2.355
v -0.25306 -1.50545 2.355
v -0.21409 -1.52118 2.355
v -0.16591 -1.52118 2.355
v -0.12694 -1.50545 2.355
v -0.1 -1.48 2.4
v -0.11719 -1.45061 2.4
v -0.16219 -1.43245 2.4
v -0.21781 -1.43245 2.4
v -0.26281 -1.45061 2.4
v -0.28 -1.48 2.4
v -0.26281 -1.50939 2.4
v -0.21781 -1.52755 2.4
v -0.16219 -1.52755 2.4
v -0.11719 -1.50939 2.4
v -0.11206 -1.48 2.445
v -0.12694 -1.45455 2.445
v -0.16591 -1.43882 2.445
v -0.21409 -1.43882 2.445
v -0.25306 -1.45455 2.445
v -0.26794 -1.48 2.445
v -0.25306 -1.50545 2.445
v -0.21409 -1.52118 2.445
v -0.16591 -1.52118 2.445
v -0.12694 -1.50545 2.445
v -0.145 -1.48 2.47794
v -0.15359 -1.46531 2.47794
v -0.17609 -1.45622 2.47794
v -0.20391 -1.45622 2.47794
v -0.22641 -1.46531 2.47794
v -0.235 -1.48 2.47794
v -0.22641 -1.49469 2.47794
v -0.20391 -1.50378 2.47794
v -0.17609 -1.50378 2.47794
v -0.15359 -1.49469 2.47794
v -0.19 -1.48 2.49
v -0.19 -1.48 2.49
v -0.19 -1.48 2.49
v -0.19 -1.48 2.49
v -0.19 -1.48 2.49
v -0.19 -1.48 2.49
v -0.19 -1.48 2.49
v -0.19 -1.48 2.49
v -0.19 -1.48 2.49
v -0.19 -1.48 2.49
v 0.19 -1.48 2.31
v 0.19 -1.48 2.31
v 0.19 -1.48 2.31
v 0.19 -1.48 2.31
v 0.19 -1.48 2.31
v 0.19 -1.48 2.31
v 0.19 -1.48 2.31
v 0.19 -1.48 2.31
v 0.19 -1.48 2.31
v 0.19 -1.48 2.31
v 0.235 -1.48 2.32206
v 0.22641 -1.46531 2.32206
v 0.20391 -1.45622 2.32206
v 0.17609 -1.45622 2.32206
v 0.15359 -1.46531 2.32206
v 0.145 -1.48 2.32206
v 0.15359 -1.49469 2.32206
v 0.17609 -1.50378 2.32206
v 0.20391 -1.50378 2.32206
v 0.22641 -1.49469 2.32206
v 0.26794 -1.48 2.355
v 0.25306 -1.45455 2.355
v 0.21409 -1.43882 2.355
v 0.16591 -1.43882 2.355
v 0.12694 -1.45455 2.355
v 0.11206 -1.48 2.355
v 0.12694 -1.50545 2.355
v 0.16591 -1.52118 2.355
v 0.21409 -1.52118 2.355
v 0.25306 -1.50545 2.355
v 0.28 -1.48 2.4
v 0.26281 -1.45061 2.4
v 0.21781 -1.43245 2.4
v 0.16219 -1.43245 2.4
v 0.11719 -1.45061 2.4
v 0.1 -1.48 2.4
v 0.11719 -1.50939 2.4
v 0.16219 -1.52755 2.4
v 0.21781 -1.52755 2.4
v 0.26281 -1.50939 2.4
v 0.26794 -1.48 2.445
v 0.25306 -1.45455 2.445
v 0.21409 -1.43882 2.445
v 0.16591 -1.43882 2.445
v 0.12694 -1.45455 2.445
v 0.11206 -1.48 2.445
v 0.12694 -1.50545 2.445
v 0.16591 -1.52118 2.445
v 0.21409 -1.52118 2.445
v 0.25306 -1.50545 2.445
v 0.235 -1.48 2.47794
v 0.22641 -1.46531 2.47794
v 0.20391 -1.45622 2.47794
v 0.17609 -1.45622 2.47794
v 0.15359 -1.46531 2.47794
v 0.145 -1.48 2.47794
v 0.15359 -1.49469 2.47794
v 0.17609 -1.50378 2.47794
v 0.20391 -1.50378 2.47794
v 0.22641 -1.49469 2.47794
v 0.19 -1.48 2.49
v 0.19 -1.48 2.49
v 0.19 -1.48 2.49
v 0.19 -1.48 2.49
v 0.19 -1.48 2.49
v 0.19 -1.48 2.49
v 0.19 -1.48 2.49
v 0.19 -1.48 2.49
v 0.19 -1.48 2.49
v 0.19 -1.48 2.49
g Body
usemtl BIRD_SKY
f 1 2 18 17
f 2 3 19 18
f 3 4 20 19
f 4 5 21 20
f 5 6 22 21
f 6 7 23 22
f 7 8 24 23
f 8 9 25 24
f 9 10 26 25
f 10 11 27 26
f 11 12 28 27
f 12 13 29 28
f 13 14 30 29
f 14 15 31 30
f 15 16 32 31
f 16 1 17 32
f 17 18 34 33
f 18 19 35 34
f 19 20 36 35
f 20 21 37 36
f 21 22 38 37
f 22 23 39 38
f 23 24 40 39
f 24 25 41 40
f 25 26 42 41
f 26 27 43 42
f 27 28 44 43
f 28 29 45 44
f 29 30 46 45
f 30 31 47 46
f 31 32 48 47
f 32 17 33 48
f 33 34 50 49
f 34 35 51 50
f 35 36 52 51
f 36 37 53 52
f 37 38 54 53
f 38 39 55 54
f 39 40 56 55
f 40 41 57 56
f 41 42 58 57
f 42 43 59 58
f 43 44 60 59
f 44 45 61 60
f 45 46 62 61
f 46 47 63 62
f 47 48 64 63
f 48 33 49 64
f 49 50 66 65
f 50 51 67 66
f 51 52 68 67
f 52 53 69 68
f 53 54 70 69
f 54 55 71 70
f 55 56 72 71
f 56 57 73 72
f 57 58 74 73
f 58 59 75 74
f 59 60 76 75
f 60 61 77 76
f 61 62 78 77
f 62 63 79 78
f 63 64 80 79
f 64 49 65 80
f 65 66 82 81
f 66 67 83 82
f 67 68 84 83
f 68 69 85 84
f 69 70 86 85
f 70 71 87 86
f 71 72 88 87
f 72 73 89 88
f 73 74 90 89
f 74 75 91 90
f 75 76 92 91
f 76 77 93 92
f 77 78 94 93
f 78 79 95 94
f 79 80 96 95
f 80 65 81 96
f 81 82 98 97
f 82 83 99 98
f 83 84 100 99
f 84 85 101 100
f 85 86 102 101
f 86 87 103 102
f 87 88 104 103
f 88 89 105 104
f 89 90 106 105
f 90 91 107 106
f 91 92 108 107
f 92 93 109 108
f 93 94 110 109
f 94 95 111 110
f 95 96 112 111
f 96 81 97 112
f 97 98 114 113
f 98 99 115 114
f 99 100 116 115
f 100 101 117 116
f 101 102 118 117
f 102 103 119 118
f 103 104 120 119
f 104 105 121 120
f 105 106 122 121
f 106 107 123 122
f 107 108 124 123
f 108 109 125 124
f 109 110 126 125
f 110 111 127 126
f 111 112 128 127
f 112 97 113 128
f 113 114 130 129
f 114 115 131 130
f 115 116 132 131
f 116 117 133 132
f 117 118 134 133
f 118 119 135 134
f 119 120 136 135
f 120 121 137 136
f 121 122 138 137
f 122 123 139 138
f 123 124 140 139
f 124 125 141 140
f 125 126 142 141
f 126 127 143 142
f 127 128 144 143
f 128 113 129 144
f 129 130 146 145
f 130 131 147 146
f 131 132 148 147
f 132 133 149 148
f 133 134 150 149
f 134 135 151 150
f 135 136 152 151
f 136 137 153 152
f 137 138 154 153
f 138 139 155 154
f 139 140 156 155
f 140 141 157 156
f 141 142 158 157
f 142 143 159 158
f 143 144 160 159
f 144 129 145 160
g Chest
usemtl BIRD_LIGHT
f 161 162 176 175
f 162 163 177 176
f 163 164 178 177
f 164 165 179 178
f 165 166 180 179
f 166 167 181 180
f 167 168 182 181
f 168 169 183 182
f 169 170 184 183
f 170 171 185 184
f 171 172 186 185
f 172 173 187 186
f 173 174 188 187
f 174 161 175 188
f 175 176 190 189
f 176 177 191 190
f 177 178 192 191
f 178 179 193 192
f 179 180 194 193
f 180 181 195 194
f 181 182 196 195
f 182 183 197 196
f 183 184 198 197
f 184 185 199 198
f 185 186 200 199
f 186 187 201 200
f 187 188 202 201
f 188 175 189 202
f 189 190 204 203
f 190 191 205 204
f 191 192 206 205
f 192 193 207 206
f 193 194 208 207
f 194 195 209 208
f 195 196 210 209
f 196 197 211 210
f 197 198 212 211
f 198 199 213 212
f 199 200 214 213
f 200 201 215 214
f 201 202 216 215
f 202 189 203 216
f 203 204 218 217
f 204 205 219 218
f 205 206 220 219
f 206 207 221 220
f 207 208 222 221
f 208 209 223 222
f 209 210 224 223
f 210 211 225 224
f 211 212 226 225
f 212 213 227 226
f 213 214 228 227
f 214 215 229 228
f 215 216 230 229
f 216 203 217 230
f 217 218 232 231
f 218 219 233 232
f 219 220 234 233
f 220 221 235 234
f 221 222 236 235
f 222 223 237 236
f 223 224 238 237
f 224 225 239 238
f 225 226 240 239
f 226 227 241 240
f 227 228 242 241
f 228 229 243 242
f 229 230 244 243
f 230 217 231 244
f 231 232 246 245
f 232 233 247 246
f 233 234 248 247
f 234 235 249 248
f 235 236 250 249
f 236 237 251 250
f 237 238 252 251
f 238 239 253 252
f 239 240 254 253
f 240 241 255 254
f 241 242 256 255
f 242 243 257 256
f 243 244 258 257
f 244 231 245 258
f 245 246 260 259
f 246 247 261 260
f 247 248 262 261
f 248 249 263 262
f 249 250 264 263
f 250 251 265 264
f 251 252 266 265
f 252 253 267 266
f 253 254 268 267
f 254 255 269 268
f 255 256 270 269
f 256 257 271 270
f 257 258 272 271
f 258 245 259 272
f 259 260 274 273
f 260 261 275 274
f 261 262 276 275
f 262 263 277 276
f 263 264 278 277
f 264 265 279 278
f 265 266 280 279
f 266 267 281 280
f 267 268 282 281
f 268 269 283 282
f 269 270 284 283
f 270 271 285 284
f 271 272 286 285
f 272 259 273 286
g Head
usemtl BIRD_SKY
f 287 288 302 301
f 288 289 303 302
f 289 290 304 303
f 290 291 305 304
f 291 292 306 305
f 292 293 307 306
f 293 294 308 307
f 294 295 309 308
f 295 296 310 309
f 296 297 311 310
f 297 298 312 311
f 298 299 313 312
f 299 300 314 313
f 300 287 301 314
f 301 302 316 315
f 302 303 317 316
f 303 304 318 317
f 304 305 319 318
f 305 306 320 319
f 306 307 321 320
f 307 308 322 321
f 308 309 323 322
f 309 310 324 323
f 310 311 325 324
f 311 312 326 325
f 312 313 327 326
f 313 314 328 327
f 314 301 315 328
f 315 316 330 329
f 316 317 331 330
f 317 318 332 331
f 318 319 333 332
f 319 320 334 333
f 320 321 335 334
f 321 322 336 335
f 322 323 337 336
f 323 324 338 337
f 324 325 339 338
f 325 326 340 339
f 326 327 341 340
f 327 328 342 341
f 328 315 329 342
f 329 330 344 343
f 330 331 345 344
f 331 332 346 345
f 332 333 347 346
f 333 334 348 347
f 334 335 349 348
f 335 336 350 349
f 336 337 351 350
f 337 338 352 351
f 338 339 353 352
f 339 340 354 353
f 340 341 355 354
f 341 342 356 355
f 342 329 343 356
f 343 344 358 357
f 344 345 359 358
f 345 346 360 359
f 346 347 361 360
f 347 348 362 361
f 348 349 363 362
f 349 350 364 363
f 350 351 365 364
f 351 352 366 365
f 352 353 367 366
f 353 354 368 367
f 354 355 369 368
f 355 356 370 369
f 356 343 357 370
f 357 358 372 371
f 358 359 373 372
f 359 360 374 373
f 360 361 375 374
f 361 362 376 375
f 362 363 377 376
f 363 364 378 377
f 364 365 379 378
f 365 366 380 379
f 366 367 381 380
f 367 368 382 381
f 368 369 383 382
f 369 370 384 383
f 370 357 371 384
f 371 372 386 385
f 372 373 387 386
f 373 374 388 387
f 374 375 389 388
f 375 376 390 389
f 376 377 391 390
f 377 378 392 391
f 378 379 393 392
f 379 380 394 393
f 380 381 395 394
f 381 382 396 395
f 382 383 397 396
f 383 384 398 397
f 384 371 385 398
f 385 386 400 399
f 386 387 401 400
f 387 388 402 401
f 388 389 403 402
f 389 390 404 403
f 390 391 405 404
f 391 392 406 405
f 392 393 407 406
f 393 394 408 407
f 394 395 409 408
f 395 396 410 409
f 396 397 411 410
f 397 398 412 411
f 398 385 399 412
g Beak
usemtl BEAK_GOLD
f 413 414 424 423
f 414 415 425 424
f 415 416 426 425
f 416 417 427 426
f 417 418 428 427
f 418 419 429 428
f 419 420 430 429
f 420 421 431 430
f 421 422 432 431
f 422 413 423 432
f 433 414 413
f 434 423 424
f 433 415 414
f 434 424 425
f 433 416 415
f 434 425 426
f 433 417 416
f 434 426 427
f 433 418 417
f 434 427 428
f 433 419 418
f 434 428 429
f 433 420 419
f 434 429 430
f 433 421 420
f 434 430 431
f 433 422 421
f 434 431 432
f 433 413 422
f 434 432 423
g WingL
usemtl BIRD_DARK
f 435 436 440 439
f 436 437 441 440
f 437 438 442 441
f 438 435 439 442
f 438 437 436 435
f 439 440 441 442
g WingR
f 443 444 448 447
f 444 445 449 448
f 445 446 450 449
f 446 443 447 450
f 446 445 444 443
f 447 448 449 450
g Tail
f 451 452 457 456
f 452 453 458 457
f 453 454 459 458
f 454 455 460 459
f 455 451 456 460
f 455 454 453 452 451
f 456 457 458 459 460
g Leg-0.22
usemtl BEAK_GOLD
f 461 462 470 469
f 462 463 471 470
f 463 464 472 471
f 464 465 473 472
f 465 466 474 473
f 466 467 475 474
f 467 468 476 475
f 468 461 469 476
f 477 462 461
f 478 469 470
f 477 463 462
f 478 470 471
f 477 464 463
f 478 471 472
f 477 465 464
f 478 472 473
f 477 466 465
f 478 473 474
f 477 467 466
f 478 474 475
f 477 468 467
f 478 475 476
f 477 461 468
f 478 476 469
g Toe-0.22_-0.1
f 479 480 487 486
f 480 481 488 487
f 481 482 489 488
f 482 483 490 489
f 483 484 491 490
f 484 485 492 491
f 485 479 486 492
f 493 480 479
f 494 486 487
f 493 481 480
f 494 487 488
f 493 482 481
f 494 488 489
f 493 483 482
f 494 489 490
f 493 484 483
f 494 490 491
f 493 485 484
f 494 491 492
f 493 479 485
f 494 492 486
g Toe-0.22_0
f 495 496 503 502
f 496 497 504 503
f 497 498 505 504
f 498 499 506 505
f 499 500 507 506
f 500 501 508 507
f 501 495 502 508
f 509 496 495
f 510 502 503
f 509 497 496
f 510 503 504
f 509 498 497
f 510 504 505
f 509 499 498
f 510 505 506
f 509 500 499
f 510 506 507
f 509 501 500
f 510 507 508
f 509 495 501
f 510 508 502
g Toe-0.22_0.1
f 511 512 519 518
f 512 513 520 519
f 513 514 521 520
f 514 515 522 521
f 515 516 523 522
f 516 517 524 523
f 517 511 518 524
f 525 512 511
f 526 518 519
f 525 513 512
f 526 519 520
f 525 514 513
f 526 520 521
f 525 515 514
f 526 521 522
f 525 516 515
f 526 522 523
f 525 517 516
f 526 523 524
f 525 511 517
f 526 524 518
g Leg0.22
f 527 528 536 535
f 528 529 537 536
f 529 530 538 537
f 530 531 539 538
f 531 532 540 539
f 532 533 541 540
f 533 534 542 541
f 534 527 535 542
f 543 528 527
f 544 535 536
f 543 529 528
f 544 536 537
f 543 530 529
f 544 537 538
f 543 531 530
f 544 538 539
f 543 532 531
f 544 539 540
f 543 533 532
f 544 540 541
f 543 534 533
f 544 541 542
f 543 527 534
f 544 542 535
g Toe0.22_-0.1
f 545 546 553 552
f 546 547 554 553
f 547 548 555 554
f 548 549 556 555
f 549 550 557 556
f 550 551 558 557
f 551 545 552 558
f 559 546 545
f 560 552 553
f 559 547 546
f 560 553 554
f 559 548 547
f 560 554 555
f 559 549 548
f 560 555 556
f 559 550 549
f 560 556 557
f 559 551 550
f 560 557 558
f 559 545 551
f 560 558 552
g Toe0.22_0
f 561 562 569 568
f 562 563 570 569
f 563 564 571 570
f 564 565 572 571
f 565 566 573 572
f 566 567 574 573
f 567 561 568 574
f 575 562 561
f 576 568 569
f 575 563 562
f 576 569 570
f 575 564 563
f 576 570 571
f 575 565 564
f 576 571 572
f 575 566 565
f 576 572 573
f 575 567 566
f 576 573 574
f 575 561 567
f 576 574 568
g Toe0.22_0.1
f 577 578 585 584
f 578 579 586 585
f 579 580 587 586
f 580 581 588 587
f 581 582 589 588
f 582 583 590 589
f 583 577 584 590
f 591 578 577
f 592 584 585
f 591 579 578
f 592 585 586
f 591 580 579
f 592 586 587
f 591 581 580
f 592 587 588
f 591 582 581
f 592 588 589
f 591 583 582
f 592 589 590
f 591 577 583
f 592 590 584
g EyeL
usemtl EYE_DARK
f 593 594 604 603
f 594 595 605 604
f 595 596 606 605
f 596 597 607 606
f 597 598 608 607
f 598 599 609 608
f 599 600 610 609
f 600 601 611 610
f 601 602 612 611
f 602 593 603 612
f 603 604 614 613
f 604 605 615 614
f 605 606 616 615
f 606 607 617 616
f 607 608 618 617
f 608 609 619 618
f 609 610 620 619
f 610 611 621 620
f 611 612 622 621
f 612 603 613 622
f 613 614 624 623
f 614 615 625 624
f 615 616 626 625
f 616 617 627 626
f 617 618 628 627
f 618 619 629 628
f 619 620 630 629
f 620 621 631 630
f 621 622 632 631
f 622 613 623 632
f 623 624 634 633
f 624 625 635 634
f 625 626 636 635
f 626 627 637 636
f 627 628 638 637
f 628 629 639 638
f 629 630 640 639
f 630 631 641 640
f 631 632 642 641
f 632 623 633 642
f 633 634 644 643
f 634 635 645 644
f 635 636 646 645
f 636 637 647 646
f 637 638 648 647
f 638 639 649 648
f 639 640 650 649
f 640 641 651 650
f 641 642 652 651
f 642 633 643 652
f 643 644 654 653
f 644 645 655 654
f 645 646 656 655
f 646 647 657 656
f 647 648 658 657
f 648 649 659 658
f 649 650 660 659
f 650 651 661 660
f 651 652 662 661
f 652 643 653 662
g EyeR
f 663 664 674 673
f 664 665 675 674
f 665 666 676 675
f 666 667 677 676
f 667 668 678 677
f 668 669 679 678
f 669 670 680 679
f 670 671 681 680
f 671 672 682 681
f 672 663 673 682
f 673 674 684 683
f 674 675 685 684
f 675 676 686 685
f 676 677 687 686
f 677 678 688 687
f 678 679 689 688
f 679 680 690 689
f 680 681 691 690
f 681 682 692 691
f 682 673 683 692
f 683 684 694 693
f 684 685 695 694
f 685 686 696 695
f 686 687 697 696
f 687 688 698 697
f 688 689 699 698
f 689 690 700 699
f 690 691 701 700
f 691 692 702 701
f 692 683 693 702
f 693 694 704 703
f 694 695 705 704
f 695 696 706 705
f 696 697 707 706
f 697 698 708 707
f 698 699 709 708
f 699 700 710 709
f 700 701 711 710
f 701 702 712 711
f 702 693 703 712
f 703 704 714 713
f 704 705 715 714
f 705 706 716 715
f 706 707 717 716
f 707 708 718 717
f 708 709 719 718
f 709 710 720 719
f 710 711 721 720
f 711 712 722 721
f 712 703 713 722
f 713 714 724 723
f 714 715 725 724
f 715 716 726 725
f 716 717 727 726
f 717 718 728 727
f 718 719 729 728
f 719 720 730 729
f 720 721 731 730
f 721 722 732 731
f 722 713 723 732
