# flamefox - project-original Roblox source asset
mtllib monster-adventure.mtl
o flamefox
v 0 0 0.6
v 0 0 0.6
v 0 0 0.6
v 0 0 0.6
v 0 0 0.6
v 0 0 0.6
v 0 0 0.6
v 0 0 0.6
v 0 0 0.6
v 0 0 0.6
v 0 0 0.6
v 0 0 0.6
v 0 0 0.6
v 0 0 0.6
v 0 0 0.6
v 0 0 0.6
v 0.33992 0 0.6416
v 0.31404 0.19512 0.6416
v 0.24036 0.36054 0.6416
v 0.13008 0.47107 0.6416
v 0 0.50988 0.6416
v -0.13008 0.47107 0.6416
v -0.24036 0.36054 0.6416
v -0.31404 0.19512 0.6416
v -0.33992 0 0.6416
v -0.31404 -0.19512 0.6416
v -0.24036 -0.36054 0.6416
v -0.13008 -0.47107 0.6416
v 0 -0.50988 0.6416
v 0.13008 -0.47107 0.6416
v 0.24036 -0.36054 0.6416
v 0.31404 -0.19512 0.6416
v 0.64656 0 0.76234
v 0.59735 0.37114 0.76234
v 0.45719 0.68578 0.76234
v 0.24743 0.89602 0.76234
v 0 0.96985 0.76234
v -0.24743 0.89602 0.76234
v -0.45719 0.68578 0.76234
v -0.59735 0.37114 0.76234
v -0.64656 0 0.76234
v -0.59735 -0.37114 0.76234
v -0.45719 -0.68578 0.76234
v -0.24743 -0.89602 0.76234
v 0 -0.96985 0.76234
v 0.24743 -0.89602 0.76234
v 0.45719 -0.68578 0.76234
v 0.59735 -0.37114 0.76234
v 0.88992 0 0.95038
v 0.82218 0.51084 0.95038
v 0.62927 0.9439 0.95038
v 0.34056 1.23327 0.95038
v 0 1.33488 0.95038
v -0.34056 1.23327 0.95038
v -0.62927 0.9439 0.95038
v -0.82218 0.51084 0.95038
v -0.88992 0 0.95038
v -0.82218 -0.51084 0.95038
v -0.62927 -0.9439 0.95038
v -0.34056 -1.23327 0.95038
v 0 -1.33488 0.95038
v 0.34056 -1.23327 0.95038
v 0.62927 -0.9439 0.95038
v 0.82218 -0.51084 0.95038
v 1.04616 0 1.18734
v 0.96653 0.60052 1.18734
v 0.73975 1.10962 1.18734
v 0.40035 1.44979 1.18734
v 0 1.56924 1.18734
v -0.40035 1.44979 1.18734
v -0.73975 1.10962 1.18734
v -0.96653 0.60052 1.18734
v -1.04616 0 1.18734
v -0.96653 -0.60052 1.18734
v -0.73975 -1.10962 1.18734
v -0.40035 -1.44979 1.18734
v 0 -1.56924 1.18734
v 0.40035 -1.44979 1.18734
v 0.73975 -1.10962 1.18734
v 0.96653 -0.60052 1.18734
v 1.1 0 1.45
v 1.01627 0.63143 1.45
v 0.77782 1.16673 1.45
v 0.42095 1.5244 1.45
v 0 1.65 1.45
v -0.42095 1.5244 1.45
v -0.77782 1.16673 1.45
v -1.01627 0.63143 1.45
v -1.1 0 1.45
v -1.01627 -0.63143 1.45
v -0.77782 -1.16673 1.45
v -0.42095 -1.5244 1.45
v 0 -1.65 1.45
v 0.42095 -1.5244 1.45
v 0.77782 -1.16673 1.45
v 1.01627 -0.63143 1.45
v 1.04616 0 1.71266
v 0.96653 0.60052 1.71266
v 0.73975 1.10962 1.71266
v 0.40035 1.44979 1.71266
v 0 1.56924 1.71266
v -0.40035 1.44979 1.71266
v -0.73975 1.10962 1.71266
v -0.96653 0.60052 1.71266
v -1.04616 0 1.71266
v -0.96653 -0.60052 1.71266
v -0.73975 -1.10962 1.71266
v -0.40035 -1.44979 1.71266
v 0 -1.56924 1.71266
v 0.40035 -1.44979 1.71266
v 0.73975 -1.10962 1.71266
v 0.96653 -0.60052 1.71266
v 0.88992 0 1.94962
v 0.82218 0.51084 1.94962
v 0.62927 0.9439 1.94962
v 0.34056 1.23327 1.94962
v 0 1.33488 1.94962
v -0.34056 1.23327 1.94962
v -0.62927 0.9439 1.94962
v -0.82218 0.51084 1.94962
v -0.88992 0 1.94962
v -0.82218 -0.51084 1.94962
v -0.62927 -0.9439 1.94962
v -0.34056 -1.23327 1.94962
v 0 -1.33488 1.94962
v 0.34056 -1.23327 1.94962
v 0.62927 -0.9439 1.94962
v 0.82218 -0.51084 1.94962
v 0.64656 0 2.13766
v 0.59735 0.37114 2.13766
v 0.45719 0.68578 2.13766
v 0.24743 0.89602 2.13766
v 0 0.96985 2.13766
v -0.24743 0.89602 2.13766
v -0.45719 0.68578 2.13766
v -0.59735 0.37114 2.13766
v -0.64656 0 2.13766
v -0.59735 -0.37114 2.13766
v -0.45719 -0.68578 2.13766
v -0.24743 -0.89602 2.13766
v 0 -0.96985 2.13766
v 0.24743 -0.89602 2.13766
v 0.45719 -0.68578 2.13766
v 0.59735 -0.37114 2.13766
v 0.33992 0 2.2584
v 0.31404 0.19512 2.2584
v 0.24036 0.36054 2.2584
v 0.13008 0.47107 2.2584
v 0 0.50988 2.2584
v -0.13008 0.47107 2.2584
v -0.24036 0.36054 2.2584
v -0.31404 0.19512 2.2584
v -0.33992 0 2.2584
v -0.31404 -0.19512 2.2584
v -0.24036 -0.36054 2.2584
v -0.13008 -0.47107 2.2584
v 0 -0.50988 2.2584
v 0.13008 -0.47107 2.2584
v 0.24036 -0.36054 2.2584
v 0.31404 -0.19512 2.2584
v 0 0 2.3
v 0 0 2.3
v 0 0 2.3
v 0 0 2.3
v 0 0 2.3
v 0 0 2.3
v 0 0 2.3
v 0 0 2.3
v 0 0 2.3
v 0 0 2.3
v 0 0 2.3
v 0 0 2.3
v 0 0 2.3
v 0 0 2.3
v 0 0 2.3
v 0 0 2.3
v 0 -1.05 0.7
v 0 -1.05 0.7
v 0 -1.05 0.7
v 0 -1.05 0.7
v 0 -1.05 0.7
v 0 -1.05 0.7
v 0 -1.05 0.7
v 0 -1.05 0.7
v 0 -1.05 0.7
v 0 -1.05 0.7
v 0 -1.05 0.7
v 0 -1.05 0.7
v 0 -1.05 0.7
v 0 -1.05 0.7
v 0.38268 -1.05 0.77003
v 0.34479 -0.90887 0.77003
v 0.2386 -0.79569 0.77003
v 0.08516 -0.73287 0.77003
v -0.08516 -0.73287 0.77003
v -0.2386 -0.79569 0.77003
v -0.34479 -0.90887 0.77003
v -0.38268 -1.05 0.77003
v -0.34479 -1.19113 0.77003
v -0.2386 -1.30431 0.77003
v -0.08516 -1.36713 0.77003
v 0.08516 -1.36713 0.77003
v 0.2386 -1.30431 0.77003
v 0.34479 -1.19113 0.77003
v 0.70711 -1.05 0.96946
v 0.63708 -0.78922 0.96946
v 0.44087 -0.58009 0.96946
v 0.15735 -0.46403 0.96946
v -0.15735 -0.46403 0.96946
v -0.44087 -0.58009 0.96946
v -0.63708 -0.78922 0.96946
v -0.70711 -1.05 0.96946
v -0.63708 -1.31078 0.96946
v -0.44087 -1.51991 0.96946
v -0.15735 -1.63597 0.96946
v 0.15735 -1.63597 0.96946
v 0.44087 -1.51991 0.96946
v 0.63708 -1.31078 0.96946
v 0.92388 -1.05 1.26793
v 0.83239 -0.70927 1.26793
v 0.57603 -0.43603 1.26793
v 0.20558 -0.28439 1.26793
v -0.20558 -0.28439 1.26793
v -0.57603 -0.43603 1.26793
v -0.83239 -0.70927 1.26793
v -0.92388 -1.05 1.26793
v -0.83239 -1.39073 1.26793
v -0.57603 -1.66397 1.26793
v -0.20558 -1.81561 1.26793
v 0.20558 -1.81561 1.26793
v 0.57603 -1.66397 1.26793
v 0.83239 -1.39073 1.26793
v 1 -1.05 1.62
v 0.90097 -0.6812 1.62
v 0.62349 -0.38544 1.62
v 0.22252 -0.22131 1.62
v -0.22252 -0.22131 1.62
v -0.62349 -0.38544 1.62
v -0.90097 -0.6812 1.62
v -1 -1.05 1.62
v -0.90097 -1.4188 1.62
v -0.62349 -1.71456 1.62
v -0.22252 -1.87869 1.62
v 0.22252 -1.87869 1.62
v 0.62349 -1.71456 1.62
v 0.90097 -1.4188 1.62
v 0.92388 -1.05 1.97207
v 0.83239 -0.70927 1.97207
v 0.57603 -0.43603 1.97207
v 0.20558 -0.28439 1.97207
v -0.20558 -0.28439 1.97207
v -0.57603 -0.43603 1.97207
v -0.83239 -0.70927 1.97207
v -0.92388 -1.05 1.97207
v -0.83239 -1.39073 1.97207
v -0.57603 -1.66397 1.97207
v -0.20558 -1.81561 1.97207
v 0.20558 -1.81561 1.97207
v 0.57603 -1.66397 1.97207
v 0.83239 -1.39073 1.97207
v 0.70711 -1.05 2.27054
v 0.63708 -0.78922 2.27054
v 0.44087 -0.58009 2.27054
v 0.15735 -0.46403 2.27054
v -0.15735 -0.46403 2.27054
v -0.44087 -0.58009 2.27054
v -0.63708 -0.78922 2.27054
v -0.70711 -1.05 2.27054
v -0.63708 -1.31078 2.27054
v -0.44087 -1.51991 2.27054
v -0.15735 -1.63597 2.27054
v 0.15735 -1.63597 2.27054
v 0.44087 -1.51991 2.27054
v 0.63708 -1.31078 2.27054
v 0.38268 -1.05 2.46997
v 0.34479 -0.90887 2.46997
v 0.2386 -0.79569 2.46997
v 0.08516 -0.73287 2.46997
v -0.08516 -0.73287 2.46997
v -0.2386 -0.79569 2.46997
v -0.34479 -0.90887 2.46997
v -0.38268 -1.05 2.46997
v -0.34479 -1.19113 2.46997
v -0.2386 -1.30431 2.46997
v -0.08516 -1.36713 2.46997
v 0.08516 -1.36713 2.46997
v 0.2386 -1.30431 2.46997
v 0.34479 -1.19113 2.46997
v 0 -1.05 2.54
v 0 -1.05 2.54
v 0 -1.05 2.54
v 0 -1.05 2.54
v 0 -1.05 2.54
v 0 -1.05 2.54
v 0 -1.05 2.54
v 0 -1.05 2.54
v 0 -1.05 2.54
v 0 -1.05 2.54
v 0 -1.05 2.54
v 0 -1.05 2.54
v 0 -1.05 2.54
v 0 -1.05 2.54
v 0 -2.05 1.33
v 0 -2.05 1.33
v 0 -2.05 1.33
v 0 -2.05 1.33
v 0 -2.05 1.33
v 0 -2.05 1.33
v 0 -2.05 1.33
v 0 -2.05 1.33
v 0 -2.05 1.33
v 0 -2.05 1.33
v 0 -2.05 1.33
v 0 -2.05 1.33
v 0 -2.05 1.33
v 0 -2.05 1.33
v 0 -2.05 1.33
v 0 -2.05 1.33
v 0.26678 -2.05 1.37342
v 0.24647 -1.94267 1.37342
v 0.18864 -1.85169 1.37342
v 0.10209 -1.79089 1.37342
v 0 -1.76954 1.37342
v -0.10209 -1.79089 1.37342
v -0.18864 -1.85169 1.37342
v -0.24647 -1.94267 1.37342
v -0.26678 -2.05 1.37342
v -0.24647 -2.15733 1.37342
v -0.18864 -2.24831 1.37342
v -0.10209 -2.30911 1.37342
v 0 -2.33046 1.37342
v 0.10209 -2.30911 1.37342
v 0.18864 -2.24831 1.37342
v 0.24647 -2.15733 1.37342
v 0.50137 -2.05 1.49845
v 0.46321 -1.84829 1.49845
v 0.35453 -1.67729 1.49845
v 0.19187 -1.56304 1.49845
v 0 -1.52291 1.49845
v -0.19187 -1.56304 1.49845
v -0.35453 -1.67729 1.49845
v -0.46321 -1.84829 1.49845
v -0.50137 -2.05 1.49845
v -0.46321 -2.25171 1.49845
v -0.35453 -2.42271 1.49845
v -0.19187 -2.53696 1.49845
v 0 -2.57709 1.49845
v 0.19187 -2.53696 1.49845
v 0.35453 -2.42271 1.49845
v 0.46321 -2.25171 1.49845
v 0.6755 -2.05 1.69
v 0.62408 -1.77824 1.69
v 0.47765 -1.54785 1.69
v 0.2585 -1.39392 1.69
v 0 -1.33986 1.69
v -0.2585 -1.39392 1.69
v -0.47765 -1.54785 1.69
v -0.62408 -1.77824 1.69
v -0.6755 -2.05 1.69
v -0.62408 -2.32176 1.69
v -0.47765 -2.55215 1.69
v -0.2585 -2.70608 1.69
v 0 -2.76014 1.69
v 0.2585 -2.70608 1.69
v 0.47765 -2.55215 1.69
v 0.62408 -2.32176 1.69
v 0.76815 -2.05 1.92497
v 0.70968 -1.74097 1.92497
v 0.54316 -1.47898 1.92497
v 0.29396 -1.30393 1.92497
v 0 -1.24246 1.92497
v -0.29396 -1.30393 1.92497
v -0.54316 -1.47898 1.92497
v -0.70968 -1.74097 1.92497
v -0.76815 -2.05 1.92497
v -0.70968 -2.35903 1.92497
v -0.54316 -2.62102 1.92497
v -0.29396 -2.79607 1.92497
v 0 -2.85754 1.92497
v 0.29396 -2.79607 1.92497
v 0.54316 -2.62102 1.92497
v 0.70968 -2.35903 1.92497
v 0.76815 -2.05 2.17503
v 0.70968 -1.74097 2.17503
v 0.54316 -1.47898 2.17503
v 0.29396 -1.30393 2.17503
v 0 -1.24246 2.17503
v -0.29396 -1.30393 2.17503
v -0.54316 -1.47898 2.17503
v -0.70968 -1.74097 2.17503
v -0.76815 -2.05 2.17503
v -0.70968 -2.35903 2.17503
v -0.54316 -2.62102 2.17503
v -0.29396 -2.79607 2.17503
v 0 -2.85754 2.17503
v 0.29396 -2.79607 2.17503
v 0.54316 -2.62102 2.17503
v 0.70968 -2.35903 2.17503
v 0.6755 -2.05 2.41
v 0.62408 -1.77824 2.41
v 0.47765 -1.54785 2.41
v 0.2585 -1.39392 2.41
v 0 -1.33986 2.41
v -0.2585 -1.39392 2.41
v -0.47765 -1.54785 2.41
v -0.62408 -1.77824 2.41
v -0.6755 -2.05 2.41
v -0.62408 -2.32176 2.41
v -0.47765 -2.55215 2.41
v -0.2585 -2.70608 2.41
v 0 -2.76014 2.41
v 0.2585 -2.70608 2.41
v 0.47765 -2.55215 2.41
v 0.62408 -2.32176 2.41
v 0.50137 -2.05 2.60155
v 0.46321 -1.84829 2.60155
v 0.35453 -1.67729 2.60155
v 0.19187 -1.56304 2.60155
v 0 -1.52291 2.60155
v -0.19187 -1.56304 2.60155
v -0.35453 -1.67729 2.60155
v -0.46321 -1.84829 2.60155
v -0.50137 -2.05 2.60155
v -0.46321 -2.25171 2.60155
v -0.35453 -2.42271 2.60155
v -0.19187 -2.53696 2.60155
v 0 -2.57709 2.60155
v 0.19187 -2.53696 2.60155
v 0.35453 -2.42271 2.60155
v 0.46321 -2.25171 2.60155
v 0.26678 -2.05 2.72658
v 0.24647 -1.94267 2.72658
v 0.18864 -1.85169 2.72658
v 0.10209 -1.79089 2.72658
v 0 -1.76954 2.72658
v -0.10209 -1.79089 2.72658
v -0.18864 -1.85169 2.72658
v -0.24647 -1.94267 2.72658
v -0.26678 -2.05 2.72658
v -0.24647 -2.15733 2.72658
v -0.18864 -2.24831 2.72658
v -0.10209 -2.30911 2.72658
v 0 -2.33046 2.72658
v 0.10209 -2.30911 2.72658
v 0.18864 -2.24831 2.72658
v 0.24647 -2.15733 2.72658
v 0 -2.05 2.77
v 0 -2.05 2.77
v 0 -2.05 2.77
v 0 -2.05 2.77
v 0 -2.05 2.77
v 0 -2.05 2.77
v 0 -2.05 2.77
v 0 -2.05 2.77
v 0 -2.05 2.77
v 0 -2.05 2.77
v 0 -2.05 2.77
v 0 -2.05 2.77
v 0 -2.05 2.77
v 0 -2.05 2.77
v 0 -2.05 2.77
v 0 -2.05 2.77
v 0 -2.72 1.54
v 0 -2.72 1.54
v 0 -2.72 1.54
v 0 -2.72 1.54
v 0 -2.72 1.54
v 0 -2.72 1.54
v 0 -2.72 1.54
v 0 -2.72 1.54
v 0 -2.72 1.54
v 0 -2.72 1.54
v 0 -2.72 1.54
v 0 -2.72 1.54
v 0 -2.72 1.54
v 0 -2.72 1.54
v 0.19134 -2.72 1.56588
v 0.17239 -2.64362 1.56588
v 0.1193 -2.58237 1.56588
v 0.04258 -2.54838 1.56588
v -0.04258 -2.54838 1.56588
v -0.1193 -2.58237 1.56588
v -0.17239 -2.64362 1.56588
v -0.19134 -2.72 1.56588
v -0.17239 -2.79638 1.56588
v -0.1193 -2.85763 1.56588
v -0.04258 -2.89162 1.56588
v 0.04258 -2.89162 1.56588
v 0.1193 -2.85763 1.56588
v 0.17239 -2.79638 1.56588
v 0.35355 -2.72 1.63958
v 0.31854 -2.57887 1.63958
v 0.22044 -2.46569 1.63958
v 0.07867 -2.40289 1.63958
v -0.07867 -2.40289 1.63958
v -0.22044 -2.46569 1.63958
v -0.31854 -2.57887 1.63958
v -0.35355 -2.72 1.63958
v -0.31854 -2.86113 1.63958
v -0.22044 -2.97431 1.63958
v -0.07867 -3.03711 1.63958
v 0.07867 -3.03711 1.63958
v 0.22044 -2.97431 1.63958
v 0.31854 -2.86113 1.63958
v 0.46194 -2.72 1.74989
v 0.41619 -2.53561 1.74989
v 0.28801 -2.38773 1.74989
v 0.10279 -2.30567 1.74989
v -0.10279 -2.30567 1.74989
v -0.28801 -2.38773 1.74989
v -0.41619 -2.53561 1.74989
v -0.46194 -2.72 1.74989
v -0.41619 -2.90439 1.74989
v -0.28801 -3.05227 1.74989
v -0.10279 -3.13433 1.74989
v 0.10279 -3.13433 1.74989
v 0.28801 -3.05227 1.74989
v 0.41619 -2.90439 1.74989
v 0.5 -2.72 1.88
v 0.45048 -2.52041 1.88
v 0.31174 -2.36036 1.88
v 0.11126 -2.27153 1.88
v -0.11126 -2.27153 1.88
v -0.31174 -2.36036 1.88
v -0.45048 -2.52041 1.88
v -0.5 -2.72 1.88
v -0.45048 -2.91959 1.88
v -0.31174 -3.07964 1.88
v -0.11126 -3.16847 1.88
v 0.11126 -3.16847 1.88
v 0.31174 -3.07964 1.88
v 0.45048 -2.91959 1.88
v 0.46194 -2.72 2.01011
v 0.41619 -2.53561 2.01011
v 0.28801 -2.38773 2.01011
v 0.10279 -2.30567 2.01011
v -0.10279 -2.30567 2.01011
v -0.28801 -2.38773 2.01011
v -0.41619 -2.53561 2.01011
v -0.46194 -2.72 2.01011
v -0.41619 -2.90439 2.01011
v -0.28801 -3.05227 2.01011
v -0.10279 -3.13433 2.01011
v 0.10279 -3.13433 2.01011
v 0.28801 -3.05227 2.01011
v 0.41619 -2.90439 2.01011
v 0.35355 -2.72 2.12042
v 0.31854 -2.57887 2.12042
v 0.22044 -2.46569 2.12042
v 0.07867 -2.40289 2.12042
v -0.07867 -2.40289 2.12042
v -0.22044 -2.46569 2.12042
v -0.31854 -2.57887 2.12042
v -0.35355 -2.72 2.12042
v -0.31854 -2.86113 2.12042
v -0.22044 -2.97431 2.12042
v -0.07867 -3.03711 2.12042
v 0.07867 -3.03711 2.12042
v 0.22044 -2.97431 2.12042
v 0.31854 -2.86113 2.12042
v 0.19134 -2.72 2.19412
v 0.17239 -2.64362 2.19412
v 0.1193 -2.58237 2.19412
v 0.04258 -2.54838 2.19412
v -0.04258 -2.54838 2.19412
v -0.1193 -2.58237 2.19412
v -0.17239 -2.64362 2.19412
v -0.19134 -2.72 2.19412
v -0.17239 -2.79638 2.19412
v -0.1193 -2.85763 2.19412
v -0.04258 -2.89162 2.19412
v 0.04258 -2.89162 2.19412
v 0.1193 -2.85763 2.19412
v 0.17239 -2.79638 2.19412
v 0 -2.72 2.22
v 0 -2.72 2.22
v 0 -2.72 2.22
v 0 -2.72 2.22
v 0 -2.72 2.22
v 0 -2.72 2.22
v 0 -2.72 2.22
v 0 -2.72 2.22
v 0 -2.72 2.22
v 0 -2.72 2.22
v 0 -2.72 2.22
v 0 -2.72 2.22
v 0 -2.72 2.22
v 0 -2.72 2.22
v -0.65 -2.05 2.42
v -0.16 -2.08 2.42
v -0.46 -2.55 2.42
v -0.65 -2.05 2.58
v -0.16 -2.08 2.58
v -0.46 -2.55 2.58
v 0.16 -2.08 2.42
v 0.65 -2.05 2.42
v 0.46 -2.55 2.42
v 0.16 -2.08 2.58
v 0.65 -2.05 2.58
v 0.46 -2.55 2.58
v -0.38 -1.1 1.15
v -0.41215 -1.21847 1.16911
v -0.5 -1.30519 1.1831
v -0.62 -1.33694 1.18822
v -0.74 -1.30519 1.1831
v -0.82785 -1.21847 1.16911
v -0.86 -1.1 1.15
v -0.82785 -0.98153 1.13089
v -0.74 -0.89481 1.1169
v -0.62 -0.86306 1.11178
v -0.5 -0.89481 1.1169
v -0.41215 -0.98153 1.13089
v -0.44 -1.25 0.22
v -0.46412 -1.33885 0.23433
v -0.53 -1.4039 0.24482
v -0.62 -1.4277 0.24866
v -0.71 -1.4039 0.24482
v -0.77588 -1.33885 0.23433
v -0.8 -1.25 0.22
v -0.77588 -1.16115 0.20567
v -0.71 -1.0961 0.19518
v -0.62 -1.0723 0.19134
v -0.53 -1.0961 0.19518
v -0.46412 -1.16115 0.20567
v -0.62 -1.1 1.15
v -0.62 -1.25 0.22
v -0.62 -1.42 -0.03
v -0.62 -1.42 -0.03
v -0.62 -1.42 -0.03
v -0.62 -1.42 -0.03
v -0.62 -1.42 -0.03
v -0.62 -1.42 -0.03
v -0.62 -1.42 -0.03
v -0.62 -1.42 -0.03
v -0.62 -1.42 -0.03
v -0.62 -1.42 -0.03
v -0.47 -1.42 -0.00588
v -0.49865 -1.29657 -0.00588
v -0.57365 -1.22028 -0.00588
v -0.66635 -1.22028 -0.00588
v -0.74135 -1.29657 -0.00588
v -0.77 -1.42 -0.00588
v -0.74135 -1.54343 -0.00588
v -0.66635 -1.61972 -0.00588
v -0.57365 -1.61972 -0.00588
v -0.49865 -1.54343 -0.00588
v -0.36019 -1.42 0.06
v -0.40981 -1.2062 0.06
v -0.53972 -1.07407 0.06
v -0.70028 -1.07407 0.06
v -0.83019 -1.2062 0.06
v -0.87981 -1.42 0.06
v -0.83019 -1.6338 0.06
v -0.70028 -1.76593 0.06
v -0.53972 -1.76593 0.06
v -0.40981 -1.6338 0.06
v -0.32 -1.42 0.15
v -0.37729 -1.17313 0.15
v -0.52729 -1.02056 0.15
v -0.71271 -1.02056 0.15
v -0.86271 -1.17313 0.15
v -0.92 -1.42 0.15
v -0.86271 -1.66687 0.15
v -0.71271 -1.81944 0.15
v -0.52729 -1.81944 0.15
v -0.37729 -1.66687 0.15
v -0.36019 -1.42 0.24
v -0.40981 -1.2062 0.24
v -0.53972 -1.07407 0.24
v -0.70028 -1.07407 0.24
v -0.83019 -1.2062 0.24
v -0.87981 -1.42 0.24
v -0.83019 -1.6338 0.24
v -0.70028 -1.76593 0.24
v -0.53972 -1.76593 0.24
v -0.40981 -1.6338 0.24
v -0.47 -1.42 0.30588
v -0.49865 -1.29657 0.30588
v -0.57365 -1.22028 0.30588
v -0.66635 -1.22028 0.30588
v -0.74135 -1.29657 0.30588
v -0.77 -1.42 0.30588
v -0.74135 -1.54343 0.30588
v -0.66635 -1.61972 0.30588
v -0.57365 -1.61972 0.30588
v -0.49865 -1.54343 0.30588
v -0.62 -1.42 0.33
v -0.62 -1.42 0.33
v -0.62 -1.42 0.33
v -0.62 -1.42 0.33
v -0.62 -1.42 0.33
v -0.62 -1.42 0.33
v -0.62 -1.42 0.33
v -0.62 -1.42 0.33
v -0.62 -1.42 0.33
v -0.62 -1.42 0.33
v -0.34 0.72 1.1
v -0.37751 0.58475 1.06383
v -0.48 0.48575 1.03735
v -0.62 0.44951 1.02766
v -0.76 0.48575 1.03735
v -0.86249 0.58475 1.06383
v -0.9 0.72 1.1
v -0.86249 0.85525 1.13617
v -0.76 0.95425 1.16265
v -0.62 0.99049 1.17234
v -0.48 0.95425 1.16265
v -0.37751 0.85525 1.13617
v -0.42 0.95 0.24
v -0.44679 0.8534 0.21416
v -0.52 0.78268 0.19525
v -0.62 0.75679 0.18833
v -0.72 0.78268 0.19525
v -0.79321 0.8534 0.21416
v -0.82 0.95 0.24
v -0.79321 1.0466 0.26584
v -0.72 1.11732 0.28475
v -0.62 1.14321 0.29167
v -0.52 1.11732 0.28475
v -0.44679 1.0466 0.26584
v -0.62 0.72 1.1
v -0.62 0.95 0.24
v -0.62 1.08 -0.03
v -0.62 1.08 -0.03
v -0.62 1.08 -0.03
v -0.62 1.08 -0.03
v -0.62 1.08 -0.03
v -0.62 1.08 -0.03
v -0.62 1.08 -0.03
v -0.62 1.08 -0.03
v -0.62 1.08 -0.03
v -0.62 1.08 -0.03
v -0.45 1.08 -0.00454
v -0.48247 1.22107 -0.00454
v -0.56747 1.30825 -0.00454
v -0.67253 1.30825 -0.00454
v -0.75753 1.22107 -0.00454
v -0.79 1.08 -0.00454
v -0.75753 0.93893 -0.00454
v -0.67253 0.85175 -0.00454
v -0.56747 0.85175 -0.00454
v -0.48247 0.93893 -0.00454
v -0.32555 1.08 0.065
v -0.38179 1.32434 0.065
v -0.52901 1.47535 0.065
v -0.71099 1.47535 0.065
v -0.85821 1.32434 0.065
v -0.91445 1.08 0.065
v -0.85821 0.83566 0.065
v -0.71099 0.68465 0.065
v -0.52901 0.68465 0.065
v -0.38179 0.83566 0.065
v -0.28 1.08 0.16
v -0.34493 1.36214 0.16
v -0.51493 1.53651 0.16
v -0.72507 1.53651 0.16
v -0.89507 1.36214 0.16
v -0.96 1.08 0.16
v -0.89507 0.79786 0.16
v -0.72507 0.62349 0.16
v -0.51493 0.62349 0.16
v -0.34493 0.79786 0.16
v -0.32555 1.08 0.255
v -0.38179 1.32434 0.255
v -0.52901 1.47535 0.255
v -0.71099 1.47535 0.255
v -0.85821 1.32434 0.255
v -0.91445 1.08 0.255
v -0.85821 0.83566 0.255
v -0.71099 0.68465 0.255
v -0.52901 0.68465 0.255
v -0.38179 0.83566 0.255
v -0.45 1.08 0.32454
v -0.48247 1.22107 0.32454
v -0.56747 1.30825 0.32454
v -0.67253 1.30825 0.32454
v -0.75753 1.22107 0.32454
v -0.79 1.08 0.32454
v -0.75753 0.93893 0.32454
v -0.67253 0.85175 0.32454
v -0.56747 0.85175 0.32454
v -0.48247 0.93893 0.32454
v -0.62 1.08 0.35
v -0.62 1.08 0.35
v -0.62 1.08 0.35
v -0.62 1.08 0.35
v -0.62 1.08 0.35
v -0.62 1.08 0.35
v -0.62 1.08 0.35
v -0.62 1.08 0.35
v -0.62 1.08 0.35
v -0.62 1.08 0.35
v 0.86 -1.1 1.15
v 0.82785 -1.21847 1.16911
v 0.74 -1.30519 1.1831
v 0.62 -1.33694 1.18822
v 0.5 -1.30519 1.1831
v 0.41215 -1.21847 1.16911
v 0.38 -1.1 1.15
v 0.41215 -0.98153 1.13089
v 0.5 -0.89481 1.1169
v 0.62 -0.86306 1.11178
v 0.74 -0.89481 1.1169
v 0.82785 -0.98153 1.13089
v 0.8 -1.25 0.22
v 0.77588 -1.33885 0.23433
v 0.71 -1.4039 0.24482
v 0.62 -1.4277 0.24866
v 0.53 -1.4039 0.24482
v 0.46412 -1.33885 0.23433
v 0.44 -1.25 0.22
v 0.46412 -1.16115 0.20567
v 0.53 -1.0961 0.19518
v 0.62 -1.0723 0.19134
v 0.71 -1.0961 0.19518
v 0.77588 -1.16115 0.20567
v 0.62 -1.1 1.15
v 0.62 -1.25 0.22
v 0.62 -1.42 -0.03
v 0.62 -1.42 -0.03
v 0.62 -1.42 -0.03
v 0.62 -1.42 -0.03
v 0.62 -1.42 -0.03
v 0.62 -1.42 -0.03
v 0.62 -1.42 -0.03
v 0.62 -1.42 -0.03
v 0.62 -1.42 -0.03
v 0.62 -1.42 -0.03
v 0.77 -1.42 -0.00588
v 0.74135 -1.29657 -0.00588
v 0.66635 -1.22028 -0.00588
v 0.57365 -1.22028 -0.00588
v 0.49865 -1.29657 -0.00588
v 0.47 -1.42 -0.00588
v 0.49865 -1.54343 -0.00588
v 0.57365 -1.61972 -0.00588
v 0.66635 -1.61972 -0.00588
v 0.74135 -1.54343 -0.00588
v 0.87981 -1.42 0.06
v 0.83019 -1.2062 0.06
v 0.70028 -1.07407 0.06
v 0.53972 -1.07407 0.06
v 0.40981 -1.2062 0.06
v 0.36019 -1.42 0.06
v 0.40981 -1.6338 0.06
v 0.53972 -1.76593 0.06
v 0.70028 -1.76593 0.06
v 0.83019 -1.6338 0.06
v 0.92 -1.42 0.15
v 0.86271 -1.17313 0.15
v 0.71271 -1.02056 0.15
v 0.52729 -1.02056 0.15
v 0.37729 -1.17313 0.15
v 0.32 -1.42 0.15
v 0.37729 -1.66687 0.15
v 0.52729 -1.81944 0.15
v 0.71271 -1.81944 0.15
v 0.86271 -1.66687 0.15
v 0.87981 -1.42 0.24
v 0.83019 -1.2062 0.24
v 0.70028 -1.07407 0.24
v 0.53972 -1.07407 0.24
v 0.40981 -1.2062 0.24
v 0.36019 -1.42 0.24
v 0.40981 -1.6338 0.24
v 0.53972 -1.76593 0.24
v 0.70028 -1.76593 0.24
v 0.83019 -1.6338 0.24
v 0.77 -1.42 0.30588
v 0.74135 -1.29657 0.30588
v 0.66635 -1.22028 0.30588
v 0.57365 -1.22028 0.30588
v 0.49865 -1.29657 0.30588
v 0.47 -1.42 0.30588
v 0.49865 -1.54343 0.30588
v 0.57365 -1.61972 0.30588
v 0.66635 -1.61972 0.30588
v 0.74135 -1.54343 0.30588
v 0.62 -1.42 0.33
v 0.62 -1.42 0.33
v 0.62 -1.42 0.33
v 0.62 -1.42 0.33
v 0.62 -1.42 0.33
v 0.62 -1.42 0.33
v 0.62 -1.42 0.33
v 0.62 -1.42 0.33
v 0.62 -1.42 0.33
v 0.62 -1.42 0.33
v 0.9 0.72 1.1
v 0.86249 0.58475 1.06383
v 0.76 0.48575 1.03735
v 0.62 0.44951 1.02766
v 0.48 0.48575 1.03735
v 0.37751 0.58475 1.06383
v 0.34 0.72 1.1
v 0.37751 0.85525 1.13617
v 0.48 0.95425 1.16265
v 0.62 0.99049 1.17234
v 0.76 0.95425 1.16265
v 0.86249 0.85525 1.13617
v 0.82 0.95 0.24
v 0.79321 0.8534 0.21416
v 0.72 0.78268 0.19525
v 0.62 0.75679 0.18833
v 0.52 0.78268 0.19525
v 0.44679 0.8534 0.21416
v 0.42 0.95 0.24
v 0.44679 1.0466 0.26584
v 0.52 1.11732 0.28475
v 0.62 1.14321 0.29167
v 0.72 1.11732 0.28475
v 0.79321 1.0466 0.26584
v 0.62 0.72 1.1
v 0.62 0.95 0.24
v 0.62 1.08 -0.03
v 0.62 1.08 -0.03
v 0.62 1.08 -0.03
v 0.62 1.08 -0.03
v 0.62 1.08 -0.03
v 0.62 1.08 -0.03
v 0.62 1.08 -0.03
v 0.62 1.08 -0.03
v 0.62 1.08 -0.03
v 0.62 1.08 -0.03
v 0.79 1.08 -0.00454
v 0.75753 1.22107 -0.00454
v 0.67253 1.30825 -0.00454
v 0.56747 1.30825 -0.00454
v 0.48247 1.22107 -0.00454
v 0.45 1.08 -0.00454
v 0.48247 0.93893 -0.00454
v 0.56747 0.85175 -0.00454
v 0.67253 0.85175 -0.00454
v 0.75753 0.93893 -0.00454
v 0.91445 1.08 0.065
v 0.85821 1.32434 0.065
v 0.71099 1.47535 0.065
v 0.52901 1.47535 0.065
v 0.38179 1.32434 0.065
v 0.32555 1.08 0.065
v 0.38179 0.83566 0.065
v 0.52901 0.68465 0.065
v 0.71099 0.68465 0.065
v 0.85821 0.83566 0.065
v 0.96 1.08 0.16
v 0.89507 1.36214 0.16
v 0.72507 1.53651 0.16
v 0.51493 1.53651 0.16
v 0.34493 1.36214 0.16
v 0.28 1.08 0.16
v 0.34493 0.79786 0.16
v 0.51493 0.62349 0.16
v 0.72507 0.62349 0.16
v 0.89507 0.79786 0.16
v 0.91445 1.08 0.255
v 0.85821 1.32434 0.255
v 0.71099 1.47535 0.255
v 0.52901 1.47535 0.255
v 0.38179 1.32434 0.255
v 0.32555 1.08 0.255
v 0.38179 0.83566 0.255
v 0.52901 0.68465 0.255
v 0.71099 0.68465 0.255
v 0.85821 0.83566 0.255
v 0.79 1.08 0.32454
v 0.75753 1.22107 0.32454
v 0.67253 1.30825 0.32454
v 0.56747 1.30825 0.32454
v 0.48247 1.22107 0.32454
v 0.45 1.08 0.32454
v 0.48247 0.93893 0.32454
v 0.56747 0.85175 0.32454
v 0.67253 0.85175 0.32454
v 0.75753 0.93893 0.32454
v 0.62 1.08 0.35
v 0.62 1.08 0.35
v 0.62 1.08 0.35
v 0.62 1.08 0.35
v 0.62 1.08 0.35
v 0.62 1.08 0.35
v 0.62 1.08 0.35
v 0.62 1.08 0.35
v 0.62 1.08 0.35
v 0.62 1.08 0.35
v 0.45046 1.2868 1.55
v 0.42067 1.36767 1.3643
v 0.30757 1.45098 1.21539
v 0.13354 1.52023 1.13274
v -0.06693 1.56171 1.13274
v -0.25415 1.5672 1.21539
v -0.39103 1.53561 1.3643
v -0.45046 1.4732 1.55
v -0.42067 1.39233 1.7357
v -0.30757 1.30902 1.88461
v -0.13354 1.23977 1.96726
v 0.06693 1.19829 1.96726
v 0.25415 1.1928 1.88461
v 0.39103 1.22439 1.7357
v 0.55212 2.17301 1.9
v 0.52751 2.23981 1.7466
v 0.43408 2.30864 1.62358
v 0.29032 2.36584 1.55531
v 0.12471 2.40011 1.55531
v -0.02995 2.40464 1.62358
v -0.14302 2.37855 1.7466
v -0.19212 2.32699 1.9
v -0.16751 2.26019 2.0534
v -0.07408 2.19136 2.17642
v 0.06968 2.13416 2.24469
v 0.23529 2.09989 2.24469
v 0.38995 2.09536 2.17642
v 0.50302 2.12145 2.0534
v 0 1.38 1.55
v 0.18 2.25 1.9
v 0.53867 2.37553 1.9
v 0.47466 2.44448 1.75946
v 0.3523 2.47491 1.64676
v 0.19581 2.46079 1.58422
v 0.03619 2.40492 1.58422
v -0.09495 2.31837 1.64676
v -0.17163 2.21828 1.75946
v -0.17867 2.12447 1.9
v -0.11466 2.05552 2.04054
v 0.0077 2.02509 2.15324
v 0.16419 2.03921 2.21578
v 0.32381 2.09508 2.21578
v 0.45495 2.18163 2.15324
v 0.53163 2.28172 2.04054
v 0.12653 3.12928 2.42
v 0.0861 3.17283 2.33124
v 0.00882 3.19205 2.26006
v -0.09001 3.18313 2.22056
v -0.19083 3.14785 2.22056
v -0.27365 3.09318 2.26006
v -0.32208 3.02996 2.33124
v -0.32653 2.97072 2.42
v -0.2861 2.92717 2.50876
v -0.20882 2.90795 2.57994
v -0.10999 2.91687 2.61944
v -0.00917 2.95215 2.61944
v 0.07365 3.00682 2.57994
v 0.12208 3.07004 2.50876
v 0.18 2.25 1.9
v -0.1 3.05 2.42
v 0.13946 2.97816 2.42
v 0.13485 3.07938 2.33949
v 0.06732 3.17272 2.28055
v -0.04505 3.23318 2.25898
v -0.17214 3.24455 2.28055
v -0.2799 3.2038 2.33949
v -0.33946 3.12184 2.42
v -0.33485 3.02062 2.50051
v -0.26732 2.92728 2.55945
v -0.15495 2.86682 2.58102
v -0.02786 2.85545 2.55945
v 0.0799 2.8962 2.50051
v 0.07873 3.54138 3.04
v 0.07818 3.55353 3.03034
v 0.07008 3.56473 3.02327
v 0.05659 3.57198 3.02068
v 0.04134 3.57335 3.02327
v 0.02841 3.56846 3.03034
v 0.02127 3.55862 3.04
v 0.02182 3.54647 3.04966
v 0.02992 3.53527 3.05673
v 0.04341 3.52802 3.05932
v 0.05866 3.52665 3.05673
v 0.07159 3.53154 3.04966
v -0.1 3.05 2.42
v 0.05 3.55 3.04
v -0.28 -2.66 2.06
v -0.28 -2.66 2.06
v -0.28 -2.66 2.06
v -0.28 -2.66 2.06
v -0.28 -2.66 2.06
v -0.28 -2.66 2.06
v -0.28 -2.66 2.06
v -0.28 -2.66 2.06
v -0.28 -2.66 2.06
v -0.28 -2.66 2.06
v -0.23 -2.66 2.07608
v -0.23955 -2.64237 2.07608
v -0.26455 -2.63147 2.07608
v -0.29545 -2.63147 2.07608
v -0.32045 -2.64237 2.07608
v -0.33 -2.66 2.07608
v -0.32045 -2.67763 2.07608
v -0.29545 -2.68853 2.07608
v -0.26455 -2.68853 2.07608
v -0.23955 -2.67763 2.07608
v -0.1934 -2.66 2.12
v -0.20994 -2.62946 2.12
v -0.25324 -2.61058 2.12
v -0.30676 -2.61058 2.12
v -0.35006 -2.62946 2.12
v -0.3666 -2.66 2.12
v -0.35006 -2.69054 2.12
v -0.30676 -2.70942 2.12
v -0.25324 -2.70942 2.12
v -0.20994 -2.69054 2.12
v -0.18 -2.66 2.18
v -0.1991 -2.62473 2.18
v -0.2491 -2.60294 2.18
v -0.3109 -2.60294 2.18
v -0.3609 -2.62473 2.18
v -0.38 -2.66 2.18
v -0.3609 -2.69527 2.18
v -0.3109 -2.71706 2.18
v -0.2491 -2.71706 2.18
v -0.1991 -2.69527 2.18
v -0.1934 -2.66 2.24
v -0.20994 -2.62946 2.24
v -0.25324 -2.61058 2.24
v -0.30676 -2.61058 2.24
v -0.35006 -2.62946 2.24
v -0.3666 -2.66 2.24
v -0.35006 -2.69054 2.24
v -0.30676 -2.70942 2.24
v -0.25324 -2.70942 2.24
v -0.20994 -2.69054 2.24
v -0.23 -2.66 2.28392
v -0.23955 -2.64237 2.28392
v -0.26455 -2.63147 2.28392
v -0.29545 -2.63147 2.28392
v -0.32045 -2.64237 2.28392
v -0.33 -2.66 2.28392
v -0.32045 -2.67763 2.28392
v -0.29545 -2.68853 2.28392
v -0.26455 -2.68853 2.28392
v -0.23955 -2.67763 2.28392
v -0.28 -2.66 2.3
v -0.28 -2.66 2.3
v -0.28 -2.66 2.3
v -0.28 -2.66 2.3
v -0.28 -2.66 2.3
v -0.28 -2.66 2.3
v -0.28 -2.66 2.3
v -0.28 -2.66 2.3
v -0.28 -2.66 2.3
v -0.28 -2.66 2.3
v 0.28 -2.66 2.06
v 0.28 -2.66 2.06
v 0.28 -2.66 2.06
v 0.28 -2.66 2.06
v 0.28 -2.66 2.06
v 0.28 -2.66 2.06
v 0.28 -2.66 2.06
v 0.28 -2.66 2.06
v 0.28 -2.66 2.06
v 0.28 -2.66 2.06
v 0.33 -2.66 2.07608
v 0.32045 -2.64237 2.07608
v 0.29545 -2.63147 2.07608
v 0.26455 -2.63147 2.07608
v 0.23955 -2.64237 2.07608
v 0.23 -2.66 2.07608
v 0.23955 -2.67763 2.07608
v 0.26455 -2.68853 2.07608
v 0.29545 -2.68853 2.07608
v 0.32045 -2.67763 2.07608
v 0.3666 -2.66 2.12
v 0.35006 -2.62946 2.12
v 0.30676 -2.61058 2.12
v 0.25324 -2.61058 2.12
v 0.20994 -2.62946 2.12
v 0.1934 -2.66 2.12
v 0.20994 -2.69054 2.12
v 0.25324 -2.70942 2.12
v 0.30676 -2.70942 2.12
v 0.35006 -2.69054 2.12
v 0.38 -2.66 2.18
v 0.3609 -2.62473 2.18
v 0.3109 -2.60294 2.18
v 0.2491 -2.60294 2.18
v 0.1991 -2.62473 2.18
v 0.18 -2.66 2.18
v 0.1991 -2.69527 2.18
v 0.2491 -2.71706 2.18
v 0.3109 -2.71706 2.18
v 0.3609 -2.69527 2.18
v 0.3666 -2.66 2.24
v 0.35006 -2.62946 2.24
v 0.30676 -2.61058 2.24
v 0.25324 -2.61058 2.24
v 0.20994 -2.62946 2.24
v 0.1934 -2.66 2.24
v 0.20994 -2.69054 2.24
v 0.25324 -2.70942 2.24
v 0.30676 -2.70942 2.24
v 0.35006 -2.69054 2.24
v 0.33 -2.66 2.28392
v 0.32045 -2.64237 2.28392
v 0.29545 -2.63147 2.28392
v 0.26455 -2.63147 2.28392
v 0.23955 -2.64237 2.28392
v 0.23 -2.66 2.28392
v 0.23955 -2.67763 2.28392
v 0.26455 -2.68853 2.28392
v 0.29545 -2.68853 2.28392
v 0.32045 -2.67763 2.28392
v 0.28 -2.66 2.3
v 0.28 -2.66 2.3
v 0.28 -2.66 2.3
v 0.28 -2.66 2.3
v 0.28 -2.66 2.3
v 0.28 -2.66 2.3
v 0.28 -2.66 2.3
v 0.28 -2.66 2.3
v 0.28 -2.66 2.3
v 0.28 -2.66 2.3
v 0 -3.05 1.81
v 0 -3.05 1.81
v 0 -3.05 1.81
v 0 -3.05 1.81
v 0 -3.05 1.81
v 0 -3.05 1.81
v 0 -3.05 1.81
v 0 -3.05 1.81
v 0 -3.05 1.81
v 0 -3.05 1.81
v 0.065 -3.05 1.8234
v 0.05259 -3.02061 1.8234
v 0.02009 -3.00245 1.8234
v -0.02009 -3.00245 1.8234
v -0.05259 -3.02061 1.8234
v -0.065 -3.05 1.8234
v -0.05259 -3.07939 1.8234
v -0.02009 -3.09755 1.8234
v 0.02009 -3.09755 1.8234
v 0.05259 -3.07939 1.8234
v 0.11258 -3.05 1.86
v 0.09108 -2.9991 1.86
v 0.03479 -2.96764 1.86
v -0.03479 -2.96764 1.86
v -0.09108 -2.9991 1.86
v -0.11258 -3.05 1.86
v -0.09108 -3.1009 1.86
v -0.03479 -3.13236 1.86
v 0.03479 -3.13236 1.86
v 0.09108 -3.1009 1.86
v 0.13 -3.05 1.91
v 0.10517 -2.99122 1.91
v 0.04017 -2.95489 1.91
v -0.04017 -2.95489 1.91
v -0.10517 -2.99122 1.91
v -0.13 -3.05 1.91
v -0.10517 -3.10878 1.91
v -0.04017 -3.14511 1.91
v 0.04017 -3.14511 1.91
v 0.10517 -3.10878 1.91
v 0.11258 -3.05 1.96
v 0.09108 -2.9991 1.96
v 0.03479 -2.96764 1.96
v -0.03479 -2.96764 1.96
v -0.09108 -2.9991 1.96
v -0.11258 -3.05 1.96
v -0.09108 -3.1009 1.96
v -0.03479 -3.13236 1.96
v 0.03479 -3.13236 1.96
v 0.09108 -3.1009 1.96
v 0.065 -3.05 1.9966
v 0.05259 -3.02061 1.9966
v 0.02009 -3.00245 1.9966
v -0.02009 -3.00245 1.9966
v -0.05259 -3.02061 1.9966
v -0.065 -3.05 1.9966
v -0.05259 -3.07939 1.9966
v -0.02009 -3.09755 1.9966
v 0.02009 -3.09755 1.9966
v 0.05259 -3.07939 1.9966
v 0 -3.05 2.01
v 0 -3.05 2.01
v 0 -3.05 2.01
v 0 -3.05 2.01
v 0 -3.05 2.01
v 0 -3.05 2.01
v 0 -3.05 2.01
v 0 -3.05 2.01
v 0 -3.05 2.01
v 0 -3.05 2.01
g Body
usemtl FOX_RED
f 1 2 18 17
f 2 3 19 18
f 3 4 20 19
f 4 5 21 20
f 5 6 22 21
f 6 7 23 22
f 7 8 24 23
f 8 9 25 24
f 9 10 26 25
f 10 11 27 26
f 11 12 28 27
f 12 13 29 28
f 13 14 30 29
f 14 15 31 30
f 15 16 32 31
f 16 1 17 32
f 17 18 34 33
f 18 19 35 34
f 19 20 36 35
f 20 21 37 36
f 21 22 38 37
f 22 23 39 38
f 23 24 40 39
f 24 25 41 40
f 25 26 42 41
f 26 27 43 42
f 27 28 44 43
f 28 29 45 44
f 29 30 46 45
f 30 31 47 46
f 31 32 48 47
f 32 17 33 48
f 33 34 50 49
f 34 35 51 50
f 35 36 52 51
f 36 37 53 52
f 37 38 54 53
f 38 39 55 54
f 39 40 56 55
f 40 41 57 56
f 41 42 58 57
f 42 43 59 58
f 43 44 60 59
f 44 45 61 60
f 45 46 62 61
f 46 47 63 62
f 47 48 64 63
f 48 33 49 64
f 49 50 66 65
f 50 51 67 66
f 51 52 68 67
f 52 53 69 68
f 53 54 70 69
f 54 55 71 70
f 55 56 72 71
f 56 57 73 72
f 57 58 74 73
f 58 59 75 74
f 59 60 76 75
f 60 61 77 76
f 61 62 78 77
f 62 63 79 78
f 63 64 80 79
f 64 49 65 80
f 65 66 82 81
f 66 67 83 82
f 67 68 84 83
f 68 69 85 84
f 69 70 86 85
f 70 71 87 86
f 71 72 88 87
f 72 73 89 88
f 73 74 90 89
f 74 75 91 90
f 75 76 92 91
f 76 77 93 92
f 77 78 94 93
f 78 79 95 94
f 79 80 96 95
f 80 65 81 96
f 81 82 98 97
f 82 83 99 98
f 83 84 100 99
f 84 85 101 100
f 85 86 102 101
f 86 87 103 102
f 87 88 104 103
f 88 89 105 104
f 89 90 106 105
f 90 91 107 106
f 91 92 108 107
f 92 93 109 108
f 93 94 110 109
f 94 95 111 110
f 95 96 112 111
f 96 81 97 112
f 97 98 114 113
f 98 99 115 114
f 99 100 116 115
f 100 101 117 116
f 101 102 118 117
f 102 103 119 118
f 103 104 120 119
f 104 105 121 120
f 105 106 122 121
f 106 107 123 122
f 107 108 124 123
f 108 109 125 124
f 109 110 126 125
f 110 111 127 126
f 111 112 128 127
f 112 97 113 128
f 113 114 130 129
f 114 115 131 130
f 115 116 132 131
f 116 117 133 132
f 117 118 134 133
f 118 119 135 134
f 119 120 136 135
f 120 121 137 136
f 121 122 138 137
f 122 123 139 138
f 123 124 140 139
f 124 125 141 140
f 125 126 142 141
f 126 127 143 142
f 127 128 144 143
f 128 113 129 144
f 129 130 146 145
f 130 131 147 146
f 131 132 148 147
f 132 133 149 148
f 133 134 150 149
f 134 135 151 150
f 135 136 152 151
f 136 137 153 152
f 137 138 154 153
f 138 139 155 154
f 139 140 156 155
f 140 141 157 156
f 141 142 158 157
f 142 143 159 158
f 143 144 160 159
f 144 129 145 160
f 145 146 162 161
f 146 147 163 162
f 147 148 164 163
f 148 149 165 164
f 149 150 166 165
f 150 151 167 166
f 151 152 168 167
f 152 153 169 168
f 153 154 170 169
f 154 155 171 170
f 155 156 172 171
f 156 157 173 172
f 157 158 174 173
f 158 159 175 174
f 159 160 176 175
f 160 145 161 176
g Chest
usemtl FOX_ORANGE
f 177 178 192 191
f 178 179 193 192
f 179 180 194 193
f 180 181 195 194
f 181 182 196 195
f 182 183 197 196
f 183 184 198 197
f 184 185 199 198
f 185 186 200 199
f 186 187 201 200
f 187 188 202 201
f 188 189 203 202
f 189 190 204 203
f 190 177 191 204
f 191 192 206 205
f 192 193 207 206
f 193 194 208 207
f 194 195 209 208
f 195 196 210 209
f 196 197 211 210
f 197 198 212 211
f 198 199 213 212
f 199 200 214 213
f 200 201 215 214
f 201 202 216 215
f 202 203 217 216
f 203 204 218 217
f 204 191 205 218
f 205 206 220 219
f 206 207 221 220
f 207 208 222 221
f 208 209 223 222
f 209 210 224 223
f 210 211 225 224
f 211 212 226 225
f 212 213 227 226
f 213 214 228 227
f 214 215 229 228
f 215 216 230 229
f 216 217 231 230
f 217 218 232 231
f 218 205 219 232
f 219 220 234 233
f 220 221 235 234
f 221 222 236 235
f 222 223 237 236
f 223 224 238 237
f 224 225 239 238
f 225 226 240 239
f 226 227 241 240
f 227 228 242 241
f 228 229 243 242
f 229 230 244 243
f 230 231 245 244
f 231 232 246 245
f 232 219 233 246
f 233 234 248 247
f 234 235 249 248
f 235 236 250 249
f 236 237 251 250
f 237 238 252 251
f 238 239 253 252
f 239 240 254 253
f 240 241 255 254
f 241 242 256 255
f 242 243 257 256
f 243 244 258 257
f 244 245 259 258
f 245 246 260 259
f 246 233 247 260
f 247 248 262 261
f 248 249 263 262
f 249 250 264 263
f 250 251 265 264
f 251 252 266 265
f 252 253 267 266
f 253 254 268 267
f 254 255 269 268
f 255 256 270 269
f 256 257 271 270
f 257 258 272 271
f 258 259 273 272
f 259 260 274 273
f 260 247 261 274
f 261 262 276 275
f 262 263 277 276
f 263 264 278 277
f 264 265 279 278
f 265 266 280 279
f 266 267 281 280
f 267 268 282 281
f 268 269 283 282
f 269 270 284 283
f 270 271 285 284
f 271 272 286 285
f 272 273 287 286
f 273 274 288 287
f 274 261 275 288
f 275 276 290 289
f 276 277 291 290
f 277 278 292 291
f 278 279 293 292
f 279 280 294 293
f 280 281 295 294
f 281 282 296 295
f 282 283 297 296
f 283 284 298 297
f 284 285 299 298
f 285 286 300 299
f 286 287 301 300
f 287 288 302 301
f 288 275 289 302
g Head
usemtl FOX_RED
f 303 304 320 319
f 304 305 321 320
f 305 306 322 321
f 306 307 323 322
f 307 308 324 323
f 308 309 325 324
f 309 310 326 325
f 310 311 327 326
f 311 312 328 327
f 312 313 329 328
f 313 314 330 329
f 314 315 331 330
f 315 316 332 331
f 316 317 333 332
f 317 318 334 333
f 318 303 319 334
f 319 320 336 335
f 320 321 337 336
f 321 322 338 337
f 322 323 339 338
f 323 324 340 339
f 324 325 341 340
f 325 326 342 341
f 326 327 343 342
f 327 328 344 343
f 328 329 345 344
f 329 330 346 345
f 330 331 347 346
f 331 332 348 347
f 332 333 349 348
f 333 334 350 349
f 334 319 335 350
f 335 336 352 351
f 336 337 353 352
f 337 338 354 353
f 338 339 355 354
f 339 340 356 355
f 340 341 357 356
f 341 342 358 357
f 342 343 359 358
f 343 344 360 359
f 344 345 361 360
f 345 346 362 361
f 346 347 363 362
f 347 348 364 363
f 348 349 365 364
f 349 350 366 365
f 350 335 351 366
f 351 352 368 367
f 352 353 369 368
f 353 354 370 369
f 354 355 371 370
f 355 356 372 371
f 356 357 373 372
f 357 358 374 373
f 358 359 375 374
f 359 360 376 375
f 360 361 377 376
f 361 362 378 377
f 362 363 379 378
f 363 364 380 379
f 364 365 381 380
f 365 366 382 381
f 366 351 367 382
f 367 368 384 383
f 368 369 385 384
f 369 370 386 385
f 370 371 387 386
f 371 372 388 387
f 372 373 389 388
f 373 374 390 389
f 374 375 391 390
f 375 376 392 391
f 376 377 393 392
f 377 378 394 393
f 378 379 395 394
f 379 380 396 395
f 380 381 397 396
f 381 382 398 397
f 382 367 383 398
f 383 384 400 399
f 384 385 401 400
f 385 386 402 401
f 386 387 403 402
f 387 388 404 403
f 388 389 405 404
f 389 390 406 405
f 390 391 407 406
f 391 392 408 407
f 392 393 409 408
f 393 394 410 409
f 394 395 411 410
f 395 396 412 411
f 396 397 413 412
f 397 398 414 413
f 398 383 399 414
f 399 400 416 415
f 400 401 417 416
f 401 402 418 417
f 402 403 419 418
f 403 404 420 419
f 404 405 421 420
f 405 406 422 421
f 406 407 423 422
f 407 408 424 423
f 408 409 425 424
f 409 410 426 425
f 410 411 427 426
f 411 412 428 427
f 412 413 429 428
f 413 414 430 429
f 414 399 415 430
f 415 416 432 431
f 416 417 433 432
f 417 418 434 433
f 418 419 435 434
f 419 420 436 435
f 420 421 437 436
f 421 422 438 437
f 422 423 439 438
f 423 424 440 439
f 424 425 441 440
f 425 426 442 441
f 426 427 443 442
f 427 428 444 443
f 428 429 445 444
f 429 430 446 445
f 430 415 431 446
f 431 432 448 447
f 432 433 449 448
f 433 434 450 449
f 434 435 451 450
f 435 436 452 451
f 436 437 453 452
f 437 438 454 453
f 438 439 455 454
f 439 440 456 455
f 440 441 457 456
f 441 442 458 457
f 442 443 459 458
f 443 444 460 459
f 444 445 461 460
f 445 446 462 461
f 446 431 447 462
g Muzzle
usemtl CREAM
f 463 464 478 477
f 464 465 479 478
f 465 466 480 479
f 466 467 481 480
f 467 468 482 481
f 468 469 483 482
f 469 470 484 483
f 470 471 485 484
f 471 472 486 485
f 472 473 487 486
f 473 474 488 487
f 474 475 489 488
f 475 476 490 489
f 476 463 477 490
f 477 478 492 491
f 478 479 493 492
f 479 480 494 493
f 480 481 495 494
f 481 482 496 495
f 482 483 497 496
f 483 484 498 497
f 484 485 499 498
f 485 486 500 499
f 486 487 501 500
f 487 488 502 501
f 488 489 503 502
f 489 490 504 503
f 490 477 491 504
f 491 492 506 505
f 492 493 507 506
f 493 494 508 507
f 494 495 509 508
f 495 496 510 509
f 496 497 511 510
f 497 498 512 511
f 498 499 513 512
f 499 500 514 513
f 500 501 515 514
f 501 502 516 515
f 502 503 517 516
f 503 504 518 517
f 504 491 505 518
f 505 506 520 519
f 506 507 521 520
f 507 508 522 521
f 508 509 523 522
f 509 510 524 523
f 510 511 525 524
f 511 512 526 525
f 512 513 527 526
f 513 514 528 527
f 514 515 529 528
f 515 516 530 529
f 516 517 531 530
f 517 518 532 531
f 518 505 519 532
f 519 520 534 533
f 520 521 535 534
f 521 522 536 535
f 522 523 537 536
f 523 524 538 537
f 524 525 539 538
f 525 526 540 539
f 526 527 541 540
f 527 528 542 541
f 528 529 543 542
f 529 530 544 543
f 530 531 545 544
f 531 532 546 545
f 532 519 533 546
f 533 534 548 547
f 534 535 549 548
f 535 536 550 549
f 536 537 551 550
f 537 538 552 551
f 538 539 553 552
f 539 540 554 553
f 540 541 555 554
f 541 542 556 555
f 542 543 557 556
f 543 544 558 557
f 544 545 559 558
f 545 546 560 559
f 546 533 547 560
f 547 548 562 561
f 548 549 563 562
f 549 550 564 563
f 550 551 565 564
f 551 552 566 565
f 552 553 567 566
f 553 554 568 567
f 554 555 569 568
f 555 556 570 569
f 556 557 571 570
f 557 558 572 571
f 558 559 573 572
f 559 560 574 573
f 560 547 561 574
f 561 562 576 575
f 562 563 577 576
f 563 564 578 577
f 564 565 579 578
f 565 566 580 579
f 566 567 581 580
f 567 568 582 581
f 568 569 583 582
f 569 570 584 583
f 570 571 585 584
f 571 572 586 585
f 572 573 587 586
f 573 574 588 587
f 574 561 575 588
g EarL
usemtl FOX_DARK
f 589 590 593 592
f 590 591 594 593
f 591 589 592 594
f 591 590 589
f 592 593 594
g EarR
f 595 596 599 598
f 596 597 600 599
f 597 595 598 600
f 597 596 595
f 598 599 600
g FrontLeg-0.62
f 601 602 614 613
f 602 603 615 614
f 603 604 616 615
f 604 605 617 616
f 605 606 618 617
f 606 607 619 618
f 607 608 620 619
f 608 609 621 620
f 609 610 622 621
f 610 611 623 622
f 611 612 624 623
f 612 601 613 624
f 625 602 601
f 626 613 614
f 625 603 602
f 626 614 615
f 625 604 603
f 626 615 616
f 625 605 604
f 626 616 617
f 625 606 605
f 626 617 618
f 625 607 606
f 626 618 619
f 625 608 607
f 626 619 620
f 625 609 608
f 626 620 621
f 625 610 609
f 626 621 622
f 625 611 610
f 626 622 623
f 625 612 611
f 626 623 624
f 625 601 612
f 626 624 613
g FrontPaw-0.62
f 627 628 638 637
f 628 629 639 638
f 629 630 640 639
f 630 631 641 640
f 631 632 642 641
f 632 633 643 642
f 633 634 644 643
f 634 635 645 644
f 635 636 646 645
f 636 627 637 646
f 637 638 648 647
f 638 639 649 648
f 639 640 650 649
f 640 641 651 650
f 641 642 652 651
f 642 643 653 652
f 643 644 654 653
f 644 645 655 654
f 645 646 656 655
f 646 637 647 656
f 647 648 658 657
f 648 649 659 658
f 649 650 660 659
f 650 651 661 660
f 651 652 662 661
f 652 653 663 662
f 653 654 664 663
f 654 655 665 664
f 655 656 666 665
f 656 647 657 666
f 657 658 668 667
f 658 659 669 668
f 659 660 670 669
f 660 661 671 670
f 661 662 672 671
f 662 663 673 672
f 663 664 674 673
f 664 665 675 674
f 665 666 676 675
f 666 657 667 676
f 667 668 678 677
f 668 669 679 678
f 669 670 680 679
f 670 671 681 680
f 671 672 682 681
f 672 673 683 682
f 673 674 684 683
f 674 675 685 684
f 675 676 686 685
f 676 667 677 686
f 677 678 688 687
f 678 679 689 688
f 679 680 690 689
f 680 681 691 690
f 681 682 692 691
f 682 683 693 692
f 683 684 694 693
f 684 685 695 694
f 685 686 696 695
f 686 677 687 696
g BackLeg-0.62
f 697 698 710 709
f 698 699 711 710
f 699 700 712 711
f 700 701 713 712
f 701 702 714 713
f 702 703 715 714
f 703 704 716 715
f 704 705 717 716
f 705 706 718 717
f 706 707 719 718
f 707 708 720 719
f 708 697 709 720
f 721 698 697
f 722 709 710
f 721 699 698
f 722 710 711
f 721 700 699
f 722 711 712
f 721 701 700
f 722 712 713
f 721 702 701
f 722 713 714
f 721 703 702
f 722 714 715
f 721 704 703
f 722 715 716
f 721 705 704
f 722 716 717
f 721 706 705
f 722 717 718
f 721 707 706
f 722 718 719
f 721 708 707
f 722 719 720
f 721 697 708
f 722 720 709
g BackPaw-0.62
f 723 724 734 733
f 724 725 735 734
f 725 726 736 735
f 726 727 737 736
f 727 728 738 737
f 728 729 739 738
f 729 730 740 739
f 730 731 741 740
f 731 732 742 741
f 732 723 733 742
f 733 734 744 743
f 734 735 745 744
f 735 736 746 745
f 736 737 747 746
f 737 738 748 747
f 738 739 749 748
f 739 740 750 749
f 740 741 751 750
f 741 742 752 751
f 742 733 743 752
f 743 744 754 753
f 744 745 755 754
f 745 746 756 755
f 746 747 757 756
f 747 748 758 757
f 748 749 759 758
f 749 750 760 759
f 750 751 761 760
f 751 752 762 761
f 752 743 753 762
f 753 754 764 763
f 754 755 765 764
f 755 756 766 765
f 756 757 767 766
f 757 758 768 767
f 758 759 769 768
f 759 760 770 769
f 760 761 771 770
f 761 762 772 771
f 762 753 763 772
f 763 764 774 773
f 764 765 775 774
f 765 766 776 775
f 766 767 777 776
f 767 768 778 777
f 768 769 779 778
f 769 770 780 779
f 770 771 781 780
f 771 772 782 781
f 772 763 773 782
f 773 774 784 783
f 774 775 785 784
f 775 776 786 785
f 776 777 787 786
f 777 778 788 787
f 778 779 789 788
f 779 780 790 789
f 780 781 791 790
f 781 782 792 791
f 782 773 783 792
g FrontLeg0.62
f 793 794 806 805
f 794 795 807 806
f 795 796 808 807
f 796 797 809 808
f 797 798 810 809
f 798 799 811 810
f 799 800 812 811
f 800 801 813 812
f 801 802 814 813
f 802 803 815 814
f 803 804 816 815
f 804 793 805 816
f 817 794 793
f 818 805 806
f 817 795 794
f 818 806 807
f 817 796 795
f 818 807 808
f 817 797 796
f 818 808 809
f 817 798 797
f 818 809 810
f 817 799 798
f 818 810 811
f 817 800 799
f 818 811 812
f 817 801 800
f 818 812 813
f 817 802 801
f 818 813 814
f 817 803 802
f 818 814 815
f 817 804 803
f 818 815 816
f 817 793 804
f 818 816 805
g FrontPaw0.62
f 819 820 830 829
f 820 821 831 830
f 821 822 832 831
f 822 823 833 832
f 823 824 834 833
f 824 825 835 834
f 825 826 836 835
f 826 827 837 836
f 827 828 838 837
f 828 819 829 838
f 829 830 840 839
f 830 831 841 840
f 831 832 842 841
f 832 833 843 842
f 833 834 844 843
f 834 835 845 844
f 835 836 846 845
f 836 837 847 846
f 837 838 848 847
f 838 829 839 848
f 839 840 850 849
f 840 841 851 850
f 841 842 852 851
f 842 843 853 852
f 843 844 854 853
f 844 845 855 854
f 845 846 856 855
f 846 847 857 856
f 847 848 858 857
f 848 839 849 858
f 849 850 860 859
f 850 851 861 860
f 851 852 862 861
f 852 853 863 862
f 853 854 864 863
f 854 855 865 864
f 855 856 866 865
f 856 857 867 866
f 857 858 868 867
f 858 849 859 868
f 859 860 870 869
f 860 861 871 870
f 861 862 872 871
f 862 863 873 872
f 863 864 874 873
f 864 865 875 874
f 865 866 876 875
f 866 867 877 876
f 867 868 878 877
f 868 859 869 878
f 869 870 880 879
f 870 871 881 880
f 871 872 882 881
f 872 873 883 882
f 873 874 884 883
f 874 875 885 884
f 875 876 886 885
f 876 877 887 886
f 877 878 888 887
f 878 869 879 888
g BackLeg0.62
f 889 890 902 901
f 890 891 903 902
f 891 892 904 903
f 892 893 905 904
f 893 894 906 905
f 894 895 907 906
f 895 896 908 907
f 896 897 909 908
f 897 898 910 909
f 898 899 911 910
f 899 900 912 911
f 900 889 901 912
f 913 890 889
f 914 901 902
f 913 891 890
f 914 902 903
f 913 892 891
f 914 903 904
f 913 893 892
f 914 904 905
f 913 894 893
f 914 905 906
f 913 895 894
f 914 906 907
f 913 896 895
f 914 907 908
f 913 897 896
f 914 908 909
f 913 898 897
f 914 909 910
f 913 899 898
f 914 910 911
f 913 900 899
f 914 911 912
f 913 889 900
f 914 912 901
g BackPaw0.62
f 915 916 926 925
f 916 917 927 926
f 917 918 928 927
f 918 919 929 928
f 919 920 930 929
f 920 921 931 930
f 921 922 932 931
f 922 923 933 932
f 923 924 934 933
f 924 915 925 934
f 925 926 936 935
f 926 927 937 936
f 927 928 938 937
f 928 929 939 938
f 929 930 940 939
f 930 931 941 940
f 931 932 942 941
f 932 933 943 942
f 933 934 944 943
f 934 925 935 944
f 935 936 946 945
f 936 937 947 946
f 937 938 948 947
f 938 939 949 948
f 939 940 950 949
f 940 941 951 950
f 941 942 952 951
f 942 943 953 952
f 943 944 954 953
f 944 935 945 954
f 945 946 956 955
f 946 947 957 956
f 947 948 958 957
f 948 949 959 958
f 949 950 960 959
f 950 951 961 960
f 951 952 962 961
f 952 953 963 962
f 953 954 964 963
f 954 945 955 964
f 955 956 966 965
f 956 957 967 966
f 957 958 968 967
f 958 959 969 968
f 959 960 970 969
f 960 961 971 970
f 961 962 972 971
f 962 963 973 972
f 963 964 974 973
f 964 955 965 974
f 965 966 976 975
f 966 967 977 976
f 967 968 978 977
f 968 969 979 978
f 969 970 980 979
f 970 971 981 980
f 971 972 982 981
f 972 973 983 982
f 973 974 984 983
f 974 965 975 984
g TailA
usemtl FOX_RED
f 985 986 1000 999
f 986 987 1001 1000
f 987 988 1002 1001
f 988 989 1003 1002
f 989 990 1004 1003
f 990 991 1005 1004
f 991 992 1006 1005
f 992 993 1007 1006
f 993 994 1008 1007
f 994 995 1009 1008
f 995 996 1010 1009
f 996 997 1011 1010
f 997 998 1012 1011
f 998 985 999 1012
f 1013 986 985
f 1014 999 1000
f 1013 987 986
f 1014 1000 1001
f 1013 988 987
f 1014 1001 1002
f 1013 989 988
f 1014 1002 1003
f 1013 990 989
f 1014 1003 1004
f 1013 991 990
f 1014 1004 1005
f 1013 992 991
f 1014 1005 1006
f 1013 993 992
f 1014 1006 1007
f 1013 994 993
f 1014 1007 1008
f 1013 995 994
f 1014 1008 1009
f 1013 996 995
f 1014 1009 1010
f 1013 997 996
f 1014 1010 1011
f 1013 998 997
f 1014 1011 1012
f 1013 985 998
f 1014 1012 999
g TailB
usemtl FLAME_ORANGE
f 1015 1016 1030 1029
f 1016 1017 1031 1030
f 1017 1018 1032 1031
f 1018 1019 1033 1032
f 1019 1020 1034 1033
f 1020 1021 1035 1034
f 1021 1022 1036 1035
f 1022 1023 1037 1036
f 1023 1024 1038 1037
f 1024 1025 1039 1038
f 1025 1026 1040 1039
f 1026 1027 1041 1040
f 1027 1028 1042 1041
f 1028 1015 1029 1042
f 1043 1016 1015
f 1044 1029 1030
f 1043 1017 1016
f 1044 1030 1031
f 1043 1018 1017
f 1044 1031 1032
f 1043 1019 1018
f 1044 1032 1033
f 1043 1020 1019
f 1044 1033 1034
f 1043 1021 1020
f 1044 1034 1035
f 1043 1022 1021
f 1044 1035 1036
f 1043 1023 1022
f 1044 1036 1037
f 1043 1024 1023
f 1044 1037 1038
f 1043 1025 1024
f 1044 1038 1039
f 1043 1026 1025
f 1044 1039 1040
f 1043 1027 1026
f 1044 1040 1041
f 1043 1028 1027
f 1044 1041 1042
f 1043 1015 1028
f 1044 1042 1029
g TailC
usemtl FLAME_YELLOW
f 1045 1046 1058 1057
f 1046 1047 1059 1058
f 1047 1048 1060 1059
f 1048 1049 1061 1060
f 1049 1050 1062 1061
f 1050 1051 1063 1062
f 1051 1052 1064 1063
f 1052 1053 1065 1064
f 1053 1054 1066 1065
f 1054 1055 1067 1066
f 1055 1056 1068 1067
f 1056 1045 1057 1068
f 1069 1046 1045
f 1070 1057 1058
f 1069 1047 1046
f 1070 1058 1059
f 1069 1048 1047
f 1070 1059 1060
f 1069 1049 1048
f 1070 1060 1061
f 1069 1050 1049
f 1070 1061 1062
f 1069 1051 1050
f 1070 1062 1063
f 1069 1052 1051
f 1070 1063 1064
f 1069 1053 1052
f 1070 1064 1065
f 1069 1054 1053
f 1070 1065 1066
f 1069 1055 1054
f 1070 1066 1067
f 1069 1056 1055
f 1070 1067 1068
f 1069 1045 1056
f 1070 1068 1057
g EyeL
usemtl EYE_DARK
f 1071 1072 1082 1081
f 1072 1073 1083 1082
f 1073 1074 1084 1083
f 1074 1075 1085 1084
f 1075 1076 1086 1085
f 1076 1077 1087 1086
f 1077 1078 1088 1087
f 1078 1079 1089 1088
f 1079 1080 1090 1089
f 1080 1071 1081 1090
f 1081 1082 1092 1091
f 1082 1083 1093 1092
f 1083 1084 1094 1093
f 1084 1085 1095 1094
f 1085 1086 1096 1095
f 1086 1087 1097 1096
f 1087 1088 1098 1097
f 1088 1089 1099 1098
f 1089 1090 1100 1099
f 1090 1081 1091 1100
f 1091 1092 1102 1101
f 1092 1093 1103 1102
f 1093 1094 1104 1103
f 1094 1095 1105 1104
f 1095 1096 1106 1105
f 1096 1097 1107 1106
f 1097 1098 1108 1107
f 1098 1099 1109 1108
f 1099 1100 1110 1109
f 1100 1091 1101 1110
f 1101 1102 1112 1111
f 1102 1103 1113 1112
f 1103 1104 1114 1113
f 1104 1105 1115 1114
f 1105 1106 1116 1115
f 1106 1107 1117 1116
f 1107 1108 1118 1117
f 1108 1109 1119 1118
f 1109 1110 1120 1119
f 1110 1101 1111 1120
f 1111 1112 1122 1121
f 1112 1113 1123 1122
f 1113 1114 1124 1123
f 1114 1115 1125 1124
f 1115 1116 1126 1125
f 1116 1117 1127 1126
f 1117 1118 1128 1127
f 1118 1119 1129 1128
f 1119 1120 1130 1129
f 1120 1111 1121 1130
f 1121 1122 1132 1131
f 1122 1123 1133 1132
f 1123 1124 1134 1133
f 1124 1125 1135 1134
f 1125 1126 1136 1135
f 1126 1127 1137 1136
f 1127 1128 1138 1137
f 1128 1129 1139 1138
f 1129 1130 1140 1139
f 1130 1121 1131 1140
g EyeR
f 1141 1142 1152 1151
f 1142 1143 1153 1152
f 1143 1144 1154 1153
f 1144 1145 1155 1154
f 1145 1146 1156 1155
f 1146 1147 1157 1156
f 1147 1148 1158 1157
f 1148 1149 1159 1158
f 1149 1150 1160 1159
f 1150 1141 1151 1160
f 1151 1152 1162 1161
f 1152 1153 1163 1162
f 1153 1154 1164 1163
f 1154 1155 1165 1164
f 1155 1156 1166 1165
f 1156 1157 1167 1166
f 1157 1158 1168 1167
f 1158 1159 1169 1168
f 1159 1160 1170 1169
f 1160 1151 1161 1170
f 1161 1162 1172 1171
f 1162 1163 1173 1172
f 1163 1164 1174 1173
f 1164 1165 1175 1174
f 1165 1166 1176 1175
f 1166 1167 1177 1176
f 1167 1168 1178 1177
f 1168 1169 1179 1178
f 1169 1170 1180 1179
f 1170 1161 1171 1180
f 1171 1172 1182 1181
f 1172 1173 1183 1182
f 1173 1174 1184 1183
f 1174 1175 1185 1184
f 1175 1176 1186 1185
f 1176 1177 1187 1186
f 1177 1178 1188 1187
f 1178 1179 1189 1188
f 1179 1180 1190 1189
f 1180 1171 1181 1190
f 1181 1182 1192 1191
f 1182 1183 1193 1192
f 1183 1184 1194 1193
f 1184 1185 1195 1194
f 1185 1186 1196 1195
f 1186 1187 1197 1196
f 1187 1188 1198 1197
f 1188 1189 1199 1198
f 1189 1190 1200 1199
f 1190 1181 1191 1200
f 1191 1192 1202 1201
f 1192 1193 1203 1202
f 1193 1194 1204 1203
f 1194 1195 1205 1204
f 1195 1196 1206 1205
f 1196 1197 1207 1206
f 1197 1198 1208 1207
f 1198 1199 1209 1208
f 1199 1200 1210 1209
f 1200 1191 1201 1210
g Nose
f 1211 1212 1222 1221
f 1212 1213 1223 1222
f 1213 1214 1224 1223
f 1214 1215 1225 1224
f 1215 1216 1226 1225
f 1216 1217 1227 1226
f 1217 1218 1228 1227
f 1218 1219 1229 1228
f 1219 1220 1230 1229
f 1220 1211 1221 1230
f 1221 1222 1232 1231
f 1222 1223 1233 1232
f 1223 1224 1234 1233
f 1224 1225 1235 1234
f 1225 1226 1236 1235
f 1226 1227 1237 1236
f 1227 1228 1238 1237
f 1228 1229 1239 1238
f 1229 1230 1240 1239
f 1230 1221 1231 1240
f 1231 1232 1242 1241
f 1232 1233 1243 1242
f 1233 1234 1244 1243
f 1234 1235 1245 1244
f 1235 1236 1246 1245
f 1236 1237 1247 1246
f 1237 1238 1248 1247
f 1238 1239 1249 1248
f 1239 1240 1250 1249
f 1240 1231 1241 1250
f 1241 1242 1252 1251
f 1242 1243 1253 1252
f 1243 1244 1254 1253
f 1244 1245 1255 1254
f 1245 1246 1256 1255
f 1246 1247 1257 1256
f 1247 1248 1258 1257
f 1248 1249 1259 1258
f 1249 1250 1260 1259
f 1250 1241 1251 1260
f 1251 1252 1262 1261
f 1252 1253 1263 1262
f 1253 1254 1264 1263
f 1254 1255 1265 1264
f 1255 1256 1266 1265
f 1256 1257 1267 1266
f 1257 1258 1268 1267
f 1258 1259 1269 1268
f 1259 1260 1270 1269
f 1260 1251 1261 1270
f 1261 1262 1272 1271
f 1262 1263 1273 1272
f 1263 1264 1274 1273
f 1264 1265 1275 1274
f 1265 1266 1276 1275
f 1266 1267 1277 1276
f 1267 1268 1278 1277
f 1268 1269 1279 1278
f 1269 1270 1280 1279
f 1270 1261 1271 1280
