# lamp - project-original survival asset
mtllib survival-core-world.mtl
o lamp
v -0.725 -0.725 0
v 0.725 -0.725 0
v 0.725 0.725 0
v -0.725 0.725 0
v -0.725 -0.725 0.32
v 0.725 -0.725 0.32
v 0.725 0.725 0.32
v -0.725 0.725 0.32
v 0 0 0.16
v 0 0 0.16
v 0 0 0.16
v 0 0 0.16
v 0 0 0.16
v 0 0 0.16
v 0 0 0.16
v 0 0 0.16
v 0 0 0.16
v 0 0 0.16
v 0 0 0.16
v 0 0 0.16
v 0 0 0.16
v 0 0 0.16
v 0.2143 0 0.19502
v 0.19308 0.09298 0.19502
v 0.13362 0.16755 0.19502
v 0.04769 0.20893 0.19502
v -0.04769 0.20893 0.19502
v -0.13362 0.16755 0.19502
v -0.19308 0.09298 0.19502
v -0.2143 0 0.19502
v -0.19308 -0.09298 0.19502
v -0.13362 -0.16755 0.19502
v -0.04769 -0.20893 0.19502
v 0.04769 -0.20893 0.19502
v 0.13362 -0.16755 0.19502
v 0.19308 -0.09298 0.19502
v 0.39598 0 0.29473
v 0.35677 0.17181 0.29473
v 0.24689 0.30959 0.29473
v 0.08811 0.38605 0.29473
v -0.08811 0.38605 0.29473
v -0.24689 0.30959 0.29473
v -0.35677 0.17181 0.29473
v -0.39598 0 0.29473
v -0.35677 -0.17181 0.29473
v -0.24689 -0.30959 0.29473
v -0.08811 -0.38605 0.29473
v 0.08811 -0.38605 0.29473
v 0.24689 -0.30959 0.29473
v 0.35677 -0.17181 0.29473
v 0.51737 0 0.44397
v 0.46614 0.22448 0.44397
v 0.32258 0.4045 0.44397
v 0.11513 0.5044 0.44397
v -0.11513 0.5044 0.44397
v -0.32258 0.4045 0.44397
v -0.46614 0.22448 0.44397
v -0.51737 0 0.44397
v -0.46614 -0.22448 0.44397
v -0.32258 -0.4045 0.44397
v -0.11513 -0.5044 0.44397
v 0.11513 -0.5044 0.44397
v 0.32258 -0.4045 0.44397
v 0.46614 -0.22448 0.44397
v 0.56 0 0.62
v 0.50454 0.24297 0.62
v 0.34915 0.43783 0.62
v 0.12461 0.54596 0.62
v -0.12461 0.54596 0.62
v -0.34915 0.43783 0.62
v -0.50454 0.24297 0.62
v -0.56 0 0.62
v -0.50454 -0.24297 0.62
v -0.34915 -0.43783 0.62
v -0.12461 -0.54596 0.62
v 0.12461 -0.54596 0.62
v 0.34915 -0.43783 0.62
v 0.50454 -0.24297 0.62
v 0.51737 0 0.79603
v 0.46614 0.22448 0.79603
v 0.32258 0.4045 0.79603
v 0.11513 0.5044 0.79603
v -0.11513 0.5044 0.79603
v -0.32258 0.4045 0.79603
v -0.46614 0.22448 0.79603
v -0.51737 0 0.79603
v -0.46614 -0.22448 0.79603
v -0.32258 -0.4045 0.79603
v -0.11513 -0.5044 0.79603
v 0.11513 -0.5044 0.79603
v 0.32258 -0.4045 0.79603
v 0.46614 -0.22448 0.79603
v 0.39598 0 0.94527
v 0.35677 0.17181 0.94527
v 0.24689 0.30959 0.94527
v 0.08811 0.38605 0.94527
v -0.08811 0.38605 0.94527
v -0.24689 0.30959 0.94527
v -0.35677 0.17181 0.94527
v -0.39598 0 0.94527
v -0.35677 -0.17181 0.94527
v -0.24689 -0.30959 0.94527
v -0.08811 -0.38605 0.94527
v 0.08811 -0.38605 0.94527
v 0.24689 -0.30959 0.94527
v 0.35677 -0.17181 0.94527
v 0.2143 0 1.04498
v 0.19308 0.09298 1.04498
v 0.13362 0.16755 1.04498
v 0.04769 0.20893 1.04498
v -0.04769 0.20893 1.04498
v -0.13362 0.16755 1.04498
v -0.19308 0.09298 1.04498
v -0.2143 0 1.04498
v -0.19308 -0.09298 1.04498
v -0.13362 -0.16755 1.04498
v -0.04769 -0.20893 1.04498
v 0.04769 -0.20893 1.04498
v 0.13362 -0.16755 1.04498
v 0.19308 -0.09298 1.04498
v 0 0 1.08
v 0 0 1.08
v 0 0 1.08
v 0 0 1.08
v 0 0 1.08
v 0 0 1.08
v 0 0 1.08
v 0 0 1.08
v 0 0 1.08
v 0 0 1.08
v 0 0 1.08
v 0 0 1.08
v 0 0 1.08
v 0 0 1.08
v 0 0 0.67
v 0 0 0.67
v 0 0 0.67
v 0 0 0.67
v 0 0 0.67
v 0 0 0.67
v 0 0 0.67
v 0 0 0.67
v 0 0 0.67
v 0 0 0.67
v 0 0 0.67
v 0 0 0.67
v 0 0 0.67
v 0 0 0.67
v 0.18369 0 0.72176
v 0.1655 0.0797 0.72176
v 0.11453 0.14361 0.72176
v 0.04087 0.17908 0.72176
v -0.04087 0.17908 0.72176
v -0.11453 0.14361 0.72176
v -0.1655 0.0797 0.72176
v -0.18369 0 0.72176
v -0.1655 -0.0797 0.72176
v -0.11453 -0.14361 0.72176
v -0.04087 -0.17908 0.72176
v 0.04087 -0.17908 0.72176
v 0.11453 -0.14361 0.72176
v 0.1655 -0.0797 0.72176
v 0.33941 0 0.86917
v 0.3058 0.14727 0.86917
v 0.21162 0.26536 0.86917
v 0.07553 0.3309 0.86917
v -0.07553 0.3309 0.86917
v -0.21162 0.26536 0.86917
v -0.3058 0.14727 0.86917
v -0.33941 0 0.86917
v -0.3058 -0.14727 0.86917
v -0.21162 -0.26536 0.86917
v -0.07553 -0.3309 0.86917
v 0.07553 -0.3309 0.86917
v 0.21162 -0.26536 0.86917
v 0.3058 -0.14727 0.86917
v 0.44346 0 1.08978
v 0.39955 0.19241 1.08978
v 0.27649 0.34671 1.08978
v 0.09868 0.43234 1.08978
v -0.09868 0.43234 1.08978
v -0.27649 0.34671 1.08978
v -0.39955 0.19241 1.08978
v -0.44346 0 1.08978
v -0.39955 -0.19241 1.08978
v -0.27649 -0.34671 1.08978
v -0.09868 -0.43234 1.08978
v 0.09868 -0.43234 1.08978
v 0.27649 -0.34671 1.08978
v 0.39955 -0.19241 1.08978
v 0.48 0 1.35
v 0.43247 0.20826 1.35
v 0.29928 0.37528 1.35
v 0.10681 0.46797 1.35
v -0.10681 0.46797 1.35
v -0.29928 0.37528 1.35
v -0.43247 0.20826 1.35
v -0.48 0 1.35
v -0.43247 -0.20826 1.35
v -0.29928 -0.37528 1.35
v -0.10681 -0.46797 1.35
v 0.10681 -0.46797 1.35
v 0.29928 -0.37528 1.35
v 0.43247 -0.20826 1.35
v 0.44346 0 1.61022
v 0.39955 0.19241 1.61022
v 0.27649 0.34671 1.61022
v 0.09868 0.43234 1.61022
v -0.09868 0.43234 1.61022
v -0.27649 0.34671 1.61022
v -0.39955 0.19241 1.61022
v -0.44346 0 1.61022
v -0.39955 -0.19241 1.61022
v -0.27649 -0.34671 1.61022
v -0.09868 -0.43234 1.61022
v 0.09868 -0.43234 1.61022
v 0.27649 -0.34671 1.61022
v 0.39955 -0.19241 1.61022
v 0.33941 0 1.83083
v 0.3058 0.14727 1.83083
v 0.21162 0.26536 1.83083
v 0.07553 0.3309 1.83083
v -0.07553 0.3309 1.83083
v -0.21162 0.26536 1.83083
v -0.3058 0.14727 1.83083
v -0.33941 0 1.83083
v -0.3058 -0.14727 1.83083
v -0.21162 -0.26536 1.83083
v -0.07553 -0.3309 1.83083
v 0.07553 -0.3309 1.83083
v 0.21162 -0.26536 1.83083
v 0.3058 -0.14727 1.83083
v 0.18369 0 1.97824
v 0.1655 0.0797 1.97824
v 0.11453 0.14361 1.97824
v 0.04087 0.17908 1.97824
v -0.04087 0.17908 1.97824
v -0.11453 0.14361 1.97824
v -0.1655 0.0797 1.97824
v -0.18369 0 1.97824
v -0.1655 -0.0797 1.97824
v -0.11453 -0.14361 1.97824
v -0.04087 -0.17908 1.97824
v 0.04087 -0.17908 1.97824
v 0.11453 -0.14361 1.97824
v 0.1655 -0.0797 1.97824
v 0 0 2.03
v 0 0 2.03
v 0 0 2.03
v 0 0 2.03
v 0 0 2.03
v 0 0 2.03
v 0 0 2.03
v 0 0 2.03
v 0 0 2.03
v 0 0 2.03
v 0 0 2.03
v 0 0 2.03
v 0 0 2.03
v 0 0 2.03
v 0 0 0.88
v 0 0 0.88
v 0 0 0.88
v 0 0 0.88
v 0 0 0.88
v 0 0 0.88
v 0 0 0.88
v 0 0 0.88
v 0 0 0.88
v 0 0 0.88
v 0 0 0.88
v 0 0 0.88
v 0.10413 0 0.92159
v 0.09018 0.05207 0.92159
v 0.05207 0.09018 0.92159
v 0 0.10413 0.92159
v -0.05207 0.09018 0.92159
v -0.09018 0.05207 0.92159
v -0.10413 0 0.92159
v -0.09018 -0.05207 0.92159
v -0.05207 -0.09018 0.92159
v 0 -0.10413 0.92159
v 0.05207 -0.09018 0.92159
v 0.09018 -0.05207 0.92159
v 0.18764 0 1.03813
v 0.1625 0.09382 1.03813
v 0.09382 0.1625 1.03813
v 0 0.18764 1.03813
v -0.09382 0.1625 1.03813
v -0.1625 0.09382 1.03813
v -0.18764 0 1.03813
v -0.1625 -0.09382 1.03813
v -0.09382 -0.1625 1.03813
v 0 -0.18764 1.03813
v 0.09382 -0.1625 1.03813
v 0.1625 -0.09382 1.03813
v 0.23398 0 1.20654
v 0.20263 0.11699 1.20654
v 0.11699 0.20263 1.20654
v 0 0.23398 1.20654
v -0.11699 0.20263 1.20654
v -0.20263 0.11699 1.20654
v -0.23398 0 1.20654
v -0.20263 -0.11699 1.20654
v -0.11699 -0.20263 1.20654
v 0 -0.23398 1.20654
v 0.11699 -0.20263 1.20654
v 0.20263 -0.11699 1.20654
v 0.23398 0 1.39346
v 0.20263 0.11699 1.39346
v 0.11699 0.20263 1.39346
v 0 0.23398 1.39346
v -0.11699 0.20263 1.39346
v -0.20263 0.11699 1.39346
v -0.23398 0 1.39346
v -0.20263 -0.11699 1.39346
v -0.11699 -0.20263 1.39346
v 0 -0.23398 1.39346
v 0.11699 -0.20263 1.39346
v 0.20263 -0.11699 1.39346
v 0.18764 0 1.56187
v 0.1625 0.09382 1.56187
v 0.09382 0.1625 1.56187
v 0 0.18764 1.56187
v -0.09382 0.1625 1.56187
v -0.1625 0.09382 1.56187
v -0.18764 0 1.56187
v -0.1625 -0.09382 1.56187
v -0.09382 -0.1625 1.56187
v 0 -0.18764 1.56187
v 0.09382 -0.1625 1.56187
v 0.1625 -0.09382 1.56187
v 0.10413 0 1.67841
v 0.09018 0.05207 1.67841
v 0.05207 0.09018 1.67841
v 0 0.10413 1.67841
v -0.05207 0.09018 1.67841
v -0.09018 0.05207 1.67841
v -0.10413 0 1.67841
v -0.09018 -0.05207 1.67841
v -0.05207 -0.09018 1.67841
v 0 -0.10413 1.67841
v 0.05207 -0.09018 1.67841
v 0.09018 -0.05207 1.67841
v 0 0 1.72
v 0 0 1.72
v 0 0 1.72
v 0 0 1.72
v 0 0 1.72
v 0 0 1.72
v 0 0 1.72
v 0 0 1.72
v 0 0 1.72
v 0 0 1.72
v 0 0 1.72
v 0 0 1.72
v -0.59 -0.59 1.93
v 0.59 -0.59 1.93
v 0.59 0.59 1.93
v -0.59 0.59 1.93
v -0.59 -0.59 2.17
v 0.59 -0.59 2.17
v 0.59 0.59 2.17
v -0.59 0.59 2.17
v -0.525 -0.48 0.68
v -0.50806 -0.51518 0.68
v -0.46999 -0.52387 0.68
v -0.43946 -0.49952 0.68
v -0.43946 -0.46048 0.68
v -0.46999 -0.43613 0.68
v -0.50806 -0.44482 0.68
v -0.525 -0.48 2.04
v -0.50806 -0.51518 2.04
v -0.46999 -0.52387 2.04
v -0.43946 -0.49952 2.04
v -0.43946 -0.46048 2.04
v -0.46999 -0.43613 2.04
v -0.50806 -0.44482 2.04
v -0.525 0.48 0.68
v -0.50806 0.44482 0.68
v -0.46999 0.43613 0.68
v -0.43946 0.46048 0.68
v -0.43946 0.49952 0.68
v -0.46999 0.52387 0.68
v -0.50806 0.51518 0.68
v -0.525 0.48 2.04
v -0.50806 0.44482 2.04
v -0.46999 0.43613 2.04
v -0.43946 0.46048 2.04
v -0.43946 0.49952 2.04
v -0.46999 0.52387 2.04
v -0.50806 0.51518 2.04
v 0.435 -0.48 0.68
v 0.45194 -0.51518 0.68
v 0.49001 -0.52387 0.68
v 0.52054 -0.49952 0.68
v 0.52054 -0.46048 0.68
v 0.49001 -0.43613 0.68
v 0.45194 -0.44482 0.68
v 0.435 -0.48 2.04
v 0.45194 -0.51518 2.04
v 0.49001 -0.52387 2.04
v 0.52054 -0.49952 2.04
v 0.52054 -0.46048 2.04
v 0.49001 -0.43613 2.04
v 0.45194 -0.44482 2.04
v 0.435 0.48 0.68
v 0.45194 0.44482 0.68
v 0.49001 0.43613 0.68
v 0.52054 0.46048 0.68
v 0.52054 0.49952 0.68
v 0.49001 0.52387 0.68
v 0.45194 0.51518 0.68
v 0.435 0.48 2.04
v 0.45194 0.44482 2.04
v 0.49001 0.43613 2.04
v 0.52054 0.46048 2.04
v 0.52054 0.49952 2.04
v 0.49001 0.52387 2.04
v 0.45194 0.51518 2.04
v 0.66631 0 2.06808
v 0.68652 -0.043 2.07257
v 0.73195 -0.05362 2.08265
v 0.76837 -0.02386 2.09074
v 0.76837 0.02386 2.09074
v 0.73195 0.05362 2.08265
v 0.68652 0.043 2.07257
v 0.59501 0 2.38915
v 0.61522 -0.043 2.39364
v 0.66065 -0.05362 2.40373
v 0.69707 -0.02386 2.41182
v 0.69707 0.02386 2.41182
v 0.66065 0.05362 2.40373
v 0.61522 0.043 2.39364
v 0.6487 0.055 2.40107
v 0.61472 0.03429 2.37471
v 0.60633 -0.01224 2.3682
v 0.62984 -0.04955 2.38644
v 0.66755 -0.04955 2.4157
v 0.69106 -0.01224 2.43395
v 0.68267 0.03429 2.42743
v 0.44891 0.055 2.65856
v 0.41494 0.03429 2.63219
v 0.40655 -0.01224 2.62568
v 0.43006 -0.04955 2.64393
v 0.46777 -0.04955 2.67318
v 0.49128 -0.01224 2.69143
v 0.48289 0.03429 2.68492
v 0.44891 0.055 2.65856
v 0.42984 0.03429 2.62002
v 0.42513 -0.01224 2.6105
v 0.43833 -0.04955 2.63717
v 0.4595 -0.04955 2.67994
v 0.4727 -0.01224 2.70661
v 0.46799 0.03429 2.69709
v 0.16022 0.055 2.80145
v 0.14114 0.03429 2.76291
v 0.13643 -0.01224 2.75339
v 0.14963 -0.04955 2.78006
v 0.1708 -0.04955 2.82283
v 0.184 -0.01224 2.8495
v 0.17929 0.03429 2.83999
v 0.16022 0.055 2.80145
v 0.16022 0.03429 2.75845
v 0.16022 -0.01224 2.74783
v 0.16022 -0.04955 2.77758
v 0.16022 -0.04955 2.82531
v 0.16022 -0.01224 2.85507
v 0.16022 0.03429 2.84445
v -0.16022 0.055 2.80145
v -0.16022 0.03429 2.75845
v -0.16022 -0.01224 2.74783
v -0.16022 -0.04955 2.77758
v -0.16022 -0.04955 2.82531
v -0.16022 -0.01224 2.85507
v -0.16022 0.03429 2.84445
v -0.16022 0.055 2.80145
v -0.14114 0.03429 2.76291
v -0.13643 -0.01224 2.75339
v -0.14963 -0.04955 2.78006
v -0.1708 -0.04955 2.82283
v -0.184 -0.01224 2.8495
v -0.17929 0.03429 2.83999
v -0.44891 0.055 2.65856
v -0.42984 0.03429 2.62002
v -0.42513 -0.01224 2.6105
v -0.43833 -0.04955 2.63717
v -0.4595 -0.04955 2.67994
v -0.4727 -0.01224 2.70661
v -0.46799 0.03429 2.69709
v -0.44891 0.055 2.65856
v -0.41494 0.03429 2.63219
v -0.40655 -0.01224 2.62568
v -0.43006 -0.04955 2.64393
v -0.46777 -0.04955 2.67318
v -0.49128 -0.01224 2.69143
v -0.48289 0.03429 2.68492
v -0.6487 0.055 2.40107
v -0.61472 0.03429 2.37471
v -0.60633 -0.01224 2.3682
v -0.62984 -0.04955 2.38644
v -0.66755 -0.04955 2.4157
v -0.69106 -0.01224 2.43395
v -0.68267 0.03429 2.42743
v -0.59501 0 2.38915
v -0.61522 -0.043 2.39364
v -0.66065 -0.05362 2.40373
v -0.69707 -0.02386 2.41182
v -0.69707 0.02386 2.41182
v -0.66065 0.05362 2.40373
v -0.61522 0.043 2.39364
v -0.66631 0 2.06808
v -0.68652 -0.043 2.07257
v -0.73195 -0.05362 2.08265
v -0.76837 -0.02386 2.09074
v -0.76837 0.02386 2.09074
v -0.73195 0.05362 2.08265
v -0.68652 0.043 2.07257
v -0.66631 0 2.09192
v -0.68652 -0.043 2.08743
v -0.73195 -0.05362 2.07735
v -0.76837 -0.02386 2.06926
v -0.76837 0.02386 2.06926
v -0.73195 0.05362 2.07735
v -0.68652 0.043 2.08743
v -0.59501 0 1.77085
v -0.61522 -0.043 1.76636
v -0.66065 -0.05362 1.75627
v -0.69707 -0.02386 1.74818
v -0.69707 0.02386 1.74818
v -0.66065 0.05362 1.75627
v -0.61522 0.043 1.76636
v 0.36 0.045 2.18
v 0.32853 0.02806 2.16427
v 0.32076 -0.01001 2.16038
v 0.34254 -0.04054 2.17127
v 0.37746 -0.04054 2.18873
v 0.39924 -0.01001 2.19962
v 0.39147 0.02806 2.19573
v 0.22 0.025 2.46
v 0.20252 0.01559 2.45126
v 0.1982 -0.00556 2.4491
v 0.2103 -0.02252 2.45515
v 0.2297 -0.02252 2.46485
v 0.2418 -0.00556 2.4709
v 0.23748 0.01559 2.46874
v 0.14103 0.33427 2.18
v 0.13997 0.29855 2.16427
v 0.16905 0.27278 2.16038
v 0.20638 0.27637 2.17127
v 0.22384 0.30662 2.18873
v 0.20829 0.34075 2.19962
v 0.17144 0.35305 2.19573
v 0.08835 0.20303 2.46
v 0.08776 0.18318 2.45126
v 0.10392 0.16886 2.4491
v 0.12466 0.17086 2.45515
v 0.13436 0.18767 2.46485
v 0.12572 0.20662 2.4709
v 0.10524 0.21346 2.46874
v -0.21897 0.28927 2.18
v -0.18856 0.27049 2.16427
v -0.15171 0.28279 2.16038
v -0.13616 0.31692 2.17127
v -0.15362 0.34716 2.18873
v -0.19095 0.35076 2.19962
v -0.22003 0.32499 2.19573
v -0.13165 0.17803 2.46
v -0.11476 0.16759 2.45126
v -0.09428 0.17443 2.4491
v -0.08564 0.19339 2.45515
v -0.09534 0.21019 2.46485
v -0.11608 0.21219 2.4709
v -0.13224 0.19787 2.46874
v -0.36 -0.045 2.18
v -0.32853 -0.02806 2.16427
v -0.32076 0.01001 2.16038
v -0.34254 0.04054 2.17127
v -0.37746 0.04054 2.18873
v -0.39924 0.01001 2.19962
v -0.39147 -0.02806 2.19573
v -0.22 -0.025 2.46
v -0.20252 -0.01559 2.45126
v -0.1982 0.00556 2.4491
v -0.2103 0.02252 2.45515
v -0.2297 0.02252 2.46485
v -0.2418 0.00556 2.4709
v -0.23748 -0.01559 2.46874
v -0.14103 -0.33427 2.18
v -0.13997 -0.29855 2.16427
v -0.16905 -0.27278 2.16038
v -0.20638 -0.27637 2.17127
v -0.22384 -0.30662 2.18873
v -0.20829 -0.34075 2.19962
v -0.17144 -0.35305 2.19573
v -0.08835 -0.20303 2.46
v -0.08776 -0.18318 2.45126
v -0.10392 -0.16886 2.4491
v -0.12466 -0.17086 2.45515
v -0.13436 -0.18767 2.46485
v -0.12572 -0.20662 2.4709
v -0.10524 -0.21346 2.46874
v 0.21897 -0.28927 2.18
v 0.18856 -0.27049 2.16427
v 0.15171 -0.28279 2.16038
v 0.13616 -0.31692 2.17127
v 0.15362 -0.34716 2.18873
v 0.19095 -0.35076 2.19962
v 0.22003 -0.32499 2.19573
v 0.13165 -0.17803 2.46
v 0.11476 -0.16759 2.45126
v 0.09428 -0.17443 2.4491
v 0.08564 -0.19339 2.45515
v 0.09534 -0.21019 2.46485
v 0.11608 -0.21219 2.4709
v 0.13224 -0.19787 2.46874
g Base
usemtl SURVIVAL_METAL_DARK
f 1 2 3 4
f 5 8 7 6
f 1 5 6 2
f 2 6 7 3
f 3 7 8 4
f 5 1 4 8
g FuelTank
usemtl SURVIVAL_METAL
f 9 10 24 23
f 10 11 25 24
f 11 12 26 25
f 12 13 27 26
f 13 14 28 27
f 14 15 29 28
f 15 16 30 29
f 16 17 31 30
f 17 18 32 31
f 18 19 33 32
f 19 20 34 33
f 20 21 35 34
f 21 22 36 35
f 22 9 23 36
f 23 24 38 37
f 24 25 39 38
f 25 26 40 39
f 26 27 41 40
f 27 28 42 41
f 28 29 43 42
f 29 30 44 43
f 30 31 45 44
f 31 32 46 45
f 32 33 47 46
f 33 34 48 47
f 34 35 49 48
f 35 36 50 49
f 36 23 37 50
f 37 38 52 51
f 38 39 53 52
f 39 40 54 53
f 40 41 55 54
f 41 42 56 55
f 42 43 57 56
f 43 44 58 57
f 44 45 59 58
f 45 46 60 59
f 46 47 61 60
f 47 48 62 61
f 48 49 63 62
f 49 50 64 63
f 50 37 51 64
f 51 52 66 65
f 52 53 67 66
f 53 54 68 67
f 54 55 69 68
f 55 56 70 69
f 56 57 71 70
f 57 58 72 71
f 58 59 73 72
f 59 60 74 73
f 60 61 75 74
f 61 62 76 75
f 62 63 77 76
f 63 64 78 77
f 64 51 65 78
f 65 66 80 79
f 66 67 81 80
f 67 68 82 81
f 68 69 83 82
f 69 70 84 83
f 70 71 85 84
f 71 72 86 85
f 72 73 87 86
f 73 74 88 87
f 74 75 89 88
f 75 76 90 89
f 76 77 91 90
f 77 78 92 91
f 78 65 79 92
f 79 80 94 93
f 80 81 95 94
f 81 82 96 95
f 82 83 97 96
f 83 84 98 97
f 84 85 99 98
f 85 86 100 99
f 86 87 101 100
f 87 88 102 101
f 88 89 103 102
f 89 90 104 103
f 90 91 105 104
f 91 92 106 105
f 92 79 93 106
f 93 94 108 107
f 94 95 109 108
f 95 96 110 109
f 96 97 111 110
f 97 98 112 111
f 98 99 113 112
f 99 100 114 113
f 100 101 115 114
f 101 102 116 115
f 102 103 117 116
f 103 104 118 117
f 104 105 119 118
f 105 106 120 119
f 106 93 107 120
f 107 108 122 121
f 108 109 123 122
f 109 110 124 123
f 110 111 125 124
f 111 112 126 125
f 112 113 127 126
f 113 114 128 127
f 114 115 129 128
f 115 116 130 129
f 116 117 131 130
f 117 118 132 131
f 118 119 133 132
f 119 120 134 133
f 120 107 121 134
g Glass
usemtl SURVIVAL_GLASS
f 135 136 150 149
f 136 137 151 150
f 137 138 152 151
f 138 139 153 152
f 139 140 154 153
f 140 141 155 154
f 141 142 156 155
f 142 143 157 156
f 143 144 158 157
f 144 145 159 158
f 145 146 160 159
f 146 147 161 160
f 147 148 162 161
f 148 135 149 162
f 149 150 164 163
f 150 151 165 164
f 151 152 166 165
f 152 153 167 166
f 153 154 168 167
f 154 155 169 168
f 155 156 170 169
f 156 157 171 170
f 157 158 172 171
f 158 159 173 172
f 159 160 174 173
f 160 161 175 174
f 161 162 176 175
f 162 149 163 176
f 163 164 178 177
f 164 165 179 178
f 165 166 180 179
f 166 167 181 180
f 167 168 182 181
f 168 169 183 182
f 169 170 184 183
f 170 171 185 184
f 171 172 186 185
f 172 173 187 186
f 173 174 188 187
f 174 175 189 188
f 175 176 190 189
f 176 163 177 190
f 177 178 192 191
f 178 179 193 192
f 179 180 194 193
f 180 181 195 194
f 181 182 196 195
f 182 183 197 196
f 183 184 198 197
f 184 185 199 198
f 185 186 200 199
f 186 187 201 200
f 187 188 202 201
f 188 189 203 202
f 189 190 204 203
f 190 177 191 204
f 191 192 206 205
f 192 193 207 206
f 193 194 208 207
f 194 195 209 208
f 195 196 210 209
f 196 197 211 210
f 197 198 212 211
f 198 199 213 212
f 199 200 214 213
f 200 201 215 214
f 201 202 216 215
f 202 203 217 216
f 203 204 218 217
f 204 191 205 218
f 205 206 220 219
f 206 207 221 220
f 207 208 222 221
f 208 209 223 222
f 209 210 224 223
f 210 211 225 224
f 211 212 226 225
f 212 213 227 226
f 213 214 228 227
f 214 215 229 228
f 215 216 230 229
f 216 217 231 230
f 217 218 232 231
f 218 205 219 232
f 219 220 234 233
f 220 221 235 234
f 221 222 236 235
f 222 223 237 236
f 223 224 238 237
f 224 225 239 238
f 225 226 240 239
f 226 227 241 240
f 227 228 242 241
f 228 229 243 242
f 229 230 244 243
f 230 231 245 244
f 231 232 246 245
f 232 219 233 246
f 233 234 248 247
f 234 235 249 248
f 235 236 250 249
f 236 237 251 250
f 237 238 252 251
f 238 239 253 252
f 239 240 254 253
f 240 241 255 254
f 241 242 256 255
f 242 243 257 256
f 243 244 258 257
f 244 245 259 258
f 245 246 260 259
f 246 233 247 260
g GlowCore
usemtl SURVIVAL_LIGHT
f 261 262 274 273
f 262 263 275 274
f 263 264 276 275
f 264 265 277 276
f 265 266 278 277
f 266 267 279 278
f 267 268 280 279
f 268 269 281 280
f 269 270 282 281
f 270 271 283 282
f 271 272 284 283
f 272 261 273 284
f 273 274 286 285
f 274 275 287 286
f 275 276 288 287
f 276 277 289 288
f 277 278 290 289
f 278 279 291 290
f 279 280 292 291
f 280 281 293 292
f 281 282 294 293
f 282 283 295 294
f 283 284 296 295
f 284 273 285 296
f 285 286 298 297
f 286 287 299 298
f 287 288 300 299
f 288 289 301 300
f 289 290 302 301
f 290 291 303 302
f 291 292 304 303
f 292 293 305 304
f 293 294 306 305
f 294 295 307 306
f 295 296 308 307
f 296 285 297 308
f 297 298 310 309
f 298 299 311 310
f 299 300 312 311
f 300 301 313 312
f 301 302 314 313
f 302 303 315 314
f 303 304 316 315
f 304 305 317 316
f 305 306 318 317
f 306 307 319 318
f 307 308 320 319
f 308 297 309 320
f 309 310 322 321
f 310 311 323 322
f 311 312 324 323
f 312 313 325 324
f 313 314 326 325
f 314 315 327 326
f 315 316 328 327
f 316 317 329 328
f 317 318 330 329
f 318 319 331 330
f 319 320 332 331
f 320 309 321 332
f 321 322 334 333
f 322 323 335 334
f 323 324 336 335
f 324 325 337 336
f 325 326 338 337
f 326 327 339 338
f 327 328 340 339
f 328 329 341 340
f 329 330 342 341
f 330 331 343 342
f 331 332 344 343
f 332 321 333 344
f 333 334 346 345
f 334 335 347 346
f 335 336 348 347
f 336 337 349 348
f 337 338 350 349
f 338 339 351 350
f 339 340 352 351
f 340 341 353 352
f 341 342 354 353
f 342 343 355 354
f 343 344 356 355
f 344 333 345 356
g TopCap
usemtl SURVIVAL_METAL_DARK
f 357 358 359 360
f 361 364 363 362
f 357 361 362 358
f 358 362 363 359
f 359 363 364 360
f 361 357 360 364
g Cage_-0.48_-0.48
usemtl SURVIVAL_METAL
f 365 366 373 372
f 366 367 374 373
f 367 368 375 374
f 368 369 376 375
f 369 370 377 376
f 370 371 378 377
f 371 365 372 378
g Cage_-0.48_0.48
f 379 380 387 386
f 380 381 388 387
f 381 382 389 388
f 382 383 390 389
f 383 384 391 390
f 384 385 392 391
f 385 379 386 392
g Cage_0.48_-0.48
f 393 394 401 400
f 394 395 402 401
f 395 396 403 402
f 396 397 404 403
f 397 398 405 404
f 398 399 406 405
f 399 393 400 406
g Cage_0.48_0.48
f 407 408 415 414
f 408 409 416 415
f 409 410 417 416
f 410 411 418 417
f 411 412 419 418
f 412 413 420 419
f 413 407 414 420
g Handle0
usemtl SURVIVAL_METAL_DARK
f 421 422 429 428
f 422 423 430 429
f 423 424 431 430
f 424 425 432 431
f 425 426 433 432
f 426 427 434 433
f 427 421 428 434
g Handle1
f 435 436 443 442
f 436 437 444 443
f 437 438 445 444
f 438 439 446 445
f 439 440 447 446
f 440 441 448 447
f 441 435 442 448
g Handle2
f 449 450 457 456
f 450 451 458 457
f 451 452 459 458
f 452 453 460 459
f 453 454 461 460
f 454 455 462 461
f 455 449 456 462
g Handle3
f 463 464 471 470
f 464 465 472 471
f 465 466 473 472
f 466 467 474 473
f 467 468 475 474
f 468 469 476 475
f 469 463 470 476
g Handle4
f 477 478 485 484
f 478 479 486 485
f 479 480 487 486
f 480 481 488 487
f 481 482 489 488
f 482 483 490 489
f 483 477 484 490
g Handle5
f 491 492 499 498
f 492 493 500 499
f 493 494 501 500
f 494 495 502 501
f 495 496 503 502
f 496 497 504 503
f 497 491 498 504
g Handle6
f 505 506 513 512
f 506 507 514 513
f 507 508 515 514
f 508 509 516 515
f 509 510 517 516
f 510 511 518 517
f 511 505 512 518
g Handle7
f 519 520 527 526
f 520 521 528 527
f 521 522 529 528
f 522 523 530 529
f 523 524 531 530
f 524 525 532 531
f 525 519 526 532
g Vent0
usemtl SURVIVAL_METAL
f 533 534 541 540
f 534 535 542 541
f 535 536 543 542
f 536 537 544 543
f 537 538 545 544
f 538 539 546 545
f 539 533 540 546
g Vent1
f 547 548 555 554
f 548 549 556 555
f 549 550 557 556
f 550 551 558 557
f 551 552 559 558
f 552 553 560 559
f 553 547 554 560
g Vent2
f 561 562 569 568
f 562 563 570 569
f 563 564 571 570
f 564 565 572 571
f 565 566 573 572
f 566 567 574 573
f 567 561 568 574
g Vent3
f 575 576 583 582
f 576 577 584 583
f 577 578 585 584
f 578 579 586 585
f 579 580 587 586
f 580 581 588 587
f 581 575 582 588
g Vent4
f 589 590 597 596
f 590 591 598 597
f 591 592 599 598
f 592 593 600 599
f 593 594 601 600
f 594 595 602 601
f 595 589 596 602
g Vent5
f 603 604 611 610
f 604 605 612 611
f 605 606 613 612
f 606 607 614 613
f 607 608 615 614
f 608 609 616 615
f 609 603 610 616
