# leafturtle - project-original Roblox source asset
mtllib monster-adventure.mtl
o leafturtle
v 0 0.1 0.27
v 0 0.1 0.27
v 0 0.1 0.27
v 0 0.1 0.27
v 0 0.1 0.27
v 0 0.1 0.27
v 0 0.1 0.27
v 0 0.1 0.27
v 0 0.1 0.27
v 0 0.1 0.27
v 0 0.1 0.27
v 0 0.1 0.27
v 0 0.1 0.27
v 0 0.1 0.27
v 0 0.1 0.27
v 0 0.1 0.27
v 0 0.1 0.27
v 0 0.1 0.27
v 0.51915 0.1 0.30818
v 0.48784 0.31666 0.30818
v 0.39769 0.5072 0.30818
v 0.25957 0.64861 0.30818
v 0.09015 0.72386 0.30818
v -0.09015 0.72386 0.30818
v -0.25957 0.64861 0.30818
v -0.39769 0.5072 0.30818
v -0.48784 0.31666 0.30818
v -0.51915 0.1 0.30818
v -0.48784 -0.11666 0.30818
v -0.39769 -0.3072 0.30818
v -0.25957 -0.44861 0.30818
v -0.09015 -0.52386 0.30818
v 0.09015 -0.52386 0.30818
v 0.25957 -0.44861 0.30818
v 0.39769 -0.3072 0.30818
v 0.48784 -0.11666 0.30818
v 0.98748 0.1 0.41897
v 0.92793 0.51212 0.41897
v 0.75645 0.87453 0.41897
v 0.49374 1.14353 0.41897
v 0.17147 1.28665 0.41897
v -0.17147 1.28665 0.41897
v -0.49374 1.14353 0.41897
v -0.75645 0.87453 0.41897
v -0.92793 0.51212 0.41897
v -0.98748 0.1 0.41897
v -0.92793 -0.31212 0.41897
v -0.75645 -0.67453 0.41897
v -0.49374 -0.94353 0.41897
v -0.17147 -1.08665 0.41897
v 0.17147 -1.08665 0.41897
v 0.49374 -0.94353 0.41897
v 0.75645 -0.67453 0.41897
v 0.92793 -0.31212 0.41897
v 1.35915 0.1 0.59153
v 1.27718 0.66724 0.59153
v 1.04117 1.16605 0.59153
v 0.67957 1.53629 0.59153
v 0.23601 1.73329 0.59153
v -0.23601 1.73329 0.59153
v -0.67957 1.53629 0.59153
v -1.04117 1.16605 0.59153
v -1.27718 0.66724 0.59153
v -1.35915 0.1 0.59153
v -1.27718 -0.46724 0.59153
v -1.04117 -0.96605 0.59153
v -0.67957 -1.33629 0.59153
v -0.23601 -1.53329 0.59153
v 0.23601 -1.53329 0.59153
v 0.67957 -1.33629 0.59153
v 1.04117 -0.96605 0.59153
v 1.27718 -0.46724 0.59153
v 1.59777 0.1 0.80897
v 1.50142 0.76682 0.80897
v 1.22397 1.35322 0.80897
v 0.79889 1.78846 0.80897
v 0.27745 2.02005 0.80897
v -0.27745 2.02005 0.80897
v -0.79889 1.78846 0.80897
v -1.22397 1.35322 0.80897
v -1.50142 0.76682 0.80897
v -1.59777 0.1 0.80897
v -1.50142 -0.56682 0.80897
v -1.22397 -1.15322 0.80897
v -0.79889 -1.58846 0.80897
v -0.27745 -1.82005 0.80897
v 0.27745 -1.82005 0.80897
v 0.79889 -1.58846 0.80897
v 1.22397 -1.15322 0.80897
v 1.50142 -0.56682 0.80897
v 1.68 0.1 1.05
v 1.57868 0.80114 1.05
v 1.28695 1.41771 1.05
v 0.84 1.87535 1.05
v 0.29173 2.11886 1.05
v -0.29173 2.11886 1.05
v -0.84 1.87535 1.05
v -1.28695 1.41771 1.05
v -1.57868 0.80114 1.05
v -1.68 0.1 1.05
v -1.57868 -0.60114 1.05
v -1.28695 -1.21771 1.05
v -0.84 -1.67535 1.05
v -0.29173 -1.91886 1.05
v 0.29173 -1.91886 1.05
v 0.84 -1.67535 1.05
v 1.28695 -1.21771 1.05
v 1.57868 -0.60114 1.05
v 1.59777 0.1 1.29103
v 1.50142 0.76682 1.29103
v 1.22397 1.35322 1.29103
v 0.79889 1.78846 1.29103
v 0.27745 2.02005 1.29103
v -0.27745 2.02005 1.29103
v -0.79889 1.78846 1.29103
v -1.22397 1.35322 1.29103
v -1.50142 0.76682 1.29103
v -1.59777 0.1 1.29103
v -1.50142 -0.56682 1.29103
v -1.22397 -1.15322 1.29103
v -0.79889 -1.58846 1.29103
v -0.27745 -1.82005 1.29103
v 0.27745 -1.82005 1.29103
v 0.79889 -1.58846 1.29103
v 1.22397 -1.15322 1.29103
v 1.50142 -0.56682 1.29103
v 1.35915 0.1 1.50847
v 1.27718 0.66724 1.50847
v 1.04117 1.16605 1.50847
v 0.67957 1.53629 1.50847
v 0.23601 1.73329 1.50847
v -0.23601 1.73329 1.50847
v -0.67957 1.53629 1.50847
v -1.04117 1.16605 1.50847
v -1.27718 0.66724 1.50847
v -1.35915 0.1 1.50847
v -1.27718 -0.46724 1.50847
v -1.04117 -0.96605 1.50847
v -0.67957 -1.33629 1.50847
v -0.23601 -1.53329 1.50847
v 0.23601 -1.53329 1.50847
v 0.67957 -1.33629 1.50847
v 1.04117 -0.96605 1.50847
v 1.27718 -0.46724 1.50847
v 0.98748 0.1 1.68103
v 0.92793 0.51212 1.68103
v 0.75645 0.87453 1.68103
v 0.49374 1.14353 1.68103
v 0.17147 1.28665 1.68103
v -0.17147 1.28665 1.68103
v -0.49374 1.14353 1.68103
v -0.75645 0.87453 1.68103
v -0.92793 0.51212 1.68103
v -0.98748 0.1 1.68103
v -0.92793 -0.31212 1.68103
v -0.75645 -0.67453 1.68103
v -0.49374 -0.94353 1.68103
v -0.17147 -1.08665 1.68103
v 0.17147 -1.08665 1.68103
v 0.49374 -0.94353 1.68103
v 0.75645 -0.67453 1.68103
v 0.92793 -0.31212 1.68103
v 0.51915 0.1 1.79182
v 0.48784 0.31666 1.79182
v 0.39769 0.5072 1.79182
v 0.25957 0.64861 1.79182
v 0.09015 0.72386 1.79182
v -0.09015 0.72386 1.79182
v -0.25957 0.64861 1.79182
v -0.39769 0.5072 1.79182
v -0.48784 0.31666 1.79182
v -0.51915 0.1 1.79182
v -0.48784 -0.11666 1.79182
v -0.39769 -0.3072 1.79182
v -0.25957 -0.44861 1.79182
v -0.09015 -0.52386 1.79182
v 0.09015 -0.52386 1.79182
v 0.25957 -0.44861 1.79182
v 0.39769 -0.3072 1.79182
v 0.48784 -0.11666 1.79182
v 0 0.1 1.83
v 0 0.1 1.83
v 0 0.1 1.83
v 0 0.1 1.83
v 0 0.1 1.83
v 0 0.1 1.83
v 0 0.1 1.83
v 0 0.1 1.83
v 0 0.1 1.83
v 0 0.1 1.83
v 0 0.1 1.83
v 0 0.1 1.83
v 0 0.1 1.83
v 0 0.1 1.83
v 0 0.1 1.83
v 0 0.1 1.83
v 0 0.1 1.83
v 0 0.1 1.83
v 0 0.1 1.02
v 0 0.1 1.02
v 0 0.1 1.02
v 0 0.1 1.02
v 0 0.1 1.02
v 0 0.1 1.02
v 0 0.1 1.02
v 0 0.1 1.02
v 0 0.1 1.02
v 0 0.1 1.02
v 0 0.1 1.02
v 0 0.1 1.02
v 0 0.1 1.02
v 0 0.1 1.02
v 0 0.1 1.02
v 0 0.1 1.02
v 0 0.1 1.02
v 0 0.1 1.02
v 0.56637 0.1 1.0474
v 0.53222 0.34083 1.0474
v 0.43387 0.55261 1.0474
v 0.28319 0.7098 1.0474
v 0.09835 0.79344 1.0474
v -0.09835 0.79344 1.0474
v -0.28319 0.7098 1.0474
v -0.43387 0.55261 1.0474
v -0.53222 0.34083 1.0474
v -0.56637 0.1 1.0474
v -0.53222 -0.14083 1.0474
v -0.43387 -0.35261 1.0474
v -0.28319 -0.5098 1.0474
v -0.09835 -0.59344 1.0474
v 0.09835 -0.59344 1.0474
v 0.28319 -0.5098 1.0474
v 0.43387 -0.35261 1.0474
v 0.53222 -0.14083 1.0474
v 1.04652 0.1 1.12544
v 0.98341 0.54499 1.12544
v 0.80168 0.93632 1.12544
v 0.52326 1.22677 1.12544
v 0.18173 1.38131 1.12544
v -0.18173 1.38131 1.12544
v -0.52326 1.22677 1.12544
v -0.80168 0.93632 1.12544
v -0.98341 0.54499 1.12544
v -1.04652 0.1 1.12544
v -0.98341 -0.34499 1.12544
v -0.80168 -0.73632 1.12544
v -0.52326 -1.02677 1.12544
v -0.18173 -1.18131 1.12544
v 0.18173 -1.18131 1.12544
v 0.52326 -1.02677 1.12544
v 0.80168 -0.73632 1.12544
v 0.98341 -0.34499 1.12544
v 1.36734 0.1 1.24223
v 1.28488 0.68141 1.24223
v 1.04744 1.1927 1.24223
v 0.68367 1.57219 1.24223
v 0.23744 1.77411 1.24223
v -0.23744 1.77411 1.24223
v -0.68367 1.57219 1.24223
v -1.04744 1.1927 1.24223
v -1.28488 0.68141 1.24223
v -1.36734 0.1 1.24223
v -1.28488 -0.48141 1.24223
v -1.04744 -0.9927 1.24223
v -0.68367 -1.37219 1.24223
v -0.23744 -1.57411 1.24223
v 0.23744 -1.57411 1.24223
v 0.68367 -1.37219 1.24223
v 1.04744 -0.9927 1.24223
v 1.28488 -0.48141 1.24223
v 1.48 0.1 1.38
v 1.39075 0.72932 1.38
v 1.13375 1.28273 1.38
v 0.74 1.69349 1.38
v 0.257 1.91205 1.38
v -0.257 1.91205 1.38
v -0.74 1.69349 1.38
v -1.13375 1.28273 1.38
v -1.39075 0.72932 1.38
v -1.48 0.1 1.38
v -1.39075 -0.52932 1.38
v -1.13375 -1.08273 1.38
v -0.74 -1.49349 1.38
v -0.257 -1.71205 1.38
v 0.257 -1.71205 1.38
v 0.74 -1.49349 1.38
v 1.13375 -1.08273 1.38
v 1.39075 -0.52932 1.38
v 1.36734 0.1 1.51777
v 1.28488 0.68141 1.51777
v 1.04744 1.1927 1.51777
v 0.68367 1.57219 1.51777
v 0.23744 1.77411 1.51777
v -0.23744 1.77411 1.51777
v -0.68367 1.57219 1.51777
v -1.04744 1.1927 1.51777
v -1.28488 0.68141 1.51777
v -1.36734 0.1 1.51777
v -1.28488 -0.48141 1.51777
v -1.04744 -0.9927 1.51777
v -0.68367 -1.37219 1.51777
v -0.23744 -1.57411 1.51777
v 0.23744 -1.57411 1.51777
v 0.68367 -1.37219 1.51777
v 1.04744 -0.9927 1.51777
v 1.28488 -0.48141 1.51777
v 1.04652 0.1 1.63456
v 0.98341 0.54499 1.63456
v 0.80168 0.93632 1.63456
v 0.52326 1.22677 1.63456
v 0.18173 1.38131 1.63456
v -0.18173 1.38131 1.63456
v -0.52326 1.22677 1.63456
v -0.80168 0.93632 1.63456
v -0.98341 0.54499 1.63456
v -1.04652 0.1 1.63456
v -0.98341 -0.34499 1.63456
v -0.80168 -0.73632 1.63456
v -0.52326 -1.02677 1.63456
v -0.18173 -1.18131 1.63456
v 0.18173 -1.18131 1.63456
v 0.52326 -1.02677 1.63456
v 0.80168 -0.73632 1.63456
v 0.98341 -0.34499 1.63456
v 0.56637 0.1 1.7126
v 0.53222 0.34083 1.7126
v 0.43387 0.55261 1.7126
v 0.28319 0.7098 1.7126
v 0.09835 0.79344 1.7126
v -0.09835 0.79344 1.7126
v -0.28319 0.7098 1.7126
v -0.43387 0.55261 1.7126
v -0.53222 0.34083 1.7126
v -0.56637 0.1 1.7126
v -0.53222 -0.14083 1.7126
v -0.43387 -0.35261 1.7126
v -0.28319 -0.5098 1.7126
v -0.09835 -0.59344 1.7126
v 0.09835 -0.59344 1.7126
v 0.28319 -0.5098 1.7126
v 0.43387 -0.35261 1.7126
v 0.53222 -0.14083 1.7126
v 0 0.1 1.74
v 0 0.1 1.74
v 0 0.1 1.74
v 0 0.1 1.74
v 0 0.1 1.74
v 0 0.1 1.74
v 0 0.1 1.74
v 0 0.1 1.74
v 0 0.1 1.74
v 0 0.1 1.74
v 0 0.1 1.74
v 0 0.1 1.74
v 0 0.1 1.74
v 0 0.1 1.74
v 0 0.1 1.74
v 0 0.1 1.74
v 0 0.1 1.74
v 0 0.1 1.74
v -0.695 -1.45 1.44
v -0.71111 -1.45 1.40111
v -0.75 -1.45 1.385
v -0.78889 -1.45 1.40111
v -0.805 -1.45 1.44
v -0.78889 -1.45 1.47889
v -0.75 -1.45 1.495
v -0.71111 -1.45 1.47889
v -0.695 1.55 1.44
v -0.71111 1.55 1.40111
v -0.75 1.55 1.385
v -0.78889 1.55 1.40111
v -0.805 1.55 1.44
v -0.78889 1.55 1.47889
v -0.75 1.55 1.495
v -0.71111 1.55 1.47889
v -0.75 -1.45 1.44
v -0.75 1.55 1.44
v 0.055 -1.45 1.44
v 0.03889 -1.45 1.40111
v 0 -1.45 1.385
v -0.03889 -1.45 1.40111
v -0.055 -1.45 1.44
v -0.03889 -1.45 1.47889
v 0 -1.45 1.495
v 0.03889 -1.45 1.47889
v 0.055 1.55 1.44
v 0.03889 1.55 1.40111
v 0 1.55 1.385
v -0.03889 1.55 1.40111
v -0.055 1.55 1.44
v -0.03889 1.55 1.47889
v 0 1.55 1.495
v 0.03889 1.55 1.47889
v 0 -1.45 1.44
v 0 1.55 1.44
v 0.805 -1.45 1.44
v 0.78889 -1.45 1.40111
v 0.75 -1.45 1.385
v 0.71111 -1.45 1.40111
v 0.695 -1.45 1.44
v 0.71111 -1.45 1.47889
v 0.75 -1.45 1.495
v 0.78889 -1.45 1.47889
v 0.805 1.55 1.44
v 0.78889 1.55 1.40111
v 0.75 1.55 1.385
v 0.71111 1.55 1.40111
v 0.695 1.55 1.44
v 0.71111 1.55 1.47889
v 0.75 1.55 1.495
v 0.78889 1.55 1.47889
v 0.75 -1.45 1.44
v 0.75 1.55 1.44
v 0 -2.05 0.54
v 0 -2.05 0.54
v 0 -2.05 0.54
v 0 -2.05 0.54
v 0 -2.05 0.54
v 0 -2.05 0.54
v 0 -2.05 0.54
v 0 -2.05 0.54
v 0 -2.05 0.54
v 0 -2.05 0.54
v 0 -2.05 0.54
v 0 -2.05 0.54
v 0 -2.05 0.54
v 0 -2.05 0.54
v 0.26022 -2.05 0.59024
v 0.23445 -1.91385 0.59024
v 0.16225 -1.80466 0.59024
v 0.05791 -1.74407 0.59024
v -0.05791 -1.74407 0.59024
v -0.16225 -1.80466 0.59024
v -0.23445 -1.91385 0.59024
v -0.26022 -2.05 0.59024
v -0.23445 -2.18615 0.59024
v -0.16225 -2.29534 0.59024
v -0.05791 -2.35593 0.59024
v 0.05791 -2.35593 0.59024
v 0.16225 -2.29534 0.59024
v 0.23445 -2.18615 0.59024
v 0.48083 -2.05 0.73331
v 0.43322 -1.79842 0.73331
v 0.29979 -1.59667 0.73331
v 0.107 -1.48471 0.73331
v -0.107 -1.48471 0.73331
v -0.29979 -1.59667 0.73331
v -0.43322 -1.79842 0.73331
v -0.48083 -2.05 0.73331
v -0.43322 -2.30158 0.73331
v -0.29979 -2.50333 0.73331
v -0.107 -2.61529 0.73331
v 0.107 -2.61529 0.73331
v 0.29979 -2.50333 0.73331
v 0.43322 -2.30158 0.73331
v 0.62824 -2.05 0.94743
v 0.56602 -1.7213 0.94743
v 0.3917 -1.4577 0.94743
v 0.1398 -1.31141 0.94743
v -0.1398 -1.31141 0.94743
v -0.3917 -1.4577 0.94743
v -0.56602 -1.7213 0.94743
v -0.62824 -2.05 0.94743
v -0.56602 -2.3787 0.94743
v -0.3917 -2.6423 0.94743
v -0.1398 -2.78859 0.94743
v 0.1398 -2.78859 0.94743
v 0.3917 -2.6423 0.94743
v 0.56602 -2.3787 0.94743
v 0.68 -2.05 1.2
v 0.61266 -1.69422 1.2
v 0.42397 -1.4089 1.2
v 0.15131 -1.25056 1.2
v -0.15131 -1.25056 1.2
v -0.42397 -1.4089 1.2
v -0.61266 -1.69422 1.2
v -0.68 -2.05 1.2
v -0.61266 -2.40578 1.2
v -0.42397 -2.6911 1.2
v -0.15131 -2.84944 1.2
v 0.15131 -2.84944 1.2
v 0.42397 -2.6911 1.2
v 0.61266 -2.40578 1.2
v 0.62824 -2.05 1.45257
v 0.56602 -1.7213 1.45257
v 0.3917 -1.4577 1.45257
v 0.1398 -1.31141 1.45257
v -0.1398 -1.31141 1.45257
v -0.3917 -1.4577 1.45257
v -0.56602 -1.7213 1.45257
v -0.62824 -2.05 1.45257
v -0.56602 -2.3787 1.45257
v -0.3917 -2.6423 1.45257
v -0.1398 -2.78859 1.45257
v 0.1398 -2.78859 1.45257
v 0.3917 -2.6423 1.45257
v 0.56602 -2.3787 1.45257
v 0.48083 -2.05 1.66669
v 0.43322 -1.79842 1.66669
v 0.29979 -1.59667 1.66669
v 0.107 -1.48471 1.66669
v -0.107 -1.48471 1.66669
v -0.29979 -1.59667 1.66669
v -0.43322 -1.79842 1.66669
v -0.48083 -2.05 1.66669
v -0.43322 -2.30158 1.66669
v -0.29979 -2.50333 1.66669
v -0.107 -2.61529 1.66669
v 0.107 -2.61529 1.66669
v 0.29979 -2.50333 1.66669
v 0.43322 -2.30158 1.66669
v 0.26022 -2.05 1.80976
v 0.23445 -1.91385 1.80976
v 0.16225 -1.80466 1.80976
v 0.05791 -1.74407 1.80976
v -0.05791 -1.74407 1.80976
v -0.16225 -1.80466 1.80976
v -0.23445 -1.91385 1.80976
v -0.26022 -2.05 1.80976
v -0.23445 -2.18615 1.80976
v -0.16225 -2.29534 1.80976
v -0.05791 -2.35593 1.80976
v 0.05791 -2.35593 1.80976
v 0.16225 -2.29534 1.80976
v 0.23445 -2.18615 1.80976
v 0 -2.05 1.86
v 0 -2.05 1.86
v 0 -2.05 1.86
v 0 -2.05 1.86
v 0 -2.05 1.86
v 0 -2.05 1.86
v 0 -2.05 1.86
v 0 -2.05 1.86
v 0 -2.05 1.86
v 0 -2.05 1.86
v 0 -2.05 1.86
v 0 -2.05 1.86
v 0 -2.05 1.86
v 0 -2.05 1.86
v 0 -2.65 0.8
v 0 -2.65 0.8
v 0 -2.65 0.8
v 0 -2.65 0.8
v 0 -2.65 0.8
v 0 -2.65 0.8
v 0 -2.65 0.8
v 0 -2.65 0.8
v 0 -2.65 0.8
v 0 -2.65 0.8
v 0 -2.65 0.8
v 0 -2.65 0.8
v 0.19525 -2.65 0.82773
v 0.16909 -2.56756 0.82773
v 0.09762 -2.50721 0.82773
v 0 -2.48512 0.82773
v -0.09762 -2.50721 0.82773
v -0.16909 -2.56756 0.82773
v -0.19525 -2.65 0.82773
v -0.16909 -2.73244 0.82773
v -0.09762 -2.79279 0.82773
v 0 -2.81488 0.82773
v 0.09762 -2.79279 0.82773
v 0.16909 -2.73244 0.82773
v 0.35182 -2.65 0.90542
v 0.30469 -2.50145 0.90542
v 0.17591 -2.39271 0.90542
v 0 -2.3529 0.90542
v -0.17591 -2.39271 0.90542
v -0.30469 -2.50145 0.90542
v -0.35182 -2.65 0.90542
v -0.30469 -2.79855 0.90542
v -0.17591 -2.90729 0.90542
v 0 -2.9471 0.90542
v 0.17591 -2.90729 0.90542
v 0.30469 -2.79855 0.90542
v 0.43872 -2.65 1.01769
v 0.37994 -2.46476 1.01769
v 0.21936 -2.32916 1.01769
v 0 -2.27953 1.01769
v -0.21936 -2.32916 1.01769
v -0.37994 -2.46476 1.01769
v -0.43872 -2.65 1.01769
v -0.37994 -2.83524 1.01769
v -0.21936 -2.97084 1.01769
v 0 -3.02047 1.01769
v 0.21936 -2.97084 1.01769
v 0.37994 -2.83524 1.01769
v 0.43872 -2.65 1.14231
v 0.37994 -2.46476 1.14231
v 0.21936 -2.32916 1.14231
v 0 -2.27953 1.14231
v -0.21936 -2.32916 1.14231
v -0.37994 -2.46476 1.14231
v -0.43872 -2.65 1.14231
v -0.37994 -2.83524 1.14231
v -0.21936 -2.97084 1.14231
v 0 -3.02047 1.14231
v 0.21936 -2.97084 1.14231
v 0.37994 -2.83524 1.14231
v 0.35182 -2.65 1.25458
v 0.30469 -2.50145 1.25458
v 0.17591 -2.39271 1.25458
v 0 -2.3529 1.25458
v -0.17591 -2.39271 1.25458
v -0.30469 -2.50145 1.25458
v -0.35182 -2.65 1.25458
v -0.30469 -2.79855 1.25458
v -0.17591 -2.90729 1.25458
v 0 -2.9471 1.25458
v 0.17591 -2.90729 1.25458
v 0.30469 -2.79855 1.25458
v 0.19525 -2.65 1.33227
v 0.16909 -2.56756 1.33227
v 0.09762 -2.50721 1.33227
v 0 -2.48512 1.33227
v -0.09762 -2.50721 1.33227
v -0.16909 -2.56756 1.33227
v -0.19525 -2.65 1.33227
v -0.16909 -2.73244 1.33227
v -0.09762 -2.79279 1.33227
v 0 -2.81488 1.33227
v 0.09762 -2.79279 1.33227
v 0.16909 -2.73244 1.33227
v 0 -2.65 1.36
v 0 -2.65 1.36
v 0 -2.65 1.36
v 0 -2.65 1.36
v 0 -2.65 1.36
v 0 -2.65 1.36
v 0 -2.65 1.36
v 0 -2.65 1.36
v 0 -2.65 1.36
v 0 -2.65 1.36
v 0 -2.65 1.36
v 0 -2.65 1.36
v -1.01678 -0.82714 0.95
v -0.89489 -0.73239 0.87183
v -0.72873 -0.7303 0.82352
v -0.58178 -0.82168 0.82352
v -0.51015 -0.97162 0.87183
v -0.54122 -1.12286 0.95
v -0.66311 -1.21761 1.02817
v -0.82927 -1.2197 1.07648
v -0.97622 -1.12832 1.07648
v -1.04785 -0.97838 1.02817
v -1.13683 -1.13383 0.35
v -1.04105 -1.05938 0.28858
v -0.9105 -1.05774 0.25062
v -0.79504 -1.12954 0.25062
v -0.73876 -1.24735 0.28858
v -0.76317 -1.36617 0.35
v -0.85895 -1.44062 0.41142
v -0.9895 -1.44226 0.44938
v -1.10496 -1.37046 0.44938
v -1.16124 -1.25265 0.41142
v -0.779 -0.975 0.95
v -0.95 -1.25 0.35
v -0.95 -1.3125 0.03
v -0.95 -1.3125 0.03
v -0.95 -1.3125 0.03
v -0.95 -1.3125 0.03
v -0.95 -1.3125 0.03
v -0.95 -1.3125 0.03
v -0.95 -1.3125 0.03
v -0.95 -1.3125 0.03
v -0.95 -1.3125 0.03
v -0.95 -1.3125 0.03
v -0.75 -1.3125 0.05947
v -0.7882 -1.16555 0.05947
v -0.8882 -1.07474 0.05947
v -1.0118 -1.07474 0.05947
v -1.1118 -1.16555 0.05947
v -1.15 -1.3125 0.05947
v -1.1118 -1.45945 0.05947
v -1.0118 -1.55026 0.05947
v -0.8882 -1.55026 0.05947
v -0.7882 -1.45945 0.05947
v -0.60359 -1.3125 0.14
v -0.66975 -1.05798 0.14
v -0.84295 -0.90068 0.14
v -1.05705 -0.90068 0.14
v -1.23025 -1.05798 0.14
v -1.29641 -1.3125 0.14
v -1.23025 -1.56702 0.14
v -1.05705 -1.72432 0.14
v -0.84295 -1.72432 0.14
v -0.66975 -1.56702 0.14
v -0.55 -1.3125 0.25
v -0.62639 -1.01861 0.25
v -0.82639 -0.83697 0.25
v -1.07361 -0.83697 0.25
v -1.27361 -1.01861 0.25
v -1.35 -1.3125 0.25
v -1.27361 -1.60639 0.25
v -1.07361 -1.78803 0.25
v -0.82639 -1.78803 0.25
v -0.62639 -1.60639 0.25
v -0.60359 -1.3125 0.36
v -0.66975 -1.05798 0.36
v -0.84295 -0.90068 0.36
v -1.05705 -0.90068 0.36
v -1.23025 -1.05798 0.36
v -1.29641 -1.3125 0.36
v -1.23025 -1.56702 0.36
v -1.05705 -1.72432 0.36
v -0.84295 -1.72432 0.36
v -0.66975 -1.56702 0.36
v -0.75 -1.3125 0.44053
v -0.7882 -1.16555 0.44053
v -0.8882 -1.07474 0.44053
v -1.0118 -1.07474 0.44053
v -1.1118 -1.16555 0.44053
v -1.15 -1.3125 0.44053
v -1.1118 -1.45945 0.44053
v -1.0118 -1.55026 0.44053
v -0.8882 -1.55026 0.44053
v -0.7882 -1.45945 0.44053
v -0.95 -1.3125 0.47
v -0.95 -1.3125 0.47
v -0.95 -1.3125 0.47
v -0.95 -1.3125 0.47
v -0.95 -1.3125 0.47
v -0.95 -1.3125 0.47
v -0.95 -1.3125 0.47
v -0.95 -1.3125 0.47
v -0.95 -1.3125 0.47
v -0.95 -1.3125 0.47
v 0.54122 -1.12286 0.95
v 0.51015 -0.97162 0.87183
v 0.58178 -0.82168 0.82352
v 0.72873 -0.7303 0.82352
v 0.89489 -0.73239 0.87183
v 1.01678 -0.82714 0.95
v 1.04785 -0.97838 1.02817
v 0.97622 -1.12832 1.07648
v 0.82927 -1.2197 1.07648
v 0.66311 -1.21761 1.02817
v 0.76317 -1.36617 0.35
v 0.73876 -1.24735 0.28858
v 0.79504 -1.12954 0.25062
v 0.9105 -1.05774 0.25062
v 1.04105 -1.05938 0.28858
v 1.13683 -1.13383 0.35
v 1.16124 -1.25265 0.41142
v 1.10496 -1.37046 0.44938
v 0.9895 -1.44226 0.44938
v 0.85895 -1.44062 0.41142
v 0.779 -0.975 0.95
v 0.95 -1.25 0.35
v 0.95 -1.3125 0.03
v 0.95 -1.3125 0.03
v 0.95 -1.3125 0.03
v 0.95 -1.3125 0.03
v 0.95 -1.3125 0.03
v 0.95 -1.3125 0.03
v 0.95 -1.3125 0.03
v 0.95 -1.3125 0.03
v 0.95 -1.3125 0.03
v 0.95 -1.3125 0.03
v 1.15 -1.3125 0.05947
v 1.1118 -1.16555 0.05947
v 1.0118 -1.07474 0.05947
v 0.8882 -1.07474 0.05947
v 0.7882 -1.16555 0.05947
v 0.75 -1.3125 0.05947
v 0.7882 -1.45945 0.05947
v 0.8882 -1.55026 0.05947
v 1.0118 -1.55026 0.05947
v 1.1118 -1.45945 0.05947
v 1.29641 -1.3125 0.14
v 1.23025 -1.05798 0.14
v 1.05705 -0.90068 0.14
v 0.84295 -0.90068 0.14
v 0.66975 -1.05798 0.14
v 0.60359 -1.3125 0.14
v 0.66975 -1.56702 0.14
v 0.84295 -1.72432 0.14
v 1.05705 -1.72432 0.14
v 1.23025 -1.56702 0.14
v 1.35 -1.3125 0.25
v 1.27361 -1.01861 0.25
v 1.07361 -0.83697 0.25
v 0.82639 -0.83697 0.25
v 0.62639 -1.01861 0.25
v 0.55 -1.3125 0.25
v 0.62639 -1.60639 0.25
v 0.82639 -1.78803 0.25
v 1.07361 -1.78803 0.25
v 1.27361 -1.60639 0.25
v 1.29641 -1.3125 0.36
v 1.23025 -1.05798 0.36
v 1.05705 -0.90068 0.36
v 0.84295 -0.90068 0.36
v 0.66975 -1.05798 0.36
v 0.60359 -1.3125 0.36
v 0.66975 -1.56702 0.36
v 0.84295 -1.72432 0.36
v 1.05705 -1.72432 0.36
v 1.23025 -1.56702 0.36
v 1.15 -1.3125 0.44053
v 1.1118 -1.16555 0.44053
v 1.0118 -1.07474 0.44053
v 0.8882 -1.07474 0.44053
v 0.7882 -1.16555 0.44053
v 0.75 -1.3125 0.44053
v 0.7882 -1.45945 0.44053
v 0.8882 -1.55026 0.44053
v 1.0118 -1.55026 0.44053
v 1.1118 -1.45945 0.44053
v 0.95 -1.3125 0.47
v 0.95 -1.3125 0.47
v 0.95 -1.3125 0.47
v 0.95 -1.3125 0.47
v 0.95 -1.3125 0.47
v 0.95 -1.3125 0.47
v 0.95 -1.3125 0.47
v 0.95 -1.3125 0.47
v 0.95 -1.3125 0.47
v 0.95 -1.3125 0.47
v -0.61484 1.01361 0.95
v -0.56716 0.86445 0.87634
v -0.62232 0.70687 0.83082
v -0.75926 0.60106 0.83082
v -0.92565 0.58743 0.87634
v -1.05796 0.67119 0.95
v -1.10564 0.82035 1.02366
v -1.05048 0.97793 1.06918
v -0.91354 1.08374 1.06918
v -0.74715 1.09737 1.02366
v -0.84592 1.21452 0.35
v -0.80846 1.09732 0.29213
v -0.8518 0.97351 0.25636
v -0.95939 0.89037 0.25636
v -1.09013 0.87967 0.29213
v -1.19408 0.94548 0.35
v -1.23154 1.06268 0.40787
v -1.1882 1.18649 0.44364
v -1.08061 1.26963 0.44364
v -0.94987 1.28033 0.40787
v -0.8364 0.8424 0.95
v -1.02 1.08 0.35
v -1.02 1.134 0.03
v -1.02 1.134 0.03
v -1.02 1.134 0.03
v -1.02 1.134 0.03
v -1.02 1.134 0.03
v -1.02 1.134 0.03
v -1.02 1.134 0.03
v -1.02 1.134 0.03
v -1.02 1.134 0.03
v -1.02 1.134 0.03
v -0.82 1.134 0.05947
v -0.8582 1.28095 0.05947
v -0.9582 1.37176 0.05947
v -1.0818 1.37176 0.05947
v -1.1818 1.28095 0.05947
v -1.22 1.134 0.05947
v -1.1818 0.98705 0.05947
v -1.0818 0.89624 0.05947
v -0.9582 0.89624 0.05947
v -0.8582 0.98705 0.05947
v -0.67359 1.134 0.14
v -0.73975 1.38852 0.14
v -0.91295 1.54582 0.14
v -1.12705 1.54582 0.14
v -1.30025 1.38852 0.14
v -1.36641 1.134 0.14
v -1.30025 0.87948 0.14
v -1.12705 0.72218 0.14
v -0.91295 0.72218 0.14
v -0.73975 0.87948 0.14
v -0.62 1.134 0.25
v -0.69639 1.42789 0.25
v -0.89639 1.60953 0.25
v -1.14361 1.60953 0.25
v -1.34361 1.42789 0.25
v -1.42 1.134 0.25
v -1.34361 0.84011 0.25
v -1.14361 0.65847 0.25
v -0.89639 0.65847 0.25
v -0.69639 0.84011 0.25
v -0.67359 1.134 0.36
v -0.73975 1.38852 0.36
v -0.91295 1.54582 0.36
v -1.12705 1.54582 0.36
v -1.30025 1.38852 0.36
v -1.36641 1.134 0.36
v -1.30025 0.87948 0.36
v -1.12705 0.72218 0.36
v -0.91295 0.72218 0.36
v -0.73975 0.87948 0.36
v -0.82 1.134 0.44053
v -0.8582 1.28095 0.44053
v -0.9582 1.37176 0.44053
v -1.0818 1.37176 0.44053
v -1.1818 1.28095 0.44053
v -1.22 1.134 0.44053
v -1.1818 0.98705 0.44053
v -1.0818 0.89624 0.44053
v -0.9582 0.89624 0.44053
v -0.8582 0.98705 0.44053
v -1.02 1.134 0.47
v -1.02 1.134 0.47
v -1.02 1.134 0.47
v -1.02 1.134 0.47
v -1.02 1.134 0.47
v -1.02 1.134 0.47
v -1.02 1.134 0.47
v -1.02 1.134 0.47
v -1.02 1.134 0.47
v -1.02 1.134 0.47
v 1.05796 0.67119 0.95
v 0.92565 0.58743 0.87634
v 0.75926 0.60106 0.83082
v 0.62232 0.70687 0.83082
v 0.56716 0.86445 0.87634
v 0.61484 1.01361 0.95
v 0.74715 1.09737 1.02366
v 0.91354 1.08374 1.06918
v 1.05048 0.97793 1.06918
v 1.10564 0.82035 1.02366
v 1.19408 0.94548 0.35
v 1.09013 0.87967 0.29213
v 0.95939 0.89037 0.25636
v 0.8518 0.97351 0.25636
v 0.80846 1.09732 0.29213
v 0.84592 1.21452 0.35
v 0.94987 1.28033 0.40787
v 1.08061 1.26963 0.44364
v 1.1882 1.18649 0.44364
v 1.23154 1.06268 0.40787
v 0.8364 0.8424 0.95
v 1.02 1.08 0.35
v 1.02 1.134 0.03
v 1.02 1.134 0.03
v 1.02 1.134 0.03
v 1.02 1.134 0.03
v 1.02 1.134 0.03
v 1.02 1.134 0.03
v 1.02 1.134 0.03
v 1.02 1.134 0.03
v 1.02 1.134 0.03
v 1.02 1.134 0.03
v 1.22 1.134 0.05947
v 1.1818 1.28095 0.05947
v 1.0818 1.37176 0.05947
v 0.9582 1.37176 0.05947
v 0.8582 1.28095 0.05947
v 0.82 1.134 0.05947
v 0.8582 0.98705 0.05947
v 0.9582 0.89624 0.05947
v 1.0818 0.89624 0.05947
v 1.1818 0.98705 0.05947
v 1.36641 1.134 0.14
v 1.30025 1.38852 0.14
v 1.12705 1.54582 0.14
v 0.91295 1.54582 0.14
v 0.73975 1.38852 0.14
v 0.67359 1.134 0.14
v 0.73975 0.87948 0.14
v 0.91295 0.72218 0.14
v 1.12705 0.72218 0.14
v 1.30025 0.87948 0.14
v 1.42 1.134 0.25
v 1.34361 1.42789 0.25
v 1.14361 1.60953 0.25
v 0.89639 1.60953 0.25
v 0.69639 1.42789 0.25
v 0.62 1.134 0.25
v 0.69639 0.84011 0.25
v 0.89639 0.65847 0.25
v 1.14361 0.65847 0.25
v 1.34361 0.84011 0.25
v 1.36641 1.134 0.36
v 1.30025 1.38852 0.36
v 1.12705 1.54582 0.36
v 0.91295 1.54582 0.36
v 0.73975 1.38852 0.36
v 0.67359 1.134 0.36
v 0.73975 0.87948 0.36
v 0.91295 0.72218 0.36
v 1.12705 0.72218 0.36
v 1.30025 0.87948 0.36
v 1.22 1.134 0.44053
v 1.1818 1.28095 0.44053
v 1.0818 1.37176 0.44053
v 0.9582 1.37176 0.44053
v 0.8582 1.28095 0.44053
v 0.82 1.134 0.44053
v 0.8582 0.98705 0.44053
v 0.9582 0.89624 0.44053
v 1.0818 0.89624 0.44053
v 1.1818 0.98705 0.44053
v 1.02 1.134 0.47
v 1.02 1.134 0.47
v 1.02 1.134 0.47
v 1.02 1.134 0.47
v 1.02 1.134 0.47
v 1.02 1.134 0.47
v 1.02 1.134 0.47
v 1.02 1.134 0.47
v 1.02 1.134 0.47
v 1.02 1.134 0.47
v -0.15 -1.7 1.92
v 0.15 -1.7 1.92
v 0.7 -1.18 1.92
v 0.12 -1.08 1.92
v -0.55 -1.16 1.92
v -0.15 -1.7 2.04
v 0.15 -1.7 2.04
v 0.7 -1.18 2.04
v 0.12 -1.08 2.04
v -0.55 -1.16 2.04
v -0.08 -0.2 1.73
v 0.08 -0.2 1.73
v 0.86 0.28 1.73
v 0.15 0.42 1.73
v -0.72 0.3 1.73
v -0.08 -0.2 1.86
v 0.08 -0.2 1.86
v 0.86 0.28 1.86
v 0.15 0.42 1.86
v -0.72 0.3 1.86
v -0.26 -2.68 1.26
v -0.26 -2.68 1.26
v -0.26 -2.68 1.26
v -0.26 -2.68 1.26
v -0.26 -2.68 1.26
v -0.26 -2.68 1.26
v -0.26 -2.68 1.26
v -0.26 -2.68 1.26
v -0.26 -2.68 1.26
v -0.26 -2.68 1.26
v -0.21 -2.68 1.27474
v -0.21955 -2.66237 1.27474
v -0.24455 -2.65147 1.27474
v -0.27545 -2.65147 1.27474
v -0.30045 -2.66237 1.27474
v -0.31 -2.68 1.27474
v -0.30045 -2.69763 1.27474
v -0.27545 -2.70853 1.27474
v -0.24455 -2.70853 1.27474
v -0.21955 -2.69763 1.27474
v -0.1734 -2.68 1.315
v -0.18994 -2.64946 1.315
v -0.23324 -2.63058 1.315
v -0.28676 -2.63058 1.315
v -0.33006 -2.64946 1.315
v -0.3466 -2.68 1.315
v -0.33006 -2.71054 1.315
v -0.28676 -2.72942 1.315
v -0.23324 -2.72942 1.315
v -0.18994 -2.71054 1.315
v -0.16 -2.68 1.37
v -0.1791 -2.64473 1.37
v -0.2291 -2.62294 1.37
v -0.2909 -2.62294 1.37
v -0.3409 -2.64473 1.37
v -0.36 -2.68 1.37
v -0.3409 -2.71527 1.37
v -0.2909 -2.73706 1.37
v -0.2291 -2.73706 1.37
v -0.1791 -2.71527 1.37
v -0.1734 -2.68 1.425
v -0.18994 -2.64946 1.425
v -0.23324 -2.63058 1.425
v -0.28676 -2.63058 1.425
v -0.33006 -2.64946 1.425
v -0.3466 -2.68 1.425
v -0.33006 -2.71054 1.425
v -0.28676 -2.72942 1.425
v -0.23324 -2.72942 1.425
v -0.18994 -2.71054 1.425
v -0.21 -2.68 1.46526
v -0.21955 -2.66237 1.46526
v -0.24455 -2.65147 1.46526
v -0.27545 -2.65147 1.46526
v -0.30045 -2.66237 1.46526
v -0.31 -2.68 1.46526
v -0.30045 -2.69763 1.46526
v -0.27545 -2.70853 1.46526
v -0.24455 -2.70853 1.46526
v -0.21955 -2.69763 1.46526
v -0.26 -2.68 1.48
v -0.26 -2.68 1.48
v -0.26 -2.68 1.48
v -0.26 -2.68 1.48
v -0.26 -2.68 1.48
v -0.26 -2.68 1.48
v -0.26 -2.68 1.48
v -0.26 -2.68 1.48
v -0.26 -2.68 1.48
v -0.26 -2.68 1.48
v 0.26 -2.68 1.26
v 0.26 -2.68 1.26
v 0.26 -2.68 1.26
v 0.26 -2.68 1.26
v 0.26 -2.68 1.26
v 0.26 -2.68 1.26
v 0.26 -2.68 1.26
v 0.26 -2.68 1.26
v 0.26 -2.68 1.26
v 0.26 -2.68 1.26
v 0.31 -2.68 1.27474
v 0.30045 -2.66237 1.27474
v 0.27545 -2.65147 1.27474
v 0.24455 -2.65147 1.27474
v 0.21955 -2.66237 1.27474
v 0.21 -2.68 1.27474
v 0.21955 -2.69763 1.27474
v 0.24455 -2.70853 1.27474
v 0.27545 -2.70853 1.27474
v 0.30045 -2.69763 1.27474
v 0.3466 -2.68 1.315
v 0.33006 -2.64946 1.315
v 0.28676 -2.63058 1.315
v 0.23324 -2.63058 1.315
v 0.18994 -2.64946 1.315
v 0.1734 -2.68 1.315
v 0.18994 -2.71054 1.315
v 0.23324 -2.72942 1.315
v 0.28676 -2.72942 1.315
v 0.33006 -2.71054 1.315
v 0.36 -2.68 1.37
v 0.3409 -2.64473 1.37
v 0.2909 -2.62294 1.37
v 0.2291 -2.62294 1.37
v 0.1791 -2.64473 1.37
v 0.16 -2.68 1.37
v 0.1791 -2.71527 1.37
v 0.2291 -2.73706 1.37
v 0.2909 -2.73706 1.37
v 0.3409 -2.71527 1.37
v 0.3466 -2.68 1.425
v 0.33006 -2.64946 1.425
v 0.28676 -2.63058 1.425
v 0.23324 -2.63058 1.425
v 0.18994 -2.64946 1.425
v 0.1734 -2.68 1.425
v 0.18994 -2.71054 1.425
v 0.23324 -2.72942 1.425
v 0.28676 -2.72942 1.425
v 0.33006 -2.71054 1.425
v 0.31 -2.68 1.46526
v 0.30045 -2.66237 1.46526
v 0.27545 -2.65147 1.46526
v 0.24455 -2.65147 1.46526
v 0.21955 -2.66237 1.46526
v 0.21 -2.68 1.46526
v 0.21955 -2.69763 1.46526
v 0.24455 -2.70853 1.46526
v 0.27545 -2.70853 1.46526
v 0.30045 -2.69763 1.46526
v 0.26 -2.68 1.48
v 0.26 -2.68 1.48
v 0.26 -2.68 1.48
v 0.26 -2.68 1.48
v 0.26 -2.68 1.48
v 0.26 -2.68 1.48
v 0.26 -2.68 1.48
v 0.26 -2.68 1.48
v 0.26 -2.68 1.48
v 0.26 -2.68 1.48
g Shell
usemtl SHELL_GREEN
f 1 2 20 19
f 2 3 21 20
f 3 4 22 21
f 4 5 23 22
f 5 6 24 23
f 6 7 25 24
f 7 8 26 25
f 8 9 27 26
f 9 10 28 27
f 10 11 29 28
f 11 12 30 29
f 12 13 31 30
f 13 14 32 31
f 14 15 33 32
f 15 16 34 33
f 16 17 35 34
f 17 18 36 35
f 18 1 19 36
f 19 20 38 37
f 20 21 39 38
f 21 22 40 39
f 22 23 41 40
f 23 24 42 41
f 24 25 43 42
f 25 26 44 43
f 26 27 45 44
f 27 28 46 45
f 28 29 47 46
f 29 30 48 47
f 30 31 49 48
f 31 32 50 49
f 32 33 51 50
f 33 34 52 51
f 34 35 53 52
f 35 36 54 53
f 36 19 37 54
f 37 38 56 55
f 38 39 57 56
f 39 40 58 57
f 40 41 59 58
f 41 42 60 59
f 42 43 61 60
f 43 44 62 61
f 44 45 63 62
f 45 46 64 63
f 46 47 65 64
f 47 48 66 65
f 48 49 67 66
f 49 50 68 67
f 50 51 69 68
f 51 52 70 69
f 52 53 71 70
f 53 54 72 71
f 54 37 55 72
f 55 56 74 73
f 56 57 75 74
f 57 58 76 75
f 58 59 77 76
f 59 60 78 77
f 60 61 79 78
f 61 62 80 79
f 62 63 81 80
f 63 64 82 81
f 64 65 83 82
f 65 66 84 83
f 66 67 85 84
f 67 68 86 85
f 68 69 87 86
f 69 70 88 87
f 70 71 89 88
f 71 72 90 89
f 72 55 73 90
f 73 74 92 91
f 74 75 93 92
f 75 76 94 93
f 76 77 95 94
f 77 78 96 95
f 78 79 97 96
f 79 80 98 97
f 80 81 99 98
f 81 82 100 99
f 82 83 101 100
f 83 84 102 101
f 84 85 103 102
f 85 86 104 103
f 86 87 105 104
f 87 88 106 105
f 88 89 107 106
f 89 90 108 107
f 90 73 91 108
f 91 92 110 109
f 92 93 111 110
f 93 94 112 111
f 94 95 113 112
f 95 96 114 113
f 96 97 115 114
f 97 98 116 115
f 98 99 117 116
f 99 100 118 117
f 100 101 119 118
f 101 102 120 119
f 102 103 121 120
f 103 104 122 121
f 104 105 123 122
f 105 106 124 123
f 106 107 125 124
f 107 108 126 125
f 108 91 109 126
f 109 110 128 127
f 110 111 129 128
f 111 112 130 129
f 112 113 131 130
f 113 114 132 131
f 114 115 133 132
f 115 116 134 133
f 116 117 135 134
f 117 118 136 135
f 118 119 137 136
f 119 120 138 137
f 120 121 139 138
f 121 122 140 139
f 122 123 141 140
f 123 124 142 141
f 124 125 143 142
f 125 126 144 143
f 126 109 127 144
f 127 128 146 145
f 128 129 147 146
f 129 130 148 147
f 130 131 149 148
f 131 132 150 149
f 132 133 151 150
f 133 134 152 151
f 134 135 153 152
f 135 136 154 153
f 136 137 155 154
f 137 138 156 155
f 138 139 157 156
f 139 140 158 157
f 140 141 159 158
f 141 142 160 159
f 142 143 161 160
f 143 144 162 161
f 144 127 145 162
f 145 146 164 163
f 146 147 165 164
f 147 148 166 165
f 148 149 167 166
f 149 150 168 167
f 150 151 169 168
f 151 152 170 169
f 152 153 171 170
f 153 154 172 171
f 154 155 173 172
f 155 156 174 173
f 156 157 175 174
f 157 158 176 175
f 158 159 177 176
f 159 160 178 177
f 160 161 179 178
f 161 162 180 179
f 162 145 163 180
f 163 164 182 181
f 164 165 183 182
f 165 166 184 183
f 166 167 185 184
f 167 168 186 185
f 168 169 187 186
f 169 170 188 187
f 170 171 189 188
f 171 172 190 189
f 172 173 191 190
f 173 174 192 191
f 174 175 193 192
f 175 176 194 193
f 176 177 195 194
f 177 178 196 195
f 178 179 197 196
f 179 180 198 197
f 180 163 181 198
g ShellTop
usemtl LEAF_GREEN
f 199 200 218 217
f 200 201 219 218
f 201 202 220 219
f 202 203 221 220
f 203 204 222 221
f 204 205 223 222
f 205 206 224 223
f 206 207 225 224
f 207 208 226 225
f 208 209 227 226
f 209 210 228 227
f 210 211 229 228
f 211 212 230 229
f 212 213 231 230
f 213 214 232 231
f 214 215 233 232
f 215 216 234 233
f 216 199 217 234
f 217 218 236 235
f 218 219 237 236
f 219 220 238 237
f 220 221 239 238
f 221 222 240 239
f 222 223 241 240
f 223 224 242 241
f 224 225 243 242
f 225 226 244 243
f 226 227 245 244
f 227 228 246 245
f 228 229 247 246
f 229 230 248 247
f 230 231 249 248
f 231 232 250 249
f 232 233 251 250
f 233 234 252 251
f 234 217 235 252
f 235 236 254 253
f 236 237 255 254
f 237 238 256 255
f 238 239 257 256
f 239 240 258 257
f 240 241 259 258
f 241 242 260 259
f 242 243 261 260
f 243 244 262 261
f 244 245 263 262
f 245 246 264 263
f 246 247 265 264
f 247 248 266 265
f 248 249 267 266
f 249 250 268 267
f 250 251 269 268
f 251 252 270 269
f 252 235 253 270
f 253 254 272 271
f 254 255 273 272
f 255 256 274 273
f 256 257 275 274
f 257 258 276 275
f 258 259 277 276
f 259 260 278 277
f 260 261 279 278
f 261 262 280 279
f 262 263 281 280
f 263 264 282 281
f 264 265 283 282
f 265 266 284 283
f 266 267 285 284
f 267 268 286 285
f 268 269 287 286
f 269 270 288 287
f 270 253 271 288
f 271 272 290 289
f 272 273 291 290
f 273 274 292 291
f 274 275 293 292
f 275 276 294 293
f 276 277 295 294
f 277 278 296 295
f 278 279 297 296
f 279 280 298 297
f 280 281 299 298
f 281 282 300 299
f 282 283 301 300
f 283 284 302 301
f 284 285 303 302
f 285 286 304 303
f 286 287 305 304
f 287 288 306 305
f 288 271 289 306
f 289 290 308 307
f 290 291 309 308
f 291 292 310 309
f 292 293 311 310
f 293 294 312 311
f 294 295 313 312
f 295 296 314 313
f 296 297 315 314
f 297 298 316 315
f 298 299 317 316
f 299 300 318 317
f 300 301 319 318
f 301 302 320 319
f 302 303 321 320
f 303 304 322 321
f 304 305 323 322
f 305 306 324 323
f 306 289 307 324
f 307 308 326 325
f 308 309 327 326
f 309 310 328 327
f 310 311 329 328
f 311 312 330 329
f 312 313 331 330
f 313 314 332 331
f 314 315 333 332
f 315 316 334 333
f 316 317 335 334
f 317 318 336 335
f 318 319 337 336
f 319 320 338 337
f 320 321 339 338
f 321 322 340 339
f 322 323 341 340
f 323 324 342 341
f 324 307 325 342
f 325 326 344 343
f 326 327 345 344
f 327 328 346 345
f 328 329 347 346
f 329 330 348 347
f 330 331 349 348
f 331 332 350 349
f 332 333 351 350
f 333 334 352 351
f 334 335 353 352
f 335 336 354 353
f 336 337 355 354
f 337 338 356 355
f 338 339 357 356
f 339 340 358 357
f 340 341 359 358
f 341 342 360 359
f 342 325 343 360
g ShellRidge-0.75
usemtl LEAF_LIGHT
f 361 362 370 369
f 362 363 371 370
f 363 364 372 371
f 364 365 373 372
f 365 366 374 373
f 366 367 375 374
f 367 368 376 375
f 368 361 369 376
f 377 362 361
f 378 369 370
f 377 363 362
f 378 370 371
f 377 364 363
f 378 371 372
f 377 365 364
f 378 372 373
f 377 366 365
f 378 373 374
f 377 367 366
f 378 374 375
f 377 368 367
f 378 375 376
f 377 361 368
f 378 376 369
g ShellRidge0
f 379 380 388 387
f 380 381 389 388
f 381 382 390 389
f 382 383 391 390
f 383 384 392 391
f 384 385 393 392
f 385 386 394 393
f 386 379 387 394
f 395 380 379
f 396 387 388
f 395 381 380
f 396 388 389
f 395 382 381
f 396 389 390
f 395 383 382
f 396 390 391
f 395 384 383
f 396 391 392
f 395 385 384
f 396 392 393
f 395 386 385
f 396 393 394
f 395 379 386
f 396 394 387
g ShellRidge0.75
f 397 398 406 405
f 398 399 407 406
f 399 400 408 407
f 400 401 409 408
f 401 402 410 409
f 402 403 411 410
f 403 404 412 411
f 404 397 405 412
f 413 398 397
f 414 405 406
f 413 399 398
f 414 406 407
f 413 400 399
f 414 407 408
f 413 401 400
f 414 408 409
f 413 402 401
f 414 409 410
f 413 403 402
f 414 410 411
f 413 404 403
f 414 411 412
f 413 397 404
f 414 412 405
g Head
usemtl TURTLE_SKIN
f 415 416 430 429
f 416 417 431 430
f 417 418 432 431
f 418 419 433 432
f 419 420 434 433
f 420 421 435 434
f 421 422 436 435
f 422 423 437 436
f 423 424 438 437
f 424 425 439 438
f 425 426 440 439
f 426 427 441 440
f 427 428 442 441
f 428 415 429 442
f 429 430 444 443
f 430 431 445 444
f 431 432 446 445
f 432 433 447 446
f 433 434 448 447
f 434 435 449 448
f 435 436 450 449
f 436 437 451 450
f 437 438 452 451
f 438 439 453 452
f 439 440 454 453
f 440 441 455 454
f 441 442 456 455
f 442 429 443 456
f 443 444 458 457
f 444 445 459 458
f 445 446 460 459
f 446 447 461 460
f 447 448 462 461
f 448 449 463 462
f 449 450 464 463
f 450 451 465 464
f 451 452 466 465
f 452 453 467 466
f 453 454 468 467
f 454 455 469 468
f 455 456 470 469
f 456 443 457 470
f 457 458 472 471
f 458 459 473 472
f 459 460 474 473
f 460 461 475 474
f 461 462 476 475
f 462 463 477 476
f 463 464 478 477
f 464 465 479 478
f 465 466 480 479
f 466 467 481 480
f 467 468 482 481
f 468 469 483 482
f 469 470 484 483
f 470 457 471 484
f 471 472 486 485
f 472 473 487 486
f 473 474 488 487
f 474 475 489 488
f 475 476 490 489
f 476 477 491 490
f 477 478 492 491
f 478 479 493 492
f 479 480 494 493
f 480 481 495 494
f 481 482 496 495
f 482 483 497 496
f 483 484 498 497
f 484 471 485 498
f 485 486 500 499
f 486 487 501 500
f 487 488 502 501
f 488 489 503 502
f 489 490 504 503
f 490 491 505 504
f 491 492 506 505
f 492 493 507 506
f 493 494 508 507
f 494 495 509 508
f 495 496 510 509
f 496 497 511 510
f 497 498 512 511
f 498 485 499 512
f 499 500 514 513
f 500 501 515 514
f 501 502 516 515
f 502 503 517 516
f 503 504 518 517
f 504 505 519 518
f 505 506 520 519
f 506 507 521 520
f 507 508 522 521
f 508 509 523 522
f 509 510 524 523
f 510 511 525 524
f 511 512 526 525
f 512 499 513 526
f 513 514 528 527
f 514 515 529 528
f 515 516 530 529
f 516 517 531 530
f 517 518 532 531
f 518 519 533 532
f 519 520 534 533
f 520 521 535 534
f 521 522 536 535
f 522 523 537 536
f 523 524 538 537
f 524 525 539 538
f 525 526 540 539
f 526 513 527 540
g Muzzle
usemtl LEAF_LIGHT
f 541 542 554 553
f 542 543 555 554
f 543 544 556 555
f 544 545 557 556
f 545 546 558 557
f 546 547 559 558
f 547 548 560 559
f 548 549 561 560
f 549 550 562 561
f 550 551 563 562
f 551 552 564 563
f 552 541 553 564
f 553 554 566 565
f 554 555 567 566
f 555 556 568 567
f 556 557 569 568
f 557 558 570 569
f 558 559 571 570
f 559 560 572 571
f 560 561 573 572
f 561 562 574 573
f 562 563 575 574
f 563 564 576 575
f 564 553 565 576
f 565 566 578 577
f 566 567 579 578
f 567 568 580 579
f 568 569 581 580
f 569 570 582 581
f 570 571 583 582
f 571 572 584 583
f 572 573 585 584
f 573 574 586 585
f 574 575 587 586
f 575 576 588 587
f 576 565 577 588
f 577 578 590 589
f 578 579 591 590
f 579 580 592 591
f 580 581 593 592
f 581 582 594 593
f 582 583 595 594
f 583 584 596 595
f 584 585 597 596
f 585 586 598 597
f 586 587 599 598
f 587 588 600 599
f 588 577 589 600
f 589 590 602 601
f 590 591 603 602
f 591 592 604 603
f 592 593 605 604
f 593 594 606 605
f 594 595 607 606
f 595 596 608 607
f 596 597 609 608
f 597 598 610 609
f 598 599 611 610
f 599 600 612 611
f 600 589 601 612
f 601 602 614 613
f 602 603 615 614
f 603 604 616 615
f 604 605 617 616
f 605 606 618 617
f 606 607 619 618
f 607 608 620 619
f 608 609 621 620
f 609 610 622 621
f 610 611 623 622
f 611 612 624 623
f 612 601 613 624
f 613 614 626 625
f 614 615 627 626
f 615 616 628 627
f 616 617 629 628
f 617 618 630 629
f 618 619 631 630
f 619 620 632 631
f 620 621 633 632
f 621 622 634 633
f 622 623 635 634
f 623 624 636 635
f 624 613 625 636
g Leg_-0.95_-1.25
usemtl TURTLE_SKIN
f 637 638 648 647
f 638 639 649 648
f 639 640 650 649
f 640 641 651 650
f 641 642 652 651
f 642 643 653 652
f 643 644 654 653
f 644 645 655 654
f 645 646 656 655
f 646 637 647 656
f 657 638 637
f 658 647 648
f 657 639 638
f 658 648 649
f 657 640 639
f 658 649 650
f 657 641 640
f 658 650 651
f 657 642 641
f 658 651 652
f 657 643 642
f 658 652 653
f 657 644 643
f 658 653 654
f 657 645 644
f 658 654 655
f 657 646 645
f 658 655 656
f 657 637 646
f 658 656 647
g Foot_-0.95_-1.25
f 659 660 670 669
f 660 661 671 670
f 661 662 672 671
f 662 663 673 672
f 663 664 674 673
f 664 665 675 674
f 665 666 676 675
f 666 667 677 676
f 667 668 678 677
f 668 659 669 678
f 669 670 680 679
f 670 671 681 680
f 671 672 682 681
f 672 673 683 682
f 673 674 684 683
f 674 675 685 684
f 675 676 686 685
f 676 677 687 686
f 677 678 688 687
f 678 669 679 688
f 679 680 690 689
f 680 681 691 690
f 681 682 692 691
f 682 683 693 692
f 683 684 694 693
f 684 685 695 694
f 685 686 696 695
f 686 687 697 696
f 687 688 698 697
f 688 679 689 698
f 689 690 700 699
f 690 691 701 700
f 691 692 702 701
f 692 693 703 702
f 693 694 704 703
f 694 695 705 704
f 695 696 706 705
f 696 697 707 706
f 697 698 708 707
f 698 689 699 708
f 699 700 710 709
f 700 701 711 710
f 701 702 712 711
f 702 703 713 712
f 703 704 714 713
f 704 705 715 714
f 705 706 716 715
f 706 707 717 716
f 707 708 718 717
f 708 699 709 718
f 709 710 720 719
f 710 711 721 720
f 711 712 722 721
f 712 713 723 722
f 713 714 724 723
f 714 715 725 724
f 715 716 726 725
f 716 717 727 726
f 717 718 728 727
f 718 709 719 728
g Leg_0.95_-1.25
f 729 730 740 739
f 730 731 741 740
f 731 732 742 741
f 732 733 743 742
f 733 734 744 743
f 734 735 745 744
f 735 736 746 745
f 736 737 747 746
f 737 738 748 747
f 738 729 739 748
f 749 730 729
f 750 739 740
f 749 731 730
f 750 740 741
f 749 732 731
f 750 741 742
f 749 733 732
f 750 742 743
f 749 734 733
f 750 743 744
f 749 735 734
f 750 744 745
f 749 736 735
f 750 745 746
f 749 737 736
f 750 746 747
f 749 738 737
f 750 747 748
f 749 729 738
f 750 748 739
g Foot_0.95_-1.25
f 751 752 762 761
f 752 753 763 762
f 753 754 764 763
f 754 755 765 764
f 755 756 766 765
f 756 757 767 766
f 757 758 768 767
f 758 759 769 768
f 759 760 770 769
f 760 751 761 770
f 761 762 772 771
f 762 763 773 772
f 763 764 774 773
f 764 765 775 774
f 765 766 776 775
f 766 767 777 776
f 767 768 778 777
f 768 769 779 778
f 769 770 780 779
f 770 761 771 780
f 771 772 782 781
f 772 773 783 782
f 773 774 784 783
f 774 775 785 784
f 775 776 786 785
f 776 777 787 786
f 777 778 788 787
f 778 779 789 788
f 779 780 790 789
f 780 771 781 790
f 781 782 792 791
f 782 783 793 792
f 783 784 794 793
f 784 785 795 794
f 785 786 796 795
f 786 787 797 796
f 787 788 798 797
f 788 789 799 798
f 789 790 800 799
f 790 781 791 800
f 791 792 802 801
f 792 793 803 802
f 793 794 804 803
f 794 795 805 804
f 795 796 806 805
f 796 797 807 806
f 797 798 808 807
f 798 799 809 808
f 799 800 810 809
f 800 791 801 810
f 801 802 812 811
f 802 803 813 812
f 803 804 814 813
f 804 805 815 814
f 805 806 816 815
f 806 807 817 816
f 807 808 818 817
f 808 809 819 818
f 809 810 820 819
f 810 801 811 820
g Leg_-1.02_1.08
f 821 822 832 831
f 822 823 833 832
f 823 824 834 833
f 824 825 835 834
f 825 826 836 835
f 826 827 837 836
f 827 828 838 837
f 828 829 839 838
f 829 830 840 839
f 830 821 831 840
f 841 822 821
f 842 831 832
f 841 823 822
f 842 832 833
f 841 824 823
f 842 833 834
f 841 825 824
f 842 834 835
f 841 826 825
f 842 835 836
f 841 827 826
f 842 836 837
f 841 828 827
f 842 837 838
f 841 829 828
f 842 838 839
f 841 830 829
f 842 839 840
f 841 821 830
f 842 840 831
g Foot_-1.02_1.08
f 843 844 854 853
f 844 845 855 854
f 845 846 856 855
f 846 847 857 856
f 847 848 858 857
f 848 849 859 858
f 849 850 860 859
f 850 851 861 860
f 851 852 862 861
f 852 843 853 862
f 853 854 864 863
f 854 855 865 864
f 855 856 866 865
f 856 857 867 866
f 857 858 868 867
f 858 859 869 868
f 859 860 870 869
f 860 861 871 870
f 861 862 872 871
f 862 853 863 872
f 863 864 874 873
f 864 865 875 874
f 865 866 876 875
f 866 867 877 876
f 867 868 878 877
f 868 869 879 878
f 869 870 880 879
f 870 871 881 880
f 871 872 882 881
f 872 863 873 882
f 873 874 884 883
f 874 875 885 884
f 875 876 886 885
f 876 877 887 886
f 877 878 888 887
f 878 879 889 888
f 879 880 890 889
f 880 881 891 890
f 881 882 892 891
f 882 873 883 892
f 883 884 894 893
f 884 885 895 894
f 885 886 896 895
f 886 887 897 896
f 887 888 898 897
f 888 889 899 898
f 889 890 900 899
f 890 891 901 900
f 891 892 902 901
f 892 883 893 902
f 893 894 904 903
f 894 895 905 904
f 895 896 906 905
f 896 897 907 906
f 897 898 908 907
f 898 899 909 908
f 899 900 910 909
f 900 901 911 910
f 901 902 912 911
f 902 893 903 912
g Leg_1.02_1.08
f 913 914 924 923
f 914 915 925 924
f 915 916 926 925
f 916 917 927 926
f 917 918 928 927
f 918 919 929 928
f 919 920 930 929
f 920 921 931 930
f 921 922 932 931
f 922 913 923 932
f 933 914 913
f 934 923 924
f 933 915 914
f 934 924 925
f 933 916 915
f 934 925 926
f 933 917 916
f 934 926 927
f 933 918 917
f 934 927 928
f 933 919 918
f 934 928 929
f 933 920 919
f 934 929 930
f 933 921 920
f 934 930 931
f 933 922 921
f 934 931 932
f 933 913 922
f 934 932 923
g Foot_1.02_1.08
f 935 936 946 945
f 936 937 947 946
f 937 938 948 947
f 938 939 949 948
f 939 940 950 949
f 940 941 951 950
f 941 942 952 951
f 942 943 953 952
f 943 944 954 953
f 944 935 945 954
f 945 946 956 955
f 946 947 957 956
f 947 948 958 957
f 948 949 959 958
f 949 950 960 959
f 950 951 961 960
f 951 952 962 961
f 952 953 963 962
f 953 954 964 963
f 954 945 955 964
f 955 956 966 965
f 956 957 967 966
f 957 958 968 967
f 958 959 969 968
f 959 960 970 969
f 960 961 971 970
f 961 962 972 971
f 962 963 973 972
f 963 964 974 973
f 964 955 965 974
f 965 966 976 975
f 966 967 977 976
f 967 968 978 977
f 968 969 979 978
f 969 970 980 979
f 970 971 981 980
f 971 972 982 981
f 972 973 983 982
f 973 974 984 983
f 974 965 975 984
f 975 976 986 985
f 976 977 987 986
f 977 978 988 987
f 978 979 989 988
f 979 980 990 989
f 980 981 991 990
f 981 982 992 991
f 982 983 993 992
f 983 984 994 993
f 984 975 985 994
f 985 986 996 995
f 986 987 997 996
f 987 988 998 997
f 988 989 999 998
f 989 990 1000 999
f 990 991 1001 1000
f 991 992 1002 1001
f 992 993 1003 1002
f 993 994 1004 1003
f 994 985 995 1004
g LeafCrest
usemtl LEAF_LIGHT
f 1005 1006 1011 1010
f 1006 1007 1012 1011
f 1007 1008 1013 1012
f 1008 1009 1014 1013
f 1009 1005 1010 1014
f 1009 1008 1007 1006 1005
f 1010 1011 1012 1013 1014
g LeafBack
f 1015 1016 1021 1020
f 1016 1017 1022 1021
f 1017 1018 1023 1022
f 1018 1019 1024 1023
f 1019 1015 1020 1024
f 1019 1018 1017 1016 1015
f 1020 1021 1022 1023 1024
g EyeL
usemtl EYE_DARK
f 1025 1026 1036 1035
f 1026 1027 1037 1036
f 1027 1028 1038 1037
f 1028 1029 1039 1038
f 1029 1030 1040 1039
f 1030 1031 1041 1040
f 1031 1032 1042 1041
f 1032 1033 1043 1042
f 1033 1034 1044 1043
f 1034 1025 1035 1044
f 1035 1036 1046 1045
f 1036 1037 1047 1046
f 1037 1038 1048 1047
f 1038 1039 1049 1048
f 1039 1040 1050 1049
f 1040 1041 1051 1050
f 1041 1042 1052 1051
f 1042 1043 1053 1052
f 1043 1044 1054 1053
f 1044 1035 1045 1054
f 1045 1046 1056 1055
f 1046 1047 1057 1056
f 1047 1048 1058 1057
f 1048 1049 1059 1058
f 1049 1050 1060 1059
f 1050 1051 1061 1060
f 1051 1052 1062 1061
f 1052 1053 1063 1062
f 1053 1054 1064 1063
f 1054 1045 1055 1064
f 1055 1056 1066 1065
f 1056 1057 1067 1066
f 1057 1058 1068 1067
f 1058 1059 1069 1068
f 1059 1060 1070 1069
f 1060 1061 1071 1070
f 1061 1062 1072 1071
f 1062 1063 1073 1072
f 1063 1064 1074 1073
f 1064 1055 1065 1074
f 1065 1066 1076 1075
f 1066 1067 1077 1076
f 1067 1068 1078 1077
f 1068 1069 1079 1078
f 1069 1070 1080 1079
f 1070 1071 1081 1080
f 1071 1072 1082 1081
f 1072 1073 1083 1082
f 1073 1074 1084 1083
f 1074 1065 1075 1084
f 1075 1076 1086 1085
f 1076 1077 1087 1086
f 1077 1078 1088 1087
f 1078 1079 1089 1088
f 1079 1080 1090 1089
f 1080 1081 1091 1090
f 1081 1082 1092 1091
f 1082 1083 1093 1092
f 1083 1084 1094 1093
f 1084 1075 1085 1094
g EyeR
f 1095 1096 1106 1105
f 1096 1097 1107 1106
f 1097 1098 1108 1107
f 1098 1099 1109 1108
f 1099 1100 1110 1109
f 1100 1101 1111 1110
f 1101 1102 1112 1111
f 1102 1103 1113 1112
f 1103 1104 1114 1113
f 1104 1095 1105 1114
f 1105 1106 1116 1115
f 1106 1107 1117 1116
f 1107 1108 1118 1117
f 1108 1109 1119 1118
f 1109 1110 1120 1119
f 1110 1111 1121 1120
f 1111 1112 1122 1121
f 1112 1113 1123 1122
f 1113 1114 1124 1123
f 1114 1105 1115 1124
f 1115 1116 1126 1125
f 1116 1117 1127 1126
f 1117 1118 1128 1127
f 1118 1119 1129 1128
f 1119 1120 1130 1129
f 1120 1121 1131 1130
f 1121 1122 1132 1131
f 1122 1123 1133 1132
f 1123 1124 1134 1133
f 1124 1115 1125 1134
f 1125 1126 1136 1135
f 1126 1127 1137 1136
f 1127 1128 1138 1137
f 1128 1129 1139 1138
f 1129 1130 1140 1139
f 1130 1131 1141 1140
f 1131 1132 1142 1141
f 1132 1133 1143 1142
f 1133 1134 1144 1143
f 1134 1125 1135 1144
f 1135 1136 1146 1145
f 1136 1137 1147 1146
f 1137 1138 1148 1147
f 1138 1139 1149 1148
f 1139 1140 1150 1149
f 1140 1141 1151 1150
f 1141 1142 1152 1151
f 1142 1143 1153 1152
f 1143 1144 1154 1153
f 1144 1135 1145 1154
f 1145 1146 1156 1155
f 1146 1147 1157 1156
f 1147 1148 1158 1157
f 1148 1149 1159 1158
f 1149 1150 1160 1159
f 1150 1151 1161 1160
f 1151 1152 1162 1161
f 1152 1153 1163 1162
f 1153 1154 1164 1163
f 1154 1145 1155 1164
