# rock_medium - project-original survival asset
mtllib survival-core-world.mtl
o rock_medium
v -0.35 0 -0.1
v -0.35 0 -0.1
v -0.35 0 -0.1
v -0.35 0 -0.1
v -0.35 0 -0.1
v -0.35 0 -0.1
v -0.35 0 -0.1
v -0.35 0 -0.1
v -0.35 0 -0.1
v -0.35 0 -0.1
v 0.1 0 -0.02631
v 0.01406 0.2116 -0.02631
v -0.21094 0.34238 -0.02631
v -0.48906 0.34238 -0.02631
v -0.71406 0.2116 -0.02631
v -0.8 0 -0.02631
v -0.71406 -0.2116 -0.02631
v -0.48906 -0.34238 -0.02631
v -0.21094 -0.34238 -0.02631
v 0.01406 -0.2116 -0.02631
v 0.42942 0 0.175
v 0.28057 0.36651 0.175
v -0.10915 0.59302 0.175
v -0.59085 0.59302 0.175
v -0.98057 0.36651 0.175
v -1.12942 0 0.175
v -0.98057 -0.36651 0.175
v -0.59085 -0.59302 0.175
v -0.10915 -0.59302 0.175
v 0.28057 -0.36651 0.175
v 0.55 0 0.45
v 0.37812 0.42321 0.45
v -0.07188 0.68476 0.45
v -0.62812 0.68476 0.45
v -1.07812 0.42321 0.45
v -1.25 0 0.45
v -1.07812 -0.42321 0.45
v -0.62812 -0.68476 0.45
v -0.07188 -0.68476 0.45
v 0.37812 -0.42321 0.45
v 0.42942 0 0.725
v 0.28057 0.36651 0.725
v -0.10915 0.59302 0.725
v -0.59085 0.59302 0.725
v -0.98057 0.36651 0.725
v -1.12942 0 0.725
v -0.98057 -0.36651 0.725
v -0.59085 -0.59302 0.725
v -0.10915 -0.59302 0.725
v 0.28057 -0.36651 0.725
v 0.1 0 0.92631
v 0.01406 0.2116 0.92631
v -0.21094 0.34238 0.92631
v -0.48906 0.34238 0.92631
v -0.71406 0.2116 0.92631
v -0.8 0 0.92631
v -0.71406 -0.2116 0.92631
v -0.48906 -0.34238 0.92631
v -0.21094 -0.34238 0.92631
v 0.01406 -0.2116 0.92631
v -0.35 0 1
v -0.35 0 1
v -0.35 0 1
v -0.35 0 1
v -0.35 0 1
v -0.35 0 1
v -0.35 0 1
v -0.35 0 1
v -0.35 0 1
v -0.35 0 1
v 0.45 0.18 -0.08
v 0.45 0.18 -0.08
v 0.45 0.18 -0.08
v 0.45 0.18 -0.08
v 0.45 0.18 -0.08
v 0.45 0.18 -0.08
v 0.45 0.18 -0.08
v 0.45 0.18 -0.08
v 0.45 0.18 -0.08
v 0.45 0.18 -0.08
v 0.81 0.18 -0.01837
v 0.74125 0.35046 -0.01837
v 0.56125 0.45581 -0.01837
v 0.33875 0.45581 -0.01837
v 0.15875 0.35046 -0.01837
v 0.09 0.18 -0.01837
v 0.15875 0.00954 -0.01837
v 0.33875 -0.09581 -0.01837
v 0.56125 -0.09581 -0.01837
v 0.74125 0.00954 -0.01837
v 1.07354 0.18 0.15
v 0.95445 0.47524 0.15
v 0.64268 0.65771 0.15
v 0.25732 0.65771 0.15
v -0.05445 0.47524 0.15
v -0.17354 0.18 0.15
v -0.05445 -0.11524 0.15
v 0.25732 -0.29771 0.15
v 0.64268 -0.29771 0.15
v 0.95445 -0.11524 0.15
v 1.17 0.18 0.38
v 1.03249 0.52092 0.38
v 0.67249 0.73161 0.38
v 0.22751 0.73161 0.38
v -0.13249 0.52092 0.38
v -0.27 0.18 0.38
v -0.13249 -0.16092 0.38
v 0.22751 -0.37161 0.38
v 0.67249 -0.37161 0.38
v 1.03249 -0.16092 0.38
v 1.07354 0.18 0.61
v 0.95445 0.47524 0.61
v 0.64268 0.65771 0.61
v 0.25732 0.65771 0.61
v -0.05445 0.47524 0.61
v -0.17354 0.18 0.61
v -0.05445 -0.11524 0.61
v 0.25732 -0.29771 0.61
v 0.64268 -0.29771 0.61
v 0.95445 -0.11524 0.61
v 0.81 0.18 0.77837
v 0.74125 0.35046 0.77837
v 0.56125 0.45581 0.77837
v 0.33875 0.45581 0.77837
v 0.15875 0.35046 0.77837
v 0.09 0.18 0.77837
v 0.15875 0.00954 0.77837
v 0.33875 -0.09581 0.77837
v 0.56125 -0.09581 0.77837
v 0.74125 0.00954 0.77837
v 0.45 0.18 0.84
v 0.45 0.18 0.84
v 0.45 0.18 0.84
v 0.45 0.18 0.84
v 0.45 0.18 0.84
v 0.45 0.18 0.84
v 0.45 0.18 0.84
v 0.45 0.18 0.84
v 0.45 0.18 0.84
v 0.45 0.18 0.84
v 0.05 -0.55 -0.05
v 0.05 -0.55 -0.05
v 0.05 -0.55 -0.05
v 0.05 -0.55 -0.05
v 0.05 -0.55 -0.05
v 0.05 -0.55 -0.05
v 0.05 -0.55 -0.05
v 0.05 -0.55 -0.05
v 0.05 -0.55 -0.05
v 0.05 -0.55 -0.05
v 0.36 -0.55 -0.00177
v 0.3008 -0.40893 -0.00177
v 0.1458 -0.32175 -0.00177
v -0.0458 -0.32175 -0.00177
v -0.2008 -0.40893 -0.00177
v -0.26 -0.55 -0.00177
v -0.2008 -0.69107 -0.00177
v -0.0458 -0.77825 -0.00177
v 0.1458 -0.77825 -0.00177
v 0.3008 -0.69107 -0.00177
v 0.58694 -0.55 0.13
v 0.48439 -0.30566 0.13
v 0.21592 -0.15465 0.13
v -0.11592 -0.15465 0.13
v -0.38439 -0.30566 0.13
v -0.48694 -0.55 0.13
v -0.38439 -0.79434 0.13
v -0.11592 -0.94535 0.13
v 0.21592 -0.94535 0.13
v 0.48439 -0.79434 0.13
v 0.67 -0.55 0.31
v 0.55159 -0.26786 0.31
v 0.24159 -0.09349 0.31
v -0.14159 -0.09349 0.31
v -0.45159 -0.26786 0.31
v -0.57 -0.55 0.31
v -0.45159 -0.83214 0.31
v -0.14159 -1.00651 0.31
v 0.24159 -1.00651 0.31
v 0.55159 -0.83214 0.31
v 0.58694 -0.55 0.49
v 0.48439 -0.30566 0.49
v 0.21592 -0.15465 0.49
v -0.11592 -0.15465 0.49
v -0.38439 -0.30566 0.49
v -0.48694 -0.55 0.49
v -0.38439 -0.79434 0.49
v -0.11592 -0.94535 0.49
v 0.21592 -0.94535 0.49
v 0.48439 -0.79434 0.49
v 0.36 -0.55 0.62177
v 0.3008 -0.40893 0.62177
v 0.1458 -0.32175 0.62177
v -0.0458 -0.32175 0.62177
v -0.2008 -0.40893 0.62177
v -0.26 -0.55 0.62177
v -0.2008 -0.69107 0.62177
v -0.0458 -0.77825 0.62177
v 0.1458 -0.77825 0.62177
v 0.3008 -0.69107 0.62177
v 0.05 -0.55 0.67
v 0.05 -0.55 0.67
v 0.05 -0.55 0.67
v 0.05 -0.55 0.67
v 0.05 -0.55 0.67
v 0.05 -0.55 0.67
v 0.05 -0.55 0.67
v 0.05 -0.55 0.67
v 0.05 -0.55 0.67
v 0.05 -0.55 0.67
v -0.8 -0.12 0.675
v -0.2 -0.28 0.835
v 0.2 -0.08 0.675
v 0.05 0.2 0.475
v -0.55 0.3 0.435
v -0.8 -0.12 0.765
v -0.2 -0.28 0.925
v 0.2 -0.08 0.765
v 0.05 0.2 0.565
v -0.55 0.3 0.525
v -0.18 0.12 0.87
v -0.18 0.12 0.87
v -0.18 0.12 0.87
v -0.18 0.12 0.87
v -0.18 0.12 0.87
v -0.18 0.12 0.87
v -0.18 0.12 0.87
v -0.18 0.12 0.87
v -0.18 0.12 0.87
v -0.18 0.12 0.87
v -0.18 0.12 0.87
v -0.18 0.12 0.87
v 0.07863 0.12 0.88146
v 0.04398 0.20817 0.88146
v -0.05069 0.27271 0.88146
v -0.18 0.29634 0.88146
v -0.30931 0.27271 0.88146
v -0.40398 0.20817 0.88146
v -0.43863 0.12 0.88146
v -0.40398 0.03183 0.88146
v -0.30931 -0.03271 0.88146
v -0.18 -0.05634 0.88146
v -0.05069 -0.03271 0.88146
v 0.04398 0.03183 0.88146
v 0.23846 0.12 0.91146
v 0.1824 0.26266 0.91146
v 0.02923 0.36709 0.91146
v -0.18 0.40532 0.91146
v -0.38923 0.36709 0.91146
v -0.5424 0.26266 0.91146
v -0.59846 0.12 0.91146
v -0.5424 -0.02266 0.91146
v -0.38923 -0.12709 0.91146
v -0.18 -0.16532 0.91146
v 0.02923 -0.12709 0.91146
v 0.1824 -0.02266 0.91146
v 0.23846 0.12 0.94854
v 0.1824 0.26266 0.94854
v 0.02923 0.36709 0.94854
v -0.18 0.40532 0.94854
v -0.38923 0.36709 0.94854
v -0.5424 0.26266 0.94854
v -0.59846 0.12 0.94854
v -0.5424 -0.02266 0.94854
v -0.38923 -0.12709 0.94854
v -0.18 -0.16532 0.94854
v 0.02923 -0.12709 0.94854
v 0.1824 -0.02266 0.94854
v 0.07863 0.12 0.97854
v 0.04398 0.20817 0.97854
v -0.05069 0.27271 0.97854
v -0.18 0.29634 0.97854
v -0.30931 0.27271 0.97854
v -0.40398 0.20817 0.97854
v -0.43863 0.12 0.97854
v -0.40398 0.03183 0.97854
v -0.30931 -0.03271 0.97854
v -0.18 -0.05634 0.97854
v -0.05069 -0.03271 0.97854
v 0.04398 0.03183 0.97854
v -0.18 0.12 0.99
v -0.18 0.12 0.99
v -0.18 0.12 0.99
v -0.18 0.12 0.99
v -0.18 0.12 0.99
v -0.18 0.12 0.99
v -0.18 0.12 0.99
v -0.18 0.12 0.99
v -0.18 0.12 0.99
v -0.18 0.12 0.99
v -0.18 0.12 0.99
v -0.18 0.12 0.99
g RockMass0
usemtl SURVIVAL_STONE
f 1 2 12 11
f 2 3 13 12
f 3 4 14 13
f 4 5 15 14
f 5 6 16 15
f 6 7 17 16
f 7 8 18 17
f 8 9 19 18
f 9 10 20 19
f 10 1 11 20
f 11 12 22 21
f 12 13 23 22
f 13 14 24 23
f 14 15 25 24
f 15 16 26 25
f 16 17 27 26
f 17 18 28 27
f 18 19 29 28
f 19 20 30 29
f 20 11 21 30
f 21 22 32 31
f 22 23 33 32
f 23 24 34 33
f 24 25 35 34
f 25 26 36 35
f 26 27 37 36
f 27 28 38 37
f 28 29 39 38
f 29 30 40 39
f 30 21 31 40
f 31 32 42 41
f 32 33 43 42
f 33 34 44 43
f 34 35 45 44
f 35 36 46 45
f 36 37 47 46
f 37 38 48 47
f 38 39 49 48
f 39 40 50 49
f 40 31 41 50
f 41 42 52 51
f 42 43 53 52
f 43 44 54 53
f 44 45 55 54
f 45 46 56 55
f 46 47 57 56
f 47 48 58 57
f 48 49 59 58
f 49 50 60 59
f 50 41 51 60
f 51 52 62 61
f 52 53 63 62
f 53 54 64 63
f 54 55 65 64
f 55 56 66 65
f 56 57 67 66
f 57 58 68 67
f 58 59 69 68
f 59 60 70 69
f 60 51 61 70
g RockMass1
usemtl SURVIVAL_STONE_LIGHT
f 71 72 82 81
f 72 73 83 82
f 73 74 84 83
f 74 75 85 84
f 75 76 86 85
f 76 77 87 86
f 77 78 88 87
f 78 79 89 88
f 79 80 90 89
f 80 71 81 90
f 81 82 92 91
f 82 83 93 92
f 83 84 94 93
f 84 85 95 94
f 85 86 96 95
f 86 87 97 96
f 87 88 98 97
f 88 89 99 98
f 89 90 100 99
f 90 81 91 100
f 91 92 102 101
f 92 93 103 102
f 93 94 104 103
f 94 95 105 104
f 95 96 106 105
f 96 97 107 106
f 97 98 108 107
f 98 99 109 108
f 99 100 110 109
f 100 91 101 110
f 101 102 112 111
f 102 103 113 112
f 103 104 114 113
f 104 105 115 114
f 105 106 116 115
f 106 107 117 116
f 107 108 118 117
f 108 109 119 118
f 109 110 120 119
f 110 101 111 120
f 111 112 122 121
f 112 113 123 122
f 113 114 124 123
f 114 115 125 124
f 115 116 126 125
f 116 117 127 126
f 117 118 128 127
f 118 119 129 128
f 119 120 130 129
f 120 111 121 130
f 121 122 132 131
f 122 123 133 132
f 123 124 134 133
f 124 125 135 134
f 125 126 136 135
f 126 127 137 136
f 127 128 138 137
f 128 129 139 138
f 129 130 140 139
f 130 121 131 140
g RockMass2
usemtl SURVIVAL_STONE_DARK
f 141 142 152 151
f 142 143 153 152
f 143 144 154 153
f 144 145 155 154
f 145 146 156 155
f 146 147 157 156
f 147 148 158 157
f 148 149 159 158
f 149 150 160 159
f 150 141 151 160
f 151 152 162 161
f 152 153 163 162
f 153 154 164 163
f 154 155 165 164
f 155 156 166 165
f 156 157 167 166
f 157 158 168 167
f 158 159 169 168
f 159 160 170 169
f 160 151 161 170
f 161 162 172 171
f 162 163 173 172
f 163 164 174 173
f 164 165 175 174
f 165 166 176 175
f 166 167 177 176
f 167 168 178 177
f 168 169 179 178
f 169 170 180 179
f 170 161 171 180
f 171 172 182 181
f 172 173 183 182
f 173 174 184 183
f 174 175 185 184
f 175 176 186 185
f 176 177 187 186
f 177 178 188 187
f 178 179 189 188
f 179 180 190 189
f 180 171 181 190
f 181 182 192 191
f 182 183 193 192
f 183 184 194 193
f 184 185 195 194
f 185 186 196 195
f 186 187 197 196
f 187 188 198 197
f 188 189 199 198
f 189 190 200 199
f 190 181 191 200
f 191 192 202 201
f 192 193 203 202
f 193 194 204 203
f 194 195 205 204
f 195 196 206 205
f 196 197 207 206
f 197 198 208 207
f 198 199 209 208
f 199 200 210 209
f 200 191 201 210
g BrokenFace
usemtl SURVIVAL_STONE_LIGHT
f 211 212 217 216
f 212 213 218 217
f 213 214 219 218
f 214 215 220 219
f 215 211 216 220
f 215 214 213 212 211
f 216 217 218 219 220
g MossPatch
usemtl SURVIVAL_MOSS
f 221 222 234 233
f 222 223 235 234
f 223 224 236 235
f 224 225 237 236
f 225 226 238 237
f 226 227 239 238
f 227 228 240 239
f 228 229 241 240
f 229 230 242 241
f 230 231 243 242
f 231 232 244 243
f 232 221 233 244
f 233 234 246 245
f 234 235 247 246
f 235 236 248 247
f 236 237 249 248
f 237 238 250 249
f 238 239 251 250
f 239 240 252 251
f 240 241 253 252
f 241 242 254 253
f 242 243 255 254
f 243 244 256 255
f 244 233 245 256
f 245 246 258 257
f 246 247 259 258
f 247 248 260 259
f 248 249 261 260
f 249 250 262 261
f 250 251 263 262
f 251 252 264 263
f 252 253 265 264
f 253 254 266 265
f 254 255 267 266
f 255 256 268 267
f 256 245 257 268
f 257 258 270 269
f 258 259 271 270
f 259 260 272 271
f 260 261 273 272
f 261 262 274 273
f 262 263 275 274
f 263 264 276 275
f 264 265 277 276
f 265 266 278 277
f 266 267 279 278
f 267 268 280 279
f 268 257 269 280
f 269 270 282 281
f 270 271 283 282
f 271 272 284 283
f 272 273 285 284
f 273 274 286 285
f 274 275 287 286
f 275 276 288 287
f 276 277 289 288
f 277 278 290 289
f 278 279 291 290
f 279 280 292 291
f 280 269 281 292
