# rockgator - project-original Roblox source asset
mtllib monster-adventure.mtl
o rockgator
v 0 0.25 0.1
v 0 0.25 0.1
v 0 0.25 0.1
v 0 0.25 0.1
v 0 0.25 0.1
v 0 0.25 0.1
v 0 0.25 0.1
v 0 0.25 0.1
v 0 0.25 0.1
v 0 0.25 0.1
v 0 0.25 0.1
v 0 0.25 0.1
v 0 0.25 0.1
v 0 0.25 0.1
v 0 0.25 0.1
v 0 0.25 0.1
v 0 0.25 0.1
v 0 0.25 0.1
v 0.35537 0.25 0.13524
v 0.33394 0.51951 0.13524
v 0.27223 0.75651 0.13524
v 0.17768 0.93242 0.13524
v 0.06171 1.02602 0.13524
v -0.06171 1.02602 0.13524
v -0.17768 0.93242 0.13524
v -0.27223 0.75651 0.13524
v -0.33394 0.51951 0.13524
v -0.35537 0.25 0.13524
v -0.33394 -0.01951 0.13524
v -0.27223 -0.25651 0.13524
v -0.17768 -0.43242 0.13524
v -0.06171 -0.52602 0.13524
v 0.06171 -0.52602 0.13524
v 0.17768 -0.43242 0.13524
v 0.27223 -0.25651 0.13524
v 0.33394 -0.01951 0.13524
v 0.67595 0.25 0.23751
v 0.63519 0.76264 0.23751
v 0.51781 1.21344 0.23751
v 0.33798 1.54804 0.23751
v 0.11738 1.72608 0.23751
v -0.11738 1.72608 0.23751
v -0.33798 1.54804 0.23751
v -0.51781 1.21344 0.23751
v -0.63519 0.76264 0.23751
v -0.67595 0.25 0.23751
v -0.63519 -0.26264 0.23751
v -0.51781 -0.71344 0.23751
v -0.33798 -1.04804 0.23751
v -0.11738 -1.22608 0.23751
v 0.11738 -1.22608 0.23751
v 0.33798 -1.04804 0.23751
v 0.51781 -0.71344 0.23751
v 0.63519 -0.26264 0.23751
v 0.93037 0.25 0.39679
v 0.87426 0.95559 0.39679
v 0.7127 1.57607 0.39679
v 0.46518 2.0366 0.39679
v 0.16156 2.28165 0.39679
v -0.16156 2.28165 0.39679
v -0.46518 2.0366 0.39679
v -0.7127 1.57607 0.39679
v -0.87426 0.95559 0.39679
v -0.93037 0.25 0.39679
v -0.87426 -0.45559 0.39679
v -0.7127 -1.07607 0.39679
v -0.46518 -1.5366 0.39679
v -0.16156 -1.78165 0.39679
v 0.16156 -1.78165 0.39679
v 0.46518 -1.5366 0.39679
v 0.7127 -1.07607 0.39679
v 0.87426 -0.45559 0.39679
v 1.09371 0.25 0.59751
v 1.02776 1.07947 0.59751
v 0.83783 1.80888 0.59751
v 0.54686 2.35028 0.59751
v 0.18992 2.63835 0.59751
v -0.18992 2.63835 0.59751
v -0.54686 2.35028 0.59751
v -0.83783 1.80888 0.59751
v -1.02776 1.07947 0.59751
v -1.09371 0.25 0.59751
v -1.02776 -0.57947 0.59751
v -0.83783 -1.30888 0.59751
v -0.54686 -1.85028 0.59751
v -0.18992 -2.13835 0.59751
v 0.18992 -2.13835 0.59751
v 0.54686 -1.85028 0.59751
v 0.83783 -1.30888 0.59751
v 1.02776 -0.57947 0.59751
v 1.15 0.25 0.82
v 1.08065 1.12215 0.82
v 0.88095 1.88911 0.82
v 0.575 2.45836 0.82
v 0.1997 2.76126 0.82
v -0.1997 2.76126 0.82
v -0.575 2.45836 0.82
v -0.88095 1.88911 0.82
v -1.08065 1.12215 0.82
v -1.15 0.25 0.82
v -1.08065 -0.62215 0.82
v -0.88095 -1.38911 0.82
v -0.575 -1.95836 0.82
v -0.1997 -2.26126 0.82
v 0.1997 -2.26126 0.82
v 0.575 -1.95836 0.82
v 0.88095 -1.38911 0.82
v 1.08065 -0.62215 0.82
v 1.09371 0.25 1.04249
v 1.02776 1.07947 1.04249
v 0.83783 1.80888 1.04249
v 0.54686 2.35028 1.04249
v 0.18992 2.63835 1.04249
v -0.18992 2.63835 1.04249
v -0.54686 2.35028 1.04249
v -0.83783 1.80888 1.04249
v -1.02776 1.07947 1.04249
v -1.09371 0.25 1.04249
v -1.02776 -0.57947 1.04249
v -0.83783 -1.30888 1.04249
v -0.54686 -1.85028 1.04249
v -0.18992 -2.13835 1.04249
v 0.18992 -2.13835 1.04249
v 0.54686 -1.85028 1.04249
v 0.83783 -1.30888 1.04249
v 1.02776 -0.57947 1.04249
v 0.93037 0.25 1.24321
v 0.87426 0.95559 1.24321
v 0.7127 1.57607 1.24321
v 0.46518 2.0366 1.24321
v 0.16156 2.28165 1.24321
v -0.16156 2.28165 1.24321
v -0.46518 2.0366 1.24321
v -0.7127 1.57607 1.24321
v -0.87426 0.95559 1.24321
v -0.93037 0.25 1.24321
v -0.87426 -0.45559 1.24321
v -0.7127 -1.07607 1.24321
v -0.46518 -1.5366 1.24321
v -0.16156 -1.78165 1.24321
v 0.16156 -1.78165 1.24321
v 0.46518 -1.5366 1.24321
v 0.7127 -1.07607 1.24321
v 0.87426 -0.45559 1.24321
v 0.67595 0.25 1.40249
v 0.63519 0.76264 1.40249
v 0.51781 1.21344 1.40249
v 0.33798 1.54804 1.40249
v 0.11738 1.72608 1.40249
v -0.11738 1.72608 1.40249
v -0.33798 1.54804 1.40249
v -0.51781 1.21344 1.40249
v -0.63519 0.76264 1.40249
v -0.67595 0.25 1.40249
v -0.63519 -0.26264 1.40249
v -0.51781 -0.71344 1.40249
v -0.33798 -1.04804 1.40249
v -0.11738 -1.22608 1.40249
v 0.11738 -1.22608 1.40249
v 0.33798 -1.04804 1.40249
v 0.51781 -0.71344 1.40249
v 0.63519 -0.26264 1.40249
v 0.35537 0.25 1.50476
v 0.33394 0.51951 1.50476
v 0.27223 0.75651 1.50476
v 0.17768 0.93242 1.50476
v 0.06171 1.02602 1.50476
v -0.06171 1.02602 1.50476
v -0.17768 0.93242 1.50476
v -0.27223 0.75651 1.50476
v -0.33394 0.51951 1.50476
v -0.35537 0.25 1.50476
v -0.33394 -0.01951 1.50476
v -0.27223 -0.25651 1.50476
v -0.17768 -0.43242 1.50476
v -0.06171 -0.52602 1.50476
v 0.06171 -0.52602 1.50476
v 0.17768 -0.43242 1.50476
v 0.27223 -0.25651 1.50476
v 0.33394 -0.01951 1.50476
v 0 0.25 1.54
v 0 0.25 1.54
v 0 0.25 1.54
v 0 0.25 1.54
v 0 0.25 1.54
v 0 0.25 1.54
v 0 0.25 1.54
v 0 0.25 1.54
v 0 0.25 1.54
v 0 0.25 1.54
v 0 0.25 1.54
v 0 0.25 1.54
v 0 0.25 1.54
v 0 0.25 1.54
v 0 0.25 1.54
v 0 0.25 1.54
v 0 0.25 1.54
v 0 0.25 1.54
v 0 -1.45 0.14
v 0 -1.45 0.14
v 0 -1.45 0.14
v 0 -1.45 0.14
v 0 -1.45 0.14
v 0 -1.45 0.14
v 0 -1.45 0.14
v 0 -1.45 0.14
v 0 -1.45 0.14
v 0 -1.45 0.14
v 0 -1.45 0.14
v 0 -1.45 0.14
v 0 -1.45 0.14
v 0 -1.45 0.14
v 0 -1.45 0.14
v 0 -1.45 0.14
v 0.36254 -1.45 0.18704
v 0.33494 -1.29948 0.18704
v 0.25636 -1.17188 0.18704
v 0.13874 -1.08662 0.18704
v 0 -1.05668 0.18704
v -0.13874 -1.08662 0.18704
v -0.25636 -1.17188 0.18704
v -0.33494 -1.29948 0.18704
v -0.36254 -1.45 0.18704
v -0.33494 -1.60052 0.18704
v -0.25636 -1.72812 0.18704
v -0.13874 -1.81338 0.18704
v 0 -1.84332 0.18704
v 0.13874 -1.81338 0.18704
v 0.25636 -1.72812 0.18704
v 0.33494 -1.60052 0.18704
v 0.68135 -1.45 0.32249
v 0.62949 -1.16712 0.32249
v 0.48179 -0.9273 0.32249
v 0.26074 -0.76706 0.32249
v 0 -0.71079 0.32249
v -0.26074 -0.76706 0.32249
v -0.48179 -0.9273 0.32249
v -0.62949 -1.16712 0.32249
v -0.68135 -1.45 0.32249
v -0.62949 -1.73288 0.32249
v -0.48179 -1.9727 0.32249
v -0.26074 -2.13294 0.32249
v 0 -2.18921 0.32249
v 0.26074 -2.13294 0.32249
v 0.48179 -1.9727 0.32249
v 0.62949 -1.73288 0.32249
v 0.91799 -1.45 0.53
v 0.84811 -1.06887 0.53
v 0.64911 -0.74577 0.53
v 0.3513 -0.52988 0.53
v 0 -0.45407 0.53
v -0.3513 -0.52988 0.53
v -0.64911 -0.74577 0.53
v -0.84811 -1.06887 0.53
v -0.91799 -1.45 0.53
v -0.84811 -1.83113 0.53
v -0.64911 -2.15423 0.53
v -0.3513 -2.37012 0.53
v 0 -2.44593 0.53
v 0.3513 -2.37012 0.53
v 0.64911 -2.15423 0.53
v 0.84811 -1.83113 0.53
v 1.0439 -1.45 0.78455
v 0.96443 -1.0166 0.78455
v 0.73815 -0.64918 0.78455
v 0.39948 -0.40368 0.78455
v 0 -0.31747 0.78455
v -0.39948 -0.40368 0.78455
v -0.73815 -0.64918 0.78455
v -0.96443 -1.0166 0.78455
v -1.0439 -1.45 0.78455
v -0.96443 -1.8834 0.78455
v -0.73815 -2.25082 0.78455
v -0.39948 -2.49632 0.78455
v 0 -2.58253 0.78455
v 0.39948 -2.49632 0.78455
v 0.73815 -2.25082 0.78455
v 0.96443 -1.8834 0.78455
v 1.0439 -1.45 1.05545
v 0.96443 -1.0166 1.05545
v 0.73815 -0.64918 1.05545
v 0.39948 -0.40368 1.05545
v 0 -0.31747 1.05545
v -0.39948 -0.40368 1.05545
v -0.73815 -0.64918 1.05545
v -0.96443 -1.0166 1.05545
v -1.0439 -1.45 1.05545
v -0.96443 -1.8834 1.05545
v -0.73815 -2.25082 1.05545
v -0.39948 -2.49632 1.05545
v 0 -2.58253 1.05545
v 0.39948 -2.49632 1.05545
v 0.73815 -2.25082 1.05545
v 0.96443 -1.8834 1.05545
v 0.91799 -1.45 1.31
v 0.84811 -1.06887 1.31
v 0.64911 -0.74577 1.31
v 0.3513 -0.52988 1.31
v 0 -0.45407 1.31
v -0.3513 -0.52988 1.31
v -0.64911 -0.74577 1.31
v -0.84811 -1.06887 1.31
v -0.91799 -1.45 1.31
v -0.84811 -1.83113 1.31
v -0.64911 -2.15423 1.31
v -0.3513 -2.37012 1.31
v 0 -2.44593 1.31
v 0.3513 -2.37012 1.31
v 0.64911 -2.15423 1.31
v 0.84811 -1.83113 1.31
v 0.68135 -1.45 1.51751
v 0.62949 -1.16712 1.51751
v 0.48179 -0.9273 1.51751
v 0.26074 -0.76706 1.51751
v 0 -0.71079 1.51751
v -0.26074 -0.76706 1.51751
v -0.48179 -0.9273 1.51751
v -0.62949 -1.16712 1.51751
v -0.68135 -1.45 1.51751
v -0.62949 -1.73288 1.51751
v -0.48179 -1.9727 1.51751
v -0.26074 -2.13294 1.51751
v 0 -2.18921 1.51751
v 0.26074 -2.13294 1.51751
v 0.48179 -1.9727 1.51751
v 0.62949 -1.73288 1.51751
v 0.36254 -1.45 1.65296
v 0.33494 -1.29948 1.65296
v 0.25636 -1.17188 1.65296
v 0.13874 -1.08662 1.65296
v 0 -1.05668 1.65296
v -0.13874 -1.08662 1.65296
v -0.25636 -1.17188 1.65296
v -0.33494 -1.29948 1.65296
v -0.36254 -1.45 1.65296
v -0.33494 -1.60052 1.65296
v -0.25636 -1.72812 1.65296
v -0.13874 -1.81338 1.65296
v 0 -1.84332 1.65296
v 0.13874 -1.81338 1.65296
v 0.25636 -1.72812 1.65296
v 0.33494 -1.60052 1.65296
v 0 -1.45 1.7
v 0 -1.45 1.7
v 0 -1.45 1.7
v 0 -1.45 1.7
v 0 -1.45 1.7
v 0 -1.45 1.7
v 0 -1.45 1.7
v 0 -1.45 1.7
v 0 -1.45 1.7
v 0 -1.45 1.7
v 0 -1.45 1.7
v 0 -1.45 1.7
v 0 -1.45 1.7
v 0 -1.45 1.7
v 0 -1.45 1.7
v 0 -1.45 1.7
v 0 -2.62 0.33
v 0 -2.62 0.33
v 0 -2.62 0.33
v 0 -2.62 0.33
v 0 -2.62 0.33
v 0 -2.62 0.33
v 0 -2.62 0.33
v 0 -2.62 0.33
v 0 -2.62 0.33
v 0 -2.62 0.33
v 0 -2.62 0.33
v 0 -2.62 0.33
v 0 -2.62 0.33
v 0 -2.62 0.33
v 0 -2.62 0.33
v 0 -2.62 0.33
v 0.36355 -2.62 0.37719
v 0.33588 -2.46184 0.37719
v 0.25707 -2.32775 0.37719
v 0.13912 -2.23816 0.37719
v 0 -2.2067 0.37719
v -0.13912 -2.23816 0.37719
v -0.25707 -2.32775 0.37719
v -0.33588 -2.46184 0.37719
v -0.36355 -2.62 0.37719
v -0.33588 -2.77816 0.37719
v -0.25707 -2.91225 0.37719
v -0.13912 -3.00184 0.37719
v 0 -3.0333 0.37719
v 0.13912 -3.00184 0.37719
v 0.25707 -2.91225 0.37719
v 0.33588 -2.77816 0.37719
v 0.67175 -2.62 0.51159
v 0.62062 -2.32775 0.51159
v 0.475 -2.08 0.51159
v 0.25707 -1.91446 0.51159
v 0 -1.85632 0.51159
v -0.25707 -1.91446 0.51159
v -0.475 -2.08 0.51159
v -0.62062 -2.32775 0.51159
v -0.67175 -2.62 0.51159
v -0.62062 -2.91225 0.51159
v -0.475 -3.16 0.51159
v -0.25707 -3.32554 0.51159
v 0 -3.38368 0.51159
v 0.25707 -3.32554 0.51159
v 0.475 -3.16 0.51159
v 0.62062 -2.91225 0.51159
v 0.87769 -2.62 0.71274
v 0.81088 -2.23816 0.71274
v 0.62062 -1.91446 0.71274
v 0.33588 -1.69816 0.71274
v 0 -1.62221 0.71274
v -0.33588 -1.69816 0.71274
v -0.62062 -1.91446 0.71274
v -0.81088 -2.23816 0.71274
v -0.87769 -2.62 0.71274
v -0.81088 -3.00184 0.71274
v -0.62062 -3.32554 0.71274
v -0.33588 -3.54184 0.71274
v 0 -3.61779 0.71274
v 0.33588 -3.54184 0.71274
v 0.62062 -3.32554 0.71274
v 0.81088 -3.00184 0.71274
v 0.95 -2.62 0.95
v 0.87769 -2.2067 0.95
v 0.67175 -1.85632 0.95
v 0.36355 -1.62221 0.95
v 0 -1.54 0.95
v -0.36355 -1.62221 0.95
v -0.67175 -1.85632 0.95
v -0.87769 -2.2067 0.95
v -0.95 -2.62 0.95
v -0.87769 -3.0333 0.95
v -0.67175 -3.38368 0.95
v -0.36355 -3.61779 0.95
v 0 -3.7 0.95
v 0.36355 -3.61779 0.95
v 0.67175 -3.38368 0.95
v 0.87769 -3.0333 0.95
v 0.87769 -2.62 1.18726
v 0.81088 -2.23816 1.18726
v 0.62062 -1.91446 1.18726
v 0.33588 -1.69816 1.18726
v 0 -1.62221 1.18726
v -0.33588 -1.69816 1.18726
v -0.62062 -1.91446 1.18726
v -0.81088 -2.23816 1.18726
v -0.87769 -2.62 1.18726
v -0.81088 -3.00184 1.18726
v -0.62062 -3.32554 1.18726
v -0.33588 -3.54184 1.18726
v 0 -3.61779 1.18726
v 0.33588 -3.54184 1.18726
v 0.62062 -3.32554 1.18726
v 0.81088 -3.00184 1.18726
v 0.67175 -2.62 1.38841
v 0.62062 -2.32775 1.38841
v 0.475 -2.08 1.38841
v 0.25707 -1.91446 1.38841
v 0 -1.85632 1.38841
v -0.25707 -1.91446 1.38841
v -0.475 -2.08 1.38841
v -0.62062 -2.32775 1.38841
v -0.67175 -2.62 1.38841
v -0.62062 -2.91225 1.38841
v -0.475 -3.16 1.38841
v -0.25707 -3.32554 1.38841
v 0 -3.38368 1.38841
v 0.25707 -3.32554 1.38841
v 0.475 -3.16 1.38841
v 0.62062 -2.91225 1.38841
v 0.36355 -2.62 1.52281
v 0.33588 -2.46184 1.52281
v 0.25707 -2.32775 1.52281
v 0.13912 -2.23816 1.52281
v 0 -2.2067 1.52281
v -0.13912 -2.23816 1.52281
v -0.25707 -2.32775 1.52281
v -0.33588 -2.46184 1.52281
v -0.36355 -2.62 1.52281
v -0.33588 -2.77816 1.52281
v -0.25707 -2.91225 1.52281
v -0.13912 -3.00184 1.52281
v 0 -3.0333 1.52281
v 0.13912 -3.00184 1.52281
v 0.25707 -2.91225 1.52281
v 0.33588 -2.77816 1.52281
v 0 -2.62 1.57
v 0 -2.62 1.57
v 0 -2.62 1.57
v 0 -2.62 1.57
v 0 -2.62 1.57
v 0 -2.62 1.57
v 0 -2.62 1.57
v 0 -2.62 1.57
v 0 -2.62 1.57
v 0 -2.62 1.57
v 0 -2.62 1.57
v 0 -2.62 1.57
v 0 -2.62 1.57
v 0 -2.62 1.57
v 0 -2.62 1.57
v 0 -2.62 1.57
v 0 -3.45 0.42
v 0 -3.45 0.42
v 0 -3.45 0.42
v 0 -3.45 0.42
v 0 -3.45 0.42
v 0 -3.45 0.42
v 0 -3.45 0.42
v 0 -3.45 0.42
v 0 -3.45 0.42
v 0 -3.45 0.42
v 0 -3.45 0.42
v 0 -3.45 0.42
v 0 -3.45 0.42
v 0 -3.45 0.42
v 0.35578 -3.45 0.44971
v 0.32055 -3.30316 0.44971
v 0.22183 -3.18541 0.44971
v 0.07917 -3.12006 0.44971
v -0.07917 -3.12006 0.44971
v -0.22183 -3.18541 0.44971
v -0.32055 -3.30316 0.44971
v -0.35578 -3.45 0.44971
v -0.32055 -3.59684 0.44971
v -0.22183 -3.71459 0.44971
v -0.07917 -3.77994 0.44971
v 0.07917 -3.77994 0.44971
v 0.22183 -3.71459 0.44971
v 0.32055 -3.59684 0.44971
v 0.6411 -3.45 0.53295
v 0.57761 -3.18541 0.53295
v 0.39972 -2.97322 0.53295
v 0.14266 -2.85546 0.53295
v -0.14266 -2.85546 0.53295
v -0.39972 -2.97322 0.53295
v -0.57761 -3.18541 0.53295
v -0.6411 -3.45 0.53295
v -0.57761 -3.71459 0.53295
v -0.39972 -3.92678 0.53295
v -0.14266 -4.04454 0.53295
v 0.14266 -4.04454 0.53295
v 0.39972 -3.92678 0.53295
v 0.57761 -3.71459 0.53295
v 0.79944 -3.45 0.65324
v 0.72027 -3.12006 0.65324
v 0.49844 -2.85546 0.65324
v 0.17789 -2.70862 0.65324
v -0.17789 -2.70862 0.65324
v -0.49844 -2.85546 0.65324
v -0.72027 -3.12006 0.65324
v -0.79944 -3.45 0.65324
v -0.72027 -3.77994 0.65324
v -0.49844 -4.04454 0.65324
v -0.17789 -4.19138 0.65324
v 0.17789 -4.19138 0.65324
v 0.49844 -4.04454 0.65324
v 0.72027 -3.77994 0.65324
v 0.79944 -3.45 0.78676
v 0.72027 -3.12006 0.78676
v 0.49844 -2.85546 0.78676
v 0.17789 -2.70862 0.78676
v -0.17789 -2.70862 0.78676
v -0.49844 -2.85546 0.78676
v -0.72027 -3.12006 0.78676
v -0.79944 -3.45 0.78676
v -0.72027 -3.77994 0.78676
v -0.49844 -4.04454 0.78676
v -0.17789 -4.19138 0.78676
v 0.17789 -4.19138 0.78676
v 0.49844 -4.04454 0.78676
v 0.72027 -3.77994 0.78676
v 0.6411 -3.45 0.90705
v 0.57761 -3.18541 0.90705
v 0.39972 -2.97322 0.90705
v 0.14266 -2.85546 0.90705
v -0.14266 -2.85546 0.90705
v -0.39972 -2.97322 0.90705
v -0.57761 -3.18541 0.90705
v -0.6411 -3.45 0.90705
v -0.57761 -3.71459 0.90705
v -0.39972 -3.92678 0.90705
v -0.14266 -4.04454 0.90705
v 0.14266 -4.04454 0.90705
v 0.39972 -3.92678 0.90705
v 0.57761 -3.71459 0.90705
v 0.35578 -3.45 0.99029
v 0.32055 -3.30316 0.99029
v 0.22183 -3.18541 0.99029
v 0.07917 -3.12006 0.99029
v -0.07917 -3.12006 0.99029
v -0.22183 -3.18541 0.99029
v -0.32055 -3.30316 0.99029
v -0.35578 -3.45 0.99029
v -0.32055 -3.59684 0.99029
v -0.22183 -3.71459 0.99029
v -0.07917 -3.77994 0.99029
v 0.07917 -3.77994 0.99029
v 0.22183 -3.71459 0.99029
v 0.32055 -3.59684 0.99029
v 0 -3.45 1.02
v 0 -3.45 1.02
v 0 -3.45 1.02
v 0 -3.45 1.02
v 0 -3.45 1.02
v 0 -3.45 1.02
v 0 -3.45 1.02
v 0 -3.45 1.02
v 0 -3.45 1.02
v 0 -3.45 1.02
v 0 -3.45 1.02
v 0 -3.45 1.02
v 0 -3.45 1.02
v 0 -3.45 1.02
v -0.585 -0.81 0.76
v -0.46706 -0.85584 0.6826
v -0.39417 -0.97584 0.63477
v -0.39417 -1.12416 0.63477
v -0.46706 -1.24416 0.6826
v -0.585 -1.29 0.76
v -0.70294 -1.24416 0.8374
v -0.77583 -1.12416 0.88523
v -0.77583 -0.97584 0.88523
v -0.70294 -0.85584 0.8374
v -0.9 -0.89 0.28
v -0.82137 -0.92056 0.2284
v -0.77278 -1.00056 0.19651
v -0.77278 -1.09944 0.19651
v -0.82137 -1.17944 0.2284
v -0.9 -1.21 0.28
v -0.97863 -1.17944 0.3316
v -1.02722 -1.09944 0.36349
v -1.02722 -1.00056 0.36349
v -0.97863 -0.92056 0.3316
v -0.585 -1.05 0.76
v -0.9 -1.05 0.28
v -0.9 -1.113 0.05
v -0.9 -1.113 0.05
v -0.9 -1.113 0.05
v -0.9 -1.113 0.05
v -0.9 -1.113 0.05
v -0.9 -1.113 0.05
v -0.9 -1.113 0.05
v -0.9 -1.113 0.05
v -0.9 -1.113 0.05
v -0.9 -1.113 0.05
v -0.72 -1.113 0.0701
v -0.75438 -0.97781 0.0701
v -0.84438 -0.89426 0.0701
v -0.95562 -0.89426 0.0701
v -1.04562 -0.97781 0.0701
v -1.08 -1.113 0.0701
v -1.04562 -1.24819 0.0701
v -0.95562 -1.33174 0.0701
v -0.84438 -1.33174 0.0701
v -0.75438 -1.24819 0.0701
v -0.58823 -1.113 0.125
v -0.64777 -0.87884 0.125
v -0.80366 -0.73413 0.125
v -0.99634 -0.73413 0.125
v -1.15223 -0.87884 0.125
v -1.21177 -1.113 0.125
v -1.15223 -1.34716 0.125
v -0.99634 -1.49187 0.125
v -0.80366 -1.49187 0.125
v -0.64777 -1.34716 0.125
v -0.54 -1.113 0.2
v -0.60875 -0.84262 0.2
v -0.78875 -0.67551 0.2
v -1.01125 -0.67551 0.2
v -1.19125 -0.84262 0.2
v -1.26 -1.113 0.2
v -1.19125 -1.38338 0.2
v -1.01125 -1.55049 0.2
v -0.78875 -1.55049 0.2
v -0.60875 -1.38338 0.2
v -0.58823 -1.113 0.275
v -0.64777 -0.87884 0.275
v -0.80366 -0.73413 0.275
v -0.99634 -0.73413 0.275
v -1.15223 -0.87884 0.275
v -1.21177 -1.113 0.275
v -1.15223 -1.34716 0.275
v -0.99634 -1.49187 0.275
v -0.80366 -1.49187 0.275
v -0.64777 -1.34716 0.275
v -0.72 -1.113 0.3299
v -0.75438 -0.97781 0.3299
v -0.84438 -0.89426 0.3299
v -0.95562 -0.89426 0.3299
v -1.04562 -0.97781 0.3299
v -1.08 -1.113 0.3299
v -1.04562 -1.24819 0.3299
v -0.95562 -1.33174 0.3299
v -0.84438 -1.33174 0.3299
v -0.75438 -1.24819 0.3299
v -0.9 -1.113 0.35
v -0.9 -1.113 0.35
v -0.9 -1.113 0.35
v -0.9 -1.113 0.35
v -0.9 -1.113 0.35
v -0.9 -1.113 0.35
v -0.9 -1.113 0.35
v -0.9 -1.113 0.35
v -0.9 -1.113 0.35
v -0.9 -1.113 0.35
v -0.585 1.59 0.76
v -0.46706 1.54416 0.6826
v -0.39417 1.42416 0.63477
v -0.39417 1.27584 0.63477
v -0.46706 1.15584 0.6826
v -0.585 1.11 0.76
v -0.70294 1.15584 0.8374
v -0.77583 1.27584 0.88523
v -0.77583 1.42416 0.88523
v -0.70294 1.54416 0.8374
v -0.9 1.51 0.28
v -0.82137 1.47944 0.2284
v -0.77278 1.39944 0.19651
v -0.77278 1.30056 0.19651
v -0.82137 1.22056 0.2284
v -0.9 1.19 0.28
v -0.97863 1.22056 0.3316
v -1.02722 1.30056 0.36349
v -1.02722 1.39944 0.36349
v -0.97863 1.47944 0.3316
v -0.585 1.35 0.76
v -0.9 1.35 0.28
v -0.9 1.431 0.05
v -0.9 1.431 0.05
v -0.9 1.431 0.05
v -0.9 1.431 0.05
v -0.9 1.431 0.05
v -0.9 1.431 0.05
v -0.9 1.431 0.05
v -0.9 1.431 0.05
v -0.9 1.431 0.05
v -0.9 1.431 0.05
v -0.72 1.431 0.0701
v -0.75438 1.56619 0.0701
v -0.84438 1.64974 0.0701
v -0.95562 1.64974 0.0701
v -1.04562 1.56619 0.0701
v -1.08 1.431 0.0701
v -1.04562 1.29581 0.0701
v -0.95562 1.21226 0.0701
v -0.84438 1.21226 0.0701
v -0.75438 1.29581 0.0701
v -0.58823 1.431 0.125
v -0.64777 1.66516 0.125
v -0.80366 1.80987 0.125
v -0.99634 1.80987 0.125
v -1.15223 1.66516 0.125
v -1.21177 1.431 0.125
v -1.15223 1.19684 0.125
v -0.99634 1.05213 0.125
v -0.80366 1.05213 0.125
v -0.64777 1.19684 0.125
v -0.54 1.431 0.2
v -0.60875 1.70138 0.2
v -0.78875 1.86849 0.2
v -1.01125 1.86849 0.2
v -1.19125 1.70138 0.2
v -1.26 1.431 0.2
v -1.19125 1.16062 0.2
v -1.01125 0.99351 0.2
v -0.78875 0.99351 0.2
v -0.60875 1.16062 0.2
v -0.58823 1.431 0.275
v -0.64777 1.66516 0.275
v -0.80366 1.80987 0.275
v -0.99634 1.80987 0.275
v -1.15223 1.66516 0.275
v -1.21177 1.431 0.275
v -1.15223 1.19684 0.275
v -0.99634 1.05213 0.275
v -0.80366 1.05213 0.275
v -0.64777 1.19684 0.275
v -0.72 1.431 0.3299
v -0.75438 1.56619 0.3299
v -0.84438 1.64974 0.3299
v -0.95562 1.64974 0.3299
v -1.04562 1.56619 0.3299
v -1.08 1.431 0.3299
v -1.04562 1.29581 0.3299
v -0.95562 1.21226 0.3299
v -0.84438 1.21226 0.3299
v -0.75438 1.29581 0.3299
v -0.9 1.431 0.35
v -0.9 1.431 0.35
v -0.9 1.431 0.35
v -0.9 1.431 0.35
v -0.9 1.431 0.35
v -0.9 1.431 0.35
v -0.9 1.431 0.35
v -0.9 1.431 0.35
v -0.9 1.431 0.35
v -0.9 1.431 0.35
v 0.585 -1.29 0.76
v 0.46706 -1.24416 0.6826
v 0.39417 -1.12416 0.63477
v 0.39417 -0.97584 0.63477
v 0.46706 -0.85584 0.6826
v 0.585 -0.81 0.76
v 0.70294 -0.85584 0.8374
v 0.77583 -0.97584 0.88523
v 0.77583 -1.12416 0.88523
v 0.70294 -1.24416 0.8374
v 0.9 -1.21 0.28
v 0.82137 -1.17944 0.2284
v 0.77278 -1.09944 0.19651
v 0.77278 -1.00056 0.19651
v 0.82137 -0.92056 0.2284
v 0.9 -0.89 0.28
v 0.97863 -0.92056 0.3316
v 1.02722 -1.00056 0.36349
v 1.02722 -1.09944 0.36349
v 0.97863 -1.17944 0.3316
v 0.585 -1.05 0.76
v 0.9 -1.05 0.28
v 0.9 -1.113 0.05
v 0.9 -1.113 0.05
v 0.9 -1.113 0.05
v 0.9 -1.113 0.05
v 0.9 -1.113 0.05
v 0.9 -1.113 0.05
v 0.9 -1.113 0.05
v 0.9 -1.113 0.05
v 0.9 -1.113 0.05
v 0.9 -1.113 0.05
v 1.08 -1.113 0.0701
v 1.04562 -0.97781 0.0701
v 0.95562 -0.89426 0.0701
v 0.84438 -0.89426 0.0701
v 0.75438 -0.97781 0.0701
v 0.72 -1.113 0.0701
v 0.75438 -1.24819 0.0701
v 0.84438 -1.33174 0.0701
v 0.95562 -1.33174 0.0701
v 1.04562 -1.24819 0.0701
v 1.21177 -1.113 0.125
v 1.15223 -0.87884 0.125
v 0.99634 -0.73413 0.125
v 0.80366 -0.73413 0.125
v 0.64777 -0.87884 0.125
v 0.58823 -1.113 0.125
v 0.64777 -1.34716 0.125
v 0.80366 -1.49187 0.125
v 0.99634 -1.49187 0.125
v 1.15223 -1.34716 0.125
v 1.26 -1.113 0.2
v 1.19125 -0.84262 0.2
v 1.01125 -0.67551 0.2
v 0.78875 -0.67551 0.2
v 0.60875 -0.84262 0.2
v 0.54 -1.113 0.2
v 0.60875 -1.38338 0.2
v 0.78875 -1.55049 0.2
v 1.01125 -1.55049 0.2
v 1.19125 -1.38338 0.2
v 1.21177 -1.113 0.275
v 1.15223 -0.87884 0.275
v 0.99634 -0.73413 0.275
v 0.80366 -0.73413 0.275
v 0.64777 -0.87884 0.275
v 0.58823 -1.113 0.275
v 0.64777 -1.34716 0.275
v 0.80366 -1.49187 0.275
v 0.99634 -1.49187 0.275
v 1.15223 -1.34716 0.275
v 1.08 -1.113 0.3299
v 1.04562 -0.97781 0.3299
v 0.95562 -0.89426 0.3299
v 0.84438 -0.89426 0.3299
v 0.75438 -0.97781 0.3299
v 0.72 -1.113 0.3299
v 0.75438 -1.24819 0.3299
v 0.84438 -1.33174 0.3299
v 0.95562 -1.33174 0.3299
v 1.04562 -1.24819 0.3299
v 0.9 -1.113 0.35
v 0.9 -1.113 0.35
v 0.9 -1.113 0.35
v 0.9 -1.113 0.35
v 0.9 -1.113 0.35
v 0.9 -1.113 0.35
v 0.9 -1.113 0.35
v 0.9 -1.113 0.35
v 0.9 -1.113 0.35
v 0.9 -1.113 0.35
v 0.585 1.11 0.76
v 0.46706 1.15584 0.6826
v 0.39417 1.27584 0.63477
v 0.39417 1.42416 0.63477
v 0.46706 1.54416 0.6826
v 0.585 1.59 0.76
v 0.70294 1.54416 0.8374
v 0.77583 1.42416 0.88523
v 0.77583 1.27584 0.88523
v 0.70294 1.15584 0.8374
v 0.9 1.19 0.28
v 0.82137 1.22056 0.2284
v 0.77278 1.30056 0.19651
v 0.77278 1.39944 0.19651
v 0.82137 1.47944 0.2284
v 0.9 1.51 0.28
v 0.97863 1.47944 0.3316
v 1.02722 1.39944 0.36349
v 1.02722 1.30056 0.36349
v 0.97863 1.22056 0.3316
v 0.585 1.35 0.76
v 0.9 1.35 0.28
v 0.9 1.431 0.05
v 0.9 1.431 0.05
v 0.9 1.431 0.05
v 0.9 1.431 0.05
v 0.9 1.431 0.05
v 0.9 1.431 0.05
v 0.9 1.431 0.05
v 0.9 1.431 0.05
v 0.9 1.431 0.05
v 0.9 1.431 0.05
v 1.08 1.431 0.0701
v 1.04562 1.56619 0.0701
v 0.95562 1.64974 0.0701
v 0.84438 1.64974 0.0701
v 0.75438 1.56619 0.0701
v 0.72 1.431 0.0701
v 0.75438 1.29581 0.0701
v 0.84438 1.21226 0.0701
v 0.95562 1.21226 0.0701
v 1.04562 1.29581 0.0701
v 1.21177 1.431 0.125
v 1.15223 1.66516 0.125
v 0.99634 1.80987 0.125
v 0.80366 1.80987 0.125
v 0.64777 1.66516 0.125
v 0.58823 1.431 0.125
v 0.64777 1.19684 0.125
v 0.80366 1.05213 0.125
v 0.99634 1.05213 0.125
v 1.15223 1.19684 0.125
v 1.26 1.431 0.2
v 1.19125 1.70138 0.2
v 1.01125 1.86849 0.2
v 0.78875 1.86849 0.2
v 0.60875 1.70138 0.2
v 0.54 1.431 0.2
v 0.60875 1.16062 0.2
v 0.78875 0.99351 0.2
v 1.01125 0.99351 0.2
v 1.19125 1.16062 0.2
v 1.21177 1.431 0.275
v 1.15223 1.66516 0.275
v 0.99634 1.80987 0.275
v 0.80366 1.80987 0.275
v 0.64777 1.66516 0.275
v 0.58823 1.431 0.275
v 0.64777 1.19684 0.275
v 0.80366 1.05213 0.275
v 0.99634 1.05213 0.275
v 1.15223 1.19684 0.275
v 1.08 1.431 0.3299
v 1.04562 1.56619 0.3299
v 0.95562 1.64974 0.3299
v 0.84438 1.64974 0.3299
v 0.75438 1.56619 0.3299
v 0.72 1.431 0.3299
v 0.75438 1.29581 0.3299
v 0.84438 1.21226 0.3299
v 0.95562 1.21226 0.3299
v 1.04562 1.29581 0.3299
v 0.9 1.431 0.35
v 0.9 1.431 0.35
v 0.9 1.431 0.35
v 0.9 1.431 0.35
v 0.9 1.431 0.35
v 0.9 1.431 0.35
v 0.9 1.431 0.35
v 0.9 1.431 0.35
v 0.9 1.431 0.35
v 0.9 1.431 0.35
v 0.54 2.45 0.76
v 0.48652 2.41524 0.52829
v 0.33668 2.38737 0.34248
v 0.12016 2.3719 0.23936
v -0.12016 2.3719 0.23936
v -0.33668 2.38737 0.34248
v -0.48652 2.41524 0.52829
v -0.54 2.45 0.76
v -0.48652 2.48476 0.99171
v -0.33668 2.51263 1.17752
v -0.12016 2.5281 1.28064
v 0.12016 2.5281 1.28064
v 0.33668 2.51263 1.17752
v 0.48652 2.48476 0.99171
v 0.34 3.85 0.55
v 0.30633 3.82812 0.40411
v 0.21199 3.81057 0.28712
v 0.07566 3.80083 0.22219
v -0.07566 3.80083 0.22219
v -0.21199 3.81057 0.28712
v -0.30633 3.82812 0.40411
v -0.34 3.85 0.55
v -0.30633 3.87188 0.69589
v -0.21199 3.88943 0.81288
v -0.07566 3.89917 0.87781
v 0.07566 3.89917 0.87781
v 0.21199 3.88943 0.81288
v 0.30633 3.87188 0.69589
v 0 2.45 0.76
v 0 3.85 0.55
v 0.34 3.85 0.55
v 0.29445 3.8179 0.38306
v 0.17 3.79439 0.26085
v 0 3.78579 0.21612
v -0.17 3.79439 0.26085
v -0.29445 3.8179 0.38306
v -0.34 3.85 0.55
v -0.29445 3.8821 0.71694
v -0.17 3.90561 0.83915
v 0 3.91421 0.88388
v 0.17 3.90561 0.83915
v 0.29445 3.8821 0.71694
v 0.08 5.15 0.3
v 0.06928 5.14245 0.26072
v 0.04 5.13692 0.23196
v 0 5.13489 0.22144
v -0.04 5.13692 0.23196
v -0.06928 5.14245 0.26072
v -0.08 5.15 0.3
v -0.06928 5.15755 0.33928
v -0.04 5.16308 0.36804
v 0 5.16511 0.37856
v 0.04 5.16308 0.36804
v 0.06928 5.15755 0.33928
v 0 3.85 0.55
v 0 5.15 0.3
v -0.28 -1.2 0.83
v 0 -1.12 1.43
v 0.28 -1.2 0.83
v -0.28 -1.2 1.01
v 0 -1.12 1.61
v 0.28 -1.2 1.01
v -0.28 -0.48 0.83
v 0 -0.4 1.43
v 0.28 -0.48 0.83
v -0.28 -0.48 1.01
v 0 -0.4 1.61
v 0.28 -0.48 1.01
v -0.28 0.24 0.83
v 0 0.32 1.43
v 0.28 0.24 0.83
v -0.28 0.24 1.01
v 0 0.32 1.61
v 0.28 0.24 1.01
v -0.28 0.96 0.83
v 0 1.04 1.43
v 0.28 0.96 0.83
v -0.28 0.96 1.01
v 0 1.04 1.61
v 0.28 0.96 1.01
v -0.28 1.68 0.83
v 0 1.76 1.43
v 0.28 1.68 0.83
v -0.28 1.68 1.01
v 0 1.76 1.61
v 0.28 1.68 1.01
v -0.28 2.4 0.83
v 0 2.48 1.43
v 0.28 2.4 0.83
v -0.28 2.4 1.01
v 0 2.48 1.61
v 0.28 2.4 1.01
v -0.28 3.12 0.83
v 0 3.2 1.43
v 0.28 3.12 0.83
v -0.28 3.12 1.01
v 0 3.2 1.61
v 0.28 3.12 1.01
v -0.38 -3.28 1.06
v -0.38 -3.28 1.06
v -0.38 -3.28 1.06
v -0.38 -3.28 1.06
v -0.38 -3.28 1.06
v -0.38 -3.28 1.06
v -0.38 -3.28 1.06
v -0.38 -3.28 1.06
v -0.38 -3.28 1.06
v -0.38 -3.28 1.06
v -0.32 -3.28 1.07608
v -0.33146 -3.25943 1.07608
v -0.36146 -3.24671 1.07608
v -0.39854 -3.24671 1.07608
v -0.42854 -3.25943 1.07608
v -0.44 -3.28 1.07608
v -0.42854 -3.30057 1.07608
v -0.39854 -3.31329 1.07608
v -0.36146 -3.31329 1.07608
v -0.33146 -3.30057 1.07608
v -0.27608 -3.28 1.12
v -0.29592 -3.24437 1.12
v -0.34789 -3.22235 1.12
v -0.41211 -3.22235 1.12
v -0.46408 -3.24437 1.12
v -0.48392 -3.28 1.12
v -0.46408 -3.31563 1.12
v -0.41211 -3.33765 1.12
v -0.34789 -3.33765 1.12
v -0.29592 -3.31563 1.12
v -0.26 -3.28 1.18
v -0.28292 -3.23886 1.18
v -0.34292 -3.21343 1.18
v -0.41708 -3.21343 1.18
v -0.47708 -3.23886 1.18
v -0.5 -3.28 1.18
v -0.47708 -3.32114 1.18
v -0.41708 -3.34657 1.18
v -0.34292 -3.34657 1.18
v -0.28292 -3.32114 1.18
v -0.27608 -3.28 1.24
v -0.29592 -3.24437 1.24
v -0.34789 -3.22235 1.24
v -0.41211 -3.22235 1.24
v -0.46408 -3.24437 1.24
v -0.48392 -3.28 1.24
v -0.46408 -3.31563 1.24
v -0.41211 -3.33765 1.24
v -0.34789 -3.33765 1.24
v -0.29592 -3.31563 1.24
v -0.32 -3.28 1.28392
v -0.33146 -3.25943 1.28392
v -0.36146 -3.24671 1.28392
v -0.39854 -3.24671 1.28392
v -0.42854 -3.25943 1.28392
v -0.44 -3.28 1.28392
v -0.42854 -3.30057 1.28392
v -0.39854 -3.31329 1.28392
v -0.36146 -3.31329 1.28392
v -0.33146 -3.30057 1.28392
v -0.38 -3.28 1.3
v -0.38 -3.28 1.3
v -0.38 -3.28 1.3
v -0.38 -3.28 1.3
v -0.38 -3.28 1.3
v -0.38 -3.28 1.3
v -0.38 -3.28 1.3
v -0.38 -3.28 1.3
v -0.38 -3.28 1.3
v -0.38 -3.28 1.3
v 0.38 -3.28 1.06
v 0.38 -3.28 1.06
v 0.38 -3.28 1.06
v 0.38 -3.28 1.06
v 0.38 -3.28 1.06
v 0.38 -3.28 1.06
v 0.38 -3.28 1.06
v 0.38 -3.28 1.06
v 0.38 -3.28 1.06
v 0.38 -3.28 1.06
v 0.44 -3.28 1.07608
v 0.42854 -3.25943 1.07608
v 0.39854 -3.24671 1.07608
v 0.36146 -3.24671 1.07608
v 0.33146 -3.25943 1.07608
v 0.32 -3.28 1.07608
v 0.33146 -3.30057 1.07608
v 0.36146 -3.31329 1.07608
v 0.39854 -3.31329 1.07608
v 0.42854 -3.30057 1.07608
v 0.48392 -3.28 1.12
v 0.46408 -3.24437 1.12
v 0.41211 -3.22235 1.12
v 0.34789 -3.22235 1.12
v 0.29592 -3.24437 1.12
v 0.27608 -3.28 1.12
v 0.29592 -3.31563 1.12
v 0.34789 -3.33765 1.12
v 0.41211 -3.33765 1.12
v 0.46408 -3.31563 1.12
v 0.5 -3.28 1.18
v 0.47708 -3.23886 1.18
v 0.41708 -3.21343 1.18
v 0.34292 -3.21343 1.18
v 0.28292 -3.23886 1.18
v 0.26 -3.28 1.18
v 0.28292 -3.32114 1.18
v 0.34292 -3.34657 1.18
v 0.41708 -3.34657 1.18
v 0.47708 -3.32114 1.18
v 0.48392 -3.28 1.24
v 0.46408 -3.24437 1.24
v 0.41211 -3.22235 1.24
v 0.34789 -3.22235 1.24
v 0.29592 -3.24437 1.24
v 0.27608 -3.28 1.24
v 0.29592 -3.31563 1.24
v 0.34789 -3.33765 1.24
v 0.41211 -3.33765 1.24
v 0.46408 -3.31563 1.24
v 0.44 -3.28 1.28392
v 0.42854 -3.25943 1.28392
v 0.39854 -3.24671 1.28392
v 0.36146 -3.24671 1.28392
v 0.33146 -3.25943 1.28392
v 0.32 -3.28 1.28392
v 0.33146 -3.30057 1.28392
v 0.36146 -3.31329 1.28392
v 0.39854 -3.31329 1.28392
v 0.42854 -3.30057 1.28392
v 0.38 -3.28 1.3
v 0.38 -3.28 1.3
v 0.38 -3.28 1.3
v 0.38 -3.28 1.3
v 0.38 -3.28 1.3
v 0.38 -3.28 1.3
v 0.38 -3.28 1.3
v 0.38 -3.28 1.3
v 0.38 -3.28 1.3
v 0.38 -3.28 1.3
g Body
usemtl GATOR_GREEN
f 1 2 20 19
f 2 3 21 20
f 3 4 22 21
f 4 5 23 22
f 5 6 24 23
f 6 7 25 24
f 7 8 26 25
f 8 9 27 26
f 9 10 28 27
f 10 11 29 28
f 11 12 30 29
f 12 13 31 30
f 13 14 32 31
f 14 15 33 32
f 15 16 34 33
f 16 17 35 34
f 17 18 36 35
f 18 1 19 36
f 19 20 38 37
f 20 21 39 38
f 21 22 40 39
f 22 23 41 40
f 23 24 42 41
f 24 25 43 42
f 25 26 44 43
f 26 27 45 44
f 27 28 46 45
f 28 29 47 46
f 29 30 48 47
f 30 31 49 48
f 31 32 50 49
f 32 33 51 50
f 33 34 52 51
f 34 35 53 52
f 35 36 54 53
f 36 19 37 54
f 37 38 56 55
f 38 39 57 56
f 39 40 58 57
f 40 41 59 58
f 41 42 60 59
f 42 43 61 60
f 43 44 62 61
f 44 45 63 62
f 45 46 64 63
f 46 47 65 64
f 47 48 66 65
f 48 49 67 66
f 49 50 68 67
f 50 51 69 68
f 51 52 70 69
f 52 53 71 70
f 53 54 72 71
f 54 37 55 72
f 55 56 74 73
f 56 57 75 74
f 57 58 76 75
f 58 59 77 76
f 59 60 78 77
f 60 61 79 78
f 61 62 80 79
f 62 63 81 80
f 63 64 82 81
f 64 65 83 82
f 65 66 84 83
f 66 67 85 84
f 67 68 86 85
f 68 69 87 86
f 69 70 88 87
f 70 71 89 88
f 71 72 90 89
f 72 55 73 90
f 73 74 92 91
f 74 75 93 92
f 75 76 94 93
f 76 77 95 94
f 77 78 96 95
f 78 79 97 96
f 79 80 98 97
f 80 81 99 98
f 81 82 100 99
f 82 83 101 100
f 83 84 102 101
f 84 85 103 102
f 85 86 104 103
f 86 87 105 104
f 87 88 106 105
f 88 89 107 106
f 89 90 108 107
f 90 73 91 108
f 91 92 110 109
f 92 93 111 110
f 93 94 112 111
f 94 95 113 112
f 95 96 114 113
f 96 97 115 114
f 97 98 116 115
f 98 99 117 116
f 99 100 118 117
f 100 101 119 118
f 101 102 120 119
f 102 103 121 120
f 103 104 122 121
f 104 105 123 122
f 105 106 124 123
f 106 107 125 124
f 107 108 126 125
f 108 91 109 126
f 109 110 128 127
f 110 111 129 128
f 111 112 130 129
f 112 113 131 130
f 113 114 132 131
f 114 115 133 132
f 115 116 134 133
f 116 117 135 134
f 117 118 136 135
f 118 119 137 136
f 119 120 138 137
f 120 121 139 138
f 121 122 140 139
f 122 123 141 140
f 123 124 142 141
f 124 125 143 142
f 125 126 144 143
f 126 109 127 144
f 127 128 146 145
f 128 129 147 146
f 129 130 148 147
f 130 131 149 148
f 131 132 150 149
f 132 133 151 150
f 133 134 152 151
f 134 135 153 152
f 135 136 154 153
f 136 137 155 154
f 137 138 156 155
f 138 139 157 156
f 139 140 158 157
f 140 141 159 158
f 141 142 160 159
f 142 143 161 160
f 143 144 162 161
f 144 127 145 162
f 145 146 164 163
f 146 147 165 164
f 147 148 166 165
f 148 149 167 166
f 149 150 168 167
f 150 151 169 168
f 151 152 170 169
f 152 153 171 170
f 153 154 172 171
f 154 155 173 172
f 155 156 174 173
f 156 157 175 174
f 157 158 176 175
f 158 159 177 176
f 159 160 178 177
f 160 161 179 178
f 161 162 180 179
f 162 145 163 180
f 163 164 182 181
f 164 165 183 182
f 165 166 184 183
f 166 167 185 184
f 167 168 186 185
f 168 169 187 186
f 169 170 188 187
f 170 171 189 188
f 171 172 190 189
f 172 173 191 190
f 173 174 192 191
f 174 175 193 192
f 175 176 194 193
f 176 177 195 194
f 177 178 196 195
f 178 179 197 196
f 179 180 198 197
f 180 163 181 198
g Chest
usemtl GATOR_DARK
f 199 200 216 215
f 200 201 217 216
f 201 202 218 217
f 202 203 219 218
f 203 204 220 219
f 204 205 221 220
f 205 206 222 221
f 206 207 223 222
f 207 208 224 223
f 208 209 225 224
f 209 210 226 225
f 210 211 227 226
f 211 212 228 227
f 212 213 229 228
f 213 214 230 229
f 214 199 215 230
f 215 216 232 231
f 216 217 233 232
f 217 218 234 233
f 218 219 235 234
f 219 220 236 235
f 220 221 237 236
f 221 222 238 237
f 222 223 239 238
f 223 224 240 239
f 224 225 241 240
f 225 226 242 241
f 226 227 243 242
f 227 228 244 243
f 228 229 245 244
f 229 230 246 245
f 230 215 231 246
f 231 232 248 247
f 232 233 249 248
f 233 234 250 249
f 234 235 251 250
f 235 236 252 251
f 236 237 253 252
f 237 238 254 253
f 238 239 255 254
f 239 240 256 255
f 240 241 257 256
f 241 242 258 257
f 242 243 259 258
f 243 244 260 259
f 244 245 261 260
f 245 246 262 261
f 246 231 247 262
f 247 248 264 263
f 248 249 265 264
f 249 250 266 265
f 250 251 267 266
f 251 252 268 267
f 252 253 269 268
f 253 254 270 269
f 254 255 271 270
f 255 256 272 271
f 256 257 273 272
f 257 258 274 273
f 258 259 275 274
f 259 260 276 275
f 260 261 277 276
f 261 262 278 277
f 262 247 263 278
f 263 264 280 279
f 264 265 281 280
f 265 266 282 281
f 266 267 283 282
f 267 268 284 283
f 268 269 285 284
f 269 270 286 285
f 270 271 287 286
f 271 272 288 287
f 272 273 289 288
f 273 274 290 289
f 274 275 291 290
f 275 276 292 291
f 276 277 293 292
f 277 278 294 293
f 278 263 279 294
f 279 280 296 295
f 280 281 297 296
f 281 282 298 297
f 282 283 299 298
f 283 284 300 299
f 284 285 301 300
f 285 286 302 301
f 286 287 303 302
f 287 288 304 303
f 288 289 305 304
f 289 290 306 305
f 290 291 307 306
f 291 292 308 307
f 292 293 309 308
f 293 294 310 309
f 294 279 295 310
f 295 296 312 311
f 296 297 313 312
f 297 298 314 313
f 298 299 315 314
f 299 300 316 315
f 300 301 317 316
f 301 302 318 317
f 302 303 319 318
f 303 304 320 319
f 304 305 321 320
f 305 306 322 321
f 306 307 323 322
f 307 308 324 323
f 308 309 325 324
f 309 310 326 325
f 310 295 311 326
f 311 312 328 327
f 312 313 329 328
f 313 314 330 329
f 314 315 331 330
f 315 316 332 331
f 316 317 333 332
f 317 318 334 333
f 318 319 335 334
f 319 320 336 335
f 320 321 337 336
f 321 322 338 337
f 322 323 339 338
f 323 324 340 339
f 324 325 341 340
f 325 326 342 341
f 326 311 327 342
f 327 328 344 343
f 328 329 345 344
f 329 330 346 345
f 330 331 347 346
f 331 332 348 347
f 332 333 349 348
f 333 334 350 349
f 334 335 351 350
f 335 336 352 351
f 336 337 353 352
f 337 338 354 353
f 338 339 355 354
f 339 340 356 355
f 340 341 357 356
f 341 342 358 357
f 342 327 343 358
g Head
usemtl GATOR_GREEN
f 359 360 376 375
f 360 361 377 376
f 361 362 378 377
f 362 363 379 378
f 363 364 380 379
f 364 365 381 380
f 365 366 382 381
f 366 367 383 382
f 367 368 384 383
f 368 369 385 384
f 369 370 386 385
f 370 371 387 386
f 371 372 388 387
f 372 373 389 388
f 373 374 390 389
f 374 359 375 390
f 375 376 392 391
f 376 377 393 392
f 377 378 394 393
f 378 379 395 394
f 379 380 396 395
f 380 381 397 396
f 381 382 398 397
f 382 383 399 398
f 383 384 400 399
f 384 385 401 400
f 385 386 402 401
f 386 387 403 402
f 387 388 404 403
f 388 389 405 404
f 389 390 406 405
f 390 375 391 406
f 391 392 408 407
f 392 393 409 408
f 393 394 410 409
f 394 395 411 410
f 395 396 412 411
f 396 397 413 412
f 397 398 414 413
f 398 399 415 414
f 399 400 416 415
f 400 401 417 416
f 401 402 418 417
f 402 403 419 418
f 403 404 420 419
f 404 405 421 420
f 405 406 422 421
f 406 391 407 422
f 407 408 424 423
f 408 409 425 424
f 409 410 426 425
f 410 411 427 426
f 411 412 428 427
f 412 413 429 428
f 413 414 430 429
f 414 415 431 430
f 415 416 432 431
f 416 417 433 432
f 417 418 434 433
f 418 419 435 434
f 419 420 436 435
f 420 421 437 436
f 421 422 438 437
f 422 407 423 438
f 423 424 440 439
f 424 425 441 440
f 425 426 442 441
f 426 427 443 442
f 427 428 444 443
f 428 429 445 444
f 429 430 446 445
f 430 431 447 446
f 431 432 448 447
f 432 433 449 448
f 433 434 450 449
f 434 435 451 450
f 435 436 452 451
f 436 437 453 452
f 437 438 454 453
f 438 423 439 454
f 439 440 456 455
f 440 441 457 456
f 441 442 458 457
f 442 443 459 458
f 443 444 460 459
f 444 445 461 460
f 445 446 462 461
f 446 447 463 462
f 447 448 464 463
f 448 449 465 464
f 449 450 466 465
f 450 451 467 466
f 451 452 468 467
f 452 453 469 468
f 453 454 470 469
f 454 439 455 470
f 455 456 472 471
f 456 457 473 472
f 457 458 474 473
f 458 459 475 474
f 459 460 476 475
f 460 461 477 476
f 461 462 478 477
f 462 463 479 478
f 463 464 480 479
f 464 465 481 480
f 465 466 482 481
f 466 467 483 482
f 467 468 484 483
f 468 469 485 484
f 469 470 486 485
f 470 455 471 486
f 471 472 488 487
f 472 473 489 488
f 473 474 490 489
f 474 475 491 490
f 475 476 492 491
f 476 477 493 492
f 477 478 494 493
f 478 479 495 494
f 479 480 496 495
f 480 481 497 496
f 481 482 498 497
f 482 483 499 498
f 483 484 500 499
f 484 485 501 500
f 485 486 502 501
f 486 471 487 502
g Jaw
usemtl GATOR_LIGHT
f 503 504 518 517
f 504 505 519 518
f 505 506 520 519
f 506 507 521 520
f 507 508 522 521
f 508 509 523 522
f 509 510 524 523
f 510 511 525 524
f 511 512 526 525
f 512 513 527 526
f 513 514 528 527
f 514 515 529 528
f 515 516 530 529
f 516 503 517 530
f 517 518 532 531
f 518 519 533 532
f 519 520 534 533
f 520 521 535 534
f 521 522 536 535
f 522 523 537 536
f 523 524 538 537
f 524 525 539 538
f 525 526 540 539
f 526 527 541 540
f 527 528 542 541
f 528 529 543 542
f 529 530 544 543
f 530 517 531 544
f 531 532 546 545
f 532 533 547 546
f 533 534 548 547
f 534 535 549 548
f 535 536 550 549
f 536 537 551 550
f 537 538 552 551
f 538 539 553 552
f 539 540 554 553
f 540 541 555 554
f 541 542 556 555
f 542 543 557 556
f 543 544 558 557
f 544 531 545 558
f 545 546 560 559
f 546 547 561 560
f 547 548 562 561
f 548 549 563 562
f 549 550 564 563
f 550 551 565 564
f 551 552 566 565
f 552 553 567 566
f 553 554 568 567
f 554 555 569 568
f 555 556 570 569
f 556 557 571 570
f 557 558 572 571
f 558 545 559 572
f 559 560 574 573
f 560 561 575 574
f 561 562 576 575
f 562 563 577 576
f 563 564 578 577
f 564 565 579 578
f 565 566 580 579
f 566 567 581 580
f 567 568 582 581
f 568 569 583 582
f 569 570 584 583
f 570 571 585 584
f 571 572 586 585
f 572 559 573 586
f 573 574 588 587
f 574 575 589 588
f 575 576 590 589
f 576 577 591 590
f 577 578 592 591
f 578 579 593 592
f 579 580 594 593
f 580 581 595 594
f 581 582 596 595
f 582 583 597 596
f 583 584 598 597
f 584 585 599 598
f 585 586 600 599
f 586 573 587 600
f 587 588 602 601
f 588 589 603 602
f 589 590 604 603
f 590 591 605 604
f 591 592 606 605
f 592 593 607 606
f 593 594 608 607
f 594 595 609 608
f 595 596 610 609
f 596 597 611 610
f 597 598 612 611
f 598 599 613 612
f 599 600 614 613
f 600 587 601 614
g Leg_-0.9_-1.05
usemtl GATOR_DARK
f 615 616 626 625
f 616 617 627 626
f 617 618 628 627
f 618 619 629 628
f 619 620 630 629
f 620 621 631 630
f 621 622 632 631
f 622 623 633 632
f 623 624 634 633
f 624 615 625 634
f 635 616 615
f 636 625 626
f 635 617 616
f 636 626 627
f 635 618 617
f 636 627 628
f 635 619 618
f 636 628 629
f 635 620 619
f 636 629 630
f 635 621 620
f 636 630 631
f 635 622 621
f 636 631 632
f 635 623 622
f 636 632 633
f 635 624 623
f 636 633 634
f 635 615 624
f 636 634 625
g Foot_-0.9_-1.05
f 637 638 648 647
f 638 639 649 648
f 639 640 650 649
f 640 641 651 650
f 641 642 652 651
f 642 643 653 652
f 643 644 654 653
f 644 645 655 654
f 645 646 656 655
f 646 637 647 656
f 647 648 658 657
f 648 649 659 658
f 649 650 660 659
f 650 651 661 660
f 651 652 662 661
f 652 653 663 662
f 653 654 664 663
f 654 655 665 664
f 655 656 666 665
f 656 647 657 666
f 657 658 668 667
f 658 659 669 668
f 659 660 670 669
f 660 661 671 670
f 661 662 672 671
f 662 663 673 672
f 663 664 674 673
f 664 665 675 674
f 665 666 676 675
f 666 657 667 676
f 667 668 678 677
f 668 669 679 678
f 669 670 680 679
f 670 671 681 680
f 671 672 682 681
f 672 673 683 682
f 673 674 684 683
f 674 675 685 684
f 675 676 686 685
f 676 667 677 686
f 677 678 688 687
f 678 679 689 688
f 679 680 690 689
f 680 681 691 690
f 681 682 692 691
f 682 683 693 692
f 683 684 694 693
f 684 685 695 694
f 685 686 696 695
f 686 677 687 696
f 687 688 698 697
f 688 689 699 698
f 689 690 700 699
f 690 691 701 700
f 691 692 702 701
f 692 693 703 702
f 693 694 704 703
f 694 695 705 704
f 695 696 706 705
f 696 687 697 706
g Leg_-0.9_1.35
f 707 708 718 717
f 708 709 719 718
f 709 710 720 719
f 710 711 721 720
f 711 712 722 721
f 712 713 723 722
f 713 714 724 723
f 714 715 725 724
f 715 716 726 725
f 716 707 717 726
f 727 708 707
f 728 717 718
f 727 709 708
f 728 718 719
f 727 710 709
f 728 719 720
f 727 711 710
f 728 720 721
f 727 712 711
f 728 721 722
f 727 713 712
f 728 722 723
f 727 714 713
f 728 723 724
f 727 715 714
f 728 724 725
f 727 716 715
f 728 725 726
f 727 707 716
f 728 726 717
g Foot_-0.9_1.35
f 729 730 740 739
f 730 731 741 740
f 731 732 742 741
f 732 733 743 742
f 733 734 744 743
f 734 735 745 744
f 735 736 746 745
f 736 737 747 746
f 737 738 748 747
f 738 729 739 748
f 739 740 750 749
f 740 741 751 750
f 741 742 752 751
f 742 743 753 752
f 743 744 754 753
f 744 745 755 754
f 745 746 756 755
f 746 747 757 756
f 747 748 758 757
f 748 739 749 758
f 749 750 760 759
f 750 751 761 760
f 751 752 762 761
f 752 753 763 762
f 753 754 764 763
f 754 755 765 764
f 755 756 766 765
f 756 757 767 766
f 757 758 768 767
f 758 749 759 768
f 759 760 770 769
f 760 761 771 770
f 761 762 772 771
f 762 763 773 772
f 763 764 774 773
f 764 765 775 774
f 765 766 776 775
f 766 767 777 776
f 767 768 778 777
f 768 759 769 778
f 769 770 780 779
f 770 771 781 780
f 771 772 782 781
f 772 773 783 782
f 773 774 784 783
f 774 775 785 784
f 775 776 786 785
f 776 777 787 786
f 777 778 788 787
f 778 769 779 788
f 779 780 790 789
f 780 781 791 790
f 781 782 792 791
f 782 783 793 792
f 783 784 794 793
f 784 785 795 794
f 785 786 796 795
f 786 787 797 796
f 787 788 798 797
f 788 779 789 798
g Leg_0.9_-1.05
f 799 800 810 809
f 800 801 811 810
f 801 802 812 811
f 802 803 813 812
f 803 804 814 813
f 804 805 815 814
f 805 806 816 815
f 806 807 817 816
f 807 808 818 817
f 808 799 809 818
f 819 800 799
f 820 809 810
f 819 801 800
f 820 810 811
f 819 802 801
f 820 811 812
f 819 803 802
f 820 812 813
f 819 804 803
f 820 813 814
f 819 805 804
f 820 814 815
f 819 806 805
f 820 815 816
f 819 807 806
f 820 816 817
f 819 808 807
f 820 817 818
f 819 799 808
f 820 818 809
g Foot_0.9_-1.05
f 821 822 832 831
f 822 823 833 832
f 823 824 834 833
f 824 825 835 834
f 825 826 836 835
f 826 827 837 836
f 827 828 838 837
f 828 829 839 838
f 829 830 840 839
f 830 821 831 840
f 831 832 842 841
f 832 833 843 842
f 833 834 844 843
f 834 835 845 844
f 835 836 846 845
f 836 837 847 846
f 837 838 848 847
f 838 839 849 848
f 839 840 850 849
f 840 831 841 850
f 841 842 852 851
f 842 843 853 852
f 843 844 854 853
f 844 845 855 854
f 845 846 856 855
f 846 847 857 856
f 847 848 858 857
f 848 849 859 858
f 849 850 860 859
f 850 841 851 860
f 851 852 862 861
f 852 853 863 862
f 853 854 864 863
f 854 855 865 864
f 855 856 866 865
f 856 857 867 866
f 857 858 868 867
f 858 859 869 868
f 859 860 870 869
f 860 851 861 870
f 861 862 872 871
f 862 863 873 872
f 863 864 874 873
f 864 865 875 874
f 865 866 876 875
f 866 867 877 876
f 867 868 878 877
f 868 869 879 878
f 869 870 880 879
f 870 861 871 880
f 871 872 882 881
f 872 873 883 882
f 873 874 884 883
f 874 875 885 884
f 875 876 886 885
f 876 877 887 886
f 877 878 888 887
f 878 879 889 888
f 879 880 890 889
f 880 871 881 890
g Leg_0.9_1.35
f 891 892 902 901
f 892 893 903 902
f 893 894 904 903
f 894 895 905 904
f 895 896 906 905
f 896 897 907 906
f 897 898 908 907
f 898 899 909 908
f 899 900 910 909
f 900 891 901 910
f 911 892 891
f 912 901 902
f 911 893 892
f 912 902 903
f 911 894 893
f 912 903 904
f 911 895 894
f 912 904 905
f 911 896 895
f 912 905 906
f 911 897 896
f 912 906 907
f 911 898 897
f 912 907 908
f 911 899 898
f 912 908 909
f 911 900 899
f 912 909 910
f 911 891 900
f 912 910 901
g Foot_0.9_1.35
f 913 914 924 923
f 914 915 925 924
f 915 916 926 925
f 916 917 927 926
f 917 918 928 927
f 918 919 929 928
f 919 920 930 929
f 920 921 931 930
f 921 922 932 931
f 922 913 923 932
f 923 924 934 933
f 924 925 935 934
f 925 926 936 935
f 926 927 937 936
f 927 928 938 937
f 928 929 939 938
f 929 930 940 939
f 930 931 941 940
f 931 932 942 941
f 932 923 933 942
f 933 934 944 943
f 934 935 945 944
f 935 936 946 945
f 936 937 947 946
f 937 938 948 947
f 938 939 949 948
f 939 940 950 949
f 940 941 951 950
f 941 942 952 951
f 942 933 943 952
f 943 944 954 953
f 944 945 955 954
f 945 946 956 955
f 946 947 957 956
f 947 948 958 957
f 948 949 959 958
f 949 950 960 959
f 950 951 961 960
f 951 952 962 961
f 952 943 953 962
f 953 954 964 963
f 954 955 965 964
f 955 956 966 965
f 956 957 967 966
f 957 958 968 967
f 958 959 969 968
f 959 960 970 969
f 960 961 971 970
f 961 962 972 971
f 962 953 963 972
f 963 964 974 973
f 964 965 975 974
f 965 966 976 975
f 966 967 977 976
f 967 968 978 977
f 968 969 979 978
f 969 970 980 979
f 970 971 981 980
f 971 972 982 981
f 972 963 973 982
g TailA
usemtl GATOR_GREEN
f 983 984 998 997
f 984 985 999 998
f 985 986 1000 999
f 986 987 1001 1000
f 987 988 1002 1001
f 988 989 1003 1002
f 989 990 1004 1003
f 990 991 1005 1004
f 991 992 1006 1005
f 992 993 1007 1006
f 993 994 1008 1007
f 994 995 1009 1008
f 995 996 1010 1009
f 996 983 997 1010
f 1011 984 983
f 1012 997 998
f 1011 985 984
f 1012 998 999
f 1011 986 985
f 1012 999 1000
f 1011 987 986
f 1012 1000 1001
f 1011 988 987
f 1012 1001 1002
f 1011 989 988
f 1012 1002 1003
f 1011 990 989
f 1012 1003 1004
f 1011 991 990
f 1012 1004 1005
f 1011 992 991
f 1012 1005 1006
f 1011 993 992
f 1012 1006 1007
f 1011 994 993
f 1012 1007 1008
f 1011 995 994
f 1012 1008 1009
f 1011 996 995
f 1012 1009 1010
f 1011 983 996
f 1012 1010 997
g TailB
usemtl GATOR_DARK
f 1013 1014 1026 1025
f 1014 1015 1027 1026
f 1015 1016 1028 1027
f 1016 1017 1029 1028
f 1017 1018 1030 1029
f 1018 1019 1031 1030
f 1019 1020 1032 1031
f 1020 1021 1033 1032
f 1021 1022 1034 1033
f 1022 1023 1035 1034
f 1023 1024 1036 1035
f 1024 1013 1025 1036
f 1037 1014 1013
f 1038 1025 1026
f 1037 1015 1014
f 1038 1026 1027
f 1037 1016 1015
f 1038 1027 1028
f 1037 1017 1016
f 1038 1028 1029
f 1037 1018 1017
f 1038 1029 1030
f 1037 1019 1018
f 1038 1030 1031
f 1037 1020 1019
f 1038 1031 1032
f 1037 1021 1020
f 1038 1032 1033
f 1037 1022 1021
f 1038 1033 1034
f 1037 1023 1022
f 1038 1034 1035
f 1037 1024 1023
f 1038 1035 1036
f 1037 1013 1024
f 1038 1036 1025
g Dorsal0
usemtl ROCK_LIGHT
f 1039 1040 1043 1042
f 1040 1041 1044 1043
f 1041 1039 1042 1044
f 1041 1040 1039
f 1042 1043 1044
g Dorsal1
f 1045 1046 1049 1048
f 1046 1047 1050 1049
f 1047 1045 1048 1050
f 1047 1046 1045
f 1048 1049 1050
g Dorsal2
f 1051 1052 1055 1054
f 1052 1053 1056 1055
f 1053 1051 1054 1056
f 1053 1052 1051
f 1054 1055 1056
g Dorsal3
f 1057 1058 1061 1060
f 1058 1059 1062 1061
f 1059 1057 1060 1062
f 1059 1058 1057
f 1060 1061 1062
g Dorsal4
f 1063 1064 1067 1066
f 1064 1065 1068 1067
f 1065 1063 1066 1068
f 1065 1064 1063
f 1066 1067 1068
g Dorsal5
f 1069 1070 1073 1072
f 1070 1071 1074 1073
f 1071 1069 1072 1074
f 1071 1070 1069
f 1072 1073 1074
g Dorsal6
f 1075 1076 1079 1078
f 1076 1077 1080 1079
f 1077 1075 1078 1080
f 1077 1076 1075
f 1078 1079 1080
g EyeL
usemtl GATOR_EYE
f 1081 1082 1092 1091
f 1082 1083 1093 1092
f 1083 1084 1094 1093
f 1084 1085 1095 1094
f 1085 1086 1096 1095
f 1086 1087 1097 1096
f 1087 1088 1098 1097
f 1088 1089 1099 1098
f 1089 1090 1100 1099
f 1090 1081 1091 1100
f 1091 1092 1102 1101
f 1092 1093 1103 1102
f 1093 1094 1104 1103
f 1094 1095 1105 1104
f 1095 1096 1106 1105
f 1096 1097 1107 1106
f 1097 1098 1108 1107
f 1098 1099 1109 1108
f 1099 1100 1110 1109
f 1100 1091 1101 1110
f 1101 1102 1112 1111
f 1102 1103 1113 1112
f 1103 1104 1114 1113
f 1104 1105 1115 1114
f 1105 1106 1116 1115
f 1106 1107 1117 1116
f 1107 1108 1118 1117
f 1108 1109 1119 1118
f 1109 1110 1120 1119
f 1110 1101 1111 1120
f 1111 1112 1122 1121
f 1112 1113 1123 1122
f 1113 1114 1124 1123
f 1114 1115 1125 1124
f 1115 1116 1126 1125
f 1116 1117 1127 1126
f 1117 1118 1128 1127
f 1118 1119 1129 1128
f 1119 1120 1130 1129
f 1120 1111 1121 1130
f 1121 1122 1132 1131
f 1122 1123 1133 1132
f 1123 1124 1134 1133
f 1124 1125 1135 1134
f 1125 1126 1136 1135
f 1126 1127 1137 1136
f 1127 1128 1138 1137
f 1128 1129 1139 1138
f 1129 1130 1140 1139
f 1130 1121 1131 1140
f 1131 1132 1142 1141
f 1132 1133 1143 1142
f 1133 1134 1144 1143
f 1134 1135 1145 1144
f 1135 1136 1146 1145
f 1136 1137 1147 1146
f 1137 1138 1148 1147
f 1138 1139 1149 1148
f 1139 1140 1150 1149
f 1140 1131 1141 1150
g EyeR
f 1151 1152 1162 1161
f 1152 1153 1163 1162
f 1153 1154 1164 1163
f 1154 1155 1165 1164
f 1155 1156 1166 1165
f 1156 1157 1167 1166
f 1157 1158 1168 1167
f 1158 1159 1169 1168
f 1159 1160 1170 1169
f 1160 1151 1161 1170
f 1161 1162 1172 1171
f 1162 1163 1173 1172
f 1163 1164 1174 1173
f 1164 1165 1175 1174
f 1165 1166 1176 1175
f 1166 1167 1177 1176
f 1167 1168 1178 1177
f 1168 1169 1179 1178
f 1169 1170 1180 1179
f 1170 1161 1171 1180
f 1171 1172 1182 1181
f 1172 1173 1183 1182
f 1173 1174 1184 1183
f 1174 1175 1185 1184
f 1175 1176 1186 1185
f 1176 1177 1187 1186
f 1177 1178 1188 1187
f 1178 1179 1189 1188
f 1179 1180 1190 1189
f 1180 1171 1181 1190
f 1181 1182 1192 1191
f 1182 1183 1193 1192
f 1183 1184 1194 1193
f 1184 1185 1195 1194
f 1185 1186 1196 1195
f 1186 1187 1197 1196
f 1187 1188 1198 1197
f 1188 1189 1199 1198
f 1189 1190 1200 1199
f 1190 1181 1191 1200
f 1191 1192 1202 1201
f 1192 1193 1203 1202
f 1193 1194 1204 1203
f 1194 1195 1205 1204
f 1195 1196 1206 1205
f 1196 1197 1207 1206
f 1197 1198 1208 1207
f 1198 1199 1209 1208
f 1199 1200 1210 1209
f 1200 1191 1201 1210
f 1201 1202 1212 1211
f 1202 1203 1213 1212
f 1203 1204 1214 1213
f 1204 1205 1215 1214
f 1205 1206 1216 1215
f 1206 1207 1217 1216
f 1207 1208 1218 1217
f 1208 1209 1219 1218
f 1209 1210 1220 1219
f 1210 1201 1211 1220
