# tree_trunk_thick - project-original survival asset
mtllib survival-core-world.mtl
o tree_trunk_thick
v -0.82 0 0
v -0.73879 -0.35578 0
v -0.51126 -0.6411 0
v -0.18247 -0.79944 0
v 0.18247 -0.79944 0
v 0.51126 -0.6411 0
v 0.73879 -0.35578 0
v 0.82 0 0
v 0.73879 0.35578 0
v 0.51126 0.6411 0
v 0.18247 0.79944 0
v -0.18247 0.79944 0
v -0.51126 0.6411 0
v -0.73879 0.35578 0
v -0.52 0 5.4
v -0.4685 -0.22562 5.4
v -0.32421 -0.40655 5.4
v -0.11571 -0.50696 5.4
v 0.11571 -0.50696 5.4
v 0.32421 -0.40655 5.4
v 0.4685 -0.22562 5.4
v 0.52 0 5.4
v 0.4685 0.22562 5.4
v 0.32421 0.40655 5.4
v 0.11571 0.50696 5.4
v -0.11571 0.50696 5.4
v -0.32421 0.40655 5.4
v -0.4685 0.22562 5.4
v -0.5 0 4.9
v -0.45048 -0.21694 4.9
v -0.31174 -0.39092 4.9
v -0.11126 -0.48746 4.9
v 0.11126 -0.48746 4.9
v 0.31174 -0.39092 4.9
v 0.45048 -0.21694 4.9
v 0.5 0 4.9
v 0.45048 0.21694 4.9
v 0.31174 0.39092 4.9
v 0.11126 0.48746 4.9
v -0.11126 0.48746 4.9
v -0.31174 0.39092 4.9
v -0.45048 0.21694 4.9
v -0.4 0 5.65
v -0.36039 -0.17355 5.65
v -0.2494 -0.31273 5.65
v -0.08901 -0.38997 5.65
v 0.08901 -0.38997 5.65
v 0.2494 -0.31273 5.65
v 0.36039 -0.17355 5.65
v 0.4 0 5.65
v 0.36039 0.17355 5.65
v 0.2494 0.31273 5.65
v 0.08901 0.38997 5.65
v -0.08901 0.38997 5.65
v -0.2494 0.31273 5.65
v -0.36039 0.17355 5.65
v 0.35 -0.32 0.18
v 0.32974 -0.25889 -0.007
v 0.31722 -0.09889 -0.12257
v 0.31722 0.09889 -0.12257
v 0.32974 0.25889 -0.007
v 0.35 0.32 0.18
v 0.37026 0.25889 0.367
v 0.38278 0.09889 0.48257
v 0.38278 -0.09889 0.48257
v 0.37026 -0.25889 0.367
v 1.55 -0.08 0.05
v 1.54494 -0.06472 0.00325
v 1.54181 -0.02472 -0.02564
v 1.54181 0.02472 -0.02564
v 1.54494 0.06472 0.00325
v 1.55 0.08 0.05
v 1.55506 0.06472 0.09675
v 1.55819 0.02472 0.12564
v 1.55819 -0.02472 0.12564
v 1.55506 -0.06472 0.09675
v 0.42304 0.10093 0.18
v 0.35955 0.11977 -0.00635
v 0.22557 0.20864 -0.12153
v 0.07227 0.33359 -0.12153
v -0.04179 0.4469 -0.00635
v -0.07304 0.50528 0.18
v -0.00955 0.48645 0.36635
v 0.12443 0.39758 0.48153
v 0.27773 0.27263 0.48153
v 0.39179 0.15932 0.36635
v 0.83701 0.98869 0.05
v 0.82114 0.9934 0.00341
v 0.78764 1.01561 -0.02538
v 0.74932 1.04685 -0.02538
v 0.7208 1.07518 0.00341
v 0.71299 1.08977 0.05
v 0.72886 1.08506 0.09659
v 0.76236 1.06285 0.12538
v 0.80068 1.03161 0.12538
v 0.8292 1.00328 0.09659
v 0.07304 0.50528 0.18
v 0.04179 0.4469 -0.00635
v -0.07227 0.33359 -0.12153
v -0.22557 0.20864 -0.12153
v -0.35955 0.11977 -0.00635
v -0.42304 0.10093 0.18
v -0.39179 0.15932 0.36635
v -0.27773 0.27263 0.48153
v -0.12443 0.39758 0.48153
v 0.00955 0.48645 0.36635
v -0.71299 1.08977 0.05
v -0.7208 1.07518 0.00341
v -0.74932 1.04685 -0.02538
v -0.78764 1.01561 -0.02538
v -0.82114 0.9934 0.00341
v -0.83701 0.98869 0.05
v -0.8292 1.00328 0.09659
v -0.80068 1.03161 0.12538
v -0.76236 1.06285 0.12538
v -0.72886 1.08506 0.09659
v -0.35 0.32 0.18
v -0.32974 0.25889 -0.007
v -0.31722 0.09889 -0.12257
v -0.31722 -0.09889 -0.12257
v -0.32974 -0.25889 -0.007
v -0.35 -0.32 0.18
v -0.37026 -0.25889 0.367
v -0.38278 -0.09889 0.48257
v -0.38278 0.09889 0.48257
v -0.37026 0.25889 0.367
v -1.55 0.08 0.05
v -1.54494 0.06472 0.00325
v -1.54181 0.02472 -0.02564
v -1.54181 -0.02472 -0.02564
v -1.54494 -0.06472 0.00325
v -1.55 -0.08 0.05
v -1.55506 -0.06472 0.09675
v -1.55819 -0.02472 0.12564
v -1.55819 0.02472 0.12564
v -1.55506 0.06472 0.09675
v -0.42304 -0.10093 0.18
v -0.35955 -0.11977 -0.00635
v -0.22557 -0.20864 -0.12153
v -0.07227 -0.33359 -0.12153
v 0.04179 -0.4469 -0.00635
v 0.07304 -0.50528 0.18
v 0.00955 -0.48645 0.36635
v -0.12443 -0.39758 0.48153
v -0.27773 -0.27263 0.48153
v -0.39179 -0.15932 0.36635
v -0.83701 -0.98869 0.05
v -0.82114 -0.9934 0.00341
v -0.78764 -1.01561 -0.02538
v -0.74932 -1.04685 -0.02538
v -0.7208 -1.07518 0.00341
v -0.71299 -1.08977 0.05
v -0.72886 -1.08506 0.09659
v -0.76236 -1.06285 0.12538
v -0.80068 -1.03161 0.12538
v -0.8292 -1.00328 0.09659
v -0.07304 -0.50528 0.18
v -0.04179 -0.4469 -0.00635
v 0.07227 -0.33359 -0.12153
v 0.22557 -0.20864 -0.12153
v 0.35955 -0.11977 -0.00635
v 0.42304 -0.10093 0.18
v 0.39179 -0.15932 0.36635
v 0.27773 -0.27263 0.48153
v 0.12443 -0.39758 0.48153
v -0.00955 -0.48645 0.36635
v 0.71299 -1.08977 0.05
v 0.7208 -1.07518 0.00341
v 0.74932 -1.04685 -0.02538
v 0.78764 -1.01561 -0.02538
v 0.82114 -0.9934 0.00341
v 0.83701 -0.98869 0.05
v 0.8292 -1.00328 0.09659
v 0.80068 -1.03161 0.12538
v 0.76236 -1.06285 0.12538
v 0.72886 -1.08506 0.09659
v 0.49715 0.41874 0.9
v 0.49715 0.41874 0.9
v 0.49715 0.41874 0.9
v 0.49715 0.41874 0.9
v 0.49715 0.41874 0.9
v 0.49715 0.41874 0.9
v 0.49715 0.41874 0.9
v 0.49715 0.41874 0.9
v 0.49715 0.41874 0.9
v 0.49715 0.41874 0.9
v 0.57715 0.41874 0.92679
v 0.56187 0.45401 0.92679
v 0.52187 0.4758 0.92679
v 0.47243 0.4758 0.92679
v 0.43243 0.45401 0.92679
v 0.41715 0.41874 0.92679
v 0.43243 0.38347 0.92679
v 0.47243 0.36168 0.92679
v 0.52187 0.36168 0.92679
v 0.56187 0.38347 0.92679
v 0.63571 0.41874 1
v 0.60925 0.47983 1
v 0.53997 0.51758 1
v 0.45433 0.51758 1
v 0.38505 0.47983 1
v 0.35858 0.41874 1
v 0.38505 0.35766 1
v 0.45433 0.3199 1
v 0.53997 0.3199 1
v 0.60925 0.35766 1
v 0.65715 0.41874 1.1
v 0.62659 0.48928 1.1
v 0.54659 0.53287 1.1
v 0.4477 0.53287 1.1
v 0.3677 0.48928 1.1
v 0.33715 0.41874 1.1
v 0.3677 0.34821 1.1
v 0.4477 0.30461 1.1
v 0.54659 0.30461 1.1
v 0.62659 0.34821 1.1
v 0.63571 0.41874 1.2
v 0.60925 0.47983 1.2
v 0.53997 0.51758 1.2
v 0.45433 0.51758 1.2
v 0.38505 0.47983 1.2
v 0.35858 0.41874 1.2
v 0.38505 0.35766 1.2
v 0.45433 0.3199 1.2
v 0.53997 0.3199 1.2
v 0.60925 0.35766 1.2
v 0.57715 0.41874 1.27321
v 0.56187 0.45401 1.27321
v 0.52187 0.4758 1.27321
v 0.47243 0.4758 1.27321
v 0.43243 0.45401 1.27321
v 0.41715 0.41874 1.27321
v 0.43243 0.38347 1.27321
v 0.47243 0.36168 1.27321
v 0.52187 0.36168 1.27321
v 0.56187 0.38347 1.27321
v 0.49715 0.41874 1.3
v 0.49715 0.41874 1.3
v 0.49715 0.41874 1.3
v 0.49715 0.41874 1.3
v 0.49715 0.41874 1.3
v 0.49715 0.41874 1.3
v 0.49715 0.41874 1.3
v 0.49715 0.41874 1.3
v 0.49715 0.41874 1.3
v 0.49715 0.41874 1.3
v -0.22849 0.60852 1.95
v -0.22849 0.60852 1.95
v -0.22849 0.60852 1.95
v -0.22849 0.60852 1.95
v -0.22849 0.60852 1.95
v -0.22849 0.60852 1.95
v -0.22849 0.60852 1.95
v -0.22849 0.60852 1.95
v -0.22849 0.60852 1.95
v -0.22849 0.60852 1.95
v -0.14849 0.60852 1.97679
v -0.16377 0.64378 1.97679
v -0.20377 0.66558 1.97679
v -0.25322 0.66558 1.97679
v -0.29322 0.64378 1.97679
v -0.30849 0.60852 1.97679
v -0.29322 0.57325 1.97679
v -0.25322 0.55145 1.97679
v -0.20377 0.55145 1.97679
v -0.16377 0.57325 1.97679
v -0.08993 0.60852 2.05
v -0.11639 0.6696 2.05
v -0.18568 0.70735 2.05
v -0.27131 0.70735 2.05
v -0.34059 0.6696 2.05
v -0.36706 0.60852 2.05
v -0.34059 0.54743 2.05
v -0.27131 0.50968 2.05
v -0.18568 0.50968 2.05
v -0.11639 0.54743 2.05
v -0.06849 0.60852 2.15
v -0.09905 0.67905 2.15
v -0.17905 0.72264 2.15
v -0.27794 0.72264 2.15
v -0.35794 0.67905 2.15
v -0.38849 0.60852 2.15
v -0.35794 0.53798 2.15
v -0.27794 0.49439 2.15
v -0.17905 0.49439 2.15
v -0.09905 0.53798 2.15
v -0.08993 0.60852 2.25
v -0.11639 0.6696 2.25
v -0.18568 0.70735 2.25
v -0.27131 0.70735 2.25
v -0.34059 0.6696 2.25
v -0.36706 0.60852 2.25
v -0.34059 0.54743 2.25
v -0.27131 0.50968 2.25
v -0.18568 0.50968 2.25
v -0.11639 0.54743 2.25
v -0.14849 0.60852 2.32321
v -0.16377 0.64378 2.32321
v -0.20377 0.66558 2.32321
v -0.25322 0.66558 2.32321
v -0.29322 0.64378 2.32321
v -0.30849 0.60852 2.32321
v -0.29322 0.57325 2.32321
v -0.25322 0.55145 2.32321
v -0.20377 0.55145 2.32321
v -0.16377 0.57325 2.32321
v -0.22849 0.60852 2.35
v -0.22849 0.60852 2.35
v -0.22849 0.60852 2.35
v -0.22849 0.60852 2.35
v -0.22849 0.60852 2.35
v -0.22849 0.60852 2.35
v -0.22849 0.60852 2.35
v -0.22849 0.60852 2.35
v -0.22849 0.60852 2.35
v -0.22849 0.60852 2.35
v -0.64989 -0.01196 3
v -0.64989 -0.01196 3
v -0.64989 -0.01196 3
v -0.64989 -0.01196 3
v -0.64989 -0.01196 3
v -0.64989 -0.01196 3
v -0.64989 -0.01196 3
v -0.64989 -0.01196 3
v -0.64989 -0.01196 3
v -0.64989 -0.01196 3
v -0.56989 -0.01196 3.02679
v -0.58517 0.0233 3.02679
v -0.62517 0.0451 3.02679
v -0.67461 0.0451 3.02679
v -0.71461 0.0233 3.02679
v -0.72989 -0.01196 3.02679
v -0.71461 -0.04723 3.02679
v -0.67461 -0.06903 3.02679
v -0.62517 -0.06903 3.02679
v -0.58517 -0.04723 3.02679
v -0.51133 -0.01196 3.1
v -0.53779 0.04912 3.1
v -0.60707 0.08687 3.1
v -0.69271 0.08687 3.1
v -0.76199 0.04912 3.1
v -0.78845 -0.01196 3.1
v -0.76199 -0.07305 3.1
v -0.69271 -0.1108 3.1
v -0.60707 -0.1108 3.1
v -0.53779 -0.07305 3.1
v -0.48989 -0.01196 3.2
v -0.52045 0.05857 3.2
v -0.60045 0.10216 3.2
v -0.69933 0.10216 3.2
v -0.77933 0.05857 3.2
v -0.80989 -0.01196 3.2
v -0.77933 -0.0825 3.2
v -0.69933 -0.12609 3.2
v -0.60045 -0.12609 3.2
v -0.52045 -0.0825 3.2
v -0.51133 -0.01196 3.3
v -0.53779 0.04912 3.3
v -0.60707 0.08687 3.3
v -0.69271 0.08687 3.3
v -0.76199 0.04912 3.3
v -0.78845 -0.01196 3.3
v -0.76199 -0.07305 3.3
v -0.69271 -0.1108 3.3
v -0.60707 -0.1108 3.3
v -0.53779 -0.07305 3.3
v -0.56989 -0.01196 3.37321
v -0.58517 0.0233 3.37321
v -0.62517 0.0451 3.37321
v -0.67461 0.0451 3.37321
v -0.71461 0.0233 3.37321
v -0.72989 -0.01196 3.37321
v -0.71461 -0.04723 3.37321
v -0.67461 -0.06903 3.37321
v -0.62517 -0.06903 3.37321
v -0.58517 -0.04723 3.37321
v -0.64989 -0.01196 3.4
v -0.64989 -0.01196 3.4
v -0.64989 -0.01196 3.4
v -0.64989 -0.01196 3.4
v -0.64989 -0.01196 3.4
v -0.64989 -0.01196 3.4
v -0.64989 -0.01196 3.4
v -0.64989 -0.01196 3.4
v -0.64989 -0.01196 3.4
v -0.64989 -0.01196 3.4
v -0.20594 -0.61651 4.05
v -0.20594 -0.61651 4.05
v -0.20594 -0.61651 4.05
v -0.20594 -0.61651 4.05
v -0.20594 -0.61651 4.05
v -0.20594 -0.61651 4.05
v -0.20594 -0.61651 4.05
v -0.20594 -0.61651 4.05
v -0.20594 -0.61651 4.05
v -0.20594 -0.61651 4.05
v -0.12594 -0.61651 4.07679
v -0.14122 -0.58125 4.07679
v -0.18122 -0.55945 4.07679
v -0.23066 -0.55945 4.07679
v -0.27066 -0.58125 4.07679
v -0.28594 -0.61651 4.07679
v -0.27066 -0.65178 4.07679
v -0.23066 -0.67358 4.07679
v -0.18122 -0.67358 4.07679
v -0.14122 -0.65178 4.07679
v -0.06738 -0.61651 4.15
v -0.09384 -0.55543 4.15
v -0.16312 -0.51768 4.15
v -0.24876 -0.51768 4.15
v -0.31804 -0.55543 4.15
v -0.34451 -0.61651 4.15
v -0.31804 -0.6776 4.15
v -0.24876 -0.71535 4.15
v -0.16312 -0.71535 4.15
v -0.09384 -0.6776 4.15
v -0.04594 -0.61651 4.25
v -0.0765 -0.54598 4.25
v -0.1565 -0.50239 4.25
v -0.25538 -0.50239 4.25
v -0.33538 -0.54598 4.25
v -0.36594 -0.61651 4.25
v -0.33538 -0.68705 4.25
v -0.25538 -0.73064 4.25
v -0.1565 -0.73064 4.25
v -0.0765 -0.68705 4.25
v -0.06738 -0.61651 4.35
v -0.09384 -0.55543 4.35
v -0.16312 -0.51768 4.35
v -0.24876 -0.51768 4.35
v -0.31804 -0.55543 4.35
v -0.34451 -0.61651 4.35
v -0.31804 -0.6776 4.35
v -0.24876 -0.71535 4.35
v -0.16312 -0.71535 4.35
v -0.09384 -0.6776 4.35
v -0.12594 -0.61651 4.42321
v -0.14122 -0.58125 4.42321
v -0.18122 -0.55945 4.42321
v -0.23066 -0.55945 4.42321
v -0.27066 -0.58125 4.42321
v -0.28594 -0.61651 4.42321
v -0.27066 -0.65178 4.42321
v -0.23066 -0.67358 4.42321
v -0.18122 -0.67358 4.42321
v -0.14122 -0.65178 4.42321
v -0.20594 -0.61651 4.45
v -0.20594 -0.61651 4.45
v -0.20594 -0.61651 4.45
v -0.20594 -0.61651 4.45
v -0.20594 -0.61651 4.45
v -0.20594 -0.61651 4.45
v -0.20594 -0.61651 4.45
v -0.20594 -0.61651 4.45
v -0.20594 -0.61651 4.45
v -0.20594 -0.61651 4.45
v -0.47499 -0.68 0.45066
v -0.4618 -0.70734 0.45163
v -0.43218 -0.71409 0.45138
v -0.40846 -0.69517 0.45008
v -0.40848 -0.66483 0.44873
v -0.43224 -0.64591 0.44833
v -0.46184 -0.65266 0.44919
v -0.382 -0.49 4.70041
v -0.3737 -0.50718 4.70103
v -0.35509 -0.51143 4.70087
v -0.34017 -0.49954 4.70005
v -0.34019 -0.48046 4.6992
v -0.35512 -0.46857 4.69895
v -0.37373 -0.47282 4.69949
v -0.255 -0.68 0.45033
v -0.24181 -0.70734 0.45143
v -0.2122 -0.71409 0.45145
v -0.18846 -0.69517 0.45038
v -0.18847 -0.66483 0.44903
v -0.21223 -0.64591 0.4484
v -0.24183 -0.65266 0.44898
v -0.202 -0.49 4.70021
v -0.19371 -0.50718 4.7009
v -0.1751 -0.51143 4.70091
v -0.16018 -0.49954 4.70024
v -0.16018 -0.48046 4.69939
v -0.17511 -0.46857 4.699
v -0.19372 -0.47282 4.69936
v -0.035 -0.68 0.45
v -0.02182 -0.70734 0.45122
v 0.00779 -0.71409 0.45152
v 0.03153 -0.69517 0.45068
v 0.03153 -0.66483 0.44932
v 0.00779 -0.64591 0.44848
v -0.02182 -0.65266 0.44878
v -0.022 -0.49 4.7
v -0.01372 -0.50718 4.70077
v 0.0049 -0.51143 4.70096
v 0.01982 -0.49954 4.70043
v 0.01982 -0.48046 4.69957
v 0.0049 -0.46857 4.69904
v -0.01372 -0.47282 4.69923
v 0.185 -0.68 0.44967
v 0.19817 -0.70734 0.45102
v 0.22777 -0.71409 0.4516
v 0.25153 -0.69517 0.45097
v 0.25154 -0.66483 0.44962
v 0.2278 -0.64591 0.44855
v 0.19819 -0.65266 0.44857
v 0.158 -0.49 4.69979
v 0.16628 -0.50718 4.70064
v 0.18489 -0.51143 4.701
v 0.19982 -0.49954 4.70061
v 0.19982 -0.48046 4.69976
v 0.1849 -0.46857 4.69909
v 0.16629 -0.47282 4.6991
v 0.40501 -0.68 0.44934
v 0.41816 -0.70734 0.45081
v 0.44776 -0.71409 0.45167
v 0.47152 -0.69517 0.45127
v 0.47154 -0.66483 0.44992
v 0.44782 -0.64591 0.44862
v 0.4182 -0.65266 0.44837
v 0.338 -0.49 4.69959
v 0.34627 -0.50718 4.70051
v 0.36488 -0.51143 4.70105
v 0.37981 -0.49954 4.7008
v 0.37983 -0.48046 4.69995
v 0.36491 -0.46857 4.69913
v 0.3463 -0.47282 4.69897
g TrunkCore
usemtl SURVIVAL_BARK
f 1 2 16 15
f 2 3 17 16
f 3 4 18 17
f 4 5 19 18
f 5 6 20 19
f 6 7 21 20
f 7 8 22 21
f 8 9 23 22
f 9 10 24 23
f 10 11 25 24
f 11 12 26 25
f 12 13 27 26
f 13 14 28 27
f 14 1 15 28
g TrunkInner
usemtl SURVIVAL_WOOD
f 29 30 44 43
f 30 31 45 44
f 31 32 46 45
f 32 33 47 46
f 33 34 48 47
f 34 35 49 48
f 35 36 50 49
f 36 37 51 50
f 37 38 52 51
f 38 39 53 52
f 39 40 54 53
f 40 41 55 54
f 41 42 56 55
f 42 29 43 56
g Root0
usemtl SURVIVAL_BARK_DARK
f 57 58 68 67
f 58 59 69 68
f 59 60 70 69
f 60 61 71 70
f 61 62 72 71
f 62 63 73 72
f 63 64 74 73
f 64 65 75 74
f 65 66 76 75
f 66 57 67 76
g Root1
f 77 78 88 87
f 78 79 89 88
f 79 80 90 89
f 80 81 91 90
f 81 82 92 91
f 82 83 93 92
f 83 84 94 93
f 84 85 95 94
f 85 86 96 95
f 86 77 87 96
g Root2
f 97 98 108 107
f 98 99 109 108
f 99 100 110 109
f 100 101 111 110
f 101 102 112 111
f 102 103 113 112
f 103 104 114 113
f 104 105 115 114
f 105 106 116 115
f 106 97 107 116
g Root3
f 117 118 128 127
f 118 119 129 128
f 119 120 130 129
f 120 121 131 130
f 121 122 132 131
f 122 123 133 132
f 123 124 134 133
f 124 125 135 134
f 125 126 136 135
f 126 117 127 136
g Root4
f 137 138 148 147
f 138 139 149 148
f 139 140 150 149
f 140 141 151 150
f 141 142 152 151
f 142 143 153 152
f 143 144 154 153
f 144 145 155 154
f 145 146 156 155
f 146 137 147 156
g Root5
f 157 158 168 167
f 158 159 169 168
f 159 160 170 169
f 160 161 171 170
f 161 162 172 171
f 162 163 173 172
f 163 164 174 173
f 164 165 175 174
f 165 166 176 175
f 166 157 167 176
g Knot0
f 177 178 188 187
f 178 179 189 188
f 179 180 190 189
f 180 181 191 190
f 181 182 192 191
f 182 183 193 192
f 183 184 194 193
f 184 185 195 194
f 185 186 196 195
f 186 177 187 196
f 187 188 198 197
f 188 189 199 198
f 189 190 200 199
f 190 191 201 200
f 191 192 202 201
f 192 193 203 202
f 193 194 204 203
f 194 195 205 204
f 195 196 206 205
f 196 187 197 206
f 197 198 208 207
f 198 199 209 208
f 199 200 210 209
f 200 201 211 210
f 201 202 212 211
f 202 203 213 212
f 203 204 214 213
f 204 205 215 214
f 205 206 216 215
f 206 197 207 216
f 207 208 218 217
f 208 209 219 218
f 209 210 220 219
f 210 211 221 220
f 211 212 222 221
f 212 213 223 222
f 213 214 224 223
f 214 215 225 224
f 215 216 226 225
f 216 207 217 226
f 217 218 228 227
f 218 219 229 228
f 219 220 230 229
f 220 221 231 230
f 221 222 232 231
f 222 223 233 232
f 223 224 234 233
f 224 225 235 234
f 225 226 236 235
f 226 217 227 236
f 227 228 238 237
f 228 229 239 238
f 229 230 240 239
f 230 231 241 240
f 231 232 242 241
f 232 233 243 242
f 233 234 244 243
f 234 235 245 244
f 235 236 246 245
f 236 227 237 246
g Knot1
f 247 248 258 257
f 248 249 259 258
f 249 250 260 259
f 250 251 261 260
f 251 252 262 261
f 252 253 263 262
f 253 254 264 263
f 254 255 265 264
f 255 256 266 265
f 256 247 257 266
f 257 258 268 267
f 258 259 269 268
f 259 260 270 269
f 260 261 271 270
f 261 262 272 271
f 262 263 273 272
f 263 264 274 273
f 264 265 275 274
f 265 266 276 275
f 266 257 267 276
f 267 268 278 277
f 268 269 279 278
f 269 270 280 279
f 270 271 281 280
f 271 272 282 281
f 272 273 283 282
f 273 274 284 283
f 274 275 285 284
f 275 276 286 285
f 276 267 277 286
f 277 278 288 287
f 278 279 289 288
f 279 280 290 289
f 280 281 291 290
f 281 282 292 291
f 282 283 293 292
f 283 284 294 293
f 284 285 295 294
f 285 286 296 295
f 286 277 287 296
f 287 288 298 297
f 288 289 299 298
f 289 290 300 299
f 290 291 301 300
f 291 292 302 301
f 292 293 303 302
f 293 294 304 303
f 294 295 305 304
f 295 296 306 305
f 296 287 297 306
f 297 298 308 307
f 298 299 309 308
f 299 300 310 309
f 300 301 311 310
f 301 302 312 311
f 302 303 313 312
f 303 304 314 313
f 304 305 315 314
f 305 306 316 315
f 306 297 307 316
g Knot2
f 317 318 328 327
f 318 319 329 328
f 319 320 330 329
f 320 321 331 330
f 321 322 332 331
f 322 323 333 332
f 323 324 334 333
f 324 325 335 334
f 325 326 336 335
f 326 317 327 336
f 327 328 338 337
f 328 329 339 338
f 329 330 340 339
f 330 331 341 340
f 331 332 342 341
f 332 333 343 342
f 333 334 344 343
f 334 335 345 344
f 335 336 346 345
f 336 327 337 346
f 337 338 348 347
f 338 339 349 348
f 339 340 350 349
f 340 341 351 350
f 341 342 352 351
f 342 343 353 352
f 343 344 354 353
f 344 345 355 354
f 345 346 356 355
f 346 337 347 356
f 347 348 358 357
f 348 349 359 358
f 349 350 360 359
f 350 351 361 360
f 351 352 362 361
f 352 353 363 362
f 353 354 364 363
f 354 355 365 364
f 355 356 366 365
f 356 347 357 366
f 357 358 368 367
f 358 359 369 368
f 359 360 370 369
f 360 361 371 370
f 361 362 372 371
f 362 363 373 372
f 363 364 374 373
f 364 365 375 374
f 365 366 376 375
f 366 357 367 376
f 367 368 378 377
f 368 369 379 378
f 369 370 380 379
f 370 371 381 380
f 371 372 382 381
f 372 373 383 382
f 373 374 384 383
f 374 375 385 384
f 375 376 386 385
f 376 367 377 386
g Knot3
f 387 388 398 397
f 388 389 399 398
f 389 390 400 399
f 390 391 401 400
f 391 392 402 401
f 392 393 403 402
f 393 394 404 403
f 394 395 405 404
f 395 396 406 405
f 396 387 397 406
f 397 398 408 407
f 398 399 409 408
f 399 400 410 409
f 400 401 411 410
f 401 402 412 411
f 402 403 413 412
f 403 404 414 413
f 404 405 415 414
f 405 406 416 415
f 406 397 407 416
f 407 408 418 417
f 408 409 419 418
f 409 410 420 419
f 410 411 421 420
f 411 412 422 421
f 412 413 423 422
f 413 414 424 423
f 414 415 425 424
f 415 416 426 425
f 416 407 417 426
f 417 418 428 427
f 418 419 429 428
f 419 420 430 429
f 420 421 431 430
f 421 422 432 431
f 422 423 433 432
f 423 424 434 433
f 424 425 435 434
f 425 426 436 435
f 426 417 427 436
f 427 428 438 437
f 428 429 439 438
f 429 430 440 439
f 430 431 441 440
f 431 432 442 441
f 432 433 443 442
f 433 434 444 443
f 434 435 445 444
f 435 436 446 445
f 436 427 437 446
f 437 438 448 447
f 438 439 449 448
f 439 440 450 449
f 440 441 451 450
f 441 442 452 451
f 442 443 453 452
f 443 444 454 453
f 444 445 455 454
f 445 446 456 455
f 446 437 447 456
g BarkRidge0
usemtl SURVIVAL_BARK_LIGHT
f 457 458 465 464
f 458 459 466 465
f 459 460 467 466
f 460 461 468 467
f 461 462 469 468
f 462 463 470 469
f 463 457 464 470
g BarkRidge1
f 471 472 479 478
f 472 473 480 479
f 473 474 481 480
f 474 475 482 481
f 475 476 483 482
f 476 477 484 483
f 477 471 478 484
g BarkRidge2
f 485 486 493 492
f 486 487 494 493
f 487 488 495 494
f 488 489 496 495
f 489 490 497 496
f 490 491 498 497
f 491 485 492 498
g BarkRidge3
f 499 500 507 506
f 500 501 508 507
f 501 502 509 508
f 502 503 510 509
f 503 504 511 510
f 504 505 512 511
f 505 499 506 512
g BarkRidge4
f 513 514 521 520
f 514 515 522 521
f 515 516 523 522
f 516 517 524 523
f 517 518 525 524
f 518 519 526 525
f 519 513 520 526
