# waterotter - project-original Roblox source asset
mtllib monster-adventure.mtl
o waterotter
v 0 0.1 0.42
v 0 0.1 0.42
v 0 0.1 0.42
v 0 0.1 0.42
v 0 0.1 0.42
v 0 0.1 0.42
v 0 0.1 0.42
v 0 0.1 0.42
v 0 0.1 0.42
v 0 0.1 0.42
v 0 0.1 0.42
v 0 0.1 0.42
v 0 0.1 0.42
v 0 0.1 0.42
v 0 0.1 0.42
v 0 0.1 0.42
v 0.29666 0.1 0.45818
v 0.27407 0.3306 0.45818
v 0.20977 0.52609 0.45818
v 0.11353 0.65671 0.45818
v 0 0.70258 0.45818
v -0.11353 0.65671 0.45818
v -0.20977 0.52609 0.45818
v -0.27407 0.3306 0.45818
v -0.29666 0.1 0.45818
v -0.27407 -0.1306 0.45818
v -0.20977 -0.32609 0.45818
v -0.11353 -0.45671 0.45818
v 0 -0.50258 0.45818
v 0.11353 -0.45671 0.45818
v 0.20977 -0.32609 0.45818
v 0.27407 -0.1306 0.45818
v 0.56427 0.1 0.56897
v 0.52132 0.53862 0.56897
v 0.399 0.91047 0.56897
v 0.21594 1.15893 0.56897
v 0 1.24618 0.56897
v -0.21594 1.15893 0.56897
v -0.399 0.91047 0.56897
v -0.52132 0.53862 0.56897
v -0.56427 0.1 0.56897
v -0.52132 -0.33862 0.56897
v -0.399 -0.71047 0.56897
v -0.21594 -0.95893 0.56897
v 0 -1.04618 0.56897
v 0.21594 -0.95893 0.56897
v 0.399 -0.71047 0.56897
v 0.52132 -0.33862 0.56897
v 0.77666 0.1 0.74153
v 0.71754 0.70371 0.74153
v 0.54918 1.21552 0.74153
v 0.29721 1.5575 0.74153
v 0 1.67758 0.74153
v -0.29721 1.5575 0.74153
v -0.54918 1.21552 0.74153
v -0.71754 0.70371 0.74153
v -0.77666 0.1 0.74153
v -0.71754 -0.50371 0.74153
v -0.54918 -1.01552 0.74153
v -0.29721 -1.3575 0.74153
v 0 -1.47758 0.74153
v 0.29721 -1.3575 0.74153
v 0.54918 -1.01552 0.74153
v 0.71754 -0.50371 0.74153
v 0.91301 0.1 0.95897
v 0.84352 0.80971 0.95897
v 0.6456 1.41137 0.95897
v 0.3494 1.81339 0.95897
v 0 1.95456 0.95897
v -0.3494 1.81339 0.95897
v -0.6456 1.41137 0.95897
v -0.84352 0.80971 0.95897
v -0.91301 0.1 0.95897
v -0.84352 -0.60971 0.95897
v -0.6456 -1.21137 0.95897
v -0.3494 -1.61339 0.95897
v 0 -1.75456 0.95897
v 0.3494 -1.61339 0.95897
v 0.6456 -1.21137 0.95897
v 0.84352 -0.60971 0.95897
v 0.96 0.1 1.2
v 0.88692 0.84623 1.2
v 0.67882 1.47886 1.2
v 0.36738 1.90157 1.2
v 0 2.05 1.2
v -0.36738 1.90157 1.2
v -0.67882 1.47886 1.2
v -0.88692 0.84623 1.2
v -0.96 0.1 1.2
v -0.88692 -0.64623 1.2
v -0.67882 -1.27886 1.2
v -0.36738 -1.70157 1.2
v 0 -1.85 1.2
v 0.36738 -1.70157 1.2
v 0.67882 -1.27886 1.2
v 0.88692 -0.64623 1.2
v 0.91301 0.1 1.44103
v 0.84352 0.80971 1.44103
v 0.6456 1.41137 1.44103
v 0.3494 1.81339 1.44103
v 0 1.95456 1.44103
v -0.3494 1.81339 1.44103
v -0.6456 1.41137 1.44103
v -0.84352 0.80971 1.44103
v -0.91301 0.1 1.44103
v -0.84352 -0.60971 1.44103
v -0.6456 -1.21137 1.44103
v -0.3494 -1.61339 1.44103
v 0 -1.75456 1.44103
v 0.3494 -1.61339 1.44103
v 0.6456 -1.21137 1.44103
v 0.84352 -0.60971 1.44103
v 0.77666 0.1 1.65847
v 0.71754 0.70371 1.65847
v 0.54918 1.21552 1.65847
v 0.29721 1.5575 1.65847
v 0 1.67758 1.65847
v -0.29721 1.5575 1.65847
v -0.54918 1.21552 1.65847
v -0.71754 0.70371 1.65847
v -0.77666 0.1 1.65847
v -0.71754 -0.50371 1.65847
v -0.54918 -1.01552 1.65847
v -0.29721 -1.3575 1.65847
v 0 -1.47758 1.65847
v 0.29721 -1.3575 1.65847
v 0.54918 -1.01552 1.65847
v 0.71754 -0.50371 1.65847
v 0.56427 0.1 1.83103
v 0.52132 0.53862 1.83103
v 0.399 0.91047 1.83103
v 0.21594 1.15893 1.83103
v 0 1.24618 1.83103
v -0.21594 1.15893 1.83103
v -0.399 0.91047 1.83103
v -0.52132 0.53862 1.83103
v -0.56427 0.1 1.83103
v -0.52132 -0.33862 1.83103
v -0.399 -0.71047 1.83103
v -0.21594 -0.95893 1.83103
v 0 -1.04618 1.83103
v 0.21594 -0.95893 1.83103
v 0.399 -0.71047 1.83103
v 0.52132 -0.33862 1.83103
v 0.29666 0.1 1.94182
v 0.27407 0.3306 1.94182
v 0.20977 0.52609 1.94182
v 0.11353 0.65671 1.94182
v 0 0.70258 1.94182
v -0.11353 0.65671 1.94182
v -0.20977 0.52609 1.94182
v -0.27407 0.3306 1.94182
v -0.29666 0.1 1.94182
v -0.27407 -0.1306 1.94182
v -0.20977 -0.32609 1.94182
v -0.11353 -0.45671 1.94182
v 0 -0.50258 1.94182
v 0.11353 -0.45671 1.94182
v 0.20977 -0.32609 1.94182
v 0.27407 -0.1306 1.94182
v 0 0.1 1.98
v 0 0.1 1.98
v 0 0.1 1.98
v 0 0.1 1.98
v 0 0.1 1.98
v 0 0.1 1.98
v 0 0.1 1.98
v 0 0.1 1.98
v 0 0.1 1.98
v 0 0.1 1.98
v 0 0.1 1.98
v 0 0.1 1.98
v 0 0.1 1.98
v 0 0.1 1.98
v 0 0.1 1.98
v 0 0.1 1.98
v 0 -1.18 0.52
v 0 -1.18 0.52
v 0 -1.18 0.52
v 0 -1.18 0.52
v 0 -1.18 0.52
v 0 -1.18 0.52
v 0 -1.18 0.52
v 0 -1.18 0.52
v 0 -1.18 0.52
v 0 -1.18 0.52
v 0 -1.18 0.52
v 0 -1.18 0.52
v 0 -1.18 0.52
v 0 -1.18 0.52
v 0.32911 -1.18 0.5809
v 0.29652 -1.03388 0.5809
v 0.2052 -0.91671 0.5809
v 0.07323 -0.85168 0.5809
v -0.07323 -0.85168 0.5809
v -0.2052 -0.91671 0.5809
v -0.29652 -1.03388 0.5809
v -0.32911 -1.18 0.5809
v -0.29652 -1.32612 0.5809
v -0.2052 -1.44329 0.5809
v -0.07323 -1.50832 0.5809
v 0.07323 -1.50832 0.5809
v 0.2052 -1.44329 0.5809
v 0.29652 -1.32612 0.5809
v 0.60811 -1.18 0.75431
v 0.54789 -0.91001 0.75431
v 0.37915 -0.6935 0.75431
v 0.13532 -0.57335 0.75431
v -0.13532 -0.57335 0.75431
v -0.37915 -0.6935 0.75431
v -0.54789 -0.91001 0.75431
v -0.60811 -1.18 0.75431
v -0.54789 -1.44999 0.75431
v -0.37915 -1.6665 0.75431
v -0.13532 -1.78665 0.75431
v 0.13532 -1.78665 0.75431
v 0.37915 -1.6665 0.75431
v 0.54789 -1.44999 0.75431
v 0.79454 -1.18 1.01385
v 0.71585 -0.82725 1.01385
v 0.49539 -0.54436 1.01385
v 0.1768 -0.38737 1.01385
v -0.1768 -0.38737 1.01385
v -0.49539 -0.54436 1.01385
v -0.71585 -0.82725 1.01385
v -0.79454 -1.18 1.01385
v -0.71585 -1.53275 1.01385
v -0.49539 -1.81564 1.01385
v -0.1768 -1.97263 1.01385
v 0.1768 -1.97263 1.01385
v 0.49539 -1.81564 1.01385
v 0.71585 -1.53275 1.01385
v 0.86 -1.18 1.32
v 0.77483 -0.79818 1.32
v 0.5362 -0.49199 1.32
v 0.19137 -0.32206 1.32
v -0.19137 -0.32206 1.32
v -0.5362 -0.49199 1.32
v -0.77483 -0.79818 1.32
v -0.86 -1.18 1.32
v -0.77483 -1.56182 1.32
v -0.5362 -1.86801 1.32
v -0.19137 -2.03794 1.32
v 0.19137 -2.03794 1.32
v 0.5362 -1.86801 1.32
v 0.77483 -1.56182 1.32
v 0.79454 -1.18 1.62615
v 0.71585 -0.82725 1.62615
v 0.49539 -0.54436 1.62615
v 0.1768 -0.38737 1.62615
v -0.1768 -0.38737 1.62615
v -0.49539 -0.54436 1.62615
v -0.71585 -0.82725 1.62615
v -0.79454 -1.18 1.62615
v -0.71585 -1.53275 1.62615
v -0.49539 -1.81564 1.62615
v -0.1768 -1.97263 1.62615
v 0.1768 -1.97263 1.62615
v 0.49539 -1.81564 1.62615
v 0.71585 -1.53275 1.62615
v 0.60811 -1.18 1.88569
v 0.54789 -0.91001 1.88569
v 0.37915 -0.6935 1.88569
v 0.13532 -0.57335 1.88569
v -0.13532 -0.57335 1.88569
v -0.37915 -0.6935 1.88569
v -0.54789 -0.91001 1.88569
v -0.60811 -1.18 1.88569
v -0.54789 -1.44999 1.88569
v -0.37915 -1.6665 1.88569
v -0.13532 -1.78665 1.88569
v 0.13532 -1.78665 1.88569
v 0.37915 -1.6665 1.88569
v 0.54789 -1.44999 1.88569
v 0.32911 -1.18 2.0591
v 0.29652 -1.03388 2.0591
v 0.2052 -0.91671 2.0591
v 0.07323 -0.85168 2.0591
v -0.07323 -0.85168 2.0591
v -0.2052 -0.91671 2.0591
v -0.29652 -1.03388 2.0591
v -0.32911 -1.18 2.0591
v -0.29652 -1.32612 2.0591
v -0.2052 -1.44329 2.0591
v -0.07323 -1.50832 2.0591
v 0.07323 -1.50832 2.0591
v 0.2052 -1.44329 2.0591
v 0.29652 -1.32612 2.0591
v 0 -1.18 2.12
v 0 -1.18 2.12
v 0 -1.18 2.12
v 0 -1.18 2.12
v 0 -1.18 2.12
v 0 -1.18 2.12
v 0 -1.18 2.12
v 0 -1.18 2.12
v 0 -1.18 2.12
v 0 -1.18 2.12
v 0 -1.18 2.12
v 0 -1.18 2.12
v 0 -1.18 2.12
v 0 -1.18 2.12
v 0 -2.02 1.14
v 0 -2.02 1.14
v 0 -2.02 1.14
v 0 -2.02 1.14
v 0 -2.02 1.14
v 0 -2.02 1.14
v 0 -2.02 1.14
v 0 -2.02 1.14
v 0 -2.02 1.14
v 0 -2.02 1.14
v 0 -2.02 1.14
v 0 -2.02 1.14
v 0 -2.02 1.14
v 0 -2.02 1.14
v 0 -2.02 1.14
v 0 -2.02 1.14
v 0.23941 -2.02 1.1798
v 0.22119 -1.91791 1.1798
v 0.16929 -1.83136 1.1798
v 0.09162 -1.77353 1.1798
v 0 -1.75322 1.1798
v -0.09162 -1.77353 1.1798
v -0.16929 -1.83136 1.1798
v -0.22119 -1.91791 1.1798
v -0.23941 -2.02 1.1798
v -0.22119 -2.12209 1.1798
v -0.16929 -2.20864 1.1798
v -0.09162 -2.26647 1.1798
v 0 -2.28678 1.1798
v 0.09162 -2.26647 1.1798
v 0.16929 -2.20864 1.1798
v 0.22119 -2.12209 1.1798
v 0.44995 -2.02 1.29441
v 0.4157 -1.82813 1.29441
v 0.31816 -1.66547 1.29441
v 0.17219 -1.55679 1.29441
v 0 -1.51863 1.29441
v -0.17219 -1.55679 1.29441
v -0.31816 -1.66547 1.29441
v -0.4157 -1.82813 1.29441
v -0.44995 -2.02 1.29441
v -0.4157 -2.21187 1.29441
v -0.31816 -2.37453 1.29441
v -0.17219 -2.48321 1.29441
v 0 -2.52137 1.29441
v 0.17219 -2.48321 1.29441
v 0.31816 -2.37453 1.29441
v 0.4157 -2.21187 1.29441
v 0.60622 -2.02 1.47
v 0.56007 -1.7615 1.47
v 0.42866 -1.54235 1.47
v 0.23199 -1.39592 1.47
v 0 -1.3445 1.47
v -0.23199 -1.39592 1.47
v -0.42866 -1.54235 1.47
v -0.56007 -1.7615 1.47
v -0.60622 -2.02 1.47
v -0.56007 -2.2785 1.47
v -0.42866 -2.49765 1.47
v -0.23199 -2.64408 1.47
v 0 -2.6955 1.47
v 0.23199 -2.64408 1.47
v 0.42866 -2.49765 1.47
v 0.56007 -2.2785 1.47
v 0.68937 -2.02 1.68539
v 0.63689 -1.72604 1.68539
v 0.48745 -1.47684 1.68539
v 0.26381 -1.31032 1.68539
v 0 -1.25185 1.68539
v -0.26381 -1.31032 1.68539
v -0.48745 -1.47684 1.68539
v -0.63689 -1.72604 1.68539
v -0.68937 -2.02 1.68539
v -0.63689 -2.31396 1.68539
v -0.48745 -2.56316 1.68539
v -0.26381 -2.72968 1.68539
v 0 -2.78815 1.68539
v 0.26381 -2.72968 1.68539
v 0.48745 -2.56316 1.68539
v 0.63689 -2.31396 1.68539
v 0.68937 -2.02 1.91461
v 0.63689 -1.72604 1.91461
v 0.48745 -1.47684 1.91461
v 0.26381 -1.31032 1.91461
v 0 -1.25185 1.91461
v -0.26381 -1.31032 1.91461
v -0.48745 -1.47684 1.91461
v -0.63689 -1.72604 1.91461
v -0.68937 -2.02 1.91461
v -0.63689 -2.31396 1.91461
v -0.48745 -2.56316 1.91461
v -0.26381 -2.72968 1.91461
v 0 -2.78815 1.91461
v 0.26381 -2.72968 1.91461
v 0.48745 -2.56316 1.91461
v 0.63689 -2.31396 1.91461
v 0.60622 -2.02 2.13
v 0.56007 -1.7615 2.13
v 0.42866 -1.54235 2.13
v 0.23199 -1.39592 2.13
v 0 -1.3445 2.13
v -0.23199 -1.39592 2.13
v -0.42866 -1.54235 2.13
v -0.56007 -1.7615 2.13
v -0.60622 -2.02 2.13
v -0.56007 -2.2785 2.13
v -0.42866 -2.49765 2.13
v -0.23199 -2.64408 2.13
v 0 -2.6955 2.13
v 0.23199 -2.64408 2.13
v 0.42866 -2.49765 2.13
v 0.56007 -2.2785 2.13
v 0.44995 -2.02 2.30559
v 0.4157 -1.82813 2.30559
v 0.31816 -1.66547 2.30559
v 0.17219 -1.55679 2.30559
v 0 -1.51863 2.30559
v -0.17219 -1.55679 2.30559
v -0.31816 -1.66547 2.30559
v -0.4157 -1.82813 2.30559
v -0.44995 -2.02 2.30559
v -0.4157 -2.21187 2.30559
v -0.31816 -2.37453 2.30559
v -0.17219 -2.48321 2.30559
v 0 -2.52137 2.30559
v 0.17219 -2.48321 2.30559
v 0.31816 -2.37453 2.30559
v 0.4157 -2.21187 2.30559
v 0.23941 -2.02 2.4202
v 0.22119 -1.91791 2.4202
v 0.16929 -1.83136 2.4202
v 0.09162 -1.77353 2.4202
v 0 -1.75322 2.4202
v -0.09162 -1.77353 2.4202
v -0.16929 -1.83136 2.4202
v -0.22119 -1.91791 2.4202
v -0.23941 -2.02 2.4202
v -0.22119 -2.12209 2.4202
v -0.16929 -2.20864 2.4202
v -0.09162 -2.26647 2.4202
v 0 -2.28678 2.4202
v 0.09162 -2.26647 2.4202
v 0.16929 -2.20864 2.4202
v 0.22119 -2.12209 2.4202
v 0 -2.02 2.46
v 0 -2.02 2.46
v 0 -2.02 2.46
v 0 -2.02 2.46
v 0 -2.02 2.46
v 0 -2.02 2.46
v 0 -2.02 2.46
v 0 -2.02 2.46
v 0 -2.02 2.46
v 0 -2.02 2.46
v 0 -2.02 2.46
v 0 -2.02 2.46
v 0 -2.02 2.46
v 0 -2.02 2.46
v 0 -2.02 2.46
v 0 -2.02 2.46
v 0 -2.6 1.34
v 0 -2.6 1.34
v 0 -2.6 1.34
v 0 -2.6 1.34
v 0 -2.6 1.34
v 0 -2.6 1.34
v 0 -2.6 1.34
v 0 -2.6 1.34
v 0 -2.6 1.34
v 0 -2.6 1.34
v 0 -2.6 1.34
v 0 -2.6 1.34
v 0 -2.6 1.34
v 0 -2.6 1.34
v 0.19134 -2.6 1.36284
v 0.17239 -2.5369 1.36284
v 0.1193 -2.48631 1.36284
v 0.04258 -2.45823 1.36284
v -0.04258 -2.45823 1.36284
v -0.1193 -2.48631 1.36284
v -0.17239 -2.5369 1.36284
v -0.19134 -2.6 1.36284
v -0.17239 -2.6631 1.36284
v -0.1193 -2.71369 1.36284
v -0.04258 -2.74177 1.36284
v 0.04258 -2.74177 1.36284
v 0.1193 -2.71369 1.36284
v 0.17239 -2.6631 1.36284
v 0.35355 -2.6 1.42787
v 0.31854 -2.48342 1.42787
v 0.22044 -2.38992 1.42787
v 0.07867 -2.33804 1.42787
v -0.07867 -2.33804 1.42787
v -0.22044 -2.38992 1.42787
v -0.31854 -2.48342 1.42787
v -0.35355 -2.6 1.42787
v -0.31854 -2.71658 1.42787
v -0.22044 -2.81008 1.42787
v -0.07867 -2.86196 1.42787
v 0.07867 -2.86196 1.42787
v 0.22044 -2.81008 1.42787
v 0.31854 -2.71658 1.42787
v 0.46194 -2.6 1.52519
v 0.41619 -2.44767 1.52519
v 0.28801 -2.32552 1.52519
v 0.10279 -2.25773 1.52519
v -0.10279 -2.25773 1.52519
v -0.28801 -2.32552 1.52519
v -0.41619 -2.44767 1.52519
v -0.46194 -2.6 1.52519
v -0.41619 -2.75233 1.52519
v -0.28801 -2.87448 1.52519
v -0.10279 -2.94227 1.52519
v 0.10279 -2.94227 1.52519
v 0.28801 -2.87448 1.52519
v 0.41619 -2.75233 1.52519
v 0.5 -2.6 1.64
v 0.45048 -2.43512 1.64
v 0.31174 -2.3029 1.64
v 0.11126 -2.22953 1.64
v -0.11126 -2.22953 1.64
v -0.31174 -2.3029 1.64
v -0.45048 -2.43512 1.64
v -0.5 -2.6 1.64
v -0.45048 -2.76488 1.64
v -0.31174 -2.8971 1.64
v -0.11126 -2.97047 1.64
v 0.11126 -2.97047 1.64
v 0.31174 -2.8971 1.64
v 0.45048 -2.76488 1.64
v 0.46194 -2.6 1.75481
v 0.41619 -2.44767 1.75481
v 0.28801 -2.32552 1.75481
v 0.10279 -2.25773 1.75481
v -0.10279 -2.25773 1.75481
v -0.28801 -2.32552 1.75481
v -0.41619 -2.44767 1.75481
v -0.46194 -2.6 1.75481
v -0.41619 -2.75233 1.75481
v -0.28801 -2.87448 1.75481
v -0.10279 -2.94227 1.75481
v 0.10279 -2.94227 1.75481
v 0.28801 -2.87448 1.75481
v 0.41619 -2.75233 1.75481
v 0.35355 -2.6 1.85213
v 0.31854 -2.48342 1.85213
v 0.22044 -2.38992 1.85213
v 0.07867 -2.33804 1.85213
v -0.07867 -2.33804 1.85213
v -0.22044 -2.38992 1.85213
v -0.31854 -2.48342 1.85213
v -0.35355 -2.6 1.85213
v -0.31854 -2.71658 1.85213
v -0.22044 -2.81008 1.85213
v -0.07867 -2.86196 1.85213
v 0.07867 -2.86196 1.85213
v 0.22044 -2.81008 1.85213
v 0.31854 -2.71658 1.85213
v 0.19134 -2.6 1.91716
v 0.17239 -2.5369 1.91716
v 0.1193 -2.48631 1.91716
v 0.04258 -2.45823 1.91716
v -0.04258 -2.45823 1.91716
v -0.1193 -2.48631 1.91716
v -0.17239 -2.5369 1.91716
v -0.19134 -2.6 1.91716
v -0.17239 -2.6631 1.91716
v -0.1193 -2.71369 1.91716
v -0.04258 -2.74177 1.91716
v 0.04258 -2.74177 1.91716
v 0.1193 -2.71369 1.91716
v 0.17239 -2.6631 1.91716
v 0 -2.6 1.94
v 0 -2.6 1.94
v 0 -2.6 1.94
v 0 -2.6 1.94
v 0 -2.6 1.94
v 0 -2.6 1.94
v 0 -2.6 1.94
v 0 -2.6 1.94
v 0 -2.6 1.94
v 0 -2.6 1.94
v 0 -2.6 1.94
v 0 -2.6 1.94
v 0 -2.6 1.94
v 0 -2.6 1.94
v -0.48 -2.03 1.98
v -0.48 -2.03 1.98
v -0.48 -2.03 1.98
v -0.48 -2.03 1.98
v -0.48 -2.03 1.98
v -0.48 -2.03 1.98
v -0.48 -2.03 1.98
v -0.48 -2.03 1.98
v -0.48 -2.03 1.98
v -0.48 -2.03 1.98
v -0.37 -2.03 2.00947
v -0.39101 -1.9771 2.00947
v -0.44601 -1.9444 2.00947
v -0.51399 -1.9444 2.00947
v -0.56899 -1.9771 2.00947
v -0.59 -2.03 2.00947
v -0.56899 -2.0829 2.00947
v -0.51399 -2.1156 2.00947
v -0.44601 -2.1156 2.00947
v -0.39101 -2.0829 2.00947
v -0.28947 -2.03 2.09
v -0.32586 -1.93837 2.09
v -0.42112 -1.88174 2.09
v -0.53888 -1.88174 2.09
v -0.63414 -1.93837 2.09
v -0.67053 -2.03 2.09
v -0.63414 -2.12163 2.09
v -0.53888 -2.17826 2.09
v -0.42112 -2.17826 2.09
v -0.32586 -2.12163 2.09
v -0.26 -2.03 2.2
v -0.30202 -1.9242 2.2
v -0.41202 -1.85881 2.2
v -0.54798 -1.85881 2.2
v -0.65798 -1.9242 2.2
v -0.7 -2.03 2.2
v -0.65798 -2.1358 2.2
v -0.54798 -2.20119 2.2
v -0.41202 -2.20119 2.2
v -0.30202 -2.1358 2.2
v -0.28947 -2.03 2.31
v -0.32586 -1.93837 2.31
v -0.42112 -1.88174 2.31
v -0.53888 -1.88174 2.31
v -0.63414 -1.93837 2.31
v -0.67053 -2.03 2.31
v -0.63414 -2.12163 2.31
v -0.53888 -2.17826 2.31
v -0.42112 -2.17826 2.31
v -0.32586 -2.12163 2.31
v -0.37 -2.03 2.39053
v -0.39101 -1.9771 2.39053
v -0.44601 -1.9444 2.39053
v -0.51399 -1.9444 2.39053
v -0.56899 -1.9771 2.39053
v -0.59 -2.03 2.39053
v -0.56899 -2.0829 2.39053
v -0.51399 -2.1156 2.39053
v -0.44601 -2.1156 2.39053
v -0.39101 -2.0829 2.39053
v -0.48 -2.03 2.42
v -0.48 -2.03 2.42
v -0.48 -2.03 2.42
v -0.48 -2.03 2.42
v -0.48 -2.03 2.42
v -0.48 -2.03 2.42
v -0.48 -2.03 2.42
v -0.48 -2.03 2.42
v -0.48 -2.03 2.42
v -0.48 -2.03 2.42
v 0.48 -2.03 1.98
v 0.48 -2.03 1.98
v 0.48 -2.03 1.98
v 0.48 -2.03 1.98
v 0.48 -2.03 1.98
v 0.48 -2.03 1.98
v 0.48 -2.03 1.98
v 0.48 -2.03 1.98
v 0.48 -2.03 1.98
v 0.48 -2.03 1.98
v 0.59 -2.03 2.00947
v 0.56899 -1.9771 2.00947
v 0.51399 -1.9444 2.00947
v 0.44601 -1.9444 2.00947
v 0.39101 -1.9771 2.00947
v 0.37 -2.03 2.00947
v 0.39101 -2.0829 2.00947
v 0.44601 -2.1156 2.00947
v 0.51399 -2.1156 2.00947
v 0.56899 -2.0829 2.00947
v 0.67053 -2.03 2.09
v 0.63414 -1.93837 2.09
v 0.53888 -1.88174 2.09
v 0.42112 -1.88174 2.09
v 0.32586 -1.93837 2.09
v 0.28947 -2.03 2.09
v 0.32586 -2.12163 2.09
v 0.42112 -2.17826 2.09
v 0.53888 -2.17826 2.09
v 0.63414 -2.12163 2.09
v 0.7 -2.03 2.2
v 0.65798 -1.9242 2.2
v 0.54798 -1.85881 2.2
v 0.41202 -1.85881 2.2
v 0.30202 -1.9242 2.2
v 0.26 -2.03 2.2
v 0.30202 -2.1358 2.2
v 0.41202 -2.20119 2.2
v 0.54798 -2.20119 2.2
v 0.65798 -2.1358 2.2
v 0.67053 -2.03 2.31
v 0.63414 -1.93837 2.31
v 0.53888 -1.88174 2.31
v 0.42112 -1.88174 2.31
v 0.32586 -1.93837 2.31
v 0.28947 -2.03 2.31
v 0.32586 -2.12163 2.31
v 0.42112 -2.17826 2.31
v 0.53888 -2.17826 2.31
v 0.63414 -2.12163 2.31
v 0.59 -2.03 2.39053
v 0.56899 -1.9771 2.39053
v 0.51399 -1.9444 2.39053
v 0.44601 -1.9444 2.39053
v 0.39101 -1.9771 2.39053
v 0.37 -2.03 2.39053
v 0.39101 -2.0829 2.39053
v 0.44601 -2.1156 2.39053
v 0.51399 -2.1156 2.39053
v 0.56899 -2.0829 2.39053
v 0.48 -2.03 2.42
v 0.48 -2.03 2.42
v 0.48 -2.03 2.42
v 0.48 -2.03 2.42
v 0.48 -2.03 2.42
v 0.48 -2.03 2.42
v 0.48 -2.03 2.42
v 0.48 -2.03 2.42
v 0.48 -2.03 2.42
v 0.48 -2.03 2.42
v -0.36 -0.92 1.3
v -0.40202 -1.04218 1.34236
v -0.51202 -1.11769 1.36853
v -0.64798 -1.11769 1.36853
v -0.75798 -1.04218 1.34236
v -0.8 -0.92 1.3
v -0.75798 -0.79782 1.25764
v -0.64798 -0.72231 1.23147
v -0.51202 -0.72231 1.23147
v -0.40202 -0.79782 1.25764
v -0.43 -1.18 0.55
v -0.45865 -1.2633 0.57888
v -0.53365 -1.31479 0.59673
v -0.62635 -1.31479 0.59673
v -0.70135 -1.2633 0.57888
v -0.73 -1.18 0.55
v -0.70135 -1.0967 0.52112
v -0.62635 -1.04521 0.50327
v -0.53365 -1.04521 0.50327
v -0.45865 -1.0967 0.52112
v -0.58 -0.92 1.3
v -0.58 -1.18 0.55
v -0.58 -1.26 0.28
v -0.58 -1.26 0.28
v -0.58 -1.26 0.28
v -0.58 -1.26 0.28
v -0.58 -1.26 0.28
v -0.58 -1.26 0.28
v -0.58 -1.26 0.28
v -0.58 -1.26 0.28
v -0.58 -1.26 0.28
v -0.58 -1.26 0.28
v -0.44 -1.26 0.30144
v -0.46674 -1.14832 0.30144
v -0.53674 -1.0793 0.30144
v -0.62326 -1.0793 0.30144
v -0.69326 -1.14832 0.30144
v -0.72 -1.26 0.30144
v -0.69326 -1.37168 0.30144
v -0.62326 -1.4407 0.30144
v -0.53674 -1.4407 0.30144
v -0.46674 -1.37168 0.30144
v -0.33751 -1.26 0.36
v -0.38382 -1.06657 0.36
v -0.50507 -0.94702 0.36
v -0.65493 -0.94702 0.36
v -0.77618 -1.06657 0.36
v -0.82249 -1.26 0.36
v -0.77618 -1.45343 0.36
v -0.65493 -1.57298 0.36
v -0.50507 -1.57298 0.36
v -0.38382 -1.45343 0.36
v -0.3 -1.26 0.44
v -0.35348 -1.03664 0.44
v -0.49348 -0.8986 0.44
v -0.66652 -0.8986 0.44
v -0.80652 -1.03664 0.44
v -0.86 -1.26 0.44
v -0.80652 -1.48336 0.44
v -0.66652 -1.6214 0.44
v -0.49348 -1.6214 0.44
v -0.35348 -1.48336 0.44
v -0.33751 -1.26 0.52
v -0.38382 -1.06657 0.52
v -0.50507 -0.94702 0.52
v -0.65493 -0.94702 0.52
v -0.77618 -1.06657 0.52
v -0.82249 -1.26 0.52
v -0.77618 -1.45343 0.52
v -0.65493 -1.57298 0.52
v -0.50507 -1.57298 0.52
v -0.38382 -1.45343 0.52
v -0.44 -1.26 0.57856
v -0.46674 -1.14832 0.57856
v -0.53674 -1.0793 0.57856
v -0.62326 -1.0793 0.57856
v -0.69326 -1.14832 0.57856
v -0.72 -1.26 0.57856
v -0.69326 -1.37168 0.57856
v -0.62326 -1.4407 0.57856
v -0.53674 -1.4407 0.57856
v -0.46674 -1.37168 0.57856
v -0.58 -1.26 0.6
v -0.58 -1.26 0.6
v -0.58 -1.26 0.6
v -0.58 -1.26 0.6
v -0.58 -1.26 0.6
v -0.58 -1.26 0.6
v -0.58 -1.26 0.6
v -0.58 -1.26 0.6
v -0.58 -1.26 0.6
v -0.58 -1.26 0.6
v -0.34 0.82 1.02
v -0.38584 0.68823 0.96962
v -0.50584 0.6068 0.93848
v -0.65416 0.6068 0.93848
v -0.77416 0.68823 0.96962
v -0.82 0.82 1.02
v -0.77416 0.95177 1.07038
v -0.65416 1.0332 1.10152
v -0.50584 1.0332 1.10152
v -0.38584 0.95177 1.07038
v -0.42 1.08 0.34
v -0.45056 0.99216 0.30641
v -0.53056 0.93787 0.28565
v -0.62944 0.93787 0.28565
v -0.70944 0.99216 0.30641
v -0.74 1.08 0.34
v -0.70944 1.16784 0.37359
v -0.62944 1.22213 0.39435
v -0.53056 1.22213 0.39435
v -0.45056 1.16784 0.37359
v -0.58 0.82 1.02
v -0.58 1.08 0.34
v -0.58 1.22 0.1
v -0.58 1.22 0.1
v -0.58 1.22 0.1
v -0.58 1.22 0.1
v -0.58 1.22 0.1
v -0.58 1.22 0.1
v -0.58 1.22 0.1
v -0.58 1.22 0.1
v -0.58 1.22 0.1
v -0.58 1.22 0.1
v -0.43 1.22 0.12144
v -0.45865 1.34343 0.12144
v -0.53365 1.41972 0.12144
v -0.62635 1.41972 0.12144
v -0.70135 1.34343 0.12144
v -0.73 1.22 0.12144
v -0.70135 1.09657 0.12144
v -0.62635 1.02028 0.12144
v -0.53365 1.02028 0.12144
v -0.45865 1.09657 0.12144
v -0.32019 1.22 0.18
v -0.36981 1.4338 0.18
v -0.49972 1.56593 0.18
v -0.66028 1.56593 0.18
v -0.79019 1.4338 0.18
v -0.83981 1.22 0.18
v -0.79019 1.0062 0.18
v -0.66028 0.87407 0.18
v -0.49972 0.87407 0.18
v -0.36981 1.0062 0.18
v -0.28 1.22 0.26
v -0.33729 1.46687 0.26
v -0.48729 1.61944 0.26
v -0.67271 1.61944 0.26
v -0.82271 1.46687 0.26
v -0.88 1.22 0.26
v -0.82271 0.97313 0.26
v -0.67271 0.82056 0.26
v -0.48729 0.82056 0.26
v -0.33729 0.97313 0.26
v -0.32019 1.22 0.34
v -0.36981 1.4338 0.34
v -0.49972 1.56593 0.34
v -0.66028 1.56593 0.34
v -0.79019 1.4338 0.34
v -0.83981 1.22 0.34
v -0.79019 1.0062 0.34
v -0.66028 0.87407 0.34
v -0.49972 0.87407 0.34
v -0.36981 1.0062 0.34
v -0.43 1.22 0.39856
v -0.45865 1.34343 0.39856
v -0.53365 1.41972 0.39856
v -0.62635 1.41972 0.39856
v -0.70135 1.34343 0.39856
v -0.73 1.22 0.39856
v -0.70135 1.09657 0.39856
v -0.62635 1.02028 0.39856
v -0.53365 1.02028 0.39856
v -0.45865 1.09657 0.39856
v -0.58 1.22 0.42
v -0.58 1.22 0.42
v -0.58 1.22 0.42
v -0.58 1.22 0.42
v -0.58 1.22 0.42
v -0.58 1.22 0.42
v -0.58 1.22 0.42
v -0.58 1.22 0.42
v -0.58 1.22 0.42
v -0.58 1.22 0.42
v 0.8 -0.92 1.3
v 0.75798 -1.04218 1.34236
v 0.64798 -1.11769 1.36853
v 0.51202 -1.11769 1.36853
v 0.40202 -1.04218 1.34236
v 0.36 -0.92 1.3
v 0.40202 -0.79782 1.25764
v 0.51202 -0.72231 1.23147
v 0.64798 -0.72231 1.23147
v 0.75798 -0.79782 1.25764
v 0.73 -1.18 0.55
v 0.70135 -1.2633 0.57888
v 0.62635 -1.31479 0.59673
v 0.53365 -1.31479 0.59673
v 0.45865 -1.2633 0.57888
v 0.43 -1.18 0.55
v 0.45865 -1.0967 0.52112
v 0.53365 -1.04521 0.50327
v 0.62635 -1.04521 0.50327
v 0.70135 -1.0967 0.52112
v 0.58 -0.92 1.3
v 0.58 -1.18 0.55
v 0.58 -1.26 0.28
v 0.58 -1.26 0.28
v 0.58 -1.26 0.28
v 0.58 -1.26 0.28
v 0.58 -1.26 0.28
v 0.58 -1.26 0.28
v 0.58 -1.26 0.28
v 0.58 -1.26 0.28
v 0.58 -1.26 0.28
v 0.58 -1.26 0.28
v 0.72 -1.26 0.30144
v 0.69326 -1.14832 0.30144
v 0.62326 -1.0793 0.30144
v 0.53674 -1.0793 0.30144
v 0.46674 -1.14832 0.30144
v 0.44 -1.26 0.30144
v 0.46674 -1.37168 0.30144
v 0.53674 -1.4407 0.30144
v 0.62326 -1.4407 0.30144
v 0.69326 -1.37168 0.30144
v 0.82249 -1.26 0.36
v 0.77618 -1.06657 0.36
v 0.65493 -0.94702 0.36
v 0.50507 -0.94702 0.36
v 0.38382 -1.06657 0.36
v 0.33751 -1.26 0.36
v 0.38382 -1.45343 0.36
v 0.50507 -1.57298 0.36
v 0.65493 -1.57298 0.36
v 0.77618 -1.45343 0.36
v 0.86 -1.26 0.44
v 0.80652 -1.03664 0.44
v 0.66652 -0.8986 0.44
v 0.49348 -0.8986 0.44
v 0.35348 -1.03664 0.44
v 0.3 -1.26 0.44
v 0.35348 -1.48336 0.44
v 0.49348 -1.6214 0.44
v 0.66652 -1.6214 0.44
v 0.80652 -1.48336 0.44
v 0.82249 -1.26 0.52
v 0.77618 -1.06657 0.52
v 0.65493 -0.94702 0.52
v 0.50507 -0.94702 0.52
v 0.38382 -1.06657 0.52
v 0.33751 -1.26 0.52
v 0.38382 -1.45343 0.52
v 0.50507 -1.57298 0.52
v 0.65493 -1.57298 0.52
v 0.77618 -1.45343 0.52
v 0.72 -1.26 0.57856
v 0.69326 -1.14832 0.57856
v 0.62326 -1.0793 0.57856
v 0.53674 -1.0793 0.57856
v 0.46674 -1.14832 0.57856
v 0.44 -1.26 0.57856
v 0.46674 -1.37168 0.57856
v 0.53674 -1.4407 0.57856
v 0.62326 -1.4407 0.57856
v 0.69326 -1.37168 0.57856
v 0.58 -1.26 0.6
v 0.58 -1.26 0.6
v 0.58 -1.26 0.6
v 0.58 -1.26 0.6
v 0.58 -1.26 0.6
v 0.58 -1.26 0.6
v 0.58 -1.26 0.6
v 0.58 -1.26 0.6
v 0.58 -1.26 0.6
v 0.58 -1.26 0.6
v 0.82 0.82 1.02
v 0.77416 0.68823 0.96962
v 0.65416 0.6068 0.93848
v 0.50584 0.6068 0.93848
v 0.38584 0.68823 0.96962
v 0.34 0.82 1.02
v 0.38584 0.95177 1.07038
v 0.50584 1.0332 1.10152
v 0.65416 1.0332 1.10152
v 0.77416 0.95177 1.07038
v 0.74 1.08 0.34
v 0.70944 0.99216 0.30641
v 0.62944 0.93787 0.28565
v 0.53056 0.93787 0.28565
v 0.45056 0.99216 0.30641
v 0.42 1.08 0.34
v 0.45056 1.16784 0.37359
v 0.53056 1.22213 0.39435
v 0.62944 1.22213 0.39435
v 0.70944 1.16784 0.37359
v 0.58 0.82 1.02
v 0.58 1.08 0.34
v 0.58 1.22 0.1
v 0.58 1.22 0.1
v 0.58 1.22 0.1
v 0.58 1.22 0.1
v 0.58 1.22 0.1
v 0.58 1.22 0.1
v 0.58 1.22 0.1
v 0.58 1.22 0.1
v 0.58 1.22 0.1
v 0.58 1.22 0.1
v 0.73 1.22 0.12144
v 0.70135 1.34343 0.12144
v 0.62635 1.41972 0.12144
v 0.53365 1.41972 0.12144
v 0.45865 1.34343 0.12144
v 0.43 1.22 0.12144
v 0.45865 1.09657 0.12144
v 0.53365 1.02028 0.12144
v 0.62635 1.02028 0.12144
v 0.70135 1.09657 0.12144
v 0.83981 1.22 0.18
v 0.79019 1.4338 0.18
v 0.66028 1.56593 0.18
v 0.49972 1.56593 0.18
v 0.36981 1.4338 0.18
v 0.32019 1.22 0.18
v 0.36981 1.0062 0.18
v 0.49972 0.87407 0.18
v 0.66028 0.87407 0.18
v 0.79019 1.0062 0.18
v 0.88 1.22 0.26
v 0.82271 1.46687 0.26
v 0.67271 1.61944 0.26
v 0.48729 1.61944 0.26
v 0.33729 1.46687 0.26
v 0.28 1.22 0.26
v 0.33729 0.97313 0.26
v 0.48729 0.82056 0.26
v 0.67271 0.82056 0.26
v 0.82271 0.97313 0.26
v 0.83981 1.22 0.34
v 0.79019 1.4338 0.34
v 0.66028 1.56593 0.34
v 0.49972 1.56593 0.34
v 0.36981 1.4338 0.34
v 0.32019 1.22 0.34
v 0.36981 1.0062 0.34
v 0.49972 0.87407 0.34
v 0.66028 0.87407 0.34
v 0.79019 1.0062 0.34
v 0.73 1.22 0.39856
v 0.70135 1.34343 0.39856
v 0.62635 1.41972 0.39856
v 0.53365 1.41972 0.39856
v 0.45865 1.34343 0.39856
v 0.43 1.22 0.39856
v 0.45865 1.09657 0.39856
v 0.53365 1.02028 0.39856
v 0.62635 1.02028 0.39856
v 0.70135 1.09657 0.39856
v 0.58 1.22 0.42
v 0.58 1.22 0.42
v 0.58 1.22 0.42
v 0.58 1.22 0.42
v 0.58 1.22 0.42
v 0.58 1.22 0.42
v 0.58 1.22 0.42
v 0.58 1.22 0.42
v 0.58 1.22 0.42
v 0.58 1.22 0.42
v 0.34 1.72 1.16
v 0.30633 1.66152 1.02457
v 0.21199 1.61462 0.91596
v 0.07566 1.58859 0.85568
v -0.07566 1.58859 0.85568
v -0.21199 1.61462 0.91596
v -0.30633 1.66152 1.02457
v -0.34 1.72 1.16
v -0.30633 1.77848 1.29543
v -0.21199 1.82538 1.40404
v -0.07566 1.85141 1.46432
v 0.07566 1.85141 1.46432
v 0.21199 1.82538 1.40404
v 0.30633 1.77848 1.29543
v 0.25 2.6 0.78
v 0.22524 2.557 0.68042
v 0.15587 2.52251 0.60056
v 0.05563 2.50338 0.55624
v -0.05563 2.50338 0.55624
v -0.15587 2.52251 0.60056
v -0.22524 2.557 0.68042
v -0.25 2.6 0.78
v -0.22524 2.643 0.87958
v -0.15587 2.67749 0.95944
v -0.05563 2.69662 1.00376
v 0.05563 2.69662 1.00376
v 0.15587 2.67749 0.95944
v 0.22524 2.643 0.87958
v 0 1.72 1.16
v 0 2.6 0.78
v 0.26 2.6 0.78
v 0.23425 2.55465 0.67671
v 0.16211 2.51828 0.59387
v 0.05786 2.4981 0.5479
v -0.05786 2.4981 0.5479
v -0.16211 2.51828 0.59387
v -0.23425 2.55465 0.67671
v -0.26 2.6 0.78
v -0.23425 2.64535 0.88329
v -0.16211 2.68172 0.96613
v -0.05786 2.7019 1.0121
v 0.05786 2.7019 1.0121
v 0.16211 2.68172 0.96613
v 0.23425 2.64535 0.88329
v 0.12 3.42 0.42
v 0.10812 3.39907 0.37233
v 0.07482 3.38229 0.33409
v 0.0267 3.37297 0.31288
v -0.0267 3.37297 0.31288
v -0.07482 3.38229 0.33409
v -0.10812 3.39907 0.37233
v -0.12 3.42 0.42
v -0.10812 3.44093 0.46767
v -0.07482 3.45771 0.50591
v -0.0267 3.46703 0.52712
v 0.0267 3.46703 0.52712
v 0.07482 3.45771 0.50591
v 0.10812 3.44093 0.46767
v 0 2.6 0.78
v 0 3.42 0.42
v -0.62 2.56 0.38
v 0 3.72 0.38
v 0.62 2.56 0.38
v 0.22 2.18 0.38
v -0.22 2.18 0.38
v -0.62 2.56 0.5
v 0 3.72 0.5
v 0.62 2.56 0.5
v 0.22 2.18 0.5
v -0.22 2.18 0.5
v -0.26 -2.6 1.85
v -0.26 -2.6 1.85
v -0.26 -2.6 1.85
v -0.26 -2.6 1.85
v -0.26 -2.6 1.85
v -0.26 -2.6 1.85
v -0.26 -2.6 1.85
v -0.26 -2.6 1.85
v -0.26 -2.6 1.85
v -0.26 -2.6 1.85
v -0.21 -2.6 1.86474
v -0.21955 -2.58237 1.86474
v -0.24455 -2.57147 1.86474
v -0.27545 -2.57147 1.86474
v -0.30045 -2.58237 1.86474
v -0.31 -2.6 1.86474
v -0.30045 -2.61763 1.86474
v -0.27545 -2.62853 1.86474
v -0.24455 -2.62853 1.86474
v -0.21955 -2.61763 1.86474
v -0.1734 -2.6 1.905
v -0.18994 -2.56946 1.905
v -0.23324 -2.55058 1.905
v -0.28676 -2.55058 1.905
v -0.33006 -2.56946 1.905
v -0.3466 -2.6 1.905
v -0.33006 -2.63054 1.905
v -0.28676 -2.64942 1.905
v -0.23324 -2.64942 1.905
v -0.18994 -2.63054 1.905
v -0.16 -2.6 1.96
v -0.1791 -2.56473 1.96
v -0.2291 -2.54294 1.96
v -0.2909 -2.54294 1.96
v -0.3409 -2.56473 1.96
v -0.36 -2.6 1.96
v -0.3409 -2.63527 1.96
v -0.2909 -2.65706 1.96
v -0.2291 -2.65706 1.96
v -0.1791 -2.63527 1.96
v -0.1734 -2.6 2.015
v -0.18994 -2.56946 2.015
v -0.23324 -2.55058 2.015
v -0.28676 -2.55058 2.015
v -0.33006 -2.56946 2.015
v -0.3466 -2.6 2.015
v -0.33006 -2.63054 2.015
v -0.28676 -2.64942 2.015
v -0.23324 -2.64942 2.015
v -0.18994 -2.63054 2.015
v -0.21 -2.6 2.05526
v -0.21955 -2.58237 2.05526
v -0.24455 -2.57147 2.05526
v -0.27545 -2.57147 2.05526
v -0.30045 -2.58237 2.05526
v -0.31 -2.6 2.05526
v -0.30045 -2.61763 2.05526
v -0.27545 -2.62853 2.05526
v -0.24455 -2.62853 2.05526
v -0.21955 -2.61763 2.05526
v -0.26 -2.6 2.07
v -0.26 -2.6 2.07
v -0.26 -2.6 2.07
v -0.26 -2.6 2.07
v -0.26 -2.6 2.07
v -0.26 -2.6 2.07
v -0.26 -2.6 2.07
v -0.26 -2.6 2.07
v -0.26 -2.6 2.07
v -0.26 -2.6 2.07
v 0.26 -2.6 1.85
v 0.26 -2.6 1.85
v 0.26 -2.6 1.85
v 0.26 -2.6 1.85
v 0.26 -2.6 1.85
v 0.26 -2.6 1.85
v 0.26 -2.6 1.85
v 0.26 -2.6 1.85
v 0.26 -2.6 1.85
v 0.26 -2.6 1.85
v 0.31 -2.6 1.86474
v 0.30045 -2.58237 1.86474
v 0.27545 -2.57147 1.86474
v 0.24455 -2.57147 1.86474
v 0.21955 -2.58237 1.86474
v 0.21 -2.6 1.86474
v 0.21955 -2.61763 1.86474
v 0.24455 -2.62853 1.86474
v 0.27545 -2.62853 1.86474
v 0.30045 -2.61763 1.86474
v 0.3466 -2.6 1.905
v 0.33006 -2.56946 1.905
v 0.28676 -2.55058 1.905
v 0.23324 -2.55058 1.905
v 0.18994 -2.56946 1.905
v 0.1734 -2.6 1.905
v 0.18994 -2.63054 1.905
v 0.23324 -2.64942 1.905
v 0.28676 -2.64942 1.905
v 0.33006 -2.63054 1.905
v 0.36 -2.6 1.96
v 0.3409 -2.56473 1.96
v 0.2909 -2.54294 1.96
v 0.2291 -2.54294 1.96
v 0.1791 -2.56473 1.96
v 0.16 -2.6 1.96
v 0.1791 -2.63527 1.96
v 0.2291 -2.65706 1.96
v 0.2909 -2.65706 1.96
v 0.3409 -2.63527 1.96
v 0.3466 -2.6 2.015
v 0.33006 -2.56946 2.015
v 0.28676 -2.55058 2.015
v 0.23324 -2.55058 2.015
v 0.18994 -2.56946 2.015
v 0.1734 -2.6 2.015
v 0.18994 -2.63054 2.015
v 0.23324 -2.64942 2.015
v 0.28676 -2.64942 2.015
v 0.33006 -2.63054 2.015
v 0.31 -2.6 2.05526
v 0.30045 -2.58237 2.05526
v 0.27545 -2.57147 2.05526
v 0.24455 -2.57147 2.05526
v 0.21955 -2.58237 2.05526
v 0.21 -2.6 2.05526
v 0.21955 -2.61763 2.05526
v 0.24455 -2.62853 2.05526
v 0.27545 -2.62853 2.05526
v 0.30045 -2.61763 2.05526
v 0.26 -2.6 2.07
v 0.26 -2.6 2.07
v 0.26 -2.6 2.07
v 0.26 -2.6 2.07
v 0.26 -2.6 2.07
v 0.26 -2.6 2.07
v 0.26 -2.6 2.07
v 0.26 -2.6 2.07
v 0.26 -2.6 2.07
v 0.26 -2.6 2.07
v 0 -2.93 1.59
v 0 -2.93 1.59
v 0 -2.93 1.59
v 0 -2.93 1.59
v 0 -2.93 1.59
v 0 -2.93 1.59
v 0 -2.93 1.59
v 0 -2.93 1.59
v 0 -2.93 1.59
v 0 -2.93 1.59
v 0.065 -2.93 1.6034
v 0.05259 -2.90061 1.6034
v 0.02009 -2.88245 1.6034
v -0.02009 -2.88245 1.6034
v -0.05259 -2.90061 1.6034
v -0.065 -2.93 1.6034
v -0.05259 -2.95939 1.6034
v -0.02009 -2.97755 1.6034
v 0.02009 -2.97755 1.6034
v 0.05259 -2.95939 1.6034
v 0.11258 -2.93 1.64
v 0.09108 -2.8791 1.64
v 0.03479 -2.84764 1.64
v -0.03479 -2.84764 1.64
v -0.09108 -2.8791 1.64
v -0.11258 -2.93 1.64
v -0.09108 -2.9809 1.64
v -0.03479 -3.01236 1.64
v 0.03479 -3.01236 1.64
v 0.09108 -2.9809 1.64
v 0.13 -2.93 1.69
v 0.10517 -2.87122 1.69
v 0.04017 -2.83489 1.69
v -0.04017 -2.83489 1.69
v -0.10517 -2.87122 1.69
v -0.13 -2.93 1.69
v -0.10517 -2.98878 1.69
v -0.04017 -3.02511 1.69
v 0.04017 -3.02511 1.69
v 0.10517 -2.98878 1.69
v 0.11258 -2.93 1.74
v 0.09108 -2.8791 1.74
v 0.03479 -2.84764 1.74
v -0.03479 -2.84764 1.74
v -0.09108 -2.8791 1.74
v -0.11258 -2.93 1.74
v -0.09108 -2.9809 1.74
v -0.03479 -3.01236 1.74
v 0.03479 -3.01236 1.74
v 0.09108 -2.9809 1.74
v 0.065 -2.93 1.7766
v 0.05259 -2.90061 1.7766
v 0.02009 -2.88245 1.7766
v -0.02009 -2.88245 1.7766
v -0.05259 -2.90061 1.7766
v -0.065 -2.93 1.7766
v -0.05259 -2.95939 1.7766
v -0.02009 -2.97755 1.7766
v 0.02009 -2.97755 1.7766
v 0.05259 -2.95939 1.7766
v 0 -2.93 1.79
v 0 -2.93 1.79
v 0 -2.93 1.79
v 0 -2.93 1.79
v 0 -2.93 1.79
v 0 -2.93 1.79
v 0 -2.93 1.79
v 0 -2.93 1.79
v 0 -2.93 1.79
v 0 -2.93 1.79
g Body
usemtl OTTER_BROWN
f 1 2 18 17
f 2 3 19 18
f 3 4 20 19
f 4 5 21 20
f 5 6 22 21
f 6 7 23 22
f 7 8 24 23
f 8 9 25 24
f 9 10 26 25
f 10 11 27 26
f 11 12 28 27
f 12 13 29 28
f 13 14 30 29
f 14 15 31 30
f 15 16 32 31
f 16 1 17 32
f 17 18 34 33
f 18 19 35 34
f 19 20 36 35
f 20 21 37 36
f 21 22 38 37
f 22 23 39 38
f 23 24 40 39
f 24 25 41 40
f 25 26 42 41
f 26 27 43 42
f 27 28 44 43
f 28 29 45 44
f 29 30 46 45
f 30 31 47 46
f 31 32 48 47
f 32 17 33 48
f 33 34 50 49
f 34 35 51 50
f 35 36 52 51
f 36 37 53 52
f 37 38 54 53
f 38 39 55 54
f 39 40 56 55
f 40 41 57 56
f 41 42 58 57
f 42 43 59 58
f 43 44 60 59
f 44 45 61 60
f 45 46 62 61
f 46 47 63 62
f 47 48 64 63
f 48 33 49 64
f 49 50 66 65
f 50 51 67 66
f 51 52 68 67
f 52 53 69 68
f 53 54 70 69
f 54 55 71 70
f 55 56 72 71
f 56 57 73 72
f 57 58 74 73
f 58 59 75 74
f 59 60 76 75
f 60 61 77 76
f 61 62 78 77
f 62 63 79 78
f 63 64 80 79
f 64 49 65 80
f 65 66 82 81
f 66 67 83 82
f 67 68 84 83
f 68 69 85 84
f 69 70 86 85
f 70 71 87 86
f 71 72 88 87
f 72 73 89 88
f 73 74 90 89
f 74 75 91 90
f 75 76 92 91
f 76 77 93 92
f 77 78 94 93
f 78 79 95 94
f 79 80 96 95
f 80 65 81 96
f 81 82 98 97
f 82 83 99 98
f 83 84 100 99
f 84 85 101 100
f 85 86 102 101
f 86 87 103 102
f 87 88 104 103
f 88 89 105 104
f 89 90 106 105
f 90 91 107 106
f 91 92 108 107
f 92 93 109 108
f 93 94 110 109
f 94 95 111 110
f 95 96 112 111
f 96 81 97 112
f 97 98 114 113
f 98 99 115 114
f 99 100 116 115
f 100 101 117 116
f 101 102 118 117
f 102 103 119 118
f 103 104 120 119
f 104 105 121 120
f 105 106 122 121
f 106 107 123 122
f 107 108 124 123
f 108 109 125 124
f 109 110 126 125
f 110 111 127 126
f 111 112 128 127
f 112 97 113 128
f 113 114 130 129
f 114 115 131 130
f 115 116 132 131
f 116 117 133 132
f 117 118 134 133
f 118 119 135 134
f 119 120 136 135
f 120 121 137 136
f 121 122 138 137
f 122 123 139 138
f 123 124 140 139
f 124 125 141 140
f 125 126 142 141
f 126 127 143 142
f 127 128 144 143
f 128 113 129 144
f 129 130 146 145
f 130 131 147 146
f 131 132 148 147
f 132 133 149 148
f 133 134 150 149
f 134 135 151 150
f 135 136 152 151
f 136 137 153 152
f 137 138 154 153
f 138 139 155 154
f 139 140 156 155
f 140 141 157 156
f 141 142 158 157
f 142 143 159 158
f 143 144 160 159
f 144 129 145 160
f 145 146 162 161
f 146 147 163 162
f 147 148 164 163
f 148 149 165 164
f 149 150 166 165
f 150 151 167 166
f 151 152 168 167
f 152 153 169 168
f 153 154 170 169
f 154 155 171 170
f 155 156 172 171
f 156 157 173 172
f 157 158 174 173
f 158 159 175 174
f 159 160 176 175
f 160 145 161 176
g Chest
usemtl OTTER_CREAM
f 177 178 192 191
f 178 179 193 192
f 179 180 194 193
f 180 181 195 194
f 181 182 196 195
f 182 183 197 196
f 183 184 198 197
f 184 185 199 198
f 185 186 200 199
f 186 187 201 200
f 187 188 202 201
f 188 189 203 202
f 189 190 204 203
f 190 177 191 204
f 191 192 206 205
f 192 193 207 206
f 193 194 208 207
f 194 195 209 208
f 195 196 210 209
f 196 197 211 210
f 197 198 212 211
f 198 199 213 212
f 199 200 214 213
f 200 201 215 214
f 201 202 216 215
f 202 203 217 216
f 203 204 218 217
f 204 191 205 218
f 205 206 220 219
f 206 207 221 220
f 207 208 222 221
f 208 209 223 222
f 209 210 224 223
f 210 211 225 224
f 211 212 226 225
f 212 213 227 226
f 213 214 228 227
f 214 215 229 228
f 215 216 230 229
f 216 217 231 230
f 217 218 232 231
f 218 205 219 232
f 219 220 234 233
f 220 221 235 234
f 221 222 236 235
f 222 223 237 236
f 223 224 238 237
f 224 225 239 238
f 225 226 240 239
f 226 227 241 240
f 227 228 242 241
f 228 229 243 242
f 229 230 244 243
f 230 231 245 244
f 231 232 246 245
f 232 219 233 246
f 233 234 248 247
f 234 235 249 248
f 235 236 250 249
f 236 237 251 250
f 237 238 252 251
f 238 239 253 252
f 239 240 254 253
f 240 241 255 254
f 241 242 256 255
f 242 243 257 256
f 243 244 258 257
f 244 245 259 258
f 245 246 260 259
f 246 233 247 260
f 247 248 262 261
f 248 249 263 262
f 249 250 264 263
f 250 251 265 264
f 251 252 266 265
f 252 253 267 266
f 253 254 268 267
f 254 255 269 268
f 255 256 270 269
f 256 257 271 270
f 257 258 272 271
f 258 259 273 272
f 259 260 274 273
f 260 247 261 274
f 261 262 276 275
f 262 263 277 276
f 263 264 278 277
f 264 265 279 278
f 265 266 280 279
f 266 267 281 280
f 267 268 282 281
f 268 269 283 282
f 269 270 284 283
f 270 271 285 284
f 271 272 286 285
f 272 273 287 286
f 273 274 288 287
f 274 261 275 288
f 275 276 290 289
f 276 277 291 290
f 277 278 292 291
f 278 279 293 292
f 279 280 294 293
f 280 281 295 294
f 281 282 296 295
f 282 283 297 296
f 283 284 298 297
f 284 285 299 298
f 285 286 300 299
f 286 287 301 300
f 287 288 302 301
f 288 275 289 302
g Head
usemtl OTTER_BROWN
f 303 304 320 319
f 304 305 321 320
f 305 306 322 321
f 306 307 323 322
f 307 308 324 323
f 308 309 325 324
f 309 310 326 325
f 310 311 327 326
f 311 312 328 327
f 312 313 329 328
f 313 314 330 329
f 314 315 331 330
f 315 316 332 331
f 316 317 333 332
f 317 318 334 333
f 318 303 319 334
f 319 320 336 335
f 320 321 337 336
f 321 322 338 337
f 322 323 339 338
f 323 324 340 339
f 324 325 341 340
f 325 326 342 341
f 326 327 343 342
f 327 328 344 343
f 328 329 345 344
f 329 330 346 345
f 330 331 347 346
f 331 332 348 347
f 332 333 349 348
f 333 334 350 349
f 334 319 335 350
f 335 336 352 351
f 336 337 353 352
f 337 338 354 353
f 338 339 355 354
f 339 340 356 355
f 340 341 357 356
f 341 342 358 357
f 342 343 359 358
f 343 344 360 359
f 344 345 361 360
f 345 346 362 361
f 346 347 363 362
f 347 348 364 363
f 348 349 365 364
f 349 350 366 365
f 350 335 351 366
f 351 352 368 367
f 352 353 369 368
f 353 354 370 369
f 354 355 371 370
f 355 356 372 371
f 356 357 373 372
f 357 358 374 373
f 358 359 375 374
f 359 360 376 375
f 360 361 377 376
f 361 362 378 377
f 362 363 379 378
f 363 364 380 379
f 364 365 381 380
f 365 366 382 381
f 366 351 367 382
f 367 368 384 383
f 368 369 385 384
f 369 370 386 385
f 370 371 387 386
f 371 372 388 387
f 372 373 389 388
f 373 374 390 389
f 374 375 391 390
f 375 376 392 391
f 376 377 393 392
f 377 378 394 393
f 378 379 395 394
f 379 380 396 395
f 380 381 397 396
f 381 382 398 397
f 382 367 383 398
f 383 384 400 399
f 384 385 401 400
f 385 386 402 401
f 386 387 403 402
f 387 388 404 403
f 388 389 405 404
f 389 390 406 405
f 390 391 407 406
f 391 392 408 407
f 392 393 409 408
f 393 394 410 409
f 394 395 411 410
f 395 396 412 411
f 396 397 413 412
f 397 398 414 413
f 398 383 399 414
f 399 400 416 415
f 400 401 417 416
f 401 402 418 417
f 402 403 419 418
f 403 404 420 419
f 404 405 421 420
f 405 406 422 421
f 406 407 423 422
f 407 408 424 423
f 408 409 425 424
f 409 410 426 425
f 410 411 427 426
f 411 412 428 427
f 412 413 429 428
f 413 414 430 429
f 414 399 415 430
f 415 416 432 431
f 416 417 433 432
f 417 418 434 433
f 418 419 435 434
f 419 420 436 435
f 420 421 437 436
f 421 422 438 437
f 422 423 439 438
f 423 424 440 439
f 424 425 441 440
f 425 426 442 441
f 426 427 443 442
f 427 428 444 443
f 428 429 445 444
f 429 430 446 445
f 430 415 431 446
f 431 432 448 447
f 432 433 449 448
f 433 434 450 449
f 434 435 451 450
f 435 436 452 451
f 436 437 453 452
f 437 438 454 453
f 438 439 455 454
f 439 440 456 455
f 440 441 457 456
f 441 442 458 457
f 442 443 459 458
f 443 444 460 459
f 444 445 461 460
f 445 446 462 461
f 446 431 447 462
g Muzzle
usemtl OTTER_CREAM
f 463 464 478 477
f 464 465 479 478
f 465 466 480 479
f 466 467 481 480
f 467 468 482 481
f 468 469 483 482
f 469 470 484 483
f 470 471 485 484
f 471 472 486 485
f 472 473 487 486
f 473 474 488 487
f 474 475 489 488
f 475 476 490 489
f 476 463 477 490
f 477 478 492 491
f 478 479 493 492
f 479 480 494 493
f 480 481 495 494
f 481 482 496 495
f 482 483 497 496
f 483 484 498 497
f 484 485 499 498
f 485 486 500 499
f 486 487 501 500
f 487 488 502 501
f 488 489 503 502
f 489 490 504 503
f 490 477 491 504
f 491 492 506 505
f 492 493 507 506
f 493 494 508 507
f 494 495 509 508
f 495 496 510 509
f 496 497 511 510
f 497 498 512 511
f 498 499 513 512
f 499 500 514 513
f 500 501 515 514
f 501 502 516 515
f 502 503 517 516
f 503 504 518 517
f 504 491 505 518
f 505 506 520 519
f 506 507 521 520
f 507 508 522 521
f 508 509 523 522
f 509 510 524 523
f 510 511 525 524
f 511 512 526 525
f 512 513 527 526
f 513 514 528 527
f 514 515 529 528
f 515 516 530 529
f 516 517 531 530
f 517 518 532 531
f 518 505 519 532
f 519 520 534 533
f 520 521 535 534
f 521 522 536 535
f 522 523 537 536
f 523 524 538 537
f 524 525 539 538
f 525 526 540 539
f 526 527 541 540
f 527 528 542 541
f 528 529 543 542
f 529 530 544 543
f 530 531 545 544
f 531 532 546 545
f 532 519 533 546
f 533 534 548 547
f 534 535 549 548
f 535 536 550 549
f 536 537 551 550
f 537 538 552 551
f 538 539 553 552
f 539 540 554 553
f 540 541 555 554
f 541 542 556 555
f 542 543 557 556
f 543 544 558 557
f 544 545 559 558
f 545 546 560 559
f 546 533 547 560
f 547 548 562 561
f 548 549 563 562
f 549 550 564 563
f 550 551 565 564
f 551 552 566 565
f 552 553 567 566
f 553 554 568 567
f 554 555 569 568
f 555 556 570 569
f 556 557 571 570
f 557 558 572 571
f 558 559 573 572
f 559 560 574 573
f 560 547 561 574
f 561 562 576 575
f 562 563 577 576
f 563 564 578 577
f 564 565 579 578
f 565 566 580 579
f 566 567 581 580
f 567 568 582 581
f 568 569 583 582
f 569 570 584 583
f 570 571 585 584
f 571 572 586 585
f 572 573 587 586
f 573 574 588 587
f 574 561 575 588
g EarL
usemtl OTTER_DARK
f 589 590 600 599
f 590 591 601 600
f 591 592 602 601
f 592 593 603 602
f 593 594 604 603
f 594 595 605 604
f 595 596 606 605
f 596 597 607 606
f 597 598 608 607
f 598 589 599 608
f 599 600 610 609
f 600 601 611 610
f 601 602 612 611
f 602 603 613 612
f 603 604 614 613
f 604 605 615 614
f 605 606 616 615
f 606 607 617 616
f 607 608 618 617
f 608 599 609 618
f 609 610 620 619
f 610 611 621 620
f 611 612 622 621
f 612 613 623 622
f 613 614 624 623
f 614 615 625 624
f 615 616 626 625
f 616 617 627 626
f 617 618 628 627
f 618 609 619 628
f 619 620 630 629
f 620 621 631 630
f 621 622 632 631
f 622 623 633 632
f 623 624 634 633
f 624 625 635 634
f 625 626 636 635
f 626 627 637 636
f 627 628 638 637
f 628 619 629 638
f 629 630 640 639
f 630 631 641 640
f 631 632 642 641
f 632 633 643 642
f 633 634 644 643
f 634 635 645 644
f 635 636 646 645
f 636 637 647 646
f 637 638 648 647
f 638 629 639 648
f 639 640 650 649
f 640 641 651 650
f 641 642 652 651
f 642 643 653 652
f 643 644 654 653
f 644 645 655 654
f 645 646 656 655
f 646 647 657 656
f 647 648 658 657
f 648 639 649 658
g EarR
f 659 660 670 669
f 660 661 671 670
f 661 662 672 671
f 662 663 673 672
f 663 664 674 673
f 664 665 675 674
f 665 666 676 675
f 666 667 677 676
f 667 668 678 677
f 668 659 669 678
f 669 670 680 679
f 670 671 681 680
f 671 672 682 681
f 672 673 683 682
f 673 674 684 683
f 674 675 685 684
f 675 676 686 685
f 676 677 687 686
f 677 678 688 687
f 678 669 679 688
f 679 680 690 689
f 680 681 691 690
f 681 682 692 691
f 682 683 693 692
f 683 684 694 693
f 684 685 695 694
f 685 686 696 695
f 686 687 697 696
f 687 688 698 697
f 688 679 689 698
f 689 690 700 699
f 690 691 701 700
f 691 692 702 701
f 692 693 703 702
f 693 694 704 703
f 694 695 705 704
f 695 696 706 705
f 696 697 707 706
f 697 698 708 707
f 698 689 699 708
f 699 700 710 709
f 700 701 711 710
f 701 702 712 711
f 702 703 713 712
f 703 704 714 713
f 704 705 715 714
f 705 706 716 715
f 706 707 717 716
f 707 708 718 717
f 708 699 709 718
f 709 710 720 719
f 710 711 721 720
f 711 712 722 721
f 712 713 723 722
f 713 714 724 723
f 714 715 725 724
f 715 716 726 725
f 716 717 727 726
f 717 718 728 727
f 718 709 719 728
g Arm-0.58
usemtl OTTER_BROWN
f 729 730 740 739
f 730 731 741 740
f 731 732 742 741
f 732 733 743 742
f 733 734 744 743
f 734 735 745 744
f 735 736 746 745
f 736 737 747 746
f 737 738 748 747
f 738 729 739 748
f 749 730 729
f 750 739 740
f 749 731 730
f 750 740 741
f 749 732 731
f 750 741 742
f 749 733 732
f 750 742 743
f 749 734 733
f 750 743 744
f 749 735 734
f 750 744 745
f 749 736 735
f 750 745 746
f 749 737 736
f 750 746 747
f 749 738 737
f 750 747 748
f 749 729 738
f 750 748 739
g Paw-0.58
usemtl WATER_BLUE
f 751 752 762 761
f 752 753 763 762
f 753 754 764 763
f 754 755 765 764
f 755 756 766 765
f 756 757 767 766
f 757 758 768 767
f 758 759 769 768
f 759 760 770 769
f 760 751 761 770
f 761 762 772 771
f 762 763 773 772
f 763 764 774 773
f 764 765 775 774
f 765 766 776 775
f 766 767 777 776
f 767 768 778 777
f 768 769 779 778
f 769 770 780 779
f 770 761 771 780
f 771 772 782 781
f 772 773 783 782
f 773 774 784 783
f 774 775 785 784
f 775 776 786 785
f 776 777 787 786
f 777 778 788 787
f 778 779 789 788
f 779 780 790 789
f 780 771 781 790
f 781 782 792 791
f 782 783 793 792
f 783 784 794 793
f 784 785 795 794
f 785 786 796 795
f 786 787 797 796
f 787 788 798 797
f 788 789 799 798
f 789 790 800 799
f 790 781 791 800
f 791 792 802 801
f 792 793 803 802
f 793 794 804 803
f 794 795 805 804
f 795 796 806 805
f 796 797 807 806
f 797 798 808 807
f 798 799 809 808
f 799 800 810 809
f 800 791 801 810
f 801 802 812 811
f 802 803 813 812
f 803 804 814 813
f 804 805 815 814
f 805 806 816 815
f 806 807 817 816
f 807 808 818 817
f 808 809 819 818
f 809 810 820 819
f 810 801 811 820
g Leg-0.58
usemtl OTTER_BROWN
f 821 822 832 831
f 822 823 833 832
f 823 824 834 833
f 824 825 835 834
f 825 826 836 835
f 826 827 837 836
f 827 828 838 837
f 828 829 839 838
f 829 830 840 839
f 830 821 831 840
f 841 822 821
f 842 831 832
f 841 823 822
f 842 832 833
f 841 824 823
f 842 833 834
f 841 825 824
f 842 834 835
f 841 826 825
f 842 835 836
f 841 827 826
f 842 836 837
f 841 828 827
f 842 837 838
f 841 829 828
f 842 838 839
f 841 830 829
f 842 839 840
f 841 821 830
f 842 840 831
g BackPaw-0.58
usemtl WATER_BLUE
f 843 844 854 853
f 844 845 855 854
f 845 846 856 855
f 846 847 857 856
f 847 848 858 857
f 848 849 859 858
f 849 850 860 859
f 850 851 861 860
f 851 852 862 861
f 852 843 853 862
f 853 854 864 863
f 854 855 865 864
f 855 856 866 865
f 856 857 867 866
f 857 858 868 867
f 858 859 869 868
f 859 860 870 869
f 860 861 871 870
f 861 862 872 871
f 862 853 863 872
f 863 864 874 873
f 864 865 875 874
f 865 866 876 875
f 866 867 877 876
f 867 868 878 877
f 868 869 879 878
f 869 870 880 879
f 870 871 881 880
f 871 872 882 881
f 872 863 873 882
f 873 874 884 883
f 874 875 885 884
f 875 876 886 885
f 876 877 887 886
f 877 878 888 887
f 878 879 889 888
f 879 880 890 889
f 880 881 891 890
f 881 882 892 891
f 882 873 883 892
f 883 884 894 893
f 884 885 895 894
f 885 886 896 895
f 886 887 897 896
f 887 888 898 897
f 888 889 899 898
f 889 890 900 899
f 890 891 901 900
f 891 892 902 901
f 892 883 893 902
f 893 894 904 903
f 894 895 905 904
f 895 896 906 905
f 896 897 907 906
f 897 898 908 907
f 898 899 909 908
f 899 900 910 909
f 900 901 911 910
f 901 902 912 911
f 902 893 903 912
g Arm0.58
usemtl OTTER_BROWN
f 913 914 924 923
f 914 915 925 924
f 915 916 926 925
f 916 917 927 926
f 917 918 928 927
f 918 919 929 928
f 919 920 930 929
f 920 921 931 930
f 921 922 932 931
f 922 913 923 932
f 933 914 913
f 934 923 924
f 933 915 914
f 934 924 925
f 933 916 915
f 934 925 926
f 933 917 916
f 934 926 927
f 933 918 917
f 934 927 928
f 933 919 918
f 934 928 929
f 933 920 919
f 934 929 930
f 933 921 920
f 934 930 931
f 933 922 921
f 934 931 932
f 933 913 922
f 934 932 923
g Paw0.58
usemtl WATER_BLUE
f 935 936 946 945
f 936 937 947 946
f 937 938 948 947
f 938 939 949 948
f 939 940 950 949
f 940 941 951 950
f 941 942 952 951
f 942 943 953 952
f 943 944 954 953
f 944 935 945 954
f 945 946 956 955
f 946 947 957 956
f 947 948 958 957
f 948 949 959 958
f 949 950 960 959
f 950 951 961 960
f 951 952 962 961
f 952 953 963 962
f 953 954 964 963
f 954 945 955 964
f 955 956 966 965
f 956 957 967 966
f 957 958 968 967
f 958 959 969 968
f 959 960 970 969
f 960 961 971 970
f 961 962 972 971
f 962 963 973 972
f 963 964 974 973
f 964 955 965 974
f 965 966 976 975
f 966 967 977 976
f 967 968 978 977
f 968 969 979 978
f 969 970 980 979
f 970 971 981 980
f 971 972 982 981
f 972 973 983 982
f 973 974 984 983
f 974 965 975 984
f 975 976 986 985
f 976 977 987 986
f 977 978 988 987
f 978 979 989 988
f 979 980 990 989
f 980 981 991 990
f 981 982 992 991
f 982 983 993 992
f 983 984 994 993
f 984 975 985 994
f 985 986 996 995
f 986 987 997 996
f 987 988 998 997
f 988 989 999 998
f 989 990 1000 999
f 990 991 1001 1000
f 991 992 1002 1001
f 992 993 1003 1002
f 993 994 1004 1003
f 994 985 995 1004
g Leg0.58
usemtl OTTER_BROWN
f 1005 1006 1016 1015
f 1006 1007 1017 1016
f 1007 1008 1018 1017
f 1008 1009 1019 1018
f 1009 1010 1020 1019
f 1010 1011 1021 1020
f 1011 1012 1022 1021
f 1012 1013 1023 1022
f 1013 1014 1024 1023
f 1014 1005 1015 1024
f 1025 1006 1005
f 1026 1015 1016
f 1025 1007 1006
f 1026 1016 1017
f 1025 1008 1007
f 1026 1017 1018
f 1025 1009 1008
f 1026 1018 1019
f 1025 1010 1009
f 1026 1019 1020
f 1025 1011 1010
f 1026 1020 1021
f 1025 1012 1011
f 1026 1021 1022
f 1025 1013 1012
f 1026 1022 1023
f 1025 1014 1013
f 1026 1023 1024
f 1025 1005 1014
f 1026 1024 1015
g BackPaw0.58
usemtl WATER_BLUE
f 1027 1028 1038 1037
f 1028 1029 1039 1038
f 1029 1030 1040 1039
f 1030 1031 1041 1040
f 1031 1032 1042 1041
f 1032 1033 1043 1042
f 1033 1034 1044 1043
f 1034 1035 1045 1044
f 1035 1036 1046 1045
f 1036 1027 1037 1046
f 1037 1038 1048 1047
f 1038 1039 1049 1048
f 1039 1040 1050 1049
f 1040 1041 1051 1050
f 1041 1042 1052 1051
f 1042 1043 1053 1052
f 1043 1044 1054 1053
f 1044 1045 1055 1054
f 1045 1046 1056 1055
f 1046 1037 1047 1056
f 1047 1048 1058 1057
f 1048 1049 1059 1058
f 1049 1050 1060 1059
f 1050 1051 1061 1060
f 1051 1052 1062 1061
f 1052 1053 1063 1062
f 1053 1054 1064 1063
f 1054 1055 1065 1064
f 1055 1056 1066 1065
f 1056 1047 1057 1066
f 1057 1058 1068 1067
f 1058 1059 1069 1068
f 1059 1060 1070 1069
f 1060 1061 1071 1070
f 1061 1062 1072 1071
f 1062 1063 1073 1072
f 1063 1064 1074 1073
f 1064 1065 1075 1074
f 1065 1066 1076 1075
f 1066 1057 1067 1076
f 1067 1068 1078 1077
f 1068 1069 1079 1078
f 1069 1070 1080 1079
f 1070 1071 1081 1080
f 1071 1072 1082 1081
f 1072 1073 1083 1082
f 1073 1074 1084 1083
f 1074 1075 1085 1084
f 1075 1076 1086 1085
f 1076 1067 1077 1086
f 1077 1078 1088 1087
f 1078 1079 1089 1088
f 1079 1080 1090 1089
f 1080 1081 1091 1090
f 1081 1082 1092 1091
f 1082 1083 1093 1092
f 1083 1084 1094 1093
f 1084 1085 1095 1094
f 1085 1086 1096 1095
f 1086 1077 1087 1096
g TailA
usemtl OTTER_BROWN
f 1097 1098 1112 1111
f 1098 1099 1113 1112
f 1099 1100 1114 1113
f 1100 1101 1115 1114
f 1101 1102 1116 1115
f 1102 1103 1117 1116
f 1103 1104 1118 1117
f 1104 1105 1119 1118
f 1105 1106 1120 1119
f 1106 1107 1121 1120
f 1107 1108 1122 1121
f 1108 1109 1123 1122
f 1109 1110 1124 1123
f 1110 1097 1111 1124
f 1125 1098 1097
f 1126 1111 1112
f 1125 1099 1098
f 1126 1112 1113
f 1125 1100 1099
f 1126 1113 1114
f 1125 1101 1100
f 1126 1114 1115
f 1125 1102 1101
f 1126 1115 1116
f 1125 1103 1102
f 1126 1116 1117
f 1125 1104 1103
f 1126 1117 1118
f 1125 1105 1104
f 1126 1118 1119
f 1125 1106 1105
f 1126 1119 1120
f 1125 1107 1106
f 1126 1120 1121
f 1125 1108 1107
f 1126 1121 1122
f 1125 1109 1108
f 1126 1122 1123
f 1125 1110 1109
f 1126 1123 1124
f 1125 1097 1110
f 1126 1124 1111
g TailB
usemtl OTTER_DARK
f 1127 1128 1142 1141
f 1128 1129 1143 1142
f 1129 1130 1144 1143
f 1130 1131 1145 1144
f 1131 1132 1146 1145
f 1132 1133 1147 1146
f 1133 1134 1148 1147
f 1134 1135 1149 1148
f 1135 1136 1150 1149
f 1136 1137 1151 1150
f 1137 1138 1152 1151
f 1138 1139 1153 1152
f 1139 1140 1154 1153
f 1140 1127 1141 1154
f 1155 1128 1127
f 1156 1141 1142
f 1155 1129 1128
f 1156 1142 1143
f 1155 1130 1129
f 1156 1143 1144
f 1155 1131 1130
f 1156 1144 1145
f 1155 1132 1131
f 1156 1145 1146
f 1155 1133 1132
f 1156 1146 1147
f 1155 1134 1133
f 1156 1147 1148
f 1155 1135 1134
f 1156 1148 1149
f 1155 1136 1135
f 1156 1149 1150
f 1155 1137 1136
f 1156 1150 1151
f 1155 1138 1137
f 1156 1151 1152
f 1155 1139 1138
f 1156 1152 1153
f 1155 1140 1139
f 1156 1153 1154
f 1155 1127 1140
f 1156 1154 1141
g WaterFin
usemtl WATER_BLUE
f 1157 1158 1163 1162
f 1158 1159 1164 1163
f 1159 1160 1165 1164
f 1160 1161 1166 1165
f 1161 1157 1162 1166
f 1161 1160 1159 1158 1157
f 1162 1163 1164 1165 1166
g EyeL
usemtl EYE_DARK
f 1167 1168 1178 1177
f 1168 1169 1179 1178
f 1169 1170 1180 1179
f 1170 1171 1181 1180
f 1171 1172 1182 1181
f 1172 1173 1183 1182
f 1173 1174 1184 1183
f 1174 1175 1185 1184
f 1175 1176 1186 1185
f 1176 1167 1177 1186
f 1177 1178 1188 1187
f 1178 1179 1189 1188
f 1179 1180 1190 1189
f 1180 1181 1191 1190
f 1181 1182 1192 1191
f 1182 1183 1193 1192
f 1183 1184 1194 1193
f 1184 1185 1195 1194
f 1185 1186 1196 1195
f 1186 1177 1187 1196
f 1187 1188 1198 1197
f 1188 1189 1199 1198
f 1189 1190 1200 1199
f 1190 1191 1201 1200
f 1191 1192 1202 1201
f 1192 1193 1203 1202
f 1193 1194 1204 1203
f 1194 1195 1205 1204
f 1195 1196 1206 1205
f 1196 1187 1197 1206
f 1197 1198 1208 1207
f 1198 1199 1209 1208
f 1199 1200 1210 1209
f 1200 1201 1211 1210
f 1201 1202 1212 1211
f 1202 1203 1213 1212
f 1203 1204 1214 1213
f 1204 1205 1215 1214
f 1205 1206 1216 1215
f 1206 1197 1207 1216
f 1207 1208 1218 1217
f 1208 1209 1219 1218
f 1209 1210 1220 1219
f 1210 1211 1221 1220
f 1211 1212 1222 1221
f 1212 1213 1223 1222
f 1213 1214 1224 1223
f 1214 1215 1225 1224
f 1215 1216 1226 1225
f 1216 1207 1217 1226
f 1217 1218 1228 1227
f 1218 1219 1229 1228
f 1219 1220 1230 1229
f 1220 1221 1231 1230
f 1221 1222 1232 1231
f 1222 1223 1233 1232
f 1223 1224 1234 1233
f 1224 1225 1235 1234
f 1225 1226 1236 1235
f 1226 1217 1227 1236
g EyeR
f 1237 1238 1248 1247
f 1238 1239 1249 1248
f 1239 1240 1250 1249
f 1240 1241 1251 1250
f 1241 1242 1252 1251
f 1242 1243 1253 1252
f 1243 1244 1254 1253
f 1244 1245 1255 1254
f 1245 1246 1256 1255
f 1246 1237 1247 1256
f 1247 1248 1258 1257
f 1248 1249 1259 1258
f 1249 1250 1260 1259
f 1250 1251 1261 1260
f 1251 1252 1262 1261
f 1252 1253 1263 1262
f 1253 1254 1264 1263
f 1254 1255 1265 1264
f 1255 1256 1266 1265
f 1256 1247 1257 1266
f 1257 1258 1268 1267
f 1258 1259 1269 1268
f 1259 1260 1270 1269
f 1260 1261 1271 1270
f 1261 1262 1272 1271
f 1262 1263 1273 1272
f 1263 1264 1274 1273
f 1264 1265 1275 1274
f 1265 1266 1276 1275
f 1266 1257 1267 1276
f 1267 1268 1278 1277
f 1268 1269 1279 1278
f 1269 1270 1280 1279
f 1270 1271 1281 1280
f 1271 1272 1282 1281
f 1272 1273 1283 1282
f 1273 1274 1284 1283
f 1274 1275 1285 1284
f 1275 1276 1286 1285
f 1276 1267 1277 1286
f 1277 1278 1288 1287
f 1278 1279 1289 1288
f 1279 1280 1290 1289
f 1280 1281 1291 1290
f 1281 1282 1292 1291
f 1282 1283 1293 1292
f 1283 1284 1294 1293
f 1284 1285 1295 1294
f 1285 1286 1296 1295
f 1286 1277 1287 1296
f 1287 1288 1298 1297
f 1288 1289 1299 1298
f 1289 1290 1300 1299
f 1290 1291 1301 1300
f 1291 1292 1302 1301
f 1292 1293 1303 1302
f 1293 1294 1304 1303
f 1294 1295 1305 1304
f 1295 1296 1306 1305
f 1296 1287 1297 1306
g Nose
f 1307 1308 1318 1317
f 1308 1309 1319 1318
f 1309 1310 1320 1319
f 1310 1311 1321 1320
f 1311 1312 1322 1321
f 1312 1313 1323 1322
f 1313 1314 1324 1323
f 1314 1315 1325 1324
f 1315 1316 1326 1325
f 1316 1307 1317 1326
f 1317 1318 1328 1327
f 1318 1319 1329 1328
f 1319 1320 1330 1329
f 1320 1321 1331 1330
f 1321 1322 1332 1331
f 1322 1323 1333 1332
f 1323 1324 1334 1333
f 1324 1325 1335 1334
f 1325 1326 1336 1335
f 1326 1317 1327 1336
f 1327 1328 1338 1337
f 1328 1329 1339 1338
f 1329 1330 1340 1339
f 1330 1331 1341 1340
f 1331 1332 1342 1341
f 1332 1333 1343 1342
f 1333 1334 1344 1343
f 1334 1335 1345 1344
f 1335 1336 1346 1345
f 1336 1327 1337 1346
f 1337 1338 1348 1347
f 1338 1339 1349 1348
f 1339 1340 1350 1349
f 1340 1341 1351 1350
f 1341 1342 1352 1351
f 1342 1343 1353 1352
f 1343 1344 1354 1353
f 1344 1345 1355 1354
f 1345 1346 1356 1355
f 1346 1337 1347 1356
f 1347 1348 1358 1357
f 1348 1349 1359 1358
f 1349 1350 1360 1359
f 1350 1351 1361 1360
f 1351 1352 1362 1361
f 1352 1353 1363 1362
f 1353 1354 1364 1363
f 1354 1355 1365 1364
f 1355 1356 1366 1365
f 1356 1347 1357 1366
f 1357 1358 1368 1367
f 1358 1359 1369 1368
f 1359 1360 1370 1369
f 1360 1361 1371 1370
f 1361 1362 1372 1371
f 1362 1363 1373 1372
f 1363 1364 1374 1373
f 1364 1365 1375 1374
f 1365 1366 1376 1375
f 1366 1357 1367 1376
