# bat - project-original Roblox source asset
mtllib monster-adventure.mtl
o bat
v 0 0 0.75
v 0 0 0.75
v 0 0 0.75
v 0 0 0.75
v 0 0 0.75
v 0 0 0.75
v 0 0 0.75
v 0 0 0.75
v 0 0 0.75
v 0 0 0.75
v 0 0 0.75
v 0 0 0.75
v 0 0 0.75
v 0 0 0.75
v 0.22961 0 0.82231
v 0.20687 0.14612 0.82231
v 0.14316 0.26329 0.82231
v 0.05109 0.32832 0.82231
v -0.05109 0.32832 0.82231
v -0.14316 0.26329 0.82231
v -0.20687 0.14612 0.82231
v -0.22961 0 0.82231
v -0.20687 -0.14612 0.82231
v -0.14316 -0.26329 0.82231
v -0.05109 -0.32832 0.82231
v 0.05109 -0.32832 0.82231
v 0.14316 -0.26329 0.82231
v 0.20687 -0.14612 0.82231
v 0.42426 0 1.02825
v 0.38225 0.26999 1.02825
v 0.26452 0.4865 1.02825
v 0.09441 0.60665 1.02825
v -0.09441 0.60665 1.02825
v -0.26452 0.4865 1.02825
v -0.38225 0.26999 1.02825
v -0.42426 0 1.02825
v -0.38225 -0.26999 1.02825
v -0.26452 -0.4865 1.02825
v -0.09441 -0.60665 1.02825
v 0.09441 -0.60665 1.02825
v 0.26452 -0.4865 1.02825
v 0.38225 -0.26999 1.02825
v 0.55433 0 1.33645
v 0.49943 0.35275 1.33645
v 0.34562 0.63564 1.33645
v 0.12335 0.79263 1.33645
v -0.12335 0.79263 1.33645
v -0.34562 0.63564 1.33645
v -0.49943 0.35275 1.33645
v -0.55433 0 1.33645
v -0.49943 -0.35275 1.33645
v -0.34562 -0.63564 1.33645
v -0.12335 -0.79263 1.33645
v 0.12335 -0.79263 1.33645
v 0.34562 -0.63564 1.33645
v 0.49943 -0.35275 1.33645
v 0.6 0 1.7
v 0.54058 0.38182 1.7
v 0.37409 0.68801 1.7
v 0.13351 0.85794 1.7
v -0.13351 0.85794 1.7
v -0.37409 0.68801 1.7
v -0.54058 0.38182 1.7
v -0.6 0 1.7
v -0.54058 -0.38182 1.7
v -0.37409 -0.68801 1.7
v -0.13351 -0.85794 1.7
v 0.13351 -0.85794 1.7
v 0.37409 -0.68801 1.7
v 0.54058 -0.38182 1.7
v 0.55433 0 2.06355
v 0.49943 0.35275 2.06355
v 0.34562 0.63564 2.06355
v 0.12335 0.79263 2.06355
v -0.12335 0.79263 2.06355
v -0.34562 0.63564 2.06355
v -0.49943 0.35275 2.06355
v -0.55433 0 2.06355
v -0.49943 -0.35275 2.06355
v -0.34562 -0.63564 2.06355
v -0.12335 -0.79263 2.06355
v 0.12335 -0.79263 2.06355
v 0.34562 -0.63564 2.06355
v 0.49943 -0.35275 2.06355
v 0.42426 0 2.37175
v 0.38225 0.26999 2.37175
v 0.26452 0.4865 2.37175
v 0.09441 0.60665 2.37175
v -0.09441 0.60665 2.37175
v -0.26452 0.4865 2.37175
v -0.38225 0.26999 2.37175
v -0.42426 0 2.37175
v -0.38225 -0.26999 2.37175
v -0.26452 -0.4865 2.37175
v -0.09441 -0.60665 2.37175
v 0.09441 -0.60665 2.37175
v 0.26452 -0.4865 2.37175
v 0.38225 -0.26999 2.37175
v 0.22961 0 2.57769
v 0.20687 0.14612 2.57769
v 0.14316 0.26329 2.57769
v 0.05109 0.32832 2.57769
v -0.05109 0.32832 2.57769
v -0.14316 0.26329 2.57769
v -0.20687 0.14612 2.57769
v -0.22961 0 2.57769
v -0.20687 -0.14612 2.57769
v -0.14316 -0.26329 2.57769
v -0.05109 -0.32832 2.57769
v 0.05109 -0.32832 2.57769
v 0.14316 -0.26329 2.57769
v 0.20687 -0.14612 2.57769
v 0 0 2.65
v 0 0 2.65
v 0 0 2.65
v 0 0 2.65
v 0 0 2.65
v 0 0 2.65
v 0 0 2.65
v 0 0 2.65
v 0 0 2.65
v 0 0 2.65
v 0 0 2.65
v 0 0 2.65
v 0 0 2.65
v 0 0 2.65
v 0 -0.72 1.97
v 0 -0.72 1.97
v 0 -0.72 1.97
v 0 -0.72 1.97
v 0 -0.72 1.97
v 0 -0.72 1.97
v 0 -0.72 1.97
v 0 -0.72 1.97
v 0 -0.72 1.97
v 0 -0.72 1.97
v 0 -0.72 1.97
v 0 -0.72 1.97
v 0 -0.72 1.97
v 0 -0.72 1.97
v 0.199 -0.72 2.00654
v 0.17929 -0.6403 2.00654
v 0.12407 -0.57639 2.00654
v 0.04428 -0.54092 2.00654
v -0.04428 -0.54092 2.00654
v -0.12407 -0.57639 2.00654
v -0.17929 -0.6403 2.00654
v -0.199 -0.72 2.00654
v -0.17929 -0.7997 2.00654
v -0.12407 -0.86361 2.00654
v -0.04428 -0.89908 2.00654
v 0.04428 -0.89908 2.00654
v 0.12407 -0.86361 2.00654
v 0.17929 -0.7997 2.00654
v 0.3677 -0.72 2.11059
v 0.33128 -0.57273 2.11059
v 0.22925 -0.45464 2.11059
v 0.08182 -0.3891 2.11059
v -0.08182 -0.3891 2.11059
v -0.22925 -0.45464 2.11059
v -0.33128 -0.57273 2.11059
v -0.3677 -0.72 2.11059
v -0.33128 -0.86727 2.11059
v -0.22925 -0.98536 2.11059
v -0.08182 -1.0509 2.11059
v 0.08182 -1.0509 2.11059
v 0.22925 -0.98536 2.11059
v 0.33128 -0.86727 2.11059
v 0.48042 -0.72 2.26631
v 0.43284 -0.52759 2.26631
v 0.29954 -0.37329 2.26631
v 0.1069 -0.28766 2.26631
v -0.1069 -0.28766 2.26631
v -0.29954 -0.37329 2.26631
v -0.43284 -0.52759 2.26631
v -0.48042 -0.72 2.26631
v -0.43284 -0.91241 2.26631
v -0.29954 -1.06671 2.26631
v -0.1069 -1.15234 2.26631
v 0.1069 -1.15234 2.26631
v 0.29954 -1.06671 2.26631
v 0.43284 -0.91241 2.26631
v 0.52 -0.72 2.45
v 0.4685 -0.51174 2.45
v 0.32421 -0.34472 2.45
v 0.11571 -0.25203 2.45
v -0.11571 -0.25203 2.45
v -0.32421 -0.34472 2.45
v -0.4685 -0.51174 2.45
v -0.52 -0.72 2.45
v -0.4685 -0.92826 2.45
v -0.32421 -1.09528 2.45
v -0.11571 -1.18797 2.45
v 0.11571 -1.18797 2.45
v 0.32421 -1.09528 2.45
v 0.4685 -0.92826 2.45
v 0.48042 -0.72 2.63369
v 0.43284 -0.52759 2.63369
v 0.29954 -0.37329 2.63369
v 0.1069 -0.28766 2.63369
v -0.1069 -0.28766 2.63369
v -0.29954 -0.37329 2.63369
v -0.43284 -0.52759 2.63369
v -0.48042 -0.72 2.63369
v -0.43284 -0.91241 2.63369
v -0.29954 -1.06671 2.63369
v -0.1069 -1.15234 2.63369
v 0.1069 -1.15234 2.63369
v 0.29954 -1.06671 2.63369
v 0.43284 -0.91241 2.63369
v 0.3677 -0.72 2.78941
v 0.33128 -0.57273 2.78941
v 0.22925 -0.45464 2.78941
v 0.08182 -0.3891 2.78941
v -0.08182 -0.3891 2.78941
v -0.22925 -0.45464 2.78941
v -0.33128 -0.57273 2.78941
v -0.3677 -0.72 2.78941
v -0.33128 -0.86727 2.78941
v -0.22925 -0.98536 2.78941
v -0.08182 -1.0509 2.78941
v 0.08182 -1.0509 2.78941
v 0.22925 -0.98536 2.78941
v 0.33128 -0.86727 2.78941
v 0.199 -0.72 2.89346
v 0.17929 -0.6403 2.89346
v 0.12407 -0.57639 2.89346
v 0.04428 -0.54092 2.89346
v -0.04428 -0.54092 2.89346
v -0.12407 -0.57639 2.89346
v -0.17929 -0.6403 2.89346
v -0.199 -0.72 2.89346
v -0.17929 -0.7997 2.89346
v -0.12407 -0.86361 2.89346
v -0.04428 -0.89908 2.89346
v 0.04428 -0.89908 2.89346
v 0.12407 -0.86361 2.89346
v 0.17929 -0.7997 2.89346
v 0 -0.72 2.93
v 0 -0.72 2.93
v 0 -0.72 2.93
v 0 -0.72 2.93
v 0 -0.72 2.93
v 0 -0.72 2.93
v 0 -0.72 2.93
v 0 -0.72 2.93
v 0 -0.72 2.93
v 0 -0.72 2.93
v 0 -0.72 2.93
v 0 -0.72 2.93
v 0 -0.72 2.93
v 0 -0.72 2.93
v 0 -1.12 2.1
v 0 -1.12 2.1
v 0 -1.12 2.1
v 0 -1.12 2.1
v 0 -1.12 2.1
v 0 -1.12 2.1
v 0 -1.12 2.1
v 0 -1.12 2.1
v 0 -1.12 2.1
v 0 -1.12 2.1
v 0 -1.12 2.1
v 0 -1.12 2.1
v 0.17 -1.12 2.13215
v 0.14722 -1.05 2.13215
v 0.085 -0.99876 2.13215
v 0 -0.98 2.13215
v -0.085 -0.99876 2.13215
v -0.14722 -1.05 2.13215
v -0.17 -1.12 2.13215
v -0.14722 -1.19 2.13215
v -0.085 -1.24124 2.13215
v 0 -1.26 2.13215
v 0.085 -1.24124 2.13215
v 0.14722 -1.19 2.13215
v 0.29445 -1.12 2.22
v 0.255 -0.99876 2.22
v 0.14722 -0.91 2.22
v 0 -0.87751 2.22
v -0.14722 -0.91 2.22
v -0.255 -0.99876 2.22
v -0.29445 -1.12 2.22
v -0.255 -1.24124 2.22
v -0.14722 -1.33 2.22
v 0 -1.36249 2.22
v 0.14722 -1.33 2.22
v 0.255 -1.24124 2.22
v 0.34 -1.12 2.34
v 0.29445 -0.98 2.34
v 0.17 -0.87751 2.34
v 0 -0.84 2.34
v -0.17 -0.87751 2.34
v -0.29445 -0.98 2.34
v -0.34 -1.12 2.34
v -0.29445 -1.26 2.34
v -0.17 -1.36249 2.34
v 0 -1.4 2.34
v 0.17 -1.36249 2.34
v 0.29445 -1.26 2.34
v 0.29445 -1.12 2.46
v 0.255 -0.99876 2.46
v 0.14722 -0.91 2.46
v 0 -0.87751 2.46
v -0.14722 -0.91 2.46
v -0.255 -0.99876 2.46
v -0.29445 -1.12 2.46
v -0.255 -1.24124 2.46
v -0.14722 -1.33 2.46
v 0 -1.36249 2.46
v 0.14722 -1.33 2.46
v 0.255 -1.24124 2.46
v 0.17 -1.12 2.54785
v 0.14722 -1.05 2.54785
v 0.085 -0.99876 2.54785
v 0 -0.98 2.54785
v -0.085 -0.99876 2.54785
v -0.14722 -1.05 2.54785
v -0.17 -1.12 2.54785
v -0.14722 -1.19 2.54785
v -0.085 -1.24124 2.54785
v 0 -1.26 2.54785
v 0.085 -1.24124 2.54785
v 0.14722 -1.19 2.54785
v 0 -1.12 2.58
v 0 -1.12 2.58
v 0 -1.12 2.58
v 0 -1.12 2.58
v 0 -1.12 2.58
v 0 -1.12 2.58
v 0 -1.12 2.58
v 0 -1.12 2.58
v 0 -1.12 2.58
v 0 -1.12 2.58
v 0 -1.12 2.58
v 0 -1.12 2.58
v -0.47 -0.72 2.58
v -0.12 -0.75 2.57
v -0.38 -0.72 3.15
v -0.47 -0.72 2.68
v -0.12 -0.75 2.67
v -0.38 -0.72 3.25
v 0.12 -0.75 2.57
v 0.47 -0.72 2.58
v 0.38 -0.72 3.15
v 0.12 -0.75 2.67
v 0.47 -0.72 2.68
v 0.38 -0.72 3.25
v -0.34 -0.1 1.995
v -1.65 0.1 2.345
v -3.15 0.42 1.895
v -2.38 0.38 1.325
v -1.2 0.15 1.145
v -0.42 0.02 1.395
v -0.34 -0.1 2.105
v -1.65 0.1 2.455
v -3.15 0.42 2.005
v -2.38 0.38 1.435
v -1.2 0.15 1.255
v -0.42 0.02 1.505
v 0.34 -0.1 1.995
v 1.65 0.1 2.345
v 3.15 0.42 1.895
v 2.38 0.38 1.325
v 1.2 0.15 1.145
v 0.42 0.02 1.395
v 0.34 -0.1 2.105
v 1.65 0.1 2.455
v 3.15 0.42 2.005
v 2.38 0.38 1.435
v 1.2 0.15 1.255
v 0.42 0.02 1.505
v -0.12 0.45 1.15
v -0.14929 0.38231 1.12954
v -0.22 0.35428 1.12106
v -0.29071 0.38231 1.12954
v -0.32 0.45 1.15
v -0.29071 0.51769 1.17046
v -0.22 0.54572 1.17894
v -0.14929 0.51769 1.17046
v -0.15 0.58 0.72
v -0.1705 0.53262 0.70568
v -0.22 0.513 0.69974
v -0.2695 0.53262 0.70568
v -0.29 0.58 0.72
v -0.2695 0.62738 0.73432
v -0.22 0.647 0.74026
v -0.1705 0.62738 0.73432
v -0.22 0.45 1.15
v -0.22 0.58 0.72
v -0.16021 0.58 0.71494
v -0.17668 0.53944 0.72881
v -0.21852 0.52264 0.73753
v -0.26123 0.53944 0.73597
v -0.27979 0.58 0.72506
v -0.26332 0.62056 0.71119
v -0.22148 0.63736 0.70247
v -0.17877 0.62056 0.70403
v -0.23204 0.5 0.45916
v -0.23478 0.49324 0.46147
v -0.24175 0.49044 0.46292
v -0.24887 0.49324 0.46266
v -0.25196 0.5 0.46084
v -0.24922 0.50676 0.45853
v -0.24225 0.50956 0.45708
v -0.23513 0.50676 0.45734
v -0.22 0.58 0.72
v -0.242 0.5 0.46
v 0.32 0.45 1.15
v 0.29071 0.38231 1.12954
v 0.22 0.35428 1.12106
v 0.14929 0.38231 1.12954
v 0.12 0.45 1.15
v 0.14929 0.51769 1.17046
v 0.22 0.54572 1.17894
v 0.29071 0.51769 1.17046
v 0.29 0.58 0.72
v 0.2695 0.53262 0.70568
v 0.22 0.513 0.69974
v 0.1705 0.53262 0.70568
v 0.15 0.58 0.72
v 0.1705 0.62738 0.73432
v 0.22 0.647 0.74026
v 0.2695 0.62738 0.73432
v 0.22 0.45 1.15
v 0.22 0.58 0.72
v 0.27979 0.58 0.72506
v 0.26123 0.53944 0.73597
v 0.21852 0.52264 0.73753
v 0.17668 0.53944 0.72881
v 0.16021 0.58 0.71494
v 0.17877 0.62056 0.70403
v 0.22148 0.63736 0.70247
v 0.26332 0.62056 0.71119
v 0.25196 0.5 0.46084
v 0.24887 0.49324 0.46266
v 0.24175 0.49044 0.46292
v 0.23478 0.49324 0.46147
v 0.23204 0.5 0.45916
v 0.23513 0.50676 0.45734
v 0.24225 0.50956 0.45708
v 0.24922 0.50676 0.45853
v 0.22 0.58 0.72
v 0.242 0.5 0.46
v -0.2 -1.12 2.42
v -0.2 -1.12 2.42
v -0.2 -1.12 2.42
v -0.2 -1.12 2.42
v -0.2 -1.12 2.42
v -0.2 -1.12 2.42
v -0.2 -1.12 2.42
v -0.2 -1.12 2.42
v -0.2 -1.12 2.42
v -0.2 -1.12 2.42
v -0.145 -1.12 2.4334
v -0.1555 -1.10531 2.4334
v -0.183 -1.09622 2.4334
v -0.217 -1.09622 2.4334
v -0.2445 -1.10531 2.4334
v -0.255 -1.12 2.4334
v -0.2445 -1.13469 2.4334
v -0.217 -1.14378 2.4334
v -0.183 -1.14378 2.4334
v -0.1555 -1.13469 2.4334
v -0.10474 -1.12 2.47
v -0.12293 -1.09455 2.47
v -0.17056 -1.07882 2.47
v -0.22944 -1.07882 2.47
v -0.27707 -1.09455 2.47
v -0.29526 -1.12 2.47
v -0.27707 -1.14545 2.47
v -0.22944 -1.16118 2.47
v -0.17056 -1.16118 2.47
v -0.12293 -1.14545 2.47
v -0.09 -1.12 2.52
v -0.11101 -1.09061 2.52
v -0.16601 -1.07245 2.52
v -0.23399 -1.07245 2.52
v -0.28899 -1.09061 2.52
v -0.31 -1.12 2.52
v -0.28899 -1.14939 2.52
v -0.23399 -1.16755 2.52
v -0.16601 -1.16755 2.52
v -0.11101 -1.14939 2.52
v -0.10474 -1.12 2.57
v -0.12293 -1.09455 2.57
v -0.17056 -1.07882 2.57
v -0.22944 -1.07882 2.57
v -0.27707 -1.09455 2.57
v -0.29526 -1.12 2.57
v -0.27707 -1.14545 2.57
v -0.22944 -1.16118 2.57
v -0.17056 -1.16118 2.57
v -0.12293 -1.14545 2.57
v -0.145 -1.12 2.6066
v -0.1555 -1.10531 2.6066
v -0.183 -1.09622 2.6066
v -0.217 -1.09622 2.6066
v -0.2445 -1.10531 2.6066
v -0.255 -1.12 2.6066
v -0.2445 -1.13469 2.6066
v -0.217 -1.14378 2.6066
v -0.183 -1.14378 2.6066
v -0.1555 -1.13469 2.6066
v -0.2 -1.12 2.62
v -0.2 -1.12 2.62
v -0.2 -1.12 2.62
v -0.2 -1.12 2.62
v -0.2 -1.12 2.62
v -0.2 -1.12 2.62
v -0.2 -1.12 2.62
v -0.2 -1.12 2.62
v -0.2 -1.12 2.62
v -0.2 -1.12 2.62
v 0.2 -1.12 2.42
v 0.2 -1.12 2.42
v 0.2 -1.12 2.42
v 0.2 -1.12 2.42
v 0.2 -1.12 2.42
v 0.2 -1.12 2.42
v 0.2 -1.12 2.42
v 0.2 -1.12 2.42
v 0.2 -1.12 2.42
v 0.2 -1.12 2.42
v 0.255 -1.12 2.4334
v 0.2445 -1.10531 2.4334
v 0.217 -1.09622 2.4334
v 0.183 -1.09622 2.4334
v 0.1555 -1.10531 2.4334
v 0.145 -1.12 2.4334
v 0.1555 -1.13469 2.4334
v 0.183 -1.14378 2.4334
v 0.217 -1.14378 2.4334
v 0.2445 -1.13469 2.4334
v 0.29526 -1.12 2.47
v 0.27707 -1.09455 2.47
v 0.22944 -1.07882 2.47
v 0.17056 -1.07882 2.47
v 0.12293 -1.09455 2.47
v 0.10474 -1.12 2.47
v 0.12293 -1.14545 2.47
v 0.17056 -1.16118 2.47
v 0.22944 -1.16118 2.47
v 0.27707 -1.14545 2.47
v 0.31 -1.12 2.52
v 0.28899 -1.09061 2.52
v 0.23399 -1.07245 2.52
v 0.16601 -1.07245 2.52
v 0.11101 -1.09061 2.52
v 0.09 -1.12 2.52
v 0.11101 -1.14939 2.52
v 0.16601 -1.16755 2.52
v 0.23399 -1.16755 2.52
v 0.28899 -1.14939 2.52
v 0.29526 -1.12 2.57
v 0.27707 -1.09455 2.57
v 0.22944 -1.07882 2.57
v 0.17056 -1.07882 2.57
v 0.12293 -1.09455 2.57
v 0.10474 -1.12 2.57
v 0.12293 -1.14545 2.57
v 0.17056 -1.16118 2.57
v 0.22944 -1.16118 2.57
v 0.27707 -1.14545 2.57
v 0.255 -1.12 2.6066
v 0.2445 -1.10531 2.6066
v 0.217 -1.09622 2.6066
v 0.183 -1.09622 2.6066
v 0.1555 -1.10531 2.6066
v 0.145 -1.12 2.6066
v 0.1555 -1.13469 2.6066
v 0.183 -1.14378 2.6066
v 0.217 -1.14378 2.6066
v 0.2445 -1.13469 2.6066
v 0.2 -1.12 2.62
v 0.2 -1.12 2.62
v 0.2 -1.12 2.62
v 0.2 -1.12 2.62
v 0.2 -1.12 2.62
v 0.2 -1.12 2.62
v 0.2 -1.12 2.62
v 0.2 -1.12 2.62
v 0.2 -1.12 2.62
v 0.2 -1.12 2.62
g Body
usemtl BAT_BODY
f 1 2 16 15
f 2 3 17 16
f 3 4 18 17
f 4 5 19 18
f 5 6 20 19
f 6 7 21 20
f 7 8 22 21
f 8 9 23 22
f 9 10 24 23
f 10 11 25 24
f 11 12 26 25
f 12 13 27 26
f 13 14 28 27
f 14 1 15 28
f 15 16 30 29
f 16 17 31 30
f 17 18 32 31
f 18 19 33 32
f 19 20 34 33
f 20 21 35 34
f 21 22 36 35
f 22 23 37 36
f 23 24 38 37
f 24 25 39 38
f 25 26 40 39
f 26 27 41 40
f 27 28 42 41
f 28 15 29 42
f 29 30 44 43
f 30 31 45 44
f 31 32 46 45
f 32 33 47 46
f 33 34 48 47
f 34 35 49 48
f 35 36 50 49
f 36 37 51 50
f 37 38 52 51
f 38 39 53 52
f 39 40 54 53
f 40 41 55 54
f 41 42 56 55
f 42 29 43 56
f 43 44 58 57
f 44 45 59 58
f 45 46 60 59
f 46 47 61 60
f 47 48 62 61
f 48 49 63 62
f 49 50 64 63
f 50 51 65 64
f 51 52 66 65
f 52 53 67 66
f 53 54 68 67
f 54 55 69 68
f 55 56 70 69
f 56 43 57 70
f 57 58 72 71
f 58 59 73 72
f 59 60 74 73
f 60 61 75 74
f 61 62 76 75
f 62 63 77 76
f 63 64 78 77
f 64 65 79 78
f 65 66 80 79
f 66 67 81 80
f 67 68 82 81
f 68 69 83 82
f 69 70 84 83
f 70 57 71 84
f 71 72 86 85
f 72 73 87 86
f 73 74 88 87
f 74 75 89 88
f 75 76 90 89
f 76 77 91 90
f 77 78 92 91
f 78 79 93 92
f 79 80 94 93
f 80 81 95 94
f 81 82 96 95
f 82 83 97 96
f 83 84 98 97
f 84 71 85 98
f 85 86 100 99
f 86 87 101 100
f 87 88 102 101
f 88 89 103 102
f 89 90 104 103
f 90 91 105 104
f 91 92 106 105
f 92 93 107 106
f 93 94 108 107
f 94 95 109 108
f 95 96 110 109
f 96 97 111 110
f 97 98 112 111
f 98 85 99 112
f 99 100 114 113
f 100 101 115 114
f 101 102 116 115
f 102 103 117 116
f 103 104 118 117
f 104 105 119 118
f 105 106 120 119
f 106 107 121 120
f 107 108 122 121
f 108 109 123 122
f 109 110 124 123
f 110 111 125 124
f 111 112 126 125
f 112 99 113 126
g Head
usemtl BAT_DARK
f 127 128 142 141
f 128 129 143 142
f 129 130 144 143
f 130 131 145 144
f 131 132 146 145
f 132 133 147 146
f 133 134 148 147
f 134 135 149 148
f 135 136 150 149
f 136 137 151 150
f 137 138 152 151
f 138 139 153 152
f 139 140 154 153
f 140 127 141 154
f 141 142 156 155
f 142 143 157 156
f 143 144 158 157
f 144 145 159 158
f 145 146 160 159
f 146 147 161 160
f 147 148 162 161
f 148 149 163 162
f 149 150 164 163
f 150 151 165 164
f 151 152 166 165
f 152 153 167 166
f 153 154 168 167
f 154 141 155 168
f 155 156 170 169
f 156 157 171 170
f 157 158 172 171
f 158 159 173 172
f 159 160 174 173
f 160 161 175 174
f 161 162 176 175
f 162 163 177 176
f 163 164 178 177
f 164 165 179 178
f 165 166 180 179
f 166 167 181 180
f 167 168 182 181
f 168 155 169 182
f 169 170 184 183
f 170 171 185 184
f 171 172 186 185
f 172 173 187 186
f 173 174 188 187
f 174 175 189 188
f 175 176 190 189
f 176 177 191 190
f 177 178 192 191
f 178 179 193 192
f 179 180 194 193
f 180 181 195 194
f 181 182 196 195
f 182 169 183 196
f 183 184 198 197
f 184 185 199 198
f 185 186 200 199
f 186 187 201 200
f 187 188 202 201
f 188 189 203 202
f 189 190 204 203
f 190 191 205 204
f 191 192 206 205
f 192 193 207 206
f 193 194 208 207
f 194 195 209 208
f 195 196 210 209
f 196 183 197 210
f 197 198 212 211
f 198 199 213 212
f 199 200 214 213
f 200 201 215 214
f 201 202 216 215
f 202 203 217 216
f 203 204 218 217
f 204 205 219 218
f 205 206 220 219
f 206 207 221 220
f 207 208 222 221
f 208 209 223 222
f 209 210 224 223
f 210 197 211 224
f 211 212 226 225
f 212 213 227 226
f 213 214 228 227
f 214 215 229 228
f 215 216 230 229
f 216 217 231 230
f 217 218 232 231
f 218 219 233 232
f 219 220 234 233
f 220 221 235 234
f 221 222 236 235
f 222 223 237 236
f 223 224 238 237
f 224 211 225 238
f 225 226 240 239
f 226 227 241 240
f 227 228 242 241
f 228 229 243 242
f 229 230 244 243
f 230 231 245 244
f 231 232 246 245
f 232 233 247 246
f 233 234 248 247
f 234 235 249 248
f 235 236 250 249
f 236 237 251 250
f 237 238 252 251
f 238 225 239 252
g Muzzle
usemtl BAT_MUZZLE
f 253 254 266 265
f 254 255 267 266
f 255 256 268 267
f 256 257 269 268
f 257 258 270 269
f 258 259 271 270
f 259 260 272 271
f 260 261 273 272
f 261 262 274 273
f 262 263 275 274
f 263 264 276 275
f 264 253 265 276
f 265 266 278 277
f 266 267 279 278
f 267 268 280 279
f 268 269 281 280
f 269 270 282 281
f 270 271 283 282
f 271 272 284 283
f 272 273 285 284
f 273 274 286 285
f 274 275 287 286
f 275 276 288 287
f 276 265 277 288
f 277 278 290 289
f 278 279 291 290
f 279 280 292 291
f 280 281 293 292
f 281 282 294 293
f 282 283 295 294
f 283 284 296 295
f 284 285 297 296
f 285 286 298 297
f 286 287 299 298
f 287 288 300 299
f 288 277 289 300
f 289 290 302 301
f 290 291 303 302
f 291 292 304 303
f 292 293 305 304
f 293 294 306 305
f 294 295 307 306
f 295 296 308 307
f 296 297 309 308
f 297 298 310 309
f 298 299 311 310
f 299 300 312 311
f 300 289 301 312
f 301 302 314 313
f 302 303 315 314
f 303 304 316 315
f 304 305 317 316
f 305 306 318 317
f 306 307 319 318
f 307 308 320 319
f 308 309 321 320
f 309 310 322 321
f 310 311 323 322
f 311 312 324 323
f 312 301 313 324
f 313 314 326 325
f 314 315 327 326
f 315 316 328 327
f 316 317 329 328
f 317 318 330 329
f 318 319 331 330
f 319 320 332 331
f 320 321 333 332
f 321 322 334 333
f 322 323 335 334
f 323 324 336 335
f 324 313 325 336
g EarL
usemtl BAT_WING
f 337 338 341 340
f 338 339 342 341
f 339 337 340 342
f 339 338 337
f 340 341 342
g EarR
f 343 344 347 346
f 344 345 348 347
f 345 343 346 348
f 345 344 343
f 346 347 348
g WingL
f 349 350 356 355
f 350 351 357 356
f 351 352 358 357
f 352 353 359 358
f 353 354 360 359
f 354 349 355 360
f 354 353 352 351 350 349
f 355 356 357 358 359 360
g WingR
f 361 362 368 367
f 362 363 369 368
f 363 364 370 369
f 364 365 371 370
f 365 366 372 371
f 366 361 367 372
f 366 365 364 363 362 361
f 367 368 369 370 371 372
g Leg-0.22
usemtl BAT_DARK
f 373 374 382 381
f 374 375 383 382
f 375 376 384 383
f 376 377 385 384
f 377 378 386 385
f 378 379 387 386
f 379 380 388 387
f 380 373 381 388
f 389 374 373
f 390 381 382
f 389 375 374
f 390 382 383
f 389 376 375
f 390 383 384
f 389 377 376
f 390 384 385
f 389 378 377
f 390 385 386
f 389 379 378
f 390 386 387
f 389 380 379
f 390 387 388
f 389 373 380
f 390 388 381
g Claw-0.22
usemtl IVORY
f 391 392 400 399
f 392 393 401 400
f 393 394 402 401
f 394 395 403 402
f 395 396 404 403
f 396 397 405 404
f 397 398 406 405
f 398 391 399 406
f 407 392 391
f 408 399 400
f 407 393 392
f 408 400 401
f 407 394 393
f 408 401 402
f 407 395 394
f 408 402 403
f 407 396 395
f 408 403 404
f 407 397 396
f 408 404 405
f 407 398 397
f 408 405 406
f 407 391 398
f 408 406 399
g Leg0.22
usemtl BAT_DARK
f 409 410 418 417
f 410 411 419 418
f 411 412 420 419
f 412 413 421 420
f 413 414 422 421
f 414 415 423 422
f 415 416 424 423
f 416 409 417 424
f 425 410 409
f 426 417 418
f 425 411 410
f 426 418 419
f 425 412 411
f 426 419 420
f 425 413 412
f 426 420 421
f 425 414 413
f 426 421 422
f 425 415 414
f 426 422 423
f 425 416 415
f 426 423 424
f 425 409 416
f 426 424 417
g Claw0.22
usemtl IVORY
f 427 428 436 435
f 428 429 437 436
f 429 430 438 437
f 430 431 439 438
f 431 432 440 439
f 432 433 441 440
f 433 434 442 441
f 434 427 435 442
f 443 428 427
f 444 435 436
f 443 429 428
f 444 436 437
f 443 430 429
f 444 437 438
f 443 431 430
f 444 438 439
f 443 432 431
f 444 439 440
f 443 433 432
f 444 440 441
f 443 434 433
f 444 441 442
f 443 427 434
f 444 442 435
g EyeL
usemtl BAT_EYE
f 445 446 456 455
f 446 447 457 456
f 447 448 458 457
f 448 449 459 458
f 449 450 460 459
f 450 451 461 460
f 451 452 462 461
f 452 453 463 462
f 453 454 464 463
f 454 445 455 464
f 455 456 466 465
f 456 457 467 466
f 457 458 468 467
f 458 459 469 468
f 459 460 470 469
f 460 461 471 470
f 461 462 472 471
f 462 463 473 472
f 463 464 474 473
f 464 455 465 474
f 465 466 476 475
f 466 467 477 476
f 467 468 478 477
f 468 469 479 478
f 469 470 480 479
f 470 471 481 480
f 471 472 482 481
f 472 473 483 482
f 473 474 484 483
f 474 465 475 484
f 475 476 486 485
f 476 477 487 486
f 477 478 488 487
f 478 479 489 488
f 479 480 490 489
f 480 481 491 490
f 481 482 492 491
f 482 483 493 492
f 483 484 494 493
f 484 475 485 494
f 485 486 496 495
f 486 487 497 496
f 487 488 498 497
f 488 489 499 498
f 489 490 500 499
f 490 491 501 500
f 491 492 502 501
f 492 493 503 502
f 493 494 504 503
f 494 485 495 504
f 495 496 506 505
f 496 497 507 506
f 497 498 508 507
f 498 499 509 508
f 499 500 510 509
f 500 501 511 510
f 501 502 512 511
f 502 503 513 512
f 503 504 514 513
f 504 495 505 514
g EyeR
f 515 516 526 525
f 516 517 527 526
f 517 518 528 527
f 518 519 529 528
f 519 520 530 529
f 520 521 531 530
f 521 522 532 531
f 522 523 533 532
f 523 524 534 533
f 524 515 525 534
f 525 526 536 535
f 526 527 537 536
f 527 528 538 537
f 528 529 539 538
f 529 530 540 539
f 530 531 541 540
f 531 532 542 541
f 532 533 543 542
f 533 534 544 543
f 534 525 535 544
f 535 536 546 545
f 536 537 547 546
f 537 538 548 547
f 538 539 549 548
f 539 540 550 549
f 540 541 551 550
f 541 542 552 551
f 542 543 553 552
f 543 544 554 553
f 544 535 545 554
f 545 546 556 555
f 546 547 557 556
f 547 548 558 557
f 548 549 559 558
f 549 550 560 559
f 550 551 561 560
f 551 552 562 561
f 552 553 563 562
f 553 554 564 563
f 554 545 555 564
f 555 556 566 565
f 556 557 567 566
f 557 558 568 567
f 558 559 569 568
f 559 560 570 569
f 560 561 571 570
f 561 562 572 571
f 562 563 573 572
f 563 564 574 573
f 564 555 565 574
f 565 566 576 575
f 566 567 577 576
f 567 568 578 577
f 568 569 579 578
f 569 570 580 579
f 570 571 581 580
f 571 572 582 581
f 572 573 583 582
f 573 574 584 583
f 574 565 575 584
