# hornbull - project-original Roblox source asset
mtllib monster-adventure.mtl
o hornbull
v 0 0.15 0.45
v 0 0.15 0.45
v 0 0.15 0.45
v 0 0.15 0.45
v 0 0.15 0.45
v 0 0.15 0.45
v 0 0.15 0.45
v 0 0.15 0.45
v 0 0.15 0.45
v 0 0.15 0.45
v 0 0.15 0.45
v 0 0.15 0.45
v 0 0.15 0.45
v 0 0.15 0.45
v 0 0.15 0.45
v 0 0.15 0.45
v 0 0.15 0.45
v 0 0.15 0.45
v 0.47898 0.15 0.50384
v 0.45009 0.37723 0.50384
v 0.36692 0.57706 0.50384
v 0.23949 0.72538 0.50384
v 0.08317 0.80429 0.50384
v -0.08317 0.80429 0.50384
v -0.23949 0.72538 0.50384
v -0.36692 0.57706 0.50384
v -0.45009 0.37723 0.50384
v -0.47898 0.15 0.50384
v -0.45009 -0.07723 0.50384
v -0.36692 -0.27706 0.50384
v -0.23949 -0.42538 0.50384
v -0.08317 -0.50429 0.50384
v 0.08317 -0.50429 0.50384
v 0.23949 -0.42538 0.50384
v 0.36692 -0.27706 0.50384
v 0.45009 -0.07723 0.50384
v 0.91107 0.15 0.66008
v 0.85612 0.58222 0.66008
v 0.69792 0.96232 0.66008
v 0.45553 1.24443 0.66008
v 0.15821 1.39454 0.66008
v -0.15821 1.39454 0.66008
v -0.45553 1.24443 0.66008
v -0.69792 0.96232 0.66008
v -0.85612 0.58222 0.66008
v -0.91107 0.15 0.66008
v -0.85612 -0.28222 0.66008
v -0.69792 -0.66232 0.66008
v -0.45553 -0.94443 0.66008
v -0.15821 -1.09454 0.66008
v 0.15821 -1.09454 0.66008
v 0.45553 -0.94443 0.66008
v 0.69792 -0.66232 0.66008
v 0.85612 -0.28222 0.66008
v 1.25398 0.15 0.90344
v 1.17835 0.74491 0.90344
v 0.9606 1.26806 0.90344
v 0.62699 1.65635 0.90344
v 0.21775 1.86296 0.90344
v -0.21775 1.86296 0.90344
v -0.62699 1.65635 0.90344
v -0.9606 1.26806 0.90344
v -1.17835 0.74491 0.90344
v -1.25398 0.15 0.90344
v -1.17835 -0.44491 0.90344
v -0.9606 -0.96806 0.90344
v -0.62699 -1.35635 0.90344
v -0.21775 -1.56296 0.90344
v 0.21775 -1.56296 0.90344
v 0.62699 -1.35635 0.90344
v 0.9606 -0.96806 0.90344
v 1.17835 -0.44491 0.90344
v 1.47414 0.15 1.21008
v 1.38524 0.84935 1.21008
v 1.12925 1.46435 1.21008
v 0.73707 1.92082 1.21008
v 0.25598 2.16371 1.21008
v -0.25598 2.16371 1.21008
v -0.73707 1.92082 1.21008
v -1.12925 1.46435 1.21008
v -1.38524 0.84935 1.21008
v -1.47414 0.15 1.21008
v -1.38524 -0.54935 1.21008
v -1.12925 -1.16435 1.21008
v -0.73707 -1.62082 1.21008
v -0.25598 -1.86371 1.21008
v 0.25598 -1.86371 1.21008
v 0.73707 -1.62082 1.21008
v 1.12925 -1.16435 1.21008
v 1.38524 -0.54935 1.21008
v 1.55 0.15 1.55
v 1.45652 0.88534 1.55
v 1.18737 1.53199 1.55
v 0.775 2.01195 1.55
v 0.26915 2.26734 1.55
v -0.26915 2.26734 1.55
v -0.775 2.01195 1.55
v -1.18737 1.53199 1.55
v -1.45652 0.88534 1.55
v -1.55 0.15 1.55
v -1.45652 -0.58534 1.55
v -1.18737 -1.23199 1.55
v -0.775 -1.71195 1.55
v -0.26915 -1.96734 1.55
v 0.26915 -1.96734 1.55
v 0.775 -1.71195 1.55
v 1.18737 -1.23199 1.55
v 1.45652 -0.58534 1.55
v 1.47414 0.15 1.88992
v 1.38524 0.84935 1.88992
v 1.12925 1.46435 1.88992
v 0.73707 1.92082 1.88992
v 0.25598 2.16371 1.88992
v -0.25598 2.16371 1.88992
v -0.73707 1.92082 1.88992
v -1.12925 1.46435 1.88992
v -1.38524 0.84935 1.88992
v -1.47414 0.15 1.88992
v -1.38524 -0.54935 1.88992
v -1.12925 -1.16435 1.88992
v -0.73707 -1.62082 1.88992
v -0.25598 -1.86371 1.88992
v 0.25598 -1.86371 1.88992
v 0.73707 -1.62082 1.88992
v 1.12925 -1.16435 1.88992
v 1.38524 -0.54935 1.88992
v 1.25398 0.15 2.19656
v 1.17835 0.74491 2.19656
v 0.9606 1.26806 2.19656
v 0.62699 1.65635 2.19656
v 0.21775 1.86296 2.19656
v -0.21775 1.86296 2.19656
v -0.62699 1.65635 2.19656
v -0.9606 1.26806 2.19656
v -1.17835 0.74491 2.19656
v -1.25398 0.15 2.19656
v -1.17835 -0.44491 2.19656
v -0.9606 -0.96806 2.19656
v -0.62699 -1.35635 2.19656
v -0.21775 -1.56296 2.19656
v 0.21775 -1.56296 2.19656
v 0.62699 -1.35635 2.19656
v 0.9606 -0.96806 2.19656
v 1.17835 -0.44491 2.19656
v 0.91107 0.15 2.43992
v 0.85612 0.58222 2.43992
v 0.69792 0.96232 2.43992
v 0.45553 1.24443 2.43992
v 0.15821 1.39454 2.43992
v -0.15821 1.39454 2.43992
v -0.45553 1.24443 2.43992
v -0.69792 0.96232 2.43992
v -0.85612 0.58222 2.43992
v -0.91107 0.15 2.43992
v -0.85612 -0.28222 2.43992
v -0.69792 -0.66232 2.43992
v -0.45553 -0.94443 2.43992
v -0.15821 -1.09454 2.43992
v 0.15821 -1.09454 2.43992
v 0.45553 -0.94443 2.43992
v 0.69792 -0.66232 2.43992
v 0.85612 -0.28222 2.43992
v 0.47898 0.15 2.59616
v 0.45009 0.37723 2.59616
v 0.36692 0.57706 2.59616
v 0.23949 0.72538 2.59616
v 0.08317 0.80429 2.59616
v -0.08317 0.80429 2.59616
v -0.23949 0.72538 2.59616
v -0.36692 0.57706 2.59616
v -0.45009 0.37723 2.59616
v -0.47898 0.15 2.59616
v -0.45009 -0.07723 2.59616
v -0.36692 -0.27706 2.59616
v -0.23949 -0.42538 2.59616
v -0.08317 -0.50429 2.59616
v 0.08317 -0.50429 2.59616
v 0.23949 -0.42538 2.59616
v 0.36692 -0.27706 2.59616
v 0.45009 -0.07723 2.59616
v 0 0.15 2.65
v 0 0.15 2.65
v 0 0.15 2.65
v 0 0.15 2.65
v 0 0.15 2.65
v 0 0.15 2.65
v 0 0.15 2.65
v 0 0.15 2.65
v 0 0.15 2.65
v 0 0.15 2.65
v 0 0.15 2.65
v 0 0.15 2.65
v 0 0.15 2.65
v 0 0.15 2.65
v 0 0.15 2.65
v 0 0.15 2.65
v 0 0.15 2.65
v 0 0.15 2.65
v 0 -1.35 0.49
v 0 -1.35 0.49
v 0 -1.35 0.49
v 0 -1.35 0.49
v 0 -1.35 0.49
v 0 -1.35 0.49
v 0 -1.35 0.49
v 0 -1.35 0.49
v 0 -1.35 0.49
v 0 -1.35 0.49
v 0 -1.35 0.49
v 0 -1.35 0.49
v 0 -1.35 0.49
v 0 -1.35 0.49
v 0 -1.35 0.49
v 0 -1.35 0.49
v 0.57459 -1.35 0.57202
v 0.53086 -1.21257 0.57202
v 0.4063 -1.09606 0.57202
v 0.21989 -1.01822 0.57202
v 0 -0.99088 0.57202
v -0.21989 -1.01822 0.57202
v -0.4063 -1.09606 0.57202
v -0.53086 -1.21257 0.57202
v -0.57459 -1.35 0.57202
v -0.53086 -1.48743 0.57202
v -0.4063 -1.60394 0.57202
v -0.21989 -1.68178 0.57202
v 0 -1.70912 0.57202
v 0.21989 -1.68178 0.57202
v 0.4063 -1.60394 0.57202
v 0.53086 -1.48743 0.57202
v 1.07988 -1.35 0.80818
v 0.99768 -1.09172 0.80818
v 0.76359 -0.87275 0.80818
v 0.41325 -0.72645 0.80818
v 0 -0.67507 0.80818
v -0.41325 -0.72645 0.80818
v -0.76359 -0.87275 0.80818
v -0.99768 -1.09172 0.80818
v -1.07988 -1.35 0.80818
v -0.99768 -1.60828 0.80818
v -0.76359 -1.82725 0.80818
v -0.41325 -1.97355 0.80818
v 0 -2.02493 0.80818
v 0.41325 -1.97355 0.80818
v 0.76359 -1.82725 0.80818
v 0.99768 -1.60828 0.80818
v 1.45492 -1.35 1.17
v 1.34417 -1.00202 1.17
v 1.02879 -0.70701 1.17
v 0.55677 -0.50989 1.17
v 0 -0.44067 1.17
v -0.55677 -0.50989 1.17
v -1.02879 -0.70701 1.17
v -1.34417 -1.00202 1.17
v -1.45492 -1.35 1.17
v -1.34417 -1.69798 1.17
v -1.02879 -1.99299 1.17
v -0.55677 -2.19011 1.17
v 0 -2.25933 1.17
v 0.55677 -2.19011 1.17
v 1.02879 -1.99299 1.17
v 1.34417 -1.69798 1.17
v 1.65448 -1.35 1.61384
v 1.52854 -0.95429 1.61384
v 1.16989 -0.61882 1.61384
v 0.63314 -0.39466 1.61384
v 0 -0.31595 1.61384
v -0.63314 -0.39466 1.61384
v -1.16989 -0.61882 1.61384
v -1.52854 -0.95429 1.61384
v -1.65448 -1.35 1.61384
v -1.52854 -1.74571 1.61384
v -1.16989 -2.08118 1.61384
v -0.63314 -2.30534 1.61384
v 0 -2.38405 1.61384
v 0.63314 -2.30534 1.61384
v 1.16989 -2.08118 1.61384
v 1.52854 -1.74571 1.61384
v 1.65448 -1.35 2.08616
v 1.52854 -0.95429 2.08616
v 1.16989 -0.61882 2.08616
v 0.63314 -0.39466 2.08616
v 0 -0.31595 2.08616
v -0.63314 -0.39466 2.08616
v -1.16989 -0.61882 2.08616
v -1.52854 -0.95429 2.08616
v -1.65448 -1.35 2.08616
v -1.52854 -1.74571 2.08616
v -1.16989 -2.08118 2.08616
v -0.63314 -2.30534 2.08616
v 0 -2.38405 2.08616
v 0.63314 -2.30534 2.08616
v 1.16989 -2.08118 2.08616
v 1.52854 -1.74571 2.08616
v 1.45492 -1.35 2.53
v 1.34417 -1.00202 2.53
v 1.02879 -0.70701 2.53
v 0.55677 -0.50989 2.53
v 0 -0.44067 2.53
v -0.55677 -0.50989 2.53
v -1.02879 -0.70701 2.53
v -1.34417 -1.00202 2.53
v -1.45492 -1.35 2.53
v -1.34417 -1.69798 2.53
v -1.02879 -1.99299 2.53
v -0.55677 -2.19011 2.53
v 0 -2.25933 2.53
v 0.55677 -2.19011 2.53
v 1.02879 -1.99299 2.53
v 1.34417 -1.69798 2.53
v 1.07988 -1.35 2.89182
v 0.99768 -1.09172 2.89182
v 0.76359 -0.87275 2.89182
v 0.41325 -0.72645 2.89182
v 0 -0.67507 2.89182
v -0.41325 -0.72645 2.89182
v -0.76359 -0.87275 2.89182
v -0.99768 -1.09172 2.89182
v -1.07988 -1.35 2.89182
v -0.99768 -1.60828 2.89182
v -0.76359 -1.82725 2.89182
v -0.41325 -1.97355 2.89182
v 0 -2.02493 2.89182
v 0.41325 -1.97355 2.89182
v 0.76359 -1.82725 2.89182
v 0.99768 -1.60828 2.89182
v 0.57459 -1.35 3.12798
v 0.53086 -1.21257 3.12798
v 0.4063 -1.09606 3.12798
v 0.21989 -1.01822 3.12798
v 0 -0.99088 3.12798
v -0.21989 -1.01822 3.12798
v -0.4063 -1.09606 3.12798
v -0.53086 -1.21257 3.12798
v -0.57459 -1.35 3.12798
v -0.53086 -1.48743 3.12798
v -0.4063 -1.60394 3.12798
v -0.21989 -1.68178 3.12798
v 0 -1.70912 3.12798
v 0.21989 -1.68178 3.12798
v 0.4063 -1.60394 3.12798
v 0.53086 -1.48743 3.12798
v 0 -1.35 3.21
v 0 -1.35 3.21
v 0 -1.35 3.21
v 0 -1.35 3.21
v 0 -1.35 3.21
v 0 -1.35 3.21
v 0 -1.35 3.21
v 0 -1.35 3.21
v 0 -1.35 3.21
v 0 -1.35 3.21
v 0 -1.35 3.21
v 0 -1.35 3.21
v 0 -1.35 3.21
v 0 -1.35 3.21
v 0 -1.35 3.21
v 0 -1.35 3.21
v 0 -2.45 1.09
v 0 -2.45 1.09
v 0 -2.45 1.09
v 0 -2.45 1.09
v 0 -2.45 1.09
v 0 -2.45 1.09
v 0 -2.45 1.09
v 0 -2.45 1.09
v 0 -2.45 1.09
v 0 -2.45 1.09
v 0 -2.45 1.09
v 0 -2.45 1.09
v 0 -2.45 1.09
v 0 -2.45 1.09
v 0 -2.45 1.09
v 0 -2.45 1.09
v 0.3557 -2.45 1.14186
v 0.32862 -2.3322 1.14186
v 0.25152 -2.23234 1.14186
v 0.13612 -2.16561 1.14186
v 0 -2.14218 1.14186
v -0.13612 -2.16561 1.14186
v -0.25152 -2.23234 1.14186
v -0.32862 -2.3322 1.14186
v -0.3557 -2.45 1.14186
v -0.32862 -2.5678 1.14186
v -0.25152 -2.66766 1.14186
v -0.13612 -2.73439 1.14186
v 0 -2.75782 1.14186
v 0.13612 -2.73439 1.14186
v 0.25152 -2.66766 1.14186
v 0.32862 -2.5678 1.14186
v 0.6685 -2.45 1.2912
v 0.61761 -2.22861 1.2912
v 0.4727 -2.04093 1.2912
v 0.25582 -1.91553 1.2912
v 0 -1.87149 1.2912
v -0.25582 -1.91553 1.2912
v -0.4727 -2.04093 1.2912
v -0.61761 -2.22861 1.2912
v -0.6685 -2.45 1.2912
v -0.61761 -2.67139 1.2912
v -0.4727 -2.85907 1.2912
v -0.25582 -2.98447 1.2912
v 0 -3.02851 1.2912
v 0.25582 -2.98447 1.2912
v 0.4727 -2.85907 1.2912
v 0.61761 -2.67139 1.2912
v 0.90067 -2.45 1.52
v 0.83211 -2.15173 1.52
v 0.63687 -1.89886 1.52
v 0.34467 -1.72991 1.52
v 0 -1.67058 1.52
v -0.34467 -1.72991 1.52
v -0.63687 -1.89886 1.52
v -0.83211 -2.15173 1.52
v -0.90067 -2.45 1.52
v -0.83211 -2.74827 1.52
v -0.63687 -3.00114 1.52
v -0.34467 -3.17009 1.52
v 0 -3.22942 1.52
v 0.34467 -3.17009 1.52
v 0.63687 -3.00114 1.52
v 0.83211 -2.74827 1.52
v 1.0242 -2.45 1.80066
v 0.94624 -2.11082 1.80066
v 0.72422 -1.82327 1.80066
v 0.39194 -1.63114 1.80066
v 0 -1.56367 1.80066
v -0.39194 -1.63114 1.80066
v -0.72422 -1.82327 1.80066
v -0.94624 -2.11082 1.80066
v -1.0242 -2.45 1.80066
v -0.94624 -2.78918 1.80066
v -0.72422 -3.07673 1.80066
v -0.39194 -3.26886 1.80066
v 0 -3.33633 1.80066
v 0.39194 -3.26886 1.80066
v 0.72422 -3.07673 1.80066
v 0.94624 -2.78918 1.80066
v 1.0242 -2.45 2.09934
v 0.94624 -2.11082 2.09934
v 0.72422 -1.82327 2.09934
v 0.39194 -1.63114 2.09934
v 0 -1.56367 2.09934
v -0.39194 -1.63114 2.09934
v -0.72422 -1.82327 2.09934
v -0.94624 -2.11082 2.09934
v -1.0242 -2.45 2.09934
v -0.94624 -2.78918 2.09934
v -0.72422 -3.07673 2.09934
v -0.39194 -3.26886 2.09934
v 0 -3.33633 2.09934
v 0.39194 -3.26886 2.09934
v 0.72422 -3.07673 2.09934
v 0.94624 -2.78918 2.09934
v 0.90067 -2.45 2.38
v 0.83211 -2.15173 2.38
v 0.63687 -1.89886 2.38
v 0.34467 -1.72991 2.38
v 0 -1.67058 2.38
v -0.34467 -1.72991 2.38
v -0.63687 -1.89886 2.38
v -0.83211 -2.15173 2.38
v -0.90067 -2.45 2.38
v -0.83211 -2.74827 2.38
v -0.63687 -3.00114 2.38
v -0.34467 -3.17009 2.38
v 0 -3.22942 2.38
v 0.34467 -3.17009 2.38
v 0.63687 -3.00114 2.38
v 0.83211 -2.74827 2.38
v 0.6685 -2.45 2.6088
v 0.61761 -2.22861 2.6088
v 0.4727 -2.04093 2.6088
v 0.25582 -1.91553 2.6088
v 0 -1.87149 2.6088
v -0.25582 -1.91553 2.6088
v -0.4727 -2.04093 2.6088
v -0.61761 -2.22861 2.6088
v -0.6685 -2.45 2.6088
v -0.61761 -2.67139 2.6088
v -0.4727 -2.85907 2.6088
v -0.25582 -2.98447 2.6088
v 0 -3.02851 2.6088
v 0.25582 -2.98447 2.6088
v 0.4727 -2.85907 2.6088
v 0.61761 -2.67139 2.6088
v 0.3557 -2.45 2.75814
v 0.32862 -2.3322 2.75814
v 0.25152 -2.23234 2.75814
v 0.13612 -2.16561 2.75814
v 0 -2.14218 2.75814
v -0.13612 -2.16561 2.75814
v -0.25152 -2.23234 2.75814
v -0.32862 -2.3322 2.75814
v -0.3557 -2.45 2.75814
v -0.32862 -2.5678 2.75814
v -0.25152 -2.66766 2.75814
v -0.13612 -2.73439 2.75814
v 0 -2.75782 2.75814
v 0.13612 -2.73439 2.75814
v 0.25152 -2.66766 2.75814
v 0.32862 -2.5678 2.75814
v 0 -2.45 2.81
v 0 -2.45 2.81
v 0 -2.45 2.81
v 0 -2.45 2.81
v 0 -2.45 2.81
v 0 -2.45 2.81
v 0 -2.45 2.81
v 0 -2.45 2.81
v 0 -2.45 2.81
v 0 -2.45 2.81
v 0 -2.45 2.81
v 0 -2.45 2.81
v 0 -2.45 2.81
v 0 -2.45 2.81
v 0 -2.45 2.81
v 0 -2.45 2.81
v 0 -3.18 1.28
v 0 -3.18 1.28
v 0 -3.18 1.28
v 0 -3.18 1.28
v 0 -3.18 1.28
v 0 -3.18 1.28
v 0 -3.18 1.28
v 0 -3.18 1.28
v 0 -3.18 1.28
v 0 -3.18 1.28
v 0 -3.18 1.28
v 0 -3.18 1.28
v 0 -3.18 1.28
v 0 -3.18 1.28
v 0.3124 -3.18 1.32159
v 0.28146 -3.08964 1.32159
v 0.19478 -3.01717 1.32159
v 0.06951 -2.97696 1.32159
v -0.06951 -2.97696 1.32159
v -0.19478 -3.01717 1.32159
v -0.28146 -3.08964 1.32159
v -0.3124 -3.18 1.32159
v -0.28146 -3.27036 1.32159
v -0.19478 -3.34283 1.32159
v -0.06951 -3.38304 1.32159
v 0.06951 -3.38304 1.32159
v 0.19478 -3.34283 1.32159
v 0.28146 -3.27036 1.32159
v 0.56292 -3.18 1.43813
v 0.50717 -3.01717 1.43813
v 0.35097 -2.88659 1.43813
v 0.12526 -2.81413 1.43813
v -0.12526 -2.81413 1.43813
v -0.35097 -2.88659 1.43813
v -0.50717 -3.01717 1.43813
v -0.56292 -3.18 1.43813
v -0.50717 -3.34283 1.43813
v -0.35097 -3.47341 1.43813
v -0.12526 -3.54587 1.43813
v 0.12526 -3.54587 1.43813
v 0.35097 -3.47341 1.43813
v 0.50717 -3.34283 1.43813
v 0.70195 -3.18 1.60654
v 0.63243 -2.97696 1.60654
v 0.43766 -2.81413 1.60654
v 0.1562 -2.72377 1.60654
v -0.1562 -2.72377 1.60654
v -0.43766 -2.81413 1.60654
v -0.63243 -2.97696 1.60654
v -0.70195 -3.18 1.60654
v -0.63243 -3.38304 1.60654
v -0.43766 -3.54587 1.60654
v -0.1562 -3.63623 1.60654
v 0.1562 -3.63623 1.60654
v 0.43766 -3.54587 1.60654
v 0.63243 -3.38304 1.60654
v 0.70195 -3.18 1.79346
v 0.63243 -2.97696 1.79346
v 0.43766 -2.81413 1.79346
v 0.1562 -2.72377 1.79346
v -0.1562 -2.72377 1.79346
v -0.43766 -2.81413 1.79346
v -0.63243 -2.97696 1.79346
v -0.70195 -3.18 1.79346
v -0.63243 -3.38304 1.79346
v -0.43766 -3.54587 1.79346
v -0.1562 -3.63623 1.79346
v 0.1562 -3.63623 1.79346
v 0.43766 -3.54587 1.79346
v 0.63243 -3.38304 1.79346
v 0.56292 -3.18 1.96187
v 0.50717 -3.01717 1.96187
v 0.35097 -2.88659 1.96187
v 0.12526 -2.81413 1.96187
v -0.12526 -2.81413 1.96187
v -0.35097 -2.88659 1.96187
v -0.50717 -3.01717 1.96187
v -0.56292 -3.18 1.96187
v -0.50717 -3.34283 1.96187
v -0.35097 -3.47341 1.96187
v -0.12526 -3.54587 1.96187
v 0.12526 -3.54587 1.96187
v 0.35097 -3.47341 1.96187
v 0.50717 -3.34283 1.96187
v 0.3124 -3.18 2.07841
v 0.28146 -3.08964 2.07841
v 0.19478 -3.01717 2.07841
v 0.06951 -2.97696 2.07841
v -0.06951 -2.97696 2.07841
v -0.19478 -3.01717 2.07841
v -0.28146 -3.08964 2.07841
v -0.3124 -3.18 2.07841
v -0.28146 -3.27036 2.07841
v -0.19478 -3.34283 2.07841
v -0.06951 -3.38304 2.07841
v 0.06951 -3.38304 2.07841
v 0.19478 -3.34283 2.07841
v 0.28146 -3.27036 2.07841
v 0 -3.18 2.12
v 0 -3.18 2.12
v 0 -3.18 2.12
v 0 -3.18 2.12
v 0 -3.18 2.12
v 0 -3.18 2.12
v 0 -3.18 2.12
v 0 -3.18 2.12
v 0 -3.18 2.12
v 0 -3.18 2.12
v 0 -3.18 2.12
v 0 -3.18 2.12
v 0 -3.18 2.12
v 0 -3.18 2.12
v -0.64 -1.2 1.25
v -0.68555 -1.36942 1.26397
v -0.81 -1.49345 1.2742
v -0.98 -1.53885 1.27795
v -1.15 -1.49345 1.2742
v -1.27445 -1.36942 1.26397
v -1.32 -1.2 1.25
v -1.27445 -1.03058 1.23603
v -1.15 -0.90655 1.2258
v -0.98 -0.86115 1.22205
v -0.81 -0.90655 1.2258
v -0.68555 -1.03058 1.23603
v -0.74 -1.28 0.28
v -0.77215 -1.39959 0.28986
v -0.86 -1.48714 0.29708
v -0.98 -1.51919 0.29973
v -1.1 -1.48714 0.29708
v -1.18785 -1.39959 0.28986
v -1.22 -1.28 0.28
v -1.18785 -1.16041 0.27014
v -1.1 -1.07286 0.26292
v -0.98 -1.04081 0.26027
v -0.86 -1.07286 0.26292
v -0.77215 -1.16041 0.27014
v -0.98 -1.2 1.25
v -0.98 -1.28 0.28
v -0.6 1.05 1.18
v -0.65091 0.86259 1.14876
v -0.79 0.72539 1.1259
v -0.98 0.67517 1.11753
v -1.17 0.72539 1.1259
v -1.30909 0.86259 1.14876
v -1.36 1.05 1.18
v -1.30909 1.23741 1.21124
v -1.17 1.37461 1.2341
v -0.98 1.42483 1.24247
v -0.79 1.37461 1.2341
v -0.65091 1.23741 1.21124
v -0.73 1.2 0.28
v -0.76349 1.0767 0.25945
v -0.855 0.98644 0.24441
v -0.98 0.9534 0.2389
v -1.105 0.98644 0.24441
v -1.19651 1.0767 0.25945
v -1.23 1.2 0.28
v -1.19651 1.3233 0.30055
v -1.105 1.41356 0.31559
v -0.98 1.4466 0.3211
v -0.855 1.41356 0.31559
v -0.76349 1.3233 0.30055
v -0.98 1.05 1.18
v -0.98 1.2 0.28
v -0.98 -1.34 -0.02
v -0.98 -1.34 -0.02
v -0.98 -1.34 -0.02
v -0.98 -1.34 -0.02
v -0.98 -1.34 -0.02
v -0.98 -1.34 -0.02
v -0.98 -1.34 -0.02
v -0.98 -1.34 -0.02
v -0.98 -1.34 -0.02
v -0.98 -1.34 -0.02
v -0.79 -1.34 0.00412
v -0.82629 -1.20481 0.00412
v -0.92129 -1.12126 0.00412
v -1.03871 -1.12126 0.00412
v -1.13371 -1.20481 0.00412
v -1.17 -1.34 0.00412
v -1.13371 -1.47519 0.00412
v -1.03871 -1.55874 0.00412
v -0.92129 -1.55874 0.00412
v -0.82629 -1.47519 0.00412
v -0.65091 -1.34 0.07
v -0.71376 -1.10584 0.07
v -0.87831 -0.96113 0.07
v -1.08169 -0.96113 0.07
v -1.24624 -1.10584 0.07
v -1.30909 -1.34 0.07
v -1.24624 -1.57416 0.07
v -1.08169 -1.71887 0.07
v -0.87831 -1.71887 0.07
v -0.71376 -1.57416 0.07
v -0.6 -1.34 0.16
v -0.67257 -1.06962 0.16
v -0.86257 -0.90251 0.16
v -1.09743 -0.90251 0.16
v -1.28743 -1.06962 0.16
v -1.36 -1.34 0.16
v -1.28743 -1.61038 0.16
v -1.09743 -1.77749 0.16
v -0.86257 -1.77749 0.16
v -0.67257 -1.61038 0.16
v -0.65091 -1.34 0.25
v -0.71376 -1.10584 0.25
v -0.87831 -0.96113 0.25
v -1.08169 -0.96113 0.25
v -1.24624 -1.10584 0.25
v -1.30909 -1.34 0.25
v -1.24624 -1.57416 0.25
v -1.08169 -1.71887 0.25
v -0.87831 -1.71887 0.25
v -0.71376 -1.57416 0.25
v -0.79 -1.34 0.31588
v -0.82629 -1.20481 0.31588
v -0.92129 -1.12126 0.31588
v -1.03871 -1.12126 0.31588
v -1.13371 -1.20481 0.31588
v -1.17 -1.34 0.31588
v -1.13371 -1.47519 0.31588
v -1.03871 -1.55874 0.31588
v -0.92129 -1.55874 0.31588
v -0.82629 -1.47519 0.31588
v -0.98 -1.34 0.34
v -0.98 -1.34 0.34
v -0.98 -1.34 0.34
v -0.98 -1.34 0.34
v -0.98 -1.34 0.34
v -0.98 -1.34 0.34
v -0.98 -1.34 0.34
v -0.98 -1.34 0.34
v -0.98 -1.34 0.34
v -0.98 -1.34 0.34
v -0.98 1.28 -0.02
v -0.98 1.28 -0.02
v -0.98 1.28 -0.02
v -0.98 1.28 -0.02
v -0.98 1.28 -0.02
v -0.98 1.28 -0.02
v -0.98 1.28 -0.02
v -0.98 1.28 -0.02
v -0.98 1.28 -0.02
v -0.98 1.28 -0.02
v -0.78 1.28 0.00412
v -0.8182 1.42107 0.00412
v -0.9182 1.50825 0.00412
v -1.0418 1.50825 0.00412
v -1.1418 1.42107 0.00412
v -1.18 1.28 0.00412
v -1.1418 1.13893 0.00412
v -1.0418 1.05175 0.00412
v -0.9182 1.05175 0.00412
v -0.8182 1.13893 0.00412
v -0.63359 1.28 0.07
v -0.69975 1.52434 0.07
v -0.87295 1.67535 0.07
v -1.08705 1.67535 0.07
v -1.26025 1.52434 0.07
v -1.32641 1.28 0.07
v -1.26025 1.03566 0.07
v -1.08705 0.88465 0.07
v -0.87295 0.88465 0.07
v -0.69975 1.03566 0.07
v -0.58 1.28 0.16
v -0.65639 1.56214 0.16
v -0.85639 1.73651 0.16
v -1.10361 1.73651 0.16
v -1.30361 1.56214 0.16
v -1.38 1.28 0.16
v -1.30361 0.99786 0.16
v -1.10361 0.82349 0.16
v -0.85639 0.82349 0.16
v -0.65639 0.99786 0.16
v -0.63359 1.28 0.25
v -0.69975 1.52434 0.25
v -0.87295 1.67535 0.25
v -1.08705 1.67535 0.25
v -1.26025 1.52434 0.25
v -1.32641 1.28 0.25
v -1.26025 1.03566 0.25
v -1.08705 0.88465 0.25
v -0.87295 0.88465 0.25
v -0.69975 1.03566 0.25
v -0.78 1.28 0.31588
v -0.8182 1.42107 0.31588
v -0.9182 1.50825 0.31588
v -1.0418 1.50825 0.31588
v -1.1418 1.42107 0.31588
v -1.18 1.28 0.31588
v -1.1418 1.13893 0.31588
v -1.0418 1.05175 0.31588
v -0.9182 1.05175 0.31588
v -0.8182 1.13893 0.31588
v -0.98 1.28 0.34
v -0.98 1.28 0.34
v -0.98 1.28 0.34
v -0.98 1.28 0.34
v -0.98 1.28 0.34
v -0.98 1.28 0.34
v -0.98 1.28 0.34
v -0.98 1.28 0.34
v -0.98 1.28 0.34
v -0.98 1.28 0.34
v 1.32 -1.2 1.25
v 1.27445 -1.36942 1.26397
v 1.15 -1.49345 1.2742
v 0.98 -1.53885 1.27795
v 0.81 -1.49345 1.2742
v 0.68555 -1.36942 1.26397
v 0.64 -1.2 1.25
v 0.68555 -1.03058 1.23603
v 0.81 -0.90655 1.2258
v 0.98 -0.86115 1.22205
v 1.15 -0.90655 1.2258
v 1.27445 -1.03058 1.23603
v 1.22 -1.28 0.28
v 1.18785 -1.39959 0.28986
v 1.1 -1.48714 0.29708
v 0.98 -1.51919 0.29973
v 0.86 -1.48714 0.29708
v 0.77215 -1.39959 0.28986
v 0.74 -1.28 0.28
v 0.77215 -1.16041 0.27014
v 0.86 -1.07286 0.26292
v 0.98 -1.04081 0.26027
v 1.1 -1.07286 0.26292
v 1.18785 -1.16041 0.27014
v 0.98 -1.2 1.25
v 0.98 -1.28 0.28
v 1.36 1.05 1.18
v 1.30909 0.86259 1.14876
v 1.17 0.72539 1.1259
v 0.98 0.67517 1.11753
v 0.79 0.72539 1.1259
v 0.65091 0.86259 1.14876
v 0.6 1.05 1.18
v 0.65091 1.23741 1.21124
v 0.79 1.37461 1.2341
v 0.98 1.42483 1.24247
v 1.17 1.37461 1.2341
v 1.30909 1.23741 1.21124
v 1.23 1.2 0.28
v 1.19651 1.0767 0.25945
v 1.105 0.98644 0.24441
v 0.98 0.9534 0.2389
v 0.855 0.98644 0.24441
v 0.76349 1.0767 0.25945
v 0.73 1.2 0.28
v 0.76349 1.3233 0.30055
v 0.855 1.41356 0.31559
v 0.98 1.4466 0.3211
v 1.105 1.41356 0.31559
v 1.19651 1.3233 0.30055
v 0.98 1.05 1.18
v 0.98 1.2 0.28
v 0.98 -1.34 -0.02
v 0.98 -1.34 -0.02
v 0.98 -1.34 -0.02
v 0.98 -1.34 -0.02
v 0.98 -1.34 -0.02
v 0.98 -1.34 -0.02
v 0.98 -1.34 -0.02
v 0.98 -1.34 -0.02
v 0.98 -1.34 -0.02
v 0.98 -1.34 -0.02
v 1.17 -1.34 0.00412
v 1.13371 -1.20481 0.00412
v 1.03871 -1.12126 0.00412
v 0.92129 -1.12126 0.00412
v 0.82629 -1.20481 0.00412
v 0.79 -1.34 0.00412
v 0.82629 -1.47519 0.00412
v 0.92129 -1.55874 0.00412
v 1.03871 -1.55874 0.00412
v 1.13371 -1.47519 0.00412
v 1.30909 -1.34 0.07
v 1.24624 -1.10584 0.07
v 1.08169 -0.96113 0.07
v 0.87831 -0.96113 0.07
v 0.71376 -1.10584 0.07
v 0.65091 -1.34 0.07
v 0.71376 -1.57416 0.07
v 0.87831 -1.71887 0.07
v 1.08169 -1.71887 0.07
v 1.24624 -1.57416 0.07
v 1.36 -1.34 0.16
v 1.28743 -1.06962 0.16
v 1.09743 -0.90251 0.16
v 0.86257 -0.90251 0.16
v 0.67257 -1.06962 0.16
v 0.6 -1.34 0.16
v 0.67257 -1.61038 0.16
v 0.86257 -1.77749 0.16
v 1.09743 -1.77749 0.16
v 1.28743 -1.61038 0.16
v 1.30909 -1.34 0.25
v 1.24624 -1.10584 0.25
v 1.08169 -0.96113 0.25
v 0.87831 -0.96113 0.25
v 0.71376 -1.10584 0.25
v 0.65091 -1.34 0.25
v 0.71376 -1.57416 0.25
v 0.87831 -1.71887 0.25
v 1.08169 -1.71887 0.25
v 1.24624 -1.57416 0.25
v 1.17 -1.34 0.31588
v 1.13371 -1.20481 0.31588
v 1.03871 -1.12126 0.31588
v 0.92129 -1.12126 0.31588
v 0.82629 -1.20481 0.31588
v 0.79 -1.34 0.31588
v 0.82629 -1.47519 0.31588
v 0.92129 -1.55874 0.31588
v 1.03871 -1.55874 0.31588
v 1.13371 -1.47519 0.31588
v 0.98 -1.34 0.34
v 0.98 -1.34 0.34
v 0.98 -1.34 0.34
v 0.98 -1.34 0.34
v 0.98 -1.34 0.34
v 0.98 -1.34 0.34
v 0.98 -1.34 0.34
v 0.98 -1.34 0.34
v 0.98 -1.34 0.34
v 0.98 -1.34 0.34
v 0.98 1.28 -0.02
v 0.98 1.28 -0.02
v 0.98 1.28 -0.02
v 0.98 1.28 -0.02
v 0.98 1.28 -0.02
v 0.98 1.28 -0.02
v 0.98 1.28 -0.02
v 0.98 1.28 -0.02
v 0.98 1.28 -0.02
v 0.98 1.28 -0.02
v 1.18 1.28 0.00412
v 1.1418 1.42107 0.00412
v 1.0418 1.50825 0.00412
v 0.9182 1.50825 0.00412
v 0.8182 1.42107 0.00412
v 0.78 1.28 0.00412
v 0.8182 1.13893 0.00412
v 0.9182 1.05175 0.00412
v 1.0418 1.05175 0.00412
v 1.1418 1.13893 0.00412
v 1.32641 1.28 0.07
v 1.26025 1.52434 0.07
v 1.08705 1.67535 0.07
v 0.87295 1.67535 0.07
v 0.69975 1.52434 0.07
v 0.63359 1.28 0.07
v 0.69975 1.03566 0.07
v 0.87295 0.88465 0.07
v 1.08705 0.88465 0.07
v 1.26025 1.03566 0.07
v 1.38 1.28 0.16
v 1.30361 1.56214 0.16
v 1.10361 1.73651 0.16
v 0.85639 1.73651 0.16
v 0.65639 1.56214 0.16
v 0.58 1.28 0.16
v 0.65639 0.99786 0.16
v 0.85639 0.82349 0.16
v 1.10361 0.82349 0.16
v 1.30361 0.99786 0.16
v 1.32641 1.28 0.25
v 1.26025 1.52434 0.25
v 1.08705 1.67535 0.25
v 0.87295 1.67535 0.25
v 0.69975 1.52434 0.25
v 0.63359 1.28 0.25
v 0.69975 1.03566 0.25
v 0.87295 0.88465 0.25
v 1.08705 0.88465 0.25
v 1.26025 1.03566 0.25
v 1.18 1.28 0.31588
v 1.1418 1.42107 0.31588
v 1.0418 1.50825 0.31588
v 0.9182 1.50825 0.31588
v 0.8182 1.42107 0.31588
v 0.78 1.28 0.31588
v 0.8182 1.13893 0.31588
v 0.9182 1.05175 0.31588
v 1.0418 1.05175 0.31588
v 1.1418 1.13893 0.31588
v 0.98 1.28 0.34
v 0.98 1.28 0.34
v 0.98 1.28 0.34
v 0.98 1.28 0.34
v 0.98 1.28 0.34
v 0.98 1.28 0.34
v 0.98 1.28 0.34
v 0.98 1.28 0.34
v 0.98 1.28 0.34
v 0.98 1.28 0.34
v -0.65458 -2.47847 2.52
v -0.67084 -2.50895 2.43347
v -0.66812 -2.57723 2.37012
v -0.64715 -2.665 2.34693
v -0.61354 -2.74875 2.37012
v -0.57631 -2.80605 2.43347
v -0.54542 -2.82153 2.52
v -0.52916 -2.79105 2.60653
v -0.53188 -2.72277 2.66988
v -0.55285 -2.635 2.69307
v -0.58646 -2.55125 2.66988
v -0.62369 -2.49395 2.60653
v -1.7091 -2.97141 2.85
v -1.71181 -2.97649 2.83558
v -1.71135 -2.98787 2.82502
v -1.70786 -3.0025 2.82116
v -1.70226 -3.01646 2.82502
v -1.69605 -3.02601 2.83558
v -1.6909 -3.02859 2.85
v -1.68819 -3.02351 2.86442
v -1.68865 -3.01213 2.87498
v -1.69214 -2.9975 2.87884
v -1.69774 -2.98354 2.87498
v -1.70395 -2.97399 2.86442
v -0.6 -2.65 2.52
v -1.7 -3 2.85
v 0.54542 -2.82153 2.52
v 0.57631 -2.80605 2.43347
v 0.61354 -2.74875 2.37012
v 0.64715 -2.665 2.34693
v 0.66812 -2.57723 2.37012
v 0.67084 -2.50895 2.43347
v 0.65458 -2.47847 2.52
v 0.62369 -2.49395 2.60653
v 0.58646 -2.55125 2.66988
v 0.55285 -2.635 2.69307
v 0.53188 -2.72277 2.66988
v 0.52916 -2.79105 2.60653
v 1.6909 -3.02859 2.85
v 1.69605 -3.02601 2.83558
v 1.70226 -3.01646 2.82502
v 1.70786 -3.0025 2.82116
v 1.71135 -2.98787 2.82502
v 1.71181 -2.97649 2.83558
v 1.7091 -2.97141 2.85
v 1.70395 -2.97399 2.86442
v 1.69774 -2.98354 2.87498
v 1.69214 -2.9975 2.87884
v 1.68865 -3.01213 2.87498
v 1.68819 -3.02351 2.86442
v 0.6 -2.65 2.52
v 1.7 -3 2.85
v -0.6 -0.55 2.175
v -0.15 -0.75 2.355
v 0.18 -0.72 2.325
v 0.62 -0.45 2.175
v 0.2 -0.12 2.095
v -0.22 -0.1 2.075
v -0.6 -0.55 2.325
v -0.15 -0.75 2.505
v 0.18 -0.72 2.475
v 0.62 -0.45 2.325
v 0.2 -0.12 2.245
v -0.22 -0.1 2.225
v -0.6 -0.55 2.475
v -0.15 -0.75 2.655
v 0.18 -0.72 2.625
v 0.62 -0.45 2.475
v 0.2 -0.12 2.395
v -0.22 -0.1 2.375
v -0.6 -0.55 2.625
v -0.15 -0.75 2.805
v 0.18 -0.72 2.775
v 0.62 -0.45 2.625
v 0.2 -0.12 2.545
v -0.22 -0.1 2.525
v -0.6 -0.55 2.725
v -0.15 -0.75 2.905
v 0.18 -0.72 2.875
v 0.62 -0.45 2.725
v 0.2 -0.12 2.645
v -0.22 -0.1 2.625
v -0.6 -0.55 2.875
v -0.15 -0.75 3.055
v 0.18 -0.72 3.025
v 0.62 -0.45 2.875
v 0.2 -0.12 2.795
v -0.22 -0.1 2.775
v -0.36 -3.05 1.98
v -0.36 -3.05 1.98
v -0.36 -3.05 1.98
v -0.36 -3.05 1.98
v -0.36 -3.05 1.98
v -0.36 -3.05 1.98
v -0.36 -3.05 1.98
v -0.36 -3.05 1.98
v -0.36 -3.05 1.98
v -0.36 -3.05 1.98
v -0.305 -3.05 1.9934
v -0.3155 -3.03531 1.9934
v -0.343 -3.02622 1.9934
v -0.377 -3.02622 1.9934
v -0.4045 -3.03531 1.9934
v -0.415 -3.05 1.9934
v -0.4045 -3.06469 1.9934
v -0.377 -3.07378 1.9934
v -0.343 -3.07378 1.9934
v -0.3155 -3.06469 1.9934
v -0.26474 -3.05 2.03
v -0.28293 -3.02455 2.03
v -0.33056 -3.00882 2.03
v -0.38944 -3.00882 2.03
v -0.43707 -3.02455 2.03
v -0.45526 -3.05 2.03
v -0.43707 -3.07545 2.03
v -0.38944 -3.09118 2.03
v -0.33056 -3.09118 2.03
v -0.28293 -3.07545 2.03
v -0.25 -3.05 2.08
v -0.27101 -3.02061 2.08
v -0.32601 -3.00245 2.08
v -0.39399 -3.00245 2.08
v -0.44899 -3.02061 2.08
v -0.47 -3.05 2.08
v -0.44899 -3.07939 2.08
v -0.39399 -3.09755 2.08
v -0.32601 -3.09755 2.08
v -0.27101 -3.07939 2.08
v -0.26474 -3.05 2.13
v -0.28293 -3.02455 2.13
v -0.33056 -3.00882 2.13
v -0.38944 -3.00882 2.13
v -0.43707 -3.02455 2.13
v -0.45526 -3.05 2.13
v -0.43707 -3.07545 2.13
v -0.38944 -3.09118 2.13
v -0.33056 -3.09118 2.13
v -0.28293 -3.07545 2.13
v -0.305 -3.05 2.1666
v -0.3155 -3.03531 2.1666
v -0.343 -3.02622 2.1666
v -0.377 -3.02622 2.1666
v -0.4045 -3.03531 2.1666
v -0.415 -3.05 2.1666
v -0.4045 -3.06469 2.1666
v -0.377 -3.07378 2.1666
v -0.343 -3.07378 2.1666
v -0.3155 -3.06469 2.1666
v -0.36 -3.05 2.18
v -0.36 -3.05 2.18
v -0.36 -3.05 2.18
v -0.36 -3.05 2.18
v -0.36 -3.05 2.18
v -0.36 -3.05 2.18
v -0.36 -3.05 2.18
v -0.36 -3.05 2.18
v -0.36 -3.05 2.18
v -0.36 -3.05 2.18
v 0.36 -3.05 1.98
v 0.36 -3.05 1.98
v 0.36 -3.05 1.98
v 0.36 -3.05 1.98
v 0.36 -3.05 1.98
v 0.36 -3.05 1.98
v 0.36 -3.05 1.98
v 0.36 -3.05 1.98
v 0.36 -3.05 1.98
v 0.36 -3.05 1.98
v 0.415 -3.05 1.9934
v 0.4045 -3.03531 1.9934
v 0.377 -3.02622 1.9934
v 0.343 -3.02622 1.9934
v 0.3155 -3.03531 1.9934
v 0.305 -3.05 1.9934
v 0.3155 -3.06469 1.9934
v 0.343 -3.07378 1.9934
v 0.377 -3.07378 1.9934
v 0.4045 -3.06469 1.9934
v 0.45526 -3.05 2.03
v 0.43707 -3.02455 2.03
v 0.38944 -3.00882 2.03
v 0.33056 -3.00882 2.03
v 0.28293 -3.02455 2.03
v 0.26474 -3.05 2.03
v 0.28293 -3.07545 2.03
v 0.33056 -3.09118 2.03
v 0.38944 -3.09118 2.03
v 0.43707 -3.07545 2.03
v 0.47 -3.05 2.08
v 0.44899 -3.02061 2.08
v 0.39399 -3.00245 2.08
v 0.32601 -3.00245 2.08
v 0.27101 -3.02061 2.08
v 0.25 -3.05 2.08
v 0.27101 -3.07939 2.08
v 0.32601 -3.09755 2.08
v 0.39399 -3.09755 2.08
v 0.44899 -3.07939 2.08
v 0.45526 -3.05 2.13
v 0.43707 -3.02455 2.13
v 0.38944 -3.00882 2.13
v 0.33056 -3.00882 2.13
v 0.28293 -3.02455 2.13
v 0.26474 -3.05 2.13
v 0.28293 -3.07545 2.13
v 0.33056 -3.09118 2.13
v 0.38944 -3.09118 2.13
v 0.43707 -3.07545 2.13
v 0.415 -3.05 2.1666
v 0.4045 -3.03531 2.1666
v 0.377 -3.02622 2.1666
v 0.343 -3.02622 2.1666
v 0.3155 -3.03531 2.1666
v 0.305 -3.05 2.1666
v 0.3155 -3.06469 2.1666
v 0.343 -3.07378 2.1666
v 0.377 -3.07378 2.1666
v 0.4045 -3.06469 2.1666
v 0.36 -3.05 2.18
v 0.36 -3.05 2.18
v 0.36 -3.05 2.18
v 0.36 -3.05 2.18
v 0.36 -3.05 2.18
v 0.36 -3.05 2.18
v 0.36 -3.05 2.18
v 0.36 -3.05 2.18
v 0.36 -3.05 2.18
v 0.36 -3.05 2.18
g Body
usemtl BULL_BROWN
f 1 2 20 19
f 2 3 21 20
f 3 4 22 21
f 4 5 23 22
f 5 6 24 23
f 6 7 25 24
f 7 8 26 25
f 8 9 27 26
f 9 10 28 27
f 10 11 29 28
f 11 12 30 29
f 12 13 31 30
f 13 14 32 31
f 14 15 33 32
f 15 16 34 33
f 16 17 35 34
f 17 18 36 35
f 18 1 19 36
f 19 20 38 37
f 20 21 39 38
f 21 22 40 39
f 22 23 41 40
f 23 24 42 41
f 24 25 43 42
f 25 26 44 43
f 26 27 45 44
f 27 28 46 45
f 28 29 47 46
f 29 30 48 47
f 30 31 49 48
f 31 32 50 49
f 32 33 51 50
f 33 34 52 51
f 34 35 53 52
f 35 36 54 53
f 36 19 37 54
f 37 38 56 55
f 38 39 57 56
f 39 40 58 57
f 40 41 59 58
f 41 42 60 59
f 42 43 61 60
f 43 44 62 61
f 44 45 63 62
f 45 46 64 63
f 46 47 65 64
f 47 48 66 65
f 48 49 67 66
f 49 50 68 67
f 50 51 69 68
f 51 52 70 69
f 52 53 71 70
f 53 54 72 71
f 54 37 55 72
f 55 56 74 73
f 56 57 75 74
f 57 58 76 75
f 58 59 77 76
f 59 60 78 77
f 60 61 79 78
f 61 62 80 79
f 62 63 81 80
f 63 64 82 81
f 64 65 83 82
f 65 66 84 83
f 66 67 85 84
f 67 68 86 85
f 68 69 87 86
f 69 70 88 87
f 70 71 89 88
f 71 72 90 89
f 72 55 73 90
f 73 74 92 91
f 74 75 93 92
f 75 76 94 93
f 76 77 95 94
f 77 78 96 95
f 78 79 97 96
f 79 80 98 97
f 80 81 99 98
f 81 82 100 99
f 82 83 101 100
f 83 84 102 101
f 84 85 103 102
f 85 86 104 103
f 86 87 105 104
f 87 88 106 105
f 88 89 107 106
f 89 90 108 107
f 90 73 91 108
f 91 92 110 109
f 92 93 111 110
f 93 94 112 111
f 94 95 113 112
f 95 96 114 113
f 96 97 115 114
f 97 98 116 115
f 98 99 117 116
f 99 100 118 117
f 100 101 119 118
f 101 102 120 119
f 102 103 121 120
f 103 104 122 121
f 104 105 123 122
f 105 106 124 123
f 106 107 125 124
f 107 108 126 125
f 108 91 109 126
f 109 110 128 127
f 110 111 129 128
f 111 112 130 129
f 112 113 131 130
f 113 114 132 131
f 114 115 133 132
f 115 116 134 133
f 116 117 135 134
f 117 118 136 135
f 118 119 137 136
f 119 120 138 137
f 120 121 139 138
f 121 122 140 139
f 122 123 141 140
f 123 124 142 141
f 124 125 143 142
f 125 126 144 143
f 126 109 127 144
f 127 128 146 145
f 128 129 147 146
f 129 130 148 147
f 130 131 149 148
f 131 132 150 149
f 132 133 151 150
f 133 134 152 151
f 134 135 153 152
f 135 136 154 153
f 136 137 155 154
f 137 138 156 155
f 138 139 157 156
f 139 140 158 157
f 140 141 159 158
f 141 142 160 159
f 142 143 161 160
f 143 144 162 161
f 144 127 145 162
f 145 146 164 163
f 146 147 165 164
f 147 148 166 165
f 148 149 167 166
f 149 150 168 167
f 150 151 169 168
f 151 152 170 169
f 152 153 171 170
f 153 154 172 171
f 154 155 173 172
f 155 156 174 173
f 156 157 175 174
f 157 158 176 175
f 158 159 177 176
f 159 160 178 177
f 160 161 179 178
f 161 162 180 179
f 162 145 163 180
f 163 164 182 181
f 164 165 183 182
f 165 166 184 183
f 166 167 185 184
f 167 168 186 185
f 168 169 187 186
f 169 170 188 187
f 170 171 189 188
f 171 172 190 189
f 172 173 191 190
f 173 174 192 191
f 174 175 193 192
f 175 176 194 193
f 176 177 195 194
f 177 178 196 195
f 178 179 197 196
f 179 180 198 197
f 180 163 181 198
g Shoulder
usemtl BULL_DARK
f 199 200 216 215
f 200 201 217 216
f 201 202 218 217
f 202 203 219 218
f 203 204 220 219
f 204 205 221 220
f 205 206 222 221
f 206 207 223 222
f 207 208 224 223
f 208 209 225 224
f 209 210 226 225
f 210 211 227 226
f 211 212 228 227
f 212 213 229 228
f 213 214 230 229
f 214 199 215 230
f 215 216 232 231
f 216 217 233 232
f 217 218 234 233
f 218 219 235 234
f 219 220 236 235
f 220 221 237 236
f 221 222 238 237
f 222 223 239 238
f 223 224 240 239
f 224 225 241 240
f 225 226 242 241
f 226 227 243 242
f 227 228 244 243
f 228 229 245 244
f 229 230 246 245
f 230 215 231 246
f 231 232 248 247
f 232 233 249 248
f 233 234 250 249
f 234 235 251 250
f 235 236 252 251
f 236 237 253 252
f 237 238 254 253
f 238 239 255 254
f 239 240 256 255
f 240 241 257 256
f 241 242 258 257
f 242 243 259 258
f 243 244 260 259
f 244 245 261 260
f 245 246 262 261
f 246 231 247 262
f 247 248 264 263
f 248 249 265 264
f 249 250 266 265
f 250 251 267 266
f 251 252 268 267
f 252 253 269 268
f 253 254 270 269
f 254 255 271 270
f 255 256 272 271
f 256 257 273 272
f 257 258 274 273
f 258 259 275 274
f 259 260 276 275
f 260 261 277 276
f 261 262 278 277
f 262 247 263 278
f 263 264 280 279
f 264 265 281 280
f 265 266 282 281
f 266 267 283 282
f 267 268 284 283
f 268 269 285 284
f 269 270 286 285
f 270 271 287 286
f 271 272 288 287
f 272 273 289 288
f 273 274 290 289
f 274 275 291 290
f 275 276 292 291
f 276 277 293 292
f 277 278 294 293
f 278 263 279 294
f 279 280 296 295
f 280 281 297 296
f 281 282 298 297
f 282 283 299 298
f 283 284 300 299
f 284 285 301 300
f 285 286 302 301
f 286 287 303 302
f 287 288 304 303
f 288 289 305 304
f 289 290 306 305
f 290 291 307 306
f 291 292 308 307
f 292 293 309 308
f 293 294 310 309
f 294 279 295 310
f 295 296 312 311
f 296 297 313 312
f 297 298 314 313
f 298 299 315 314
f 299 300 316 315
f 300 301 317 316
f 301 302 318 317
f 302 303 319 318
f 303 304 320 319
f 304 305 321 320
f 305 306 322 321
f 306 307 323 322
f 307 308 324 323
f 308 309 325 324
f 309 310 326 325
f 310 295 311 326
f 311 312 328 327
f 312 313 329 328
f 313 314 330 329
f 314 315 331 330
f 315 316 332 331
f 316 317 333 332
f 317 318 334 333
f 318 319 335 334
f 319 320 336 335
f 320 321 337 336
f 321 322 338 337
f 322 323 339 338
f 323 324 340 339
f 324 325 341 340
f 325 326 342 341
f 326 311 327 342
f 327 328 344 343
f 328 329 345 344
f 329 330 346 345
f 330 331 347 346
f 331 332 348 347
f 332 333 349 348
f 333 334 350 349
f 334 335 351 350
f 335 336 352 351
f 336 337 353 352
f 337 338 354 353
f 338 339 355 354
f 339 340 356 355
f 340 341 357 356
f 341 342 358 357
f 342 327 343 358
g Head
usemtl ROCK_DARK
f 359 360 376 375
f 360 361 377 376
f 361 362 378 377
f 362 363 379 378
f 363 364 380 379
f 364 365 381 380
f 365 366 382 381
f 366 367 383 382
f 367 368 384 383
f 368 369 385 384
f 369 370 386 385
f 370 371 387 386
f 371 372 388 387
f 372 373 389 388
f 373 374 390 389
f 374 359 375 390
f 375 376 392 391
f 376 377 393 392
f 377 378 394 393
f 378 379 395 394
f 379 380 396 395
f 380 381 397 396
f 381 382 398 397
f 382 383 399 398
f 383 384 400 399
f 384 385 401 400
f 385 386 402 401
f 386 387 403 402
f 387 388 404 403
f 388 389 405 404
f 389 390 406 405
f 390 375 391 406
f 391 392 408 407
f 392 393 409 408
f 393 394 410 409
f 394 395 411 410
f 395 396 412 411
f 396 397 413 412
f 397 398 414 413
f 398 399 415 414
f 399 400 416 415
f 400 401 417 416
f 401 402 418 417
f 402 403 419 418
f 403 404 420 419
f 404 405 421 420
f 405 406 422 421
f 406 391 407 422
f 407 408 424 423
f 408 409 425 424
f 409 410 426 425
f 410 411 427 426
f 411 412 428 427
f 412 413 429 428
f 413 414 430 429
f 414 415 431 430
f 415 416 432 431
f 416 417 433 432
f 417 418 434 433
f 418 419 435 434
f 419 420 436 435
f 420 421 437 436
f 421 422 438 437
f 422 407 423 438
f 423 424 440 439
f 424 425 441 440
f 425 426 442 441
f 426 427 443 442
f 427 428 444 443
f 428 429 445 444
f 429 430 446 445
f 430 431 447 446
f 431 432 448 447
f 432 433 449 448
f 433 434 450 449
f 434 435 451 450
f 435 436 452 451
f 436 437 453 452
f 437 438 454 453
f 438 423 439 454
f 439 440 456 455
f 440 441 457 456
f 441 442 458 457
f 442 443 459 458
f 443 444 460 459
f 444 445 461 460
f 445 446 462 461
f 446 447 463 462
f 447 448 464 463
f 448 449 465 464
f 449 450 466 465
f 450 451 467 466
f 451 452 468 467
f 452 453 469 468
f 453 454 470 469
f 454 439 455 470
f 455 456 472 471
f 456 457 473 472
f 457 458 474 473
f 458 459 475 474
f 459 460 476 475
f 460 461 477 476
f 461 462 478 477
f 462 463 479 478
f 463 464 480 479
f 464 465 481 480
f 465 466 482 481
f 466 467 483 482
f 467 468 484 483
f 468 469 485 484
f 469 470 486 485
f 470 455 471 486
f 471 472 488 487
f 472 473 489 488
f 473 474 490 489
f 474 475 491 490
f 475 476 492 491
f 476 477 493 492
f 477 478 494 493
f 478 479 495 494
f 479 480 496 495
f 480 481 497 496
f 481 482 498 497
f 482 483 499 498
f 483 484 500 499
f 484 485 501 500
f 485 486 502 501
f 486 471 487 502
f 487 488 504 503
f 488 489 505 504
f 489 490 506 505
f 490 491 507 506
f 491 492 508 507
f 492 493 509 508
f 493 494 510 509
f 494 495 511 510
f 495 496 512 511
f 496 497 513 512
f 497 498 514 513
f 498 499 515 514
f 499 500 516 515
f 500 501 517 516
f 501 502 518 517
f 502 487 503 518
g Muzzle
usemtl BULL_MUZZLE
f 519 520 534 533
f 520 521 535 534
f 521 522 536 535
f 522 523 537 536
f 523 524 538 537
f 524 525 539 538
f 525 526 540 539
f 526 527 541 540
f 527 528 542 541
f 528 529 543 542
f 529 530 544 543
f 530 531 545 544
f 531 532 546 545
f 532 519 533 546
f 533 534 548 547
f 534 535 549 548
f 535 536 550 549
f 536 537 551 550
f 537 538 552 551
f 538 539 553 552
f 539 540 554 553
f 540 541 555 554
f 541 542 556 555
f 542 543 557 556
f 543 544 558 557
f 544 545 559 558
f 545 546 560 559
f 546 533 547 560
f 547 548 562 561
f 548 549 563 562
f 549 550 564 563
f 550 551 565 564
f 551 552 566 565
f 552 553 567 566
f 553 554 568 567
f 554 555 569 568
f 555 556 570 569
f 556 557 571 570
f 557 558 572 571
f 558 559 573 572
f 559 560 574 573
f 560 547 561 574
f 561 562 576 575
f 562 563 577 576
f 563 564 578 577
f 564 565 579 578
f 565 566 580 579
f 566 567 581 580
f 567 568 582 581
f 568 569 583 582
f 569 570 584 583
f 570 571 585 584
f 571 572 586 585
f 572 573 587 586
f 573 574 588 587
f 574 561 575 588
f 575 576 590 589
f 576 577 591 590
f 577 578 592 591
f 578 579 593 592
f 579 580 594 593
f 580 581 595 594
f 581 582 596 595
f 582 583 597 596
f 583 584 598 597
f 584 585 599 598
f 585 586 600 599
f 586 587 601 600
f 587 588 602 601
f 588 575 589 602
f 589 590 604 603
f 590 591 605 604
f 591 592 606 605
f 592 593 607 606
f 593 594 608 607
f 594 595 609 608
f 595 596 610 609
f 596 597 611 610
f 597 598 612 611
f 598 599 613 612
f 599 600 614 613
f 600 601 615 614
f 601 602 616 615
f 602 589 603 616
f 603 604 618 617
f 604 605 619 618
f 605 606 620 619
f 606 607 621 620
f 607 608 622 621
f 608 609 623 622
f 609 610 624 623
f 610 611 625 624
f 611 612 626 625
f 612 613 627 626
f 613 614 628 627
f 614 615 629 628
f 615 616 630 629
f 616 603 617 630
g FrontLeg-0.98
usemtl ROCK_DARK
f 631 632 644 643
f 632 633 645 644
f 633 634 646 645
f 634 635 647 646
f 635 636 648 647
f 636 637 649 648
f 637 638 650 649
f 638 639 651 650
f 639 640 652 651
f 640 641 653 652
f 641 642 654 653
f 642 631 643 654
f 655 632 631
f 656 643 644
f 655 633 632
f 656 644 645
f 655 634 633
f 656 645 646
f 655 635 634
f 656 646 647
f 655 636 635
f 656 647 648
f 655 637 636
f 656 648 649
f 655 638 637
f 656 649 650
f 655 639 638
f 656 650 651
f 655 640 639
f 656 651 652
f 655 641 640
f 656 652 653
f 655 642 641
f 656 653 654
f 655 631 642
f 656 654 643
g BackLeg-0.98
usemtl BULL_BROWN
f 657 658 670 669
f 658 659 671 670
f 659 660 672 671
f 660 661 673 672
f 661 662 674 673
f 662 663 675 674
f 663 664 676 675
f 664 665 677 676
f 665 666 678 677
f 666 667 679 678
f 667 668 680 679
f 668 657 669 680
f 681 658 657
f 682 669 670
f 681 659 658
f 682 670 671
f 681 660 659
f 682 671 672
f 681 661 660
f 682 672 673
f 681 662 661
f 682 673 674
f 681 663 662
f 682 674 675
f 681 664 663
f 682 675 676
f 681 665 664
f 682 676 677
f 681 666 665
f 682 677 678
f 681 667 666
f 682 678 679
f 681 668 667
f 682 679 680
f 681 657 668
f 682 680 669
g HoofF-0.98
usemtl ROCK_DARK
f 683 684 694 693
f 684 685 695 694
f 685 686 696 695
f 686 687 697 696
f 687 688 698 697
f 688 689 699 698
f 689 690 700 699
f 690 691 701 700
f 691 692 702 701
f 692 683 693 702
f 693 694 704 703
f 694 695 705 704
f 695 696 706 705
f 696 697 707 706
f 697 698 708 707
f 698 699 709 708
f 699 700 710 709
f 700 701 711 710
f 701 702 712 711
f 702 693 703 712
f 703 704 714 713
f 704 705 715 714
f 705 706 716 715
f 706 707 717 716
f 707 708 718 717
f 708 709 719 718
f 709 710 720 719
f 710 711 721 720
f 711 712 722 721
f 712 703 713 722
f 713 714 724 723
f 714 715 725 724
f 715 716 726 725
f 716 717 727 726
f 717 718 728 727
f 718 719 729 728
f 719 720 730 729
f 720 721 731 730
f 721 722 732 731
f 722 713 723 732
f 723 724 734 733
f 724 725 735 734
f 725 726 736 735
f 726 727 737 736
f 727 728 738 737
f 728 729 739 738
f 729 730 740 739
f 730 731 741 740
f 731 732 742 741
f 732 723 733 742
f 733 734 744 743
f 734 735 745 744
f 735 736 746 745
f 736 737 747 746
f 737 738 748 747
f 738 739 749 748
f 739 740 750 749
f 740 741 751 750
f 741 742 752 751
f 742 733 743 752
g HoofB-0.98
f 753 754 764 763
f 754 755 765 764
f 755 756 766 765
f 756 757 767 766
f 757 758 768 767
f 758 759 769 768
f 759 760 770 769
f 760 761 771 770
f 761 762 772 771
f 762 753 763 772
f 763 764 774 773
f 764 765 775 774
f 765 766 776 775
f 766 767 777 776
f 767 768 778 777
f 768 769 779 778
f 769 770 780 779
f 770 771 781 780
f 771 772 782 781
f 772 763 773 782
f 773 774 784 783
f 774 775 785 784
f 775 776 786 785
f 776 777 787 786
f 777 778 788 787
f 778 779 789 788
f 779 780 790 789
f 780 781 791 790
f 781 782 792 791
f 782 773 783 792
f 783 784 794 793
f 784 785 795 794
f 785 786 796 795
f 786 787 797 796
f 787 788 798 797
f 788 789 799 798
f 789 790 800 799
f 790 791 801 800
f 791 792 802 801
f 792 783 793 802
f 793 794 804 803
f 794 795 805 804
f 795 796 806 805
f 796 797 807 806
f 797 798 808 807
f 798 799 809 808
f 799 800 810 809
f 800 801 811 810
f 801 802 812 811
f 802 793 803 812
f 803 804 814 813
f 804 805 815 814
f 805 806 816 815
f 806 807 817 816
f 807 808 818 817
f 808 809 819 818
f 809 810 820 819
f 810 811 821 820
f 811 812 822 821
f 812 803 813 822
g FrontLeg0.98
f 823 824 836 835
f 824 825 837 836
f 825 826 838 837
f 826 827 839 838
f 827 828 840 839
f 828 829 841 840
f 829 830 842 841
f 830 831 843 842
f 831 832 844 843
f 832 833 845 844
f 833 834 846 845
f 834 823 835 846
f 847 824 823
f 848 835 836
f 847 825 824
f 848 836 837
f 847 826 825
f 848 837 838
f 847 827 826
f 848 838 839
f 847 828 827
f 848 839 840
f 847 829 828
f 848 840 841
f 847 830 829
f 848 841 842
f 847 831 830
f 848 842 843
f 847 832 831
f 848 843 844
f 847 833 832
f 848 844 845
f 847 834 833
f 848 845 846
f 847 823 834
f 848 846 835
g BackLeg0.98
usemtl BULL_BROWN
f 849 850 862 861
f 850 851 863 862
f 851 852 864 863
f 852 853 865 864
f 853 854 866 865
f 854 855 867 866
f 855 856 868 867
f 856 857 869 868
f 857 858 870 869
f 858 859 871 870
f 859 860 872 871
f 860 849 861 872
f 873 850 849
f 874 861 862
f 873 851 850
f 874 862 863
f 873 852 851
f 874 863 864
f 873 853 852
f 874 864 865
f 873 854 853
f 874 865 866
f 873 855 854
f 874 866 867
f 873 856 855
f 874 867 868
f 873 857 856
f 874 868 869
f 873 858 857
f 874 869 870
f 873 859 858
f 874 870 871
f 873 860 859
f 874 871 872
f 873 849 860
f 874 872 861
g HoofF0.98
usemtl ROCK_DARK
f 875 876 886 885
f 876 877 887 886
f 877 878 888 887
f 878 879 889 888
f 879 880 890 889
f 880 881 891 890
f 881 882 892 891
f 882 883 893 892
f 883 884 894 893
f 884 875 885 894
f 885 886 896 895
f 886 887 897 896
f 887 888 898 897
f 888 889 899 898
f 889 890 900 899
f 890 891 901 900
f 891 892 902 901
f 892 893 903 902
f 893 894 904 903
f 894 885 895 904
f 895 896 906 905
f 896 897 907 906
f 897 898 908 907
f 898 899 909 908
f 899 900 910 909
f 900 901 911 910
f 901 902 912 911
f 902 903 913 912
f 903 904 914 913
f 904 895 905 914
f 905 906 916 915
f 906 907 917 916
f 907 908 918 917
f 908 909 919 918
f 909 910 920 919
f 910 911 921 920
f 911 912 922 921
f 912 913 923 922
f 913 914 924 923
f 914 905 915 924
f 915 916 926 925
f 916 917 927 926
f 917 918 928 927
f 918 919 929 928
f 919 920 930 929
f 920 921 931 930
f 921 922 932 931
f 922 923 933 932
f 923 924 934 933
f 924 915 925 934
f 925 926 936 935
f 926 927 937 936
f 927 928 938 937
f 928 929 939 938
f 929 930 940 939
f 930 931 941 940
f 931 932 942 941
f 932 933 943 942
f 933 934 944 943
f 934 925 935 944
g HoofB0.98
f 945 946 956 955
f 946 947 957 956
f 947 948 958 957
f 948 949 959 958
f 949 950 960 959
f 950 951 961 960
f 951 952 962 961
f 952 953 963 962
f 953 954 964 963
f 954 945 955 964
f 955 956 966 965
f 956 957 967 966
f 957 958 968 967
f 958 959 969 968
f 959 960 970 969
f 960 961 971 970
f 961 962 972 971
f 962 963 973 972
f 963 964 974 973
f 964 955 965 974
f 965 966 976 975
f 966 967 977 976
f 967 968 978 977
f 968 969 979 978
f 969 970 980 979
f 970 971 981 980
f 971 972 982 981
f 972 973 983 982
f 973 974 984 983
f 974 965 975 984
f 975 976 986 985
f 976 977 987 986
f 977 978 988 987
f 978 979 989 988
f 979 980 990 989
f 980 981 991 990
f 981 982 992 991
f 982 983 993 992
f 983 984 994 993
f 984 975 985 994
f 985 986 996 995
f 986 987 997 996
f 987 988 998 997
f 988 989 999 998
f 989 990 1000 999
f 990 991 1001 1000
f 991 992 1002 1001
f 992 993 1003 1002
f 993 994 1004 1003
f 994 985 995 1004
f 995 996 1006 1005
f 996 997 1007 1006
f 997 998 1008 1007
f 998 999 1009 1008
f 999 1000 1010 1009
f 1000 1001 1011 1010
f 1001 1002 1012 1011
f 1002 1003 1013 1012
f 1003 1004 1014 1013
f 1004 995 1005 1014
g HornL
usemtl ROCK_LIGHT
f 1015 1016 1028 1027
f 1016 1017 1029 1028
f 1017 1018 1030 1029
f 1018 1019 1031 1030
f 1019 1020 1032 1031
f 1020 1021 1033 1032
f 1021 1022 1034 1033
f 1022 1023 1035 1034
f 1023 1024 1036 1035
f 1024 1025 1037 1036
f 1025 1026 1038 1037
f 1026 1015 1027 1038
f 1039 1016 1015
f 1040 1027 1028
f 1039 1017 1016
f 1040 1028 1029
f 1039 1018 1017
f 1040 1029 1030
f 1039 1019 1018
f 1040 1030 1031
f 1039 1020 1019
f 1040 1031 1032
f 1039 1021 1020
f 1040 1032 1033
f 1039 1022 1021
f 1040 1033 1034
f 1039 1023 1022
f 1040 1034 1035
f 1039 1024 1023
f 1040 1035 1036
f 1039 1025 1024
f 1040 1036 1037
f 1039 1026 1025
f 1040 1037 1038
f 1039 1015 1026
f 1040 1038 1027
g HornR
f 1041 1042 1054 1053
f 1042 1043 1055 1054
f 1043 1044 1056 1055
f 1044 1045 1057 1056
f 1045 1046 1058 1057
f 1046 1047 1059 1058
f 1047 1048 1060 1059
f 1048 1049 1061 1060
f 1049 1050 1062 1061
f 1050 1051 1063 1062
f 1051 1052 1064 1063
f 1052 1041 1053 1064
f 1065 1042 1041
f 1066 1053 1054
f 1065 1043 1042
f 1066 1054 1055
f 1065 1044 1043
f 1066 1055 1056
f 1065 1045 1044
f 1066 1056 1057
f 1065 1046 1045
f 1066 1057 1058
f 1065 1047 1046
f 1066 1058 1059
f 1065 1048 1047
f 1066 1059 1060
f 1065 1049 1048
f 1066 1060 1061
f 1065 1050 1049
f 1066 1061 1062
f 1065 1051 1050
f 1066 1062 1063
f 1065 1052 1051
f 1066 1063 1064
f 1065 1041 1052
f 1066 1064 1053
g RockPlate2.25
f 1067 1068 1074 1073
f 1068 1069 1075 1074
f 1069 1070 1076 1075
f 1070 1071 1077 1076
f 1071 1072 1078 1077
f 1072 1067 1073 1078
f 1072 1071 1070 1069 1068 1067
f 1073 1074 1075 1076 1077 1078
g RockPlate2.55
f 1079 1080 1086 1085
f 1080 1081 1087 1086
f 1081 1082 1088 1087
f 1082 1083 1089 1088
f 1083 1084 1090 1089
f 1084 1079 1085 1090
f 1084 1083 1082 1081 1080 1079
f 1085 1086 1087 1088 1089 1090
g RockPlate2.8
f 1091 1092 1098 1097
f 1092 1093 1099 1098
f 1093 1094 1100 1099
f 1094 1095 1101 1100
f 1095 1096 1102 1101
f 1096 1091 1097 1102
f 1096 1095 1094 1093 1092 1091
f 1097 1098 1099 1100 1101 1102
g EyeL
usemtl BULL_EYE
f 1103 1104 1114 1113
f 1104 1105 1115 1114
f 1105 1106 1116 1115
f 1106 1107 1117 1116
f 1107 1108 1118 1117
f 1108 1109 1119 1118
f 1109 1110 1120 1119
f 1110 1111 1121 1120
f 1111 1112 1122 1121
f 1112 1103 1113 1122
f 1113 1114 1124 1123
f 1114 1115 1125 1124
f 1115 1116 1126 1125
f 1116 1117 1127 1126
f 1117 1118 1128 1127
f 1118 1119 1129 1128
f 1119 1120 1130 1129
f 1120 1121 1131 1130
f 1121 1122 1132 1131
f 1122 1113 1123 1132
f 1123 1124 1134 1133
f 1124 1125 1135 1134
f 1125 1126 1136 1135
f 1126 1127 1137 1136
f 1127 1128 1138 1137
f 1128 1129 1139 1138
f 1129 1130 1140 1139
f 1130 1131 1141 1140
f 1131 1132 1142 1141
f 1132 1123 1133 1142
f 1133 1134 1144 1143
f 1134 1135 1145 1144
f 1135 1136 1146 1145
f 1136 1137 1147 1146
f 1137 1138 1148 1147
f 1138 1139 1149 1148
f 1139 1140 1150 1149
f 1140 1141 1151 1150
f 1141 1142 1152 1151
f 1142 1133 1143 1152
f 1143 1144 1154 1153
f 1144 1145 1155 1154
f 1145 1146 1156 1155
f 1146 1147 1157 1156
f 1147 1148 1158 1157
f 1148 1149 1159 1158
f 1149 1150 1160 1159
f 1150 1151 1161 1160
f 1151 1152 1162 1161
f 1152 1143 1153 1162
f 1153 1154 1164 1163
f 1154 1155 1165 1164
f 1155 1156 1166 1165
f 1156 1157 1167 1166
f 1157 1158 1168 1167
f 1158 1159 1169 1168
f 1159 1160 1170 1169
f 1160 1161 1171 1170
f 1161 1162 1172 1171
f 1162 1153 1163 1172
g EyeR
f 1173 1174 1184 1183
f 1174 1175 1185 1184
f 1175 1176 1186 1185
f 1176 1177 1187 1186
f 1177 1178 1188 1187
f 1178 1179 1189 1188
f 1179 1180 1190 1189
f 1180 1181 1191 1190
f 1181 1182 1192 1191
f 1182 1173 1183 1192
f 1183 1184 1194 1193
f 1184 1185 1195 1194
f 1185 1186 1196 1195
f 1186 1187 1197 1196
f 1187 1188 1198 1197
f 1188 1189 1199 1198
f 1189 1190 1200 1199
f 1190 1191 1201 1200
f 1191 1192 1202 1201
f 1192 1183 1193 1202
f 1193 1194 1204 1203
f 1194 1195 1205 1204
f 1195 1196 1206 1205
f 1196 1197 1207 1206
f 1197 1198 1208 1207
f 1198 1199 1209 1208
f 1199 1200 1210 1209
f 1200 1201 1211 1210
f 1201 1202 1212 1211
f 1202 1193 1203 1212
f 1203 1204 1214 1213
f 1204 1205 1215 1214
f 1205 1206 1216 1215
f 1206 1207 1217 1216
f 1207 1208 1218 1217
f 1208 1209 1219 1218
f 1209 1210 1220 1219
f 1210 1211 1221 1220
f 1211 1212 1222 1221
f 1212 1203 1213 1222
f 1213 1214 1224 1223
f 1214 1215 1225 1224
f 1215 1216 1226 1225
f 1216 1217 1227 1226
f 1217 1218 1228 1227
f 1218 1219 1229 1228
f 1219 1220 1230 1229
f 1220 1221 1231 1230
f 1221 1222 1232 1231
f 1222 1213 1223 1232
f 1223 1224 1234 1233
f 1224 1225 1235 1234
f 1225 1226 1236 1235
f 1226 1227 1237 1236
f 1227 1228 1238 1237
f 1228 1229 1239 1238
f 1229 1230 1240 1239
f 1230 1231 1241 1240
f 1231 1232 1242 1241
f 1232 1223 1233 1242
