# hospital_02_surgery_note - project-original horror lore prop
mtllib horror-lore.mtl
o hospital_02_surgery_note
v -1.45 -1.75 0.04
v 1.45 -1.75 0.04
v 1.45 1.75 0.04
v -1.45 1.75 0.04
v -1.45 -1.75 0.2
v 1.45 -1.75 0.2
v 1.45 1.75 0.2
v -1.45 1.75 0.2
v -1.475 -1.78 0.11
v 1.475 -1.78 0.11
v 1.475 -1.66 0.11
v -1.475 -1.66 0.11
v -1.475 -1.78 0.41
v 1.475 -1.78 0.41
v 1.475 -1.66 0.41
v -1.475 -1.66 0.41
v -1.475 1.66 0.11
v 1.475 1.66 0.11
v 1.475 1.78 0.11
v -1.475 1.78 0.11
v -1.475 1.66 0.41
v 1.475 1.66 0.41
v 1.475 1.78 0.41
v -1.475 1.78 0.41
v -1.48 -1.675 0.11
v -1.36 -1.675 0.11
v -1.36 1.675 0.11
v -1.48 1.675 0.11
v -1.48 -1.675 0.41
v -1.36 -1.675 0.41
v -1.36 1.675 0.41
v -1.48 1.675 0.41
v 1.36 -1.675 0.11
v 1.48 -1.675 0.11
v 1.48 1.675 0.11
v 1.36 1.675 0.11
v 1.36 -1.675 0.41
v 1.48 -1.675 0.41
v 1.48 1.675 0.41
v 1.36 1.675 0.41
v -1.08 -1.28 0.335
v 1 -1.26 0.335
v 1.12 -0.72 0.355
v 0.98 -0.18 0.345
v 1.1 0.32 0.355
v 0.92 1.28 0.335
v -1.06 1.26 0.335
v -1.14 0.52 0.345
v -1.03 -0.28 0.345
v -1.08 -1.28 0.425
v 1 -1.26 0.425
v 1.12 -0.72 0.445
v 0.98 -0.18 0.435
v 1.1 0.32 0.445
v 0.92 1.28 0.425
v -1.06 1.26 0.425
v -1.14 0.52 0.435
v -1.03 -0.28 0.435
v -0.625 -0.97 0.4675
v 0.625 -0.97 0.4675
v 0.625 -0.79 0.4675
v -0.625 -0.79 0.4675
v -0.625 -0.97 0.4925
v 0.625 -0.97 0.4925
v 0.625 -0.79 0.4925
v -0.625 -0.79 0.4925
v -0.87 -0.5175 0.471
v 0.63 -0.5175 0.471
v 0.63 -0.4825 0.471
v -0.87 -0.4825 0.471
v -0.87 -0.5175 0.489
v 0.63 -0.5175 0.489
v 0.63 -0.4825 0.489
v -0.87 -0.4825 0.489
v -0.87 -0.2375 0.471
v 0.63 -0.2375 0.471
v 0.63 -0.2025 0.471
v -0.87 -0.2025 0.471
v -0.87 -0.2375 0.489
v 0.63 -0.2375 0.489
v 0.63 -0.2025 0.489
v -0.87 -0.2025 0.489
v -0.87 0.0425 0.471
v 0.63 0.0425 0.471
v 0.63 0.0775 0.471
v -0.87 0.0775 0.471
v -0.87 0.0425 0.489
v 0.63 0.0425 0.489
v 0.63 0.0775 0.489
v -0.87 0.0775 0.489
v -0.87 0.3225 0.471
v 0.63 0.3225 0.471
v 0.63 0.3575 0.471
v -0.87 0.3575 0.471
v -0.87 0.3225 0.489
v 0.63 0.3225 0.489
v 0.63 0.3575 0.489
v -0.87 0.3575 0.489
v -0.87 0.6025 0.471
v 0.63 0.6025 0.471
v 0.63 0.6375 0.471
v -0.87 0.6375 0.471
v -0.87 0.6025 0.489
v 0.63 0.6025 0.489
v 0.63 0.6375 0.489
v -0.87 0.6375 0.489
v 0.72 0.62 0.47
v 0.72 0.62 0.47
v 0.72 0.62 0.47
v 0.72 0.62 0.47
v 0.72 0.62 0.47
v 0.72 0.62 0.47
v 0.72 0.62 0.47
v 0.72 0.62 0.47
v 0.72 0.62 0.47
v 0.72 0.62 0.47
v 0.72 0.62 0.47
v 0.72 0.62 0.47
v 0.84931 0.62 0.47382
v 0.83199 0.66408 0.47382
v 0.78466 0.69636 0.47382
v 0.72 0.70817 0.47382
v 0.65534 0.69636 0.47382
v 0.60801 0.66408 0.47382
v 0.59069 0.62 0.47382
v 0.60801 0.57592 0.47382
v 0.65534 0.54364 0.47382
v 0.72 0.53183 0.47382
v 0.78466 0.54364 0.47382
v 0.83199 0.57592 0.47382
v 0.92923 0.62 0.48382
v 0.9012 0.69133 0.48382
v 0.82462 0.74355 0.48382
v 0.72 0.76266 0.48382
v 0.61538 0.74355 0.48382
v 0.5388 0.69133 0.48382
v 0.51077 0.62 0.48382
v 0.5388 0.54867 0.48382
v 0.61538 0.49645 0.48382
v 0.72 0.47734 0.48382
v 0.82462 0.49645 0.48382
v 0.9012 0.54867 0.48382
v 0.92923 0.62 0.49618
v 0.9012 0.69133 0.49618
v 0.82462 0.74355 0.49618
v 0.72 0.76266 0.49618
v 0.61538 0.74355 0.49618
v 0.5388 0.69133 0.49618
v 0.51077 0.62 0.49618
v 0.5388 0.54867 0.49618
v 0.61538 0.49645 0.49618
v 0.72 0.47734 0.49618
v 0.82462 0.49645 0.49618
v 0.9012 0.54867 0.49618
v 0.84931 0.62 0.50618
v 0.83199 0.66408 0.50618
v 0.78466 0.69636 0.50618
v 0.72 0.70817 0.50618
v 0.65534 0.69636 0.50618
v 0.60801 0.66408 0.50618
v 0.59069 0.62 0.50618
v 0.60801 0.57592 0.50618
v 0.65534 0.54364 0.50618
v 0.72 0.53183 0.50618
v 0.78466 0.54364 0.50618
v 0.83199 0.57592 0.50618
v 0.72 0.62 0.51
v 0.72 0.62 0.51
v 0.72 0.62 0.51
v 0.72 0.62 0.51
v 0.72 0.62 0.51
v 0.72 0.62 0.51
v 0.72 0.62 0.51
v 0.72 0.62 0.51
v 0.72 0.62 0.51
v 0.72 0.62 0.51
v 0.72 0.62 0.51
v 0.72 0.62 0.51
v 0.55 0.95 0.472
v 0.55 0.95 0.472
v 0.55 0.95 0.472
v 0.55 0.95 0.472
v 0.55 0.95 0.472
v 0.55 0.95 0.472
v 0.55 0.95 0.472
v 0.55 0.95 0.472
v 0.55 0.95 0.472
v 0.55 0.95 0.472
v 0.62071 0.95 0.47727
v 0.60721 0.97909 0.47727
v 0.57185 0.99707 0.47727
v 0.52815 0.99707 0.47727
v 0.49279 0.97909 0.47727
v 0.47929 0.95 0.47727
v 0.49279 0.92091 0.47727
v 0.52815 0.90293 0.47727
v 0.57185 0.90293 0.47727
v 0.60721 0.92091 0.47727
v 0.65 0.95 0.49
v 0.6309 0.99114 0.49
v 0.5809 1.01657 0.49
v 0.5191 1.01657 0.49
v 0.4691 0.99114 0.49
v 0.45 0.95 0.49
v 0.4691 0.90886 0.49
v 0.5191 0.88343 0.49
v 0.5809 0.88343 0.49
v 0.6309 0.90886 0.49
v 0.62071 0.95 0.50273
v 0.60721 0.97909 0.50273
v 0.57185 0.99707 0.50273
v 0.52815 0.99707 0.50273
v 0.49279 0.97909 0.50273
v 0.47929 0.95 0.50273
v 0.49279 0.92091 0.50273
v 0.52815 0.90293 0.50273
v 0.57185 0.90293 0.50273
v 0.60721 0.92091 0.50273
v 0.55 0.95 0.508
v 0.55 0.95 0.508
v 0.55 0.95 0.508
v 0.55 0.95 0.508
v 0.55 0.95 0.508
v 0.55 0.95 0.508
v 0.55 0.95 0.508
v 0.55 0.95 0.508
v 0.55 0.95 0.508
v 0.55 0.95 0.508
v -0.89009 0.91576 0.55
v -0.89198 0.92803 0.51179
v -0.89694 0.96015 0.48818
v -0.90306 0.99985 0.48818
v -0.90802 1.03197 0.51179
v -0.90991 1.04424 0.55
v -0.90802 1.03197 0.58821
v -0.90306 0.99985 0.61182
v -0.89694 0.96015 0.61182
v -0.89198 0.92803 0.58821
v 0.72839 1.17564 0.55
v 0.72679 1.18602 0.51767
v 0.72259 1.2132 0.49769
v 0.71741 1.2468 0.49769
v 0.71321 1.27398 0.51767
v 0.71161 1.28436 0.55
v 0.71321 1.27398 0.58233
v 0.71741 1.2468 0.60231
v 0.72259 1.2132 0.60231
v 0.72679 1.18602 0.58233
v 0.72816 1.17561 0.55
v 0.72625 1.18833 0.51465
v 0.72142 1.22056 0.49584
v 0.71592 1.2572 0.50237
v 0.71233 1.28111 0.53119
v 0.71233 1.28111 0.56881
v 0.71592 1.2572 0.59763
v 0.72142 1.22056 0.60416
v 0.72625 1.18833 0.58535
v 0.92223 1.24517 0.55
v 0.9217 1.24864 0.54036
v 0.92039 1.25742 0.53523
v 0.91889 1.26742 0.53701
v 0.91791 1.27394 0.54487
v 0.91791 1.27394 0.55513
v 0.91889 1.26742 0.56299
v 0.92039 1.25742 0.56477
v 0.9217 1.24864 0.55964
g SteelTray
usemtl SURGICAL_STEEL
f 1 2 3 4
f 5 8 7 6
f 1 5 6 2
f 2 6 7 3
f 3 7 8 4
f 5 1 4 8
g TrayLipTop
usemtl SURGICAL_STEEL_DARK
f 9 10 11 12
f 13 16 15 14
f 9 13 14 10
f 10 14 15 11
f 11 15 16 12
f 13 9 12 16
g TrayLipBottom
f 17 18 19 20
f 21 24 23 22
f 17 21 22 18
f 18 22 23 19
f 19 23 24 20
f 21 17 20 24
g TrayLipL
f 25 26 27 28
f 29 32 31 30
f 25 29 30 26
f 26 30 31 27
f 27 31 32 28
f 29 25 28 32
g TrayLipR
f 33 34 35 36
f 37 40 39 38
f 33 37 38 34
f 34 38 39 35
f 35 39 40 36
f 37 33 36 40
g NotePaper
usemtl PAPER_HOSPITAL
f 41 42 51 50
f 42 43 52 51
f 43 44 53 52
f 44 45 54 53
f 45 46 55 54
f 46 47 56 55
f 47 48 57 56
f 48 49 58 57
f 49 41 50 58
f 49 48 47 46 45 44 43 42 41
f 50 51 52 53 54 55 56 57 58
g Header
usemtl INK_BLUE
f 59 60 61 62
f 63 66 65 64
f 59 63 64 60
f 60 64 65 61
f 61 65 66 62
f 63 59 62 66
g NoteLine0
usemtl INK_FADED
f 67 68 69 70
f 71 74 73 72
f 67 71 72 68
f 68 72 73 69
f 69 73 74 70
f 71 67 70 74
g NoteLine1
f 75 76 77 78
f 79 82 81 80
f 75 79 80 76
f 76 80 81 77
f 77 81 82 78
f 79 75 78 82
g NoteLine2
f 83 84 85 86
f 87 90 89 88
f 83 87 88 84
f 84 88 89 85
f 85 89 90 86
f 87 83 86 90
g NoteLine3
f 91 92 93 94
f 95 98 97 96
f 91 95 96 92
f 92 96 97 93
f 93 97 98 94
f 95 91 94 98
g NoteLine4
usemtl INK_RED
f 99 100 101 102
f 103 106 105 104
f 99 103 104 100
f 100 104 105 101
f 101 105 106 102
f 103 99 102 106
g BloodDropA
usemtl STAIN_RED
f 107 108 120 119
f 108 109 121 120
f 109 110 122 121
f 110 111 123 122
f 111 112 124 123
f 112 113 125 124
f 113 114 126 125
f 114 115 127 126
f 115 116 128 127
f 116 117 129 128
f 117 118 130 129
f 118 107 119 130
f 119 120 132 131
f 120 121 133 132
f 121 122 134 133
f 122 123 135 134
f 123 124 136 135
f 124 125 137 136
f 125 126 138 137
f 126 127 139 138
f 127 128 140 139
f 128 129 141 140
f 129 130 142 141
f 130 119 131 142
f 131 132 144 143
f 132 133 145 144
f 133 134 146 145
f 134 135 147 146
f 135 136 148 147
f 136 137 149 148
f 137 138 150 149
f 138 139 151 150
f 139 140 152 151
f 140 141 153 152
f 141 142 154 153
f 142 131 143 154
f 143 144 156 155
f 144 145 157 156
f 145 146 158 157
f 146 147 159 158
f 147 148 160 159
f 148 149 161 160
f 149 150 162 161
f 150 151 163 162
f 151 152 164 163
f 152 153 165 164
f 153 154 166 165
f 154 143 155 166
f 155 156 168 167
f 156 157 169 168
f 157 158 170 169
f 158 159 171 170
f 159 160 172 171
f 160 161 173 172
f 161 162 174 173
f 162 163 175 174
f 163 164 176 175
f 164 165 177 176
f 165 166 178 177
f 166 155 167 178
g BloodDropB
f 179 180 190 189
f 180 181 191 190
f 181 182 192 191
f 182 183 193 192
f 183 184 194 193
f 184 185 195 194
f 185 186 196 195
f 186 187 197 196
f 187 188 198 197
f 188 179 189 198
f 189 190 200 199
f 190 191 201 200
f 191 192 202 201
f 192 193 203 202
f 193 194 204 203
f 194 195 205 204
f 195 196 206 205
f 196 197 207 206
f 197 198 208 207
f 198 189 199 208
f 199 200 210 209
f 200 201 211 210
f 201 202 212 211
f 202 203 213 212
f 203 204 214 213
f 204 205 215 214
f 205 206 216 215
f 206 207 217 216
f 207 208 218 217
f 208 199 209 218
f 209 210 220 219
f 210 211 221 220
f 211 212 222 221
f 212 213 223 222
f 213 214 224 223
f 214 215 225 224
f 215 216 226 225
f 216 217 227 226
f 217 218 228 227
f 218 209 219 228
g Pen
usemtl PEN_BLUE
f 229 230 240 239
f 230 231 241 240
f 231 232 242 241
f 232 233 243 242
f 233 234 244 243
f 234 235 245 244
f 235 236 246 245
f 236 237 247 246
f 237 238 248 247
f 238 229 239 248
g PenTip
usemtl CLIP_METAL
f 249 250 259 258
f 250 251 260 259
f 251 252 261 260
f 252 253 262 261
f 253 254 263 262
f 254 255 264 263
f 255 256 265 264
f 256 257 266 265
f 257 249 258 266
