# hospital_01_discharge_record - project-original horror lore prop
mtllib horror-lore.mtl
o hospital_01_discharge_record
v -1.225 -1.575 0.08
v 1.225 -1.575 0.08
v 1.225 1.575 0.08
v -1.225 1.575 0.08
v -1.225 -1.575 0.28
v 1.225 -1.575 0.28
v 1.225 1.575 0.28
v -1.225 1.575 0.28
v -1.06 -1.43 0.28
v 1.06 -1.43 0.28
v 1.06 1.33 0.28
v -1.06 1.33 0.28
v -1.06 -1.43 0.38
v 1.06 -1.43 0.38
v 1.06 1.33 0.38
v -1.06 1.33 0.38
v -0.41 -1.53 0.395
v 0.41 -1.53 0.395
v 0.41 -1.19 0.395
v -0.41 -1.19 0.395
v -0.41 -1.53 0.565
v 0.41 -1.53 0.565
v 0.41 -1.19 0.565
v -0.41 -1.19 0.565
v -0.525 -1.26 0.43
v 0.525 -1.26 0.43
v 0.525 -1.1 0.43
v -0.525 -1.1 0.43
v -0.525 -1.26 0.55
v 0.525 -1.26 0.55
v 0.525 -1.1 0.55
v -0.525 -1.1 0.55
v -0.855 -0.7975 0.3875
v 0.695 -0.7975 0.3875
v 0.695 -0.7625 0.3875
v -0.855 -0.7625 0.3875
v -0.855 -0.7975 0.4125
v 0.695 -0.7975 0.4125
v 0.695 -0.7625 0.4125
v -0.855 -0.7625 0.4125
v -0.855 -0.5175 0.3875
v 0.695 -0.5175 0.3875
v 0.695 -0.4825 0.3875
v -0.855 -0.4825 0.3875
v -0.855 -0.5175 0.4125
v 0.695 -0.5175 0.4125
v 0.695 -0.4825 0.4125
v -0.855 -0.4825 0.4125
v -0.855 -0.2375 0.3875
v 0.695 -0.2375 0.3875
v 0.695 -0.2025 0.3875
v -0.855 -0.2025 0.3875
v -0.855 -0.2375 0.4125
v 0.695 -0.2375 0.4125
v 0.695 -0.2025 0.4125
v -0.855 -0.2025 0.4125
v -0.855 0.0425 0.3875
v 0.695 0.0425 0.3875
v 0.695 0.0775 0.3875
v -0.855 0.0775 0.3875
v -0.855 0.0425 0.4125
v 0.695 0.0425 0.4125
v 0.695 0.0775 0.4125
v -0.855 0.0775 0.4125
v -0.855 0.3225 0.3875
v 0.695 0.3225 0.3875
v 0.695 0.3575 0.3875
v -0.855 0.3575 0.3875
v -0.855 0.3225 0.4125
v 0.695 0.3225 0.4125
v 0.695 0.3575 0.4125
v -0.855 0.3575 0.4125
v -0.855 0.6025 0.3875
v 0.695 0.6025 0.3875
v 0.695 0.6375 0.3875
v -0.855 0.6375 0.3875
v -0.855 0.6025 0.4125
v 0.695 0.6025 0.4125
v 0.695 0.6375 0.4125
v -0.855 0.6375 0.4125
v 0.17 0.7 0.4
v 0.87 0.7 0.4
v 0.87 1.02 0.4
v 0.17 1.02 0.4
v 0.17 0.7 0.44
v 0.87 0.7 0.44
v 0.87 1.02 0.44
v 0.17 1.02 0.44
g Clipboard
usemtl CLIPBOARD_WOOD
f 1 2 3 4
f 5 8 7 6
f 1 5 6 2
f 2 6 7 3
f 3 7 8 4
f 5 1 4 8
g Paper
usemtl PAPER_HOSPITAL
f 9 10 11 12
f 13 16 15 14
f 9 13 14 10
f 10 14 15 11
f 11 15 16 12
f 13 9 12 16
g MetalClip
usemtl CLIP_METAL
f 17 18 19 20
f 21 24 23 22
f 17 21 22 18
f 18 22 23 19
f 19 23 24 20
f 21 17 20 24
g ClipJaw
f 25 26 27 28
f 29 32 31 30
f 25 29 30 26
f 26 30 31 27
f 27 31 32 28
f 29 25 28 32
g RecordLine0
usemtl INK_BLUE
f 33 34 35 36
f 37 40 39 38
f 33 37 38 34
f 34 38 39 35
f 35 39 40 36
f 37 33 36 40
g RecordLine1
f 41 42 43 44
f 45 48 47 46
f 41 45 46 42
f 42 46 47 43
f 43 47 48 44
f 45 41 44 48
g RecordLine2
f 49 50 51 52
f 53 56 55 54
f 49 53 54 50
f 50 54 55 51
f 51 55 56 52
f 53 49 52 56
g RecordLine3
f 57 58 59 60
f 61 64 63 62
f 57 61 62 58
f 58 62 63 59
f 59 63 64 60
f 61 57 60 64
g RecordLine4
f 65 66 67 68
f 69 72 71 70
f 65 69 70 66
f 66 70 71 67
f 67 71 72 68
f 69 65 68 72
g RecordLine5
usemtl INK_RED
f 73 74 75 76
f 77 80 79 78
f 73 77 78 74
f 74 78 79 75
f 75 79 80 76
f 77 73 76 80
g DateStamp
usemtl STAMP_RED
f 81 82 83 84
f 85 88 87 86
f 81 85 86 82
f 82 86 87 83
f 83 87 88 84
f 85 81 84 88
