# hospital_03_morgue_tag - project-original horror lore prop
mtllib horror-lore.mtl
o hospital_03_morgue_tag
v -1.12 -1.55 0.14
v 0.82 -1.55 0.14
v 1.12 -1.22 0.14
v 1.12 1.52 0.14
v -1.12 1.52 0.14
v -1.12 -1.55 0.3
v 0.82 -1.55 0.3
v 1.12 -1.22 0.3
v 1.12 1.52 0.3
v -1.12 1.52 0.3
v 0 -1.18 0.25
v 0 -1.18 0.25
v 0 -1.18 0.25
v 0 -1.18 0.25
v 0 -1.18 0.25
v 0 -1.18 0.25
v 0 -1.18 0.25
v 0 -1.18 0.25
v 0 -1.18 0.25
v 0 -1.18 0.25
v 0 -1.18 0.25
v 0 -1.18 0.25
v 0 -1.18 0.25
v 0 -1.18 0.25
v 0.1 -1.18 0.26206
v 0.0901 -1.13661 0.26206
v 0.06235 -1.10182 0.26206
v 0.02225 -1.08251 0.26206
v -0.02225 -1.08251 0.26206
v -0.06235 -1.10182 0.26206
v -0.0901 -1.13661 0.26206
v -0.1 -1.18 0.26206
v -0.0901 -1.22339 0.26206
v -0.06235 -1.25818 0.26206
v -0.02225 -1.27749 0.26206
v 0.02225 -1.27749 0.26206
v 0.06235 -1.25818 0.26206
v 0.0901 -1.22339 0.26206
v 0.17321 -1.18 0.295
v 0.15605 -1.10485 0.295
v 0.10799 -1.04458 0.295
v 0.03854 -1.01114 0.295
v -0.03854 -1.01114 0.295
v -0.10799 -1.04458 0.295
v -0.15605 -1.10485 0.295
v -0.17321 -1.18 0.295
v -0.15605 -1.25515 0.295
v -0.10799 -1.31542 0.295
v -0.03854 -1.34886 0.295
v 0.03854 -1.34886 0.295
v 0.10799 -1.31542 0.295
v 0.15605 -1.25515 0.295
v 0.2 -1.18 0.34
v 0.18019 -1.09322 0.34
v 0.1247 -1.02363 0.34
v 0.0445 -0.98501 0.34
v -0.0445 -0.98501 0.34
v -0.1247 -1.02363 0.34
v -0.18019 -1.09322 0.34
v -0.2 -1.18 0.34
v -0.18019 -1.26678 0.34
v -0.1247 -1.33637 0.34
v -0.0445 -1.37499 0.34
v 0.0445 -1.37499 0.34
v 0.1247 -1.33637 0.34
v 0.18019 -1.26678 0.34
v 0.17321 -1.18 0.385
v 0.15605 -1.10485 0.385
v 0.10799 -1.04458 0.385
v 0.03854 -1.01114 0.385
v -0.03854 -1.01114 0.385
v -0.10799 -1.04458 0.385
v -0.15605 -1.10485 0.385
v -0.17321 -1.18 0.385
v -0.15605 -1.25515 0.385
v -0.10799 -1.31542 0.385
v -0.03854 -1.34886 0.385
v 0.03854 -1.34886 0.385
v 0.10799 -1.31542 0.385
v 0.15605 -1.25515 0.385
v 0.1 -1.18 0.41794
v 0.0901 -1.13661 0.41794
v 0.06235 -1.10182 0.41794
v 0.02225 -1.08251 0.41794
v -0.02225 -1.08251 0.41794
v -0.06235 -1.10182 0.41794
v -0.0901 -1.13661 0.41794
v -0.1 -1.18 0.41794
v -0.0901 -1.22339 0.41794
v -0.06235 -1.25818 0.41794
v -0.02225 -1.27749 0.41794
v 0.02225 -1.27749 0.41794
v 0.06235 -1.25818 0.41794
v 0.0901 -1.22339 0.41794
v 0 -1.18 0.43
v 0 -1.18 0.43
v 0 -1.18 0.43
v 0 -1.18 0.43
v 0 -1.18 0.43
v 0 -1.18 0.43
v 0 -1.18 0.43
v 0 -1.18 0.43
v 0 -1.18 0.43
v 0 -1.18 0.43
v 0 -1.18 0.43
v 0 -1.18 0.43
v 0 -1.18 0.43
v 0 -1.18 0.43
v 0 -1.18 0.415
v 0 -1.18 0.415
v 0 -1.18 0.415
v 0 -1.18 0.415
v 0 -1.18 0.415
v 0 -1.18 0.415
v 0 -1.18 0.415
v 0 -1.18 0.415
v 0 -1.18 0.415
v 0 -1.18 0.415
v 0 -1.18 0.415
v 0 -1.18 0.415
v 0.0529 -1.18 0.41977
v 0.04581 -1.15355 0.41977
v 0.02645 -1.13419 0.41977
v 0 -1.1271 0.41977
v -0.02645 -1.13419 0.41977
v -0.04581 -1.15355 0.41977
v -0.0529 -1.18 0.41977
v -0.04581 -1.20645 0.41977
v -0.02645 -1.22581 0.41977
v 0 -1.2329 0.41977
v 0.02645 -1.22581 0.41977
v 0.04581 -1.20645 0.41977
v 0.0856 -1.18 0.43227
v 0.07413 -1.1372 0.43227
v 0.0428 -1.10587 0.43227
v 0 -1.0944 0.43227
v -0.0428 -1.10587 0.43227
v -0.07413 -1.1372 0.43227
v -0.0856 -1.18 0.43227
v -0.07413 -1.2228 0.43227
v -0.0428 -1.25413 0.43227
v 0 -1.2656 0.43227
v 0.0428 -1.25413 0.43227
v 0.07413 -1.2228 0.43227
v 0.0856 -1.18 0.44773
v 0.07413 -1.1372 0.44773
v 0.0428 -1.10587 0.44773
v 0 -1.0944 0.44773
v -0.0428 -1.10587 0.44773
v -0.07413 -1.1372 0.44773
v -0.0856 -1.18 0.44773
v -0.07413 -1.2228 0.44773
v -0.0428 -1.25413 0.44773
v 0 -1.2656 0.44773
v 0.0428 -1.25413 0.44773
v 0.07413 -1.2228 0.44773
v 0.0529 -1.18 0.46023
v 0.04581 -1.15355 0.46023
v 0.02645 -1.13419 0.46023
v 0 -1.1271 0.46023
v -0.02645 -1.13419 0.46023
v -0.04581 -1.15355 0.46023
v -0.0529 -1.18 0.46023
v -0.04581 -1.20645 0.46023
v -0.02645 -1.22581 0.46023
v 0 -1.2329 0.46023
v 0.02645 -1.22581 0.46023
v 0.04581 -1.20645 0.46023
v 0 -1.18 0.465
v 0 -1.18 0.465
v 0 -1.18 0.465
v 0 -1.18 0.465
v 0 -1.18 0.465
v 0 -1.18 0.465
v 0 -1.18 0.465
v 0 -1.18 0.465
v 0 -1.18 0.465
v 0 -1.18 0.465
v 0 -1.18 0.465
v 0 -1.18 0.465
v 0.47031 -1.1625 0.45
v 0.4589 -1.16909 0.42264
v 0.43326 -1.18389 0.41588
v 0.41269 -1.19577 0.43481
v 0.41269 -1.19577 0.46519
v 0.43326 -1.18389 0.48412
v 0.4589 -1.16909 0.47736
v 0.25031 -0.78145 0.45
v 0.2389 -0.78804 0.42264
v 0.21326 -0.80284 0.41588
v 0.19269 -0.81472 0.43481
v 0.19269 -0.81472 0.46519
v 0.21326 -0.80284 0.48412
v 0.2389 -0.78804 0.47736
v 0.22 -0.76395 0.45
v 0.22 -0.77713 0.42264
v 0.22 -0.80674 0.41588
v 0.22 -0.83048 0.43481
v 0.22 -0.83048 0.46519
v 0.22 -0.80674 0.48412
v 0.22 -0.77713 0.47736
v -0.22 -0.76395 0.45
v -0.22 -0.77713 0.42264
v -0.22 -0.80674 0.41588
v -0.22 -0.83048 0.43481
v -0.22 -0.83048 0.46519
v -0.22 -0.80674 0.48412
v -0.22 -0.77713 0.47736
v -0.25031 -0.78145 0.45
v -0.2389 -0.78804 0.42264
v -0.21326 -0.80284 0.41588
v -0.19269 -0.81472 0.43481
v -0.19269 -0.81472 0.46519
v -0.21326 -0.80284 0.48412
v -0.2389 -0.78804 0.47736
v -0.47031 -1.1625 0.45
v -0.4589 -1.16909 0.42264
v -0.43326 -1.18389 0.41588
v -0.41269 -1.19577 0.43481
v -0.41269 -1.19577 0.46519
v -0.43326 -1.18389 0.48412
v -0.4589 -1.16909 0.47736
v -0.47031 -1.1975 0.45
v -0.4589 -1.19091 0.42264
v -0.43326 -1.17611 0.41588
v -0.41269 -1.16423 0.43481
v -0.41269 -1.16423 0.46519
v -0.43326 -1.17611 0.48412
v -0.4589 -1.19091 0.47736
v -0.25031 -1.57855 0.45
v -0.2389 -1.57196 0.42264
v -0.21326 -1.55716 0.41588
v -0.19269 -1.54528 0.43481
v -0.19269 -1.54528 0.46519
v -0.21326 -1.55716 0.48412
v -0.2389 -1.57196 0.47736
v -0.22 -1.59605 0.45
v -0.22 -1.58287 0.42264
v -0.22 -1.55326 0.41588
v -0.22 -1.52952 0.43481
v -0.22 -1.52952 0.46519
v -0.22 -1.55326 0.48412
v -0.22 -1.58287 0.47736
v 0.22 -1.59605 0.45
v 0.22 -1.58287 0.42264
v 0.22 -1.55326 0.41588
v 0.22 -1.52952 0.43481
v 0.22 -1.52952 0.46519
v 0.22 -1.55326 0.48412
v 0.22 -1.58287 0.47736
v 0.25031 -1.57855 0.45
v 0.2389 -1.57196 0.42264
v 0.21326 -1.55716 0.41588
v 0.19269 -1.54528 0.43481
v 0.19269 -1.54528 0.46519
v 0.21326 -1.55716 0.48412
v 0.2389 -1.57196 0.47736
v 0.47031 -1.1975 0.45
v 0.4589 -1.19091 0.42264
v 0.43326 -1.17611 0.41588
v 0.41269 -1.16423 0.43481
v 0.41269 -1.16423 0.46519
v 0.43326 -1.17611 0.48412
v 0.4589 -1.19091 0.47736
v 0.46126 -1.2078 0.45
v 0.46485 -1.18847 0.42686
v 0.44973 -1.16275 0.42114
v 0.42728 -1.15003 0.43716
v 0.41441 -1.15987 0.46284
v 0.42081 -1.18487 0.47886
v 0.44166 -1.2062 0.47314
v 0.79822 -0.94383 0.72
v 0.8013 -0.92726 0.70016
v 0.78834 -0.90522 0.69526
v 0.7691 -0.89431 0.70899
v 0.75806 -0.90275 0.73101
v 0.76355 -0.92418 0.74474
v 0.78142 -0.94246 0.73984
v 0.80185 -0.94056 0.72
v 0.79567 -0.93064 0.69674
v 0.77769 -0.91271 0.69099
v 0.76145 -0.90027 0.70709
v 0.75918 -0.90268 0.73291
v 0.77258 -0.91814 0.74901
v 0.79157 -0.935 0.74326
v 1.1182 -0.59713 0.78
v 1.11306 -0.58887 0.76061
v 1.09808 -0.57393 0.75583
v 1.08455 -0.56356 0.76924
v 1.08265 -0.56557 0.79076
v 1.09382 -0.57845 0.80417
v 1.10964 -0.5925 0.79939
v -0.725 -0.025 0.32
v 0.725 -0.025 0.32
v 0.725 0.625 0.32
v -0.725 0.625 0.32
v -0.725 -0.025 0.36
v 0.725 -0.025 0.36
v 0.725 0.625 0.36
v -0.725 0.625 0.36
v -0.505 0.1 0.3775
v -0.395 0.1 0.3775
v -0.395 0.5 0.3775
v -0.505 0.5 0.3775
v -0.505 0.1 0.4025
v -0.395 0.1 0.4025
v -0.395 0.5 0.4025
v -0.505 0.5 0.4025
v -0.205 0.1 0.3775
v -0.095 0.1 0.3775
v -0.095 0.5 0.3775
v -0.205 0.5 0.3775
v -0.205 0.1 0.4025
v -0.095 0.1 0.4025
v -0.095 0.5 0.4025
v -0.205 0.5 0.4025
v 0.095 0.1 0.3775
v 0.205 0.1 0.3775
v 0.205 0.5 0.3775
v 0.095 0.5 0.3775
v 0.095 0.1 0.4025
v 0.205 0.1 0.4025
v 0.205 0.5 0.4025
v 0.095 0.5 0.4025
v 0.395 0.1 0.3775
v 0.505 0.1 0.3775
v 0.505 0.5 0.3775
v 0.395 0.5 0.3775
v 0.395 0.1 0.4025
v 0.505 0.1 0.4025
v 0.505 0.5 0.4025
v 0.395 0.5 0.4025
v -0.775 0.875 0.35
v 0.775 0.875 0.35
v 0.775 0.925 0.35
v -0.775 0.925 0.35
v -0.775 0.875 0.37
v 0.775 0.875 0.37
v 0.775 0.925 0.37
v -0.775 0.925 0.37
v 0.39 1.18 0.35
v 0.77 1.18 0.35
v 0.77 1.26 0.35
v 0.39 1.26 0.35
v 0.39 1.18 0.37
v 0.77 1.18 0.37
v 0.77 1.26 0.37
v 0.39 1.26 0.37
g Tag
usemtl TAG_GREY
f 1 2 7 6
f 2 3 8 7
f 3 4 9 8
f 4 5 10 9
f 5 1 6 10
f 5 4 3 2 1
f 6 7 8 9 10
g Eyelet
usemtl CLIP_METAL
f 11 12 26 25
f 12 13 27 26
f 13 14 28 27
f 14 15 29 28
f 15 16 30 29
f 16 17 31 30
f 17 18 32 31
f 18 19 33 32
f 19 20 34 33
f 20 21 35 34
f 21 22 36 35
f 22 23 37 36
f 23 24 38 37
f 24 11 25 38
f 25 26 40 39
f 26 27 41 40
f 27 28 42 41
f 28 29 43 42
f 29 30 44 43
f 30 31 45 44
f 31 32 46 45
f 32 33 47 46
f 33 34 48 47
f 34 35 49 48
f 35 36 50 49
f 36 37 51 50
f 37 38 52 51
f 38 25 39 52
f 39 40 54 53
f 40 41 55 54
f 41 42 56 55
f 42 43 57 56
f 43 44 58 57
f 44 45 59 58
f 45 46 60 59
f 46 47 61 60
f 47 48 62 61
f 48 49 63 62
f 49 50 64 63
f 50 51 65 64
f 51 52 66 65
f 52 39 53 66
f 53 54 68 67
f 54 55 69 68
f 55 56 70 69
f 56 57 71 70
f 57 58 72 71
f 58 59 73 72
f 59 60 74 73
f 60 61 75 74
f 61 62 76 75
f 62 63 77 76
f 63 64 78 77
f 64 65 79 78
f 65 66 80 79
f 66 53 67 80
f 67 68 82 81
f 68 69 83 82
f 69 70 84 83
f 70 71 85 84
f 71 72 86 85
f 72 73 87 86
f 73 74 88 87
f 74 75 89 88
f 75 76 90 89
f 76 77 91 90
f 77 78 92 91
f 78 79 93 92
f 79 80 94 93
f 80 67 81 94
f 81 82 96 95
f 82 83 97 96
f 83 84 98 97
f 84 85 99 98
f 85 86 100 99
f 86 87 101 100
f 87 88 102 101
f 88 89 103 102
f 89 90 104 103
f 90 91 105 104
f 91 92 106 105
f 92 93 107 106
f 93 94 108 107
f 94 81 95 108
g EyeletHole
usemtl METAL_DARK
f 109 110 122 121
f 110 111 123 122
f 111 112 124 123
f 112 113 125 124
f 113 114 126 125
f 114 115 127 126
f 115 116 128 127
f 116 117 129 128
f 117 118 130 129
f 118 119 131 130
f 119 120 132 131
f 120 109 121 132
f 121 122 134 133
f 122 123 135 134
f 123 124 136 135
f 124 125 137 136
f 125 126 138 137
f 126 127 139 138
f 127 128 140 139
f 128 129 141 140
f 129 130 142 141
f 130 131 143 142
f 131 132 144 143
f 132 121 133 144
f 133 134 146 145
f 134 135 147 146
f 135 136 148 147
f 136 137 149 148
f 137 138 150 149
f 138 139 151 150
f 139 140 152 151
f 140 141 153 152
f 141 142 154 153
f 142 143 155 154
f 143 144 156 155
f 144 133 145 156
f 145 146 158 157
f 146 147 159 158
f 147 148 160 159
f 148 149 161 160
f 149 150 162 161
f 150 151 163 162
f 151 152 164 163
f 152 153 165 164
f 153 154 166 165
f 154 155 167 166
f 155 156 168 167
f 156 145 157 168
f 157 158 170 169
f 158 159 171 170
f 159 160 172 171
f 160 161 173 172
f 161 162 174 173
f 162 163 175 174
f 163 164 176 175
f 164 165 177 176
f 165 166 178 177
f 166 167 179 178
f 167 168 180 179
f 168 157 169 180
g StringRing0
usemtl STRING_DARK
f 181 182 189 188
f 182 183 190 189
f 183 184 191 190
f 184 185 192 191
f 185 186 193 192
f 186 187 194 193
f 187 181 188 194
g StringRing1
f 195 196 203 202
f 196 197 204 203
f 197 198 205 204
f 198 199 206 205
f 199 200 207 206
f 200 201 208 207
f 201 195 202 208
g StringRing2
f 209 210 217 216
f 210 211 218 217
f 211 212 219 218
f 212 213 220 219
f 213 214 221 220
f 214 215 222 221
f 215 209 216 222
g StringRing3
f 223 224 231 230
f 224 225 232 231
f 225 226 233 232
f 226 227 234 233
f 227 228 235 234
f 228 229 236 235
f 229 223 230 236
g StringRing4
f 237 238 245 244
f 238 239 246 245
f 239 240 247 246
f 240 241 248 247
f 241 242 249 248
f 242 243 250 249
f 243 237 244 250
g StringRing5
f 251 252 259 258
f 252 253 260 259
f 253 254 261 260
f 254 255 262 261
f 255 256 263 262
f 256 257 264 263
f 257 251 258 264
g StringA
f 265 266 273 272
f 266 267 274 273
f 267 268 275 274
f 268 269 276 275
f 269 270 277 276
f 270 271 278 277
f 271 265 272 278
g StringB
f 279 280 287 286
f 280 281 288 287
f 281 282 289 288
f 282 283 290 289
f 283 284 291 290
f 284 285 292 291
f 285 279 286 292
g NumberPlate
usemtl LABEL_CREAM
f 293 294 295 296
f 297 300 299 298
f 293 297 298 294
f 294 298 299 295
f 295 299 300 296
f 297 293 296 300
g DigitStroke0
usemtl INK_DARK
f 301 302 303 304
f 305 308 307 306
f 301 305 306 302
f 302 306 307 303
f 303 307 308 304
f 305 301 304 308
g DigitStroke1
f 309 310 311 312
f 313 316 315 314
f 309 313 314 310
f 310 314 315 311
f 311 315 316 312
f 313 309 312 316
g DigitStroke2
f 317 318 319 320
f 321 324 323 322
f 317 321 322 318
f 318 322 323 319
f 319 323 324 320
f 321 317 320 324
g DigitStroke3
usemtl INK_RED
f 325 326 327 328
f 329 332 331 330
f 325 329 330 326
f 326 330 331 327
f 327 331 332 328
f 329 325 328 332
g StatusLine
usemtl INK_FADED
f 333 334 335 336
f 337 340 339 338
f 333 337 338 334
f 334 338 339 335
f 335 339 340 336
f 337 333 336 340
g CallMark
usemtl INK_RED
f 341 342 343 344
f 345 348 347 346
f 341 345 346 342
f 342 346 347 343
f 343 347 348 344
f 345 341 344 348
