# park_02_carousel_photo - project-original horror lore prop
mtllib horror-lore.mtl
o park_02_carousel_photo
v -1.5 -1.725 0.06
v 1.5 -1.725 0.06
v 1.5 1.725 0.06
v -1.5 1.725 0.06
v -1.5 -1.725 0.26
v 1.5 -1.725 0.26
v 1.5 1.725 0.26
v -1.5 1.725 0.26
v -1.275 -1.49 0.26
v 1.275 -1.49 0.26
v 1.275 1.13 0.26
v -1.275 1.13 0.26
v -1.275 -1.49 0.34
v 1.275 -1.49 0.34
v 1.275 1.13 0.34
v -1.275 1.13 0.34
v -0.75 1.37 0.2975
v 0.75 1.37 0.2975
v 0.75 1.47 0.2975
v -0.75 1.47 0.2975
v -0.75 1.37 0.3225
v 0.75 1.37 0.3225
v 0.75 1.47 0.3225
v -0.75 1.47 0.3225
v -1 -0.85 0.29
v -1 -0.85 0.29
v -1 -0.85 0.29
v -1 -0.85 0.29
v -1 -0.85 0.29
v -1 -0.85 0.29
v -1 -0.85 0.29
v -1 -0.85 0.29
v -1 -0.85 0.29
v -1 -0.85 0.29
v -0.8942 -0.85 0.31483
v -0.9144 -0.74635 0.31483
v -0.96731 -0.68229 0.31483
v -1.03269 -0.68229 0.31483
v -1.0856 -0.74635 0.31483
v -1.1058 -0.85 0.31483
v -1.0856 -0.95365 0.31483
v -1.03269 -1.01771 0.31483
v -0.96731 -1.01771 0.31483
v -0.9144 -0.95365 0.31483
v -0.82881 -0.85 0.37983
v -0.8615 -0.68229 0.37983
v -0.9471 -0.57865 0.37983
v -1.0529 -0.57865 0.37983
v -1.1385 -0.68229 0.37983
v -1.17119 -0.85 0.37983
v -1.1385 -1.01771 0.37983
v -1.0529 -1.12135 0.37983
v -0.9471 -1.12135 0.37983
v -0.8615 -1.01771 0.37983
v -0.82881 -0.85 0.46017
v -0.8615 -0.68229 0.46017
v -0.9471 -0.57865 0.46017
v -1.0529 -0.57865 0.46017
v -1.1385 -0.68229 0.46017
v -1.17119 -0.85 0.46017
v -1.1385 -1.01771 0.46017
v -1.0529 -1.12135 0.46017
v -0.9471 -1.12135 0.46017
v -0.8615 -1.01771 0.46017
v -0.8942 -0.85 0.52517
v -0.9144 -0.74635 0.52517
v -0.96731 -0.68229 0.52517
v -1.03269 -0.68229 0.52517
v -1.0856 -0.74635 0.52517
v -1.1058 -0.85 0.52517
v -1.0856 -0.95365 0.52517
v -1.03269 -1.01771 0.52517
v -0.96731 -1.01771 0.52517
v -0.9144 -0.95365 0.52517
v -1 -0.85 0.55
v -1 -0.85 0.55
v -1 -0.85 0.55
v -1 -0.85 0.55
v -1 -0.85 0.55
v -1 -0.85 0.55
v -1 -0.85 0.55
v -1 -0.85 0.55
v -1 -0.85 0.55
v -1 -0.85 0.55
v -1.025 -0.85 0.39
v -1.01559 -0.86955 0.39
v -0.99444 -0.87437 0.39
v -0.97748 -0.86085 0.39
v -0.97748 -0.83915 0.39
v -0.99444 -0.82563 0.39
v -1.01559 -0.83045 0.39
v -1.025 -0.85 1.1
v -1.01559 -0.86955 1.1
v -0.99444 -0.87437 1.1
v -0.97748 -0.86085 1.1
v -0.97748 -0.83915 1.1
v -0.99444 -0.82563 1.1
v -1.01559 -0.83045 1.1
v -0.33 -0.85 0.29
v -0.33 -0.85 0.29
v -0.33 -0.85 0.29
v -0.33 -0.85 0.29
v -0.33 -0.85 0.29
v -0.33 -0.85 0.29
v -0.33 -0.85 0.29
v -0.33 -0.85 0.29
v -0.33 -0.85 0.29
v -0.33 -0.85 0.29
v -0.2242 -0.85 0.31483
v -0.2444 -0.74635 0.31483
v -0.29731 -0.68229 0.31483
v -0.36269 -0.68229 0.31483
v -0.4156 -0.74635 0.31483
v -0.4358 -0.85 0.31483
v -0.4156 -0.95365 0.31483
v -0.36269 -1.01771 0.31483
v -0.29731 -1.01771 0.31483
v -0.2444 -0.95365 0.31483
v -0.15881 -0.85 0.37983
v -0.1915 -0.68229 0.37983
v -0.2771 -0.57865 0.37983
v -0.3829 -0.57865 0.37983
v -0.4685 -0.68229 0.37983
v -0.50119 -0.85 0.37983
v -0.4685 -1.01771 0.37983
v -0.3829 -1.12135 0.37983
v -0.2771 -1.12135 0.37983
v -0.1915 -1.01771 0.37983
v -0.15881 -0.85 0.46017
v -0.1915 -0.68229 0.46017
v -0.2771 -0.57865 0.46017
v -0.3829 -0.57865 0.46017
v -0.4685 -0.68229 0.46017
v -0.50119 -0.85 0.46017
v -0.4685 -1.01771 0.46017
v -0.3829 -1.12135 0.46017
v -0.2771 -1.12135 0.46017
v -0.1915 -1.01771 0.46017
v -0.2242 -0.85 0.52517
v -0.2444 -0.74635 0.52517
v -0.29731 -0.68229 0.52517
v -0.36269 -0.68229 0.52517
v -0.4156 -0.74635 0.52517
v -0.4358 -0.85 0.52517
v -0.4156 -0.95365 0.52517
v -0.36269 -1.01771 0.52517
v -0.29731 -1.01771 0.52517
v -0.2444 -0.95365 0.52517
v -0.33 -0.85 0.55
v -0.33 -0.85 0.55
v -0.33 -0.85 0.55
v -0.33 -0.85 0.55
v -0.33 -0.85 0.55
v -0.33 -0.85 0.55
v -0.33 -0.85 0.55
v -0.33 -0.85 0.55
v -0.33 -0.85 0.55
v -0.33 -0.85 0.55
v -0.355 -0.85 0.39
v -0.34559 -0.86955 0.39
v -0.32444 -0.87437 0.39
v -0.30748 -0.86085 0.39
v -0.30748 -0.83915 0.39
v -0.32444 -0.82563 0.39
v -0.34559 -0.83045 0.39
v -0.355 -0.85 1.1
v -0.34559 -0.86955 1.1
v -0.32444 -0.87437 1.1
v -0.30748 -0.86085 1.1
v -0.30748 -0.83915 1.1
v -0.32444 -0.82563 1.1
v -0.34559 -0.83045 1.1
v 0.34 -0.85 0.29
v 0.34 -0.85 0.29
v 0.34 -0.85 0.29
v 0.34 -0.85 0.29
v 0.34 -0.85 0.29
v 0.34 -0.85 0.29
v 0.34 -0.85 0.29
v 0.34 -0.85 0.29
v 0.34 -0.85 0.29
v 0.34 -0.85 0.29
v 0.4458 -0.85 0.31483
v 0.4256 -0.74635 0.31483
v 0.37269 -0.68229 0.31483
v 0.30731 -0.68229 0.31483
v 0.2544 -0.74635 0.31483
v 0.2342 -0.85 0.31483
v 0.2544 -0.95365 0.31483
v 0.30731 -1.01771 0.31483
v 0.37269 -1.01771 0.31483
v 0.4256 -0.95365 0.31483
v 0.51119 -0.85 0.37983
v 0.4785 -0.68229 0.37983
v 0.3929 -0.57865 0.37983
v 0.2871 -0.57865 0.37983
v 0.2015 -0.68229 0.37983
v 0.16881 -0.85 0.37983
v 0.2015 -1.01771 0.37983
v 0.2871 -1.12135 0.37983
v 0.3929 -1.12135 0.37983
v 0.4785 -1.01771 0.37983
v 0.51119 -0.85 0.46017
v 0.4785 -0.68229 0.46017
v 0.3929 -0.57865 0.46017
v 0.2871 -0.57865 0.46017
v 0.2015 -0.68229 0.46017
v 0.16881 -0.85 0.46017
v 0.2015 -1.01771 0.46017
v 0.2871 -1.12135 0.46017
v 0.3929 -1.12135 0.46017
v 0.4785 -1.01771 0.46017
v 0.4458 -0.85 0.52517
v 0.4256 -0.74635 0.52517
v 0.37269 -0.68229 0.52517
v 0.30731 -0.68229 0.52517
v 0.2544 -0.74635 0.52517
v 0.2342 -0.85 0.52517
v 0.2544 -0.95365 0.52517
v 0.30731 -1.01771 0.52517
v 0.37269 -1.01771 0.52517
v 0.4256 -0.95365 0.52517
v 0.34 -0.85 0.55
v 0.34 -0.85 0.55
v 0.34 -0.85 0.55
v 0.34 -0.85 0.55
v 0.34 -0.85 0.55
v 0.34 -0.85 0.55
v 0.34 -0.85 0.55
v 0.34 -0.85 0.55
v 0.34 -0.85 0.55
v 0.34 -0.85 0.55
v 0.315 -0.85 0.39
v 0.32441 -0.86955 0.39
v 0.34556 -0.87437 0.39
v 0.36252 -0.86085 0.39
v 0.36252 -0.83915 0.39
v 0.34556 -0.82563 0.39
v 0.32441 -0.83045 0.39
v 0.315 -0.85 1.1
v 0.32441 -0.86955 1.1
v 0.34556 -0.87437 1.1
v 0.36252 -0.86085 1.1
v 0.36252 -0.83915 1.1
v 0.34556 -0.82563 1.1
v 0.32441 -0.83045 1.1
v 1.01 -0.85 0.29
v 1.01 -0.85 0.29
v 1.01 -0.85 0.29
v 1.01 -0.85 0.29
v 1.01 -0.85 0.29
v 1.01 -0.85 0.29
v 1.01 -0.85 0.29
v 1.01 -0.85 0.29
v 1.01 -0.85 0.29
v 1.01 -0.85 0.29
v 1.1158 -0.85 0.31483
v 1.0956 -0.74635 0.31483
v 1.04269 -0.68229 0.31483
v 0.97731 -0.68229 0.31483
v 0.9244 -0.74635 0.31483
v 0.9042 -0.85 0.31483
v 0.9244 -0.95365 0.31483
v 0.97731 -1.01771 0.31483
v 1.04269 -1.01771 0.31483
v 1.0956 -0.95365 0.31483
v 1.18119 -0.85 0.37983
v 1.1485 -0.68229 0.37983
v 1.0629 -0.57865 0.37983
v 0.9571 -0.57865 0.37983
v 0.8715 -0.68229 0.37983
v 0.83881 -0.85 0.37983
v 0.8715 -1.01771 0.37983
v 0.9571 -1.12135 0.37983
v 1.0629 -1.12135 0.37983
v 1.1485 -1.01771 0.37983
v 1.18119 -0.85 0.46017
v 1.1485 -0.68229 0.46017
v 1.0629 -0.57865 0.46017
v 0.9571 -0.57865 0.46017
v 0.8715 -0.68229 0.46017
v 0.83881 -0.85 0.46017
v 0.8715 -1.01771 0.46017
v 0.9571 -1.12135 0.46017
v 1.0629 -1.12135 0.46017
v 1.1485 -1.01771 0.46017
v 1.1158 -0.85 0.52517
v 1.0956 -0.74635 0.52517
v 1.04269 -0.68229 0.52517
v 0.97731 -0.68229 0.52517
v 0.9244 -0.74635 0.52517
v 0.9042 -0.85 0.52517
v 0.9244 -0.95365 0.52517
v 0.97731 -1.01771 0.52517
v 1.04269 -1.01771 0.52517
v 1.0956 -0.95365 0.52517
v 1.01 -0.85 0.55
v 1.01 -0.85 0.55
v 1.01 -0.85 0.55
v 1.01 -0.85 0.55
v 1.01 -0.85 0.55
v 1.01 -0.85 0.55
v 1.01 -0.85 0.55
v 1.01 -0.85 0.55
v 1.01 -0.85 0.55
v 1.01 -0.85 0.55
v 0.985 -0.85 0.39
v 0.99441 -0.86955 0.39
v 1.01556 -0.87437 0.39
v 1.03252 -0.86085 0.39
v 1.03252 -0.83915 0.39
v 1.01556 -0.82563 0.39
v 0.99441 -0.83045 0.39
v 0.985 -0.85 1.1
v 0.99441 -0.86955 1.1
v 1.01556 -0.87437 1.1
v 1.03252 -0.86085 1.1
v 1.03252 -0.83915 1.1
v 1.01556 -0.82563 1.1
v 0.99441 -0.83045 1.1
v -1 0.07 0.29
v -1 0.07 0.29
v -1 0.07 0.29
v -1 0.07 0.29
v -1 0.07 0.29
v -1 0.07 0.29
v -1 0.07 0.29
v -1 0.07 0.29
v -1 0.07 0.29
v -1 0.07 0.29
v -0.8942 0.07 0.31483
v -0.9144 0.17365 0.31483
v -0.96731 0.23771 0.31483
v -1.03269 0.23771 0.31483
v -1.0856 0.17365 0.31483
v -1.1058 0.07 0.31483
v -1.0856 -0.03365 0.31483
v -1.03269 -0.09771 0.31483
v -0.96731 -0.09771 0.31483
v -0.9144 -0.03365 0.31483
v -0.82881 0.07 0.37983
v -0.8615 0.23771 0.37983
v -0.9471 0.34135 0.37983
v -1.0529 0.34135 0.37983
v -1.1385 0.23771 0.37983
v -1.17119 0.07 0.37983
v -1.1385 -0.09771 0.37983
v -1.0529 -0.20135 0.37983
v -0.9471 -0.20135 0.37983
v -0.8615 -0.09771 0.37983
v -0.82881 0.07 0.46017
v -0.8615 0.23771 0.46017
v -0.9471 0.34135 0.46017
v -1.0529 0.34135 0.46017
v -1.1385 0.23771 0.46017
v -1.17119 0.07 0.46017
v -1.1385 -0.09771 0.46017
v -1.0529 -0.20135 0.46017
v -0.9471 -0.20135 0.46017
v -0.8615 -0.09771 0.46017
v -0.8942 0.07 0.52517
v -0.9144 0.17365 0.52517
v -0.96731 0.23771 0.52517
v -1.03269 0.23771 0.52517
v -1.0856 0.17365 0.52517
v -1.1058 0.07 0.52517
v -1.0856 -0.03365 0.52517
v -1.03269 -0.09771 0.52517
v -0.96731 -0.09771 0.52517
v -0.9144 -0.03365 0.52517
v -1 0.07 0.55
v -1 0.07 0.55
v -1 0.07 0.55
v -1 0.07 0.55
v -1 0.07 0.55
v -1 0.07 0.55
v -1 0.07 0.55
v -1 0.07 0.55
v -1 0.07 0.55
v -1 0.07 0.55
v -1.025 0.07 0.39
v -1.01559 0.05045 0.39
v -0.99444 0.04563 0.39
v -0.97748 0.05915 0.39
v -0.97748 0.08085 0.39
v -0.99444 0.09437 0.39
v -1.01559 0.08955 0.39
v -1.025 0.07 1.1
v -1.01559 0.05045 1.1
v -0.99444 0.04563 1.1
v -0.97748 0.05915 1.1
v -0.97748 0.08085 1.1
v -0.99444 0.09437 1.1
v -1.01559 0.08955 1.1
v -0.33 0.07 0.29
v -0.33 0.07 0.29
v -0.33 0.07 0.29
v -0.33 0.07 0.29
v -0.33 0.07 0.29
v -0.33 0.07 0.29
v -0.33 0.07 0.29
v -0.33 0.07 0.29
v -0.33 0.07 0.29
v -0.33 0.07 0.29
v -0.2242 0.07 0.31483
v -0.2444 0.17365 0.31483
v -0.29731 0.23771 0.31483
v -0.36269 0.23771 0.31483
v -0.4156 0.17365 0.31483
v -0.4358 0.07 0.31483
v -0.4156 -0.03365 0.31483
v -0.36269 -0.09771 0.31483
v -0.29731 -0.09771 0.31483
v -0.2444 -0.03365 0.31483
v -0.15881 0.07 0.37983
v -0.1915 0.23771 0.37983
v -0.2771 0.34135 0.37983
v -0.3829 0.34135 0.37983
v -0.4685 0.23771 0.37983
v -0.50119 0.07 0.37983
v -0.4685 -0.09771 0.37983
v -0.3829 -0.20135 0.37983
v -0.2771 -0.20135 0.37983
v -0.1915 -0.09771 0.37983
v -0.15881 0.07 0.46017
v -0.1915 0.23771 0.46017
v -0.2771 0.34135 0.46017
v -0.3829 0.34135 0.46017
v -0.4685 0.23771 0.46017
v -0.50119 0.07 0.46017
v -0.4685 -0.09771 0.46017
v -0.3829 -0.20135 0.46017
v -0.2771 -0.20135 0.46017
v -0.1915 -0.09771 0.46017
v -0.2242 0.07 0.52517
v -0.2444 0.17365 0.52517
v -0.29731 0.23771 0.52517
v -0.36269 0.23771 0.52517
v -0.4156 0.17365 0.52517
v -0.4358 0.07 0.52517
v -0.4156 -0.03365 0.52517
v -0.36269 -0.09771 0.52517
v -0.29731 -0.09771 0.52517
v -0.2444 -0.03365 0.52517
v -0.33 0.07 0.55
v -0.33 0.07 0.55
v -0.33 0.07 0.55
v -0.33 0.07 0.55
v -0.33 0.07 0.55
v -0.33 0.07 0.55
v -0.33 0.07 0.55
v -0.33 0.07 0.55
v -0.33 0.07 0.55
v -0.33 0.07 0.55
v -0.355 0.07 0.39
v -0.34559 0.05045 0.39
v -0.32444 0.04563 0.39
v -0.30748 0.05915 0.39
v -0.30748 0.08085 0.39
v -0.32444 0.09437 0.39
v -0.34559 0.08955 0.39
v -0.355 0.07 1.1
v -0.34559 0.05045 1.1
v -0.32444 0.04563 1.1
v -0.30748 0.05915 1.1
v -0.30748 0.08085 1.1
v -0.32444 0.09437 1.1
v -0.34559 0.08955 1.1
v 0.34 0.07 0.29
v 0.34 0.07 0.29
v 0.34 0.07 0.29
v 0.34 0.07 0.29
v 0.34 0.07 0.29
v 0.34 0.07 0.29
v 0.34 0.07 0.29
v 0.34 0.07 0.29
v 0.34 0.07 0.29
v 0.34 0.07 0.29
v 0.4458 0.07 0.31483
v 0.4256 0.17365 0.31483
v 0.37269 0.23771 0.31483
v 0.30731 0.23771 0.31483
v 0.2544 0.17365 0.31483
v 0.2342 0.07 0.31483
v 0.2544 -0.03365 0.31483
v 0.30731 -0.09771 0.31483
v 0.37269 -0.09771 0.31483
v 0.4256 -0.03365 0.31483
v 0.51119 0.07 0.37983
v 0.4785 0.23771 0.37983
v 0.3929 0.34135 0.37983
v 0.2871 0.34135 0.37983
v 0.2015 0.23771 0.37983
v 0.16881 0.07 0.37983
v 0.2015 -0.09771 0.37983
v 0.2871 -0.20135 0.37983
v 0.3929 -0.20135 0.37983
v 0.4785 -0.09771 0.37983
v 0.51119 0.07 0.46017
v 0.4785 0.23771 0.46017
v 0.3929 0.34135 0.46017
v 0.2871 0.34135 0.46017
v 0.2015 0.23771 0.46017
v 0.16881 0.07 0.46017
v 0.2015 -0.09771 0.46017
v 0.2871 -0.20135 0.46017
v 0.3929 -0.20135 0.46017
v 0.4785 -0.09771 0.46017
v 0.4458 0.07 0.52517
v 0.4256 0.17365 0.52517
v 0.37269 0.23771 0.52517
v 0.30731 0.23771 0.52517
v 0.2544 0.17365 0.52517
v 0.2342 0.07 0.52517
v 0.2544 -0.03365 0.52517
v 0.30731 -0.09771 0.52517
v 0.37269 -0.09771 0.52517
v 0.4256 -0.03365 0.52517
v 0.34 0.07 0.55
v 0.34 0.07 0.55
v 0.34 0.07 0.55
v 0.34 0.07 0.55
v 0.34 0.07 0.55
v 0.34 0.07 0.55
v 0.34 0.07 0.55
v 0.34 0.07 0.55
v 0.34 0.07 0.55
v 0.34 0.07 0.55
v 0.315 0.07 0.39
v 0.32441 0.05045 0.39
v 0.34556 0.04563 0.39
v 0.36252 0.05915 0.39
v 0.36252 0.08085 0.39
v 0.34556 0.09437 0.39
v 0.32441 0.08955 0.39
v 0.315 0.07 1.1
v 0.32441 0.05045 1.1
v 0.34556 0.04563 1.1
v 0.36252 0.05915 1.1
v 0.36252 0.08085 1.1
v 0.34556 0.09437 1.1
v 0.32441 0.08955 1.1
v 1.01 0.07 0.29
v 1.01 0.07 0.29
v 1.01 0.07 0.29
v 1.01 0.07 0.29
v 1.01 0.07 0.29
v 1.01 0.07 0.29
v 1.01 0.07 0.29
v 1.01 0.07 0.29
v 1.01 0.07 0.29
v 1.01 0.07 0.29
v 1.1158 0.07 0.31483
v 1.0956 0.17365 0.31483
v 1.04269 0.23771 0.31483
v 0.97731 0.23771 0.31483
v 0.9244 0.17365 0.31483
v 0.9042 0.07 0.31483
v 0.9244 -0.03365 0.31483
v 0.97731 -0.09771 0.31483
v 1.04269 -0.09771 0.31483
v 1.0956 -0.03365 0.31483
v 1.18119 0.07 0.37983
v 1.1485 0.23771 0.37983
v 1.0629 0.34135 0.37983
v 0.9571 0.34135 0.37983
v 0.8715 0.23771 0.37983
v 0.83881 0.07 0.37983
v 0.8715 -0.09771 0.37983
v 0.9571 -0.20135 0.37983
v 1.0629 -0.20135 0.37983
v 1.1485 -0.09771 0.37983
v 1.18119 0.07 0.46017
v 1.1485 0.23771 0.46017
v 1.0629 0.34135 0.46017
v 0.9571 0.34135 0.46017
v 0.8715 0.23771 0.46017
v 0.83881 0.07 0.46017
v 0.8715 -0.09771 0.46017
v 0.9571 -0.20135 0.46017
v 1.0629 -0.20135 0.46017
v 1.1485 -0.09771 0.46017
v 1.1158 0.07 0.52517
v 1.0956 0.17365 0.52517
v 1.04269 0.23771 0.52517
v 0.97731 0.23771 0.52517
v 0.9244 0.17365 0.52517
v 0.9042 0.07 0.52517
v 0.9244 -0.03365 0.52517
v 0.97731 -0.09771 0.52517
v 1.04269 -0.09771 0.52517
v 1.0956 -0.03365 0.52517
v 1.01 0.07 0.55
v 1.01 0.07 0.55
v 1.01 0.07 0.55
v 1.01 0.07 0.55
v 1.01 0.07 0.55
v 1.01 0.07 0.55
v 1.01 0.07 0.55
v 1.01 0.07 0.55
v 1.01 0.07 0.55
v 1.01 0.07 0.55
v 0.985 0.07 0.39
v 0.99441 0.05045 0.39
v 1.01556 0.04563 0.39
v 1.03252 0.05915 0.39
v 1.03252 0.08085 0.39
v 1.01556 0.09437 0.39
v 0.99441 0.08955 0.39
v 0.985 0.07 1.1
v 0.99441 0.05045 1.1
v 1.01556 0.04563 1.1
v 1.03252 0.05915 1.1
v 1.03252 0.08085 1.1
v 1.01556 0.09437 1.1
v 0.99441 0.08955 1.1
v 0.95 0.55 0.23
v 0.95 0.55 0.23
v 0.95 0.55 0.23
v 0.95 0.55 0.23
v 0.95 0.55 0.23
v 0.95 0.55 0.23
v 0.95 0.55 0.23
v 0.95 0.55 0.23
v 0.95 0.55 0.23
v 0.95 0.55 0.23
v 0.95 0.55 0.23
v 0.95 0.55 0.23
v 1.06 0.55 0.25679
v 1.04526 0.615 0.25679
v 1.005 0.66258 0.25679
v 0.95 0.68 0.25679
v 0.895 0.66258 0.25679
v 0.85474 0.615 0.25679
v 0.84 0.55 0.25679
v 0.85474 0.485 0.25679
v 0.895 0.43742 0.25679
v 0.95 0.42 0.25679
v 1.005 0.43742 0.25679
v 1.04526 0.485 0.25679
v 1.14053 0.55 0.33
v 1.115 0.66258 0.33
v 1.04526 0.745 0.33
v 0.95 0.77517 0.33
v 0.85474 0.745 0.33
v 0.785 0.66258 0.33
v 0.75947 0.55 0.33
v 0.785 0.43742 0.33
v 0.85474 0.355 0.33
v 0.95 0.32483 0.33
v 1.04526 0.355 0.33
v 1.115 0.43742 0.33
v 1.17 0.55 0.43
v 1.14053 0.68 0.43
v 1.06 0.77517 0.43
v 0.95 0.81 0.43
v 0.84 0.77517 0.43
v 0.75947 0.68 0.43
v 0.73 0.55 0.43
v 0.75947 0.42 0.43
v 0.84 0.32483 0.43
v 0.95 0.29 0.43
v 1.06 0.32483 0.43
v 1.14053 0.42 0.43
v 1.14053 0.55 0.53
v 1.115 0.66258 0.53
v 1.04526 0.745 0.53
v 0.95 0.77517 0.53
v 0.85474 0.745 0.53
v 0.785 0.66258 0.53
v 0.75947 0.55 0.53
v 0.785 0.43742 0.53
v 0.85474 0.355 0.53
v 0.95 0.32483 0.53
v 1.04526 0.355 0.53
v 1.115 0.43742 0.53
v 1.06 0.55 0.60321
v 1.04526 0.615 0.60321
v 1.005 0.66258 0.60321
v 0.95 0.68 0.60321
v 0.895 0.66258 0.60321
v 0.85474 0.615 0.60321
v 0.84 0.55 0.60321
v 0.85474 0.485 0.60321
v 0.895 0.43742 0.60321
v 0.95 0.42 0.60321
v 1.005 0.43742 0.60321
v 1.04526 0.485 0.60321
v 0.95 0.55 0.63
v 0.95 0.55 0.63
v 0.95 0.55 0.63
v 0.95 0.55 0.63
v 0.95 0.55 0.63
v 0.95 0.55 0.63
v 0.95 0.55 0.63
v 0.95 0.55 0.63
v 0.95 0.55 0.63
v 0.95 0.55 0.63
v 0.95 0.55 0.63
v 0.95 0.55 0.63
v 0.95 0.35 0.58
v 0.95 0.35 0.58
v 0.95 0.35 0.58
v 0.95 0.35 0.58
v 0.95 0.35 0.58
v 0.95 0.35 0.58
v 0.95 0.35 0.58
v 0.95 0.35 0.58
v 0.95 0.35 0.58
v 0.95 0.35 0.58
v 1.02053 0.35 0.60674
v 1.00706 0.39146 0.60674
v 0.9718 0.41708 0.60674
v 0.9282 0.41708 0.60674
v 0.89294 0.39146 0.60674
v 0.87947 0.35 0.60674
v 0.89294 0.30854 0.60674
v 0.9282 0.28292 0.60674
v 0.9718 0.28292 0.60674
v 1.00706 0.30854 0.60674
v 1.06413 0.35 0.67674
v 1.04233 0.41708 0.67674
v 0.98527 0.45854 0.67674
v 0.91473 0.45854 0.67674
v 0.85767 0.41708 0.67674
v 0.83587 0.35 0.67674
v 0.85767 0.28292 0.67674
v 0.91473 0.24146 0.67674
v 0.98527 0.24146 0.67674
v 1.04233 0.28292 0.67674
v 1.06413 0.35 0.76326
v 1.04233 0.41708 0.76326
v 0.98527 0.45854 0.76326
v 0.91473 0.45854 0.76326
v 0.85767 0.41708 0.76326
v 0.83587 0.35 0.76326
v 0.85767 0.28292 0.76326
v 0.91473 0.24146 0.76326
v 0.98527 0.24146 0.76326
v 1.04233 0.28292 0.76326
v 1.02053 0.35 0.83326
v 1.00706 0.39146 0.83326
v 0.9718 0.41708 0.83326
v 0.9282 0.41708 0.83326
v 0.89294 0.39146 0.83326
v 0.87947 0.35 0.83326
v 0.89294 0.30854 0.83326
v 0.9282 0.28292 0.83326
v 0.9718 0.28292 0.83326
v 1.00706 0.30854 0.83326
v 0.95 0.35 0.86
v 0.95 0.35 0.86
v 0.95 0.35 0.86
v 0.95 0.35 0.86
v 0.95 0.35 0.86
v 0.95 0.35 0.86
v 0.95 0.35 0.86
v 0.95 0.35 0.86
v 0.95 0.35 0.86
v 0.95 0.35 0.86
v -1.05 1.135 0.33
v -0.35 1.135 0.33
v -0.35 1.185 0.33
v -1.05 1.185 0.33
v -1.05 1.135 0.35
v -0.35 1.135 0.35
v -0.35 1.185 0.35
v -1.05 1.185 0.35
g PhotoFrame
usemtl PHOTO_WHITE
f 1 2 3 4
f 5 8 7 6
f 1 5 6 2
f 2 6 7 3
f 3 7 8 4
f 5 1 4 8
g PhotoImage
usemtl PHOTO_NIGHT
f 9 10 11 12
f 13 16 15 14
f 9 13 14 10
f 10 14 15 11
f 11 15 16 12
f 13 9 12 16
g Caption
usemtl INK_FADED
f 17 18 19 20
f 21 24 23 22
f 17 21 22 18
f 18 22 23 19
f 19 23 24 20
f 21 17 20 24
g HorseBody0
usemtl CAROUSEL_CREAM
f 25 26 36 35
f 26 27 37 36
f 27 28 38 37
f 28 29 39 38
f 29 30 40 39
f 30 31 41 40
f 31 32 42 41
f 32 33 43 42
f 33 34 44 43
f 34 25 35 44
f 35 36 46 45
f 36 37 47 46
f 37 38 48 47
f 38 39 49 48
f 39 40 50 49
f 40 41 51 50
f 41 42 52 51
f 42 43 53 52
f 43 44 54 53
f 44 35 45 54
f 45 46 56 55
f 46 47 57 56
f 47 48 58 57
f 48 49 59 58
f 49 50 60 59
f 50 51 61 60
f 51 52 62 61
f 52 53 63 62
f 53 54 64 63
f 54 45 55 64
f 55 56 66 65
f 56 57 67 66
f 57 58 68 67
f 58 59 69 68
f 59 60 70 69
f 60 61 71 70
f 61 62 72 71
f 62 63 73 72
f 63 64 74 73
f 64 55 65 74
f 65 66 76 75
f 66 67 77 76
f 67 68 78 77
f 68 69 79 78
f 69 70 80 79
f 70 71 81 80
f 71 72 82 81
f 72 73 83 82
f 73 74 84 83
f 74 65 75 84
g HorsePole0
usemtl CAROUSEL_GOLD
f 85 86 93 92
f 86 87 94 93
f 87 88 95 94
f 88 89 96 95
f 89 90 97 96
f 90 91 98 97
f 91 85 92 98
g HorseBody1
usemtl CAROUSEL_CREAM
f 99 100 110 109
f 100 101 111 110
f 101 102 112 111
f 102 103 113 112
f 103 104 114 113
f 104 105 115 114
f 105 106 116 115
f 106 107 117 116
f 107 108 118 117
f 108 99 109 118
f 109 110 120 119
f 110 111 121 120
f 111 112 122 121
f 112 113 123 122
f 113 114 124 123
f 114 115 125 124
f 115 116 126 125
f 116 117 127 126
f 117 118 128 127
f 118 109 119 128
f 119 120 130 129
f 120 121 131 130
f 121 122 132 131
f 122 123 133 132
f 123 124 134 133
f 124 125 135 134
f 125 126 136 135
f 126 127 137 136
f 127 128 138 137
f 128 119 129 138
f 129 130 140 139
f 130 131 141 140
f 131 132 142 141
f 132 133 143 142
f 133 134 144 143
f 134 135 145 144
f 135 136 146 145
f 136 137 147 146
f 137 138 148 147
f 138 129 139 148
f 139 140 150 149
f 140 141 151 150
f 141 142 152 151
f 142 143 153 152
f 143 144 154 153
f 144 145 155 154
f 145 146 156 155
f 146 147 157 156
f 147 148 158 157
f 148 139 149 158
g HorsePole1
usemtl CAROUSEL_GOLD
f 159 160 167 166
f 160 161 168 167
f 161 162 169 168
f 162 163 170 169
f 163 164 171 170
f 164 165 172 171
f 165 159 166 172
g HorseBody2
usemtl CAROUSEL_CREAM
f 173 174 184 183
f 174 175 185 184
f 175 176 186 185
f 176 177 187 186
f 177 178 188 187
f 178 179 189 188
f 179 180 190 189
f 180 181 191 190
f 181 182 192 191
f 182 173 183 192
f 183 184 194 193
f 184 185 195 194
f 185 186 196 195
f 186 187 197 196
f 187 188 198 197
f 188 189 199 198
f 189 190 200 199
f 190 191 201 200
f 191 192 202 201
f 192 183 193 202
f 193 194 204 203
f 194 195 205 204
f 195 196 206 205
f 196 197 207 206
f 197 198 208 207
f 198 199 209 208
f 199 200 210 209
f 200 201 211 210
f 201 202 212 211
f 202 193 203 212
f 203 204 214 213
f 204 205 215 214
f 205 206 216 215
f 206 207 217 216
f 207 208 218 217
f 208 209 219 218
f 209 210 220 219
f 210 211 221 220
f 211 212 222 221
f 212 203 213 222
f 213 214 224 223
f 214 215 225 224
f 215 216 226 225
f 216 217 227 226
f 217 218 228 227
f 218 219 229 228
f 219 220 230 229
f 220 221 231 230
f 221 222 232 231
f 222 213 223 232
g HorsePole2
usemtl CAROUSEL_GOLD
f 233 234 241 240
f 234 235 242 241
f 235 236 243 242
f 236 237 244 243
f 237 238 245 244
f 238 239 246 245
f 239 233 240 246
g HorseBody3
usemtl CAROUSEL_CREAM
f 247 248 258 257
f 248 249 259 258
f 249 250 260 259
f 250 251 261 260
f 251 252 262 261
f 252 253 263 262
f 253 254 264 263
f 254 255 265 264
f 255 256 266 265
f 256 247 257 266
f 257 258 268 267
f 258 259 269 268
f 259 260 270 269
f 260 261 271 270
f 261 262 272 271
f 262 263 273 272
f 263 264 274 273
f 264 265 275 274
f 265 266 276 275
f 266 257 267 276
f 267 268 278 277
f 268 269 279 278
f 269 270 280 279
f 270 271 281 280
f 271 272 282 281
f 272 273 283 282
f 273 274 284 283
f 274 275 285 284
f 275 276 286 285
f 276 267 277 286
f 277 278 288 287
f 278 279 289 288
f 279 280 290 289
f 280 281 291 290
f 281 282 292 291
f 282 283 293 292
f 283 284 294 293
f 284 285 295 294
f 285 286 296 295
f 286 277 287 296
f 287 288 298 297
f 288 289 299 298
f 289 290 300 299
f 290 291 301 300
f 291 292 302 301
f 292 293 303 302
f 293 294 304 303
f 294 295 305 304
f 295 296 306 305
f 296 287 297 306
g HorsePole3
usemtl CAROUSEL_GOLD
f 307 308 315 314
f 308 309 316 315
f 309 310 317 316
f 310 311 318 317
f 311 312 319 318
f 312 313 320 319
f 313 307 314 320
g HorseBody4
usemtl CAROUSEL_CREAM
f 321 322 332 331
f 322 323 333 332
f 323 324 334 333
f 324 325 335 334
f 325 326 336 335
f 326 327 337 336
f 327 328 338 337
f 328 329 339 338
f 329 330 340 339
f 330 321 331 340
f 331 332 342 341
f 332 333 343 342
f 333 334 344 343
f 334 335 345 344
f 335 336 346 345
f 336 337 347 346
f 337 338 348 347
f 338 339 349 348
f 339 340 350 349
f 340 331 341 350
f 341 342 352 351
f 342 343 353 352
f 343 344 354 353
f 344 345 355 354
f 345 346 356 355
f 346 347 357 356
f 347 348 358 357
f 348 349 359 358
f 349 350 360 359
f 350 341 351 360
f 351 352 362 361
f 352 353 363 362
f 353 354 364 363
f 354 355 365 364
f 355 356 366 365
f 356 357 367 366
f 357 358 368 367
f 358 359 369 368
f 359 360 370 369
f 360 351 361 370
f 361 362 372 371
f 362 363 373 372
f 363 364 374 373
f 364 365 375 374
f 365 366 376 375
f 366 367 377 376
f 367 368 378 377
f 368 369 379 378
f 369 370 380 379
f 370 361 371 380
g HorsePole4
usemtl CAROUSEL_GOLD
f 381 382 389 388
f 382 383 390 389
f 383 384 391 390
f 384 385 392 391
f 385 386 393 392
f 386 387 394 393
f 387 381 388 394
g HorseBody5
usemtl CAROUSEL_CREAM
f 395 396 406 405
f 396 397 407 406
f 397 398 408 407
f 398 399 409 408
f 399 400 410 409
f 400 401 411 410
f 401 402 412 411
f 402 403 413 412
f 403 404 414 413
f 404 395 405 414
f 405 406 416 415
f 406 407 417 416
f 407 408 418 417
f 408 409 419 418
f 409 410 420 419
f 410 411 421 420
f 411 412 422 421
f 412 413 423 422
f 413 414 424 423
f 414 405 415 424
f 415 416 426 425
f 416 417 427 426
f 417 418 428 427
f 418 419 429 428
f 419 420 430 429
f 420 421 431 430
f 421 422 432 431
f 422 423 433 432
f 423 424 434 433
f 424 415 425 434
f 425 426 436 435
f 426 427 437 436
f 427 428 438 437
f 428 429 439 438
f 429 430 440 439
f 430 431 441 440
f 431 432 442 441
f 432 433 443 442
f 433 434 444 443
f 434 425 435 444
f 435 436 446 445
f 436 437 447 446
f 437 438 448 447
f 438 439 449 448
f 439 440 450 449
f 440 441 451 450
f 441 442 452 451
f 442 443 453 452
f 443 444 454 453
f 444 435 445 454
g HorsePole5
usemtl CAROUSEL_GOLD
f 455 456 463 462
f 456 457 464 463
f 457 458 465 464
f 458 459 466 465
f 459 460 467 466
f 460 461 468 467
f 461 455 462 468
g HorseBody6
usemtl CAROUSEL_CREAM
f 469 470 480 479
f 470 471 481 480
f 471 472 482 481
f 472 473 483 482
f 473 474 484 483
f 474 475 485 484
f 475 476 486 485
f 476 477 487 486
f 477 478 488 487
f 478 469 479 488
f 479 480 490 489
f 480 481 491 490
f 481 482 492 491
f 482 483 493 492
f 483 484 494 493
f 484 485 495 494
f 485 486 496 495
f 486 487 497 496
f 487 488 498 497
f 488 479 489 498
f 489 490 500 499
f 490 491 501 500
f 491 492 502 501
f 492 493 503 502
f 493 494 504 503
f 494 495 505 504
f 495 496 506 505
f 496 497 507 506
f 497 498 508 507
f 498 489 499 508
f 499 500 510 509
f 500 501 511 510
f 501 502 512 511
f 502 503 513 512
f 503 504 514 513
f 504 505 515 514
f 505 506 516 515
f 506 507 517 516
f 507 508 518 517
f 508 499 509 518
f 509 510 520 519
f 510 511 521 520
f 511 512 522 521
f 512 513 523 522
f 513 514 524 523
f 514 515 525 524
f 515 516 526 525
f 516 517 527 526
f 517 518 528 527
f 518 509 519 528
g HorsePole6
usemtl CAROUSEL_GOLD
f 529 530 537 536
f 530 531 538 537
f 531 532 539 538
f 532 533 540 539
f 533 534 541 540
f 534 535 542 541
f 535 529 536 542
g HorseBody7
usemtl CAROUSEL_CREAM
f 543 544 554 553
f 544 545 555 554
f 545 546 556 555
f 546 547 557 556
f 547 548 558 557
f 548 549 559 558
f 549 550 560 559
f 550 551 561 560
f 551 552 562 561
f 552 543 553 562
f 553 554 564 563
f 554 555 565 564
f 555 556 566 565
f 556 557 567 566
f 557 558 568 567
f 558 559 569 568
f 559 560 570 569
f 560 561 571 570
f 561 562 572 571
f 562 553 563 572
f 563 564 574 573
f 564 565 575 574
f 565 566 576 575
f 566 567 577 576
f 567 568 578 577
f 568 569 579 578
f 569 570 580 579
f 570 571 581 580
f 571 572 582 581
f 572 563 573 582
f 573 574 584 583
f 574 575 585 584
f 575 576 586 585
f 576 577 587 586
f 577 578 588 587
f 578 579 589 588
f 579 580 590 589
f 580 581 591 590
f 581 582 592 591
f 582 573 583 592
f 583 584 594 593
f 584 585 595 594
f 585 586 596 595
f 586 587 597 596
f 587 588 598 597
f 588 589 599 598
f 589 590 600 599
f 590 591 601 600
f 591 592 602 601
f 592 583 593 602
g HorsePole7
usemtl CAROUSEL_GOLD
f 603 604 611 610
f 604 605 612 611
f 605 606 613 612
f 606 607 614 613
f 607 608 615 614
f 608 609 616 615
f 609 603 610 616
g NinthRiderShadow
usemtl SHADOW_PURPLE
f 617 618 630 629
f 618 619 631 630
f 619 620 632 631
f 620 621 633 632
f 621 622 634 633
f 622 623 635 634
f 623 624 636 635
f 624 625 637 636
f 625 626 638 637
f 626 627 639 638
f 627 628 640 639
f 628 617 629 640
f 629 630 642 641
f 630 631 643 642
f 631 632 644 643
f 632 633 645 644
f 633 634 646 645
f 634 635 647 646
f 635 636 648 647
f 636 637 649 648
f 637 638 650 649
f 638 639 651 650
f 639 640 652 651
f 640 629 641 652
f 641 642 654 653
f 642 643 655 654
f 643 644 656 655
f 644 645 657 656
f 645 646 658 657
f 646 647 659 658
f 647 648 660 659
f 648 649 661 660
f 649 650 662 661
f 650 651 663 662
f 651 652 664 663
f 652 641 653 664
f 653 654 666 665
f 654 655 667 666
f 655 656 668 667
f 656 657 669 668
f 657 658 670 669
f 658 659 671 670
f 659 660 672 671
f 660 661 673 672
f 661 662 674 673
f 662 663 675 674
f 663 664 676 675
f 664 653 665 676
f 665 666 678 677
f 666 667 679 678
f 667 668 680 679
f 668 669 681 680
f 669 670 682 681
f 670 671 683 682
f 671 672 684 683
f 672 673 685 684
f 673 674 686 685
f 674 675 687 686
f 675 676 688 687
f 676 665 677 688
f 677 678 690 689
f 678 679 691 690
f 679 680 692 691
f 680 681 693 692
f 681 682 694 693
f 682 683 695 694
f 683 684 696 695
f 684 685 697 696
f 685 686 698 697
f 686 687 699 698
f 687 688 700 699
f 688 677 689 700
g NinthHead
f 701 702 712 711
f 702 703 713 712
f 703 704 714 713
f 704 705 715 714
f 705 706 716 715
f 706 707 717 716
f 707 708 718 717
f 708 709 719 718
f 709 710 720 719
f 710 701 711 720
f 711 712 722 721
f 712 713 723 722
f 713 714 724 723
f 714 715 725 724
f 715 716 726 725
f 716 717 727 726
f 717 718 728 727
f 718 719 729 728
f 719 720 730 729
f 720 711 721 730
f 721 722 732 731
f 722 723 733 732
f 723 724 734 733
f 724 725 735 734
f 725 726 736 735
f 726 727 737 736
f 727 728 738 737
f 728 729 739 738
f 729 730 740 739
f 730 721 731 740
f 731 732 742 741
f 732 733 743 742
f 733 734 744 743
f 734 735 745 744
f 735 736 746 745
f 736 737 747 746
f 737 738 748 747
f 738 739 749 748
f 739 740 750 749
f 740 731 741 750
f 741 742 752 751
f 742 743 753 752
f 743 744 754 753
f 744 745 755 754
f 745 746 756 755
f 746 747 757 756
f 747 748 758 757
f 748 749 759 758
f 749 750 760 759
f 750 741 751 760
g ScratchDate
usemtl INK_RED
f 761 762 763 764
f 765 768 767 766
f 761 765 766 762
f 762 766 767 763
f 763 767 768 764
f 765 761 764 768
