# park_01_torn_ticket - project-original horror lore prop
mtllib horror-lore.mtl
o park_01_torn_ticket
v -1.55 -0.68 0.15
v -0.1 -0.68 0.15
v 0.02 -0.45 0.15
v -0.12 -0.22 0.15
v 0.04 0.02 0.15
v -0.14 0.26 0.15
v -0.02 0.5 0.15
v -0.18 0.68 0.15
v -1.55 0.68 0.15
v -1.55 -0.68 0.29
v -0.1 -0.68 0.29
v 0.02 -0.45 0.29
v -0.12 -0.22 0.29
v 0.04 0.02 0.29
v -0.14 0.26 0.29
v -0.02 0.5 0.29
v -0.18 0.68 0.29
v -1.55 0.68 0.29
v 0.14 -0.68 0.17
v 1.55 -0.68 0.17
v 1.55 0.68 0.17
v 0.18 0.68 0.17
v 0.03 0.48 0.17
v 0.16 0.24 0.17
v 0.02 0.02 0.17
v 0.17 -0.2 0.17
v 0.02 -0.44 0.17
v 0.14 -0.68 0.31
v 1.55 -0.68 0.31
v 1.55 0.68 0.31
v 0.18 0.68 0.31
v 0.03 0.48 0.31
v 0.16 0.24 0.31
v 0.02 0.02 0.31
v 0.17 -0.2 0.31
v 0.02 -0.44 0.31
v -1.35 0 0.295
v -1.35 0 0.295
v -1.35 0 0.295
v -1.35 0 0.295
v -1.35 0 0.295
v -1.35 0 0.295
v -1.35 0 0.295
v -1.35 0 0.295
v -1.35 0 0.295
v -1.35 0 0.295
v -1.30298 0 0.29977
v -1.31196 0.02764 0.29977
v -1.33547 0.04472 0.29977
v -1.36453 0.04472 0.29977
v -1.38804 0.02764 0.29977
v -1.39702 0 0.29977
v -1.38804 -0.02764 0.29977
v -1.36453 -0.04472 0.29977
v -1.33547 -0.04472 0.29977
v -1.31196 -0.02764 0.29977
v -1.27392 0 0.31227
v -1.28845 0.04472 0.31227
v -1.32649 0.07236 0.31227
v -1.37351 0.07236 0.31227
v -1.41155 0.04472 0.31227
v -1.42608 0 0.31227
v -1.41155 -0.04472 0.31227
v -1.37351 -0.07236 0.31227
v -1.32649 -0.07236 0.31227
v -1.28845 -0.04472 0.31227
v -1.27392 0 0.32773
v -1.28845 0.04472 0.32773
v -1.32649 0.07236 0.32773
v -1.37351 0.07236 0.32773
v -1.41155 0.04472 0.32773
v -1.42608 0 0.32773
v -1.41155 -0.04472 0.32773
v -1.37351 -0.07236 0.32773
v -1.32649 -0.07236 0.32773
v -1.28845 -0.04472 0.32773
v -1.30298 0 0.34023
v -1.31196 0.02764 0.34023
v -1.33547 0.04472 0.34023
v -1.36453 0.04472 0.34023
v -1.38804 0.02764 0.34023
v -1.39702 0 0.34023
v -1.38804 -0.02764 0.34023
v -1.36453 -0.04472 0.34023
v -1.33547 -0.04472 0.34023
v -1.31196 -0.02764 0.34023
v -1.35 0 0.345
v -1.35 0 0.345
v -1.35 0 0.345
v -1.35 0 0.345
v -1.35 0 0.345
v -1.35 0 0.345
v -1.35 0 0.345
v -1.35 0 0.345
v -1.35 0 0.345
v -1.35 0 0.345
v -1.18 0 0.295
v -1.18 0 0.295
v -1.18 0 0.295
v -1.18 0 0.295
v -1.18 0 0.295
v -1.18 0 0.295
v -1.18 0 0.295
v -1.18 0 0.295
v -1.18 0 0.295
v -1.18 0 0.295
v -1.13298 0 0.29977
v -1.14196 0.02764 0.29977
v -1.16547 0.04472 0.29977
v -1.19453 0.04472 0.29977
v -1.21804 0.02764 0.29977
v -1.22702 0 0.29977
v -1.21804 -0.02764 0.29977
v -1.19453 -0.04472 0.29977
v -1.16547 -0.04472 0.29977
v -1.14196 -0.02764 0.29977
v -1.10392 0 0.31227
v -1.11845 0.04472 0.31227
v -1.15649 0.07236 0.31227
v -1.20351 0.07236 0.31227
v -1.24155 0.04472 0.31227
v -1.25608 0 0.31227
v -1.24155 -0.04472 0.31227
v -1.20351 -0.07236 0.31227
v -1.15649 -0.07236 0.31227
v -1.11845 -0.04472 0.31227
v -1.10392 0 0.32773
v -1.11845 0.04472 0.32773
v -1.15649 0.07236 0.32773
v -1.20351 0.07236 0.32773
v -1.24155 0.04472 0.32773
v -1.25608 0 0.32773
v -1.24155 -0.04472 0.32773
v -1.20351 -0.07236 0.32773
v -1.15649 -0.07236 0.32773
v -1.11845 -0.04472 0.32773
v -1.13298 0 0.34023
v -1.14196 0.02764 0.34023
v -1.16547 0.04472 0.34023
v -1.19453 0.04472 0.34023
v -1.21804 0.02764 0.34023
v -1.22702 0 0.34023
v -1.21804 -0.02764 0.34023
v -1.19453 -0.04472 0.34023
v -1.16547 -0.04472 0.34023
v -1.14196 -0.02764 0.34023
v -1.18 0 0.345
v -1.18 0 0.345
v -1.18 0 0.345
v -1.18 0 0.345
v -1.18 0 0.345
v -1.18 0 0.345
v -1.18 0 0.345
v -1.18 0 0.345
v -1.18 0 0.345
v -1.18 0 0.345
v 1.18 0 0.295
v 1.18 0 0.295
v 1.18 0 0.295
v 1.18 0 0.295
v 1.18 0 0.295
v 1.18 0 0.295
v 1.18 0 0.295
v 1.18 0 0.295
v 1.18 0 0.295
v 1.18 0 0.295
v 1.22702 0 0.29977
v 1.21804 0.02764 0.29977
v 1.19453 0.04472 0.29977
v 1.16547 0.04472 0.29977
v 1.14196 0.02764 0.29977
v 1.13298 0 0.29977
v 1.14196 -0.02764 0.29977
v 1.16547 -0.04472 0.29977
v 1.19453 -0.04472 0.29977
v 1.21804 -0.02764 0.29977
v 1.25608 0 0.31227
v 1.24155 0.04472 0.31227
v 1.20351 0.07236 0.31227
v 1.15649 0.07236 0.31227
v 1.11845 0.04472 0.31227
v 1.10392 0 0.31227
v 1.11845 -0.04472 0.31227
v 1.15649 -0.07236 0.31227
v 1.20351 -0.07236 0.31227
v 1.24155 -0.04472 0.31227
v 1.25608 0 0.32773
v 1.24155 0.04472 0.32773
v 1.20351 0.07236 0.32773
v 1.15649 0.07236 0.32773
v 1.11845 0.04472 0.32773
v 1.10392 0 0.32773
v 1.11845 -0.04472 0.32773
v 1.15649 -0.07236 0.32773
v 1.20351 -0.07236 0.32773
v 1.24155 -0.04472 0.32773
v 1.22702 0 0.34023
v 1.21804 0.02764 0.34023
v 1.19453 0.04472 0.34023
v 1.16547 0.04472 0.34023
v 1.14196 0.02764 0.34023
v 1.13298 0 0.34023
v 1.14196 -0.02764 0.34023
v 1.16547 -0.04472 0.34023
v 1.19453 -0.04472 0.34023
v 1.21804 -0.02764 0.34023
v 1.18 0 0.345
v 1.18 0 0.345
v 1.18 0 0.345
v 1.18 0 0.345
v 1.18 0 0.345
v 1.18 0 0.345
v 1.18 0 0.345
v 1.18 0 0.345
v 1.18 0 0.345
v 1.18 0 0.345
v 1.35 0 0.295
v 1.35 0 0.295
v 1.35 0 0.295
v 1.35 0 0.295
v 1.35 0 0.295
v 1.35 0 0.295
v 1.35 0 0.295
v 1.35 0 0.295
v 1.35 0 0.295
v 1.35 0 0.295
v 1.39702 0 0.29977
v 1.38804 0.02764 0.29977
v 1.36453 0.04472 0.29977
v 1.33547 0.04472 0.29977
v 1.31196 0.02764 0.29977
v 1.30298 0 0.29977
v 1.31196 -0.02764 0.29977
v 1.33547 -0.04472 0.29977
v 1.36453 -0.04472 0.29977
v 1.38804 -0.02764 0.29977
v 1.42608 0 0.31227
v 1.41155 0.04472 0.31227
v 1.37351 0.07236 0.31227
v 1.32649 0.07236 0.31227
v 1.28845 0.04472 0.31227
v 1.27392 0 0.31227
v 1.28845 -0.04472 0.31227
v 1.32649 -0.07236 0.31227
v 1.37351 -0.07236 0.31227
v 1.41155 -0.04472 0.31227
v 1.42608 0 0.32773
v 1.41155 0.04472 0.32773
v 1.37351 0.07236 0.32773
v 1.32649 0.07236 0.32773
v 1.28845 0.04472 0.32773
v 1.27392 0 0.32773
v 1.28845 -0.04472 0.32773
v 1.32649 -0.07236 0.32773
v 1.37351 -0.07236 0.32773
v 1.41155 -0.04472 0.32773
v 1.39702 0 0.34023
v 1.38804 0.02764 0.34023
v 1.36453 0.04472 0.34023
v 1.33547 0.04472 0.34023
v 1.31196 0.02764 0.34023
v 1.30298 0 0.34023
v 1.31196 -0.02764 0.34023
v 1.33547 -0.04472 0.34023
v 1.36453 -0.04472 0.34023
v 1.38804 -0.02764 0.34023
v 1.35 0 0.345
v 1.35 0 0.345
v 1.35 0 0.345
v 1.35 0 0.345
v 1.35 0 0.345
v 1.35 0 0.345
v 1.35 0 0.345
v 1.35 0 0.345
v 1.35 0 0.345
v 1.35 0 0.345
v 0.28 -0.35 0.3275
v 1.16 -0.35 0.3275
v 1.16 -0.25 0.3275
v 0.28 -0.25 0.3275
v 0.28 -0.35 0.3525
v 1.16 -0.35 0.3525
v 1.16 -0.25 0.3525
v 0.28 -0.25 0.3525
v 0.395 -0.07 0.3275
v 0.445 -0.07 0.3275
v 0.445 0.43 0.3275
v 0.395 0.43 0.3275
v 0.395 -0.07 0.3525
v 0.445 -0.07 0.3525
v 0.445 0.43 0.3525
v 0.395 0.43 0.3525
v 0.575 -0.07 0.3275
v 0.625 -0.07 0.3275
v 0.625 0.43 0.3275
v 0.575 0.43 0.3275
v 0.575 -0.07 0.3525
v 0.625 -0.07 0.3525
v 0.625 0.43 0.3525
v 0.575 0.43 0.3525
v 0.755 -0.07 0.3275
v 0.805 -0.07 0.3275
v 0.805 0.43 0.3275
v 0.755 0.43 0.3275
v 0.755 -0.07 0.3525
v 0.805 -0.07 0.3525
v 0.805 0.43 0.3525
v 0.755 0.43 0.3525
v 0.935 -0.07 0.3275
v 0.985 -0.07 0.3275
v 0.985 0.43 0.3275
v 0.935 0.43 0.3275
v 0.935 -0.07 0.3525
v 0.985 -0.07 0.3525
v 0.985 0.43 0.3525
v 0.935 0.43 0.3525
v 1.115 -0.07 0.3275
v 1.165 -0.07 0.3275
v 1.165 0.43 0.3275
v 1.115 0.43 0.3275
v 1.115 -0.07 0.3525
v 1.165 -0.07 0.3525
v 1.165 0.43 0.3525
v 1.115 0.43 0.3525
v 1.295 -0.07 0.3275
v 1.345 -0.07 0.3275
v 1.345 0.43 0.3275
v 1.295 0.43 0.3275
v 1.295 -0.07 0.3525
v 1.345 -0.07 0.3525
v 1.345 0.43 0.3525
v 1.295 0.43 0.3525
v -0.75 0.08 0.315
v -0.75 0.08 0.315
v -0.75 0.08 0.315
v -0.75 0.08 0.315
v -0.75 0.08 0.315
v -0.75 0.08 0.315
v -0.75 0.08 0.315
v -0.75 0.08 0.315
v -0.75 0.08 0.315
v -0.75 0.08 0.315
v -0.75 0.08 0.315
v -0.75 0.08 0.315
v -0.58 0.08 0.31835
v -0.60278 0.165 0.31835
v -0.665 0.22722 0.31835
v -0.75 0.25 0.31835
v -0.835 0.22722 0.31835
v -0.89722 0.165 0.31835
v -0.92 0.08 0.31835
v -0.89722 -0.005 0.31835
v -0.835 -0.06722 0.31835
v -0.75 -0.09 0.31835
v -0.665 -0.06722 0.31835
v -0.60278 -0.005 0.31835
v -0.45555 0.08 0.3275
v -0.495 0.22722 0.3275
v -0.60278 0.335 0.3275
v -0.75 0.37445 0.3275
v -0.89722 0.335 0.3275
v -1.005 0.22722 0.3275
v -1.04445 0.08 0.3275
v -1.005 -0.06722 0.3275
v -0.89722 -0.175 0.3275
v -0.75 -0.21445 0.3275
v -0.60278 -0.175 0.3275
v -0.495 -0.06722 0.3275
v -0.41 0.08 0.34
v -0.45555 0.25 0.34
v -0.58 0.37445 0.34
v -0.75 0.42 0.34
v -0.92 0.37445 0.34
v -1.04445 0.25 0.34
v -1.09 0.08 0.34
v -1.04445 -0.09 0.34
v -0.92 -0.21445 0.34
v -0.75 -0.26 0.34
v -0.58 -0.21445 0.34
v -0.45555 -0.09 0.34
v -0.45555 0.08 0.3525
v -0.495 0.22722 0.3525
v -0.60278 0.335 0.3525
v -0.75 0.37445 0.3525
v -0.89722 0.335 0.3525
v -1.005 0.22722 0.3525
v -1.04445 0.08 0.3525
v -1.005 -0.06722 0.3525
v -0.89722 -0.175 0.3525
v -0.75 -0.21445 0.3525
v -0.60278 -0.175 0.3525
v -0.495 -0.06722 0.3525
v -0.58 0.08 0.36165
v -0.60278 0.165 0.36165
v -0.665 0.22722 0.36165
v -0.75 0.25 0.36165
v -0.835 0.22722 0.36165
v -0.89722 0.165 0.36165
v -0.92 0.08 0.36165
v -0.89722 -0.005 0.36165
v -0.835 -0.06722 0.36165
v -0.75 -0.09 0.36165
v -0.665 -0.06722 0.36165
v -0.60278 -0.005 0.36165
v -0.75 0.08 0.365
v -0.75 0.08 0.365
v -0.75 0.08 0.365
v -0.75 0.08 0.365
v -0.75 0.08 0.365
v -0.75 0.08 0.365
v -0.75 0.08 0.365
v -0.75 0.08 0.365
v -0.75 0.08 0.365
v -0.75 0.08 0.365
v -0.75 0.08 0.365
v -0.75 0.08 0.365
v 0.52 0.51 0.3275
v 1.04 0.51 0.3275
v 1.04 0.57 0.3275
v 0.52 0.57 0.3275
v 0.52 0.51 0.3525
v 1.04 0.51 0.3525
v 1.04 0.57 0.3525
v 0.52 0.57 0.3525
g TicketLeft
usemtl TICKET_BLUE
f 1 2 11 10
f 2 3 12 11
f 3 4 13 12
f 4 5 14 13
f 5 6 15 14
f 6 7 16 15
f 7 8 17 16
f 8 9 18 17
f 9 1 10 18
f 9 8 7 6 5 4 3 2 1
f 10 11 12 13 14 15 16 17 18
g TicketRight
usemtl TICKET_CREAM
f 19 20 29 28
f 20 21 30 29
f 21 22 31 30
f 22 23 32 31
f 23 24 33 32
f 24 25 34 33
f 25 26 35 34
f 26 27 36 35
f 27 19 28 36
f 27 26 25 24 23 22 21 20 19
f 28 29 30 31 32 33 34 35 36
g Punch-1.35
usemtl TICKET_DARK
f 37 38 48 47
f 38 39 49 48
f 39 40 50 49
f 40 41 51 50
f 41 42 52 51
f 42 43 53 52
f 43 44 54 53
f 44 45 55 54
f 45 46 56 55
f 46 37 47 56
f 47 48 58 57
f 48 49 59 58
f 49 50 60 59
f 50 51 61 60
f 51 52 62 61
f 52 53 63 62
f 53 54 64 63
f 54 55 65 64
f 55 56 66 65
f 56 47 57 66
f 57 58 68 67
f 58 59 69 68
f 59 60 70 69
f 60 61 71 70
f 61 62 72 71
f 62 63 73 72
f 63 64 74 73
f 64 65 75 74
f 65 66 76 75
f 66 57 67 76
f 67 68 78 77
f 68 69 79 78
f 69 70 80 79
f 70 71 81 80
f 71 72 82 81
f 72 73 83 82
f 73 74 84 83
f 74 75 85 84
f 75 76 86 85
f 76 67 77 86
f 77 78 88 87
f 78 79 89 88
f 79 80 90 89
f 80 81 91 90
f 81 82 92 91
f 82 83 93 92
f 83 84 94 93
f 84 85 95 94
f 85 86 96 95
f 86 77 87 96
g Punch-1.18
f 97 98 108 107
f 98 99 109 108
f 99 100 110 109
f 100 101 111 110
f 101 102 112 111
f 102 103 113 112
f 103 104 114 113
f 104 105 115 114
f 105 106 116 115
f 106 97 107 116
f 107 108 118 117
f 108 109 119 118
f 109 110 120 119
f 110 111 121 120
f 111 112 122 121
f 112 113 123 122
f 113 114 124 123
f 114 115 125 124
f 115 116 126 125
f 116 107 117 126
f 117 118 128 127
f 118 119 129 128
f 119 120 130 129
f 120 121 131 130
f 121 122 132 131
f 122 123 133 132
f 123 124 134 133
f 124 125 135 134
f 125 126 136 135
f 126 117 127 136
f 127 128 138 137
f 128 129 139 138
f 129 130 140 139
f 130 131 141 140
f 131 132 142 141
f 132 133 143 142
f 133 134 144 143
f 134 135 145 144
f 135 136 146 145
f 136 127 137 146
f 137 138 148 147
f 138 139 149 148
f 139 140 150 149
f 140 141 151 150
f 141 142 152 151
f 142 143 153 152
f 143 144 154 153
f 144 145 155 154
f 145 146 156 155
f 146 137 147 156
g Punch1.18
f 157 158 168 167
f 158 159 169 168
f 159 160 170 169
f 160 161 171 170
f 161 162 172 171
f 162 163 173 172
f 163 164 174 173
f 164 165 175 174
f 165 166 176 175
f 166 157 167 176
f 167 168 178 177
f 168 169 179 178
f 169 170 180 179
f 170 171 181 180
f 171 172 182 181
f 172 173 183 182
f 173 174 184 183
f 174 175 185 184
f 175 176 186 185
f 176 167 177 186
f 177 178 188 187
f 178 179 189 188
f 179 180 190 189
f 180 181 191 190
f 181 182 192 191
f 182 183 193 192
f 183 184 194 193
f 184 185 195 194
f 185 186 196 195
f 186 177 187 196
f 187 188 198 197
f 188 189 199 198
f 189 190 200 199
f 190 191 201 200
f 191 192 202 201
f 192 193 203 202
f 193 194 204 203
f 194 195 205 204
f 195 196 206 205
f 196 187 197 206
f 197 198 208 207
f 198 199 209 208
f 199 200 210 209
f 200 201 211 210
f 201 202 212 211
f 202 203 213 212
f 203 204 214 213
f 204 205 215 214
f 205 206 216 215
f 206 197 207 216
g Punch1.35
f 217 218 228 227
f 218 219 229 228
f 219 220 230 229
f 220 221 231 230
f 221 222 232 231
f 222 223 233 232
f 223 224 234 233
f 224 225 235 234
f 225 226 236 235
f 226 217 227 236
f 227 228 238 237
f 228 229 239 238
f 229 230 240 239
f 230 231 241 240
f 231 232 242 241
f 232 233 243 242
f 233 234 244 243
f 234 235 245 244
f 235 236 246 245
f 236 227 237 246
f 237 238 248 247
f 238 239 249 248
f 239 240 250 249
f 240 241 251 250
f 241 242 252 251
f 242 243 253 252
f 243 244 254 253
f 244 245 255 254
f 245 246 256 255
f 246 237 247 256
f 247 248 258 257
f 248 249 259 258
f 249 250 260 259
f 250 251 261 260
f 251 252 262 261
f 252 253 263 262
f 253 254 264 263
f 254 255 265 264
f 255 256 266 265
f 256 247 257 266
f 257 258 268 267
f 258 259 269 268
f 259 260 270 269
f 260 261 271 270
f 261 262 272 271
f 262 263 273 272
f 263 264 274 273
f 264 265 275 274
f 265 266 276 275
f 266 257 267 276
g Serial
usemtl INK_DARK
f 277 278 279 280
f 281 284 283 282
f 277 281 282 278
f 278 282 283 279
f 279 283 284 280
f 281 277 280 284
g Barcode0
f 285 286 287 288
f 289 292 291 290
f 285 289 290 286
f 286 290 291 287
f 287 291 292 288
f 289 285 288 292
g Barcode1
f 293 294 295 296
f 297 300 299 298
f 293 297 298 294
f 294 298 299 295
f 295 299 300 296
f 297 293 296 300
g Barcode2
f 301 302 303 304
f 305 308 307 306
f 301 305 306 302
f 302 306 307 303
f 303 307 308 304
f 305 301 304 308
g Barcode3
f 309 310 311 312
f 313 316 315 314
f 309 313 314 310
f 310 314 315 311
f 311 315 316 312
f 313 309 312 316
g Barcode4
f 317 318 319 320
f 321 324 323 322
f 317 321 322 318
f 318 322 323 319
f 319 323 324 320
f 321 317 320 324
g Barcode5
f 325 326 327 328
f 329 332 331 330
f 325 329 330 326
f 326 330 331 327
f 327 331 332 328
f 329 325 328 332
g StarSeal
usemtl TICKET_GOLD
f 333 334 346 345
f 334 335 347 346
f 335 336 348 347
f 336 337 349 348
f 337 338 350 349
f 338 339 351 350
f 339 340 352 351
f 340 341 353 352
f 341 342 354 353
f 342 343 355 354
f 343 344 356 355
f 344 333 345 356
f 345 346 358 357
f 346 347 359 358
f 347 348 360 359
f 348 349 361 360
f 349 350 362 361
f 350 351 363 362
f 351 352 364 363
f 352 353 365 364
f 353 354 366 365
f 354 355 367 366
f 355 356 368 367
f 356 345 357 368
f 357 358 370 369
f 358 359 371 370
f 359 360 372 371
f 360 361 373 372
f 361 362 374 373
f 362 363 375 374
f 363 364 376 375
f 364 365 377 376
f 365 366 378 377
f 366 367 379 378
f 367 368 380 379
f 368 357 369 380
f 369 370 382 381
f 370 371 383 382
f 371 372 384 383
f 372 373 385 384
f 373 374 386 385
f 374 375 387 386
f 375 376 388 387
f 376 377 389 388
f 377 378 390 389
f 378 379 391 390
f 379 380 392 391
f 380 369 381 392
f 381 382 394 393
f 382 383 395 394
f 383 384 396 395
f 384 385 397 396
f 385 386 398 397
f 386 387 399 398
f 387 388 400 399
f 388 389 401 400
f 389 390 402 401
f 390 391 403 402
f 391 392 404 403
f 392 381 393 404
f 393 394 406 405
f 394 395 407 406
f 395 396 408 407
f 396 397 409 408
f 397 398 410 409
f 398 399 411 410
f 399 400 412 411
f 400 401 413 412
f 401 402 414 413
f 402 403 415 414
f 403 404 416 415
f 404 393 405 416
g GhostCount
usemtl INK_RED
f 417 418 419 420
f 421 424 423 422
f 417 421 422 418
f 418 422 423 419
f 419 423 424 420
f 421 417 420 424
