# park_03_clown_lost_item - project-original horror lore prop
mtllib horror-lore.mtl
o park_03_clown_lost_item
v -1.25 -0.8 0.1
v 1.25 -0.8 0.1
v 1.25 1.4 0.1
v -1.25 1.4 0.1
v -1.25 -0.8 0.26
v 1.25 -0.8 0.26
v 1.25 1.4 0.26
v -1.25 1.4 0.26
v -0.775 -0.64 0.2875
v 0.775 -0.64 0.2875
v 0.775 -0.46 0.2875
v -0.775 -0.46 0.2875
v -0.775 -0.64 0.3125
v 0.775 -0.64 0.3125
v 0.775 -0.46 0.3125
v -0.775 -0.46 0.3125
v -0.895 -0.24 0.29
v 0.655 -0.24 0.29
v 0.655 -0.2 0.29
v -0.895 -0.2 0.29
v -0.895 -0.24 0.31
v 0.655 -0.24 0.31
v 0.655 -0.2 0.31
v -0.895 -0.2 0.31
v -0.895 0.06 0.29
v 0.655 0.06 0.29
v 0.655 0.1 0.29
v -0.895 0.1 0.29
v -0.895 0.06 0.31
v 0.655 0.06 0.31
v 0.655 0.1 0.31
v -0.895 0.1 0.31
v -0.895 0.36 0.29
v 0.655 0.36 0.29
v 0.655 0.4 0.29
v -0.895 0.4 0.29
v -0.895 0.36 0.31
v 0.655 0.36 0.31
v 0.655 0.4 0.31
v -0.895 0.4 0.31
v -0.895 0.66 0.29
v 0.655 0.66 0.29
v 0.655 0.7 0.29
v -0.895 0.7 0.29
v -0.895 0.66 0.31
v 0.655 0.66 0.31
v 0.655 0.7 0.31
v -0.895 0.7 0.31
v 0 -1.15 0.33
v 0 -1.15 0.33
v 0 -1.15 0.33
v 0 -1.15 0.33
v 0 -1.15 0.33
v 0 -1.15 0.33
v 0 -1.15 0.33
v 0 -1.15 0.33
v 0 -1.15 0.33
v 0 -1.15 0.33
v 0 -1.15 0.33
v 0 -1.15 0.33
v 0 -1.15 0.33
v 0 -1.15 0.33
v 0 -1.15 0.33
v 0 -1.15 0.33
v 0.199 -1.15 0.36425
v 0.18385 -1.07385 0.36425
v 0.14071 -1.00929 0.36425
v 0.07615 -0.96615 0.36425
v 0 -0.951 0.36425
v -0.07615 -0.96615 0.36425
v -0.14071 -1.00929 0.36425
v -0.18385 -1.07385 0.36425
v -0.199 -1.15 0.36425
v -0.18385 -1.22615 0.36425
v -0.14071 -1.29071 0.36425
v -0.07615 -1.33385 0.36425
v 0 -1.349 0.36425
v 0.07615 -1.33385 0.36425
v 0.14071 -1.29071 0.36425
v 0.18385 -1.22615 0.36425
v 0.3677 -1.15 0.4618
v 0.33971 -1.00929 0.4618
v 0.26 -0.89 0.4618
v 0.14071 -0.81029 0.4618
v 0 -0.7823 0.4618
v -0.14071 -0.81029 0.4618
v -0.26 -0.89 0.4618
v -0.33971 -1.00929 0.4618
v -0.3677 -1.15 0.4618
v -0.33971 -1.29071 0.4618
v -0.26 -1.41 0.4618
v -0.14071 -1.48971 0.4618
v 0 -1.5177 0.4618
v 0.14071 -1.48971 0.4618
v 0.26 -1.41 0.4618
v 0.33971 -1.29071 0.4618
v 0.48042 -1.15 0.60779
v 0.44385 -0.96615 0.60779
v 0.33971 -0.81029 0.60779
v 0.18385 -0.70615 0.60779
v 0 -0.66958 0.60779
v -0.18385 -0.70615 0.60779
v -0.33971 -0.81029 0.60779
v -0.44385 -0.96615 0.60779
v -0.48042 -1.15 0.60779
v -0.44385 -1.33385 0.60779
v -0.33971 -1.48971 0.60779
v -0.18385 -1.59385 0.60779
v 0 -1.63042 0.60779
v 0.18385 -1.59385 0.60779
v 0.33971 -1.48971 0.60779
v 0.44385 -1.33385 0.60779
v 0.52 -1.15 0.78
v 0.48042 -0.951 0.78
v 0.3677 -0.7823 0.78
v 0.199 -0.66958 0.78
v 0 -0.63 0.78
v -0.199 -0.66958 0.78
v -0.3677 -0.7823 0.78
v -0.48042 -0.951 0.78
v -0.52 -1.15 0.78
v -0.48042 -1.349 0.78
v -0.3677 -1.5177 0.78
v -0.199 -1.63042 0.78
v 0 -1.67 0.78
v 0.199 -1.63042 0.78
v 0.3677 -1.5177 0.78
v 0.48042 -1.349 0.78
v 0.48042 -1.15 0.95221
v 0.44385 -0.96615 0.95221
v 0.33971 -0.81029 0.95221
v 0.18385 -0.70615 0.95221
v 0 -0.66958 0.95221
v -0.18385 -0.70615 0.95221
v -0.33971 -0.81029 0.95221
v -0.44385 -0.96615 0.95221
v -0.48042 -1.15 0.95221
v -0.44385 -1.33385 0.95221
v -0.33971 -1.48971 0.95221
v -0.18385 -1.59385 0.95221
v 0 -1.63042 0.95221
v 0.18385 -1.59385 0.95221
v 0.33971 -1.48971 0.95221
v 0.44385 -1.33385 0.95221
v 0.3677 -1.15 1.0982
v 0.33971 -1.00929 1.0982
v 0.26 -0.89 1.0982
v 0.14071 -0.81029 1.0982
v 0 -0.7823 1.0982
v -0.14071 -0.81029 1.0982
v -0.26 -0.89 1.0982
v -0.33971 -1.00929 1.0982
v -0.3677 -1.15 1.0982
v -0.33971 -1.29071 1.0982
v -0.26 -1.41 1.0982
v -0.14071 -1.48971 1.0982
v 0 -1.5177 1.0982
v 0.14071 -1.48971 1.0982
v 0.26 -1.41 1.0982
v 0.33971 -1.29071 1.0982
v 0.199 -1.15 1.19575
v 0.18385 -1.07385 1.19575
v 0.14071 -1.00929 1.19575
v 0.07615 -0.96615 1.19575
v 0 -0.951 1.19575
v -0.07615 -0.96615 1.19575
v -0.14071 -1.00929 1.19575
v -0.18385 -1.07385 1.19575
v -0.199 -1.15 1.19575
v -0.18385 -1.22615 1.19575
v -0.14071 -1.29071 1.19575
v -0.07615 -1.33385 1.19575
v 0 -1.349 1.19575
v 0.07615 -1.33385 1.19575
v 0.14071 -1.29071 1.19575
v 0.18385 -1.22615 1.19575
v 0 -1.15 1.23
v 0 -1.15 1.23
v 0 -1.15 1.23
v 0 -1.15 1.23
v 0 -1.15 1.23
v 0 -1.15 1.23
v 0 -1.15 1.23
v 0 -1.15 1.23
v 0 -1.15 1.23
v 0 -1.15 1.23
v 0 -1.15 1.23
v 0 -1.15 1.23
v 0 -1.15 1.23
v 0 -1.15 1.23
v 0 -1.15 1.23
v 0 -1.15 1.23
v -0.16 -1.48 0.83
v -0.16 -1.48 0.83
v -0.16 -1.48 0.83
v -0.16 -1.48 0.83
v -0.16 -1.48 0.83
v -0.16 -1.48 0.83
v -0.16 -1.48 0.83
v -0.16 -1.48 0.83
v -0.16 -1.48 0.83
v -0.16 -1.48 0.83
v -0.08947 -1.48 0.84719
v -0.10294 -1.45236 0.84719
v -0.1382 -1.43528 0.84719
v -0.1818 -1.43528 0.84719
v -0.21706 -1.45236 0.84719
v -0.23053 -1.48 0.84719
v -0.21706 -1.50764 0.84719
v -0.1818 -1.52472 0.84719
v -0.1382 -1.52472 0.84719
v -0.10294 -1.50764 0.84719
v -0.04587 -1.48 0.89219
v -0.06767 -1.43528 0.89219
v -0.12473 -1.40764 0.89219
v -0.19527 -1.40764 0.89219
v -0.25233 -1.43528 0.89219
v -0.27413 -1.48 0.89219
v -0.25233 -1.52472 0.89219
v -0.19527 -1.55236 0.89219
v -0.12473 -1.55236 0.89219
v -0.06767 -1.52472 0.89219
v -0.04587 -1.48 0.94781
v -0.06767 -1.43528 0.94781
v -0.12473 -1.40764 0.94781
v -0.19527 -1.40764 0.94781
v -0.25233 -1.43528 0.94781
v -0.27413 -1.48 0.94781
v -0.25233 -1.52472 0.94781
v -0.19527 -1.55236 0.94781
v -0.12473 -1.55236 0.94781
v -0.06767 -1.52472 0.94781
v -0.08947 -1.48 0.99281
v -0.10294 -1.45236 0.99281
v -0.1382 -1.43528 0.99281
v -0.1818 -1.43528 0.99281
v -0.21706 -1.45236 0.99281
v -0.23053 -1.48 0.99281
v -0.21706 -1.50764 0.99281
v -0.1818 -1.52472 0.99281
v -0.1382 -1.52472 0.99281
v -0.10294 -1.50764 0.99281
v -0.16 -1.48 1.01
v -0.16 -1.48 1.01
v -0.16 -1.48 1.01
v -0.16 -1.48 1.01
v -0.16 -1.48 1.01
v -0.16 -1.48 1.01
v -0.16 -1.48 1.01
v -0.16 -1.48 1.01
v -0.16 -1.48 1.01
v -0.16 -1.48 1.01
v -0.665 0.7 0.42
v -0.68111 0.71691 0.38498
v -0.72 0.72391 0.37047
v -0.75889 0.71691 0.38498
v -0.775 0.7 0.42
v -0.75889 0.68309 0.45502
v -0.72 0.67609 0.46953
v -0.68111 0.68309 0.45502
v -0.675 1.28 0.7
v -0.68818 1.29383 0.67134
v -0.72 1.29956 0.65948
v -0.75182 1.29383 0.67134
v -0.765 1.28 0.7
v -0.75182 1.26617 0.72866
v -0.72 1.26044 0.74052
v -0.68818 1.26617 0.72866
v -0.72 1.38 0.56
v -0.72 1.38 0.56
v -0.72 1.38 0.56
v -0.72 1.38 0.56
v -0.72 1.38 0.56
v -0.72 1.38 0.56
v -0.72 1.38 0.56
v -0.72 1.38 0.56
v -0.72 1.38 0.56
v -0.72 1.38 0.56
v -0.72 1.38 0.56
v -0.72 1.38 0.56
v -0.6 1.38 0.58947
v -0.61608 1.44 0.58947
v -0.66 1.48392 0.58947
v -0.72 1.5 0.58947
v -0.78 1.48392 0.58947
v -0.82392 1.44 0.58947
v -0.84 1.38 0.58947
v -0.82392 1.32 0.58947
v -0.78 1.27608 0.58947
v -0.72 1.26 0.58947
v -0.66 1.27608 0.58947
v -0.61608 1.32 0.58947
v -0.51215 1.38 0.67
v -0.54 1.48392 0.67
v -0.61608 1.56 0.67
v -0.72 1.58785 0.67
v -0.82392 1.56 0.67
v -0.9 1.48392 0.67
v -0.92785 1.38 0.67
v -0.9 1.27608 0.67
v -0.82392 1.2 0.67
v -0.72 1.17215 0.67
v -0.61608 1.2 0.67
v -0.54 1.27608 0.67
v -0.48 1.38 0.78
v -0.51215 1.5 0.78
v -0.6 1.58785 0.78
v -0.72 1.62 0.78
v -0.84 1.58785 0.78
v -0.92785 1.5 0.78
v -0.96 1.38 0.78
v -0.92785 1.26 0.78
v -0.84 1.17215 0.78
v -0.72 1.14 0.78
v -0.6 1.17215 0.78
v -0.51215 1.26 0.78
v -0.51215 1.38 0.89
v -0.54 1.48392 0.89
v -0.61608 1.56 0.89
v -0.72 1.58785 0.89
v -0.82392 1.56 0.89
v -0.9 1.48392 0.89
v -0.92785 1.38 0.89
v -0.9 1.27608 0.89
v -0.82392 1.2 0.89
v -0.72 1.17215 0.89
v -0.61608 1.2 0.89
v -0.54 1.27608 0.89
v -0.6 1.38 0.97053
v -0.61608 1.44 0.97053
v -0.66 1.48392 0.97053
v -0.72 1.5 0.97053
v -0.78 1.48392 0.97053
v -0.82392 1.44 0.97053
v -0.84 1.38 0.97053
v -0.82392 1.32 0.97053
v -0.78 1.27608 0.97053
v -0.72 1.26 0.97053
v -0.66 1.27608 0.97053
v -0.61608 1.32 0.97053
v -0.72 1.38 1
v -0.72 1.38 1
v -0.72 1.38 1
v -0.72 1.38 1
v -0.72 1.38 1
v -0.72 1.38 1
v -0.72 1.38 1
v -0.72 1.38 1
v -0.72 1.38 1
v -0.72 1.38 1
v -0.72 1.38 1
v -0.72 1.38 1
v 0.33 0.585 0.31
v 0.91 0.585 0.31
v 0.91 0.655 0.31
v 0.33 0.655 0.31
v 0.33 0.585 0.33
v 0.91 0.585 0.33
v 0.91 0.655 0.33
v 0.33 0.655 0.33
v 0.8 0.9 0.322
v 0.8 0.9 0.322
v 0.8 0.9 0.322
v 0.8 0.9 0.322
v 0.8 0.9 0.322
v 0.8 0.9 0.322
v 0.8 0.9 0.322
v 0.8 0.9 0.322
v 0.8 0.9 0.322
v 0.8 0.9 0.322
v 0.8529 0.9 0.32544
v 0.8428 0.95182 0.32544
v 0.81635 0.98385 0.32544
v 0.78365 0.98385 0.32544
v 0.7572 0.95182 0.32544
v 0.7471 0.9 0.32544
v 0.7572 0.84818 0.32544
v 0.78365 0.81615 0.32544
v 0.81635 0.81615 0.32544
v 0.8428 0.84818 0.32544
v 0.8856 0.9 0.33444
v 0.86925 0.98385 0.33444
v 0.82645 1.03568 0.33444
v 0.77355 1.03568 0.33444
v 0.73075 0.98385 0.33444
v 0.7144 0.9 0.33444
v 0.73075 0.81615 0.33444
v 0.77355 0.76432 0.33444
v 0.82645 0.76432 0.33444
v 0.86925 0.81615 0.33444
v 0.8856 0.9 0.34556
v 0.86925 0.98385 0.34556
v 0.82645 1.03568 0.34556
v 0.77355 1.03568 0.34556
v 0.73075 0.98385 0.34556
v 0.7144 0.9 0.34556
v 0.73075 0.81615 0.34556
v 0.77355 0.76432 0.34556
v 0.82645 0.76432 0.34556
v 0.86925 0.81615 0.34556
v 0.8529 0.9 0.35456
v 0.8428 0.95182 0.35456
v 0.81635 0.98385 0.35456
v 0.78365 0.98385 0.35456
v 0.7572 0.95182 0.35456
v 0.7471 0.9 0.35456
v 0.7572 0.84818 0.35456
v 0.78365 0.81615 0.35456
v 0.81635 0.81615 0.35456
v 0.8428 0.84818 0.35456
v 0.8 0.9 0.358
v 0.8 0.9 0.358
v 0.8 0.9 0.358
v 0.8 0.9 0.358
v 0.8 0.9 0.358
v 0.8 0.9 0.358
v 0.8 0.9 0.358
v 0.8 0.9 0.358
v 0.8 0.9 0.358
v 0.8 0.9 0.358
g LostTag
usemtl TAG_YELLOW
f 1 2 3 4
f 5 8 7 6
f 1 5 6 2
f 2 6 7 3
f 3 7 8 4
f 5 1 4 8
g TagHeader
usemtl INK_RED
f 9 10 11 12
f 13 16 15 14
f 9 13 14 10
f 10 14 15 11
f 11 15 16 12
f 13 9 12 16
g FormLine0
usemtl INK_FADED
f 17 18 19 20
f 21 24 23 22
f 17 21 22 18
f 18 22 23 19
f 19 23 24 20
f 21 17 20 24
g FormLine1
f 25 26 27 28
f 29 32 31 30
f 25 29 30 26
f 26 30 31 27
f 27 31 32 28
f 29 25 28 32
g FormLine2
f 33 34 35 36
f 37 40 39 38
f 33 37 38 34
f 34 38 39 35
f 35 39 40 36
f 37 33 36 40
g FormLine3
f 41 42 43 44
f 45 48 47 46
f 41 45 46 42
f 42 46 47 43
f 43 47 48 44
f 45 41 44 48
g ClownNose
usemtl CLOWN_RED
f 49 50 66 65
f 50 51 67 66
f 51 52 68 67
f 52 53 69 68
f 53 54 70 69
f 54 55 71 70
f 55 56 72 71
f 56 57 73 72
f 57 58 74 73
f 58 59 75 74
f 59 60 76 75
f 60 61 77 76
f 61 62 78 77
f 62 63 79 78
f 63 64 80 79
f 64 49 65 80
f 65 66 82 81
f 66 67 83 82
f 67 68 84 83
f 68 69 85 84
f 69 70 86 85
f 70 71 87 86
f 71 72 88 87
f 72 73 89 88
f 73 74 90 89
f 74 75 91 90
f 75 76 92 91
f 76 77 93 92
f 77 78 94 93
f 78 79 95 94
f 79 80 96 95
f 80 65 81 96
f 81 82 98 97
f 82 83 99 98
f 83 84 100 99
f 84 85 101 100
f 85 86 102 101
f 86 87 103 102
f 87 88 104 103
f 88 89 105 104
f 89 90 106 105
f 90 91 107 106
f 91 92 108 107
f 92 93 109 108
f 93 94 110 109
f 94 95 111 110
f 95 96 112 111
f 96 81 97 112
f 97 98 114 113
f 98 99 115 114
f 99 100 116 115
f 100 101 117 116
f 101 102 118 117
f 102 103 119 118
f 103 104 120 119
f 104 105 121 120
f 105 106 122 121
f 106 107 123 122
f 107 108 124 123
f 108 109 125 124
f 109 110 126 125
f 110 111 127 126
f 111 112 128 127
f 112 97 113 128
f 113 114 130 129
f 114 115 131 130
f 115 116 132 131
f 116 117 133 132
f 117 118 134 133
f 118 119 135 134
f 119 120 136 135
f 120 121 137 136
f 121 122 138 137
f 122 123 139 138
f 123 124 140 139
f 124 125 141 140
f 125 126 142 141
f 126 127 143 142
f 127 128 144 143
f 128 113 129 144
f 129 130 146 145
f 130 131 147 146
f 131 132 148 147
f 132 133 149 148
f 133 134 150 149
f 134 135 151 150
f 135 136 152 151
f 136 137 153 152
f 137 138 154 153
f 138 139 155 154
f 139 140 156 155
f 140 141 157 156
f 141 142 158 157
f 142 143 159 158
f 143 144 160 159
f 144 129 145 160
f 145 146 162 161
f 146 147 163 162
f 147 148 164 163
f 148 149 165 164
f 149 150 166 165
f 150 151 167 166
f 151 152 168 167
f 152 153 169 168
f 153 154 170 169
f 154 155 171 170
f 155 156 172 171
f 156 157 173 172
f 157 158 174 173
f 158 159 175 174
f 159 160 176 175
f 160 145 161 176
f 161 162 178 177
f 162 163 179 178
f 163 164 180 179
f 164 165 181 180
f 165 166 182 181
f 166 167 183 182
f 167 168 184 183
f 168 169 185 184
f 169 170 186 185
f 170 171 187 186
f 171 172 188 187
f 172 173 189 188
f 173 174 190 189
f 174 175 191 190
f 175 176 192 191
f 176 161 177 192
g NoseHighlight
usemtl CLOWN_PINK
f 193 194 204 203
f 194 195 205 204
f 195 196 206 205
f 196 197 207 206
f 197 198 208 207
f 198 199 209 208
f 199 200 210 209
f 200 201 211 210
f 201 202 212 211
f 202 193 203 212
f 203 204 214 213
f 204 205 215 214
f 205 206 216 215
f 206 207 217 216
f 207 208 218 217
f 208 209 219 218
f 209 210 220 219
f 210 211 221 220
f 211 212 222 221
f 212 203 213 222
f 213 214 224 223
f 214 215 225 224
f 215 216 226 225
f 216 217 227 226
f 217 218 228 227
f 218 219 229 228
f 219 220 230 229
f 220 221 231 230
f 221 222 232 231
f 222 213 223 232
f 223 224 234 233
f 224 225 235 234
f 225 226 236 235
f 226 227 237 236
f 227 228 238 237
f 228 229 239 238
f 229 230 240 239
f 230 231 241 240
f 231 232 242 241
f 232 223 233 242
f 233 234 244 243
f 234 235 245 244
f 235 236 246 245
f 236 237 247 246
f 237 238 248 247
f 238 239 249 248
f 239 240 250 249
f 240 241 251 250
f 241 242 252 251
f 242 233 243 252
g BellLoop
usemtl CAROUSEL_GOLD
f 253 254 262 261
f 254 255 263 262
f 255 256 264 263
f 256 257 265 264
f 257 258 266 265
f 258 259 267 266
f 259 260 268 267
f 260 253 261 268
g Bell
f 269 270 282 281
f 270 271 283 282
f 271 272 284 283
f 272 273 285 284
f 273 274 286 285
f 274 275 287 286
f 275 276 288 287
f 276 277 289 288
f 277 278 290 289
f 278 279 291 290
f 279 280 292 291
f 280 269 281 292
f 281 282 294 293
f 282 283 295 294
f 283 284 296 295
f 284 285 297 296
f 285 286 298 297
f 286 287 299 298
f 287 288 300 299
f 288 289 301 300
f 289 290 302 301
f 290 291 303 302
f 291 292 304 303
f 292 281 293 304
f 293 294 306 305
f 294 295 307 306
f 295 296 308 307
f 296 297 309 308
f 297 298 310 309
f 298 299 311 310
f 299 300 312 311
f 300 301 313 312
f 301 302 314 313
f 302 303 315 314
f 303 304 316 315
f 304 293 305 316
f 305 306 318 317
f 306 307 319 318
f 307 308 320 319
f 308 309 321 320
f 309 310 322 321
f 310 311 323 322
f 311 312 324 323
f 312 313 325 324
f 313 314 326 325
f 314 315 327 326
f 315 316 328 327
f 316 305 317 328
f 317 318 330 329
f 318 319 331 330
f 319 320 332 331
f 320 321 333 332
f 321 322 334 333
f 322 323 335 334
f 323 324 336 335
f 324 325 337 336
f 325 326 338 337
f 326 327 339 338
f 327 328 340 339
f 328 317 329 340
f 329 330 342 341
f 330 331 343 342
f 331 332 344 343
f 332 333 345 344
f 333 334 346 345
f 334 335 347 346
f 335 336 348 347
f 336 337 349 348
f 337 338 350 349
f 338 339 351 350
f 339 340 352 351
f 340 329 341 352
g SmileMark
usemtl INK_DARK
f 353 354 355 356
f 357 360 359 358
f 353 357 358 354
f 354 358 359 355
f 355 359 360 356
f 357 353 356 360
g TearMark
usemtl INK_BLUE
f 361 362 372 371
f 362 363 373 372
f 363 364 374 373
f 364 365 375 374
f 365 366 376 375
f 366 367 377 376
f 367 368 378 377
f 368 369 379 378
f 369 370 380 379
f 370 361 371 380
f 371 372 382 381
f 372 373 383 382
f 373 374 384 383
f 374 375 385 384
f 375 376 386 385
f 376 377 387 386
f 377 378 388 387
f 378 379 389 388
f 379 380 390 389
f 380 371 381 390
f 381 382 392 391
f 382 383 393 392
f 383 384 394 393
f 384 385 395 394
f 385 386 396 395
f 386 387 397 396
f 387 388 398 397
f 388 389 399 398
f 389 390 400 399
f 390 381 391 400
f 391 392 402 401
f 392 393 403 402
f 393 394 404 403
f 394 395 405 404
f 395 396 406 405
f 396 397 407 406
f 397 398 408 407
f 398 399 409 408
f 399 400 410 409
f 400 391 401 410
f 401 402 412 411
f 402 403 413 412
f 403 404 414 413
f 404 405 415 414
f 405 406 416 415
f 406 407 417 416
f 407 408 418 417
f 408 409 419 418
f 409 410 420 419
f 410 401 411 420
