# school_02_locker_graffiti - project-original horror lore prop
mtllib horror-lore.mtl
o school_02_locker_graffiti
v -1.25 -1.65 0.25
v 1.25 -1.65 0.25
v 1.25 1.65 0.25
v -1.25 1.65 0.25
v -1.25 -1.65 0.45
v 1.25 -1.65 0.45
v 1.25 1.65 0.45
v -1.25 1.65 0.45
v -1.06 -1.175 0.43
v 1.06 -1.175 0.43
v 1.06 1.475 0.43
v -1.06 1.475 0.43
v -1.06 -1.175 0.51
v 1.06 -1.175 0.51
v 1.06 1.475 0.51
v -1.06 1.475 0.51
v -0.675 -0.88 0.5125
v 0.675 -0.88 0.5125
v 0.675 -0.82 0.5125
v -0.675 -0.82 0.5125
v -0.675 -0.88 0.5475
v 0.675 -0.88 0.5475
v 0.675 -0.82 0.5475
v -0.675 -0.82 0.5475
v -0.675 -0.66 0.5125
v 0.675 -0.66 0.5125
v 0.675 -0.6 0.5125
v -0.675 -0.6 0.5125
v -0.675 -0.66 0.5475
v 0.675 -0.66 0.5475
v 0.675 -0.6 0.5475
v -0.675 -0.6 0.5475
v -0.675 -0.44 0.5125
v 0.675 -0.44 0.5125
v 0.675 -0.38 0.5125
v -0.675 -0.38 0.5125
v -0.675 -0.44 0.5475
v 0.675 -0.44 0.5475
v 0.675 -0.38 0.5475
v -0.675 -0.38 0.5475
v -0.675 -0.22 0.5125
v 0.675 -0.22 0.5125
v 0.675 -0.16 0.5125
v -0.675 -0.16 0.5125
v -0.675 -0.22 0.5475
v 0.675 -0.22 0.5475
v 0.675 -0.16 0.5475
v -0.675 -0.16 0.5475
v 0.75 0.11 0.49
v 0.97 0.11 0.49
v 0.97 0.69 0.49
v 0.75 0.69 0.49
v 0.75 0.11 0.61
v 0.97 0.11 0.61
v 0.97 0.69 0.61
v 0.75 0.69 0.61
v -0.67341 0.52398 0.56
v -0.66601 0.53111 0.53526
v -0.64923 0.5493 0.52502
v -0.6329 0.5679 0.53526
v -0.62659 0.57602 0.56
v -0.63399 0.56889 0.58474
v -0.65077 0.5507 0.59498
v -0.6671 0.5321 0.58474
v -0.16338 0.08513 0.58
v -0.15915 0.08921 0.56586
v -0.14956 0.0996 0.56001
v -0.14023 0.11023 0.56586
v -0.13662 0.11487 0.58
v -0.14085 0.11079 0.59414
v -0.15044 0.1004 0.59999
v -0.15977 0.08977 0.59414
v -0.12477 0.07574 0.58
v -0.13264 0.08235 0.55526
v -0.15067 0.0993 0.54501
v -0.16832 0.11666 0.55526
v -0.17523 0.12426 0.58
v -0.16736 0.11765 0.60474
v -0.14933 0.1007 0.61499
v -0.13168 0.08334 0.60474
v 0.36442 0.60614 0.56
v 0.35992 0.60992 0.54586
v 0.34962 0.6196 0.54001
v 0.33953 0.62952 0.54586
v 0.33558 0.63386 0.56
v 0.34008 0.63008 0.57414
v 0.35038 0.6204 0.57999
v 0.36047 0.61048 0.57414
v 0.37426 0.47629 0.56
v 0.38212 0.48288 0.53526
v 0.40046 0.4995 0.52501
v 0.41853 0.51641 0.53526
v 0.42574 0.52371 0.56
v 0.41788 0.51712 0.58474
v 0.39954 0.5005 0.59499
v 0.38147 0.48359 0.58474
v 0.73529 0.10645 0.57
v 0.73978 0.11022 0.55586
v 0.75026 0.11972 0.55
v 0.76059 0.12938 0.55586
v 0.76471 0.13355 0.57
v 0.76022 0.12978 0.58414
v 0.74974 0.12028 0.59
v 0.73941 0.11062 0.58414
v -0.55 -0.285 0.56
v -0.54955 -0.27475 0.53526
v -0.54936 -0.25 0.52501
v -0.54955 -0.22525 0.53526
v -0.55 -0.215 0.56
v -0.55045 -0.22525 0.58474
v -0.55064 -0.25 0.59499
v -0.55045 -0.27475 0.58474
v 0.55 -0.27 0.58
v 0.55026 -0.26414 0.56586
v 0.55036 -0.25 0.56
v 0.55026 -0.23586 0.56586
v 0.55 -0.23 0.58
v 0.54974 -0.23586 0.59414
v 0.54964 -0.25 0.6
v 0.54974 -0.26414 0.59414
v 0.88 1.48 0.46
v 1.18 1.48 0.28
v 1.18 1.16 0.28
v 0.88 1.48 0.58
v 1.18 1.48 0.4
v 1.18 1.16 0.4
g LockerPlate
usemtl METAL_COLD
f 1 2 3 4
f 5 8 7 6
f 1 5 6 2
f 2 6 7 3
f 3 7 8 4
f 5 1 4 8
g Inset
usemtl METAL_DARK
f 9 10 11 12
f 13 16 15 14
f 9 13 14 10
f 10 14 15 11
f 11 15 16 12
f 13 9 12 16
g Vent0
usemtl METAL_EDGE
f 17 18 19 20
f 21 24 23 22
f 17 21 22 18
f 18 22 23 19
f 19 23 24 20
f 21 17 20 24
g Vent1
f 25 26 27 28
f 29 32 31 30
f 25 29 30 26
f 26 30 31 27
f 27 31 32 28
f 29 25 28 32
g Vent2
f 33 34 35 36
f 37 40 39 38
f 33 37 38 34
f 34 38 39 35
f 35 39 40 36
f 37 33 36 40
g Vent3
f 41 42 43 44
f 45 48 47 46
f 41 45 46 42
f 42 46 47 43
f 43 47 48 44
f 45 41 44 48
g Latch
f 49 50 51 52
f 53 56 55 54
f 49 53 54 50
f 50 54 55 51
f 51 55 56 52
f 53 49 52 56
g Scratch0
usemtl SCRATCH_WHITE
f 57 58 66 65
f 58 59 67 66
f 59 60 68 67
f 60 61 69 68
f 61 62 70 69
f 62 63 71 70
f 63 64 72 71
f 64 57 65 72
g Scratch1
f 73 74 82 81
f 74 75 83 82
f 75 76 84 83
f 76 77 85 84
f 77 78 86 85
f 78 79 87 86
f 79 80 88 87
f 80 73 81 88
g Scratch2
f 89 90 98 97
f 90 91 99 98
f 91 92 100 99
f 92 93 101 100
f 93 94 102 101
f 94 95 103 102
f 95 96 104 103
f 96 89 97 104
g Scratch3
f 105 106 114 113
f 106 107 115 114
f 107 108 116 115
f 108 109 117 116
f 109 110 118 117
f 110 111 119 118
f 111 112 120 119
f 112 105 113 120
g BentCorner
usemtl METAL_EDGE
f 121 122 125 124
f 122 123 126 125
f 123 121 124 126
f 123 122 121
f 124 125 126
