# school_03_gym_whistle - project-original horror lore prop
mtllib horror-lore.mtl
o school_03_gym_whistle
v 0 0 0.2
v 0 0 0.2
v 0 0 0.2
v 0 0 0.2
v 0 0 0.2
v 0 0 0.2
v 0 0 0.2
v 0 0 0.2
v 0 0 0.2
v 0 0 0.2
v 0 0 0.2
v 0 0 0.2
v 0 0 0.2
v 0 0 0.2
v 0.23726 0 0.23958
v 0.21377 0.12287 0.23958
v 0.14793 0.2214 0.23958
v 0.0528 0.27609 0.23958
v -0.0528 0.27609 0.23958
v -0.14793 0.2214 0.23958
v -0.21377 0.12287 0.23958
v -0.23726 0 0.23958
v -0.21377 -0.12287 0.23958
v -0.14793 -0.2214 0.23958
v -0.0528 -0.27609 0.23958
v 0.0528 -0.27609 0.23958
v 0.14793 -0.2214 0.23958
v 0.21377 -0.12287 0.23958
v 0.43841 0 0.3523
v 0.39499 0.22703 0.3523
v 0.27334 0.4091 0.3523
v 0.09755 0.51014 0.3523
v -0.09755 0.51014 0.3523
v -0.27334 0.4091 0.3523
v -0.39499 0.22703 0.3523
v -0.43841 0 0.3523
v -0.39499 -0.22703 0.3523
v -0.27334 -0.4091 0.3523
v -0.09755 -0.51014 0.3523
v 0.09755 -0.51014 0.3523
v 0.27334 -0.4091 0.3523
v 0.39499 -0.22703 0.3523
v 0.57281 0 0.521
v 0.51608 0.29663 0.521
v 0.35714 0.53452 0.521
v 0.12746 0.66653 0.521
v -0.12746 0.66653 0.521
v -0.35714 0.53452 0.521
v -0.51608 0.29663 0.521
v -0.57281 0 0.521
v -0.51608 -0.29663 0.521
v -0.35714 -0.53452 0.521
v -0.12746 -0.66653 0.521
v 0.12746 -0.66653 0.521
v 0.35714 -0.53452 0.521
v 0.51608 -0.29663 0.521
v 0.62 0 0.72
v 0.5586 0.32107 0.72
v 0.38656 0.57856 0.72
v 0.13796 0.72145 0.72
v -0.13796 0.72145 0.72
v -0.38656 0.57856 0.72
v -0.5586 0.32107 0.72
v -0.62 0 0.72
v -0.5586 -0.32107 0.72
v -0.38656 -0.57856 0.72
v -0.13796 -0.72145 0.72
v 0.13796 -0.72145 0.72
v 0.38656 -0.57856 0.72
v 0.5586 -0.32107 0.72
v 0.57281 0 0.919
v 0.51608 0.29663 0.919
v 0.35714 0.53452 0.919
v 0.12746 0.66653 0.919
v -0.12746 0.66653 0.919
v -0.35714 0.53452 0.919
v -0.51608 0.29663 0.919
v -0.57281 0 0.919
v -0.51608 -0.29663 0.919
v -0.35714 -0.53452 0.919
v -0.12746 -0.66653 0.919
v 0.12746 -0.66653 0.919
v 0.35714 -0.53452 0.919
v 0.51608 -0.29663 0.919
v 0.43841 0 1.0877
v 0.39499 0.22703 1.0877
v 0.27334 0.4091 1.0877
v 0.09755 0.51014 1.0877
v -0.09755 0.51014 1.0877
v -0.27334 0.4091 1.0877
v -0.39499 0.22703 1.0877
v -0.43841 0 1.0877
v -0.39499 -0.22703 1.0877
v -0.27334 -0.4091 1.0877
v -0.09755 -0.51014 1.0877
v 0.09755 -0.51014 1.0877
v 0.27334 -0.4091 1.0877
v 0.39499 -0.22703 1.0877
v 0.23726 0 1.20042
v 0.21377 0.12287 1.20042
v 0.14793 0.2214 1.20042
v 0.0528 0.27609 1.20042
v -0.0528 0.27609 1.20042
v -0.14793 0.2214 1.20042
v -0.21377 0.12287 1.20042
v -0.23726 0 1.20042
v -0.21377 -0.12287 1.20042
v -0.14793 -0.2214 1.20042
v -0.0528 -0.27609 1.20042
v 0.0528 -0.27609 1.20042
v 0.14793 -0.2214 1.20042
v 0.21377 -0.12287 1.20042
v 0 0 1.24
v 0 0 1.24
v 0 0 1.24
v 0 0 1.24
v 0 0 1.24
v 0 0 1.24
v 0 0 1.24
v 0 0 1.24
v 0 0 1.24
v 0 0 1.24
v 0 0 1.24
v 0 0 1.24
v 0 0 1.24
v 0 0 1.24
v -0.31 -1.31 0.55
v 0.31 -1.31 0.55
v 0.31 -0.41 0.55
v -0.31 -0.41 0.55
v -0.31 -1.31 0.89
v 0.31 -1.31 0.89
v 0.31 -0.41 0.89
v -0.31 -0.41 0.89
v -0.16 -1.29 0.78
v 0.16 -1.29 0.78
v 0.16 -0.95 0.78
v -0.16 -0.95 0.78
v -0.16 -1.29 0.86
v 0.16 -1.29 0.86
v 0.16 -0.95 0.86
v -0.16 -0.95 0.86
v 0.51231 0.637 0.78
v 0.49261 0.6306 0.737
v 0.44836 0.61622 0.72638
v 0.41287 0.60469 0.75614
v 0.41287 0.60469 0.80386
v 0.44836 0.61622 0.83362
v 0.49261 0.6306 0.823
v 0.42446 0.90738 0.78
v 0.40476 0.90098 0.737
v 0.36051 0.8866 0.72638
v 0.32502 0.87507 0.75614
v 0.32502 0.87507 0.80386
v 0.36051 0.8866 0.83362
v 0.40476 0.90098 0.823
v 0.40448 0.93488 0.78
v 0.3923 0.91812 0.737
v 0.36495 0.88048 0.72638
v 0.34302 0.85029 0.75614
v 0.34302 0.85029 0.80386
v 0.36495 0.88048 0.83362
v 0.3923 0.91812 0.823
v 0.17448 1.10198 0.78
v 0.1623 1.08523 0.737
v 0.13495 1.04758 0.72638
v 0.11302 1.0174 0.75614
v 0.11302 1.0174 0.80386
v 0.13495 1.04758 0.83362
v 0.1623 1.08523 0.823
v 0.14215 1.11249 0.78
v 0.14215 1.09178 0.737
v 0.14215 1.04525 0.72638
v 0.14215 1.00793 0.75614
v 0.14215 1.00793 0.80386
v 0.14215 1.04525 0.83362
v 0.14215 1.09178 0.823
v -0.14215 1.11249 0.78
v -0.14215 1.09178 0.737
v -0.14215 1.04525 0.72638
v -0.14215 1.00793 0.75614
v -0.14215 1.00793 0.80386
v -0.14215 1.04525 0.83362
v -0.14215 1.09178 0.823
v -0.17448 1.10198 0.78
v -0.1623 1.08523 0.737
v -0.13495 1.04758 0.72638
v -0.11302 1.0174 0.75614
v -0.11302 1.0174 0.80386
v -0.13495 1.04758 0.83362
v -0.1623 1.08523 0.823
v -0.40448 0.93488 0.78
v -0.3923 0.91812 0.737
v -0.36495 0.88048 0.72638
v -0.34302 0.85029 0.75614
v -0.34302 0.85029 0.80386
v -0.36495 0.88048 0.83362
v -0.3923 0.91812 0.823
v -0.42446 0.90738 0.78
v -0.40476 0.90098 0.737
v -0.36051 0.8866 0.72638
v -0.32502 0.87507 0.75614
v -0.32502 0.87507 0.80386
v -0.36051 0.8866 0.83362
v -0.40476 0.90098 0.823
v -0.51231 0.637 0.78
v -0.49261 0.6306 0.737
v -0.44836 0.61622 0.72638
v -0.41287 0.60469 0.75614
v -0.41287 0.60469 0.80386
v -0.44836 0.61622 0.83362
v -0.49261 0.6306 0.823
v -0.51231 0.603 0.78
v -0.49261 0.6094 0.737
v -0.44836 0.62378 0.72638
v -0.41287 0.63531 0.75614
v -0.41287 0.63531 0.80386
v -0.44836 0.62378 0.83362
v -0.49261 0.6094 0.823
v -0.42446 0.33262 0.78
v -0.40476 0.33902 0.737
v -0.36051 0.3534 0.72638
v -0.32502 0.36493 0.75614
v -0.32502 0.36493 0.80386
v -0.36051 0.3534 0.83362
v -0.40476 0.33902 0.823
v -0.40448 0.30512 0.78
v -0.3923 0.32188 0.737
v -0.36495 0.35952 0.72638
v -0.34302 0.38971 0.75614
v -0.34302 0.38971 0.80386
v -0.36495 0.35952 0.83362
v -0.3923 0.32188 0.823
v -0.17448 0.13802 0.78
v -0.1623 0.15477 0.737
v -0.13495 0.19242 0.72638
v -0.11302 0.2226 0.75614
v -0.11302 0.2226 0.80386
v -0.13495 0.19242 0.83362
v -0.1623 0.15477 0.823
v -0.14215 0.12751 0.78
v -0.14215 0.14822 0.737
v -0.14215 0.19475 0.72638
v -0.14215 0.23207 0.75614
v -0.14215 0.23207 0.80386
v -0.14215 0.19475 0.83362
v -0.14215 0.14822 0.823
v 0.14215 0.12751 0.78
v 0.14215 0.14822 0.737
v 0.14215 0.19475 0.72638
v 0.14215 0.23207 0.75614
v 0.14215 0.23207 0.80386
v 0.14215 0.19475 0.83362
v 0.14215 0.14822 0.823
v 0.17448 0.13802 0.78
v 0.1623 0.15477 0.737
v 0.13495 0.19242 0.72638
v 0.11302 0.2226 0.75614
v 0.11302 0.2226 0.80386
v 0.13495 0.19242 0.83362
v 0.1623 0.15477 0.823
v 0.40448 0.30512 0.78
v 0.3923 0.32188 0.737
v 0.36495 0.35952 0.72638
v 0.34302 0.38971 0.75614
v 0.34302 0.38971 0.80386
v 0.36495 0.35952 0.83362
v 0.3923 0.32188 0.823
v 0.42446 0.33262 0.78
v 0.40476 0.33902 0.737
v 0.36051 0.3534 0.72638
v 0.32502 0.36493 0.75614
v 0.32502 0.36493 0.80386
v 0.36051 0.3534 0.83362
v 0.40476 0.33902 0.823
v 0.51231 0.603 0.78
v 0.49261 0.6094 0.737
v 0.44836 0.62378 0.72638
v 0.41287 0.63531 0.75614
v 0.41287 0.63531 0.80386
v 0.44836 0.62378 0.83362
v 0.49261 0.6094 0.823
v 0 0 0.59
v 0 0 0.59
v 0 0 0.59
v 0 0 0.59
v 0 0 0.59
v 0 0 0.59
v 0 0 0.59
v 0 0 0.59
v 0 0 0.59
v 0 0 0.59
v 0.065 0 0.60742
v 0.05259 0.03821 0.60742
v 0.02009 0.06182 0.60742
v -0.02009 0.06182 0.60742
v -0.05259 0.03821 0.60742
v -0.065 0 0.60742
v -0.05259 -0.03821 0.60742
v -0.02009 -0.06182 0.60742
v 0.02009 -0.06182 0.60742
v 0.05259 -0.03821 0.60742
v 0.11258 0 0.655
v 0.09108 0.06617 0.655
v 0.03479 0.10707 0.655
v -0.03479 0.10707 0.655
v -0.09108 0.06617 0.655
v -0.11258 0 0.655
v -0.09108 -0.06617 0.655
v -0.03479 -0.10707 0.655
v 0.03479 -0.10707 0.655
v 0.09108 -0.06617 0.655
v 0.13 0 0.72
v 0.10517 0.07641 0.72
v 0.04017 0.12364 0.72
v -0.04017 0.12364 0.72
v -0.10517 0.07641 0.72
v -0.13 0 0.72
v -0.10517 -0.07641 0.72
v -0.04017 -0.12364 0.72
v 0.04017 -0.12364 0.72
v 0.10517 -0.07641 0.72
v 0.11258 0 0.785
v 0.09108 0.06617 0.785
v 0.03479 0.10707 0.785
v -0.03479 0.10707 0.785
v -0.09108 0.06617 0.785
v -0.11258 0 0.785
v -0.09108 -0.06617 0.785
v -0.03479 -0.10707 0.785
v 0.03479 -0.10707 0.785
v 0.09108 -0.06617 0.785
v 0.065 0 0.83258
v 0.05259 0.03821 0.83258
v 0.02009 0.06182 0.83258
v -0.02009 0.06182 0.83258
v -0.05259 0.03821 0.83258
v -0.065 0 0.83258
v -0.05259 -0.03821 0.83258
v -0.02009 -0.06182 0.83258
v 0.02009 -0.06182 0.83258
v 0.05259 -0.03821 0.83258
v 0 0 0.85
v 0 0 0.85
v 0 0 0.85
v 0 0 0.85
v 0 0 0.85
v 0 0 0.85
v 0 0 0.85
v 0 0 0.85
v 0 0 0.85
v 0 0 0.85
g Chamber
usemtl WHISTLE_METAL
f 1 2 16 15
f 2 3 17 16
f 3 4 18 17
f 4 5 19 18
f 5 6 20 19
f 6 7 21 20
f 7 8 22 21
f 8 9 23 22
f 9 10 24 23
f 10 11 25 24
f 11 12 26 25
f 12 13 27 26
f 13 14 28 27
f 14 1 15 28
f 15 16 30 29
f 16 17 31 30
f 17 18 32 31
f 18 19 33 32
f 19 20 34 33
f 20 21 35 34
f 21 22 36 35
f 22 23 37 36
f 23 24 38 37
f 24 25 39 38
f 25 26 40 39
f 26 27 41 40
f 27 28 42 41
f 28 15 29 42
f 29 30 44 43
f 30 31 45 44
f 31 32 46 45
f 32 33 47 46
f 33 34 48 47
f 34 35 49 48
f 35 36 50 49
f 36 37 51 50
f 37 38 52 51
f 38 39 53 52
f 39 40 54 53
f 40 41 55 54
f 41 42 56 55
f 42 29 43 56
f 43 44 58 57
f 44 45 59 58
f 45 46 60 59
f 46 47 61 60
f 47 48 62 61
f 48 49 63 62
f 49 50 64 63
f 50 51 65 64
f 51 52 66 65
f 52 53 67 66
f 53 54 68 67
f 54 55 69 68
f 55 56 70 69
f 56 43 57 70
f 57 58 72 71
f 58 59 73 72
f 59 60 74 73
f 60 61 75 74
f 61 62 76 75
f 62 63 77 76
f 63 64 78 77
f 64 65 79 78
f 65 66 80 79
f 66 67 81 80
f 67 68 82 81
f 68 69 83 82
f 69 70 84 83
f 70 57 71 84
f 71 72 86 85
f 72 73 87 86
f 73 74 88 87
f 74 75 89 88
f 75 76 90 89
f 76 77 91 90
f 77 78 92 91
f 78 79 93 92
f 79 80 94 93
f 80 81 95 94
f 81 82 96 95
f 82 83 97 96
f 83 84 98 97
f 84 71 85 98
f 85 86 100 99
f 86 87 101 100
f 87 88 102 101
f 88 89 103 102
f 89 90 104 103
f 90 91 105 104
f 91 92 106 105
f 92 93 107 106
f 93 94 108 107
f 94 95 109 108
f 95 96 110 109
f 96 97 111 110
f 97 98 112 111
f 98 85 99 112
f 99 100 114 113
f 100 101 115 114
f 101 102 116 115
f 102 103 117 116
f 103 104 118 117
f 104 105 119 118
f 105 106 120 119
f 106 107 121 120
f 107 108 122 121
f 108 109 123 122
f 109 110 124 123
f 110 111 125 124
f 111 112 126 125
f 112 99 113 126
g Mouthpiece
usemtl WHISTLE_EDGE
f 127 128 129 130
f 131 134 133 132
f 127 131 132 128
f 128 132 133 129
f 129 133 134 130
f 131 127 130 134
g AirSlot
usemtl METAL_DARK
f 135 136 137 138
f 139 142 141 140
f 135 139 140 136
f 136 140 141 137
f 137 141 142 138
f 139 135 138 142
g Ring0
usemtl WHISTLE_EDGE
f 143 144 151 150
f 144 145 152 151
f 145 146 153 152
f 146 147 154 153
f 147 148 155 154
f 148 149 156 155
f 149 143 150 156
g Ring1
f 157 158 165 164
f 158 159 166 165
f 159 160 167 166
f 160 161 168 167
f 161 162 169 168
f 162 163 170 169
f 163 157 164 170
g Ring2
f 171 172 179 178
f 172 173 180 179
f 173 174 181 180
f 174 175 182 181
f 175 176 183 182
f 176 177 184 183
f 177 171 178 184
g Ring3
f 185 186 193 192
f 186 187 194 193
f 187 188 195 194
f 188 189 196 195
f 189 190 197 196
f 190 191 198 197
f 191 185 192 198
g Ring4
f 199 200 207 206
f 200 201 208 207
f 201 202 209 208
f 202 203 210 209
f 203 204 211 210
f 204 205 212 211
f 205 199 206 212
g Ring5
f 213 214 221 220
f 214 215 222 221
f 215 216 223 222
f 216 217 224 223
f 217 218 225 224
f 218 219 226 225
f 219 213 220 226
g Ring6
f 227 228 235 234
f 228 229 236 235
f 229 230 237 236
f 230 231 238 237
f 231 232 239 238
f 232 233 240 239
f 233 227 234 240
g Ring7
f 241 242 249 248
f 242 243 250 249
f 243 244 251 250
f 244 245 252 251
f 245 246 253 252
f 246 247 254 253
f 247 241 248 254
g Ring8
f 255 256 263 262
f 256 257 264 263
f 257 258 265 264
f 258 259 266 265
f 259 260 267 266
f 260 261 268 267
f 261 255 262 268
g Ring9
f 269 270 277 276
f 270 271 278 277
f 271 272 279 278
f 272 273 280 279
f 273 274 281 280
f 274 275 282 281
f 275 269 276 282
g Ball
usemtl METAL_DARK
f 283 284 294 293
f 284 285 295 294
f 285 286 296 295
f 286 287 297 296
f 287 288 298 297
f 288 289 299 298
f 289 290 300 299
f 290 291 301 300
f 291 292 302 301
f 292 283 293 302
f 293 294 304 303
f 294 295 305 304
f 295 296 306 305
f 296 297 307 306
f 297 298 308 307
f 298 299 309 308
f 299 300 310 309
f 300 301 311 310
f 301 302 312 311
f 302 293 303 312
f 303 304 314 313
f 304 305 315 314
f 305 306 316 315
f 306 307 317 316
f 307 308 318 317
f 308 309 319 318
f 309 310 320 319
f 310 311 321 320
f 311 312 322 321
f 312 303 313 322
f 313 314 324 323
f 314 315 325 324
f 315 316 326 325
f 316 317 327 326
f 317 318 328 327
f 318 319 329 328
f 319 320 330 329
f 320 321 331 330
f 321 322 332 331
f 322 313 323 332
f 323 324 334 333
f 324 325 335 334
f 325 326 336 335
f 326 327 337 336
f 327 328 338 337
f 328 329 339 338
f 329 330 340 339
f 330 331 341 340
f 331 332 342 341
f 332 323 333 342
f 333 334 344 343
f 334 335 345 344
f 335 336 346 345
f 336 337 347 346
f 337 338 348 347
f 338 339 349 348
f 339 340 350 349
f 340 341 351 350
f 341 342 352 351
f 342 333 343 352
