# school_04_lunch_menu - project-original horror lore prop
mtllib horror-lore.mtl
o school_04_lunch_menu
v -1.1 -1.45 0.065
v 1.05 -1.45 0.065
v 1.18 -0.95 0.065
v 1.04 -0.52 0.065
v 1.17 -0.05 0.065
v 1.02 0.38 0.065
v 1.14 0.86 0.065
v 0.98 1.45 0.065
v -1.1 1.45 0.065
v -1.1 -1.45 0.175
v 1.05 -1.45 0.175
v 1.18 -0.95 0.175
v 1.04 -0.52 0.175
v 1.17 -0.05 0.175
v 1.02 0.38 0.175
v 1.14 0.86 0.175
v 0.98 1.45 0.175
v -1.1 1.45 0.175
v -0.075 -1.255 0.18
v -0.025 -1.255 0.18
v -0.025 1.495 0.18
v -0.075 1.495 0.18
v -0.075 -1.255 0.22
v -0.025 -1.255 0.22
v -0.025 1.495 0.22
v -0.075 1.495 0.22
v -0.675 -1.04 0.1925
v 0.675 -1.04 0.1925
v 0.675 -0.86 0.1925
v -0.675 -0.86 0.1925
v -0.675 -1.04 0.2275
v 0.675 -1.04 0.2275
v 0.675 -0.86 0.2275
v -0.675 -0.86 0.2275
v -0.875 -0.54 0.1975
v 0.675 -0.54 0.1975
v 0.675 -0.5 0.1975
v -0.875 -0.5 0.1975
v -0.875 -0.54 0.2225
v 0.675 -0.54 0.2225
v 0.675 -0.5 0.2225
v -0.875 -0.5 0.2225
v -0.875 -0.19 0.1975
v 0.675 -0.19 0.1975
v 0.675 -0.15 0.1975
v -0.875 -0.15 0.1975
v -0.875 -0.19 0.2225
v 0.675 -0.19 0.2225
v 0.675 -0.15 0.2225
v -0.875 -0.15 0.2225
v -0.875 0.16 0.1975
v 0.675 0.16 0.1975
v 0.675 0.2 0.1975
v -0.875 0.2 0.1975
v -0.875 0.16 0.2225
v 0.675 0.16 0.2225
v 0.675 0.2 0.2225
v -0.875 0.2 0.2225
v -0.875 0.51 0.1975
v 0.675 0.51 0.1975
v 0.675 0.55 0.1975
v -0.875 0.55 0.1975
v -0.875 0.51 0.2225
v 0.675 0.51 0.2225
v 0.675 0.55 0.2225
v -0.875 0.55 0.2225
v -0.875 0.86 0.1975
v 0.675 0.86 0.1975
v 0.675 0.9 0.1975
v -0.875 0.9 0.1975
v -0.875 0.86 0.2225
v 0.675 0.86 0.2225
v 0.675 0.9 0.2225
v -0.875 0.9 0.2225
v 0.62 0.72 0.2
v 0.62 0.72 0.2
v 0.62 0.72 0.2
v 0.62 0.72 0.2
v 0.62 0.72 0.2
v 0.62 0.72 0.2
v 0.62 0.72 0.2
v 0.62 0.72 0.2
v 0.62 0.72 0.2
v 0.62 0.72 0.2
v 0.74931 0.72 0.20382
v 0.72462 0.77528 0.20382
v 0.65996 0.80944 0.20382
v 0.58004 0.80944 0.20382
v 0.51538 0.77528 0.20382
v 0.49069 0.72 0.20382
v 0.51538 0.66472 0.20382
v 0.58004 0.63056 0.20382
v 0.65996 0.63056 0.20382
v 0.72462 0.66472 0.20382
v 0.82923 0.72 0.21382
v 0.78927 0.80944 0.21382
v 0.68466 0.86472 0.21382
v 0.55534 0.86472 0.21382
v 0.45073 0.80944 0.21382
v 0.41077 0.72 0.21382
v 0.45073 0.63056 0.21382
v 0.55534 0.57528 0.21382
v 0.68466 0.57528 0.21382
v 0.78927 0.63056 0.21382
v 0.82923 0.72 0.22618
v 0.78927 0.80944 0.22618
v 0.68466 0.86472 0.22618
v 0.55534 0.86472 0.22618
v 0.45073 0.80944 0.22618
v 0.41077 0.72 0.22618
v 0.45073 0.63056 0.22618
v 0.55534 0.57528 0.22618
v 0.68466 0.57528 0.22618
v 0.78927 0.63056 0.22618
v 0.74931 0.72 0.23618
v 0.72462 0.77528 0.23618
v 0.65996 0.80944 0.23618
v 0.58004 0.80944 0.23618
v 0.51538 0.77528 0.23618
v 0.49069 0.72 0.23618
v 0.51538 0.66472 0.23618
v 0.58004 0.63056 0.23618
v 0.65996 0.63056 0.23618
v 0.72462 0.66472 0.23618
v 0.62 0.72 0.24
v 0.62 0.72 0.24
v 0.62 0.72 0.24
v 0.62 0.72 0.24
v 0.62 0.72 0.24
v 0.62 0.72 0.24
v 0.62 0.72 0.24
v 0.62 0.72 0.24
v 0.62 0.72 0.24
v 0.62 0.72 0.24
g MenuPaper
usemtl PAPER_YELLOW
f 1 2 11 10
f 2 3 12 11
f 3 4 13 12
f 4 5 14 13
f 5 6 15 14
f 6 7 16 15
f 7 8 17 16
f 8 9 18 17
f 9 1 10 18
f 9 8 7 6 5 4 3 2 1
f 10 11 12 13 14 15 16 17 18
g Fold
usemtl PAPER_SHADOW
f 19 20 21 22
f 23 26 25 24
f 19 23 24 20
f 20 24 25 21
f 21 25 26 22
f 23 19 22 26
g Header
usemtl INK_DARK
f 27 28 29 30
f 31 34 33 32
f 27 31 32 28
f 28 32 33 29
f 29 33 34 30
f 31 27 30 34
g MenuLine0
usemtl INK_FADED
f 35 36 37 38
f 39 42 41 40
f 35 39 40 36
f 36 40 41 37
f 37 41 42 38
f 39 35 38 42
g MenuLine1
f 43 44 45 46
f 47 50 49 48
f 43 47 48 44
f 44 48 49 45
f 45 49 50 46
f 47 43 46 50
g MenuLine2
f 51 52 53 54
f 55 58 57 56
f 51 55 56 52
f 52 56 57 53
f 53 57 58 54
f 55 51 54 58
g MenuLine3
f 59 60 61 62
f 63 66 65 64
f 59 63 64 60
f 60 64 65 61
f 61 65 66 62
f 63 59 62 66
g MenuLine4
usemtl INK_RED
f 67 68 69 70
f 71 74 73 72
f 67 71 72 68
f 68 72 73 69
f 69 73 74 70
f 71 67 70 74
g GreaseSpot
usemtl STAIN_BROWN
f 75 76 86 85
f 76 77 87 86
f 77 78 88 87
f 78 79 89 88
f 79 80 90 89
f 80 81 91 90
f 81 82 92 91
f 82 83 93 92
f 83 84 94 93
f 84 75 85 94
f 85 86 96 95
f 86 87 97 96
f 87 88 98 97
f 88 89 99 98
f 89 90 100 99
f 90 91 101 100
f 91 92 102 101
f 92 93 103 102
f 93 94 104 103
f 94 85 95 104
f 95 96 106 105
f 96 97 107 106
f 97 98 108 107
f 98 99 109 108
f 99 100 110 109
f 100 101 111 110
f 101 102 112 111
f 102 103 113 112
f 103 104 114 113
f 104 95 105 114
f 105 106 116 115
f 106 107 117 116
f 107 108 118 117
f 108 109 119 118
f 109 110 120 119
f 110 111 121 120
f 111 112 122 121
f 112 113 123 122
f 113 114 124 123
f 114 105 115 124
f 115 116 126 125
f 116 117 127 126
f 117 118 128 127
f 118 119 129 128
f 119 120 130 129
f 120 121 131 130
f 121 122 132 131
f 122 123 133 132
f 123 124 134 133
f 124 115 125 134
