# school_01_attendance_book - project-original horror lore prop
mtllib horror-lore.mtl
o school_01_attendance_book
v -1.2 -1.5 0.07
v 1.2 -1.5 0.07
v 1.2 1.5 0.07
v -1.2 1.5 0.07
v -1.2 -1.5 0.25
v 1.2 -1.5 0.25
v 1.2 1.5 0.25
v -1.2 1.5 0.25
v -0.995 -1.39 0.21
v 1.155 -1.39 0.21
v 1.155 1.39 0.21
v -0.995 1.39 0.21
v -0.995 -1.39 0.37
v 1.155 -1.39 0.37
v 1.155 1.39 0.37
v -0.995 1.39 0.37
v -1.22 -1.5 0.16
v -1.04 -1.5 0.16
v -1.04 1.5 0.16
v -1.22 1.5 0.16
v -1.22 -1.5 0.44
v -1.04 -1.5 0.44
v -1.04 1.5 0.44
v -1.22 1.5 0.44
v -0.575 -0.94 0.375
v 0.775 -0.94 0.375
v 0.775 -0.26 0.375
v -0.575 -0.26 0.375
v -0.575 -0.94 0.425
v 0.775 -0.94 0.425
v 0.775 -0.26 0.425
v -0.575 -0.26 0.425
v -0.475 -0.2175 0.4075
v 0.775 -0.2175 0.4075
v 0.775 -0.1825 0.4075
v -0.475 -0.1825 0.4075
v -0.475 -0.2175 0.4325
v 0.775 -0.2175 0.4325
v 0.775 -0.1825 0.4325
v -0.475 -0.1825 0.4325
v -0.475 0.1225 0.4075
v 0.775 0.1225 0.4075
v 0.775 0.1575 0.4075
v -0.475 0.1575 0.4075
v -0.475 0.1225 0.4325
v 0.775 0.1225 0.4325
v 0.775 0.1575 0.4325
v -0.475 0.1575 0.4325
v -0.475 0.4625 0.4075
v 0.775 0.4625 0.4075
v 0.775 0.4975 0.4075
v -0.475 0.4975 0.4075
v -0.475 0.4625 0.4325
v 0.775 0.4625 0.4325
v 0.775 0.4975 0.4325
v -0.475 0.4975 0.4325
v -0.475 0.8025 0.4075
v 0.775 0.8025 0.4075
v 0.775 0.8375 0.4075
v -0.475 0.8375 0.4075
v -0.475 0.8025 0.4325
v 0.775 0.8025 0.4325
v 0.775 0.8375 0.4325
v -0.475 0.8375 0.4325
v -0.475 1.1425 0.4075
v 0.775 1.1425 0.4075
v 0.775 1.1775 0.4075
v -0.475 1.1775 0.4075
v -0.475 1.1425 0.4325
v 0.775 1.1425 0.4325
v 0.775 1.1775 0.4325
v -0.475 1.1775 0.4325
v 0.55 0.55 0.395
v 0.55 0.55 0.395
v 0.55 0.55 0.395
v 0.55 0.55 0.395
v 0.55 0.55 0.395
v 0.55 0.55 0.395
v 0.55 0.55 0.395
v 0.55 0.55 0.395
v 0.55 0.55 0.395
v 0.55 0.55 0.395
v 0.64 0.55 0.39969
v 0.62281 0.6029 0.39969
v 0.57781 0.6356 0.39969
v 0.52219 0.6356 0.39969
v 0.47719 0.6029 0.39969
v 0.46 0.55 0.39969
v 0.47719 0.4971 0.39969
v 0.52219 0.4644 0.39969
v 0.57781 0.4644 0.39969
v 0.62281 0.4971 0.39969
v 0.70588 0.55 0.4125
v 0.67611 0.64163 0.4125
v 0.59817 0.69826 0.4125
v 0.50183 0.69826 0.4125
v 0.42389 0.64163 0.4125
v 0.39412 0.55 0.4125
v 0.42389 0.45837 0.4125
v 0.50183 0.40174 0.4125
v 0.59817 0.40174 0.4125
v 0.67611 0.45837 0.4125
v 0.73 0.55 0.43
v 0.69562 0.6558 0.43
v 0.60562 0.72119 0.43
v 0.49438 0.72119 0.43
v 0.40438 0.6558 0.43
v 0.37 0.55 0.43
v 0.40438 0.4442 0.43
v 0.49438 0.37881 0.43
v 0.60562 0.37881 0.43
v 0.69562 0.4442 0.43
v 0.70588 0.55 0.4475
v 0.67611 0.64163 0.4475
v 0.59817 0.69826 0.4475
v 0.50183 0.69826 0.4475
v 0.42389 0.64163 0.4475
v 0.39412 0.55 0.4475
v 0.42389 0.45837 0.4475
v 0.50183 0.40174 0.4475
v 0.59817 0.40174 0.4475
v 0.67611 0.45837 0.4475
v 0.64 0.55 0.46031
v 0.62281 0.6029 0.46031
v 0.57781 0.6356 0.46031
v 0.52219 0.6356 0.46031
v 0.47719 0.6029 0.46031
v 0.46 0.55 0.46031
v 0.47719 0.4971 0.46031
v 0.52219 0.4644 0.46031
v 0.57781 0.4644 0.46031
v 0.62281 0.4971 0.46031
v 0.55 0.55 0.465
v 0.55 0.55 0.465
v 0.55 0.55 0.465
v 0.55 0.55 0.465
v 0.55 0.55 0.465
v 0.55 0.55 0.465
v 0.55 0.55 0.465
v 0.55 0.55 0.465
v 0.55 0.55 0.465
v 0.55 0.55 0.465
g Cover
usemtl BOOK_DARK
f 1 2 3 4
f 5 8 7 6
f 1 5 6 2
f 2 6 7 3
f 3 7 8 4
f 5 1 4 8
g Pages
usemtl PAPER_OLD
f 9 10 11 12
f 13 16 15 14
f 9 13 14 10
f 10 14 15 11
f 11 15 16 12
f 13 9 12 16
g Spine
usemtl BOOK_RED
f 17 18 19 20
f 21 24 23 22
f 17 21 22 18
f 18 22 23 19
f 19 23 24 20
f 21 17 20 24
g Label
usemtl LABEL_CREAM
f 25 26 27 28
f 29 32 31 30
f 25 29 30 26
f 26 30 31 27
f 27 31 32 28
f 29 25 28 32
g Rule0
usemtl INK_FADED
f 33 34 35 36
f 37 40 39 38
f 33 37 38 34
f 34 38 39 35
f 35 39 40 36
f 37 33 36 40
g Rule1
f 41 42 43 44
f 45 48 47 46
f 41 45 46 42
f 42 46 47 43
f 43 47 48 44
f 45 41 44 48
g Rule2
f 49 50 51 52
f 53 56 55 54
f 49 53 54 50
f 50 54 55 51
f 51 55 56 52
f 53 49 52 56
g Rule3
f 57 58 59 60
f 61 64 63 62
f 57 61 62 58
f 58 62 63 59
f 59 63 64 60
f 61 57 60 64
g Rule4
f 65 66 67 68
f 69 72 71 70
f 65 69 70 66
f 66 70 71 67
f 67 71 72 68
f 69 65 68 72
g MidnightMark
usemtl INK_RED
f 73 74 84 83
f 74 75 85 84
f 75 76 86 85
f 76 77 87 86
f 77 78 88 87
f 78 79 89 88
f 79 80 90 89
f 80 81 91 90
f 81 82 92 91
f 82 73 83 92
f 83 84 94 93
f 84 85 95 94
f 85 86 96 95
f 86 87 97 96
f 87 88 98 97
f 88 89 99 98
f 89 90 100 99
f 90 91 101 100
f 91 92 102 101
f 92 83 93 102
f 93 94 104 103
f 94 95 105 104
f 95 96 106 105
f 96 97 107 106
f 97 98 108 107
f 98 99 109 108
f 99 100 110 109
f 100 101 111 110
f 101 102 112 111
f 102 93 103 112
f 103 104 114 113
f 104 105 115 114
f 105 106 116 115
f 106 107 117 116
f 107 108 118 117
f 108 109 119 118
f 109 110 120 119
f 110 111 121 120
f 111 112 122 121
f 112 103 113 122
f 113 114 124 123
f 114 115 125 124
f 115 116 126 125
f 116 117 127 126
f 117 118 128 127
f 118 119 129 128
f 119 120 130 129
f 120 121 131 130
f 121 122 132 131
f 122 113 123 132
f 123 124 134 133
f 124 125 135 134
f 125 126 136 135
f 126 127 137 136
f 127 128 138 137
f 128 129 139 138
f 129 130 140 139
f 130 131 141 140
f 131 132 142 141
f 132 123 133 142
