<svg xmlns="http://www.w3.org/2000/svg" width="512" height="64" viewBox="0 0 512 64"><defs><g id="n"><circle cx="22" cy="37" r="12" fill="#c78353"/><circle cx="22" cy="37" r="5" fill="none" stroke="#915834" stroke-width="2"/></g></defs><g transform="translate(0)"><use href="#n"/><path d="M17 45Q30 46 40 45" stroke="#8a774f" stroke-width="8" fill="none" stroke-linecap="round"/><circle cx="40" cy="44" r="5" fill="#8a774f"/><path d="M40 40L43 29M42 40L48 28" stroke="#8a774f" stroke-width="1.5"/></g><g transform="translate(64)"><use href="#n"/><path d="M17 45Q31 46 43 45" stroke="#8a774f" stroke-width="8" fill="none" stroke-linecap="round"/><circle cx="43" cy="44" r="5" fill="#8a774f"/><path d="M43 40L45 29M45 40L51 28" stroke="#8a774f" stroke-width="1.5"/></g><g transform="translate(128)"><use href="#n"/><path d="M17 45Q30 46 46 45" stroke="#8a774f" stroke-width="8" fill="none" stroke-linecap="round"/><circle cx="46" cy="44" r="5" fill="#8a774f"/><path d="M46 40L48 29M48 40L54 28" stroke="#8a774f" stroke-width="1.5"/></g><g transform="translate(192)"><use href="#n"/><path d="M17 45Q30 46 44 45" stroke="#8a774f" stroke-width="8" fill="none" stroke-linecap="round"/><circle cx="44" cy="44" r="5" fill="#8a774f"/><path d="M44 40L46 29M46 40L52 28" stroke="#8a774f" stroke-width="1.5"/></g><g transform="translate(256)"><use href="#n"/><path d="M17 45Q30 46 40 45" stroke="#8a774f" stroke-width="8" fill="none" stroke-linecap="round"/><circle cx="40" cy="44" r="5" fill="#8a774f"/><path d="M40 40L43 29M42 40L48 28" stroke="#8a774f" stroke-width="1.5"/></g><g transform="translate(320)"><use href="#n"/><path d="M17 45Q30 46 42 45" stroke="#8a774f" stroke-width="8" fill="none" stroke-linecap="round"/><circle cx="42" cy="44" r="5" fill="#8a774f"/><path d="M42 40L44 29M44 40L50 28" stroke="#8a774f" stroke-width="1.5"/></g><g transform="translate(384)"><use href="#n"/><path d="M17 45Q30 46 45 45" stroke="#8a774f" stroke-width="8" fill="none" stroke-linecap="round"/><circle cx="45" cy="44" r="5" fill="#8a774f"/><path d="M45 40L47 29M47 40L53 28" stroke="#8a774f" stroke-width="1.5"/></g><g transform="translate(448)"><use href="#n"/><path d="M17 45Q30 46 42 45" stroke="#8a774f" stroke-width="8" fill="none" stroke-linecap="round"/><circle cx="42" cy="44" r="5" fill="#8a774f"/><path d="M42 40L44 29M44 40L50 28" stroke="#8a774f" stroke-width="1.5"/></g></svg>