<svg xmlns="http://www.w3.org/2000/svg" viewBox="0 0 800 450" role="img" aria-label="숲의 생존자들 대표 이미지"><defs><linearGradient id="bg" x1="0" y1="0" x2="0" y2="1"><stop stop-color="#164e63"/><stop offset=".5" stop-color="#166534"/><stop offset="1" stop-color="#052e16"/></linearGradient><linearGradient id="tent" x1="0" y1="0" x2="1" y2="1"><stop stop-color="#fde68a"/><stop offset="1" stop-color="#d97706"/></linearGradient></defs><rect width="800" height="450" rx="34" fill="url(#bg)"/><g fill="#0b3b20" opacity=".95"><path d="M30 390 110 220 190 390zM120 390 225 175 330 390zM490 390 600 170 710 390zM610 390 720 215 820 390z"/></g><path d="M0 355h800v95H0z" fill="#062c1a"/><g transform="translate(272 255)"><path d="M0 110 85 0l85 110z" fill="url(#tent)" stroke="#7c2d12" stroke-width="7"/><path d="M85 0v110" stroke="#7c2d12" stroke-width="6"/></g><g fill="#e5e7eb" stroke="#102a1c" stroke-width="5"><circle cx="197" cy="298" r="23"/><path d="M171 375q26-70 52 0z"/><circle cx="580" cy="295" r="23"/><path d="M554 375q26-70 52 0z"/><circle cx="390" cy="315" r="19"/><path d="M368 380q22-58 44 0z"/></g><circle cx="400" cy="362" r="18" fill="#fb923c"/><text x="400" y="145" text-anchor="middle" fill="#ecfccb" stroke="#062c1a" stroke-width="10" paint-order="stroke" font-family="Arial Black,Noto Sans KR,sans-serif" font-size="66" font-weight="900">숲의 생존자들</text><text x="400" y="198" text-anchor="middle" fill="#bbf7d0" font-family="Arial,Noto Sans KR,sans-serif" font-size="22" font-weight="700" letter-spacing="4">TOGETHER IN THE WILD</text></svg>