# boar - project-original Roblox source asset
mtllib monster-adventure.mtl
o boar
v 0 0.1 0.37
v 0 0.1 0.37
v 0 0.1 0.37
v 0 0.1 0.37
v 0 0.1 0.37
v 0 0.1 0.37
v 0 0.1 0.37
v 0 0.1 0.37
v 0 0.1 0.37
v 0 0.1 0.37
v 0 0.1 0.37
v 0 0.1 0.37
v 0 0.1 0.37
v 0 0.1 0.37
v 0 0.1 0.37
v 0 0.1 0.37
v 0.36464 0.1 0.41307
v 0.33688 0.30695 0.41307
v 0.25784 0.48239 0.41307
v 0.13954 0.59962 0.41307
v 0 0.64078 0.41307
v -0.13954 0.59962 0.41307
v -0.25784 0.48239 0.41307
v -0.33688 0.30695 0.41307
v -0.36464 0.1 0.41307
v -0.33688 -0.10695 0.41307
v -0.25784 -0.28239 0.41307
v -0.13954 -0.39962 0.41307
v 0 -0.44078 0.41307
v 0.13954 -0.39962 0.41307
v 0.25784 -0.28239 0.41307
v 0.33688 -0.10695 0.41307
v 0.69359 0.1 0.53807
v 0.64079 0.49364 0.53807
v 0.49044 0.82735 0.53807
v 0.26542 1.05032 0.53807
v 0 1.12862 0.53807
v -0.26542 1.05032 0.53807
v -0.49044 0.82735 0.53807
v -0.64079 0.49364 0.53807
v -0.69359 0.1 0.53807
v -0.64079 -0.29364 0.53807
v -0.49044 -0.62735 0.53807
v -0.26542 -0.85032 0.53807
v 0 -0.92862 0.53807
v 0.26542 -0.85032 0.53807
v 0.49044 -0.62735 0.53807
v 0.64079 -0.29364 0.53807
v 0.95464 0.1 0.73275
v 0.88197 0.6418 0.73275
v 0.67503 1.10111 0.73275
v 0.36532 1.40801 0.73275
v 0 1.51578 0.73275
v -0.36532 1.40801 0.73275
v -0.67503 1.10111 0.73275
v -0.88197 0.6418 0.73275
v -0.95464 0.1 0.73275
v -0.88197 -0.4418 0.73275
v -0.67503 -0.90111 0.73275
v -0.36532 -1.20801 0.73275
v 0 -1.31578 0.73275
v 0.36532 -1.20801 0.73275
v 0.67503 -0.90111 0.73275
v 0.88197 -0.4418 0.73275
v 1.12225 0.1 0.97807
v 1.03682 0.73692 0.97807
v 0.79355 1.27687 0.97807
v 0.42947 1.63766 0.97807
v 0 1.76435 0.97807
v -0.42947 1.63766 0.97807
v -0.79355 1.27687 0.97807
v -1.03682 0.73692 0.97807
v -1.12225 0.1 0.97807
v -1.03682 -0.53692 0.97807
v -0.79355 -1.07687 0.97807
v -0.42947 -1.43766 0.97807
v 0 -1.56435 0.97807
v 0.42947 -1.43766 0.97807
v 0.79355 -1.07687 0.97807
v 1.03682 -0.53692 0.97807
v 1.18 0.1 1.25
v 1.09018 0.7697 1.25
v 0.83439 1.33744 1.25
v 0.45157 1.71679 1.25
v 0 1.85 1.25
v -0.45157 1.71679 1.25
v -0.83439 1.33744 1.25
v -1.09018 0.7697 1.25
v -1.18 0.1 1.25
v -1.09018 -0.5697 1.25
v -0.83439 -1.13744 1.25
v -0.45157 -1.51679 1.25
v 0 -1.65 1.25
v 0.45157 -1.51679 1.25
v 0.83439 -1.13744 1.25
v 1.09018 -0.5697 1.25
v 1.12225 0.1 1.52193
v 1.03682 0.73692 1.52193
v 0.79355 1.27687 1.52193
v 0.42947 1.63766 1.52193
v 0 1.76435 1.52193
v -0.42947 1.63766 1.52193
v -0.79355 1.27687 1.52193
v -1.03682 0.73692 1.52193
v -1.12225 0.1 1.52193
v -1.03682 -0.53692 1.52193
v -0.79355 -1.07687 1.52193
v -0.42947 -1.43766 1.52193
v 0 -1.56435 1.52193
v 0.42947 -1.43766 1.52193
v 0.79355 -1.07687 1.52193
v 1.03682 -0.53692 1.52193
v 0.95464 0.1 1.76725
v 0.88197 0.6418 1.76725
v 0.67503 1.10111 1.76725
v 0.36532 1.40801 1.76725
v 0 1.51578 1.76725
v -0.36532 1.40801 1.76725
v -0.67503 1.10111 1.76725
v -0.88197 0.6418 1.76725
v -0.95464 0.1 1.76725
v -0.88197 -0.4418 1.76725
v -0.67503 -0.90111 1.76725
v -0.36532 -1.20801 1.76725
v 0 -1.31578 1.76725
v 0.36532 -1.20801 1.76725
v 0.67503 -0.90111 1.76725
v 0.88197 -0.4418 1.76725
v 0.69359 0.1 1.96193
v 0.64079 0.49364 1.96193
v 0.49044 0.82735 1.96193
v 0.26542 1.05032 1.96193
v 0 1.12862 1.96193
v -0.26542 1.05032 1.96193
v -0.49044 0.82735 1.96193
v -0.64079 0.49364 1.96193
v -0.69359 0.1 1.96193
v -0.64079 -0.29364 1.96193
v -0.49044 -0.62735 1.96193
v -0.26542 -0.85032 1.96193
v 0 -0.92862 1.96193
v 0.26542 -0.85032 1.96193
v 0.49044 -0.62735 1.96193
v 0.64079 -0.29364 1.96193
v 0.36464 0.1 2.08693
v 0.33688 0.30695 2.08693
v 0.25784 0.48239 2.08693
v 0.13954 0.59962 2.08693
v 0 0.64078 2.08693
v -0.13954 0.59962 2.08693
v -0.25784 0.48239 2.08693
v -0.33688 0.30695 2.08693
v -0.36464 0.1 2.08693
v -0.33688 -0.10695 2.08693
v -0.25784 -0.28239 2.08693
v -0.13954 -0.39962 2.08693
v 0 -0.44078 2.08693
v 0.13954 -0.39962 2.08693
v 0.25784 -0.28239 2.08693
v 0.33688 -0.10695 2.08693
v 0 0.1 2.13
v 0 0.1 2.13
v 0 0.1 2.13
v 0 0.1 2.13
v 0 0.1 2.13
v 0 0.1 2.13
v 0 0.1 2.13
v 0 0.1 2.13
v 0 0.1 2.13
v 0 0.1 2.13
v 0 0.1 2.13
v 0 0.1 2.13
v 0 0.1 2.13
v 0 0.1 2.13
v 0 0.1 2.13
v 0 0.1 2.13
v 0 -1.05 0.46
v 0 -1.05 0.46
v 0 -1.05 0.46
v 0 -1.05 0.46
v 0 -1.05 0.46
v 0 -1.05 0.46
v 0 -1.05 0.46
v 0 -1.05 0.46
v 0 -1.05 0.46
v 0 -1.05 0.46
v 0 -1.05 0.46
v 0 -1.05 0.46
v 0 -1.05 0.46
v 0 -1.05 0.46
v 0.45922 -1.05 0.53764
v 0.41374 -0.91385 0.53764
v 0.28632 -0.80466 0.53764
v 0.10219 -0.74407 0.53764
v -0.10219 -0.74407 0.53764
v -0.28632 -0.80466 0.53764
v -0.41374 -0.91385 0.53764
v -0.45922 -1.05 0.53764
v -0.41374 -1.18615 0.53764
v -0.28632 -1.29534 0.53764
v -0.10219 -1.35593 0.53764
v 0.10219 -1.35593 0.53764
v 0.28632 -1.29534 0.53764
v 0.41374 -1.18615 0.53764
v 0.84853 -1.05 0.75875
v 0.7645 -0.79842 0.75875
v 0.52905 -0.59667 0.75875
v 0.18882 -0.48471 0.75875
v -0.18882 -0.48471 0.75875
v -0.52905 -0.59667 0.75875
v -0.7645 -0.79842 0.75875
v -0.84853 -1.05 0.75875
v -0.7645 -1.30158 0.75875
v -0.52905 -1.50333 0.75875
v -0.18882 -1.61529 0.75875
v 0.18882 -1.61529 0.75875
v 0.52905 -1.50333 0.75875
v 0.7645 -1.30158 0.75875
v 1.10866 -1.05 1.08966
v 0.99886 -0.7213 1.08966
v 0.69124 -0.4577 1.08966
v 0.2467 -0.31141 1.08966
v -0.2467 -0.31141 1.08966
v -0.69124 -0.4577 1.08966
v -0.99886 -0.7213 1.08966
v -1.10866 -1.05 1.08966
v -0.99886 -1.3787 1.08966
v -0.69124 -1.6423 1.08966
v -0.2467 -1.78859 1.08966
v 0.2467 -1.78859 1.08966
v 0.69124 -1.6423 1.08966
v 0.99886 -1.3787 1.08966
v 1.2 -1.05 1.48
v 1.08116 -0.69422 1.48
v 0.74819 -0.4089 1.48
v 0.26703 -0.25056 1.48
v -0.26703 -0.25056 1.48
v -0.74819 -0.4089 1.48
v -1.08116 -0.69422 1.48
v -1.2 -1.05 1.48
v -1.08116 -1.40578 1.48
v -0.74819 -1.6911 1.48
v -0.26703 -1.84944 1.48
v 0.26703 -1.84944 1.48
v 0.74819 -1.6911 1.48
v 1.08116 -1.40578 1.48
v 1.10866 -1.05 1.87034
v 0.99886 -0.7213 1.87034
v 0.69124 -0.4577 1.87034
v 0.2467 -0.31141 1.87034
v -0.2467 -0.31141 1.87034
v -0.69124 -0.4577 1.87034
v -0.99886 -0.7213 1.87034
v -1.10866 -1.05 1.87034
v -0.99886 -1.3787 1.87034
v -0.69124 -1.6423 1.87034
v -0.2467 -1.78859 1.87034
v 0.2467 -1.78859 1.87034
v 0.69124 -1.6423 1.87034
v 0.99886 -1.3787 1.87034
v 0.84853 -1.05 2.20125
v 0.7645 -0.79842 2.20125
v 0.52905 -0.59667 2.20125
v 0.18882 -0.48471 2.20125
v -0.18882 -0.48471 2.20125
v -0.52905 -0.59667 2.20125
v -0.7645 -0.79842 2.20125
v -0.84853 -1.05 2.20125
v -0.7645 -1.30158 2.20125
v -0.52905 -1.50333 2.20125
v -0.18882 -1.61529 2.20125
v 0.18882 -1.61529 2.20125
v 0.52905 -1.50333 2.20125
v 0.7645 -1.30158 2.20125
v 0.45922 -1.05 2.42236
v 0.41374 -0.91385 2.42236
v 0.28632 -0.80466 2.42236
v 0.10219 -0.74407 2.42236
v -0.10219 -0.74407 2.42236
v -0.28632 -0.80466 2.42236
v -0.41374 -0.91385 2.42236
v -0.45922 -1.05 2.42236
v -0.41374 -1.18615 2.42236
v -0.28632 -1.29534 2.42236
v -0.10219 -1.35593 2.42236
v 0.10219 -1.35593 2.42236
v 0.28632 -1.29534 2.42236
v 0.41374 -1.18615 2.42236
v 0 -1.05 2.5
v 0 -1.05 2.5
v 0 -1.05 2.5
v 0 -1.05 2.5
v 0 -1.05 2.5
v 0 -1.05 2.5
v 0 -1.05 2.5
v 0 -1.05 2.5
v 0 -1.05 2.5
v 0 -1.05 2.5
v 0 -1.05 2.5
v 0 -1.05 2.5
v 0 -1.05 2.5
v 0 -1.05 2.5
v 0 -2 0.87
v 0 -2 0.87
v 0 -2 0.87
v 0 -2 0.87
v 0 -2 0.87
v 0 -2 0.87
v 0 -2 0.87
v 0 -2 0.87
v 0 -2 0.87
v 0 -2 0.87
v 0 -2 0.87
v 0 -2 0.87
v 0 -2 0.87
v 0 -2 0.87
v 0.3138 -2 0.92176
v 0.28272 -1.86385 0.92176
v 0.19565 -1.75466 0.92176
v 0.06983 -1.69407 0.92176
v -0.06983 -1.69407 0.92176
v -0.19565 -1.75466 0.92176
v -0.28272 -1.86385 0.92176
v -0.3138 -2 0.92176
v -0.28272 -2.13615 0.92176
v -0.19565 -2.24534 0.92176
v -0.06983 -2.30593 0.92176
v 0.06983 -2.30593 0.92176
v 0.19565 -2.24534 0.92176
v 0.28272 -2.13615 0.92176
v 0.57983 -2 1.06917
v 0.52241 -1.74842 1.06917
v 0.36152 -1.54667 1.06917
v 0.12902 -1.43471 1.06917
v -0.12902 -1.43471 1.06917
v -0.36152 -1.54667 1.06917
v -0.52241 -1.74842 1.06917
v -0.57983 -2 1.06917
v -0.52241 -2.25158 1.06917
v -0.36152 -2.45333 1.06917
v -0.12902 -2.56529 1.06917
v 0.12902 -2.56529 1.06917
v 0.36152 -2.45333 1.06917
v 0.52241 -2.25158 1.06917
v 0.75758 -2 1.28978
v 0.68256 -1.6713 1.28978
v 0.47234 -1.4077 1.28978
v 0.16858 -1.26141 1.28978
v -0.16858 -1.26141 1.28978
v -0.47234 -1.4077 1.28978
v -0.68256 -1.6713 1.28978
v -0.75758 -2 1.28978
v -0.68256 -2.3287 1.28978
v -0.47234 -2.5923 1.28978
v -0.16858 -2.73859 1.28978
v 0.16858 -2.73859 1.28978
v 0.47234 -2.5923 1.28978
v 0.68256 -2.3287 1.28978
v 0.82 -2 1.55
v 0.73879 -1.64422 1.55
v 0.51126 -1.3589 1.55
v 0.18247 -1.20056 1.55
v -0.18247 -1.20056 1.55
v -0.51126 -1.3589 1.55
v -0.73879 -1.64422 1.55
v -0.82 -2 1.55
v -0.73879 -2.35578 1.55
v -0.51126 -2.6411 1.55
v -0.18247 -2.79944 1.55
v 0.18247 -2.79944 1.55
v 0.51126 -2.6411 1.55
v 0.73879 -2.35578 1.55
v 0.75758 -2 1.81022
v 0.68256 -1.6713 1.81022
v 0.47234 -1.4077 1.81022
v 0.16858 -1.26141 1.81022
v -0.16858 -1.26141 1.81022
v -0.47234 -1.4077 1.81022
v -0.68256 -1.6713 1.81022
v -0.75758 -2 1.81022
v -0.68256 -2.3287 1.81022
v -0.47234 -2.5923 1.81022
v -0.16858 -2.73859 1.81022
v 0.16858 -2.73859 1.81022
v 0.47234 -2.5923 1.81022
v 0.68256 -2.3287 1.81022
v 0.57983 -2 2.03083
v 0.52241 -1.74842 2.03083
v 0.36152 -1.54667 2.03083
v 0.12902 -1.43471 2.03083
v -0.12902 -1.43471 2.03083
v -0.36152 -1.54667 2.03083
v -0.52241 -1.74842 2.03083
v -0.57983 -2 2.03083
v -0.52241 -2.25158 2.03083
v -0.36152 -2.45333 2.03083
v -0.12902 -2.56529 2.03083
v 0.12902 -2.56529 2.03083
v 0.36152 -2.45333 2.03083
v 0.52241 -2.25158 2.03083
v 0.3138 -2 2.17824
v 0.28272 -1.86385 2.17824
v 0.19565 -1.75466 2.17824
v 0.06983 -1.69407 2.17824
v -0.06983 -1.69407 2.17824
v -0.19565 -1.75466 2.17824
v -0.28272 -1.86385 2.17824
v -0.3138 -2 2.17824
v -0.28272 -2.13615 2.17824
v -0.19565 -2.24534 2.17824
v -0.06983 -2.30593 2.17824
v 0.06983 -2.30593 2.17824
v 0.19565 -2.24534 2.17824
v 0.28272 -2.13615 2.17824
v 0 -2 2.23
v 0 -2 2.23
v 0 -2 2.23
v 0 -2 2.23
v 0 -2 2.23
v 0 -2 2.23
v 0 -2 2.23
v 0 -2 2.23
v 0 -2 2.23
v 0 -2 2.23
v 0 -2 2.23
v 0 -2 2.23
v 0 -2 2.23
v 0 -2 2.23
v 0 -2.72 1.05
v 0 -2.72 1.05
v 0 -2.72 1.05
v 0 -2.72 1.05
v 0 -2.72 1.05
v 0 -2.72 1.05
v 0 -2.72 1.05
v 0 -2.72 1.05
v 0 -2.72 1.05
v 0 -2.72 1.05
v 0 -2.72 1.05
v 0 -2.72 1.05
v 0.25165 -2.72 1.08763
v 0.21794 -2.61587 1.08763
v 0.12583 -2.53964 1.08763
v 0 -2.51174 1.08763
v -0.12583 -2.53964 1.08763
v -0.21794 -2.61587 1.08763
v -0.25165 -2.72 1.08763
v -0.21794 -2.82413 1.08763
v -0.12583 -2.90036 1.08763
v 0 -2.92826 1.08763
v 0.12583 -2.90036 1.08763
v 0.21794 -2.82413 1.08763
v 0.45346 -2.72 1.19307
v 0.39271 -2.53236 1.19307
v 0.22673 -2.395 1.19307
v 0 -2.34472 1.19307
v -0.22673 -2.395 1.19307
v -0.39271 -2.53236 1.19307
v -0.45346 -2.72 1.19307
v -0.39271 -2.90764 1.19307
v -0.22673 -3.045 1.19307
v 0 -3.09528 1.19307
v 0.22673 -3.045 1.19307
v 0.39271 -2.90764 1.19307
v 0.56546 -2.72 1.34544
v 0.4897 -2.48602 1.34544
v 0.28273 -2.31473 1.34544
v 0 -2.25203 1.34544
v -0.28273 -2.31473 1.34544
v -0.4897 -2.48602 1.34544
v -0.56546 -2.72 1.34544
v -0.4897 -2.95398 1.34544
v -0.28273 -3.12527 1.34544
v 0 -3.18797 1.34544
v 0.28273 -3.12527 1.34544
v 0.4897 -2.95398 1.34544
v 0.56546 -2.72 1.51456
v 0.4897 -2.48602 1.51456
v 0.28273 -2.31473 1.51456
v 0 -2.25203 1.51456
v -0.28273 -2.31473 1.51456
v -0.4897 -2.48602 1.51456
v -0.56546 -2.72 1.51456
v -0.4897 -2.95398 1.51456
v -0.28273 -3.12527 1.51456
v 0 -3.18797 1.51456
v 0.28273 -3.12527 1.51456
v 0.4897 -2.95398 1.51456
v 0.45346 -2.72 1.66693
v 0.39271 -2.53236 1.66693
v 0.22673 -2.395 1.66693
v 0 -2.34472 1.66693
v -0.22673 -2.395 1.66693
v -0.39271 -2.53236 1.66693
v -0.45346 -2.72 1.66693
v -0.39271 -2.90764 1.66693
v -0.22673 -3.045 1.66693
v 0 -3.09528 1.66693
v 0.22673 -3.045 1.66693
v 0.39271 -2.90764 1.66693
v 0.25165 -2.72 1.77237
v 0.21794 -2.61587 1.77237
v 0.12583 -2.53964 1.77237
v 0 -2.51174 1.77237
v -0.12583 -2.53964 1.77237
v -0.21794 -2.61587 1.77237
v -0.25165 -2.72 1.77237
v -0.21794 -2.82413 1.77237
v -0.12583 -2.90036 1.77237
v 0 -2.92826 1.77237
v 0.12583 -2.90036 1.77237
v 0.21794 -2.82413 1.77237
v 0 -2.72 1.81
v 0 -2.72 1.81
v 0 -2.72 1.81
v 0 -2.72 1.81
v 0 -2.72 1.81
v 0 -2.72 1.81
v 0 -2.72 1.81
v 0 -2.72 1.81
v 0 -2.72 1.81
v 0 -2.72 1.81
v 0 -2.72 1.81
v 0 -2.72 1.81
v -0.46 -0.9 1.05
v -0.50966 -1.05125 1.07187
v -0.63966 -1.14473 1.08538
v -0.80034 -1.14473 1.08538
v -0.93034 -1.05125 1.07187
v -0.98 -0.9 1.05
v -0.93034 -0.74875 1.02813
v -0.80034 -0.65527 1.01462
v -0.63966 -0.65527 1.01462
v -0.50966 -0.74875 1.02813
v -0.53 -1.02 0.22
v -0.56629 -1.13053 0.23598
v -0.66129 -1.19884 0.24586
v -0.77871 -1.19884 0.24586
v -0.87371 -1.13053 0.23598
v -0.91 -1.02 0.22
v -0.87371 -0.90947 0.20402
v -0.77871 -0.84116 0.19414
v -0.66129 -0.84116 0.19414
v -0.56629 -0.90947 0.20402
v -0.72 -0.9 1.05
v -0.72 -1.02 0.22
v -0.44 0.85 1
v -0.49348 0.6892 0.96495
v -0.63348 0.58981 0.94329
v -0.80652 0.58981 0.94329
v -0.94652 0.6892 0.96495
v -1 0.85 1
v -0.94652 1.0108 1.03505
v -0.80652 1.11019 1.05671
v -0.63348 1.11019 1.05671
v -0.49348 1.0108 1.03505
v -0.52 1.02 0.22
v -0.5582 0.90514 0.19497
v -0.6582 0.83415 0.17949
v -0.7818 0.83415 0.17949
v -0.8818 0.90514 0.19497
v -0.92 1.02 0.22
v -0.8818 1.13486 0.24503
v -0.7818 1.20585 0.26051
v -0.6582 1.20585 0.26051
v -0.5582 1.13486 0.24503
v -0.72 0.85 1
v -0.72 1.02 0.22
v -0.72 -1.08 -0.01
v -0.72 -1.08 -0.01
v -0.72 -1.08 -0.01
v -0.72 -1.08 -0.01
v -0.72 -1.08 -0.01
v -0.72 -1.08 -0.01
v -0.72 -1.08 -0.01
v -0.72 -1.08 -0.01
v -0.72 -1.08 -0.01
v -0.72 -1.08 -0.01
v -0.58 -1.08 0.01144
v -0.60674 -0.9742 0.01144
v -0.67674 -0.90881 0.01144
v -0.76326 -0.90881 0.01144
v -0.83326 -0.9742 0.01144
v -0.86 -1.08 0.01144
v -0.83326 -1.1858 0.01144
v -0.76326 -1.25119 0.01144
v -0.67674 -1.25119 0.01144
v -0.60674 -1.1858 0.01144
v -0.47751 -1.08 0.07
v -0.52382 -0.89675 0.07
v -0.64507 -0.78349 0.07
v -0.79493 -0.78349 0.07
v -0.91618 -0.89675 0.07
v -0.96249 -1.08 0.07
v -0.91618 -1.26325 0.07
v -0.79493 -1.37651 0.07
v -0.64507 -1.37651 0.07
v -0.52382 -1.26325 0.07
v -0.44 -1.08 0.15
v -0.49348 -0.8684 0.15
v -0.63348 -0.73762 0.15
v -0.80652 -0.73762 0.15
v -0.94652 -0.8684 0.15
v -1 -1.08 0.15
v -0.94652 -1.2916 0.15
v -0.80652 -1.42238 0.15
v -0.63348 -1.42238 0.15
v -0.49348 -1.2916 0.15
v -0.47751 -1.08 0.23
v -0.52382 -0.89675 0.23
v -0.64507 -0.78349 0.23
v -0.79493 -0.78349 0.23
v -0.91618 -0.89675 0.23
v -0.96249 -1.08 0.23
v -0.91618 -1.26325 0.23
v -0.79493 -1.37651 0.23
v -0.64507 -1.37651 0.23
v -0.52382 -1.26325 0.23
v -0.58 -1.08 0.28856
v -0.60674 -0.9742 0.28856
v -0.67674 -0.90881 0.28856
v -0.76326 -0.90881 0.28856
v -0.83326 -0.9742 0.28856
v -0.86 -1.08 0.28856
v -0.83326 -1.1858 0.28856
v -0.76326 -1.25119 0.28856
v -0.67674 -1.25119 0.28856
v -0.60674 -1.1858 0.28856
v -0.72 -1.08 0.31
v -0.72 -1.08 0.31
v -0.72 -1.08 0.31
v -0.72 -1.08 0.31
v -0.72 -1.08 0.31
v -0.72 -1.08 0.31
v -0.72 -1.08 0.31
v -0.72 -1.08 0.31
v -0.72 -1.08 0.31
v -0.72 -1.08 0.31
v -0.72 1.08 -0.01
v -0.72 1.08 -0.01
v -0.72 1.08 -0.01
v -0.72 1.08 -0.01
v -0.72 1.08 -0.01
v -0.72 1.08 -0.01
v -0.72 1.08 -0.01
v -0.72 1.08 -0.01
v -0.72 1.08 -0.01
v -0.72 1.08 -0.01
v -0.57 1.08 0.01144
v -0.59865 1.19168 0.01144
v -0.67365 1.2607 0.01144
v -0.76635 1.2607 0.01144
v -0.84135 1.19168 0.01144
v -0.87 1.08 0.01144
v -0.84135 0.96832 0.01144
v -0.76635 0.8993 0.01144
v -0.67365 0.8993 0.01144
v -0.59865 0.96832 0.01144
v -0.46019 1.08 0.07
v -0.50981 1.27343 0.07
v -0.63972 1.39298 0.07
v -0.80028 1.39298 0.07
v -0.93019 1.27343 0.07
v -0.97981 1.08 0.07
v -0.93019 0.88657 0.07
v -0.80028 0.76702 0.07
v -0.63972 0.76702 0.07
v -0.50981 0.88657 0.07
v -0.42 1.08 0.15
v -0.47729 1.30336 0.15
v -0.62729 1.4414 0.15
v -0.81271 1.4414 0.15
v -0.96271 1.30336 0.15
v -1.02 1.08 0.15
v -0.96271 0.85664 0.15
v -0.81271 0.7186 0.15
v -0.62729 0.7186 0.15
v -0.47729 0.85664 0.15
v -0.46019 1.08 0.23
v -0.50981 1.27343 0.23
v -0.63972 1.39298 0.23
v -0.80028 1.39298 0.23
v -0.93019 1.27343 0.23
v -0.97981 1.08 0.23
v -0.93019 0.88657 0.23
v -0.80028 0.76702 0.23
v -0.63972 0.76702 0.23
v -0.50981 0.88657 0.23
v -0.57 1.08 0.28856
v -0.59865 1.19168 0.28856
v -0.67365 1.2607 0.28856
v -0.76635 1.2607 0.28856
v -0.84135 1.19168 0.28856
v -0.87 1.08 0.28856
v -0.84135 0.96832 0.28856
v -0.76635 0.8993 0.28856
v -0.67365 0.8993 0.28856
v -0.59865 0.96832 0.28856
v -0.72 1.08 0.31
v -0.72 1.08 0.31
v -0.72 1.08 0.31
v -0.72 1.08 0.31
v -0.72 1.08 0.31
v -0.72 1.08 0.31
v -0.72 1.08 0.31
v -0.72 1.08 0.31
v -0.72 1.08 0.31
v -0.72 1.08 0.31
v 0.98 -0.9 1.05
v 0.93034 -1.05125 1.07187
v 0.80034 -1.14473 1.08538
v 0.63966 -1.14473 1.08538
v 0.50966 -1.05125 1.07187
v 0.46 -0.9 1.05
v 0.50966 -0.74875 1.02813
v 0.63966 -0.65527 1.01462
v 0.80034 -0.65527 1.01462
v 0.93034 -0.74875 1.02813
v 0.91 -1.02 0.22
v 0.87371 -1.13053 0.23598
v 0.77871 -1.19884 0.24586
v 0.66129 -1.19884 0.24586
v 0.56629 -1.13053 0.23598
v 0.53 -1.02 0.22
v 0.56629 -0.90947 0.20402
v 0.66129 -0.84116 0.19414
v 0.77871 -0.84116 0.19414
v 0.87371 -0.90947 0.20402
v 0.72 -0.9 1.05
v 0.72 -1.02 0.22
v 1 0.85 1
v 0.94652 0.6892 0.96495
v 0.80652 0.58981 0.94329
v 0.63348 0.58981 0.94329
v 0.49348 0.6892 0.96495
v 0.44 0.85 1
v 0.49348 1.0108 1.03505
v 0.63348 1.11019 1.05671
v 0.80652 1.11019 1.05671
v 0.94652 1.0108 1.03505
v 0.92 1.02 0.22
v 0.8818 0.90514 0.19497
v 0.7818 0.83415 0.17949
v 0.6582 0.83415 0.17949
v 0.5582 0.90514 0.19497
v 0.52 1.02 0.22
v 0.5582 1.13486 0.24503
v 0.6582 1.20585 0.26051
v 0.7818 1.20585 0.26051
v 0.8818 1.13486 0.24503
v 0.72 0.85 1
v 0.72 1.02 0.22
v 0.72 -1.08 -0.01
v 0.72 -1.08 -0.01
v 0.72 -1.08 -0.01
v 0.72 -1.08 -0.01
v 0.72 -1.08 -0.01
v 0.72 -1.08 -0.01
v 0.72 -1.08 -0.01
v 0.72 -1.08 -0.01
v 0.72 -1.08 -0.01
v 0.72 -1.08 -0.01
v 0.86 -1.08 0.01144
v 0.83326 -0.9742 0.01144
v 0.76326 -0.90881 0.01144
v 0.67674 -0.90881 0.01144
v 0.60674 -0.9742 0.01144
v 0.58 -1.08 0.01144
v 0.60674 -1.1858 0.01144
v 0.67674 -1.25119 0.01144
v 0.76326 -1.25119 0.01144
v 0.83326 -1.1858 0.01144
v 0.96249 -1.08 0.07
v 0.91618 -0.89675 0.07
v 0.79493 -0.78349 0.07
v 0.64507 -0.78349 0.07
v 0.52382 -0.89675 0.07
v 0.47751 -1.08 0.07
v 0.52382 -1.26325 0.07
v 0.64507 -1.37651 0.07
v 0.79493 -1.37651 0.07
v 0.91618 -1.26325 0.07
v 1 -1.08 0.15
v 0.94652 -0.8684 0.15
v 0.80652 -0.73762 0.15
v 0.63348 -0.73762 0.15
v 0.49348 -0.8684 0.15
v 0.44 -1.08 0.15
v 0.49348 -1.2916 0.15
v 0.63348 -1.42238 0.15
v 0.80652 -1.42238 0.15
v 0.94652 -1.2916 0.15
v 0.96249 -1.08 0.23
v 0.91618 -0.89675 0.23
v 0.79493 -0.78349 0.23
v 0.64507 -0.78349 0.23
v 0.52382 -0.89675 0.23
v 0.47751 -1.08 0.23
v 0.52382 -1.26325 0.23
v 0.64507 -1.37651 0.23
v 0.79493 -1.37651 0.23
v 0.91618 -1.26325 0.23
v 0.86 -1.08 0.28856
v 0.83326 -0.9742 0.28856
v 0.76326 -0.90881 0.28856
v 0.67674 -0.90881 0.28856
v 0.60674 -0.9742 0.28856
v 0.58 -1.08 0.28856
v 0.60674 -1.1858 0.28856
v 0.67674 -1.25119 0.28856
v 0.76326 -1.25119 0.28856
v 0.83326 -1.1858 0.28856
v 0.72 -1.08 0.31
v 0.72 -1.08 0.31
v 0.72 -1.08 0.31
v 0.72 -1.08 0.31
v 0.72 -1.08 0.31
v 0.72 -1.08 0.31
v 0.72 -1.08 0.31
v 0.72 -1.08 0.31
v 0.72 -1.08 0.31
v 0.72 -1.08 0.31
v 0.72 1.08 -0.01
v 0.72 1.08 -0.01
v 0.72 1.08 -0.01
v 0.72 1.08 -0.01
v 0.72 1.08 -0.01
v 0.72 1.08 -0.01
v 0.72 1.08 -0.01
v 0.72 1.08 -0.01
v 0.72 1.08 -0.01
v 0.72 1.08 -0.01
v 0.87 1.08 0.01144
v 0.84135 1.19168 0.01144
v 0.76635 1.2607 0.01144
v 0.67365 1.2607 0.01144
v 0.59865 1.19168 0.01144
v 0.57 1.08 0.01144
v 0.59865 0.96832 0.01144
v 0.67365 0.8993 0.01144
v 0.76635 0.8993 0.01144
v 0.84135 0.96832 0.01144
v 0.97981 1.08 0.07
v 0.93019 1.27343 0.07
v 0.80028 1.39298 0.07
v 0.63972 1.39298 0.07
v 0.50981 1.27343 0.07
v 0.46019 1.08 0.07
v 0.50981 0.88657 0.07
v 0.63972 0.76702 0.07
v 0.80028 0.76702 0.07
v 0.93019 0.88657 0.07
v 1.02 1.08 0.15
v 0.96271 1.30336 0.15
v 0.81271 1.4414 0.15
v 0.62729 1.4414 0.15
v 0.47729 1.30336 0.15
v 0.42 1.08 0.15
v 0.47729 0.85664 0.15
v 0.62729 0.7186 0.15
v 0.81271 0.7186 0.15
v 0.96271 0.85664 0.15
v 0.97981 1.08 0.23
v 0.93019 1.27343 0.23
v 0.80028 1.39298 0.23
v 0.63972 1.39298 0.23
v 0.50981 1.27343 0.23
v 0.46019 1.08 0.23
v 0.50981 0.88657 0.23
v 0.63972 0.76702 0.23
v 0.80028 0.76702 0.23
v 0.93019 0.88657 0.23
v 0.87 1.08 0.28856
v 0.84135 1.19168 0.28856
v 0.76635 1.2607 0.28856
v 0.67365 1.2607 0.28856
v 0.59865 1.19168 0.28856
v 0.57 1.08 0.28856
v 0.59865 0.96832 0.28856
v 0.67365 0.8993 0.28856
v 0.76635 0.8993 0.28856
v 0.84135 0.96832 0.28856
v 0.72 1.08 0.31
v 0.72 1.08 0.31
v 0.72 1.08 0.31
v 0.72 1.08 0.31
v 0.72 1.08 0.31
v 0.72 1.08 0.31
v 0.72 1.08 0.31
v 0.72 1.08 0.31
v 0.72 1.08 0.31
v 0.72 1.08 0.31
v -0.43093 -2.81838 1.37
v -0.43154 -2.86562 1.33015
v -0.39719 -2.91071 1.30552
v -0.341 -2.93643 1.30552
v -0.28442 -2.93296 1.33015
v -0.24907 -2.90162 1.37
v -0.24846 -2.85438 1.40985
v -0.28281 -2.80929 1.43448
v -0.339 -2.78357 1.43448
v -0.39558 -2.78704 1.40985
v -0.47719 -3.11168 1.68
v -0.47731 -3.12112 1.67203
v -0.47044 -3.13014 1.6671
v -0.4592 -3.13529 1.6671
v -0.44788 -3.13459 1.67203
v -0.44081 -3.12832 1.68
v -0.44069 -3.11888 1.68797
v -0.44756 -3.10986 1.6929
v -0.4588 -3.10471 1.6929
v -0.47012 -3.10541 1.68797
v -0.34 -2.86 1.37
v -0.459 -3.12 1.68
v 0.24907 -2.90162 1.37
v 0.28442 -2.93296 1.33015
v 0.341 -2.93643 1.30552
v 0.39719 -2.91071 1.30552
v 0.43154 -2.86562 1.33015
v 0.43093 -2.81838 1.37
v 0.39558 -2.78704 1.40985
v 0.339 -2.78357 1.43448
v 0.28281 -2.80929 1.43448
v 0.24846 -2.85438 1.40985
v 0.44081 -3.12832 1.68
v 0.44788 -3.13459 1.67203
v 0.4592 -3.13529 1.6671
v 0.47044 -3.13014 1.6671
v 0.47731 -3.12112 1.67203
v 0.47719 -3.11168 1.68
v 0.47012 -3.10541 1.68797
v 0.4588 -3.10471 1.6929
v 0.44756 -3.10986 1.6929
v 0.44069 -3.11888 1.68797
v 0.34 -2.86 1.37
v 0.459 -3.12 1.68
v -0.55 -2 1.89
v -0.12 -2.05 1.86
v -0.48 -2.4 2.22
v -0.55 -2 2.01
v -0.12 -2.05 1.98
v -0.48 -2.4 2.34
v 0.12 -2.05 1.86
v 0.55 -2 1.89
v 0.48 -2.4 2.22
v 0.12 -2.05 1.98
v 0.55 -2 2.01
v 0.48 -2.4 2.34
v 0.09285 1.66286 1.42
v 0.07691 1.70189 1.35612
v 0.01592 1.73981 1.32966
v -0.05439 1.75441 1.35612
v -0.09285 1.73714 1.42
v -0.07691 1.69811 1.48388
v -0.01592 1.66019 1.51034
v 0.05439 1.64559 1.48388
v 0.22642 2.13143 1.65
v 0.21846 2.15094 1.61806
v 0.18796 2.1699 1.60483
v 0.1528 2.1772 1.61806
v 0.13358 2.16857 1.65
v 0.14154 2.14906 1.68194
v 0.17204 2.1301 1.69517
v 0.2072 2.1228 1.68194
v 0 1.7 1.42
v 0.18 2.15 1.65
v -0.28 -2.64 1.59
v -0.28 -2.64 1.59
v -0.28 -2.64 1.59
v -0.28 -2.64 1.59
v -0.28 -2.64 1.59
v -0.28 -2.64 1.59
v -0.28 -2.64 1.59
v -0.28 -2.64 1.59
v -0.28 -2.64 1.59
v -0.28 -2.64 1.59
v -0.235 -2.64 1.60206
v -0.24359 -2.62531 1.60206
v -0.26609 -2.61622 1.60206
v -0.29391 -2.61622 1.60206
v -0.31641 -2.62531 1.60206
v -0.325 -2.64 1.60206
v -0.31641 -2.65469 1.60206
v -0.29391 -2.66378 1.60206
v -0.26609 -2.66378 1.60206
v -0.24359 -2.65469 1.60206
v -0.20206 -2.64 1.635
v -0.21694 -2.61455 1.635
v -0.25591 -2.59882 1.635
v -0.30409 -2.59882 1.635
v -0.34306 -2.61455 1.635
v -0.35794 -2.64 1.635
v -0.34306 -2.66545 1.635
v -0.30409 -2.68118 1.635
v -0.25591 -2.68118 1.635
v -0.21694 -2.66545 1.635
v -0.19 -2.64 1.68
v -0.20719 -2.61061 1.68
v -0.25219 -2.59245 1.68
v -0.30781 -2.59245 1.68
v -0.35281 -2.61061 1.68
v -0.37 -2.64 1.68
v -0.35281 -2.66939 1.68
v -0.30781 -2.68755 1.68
v -0.25219 -2.68755 1.68
v -0.20719 -2.66939 1.68
v -0.20206 -2.64 1.725
v -0.21694 -2.61455 1.725
v -0.25591 -2.59882 1.725
v -0.30409 -2.59882 1.725
v -0.34306 -2.61455 1.725
v -0.35794 -2.64 1.725
v -0.34306 -2.66545 1.725
v -0.30409 -2.68118 1.725
v -0.25591 -2.68118 1.725
v -0.21694 -2.66545 1.725
v -0.235 -2.64 1.75794
v -0.24359 -2.62531 1.75794
v -0.26609 -2.61622 1.75794
v -0.29391 -2.61622 1.75794
v -0.31641 -2.62531 1.75794
v -0.325 -2.64 1.75794
v -0.31641 -2.65469 1.75794
v -0.29391 -2.66378 1.75794
v -0.26609 -2.66378 1.75794
v -0.24359 -2.65469 1.75794
v -0.28 -2.64 1.77
v -0.28 -2.64 1.77
v -0.28 -2.64 1.77
v -0.28 -2.64 1.77
v -0.28 -2.64 1.77
v -0.28 -2.64 1.77
v -0.28 -2.64 1.77
v -0.28 -2.64 1.77
v -0.28 -2.64 1.77
v -0.28 -2.64 1.77
v 0.28 -2.64 1.59
v 0.28 -2.64 1.59
v 0.28 -2.64 1.59
v 0.28 -2.64 1.59
v 0.28 -2.64 1.59
v 0.28 -2.64 1.59
v 0.28 -2.64 1.59
v 0.28 -2.64 1.59
v 0.28 -2.64 1.59
v 0.28 -2.64 1.59
v 0.325 -2.64 1.60206
v 0.31641 -2.62531 1.60206
v 0.29391 -2.61622 1.60206
v 0.26609 -2.61622 1.60206
v 0.24359 -2.62531 1.60206
v 0.235 -2.64 1.60206
v 0.24359 -2.65469 1.60206
v 0.26609 -2.66378 1.60206
v 0.29391 -2.66378 1.60206
v 0.31641 -2.65469 1.60206
v 0.35794 -2.64 1.635
v 0.34306 -2.61455 1.635
v 0.30409 -2.59882 1.635
v 0.25591 -2.59882 1.635
v 0.21694 -2.61455 1.635
v 0.20206 -2.64 1.635
v 0.21694 -2.66545 1.635
v 0.25591 -2.68118 1.635
v 0.30409 -2.68118 1.635
v 0.34306 -2.66545 1.635
v 0.37 -2.64 1.68
v 0.35281 -2.61061 1.68
v 0.30781 -2.59245 1.68
v 0.25219 -2.59245 1.68
v 0.20719 -2.61061 1.68
v 0.19 -2.64 1.68
v 0.20719 -2.66939 1.68
v 0.25219 -2.68755 1.68
v 0.30781 -2.68755 1.68
v 0.35281 -2.66939 1.68
v 0.35794 -2.64 1.725
v 0.34306 -2.61455 1.725
v 0.30409 -2.59882 1.725
v 0.25591 -2.59882 1.725
v 0.21694 -2.61455 1.725
v 0.20206 -2.64 1.725
v 0.21694 -2.66545 1.725
v 0.25591 -2.68118 1.725
v 0.30409 -2.68118 1.725
v 0.34306 -2.66545 1.725
v 0.325 -2.64 1.75794
v 0.31641 -2.62531 1.75794
v 0.29391 -2.61622 1.75794
v 0.26609 -2.61622 1.75794
v 0.24359 -2.62531 1.75794
v 0.235 -2.64 1.75794
v 0.24359 -2.65469 1.75794
v 0.26609 -2.66378 1.75794
v 0.29391 -2.66378 1.75794
v 0.31641 -2.65469 1.75794
v 0.28 -2.64 1.77
v 0.28 -2.64 1.77
v 0.28 -2.64 1.77
v 0.28 -2.64 1.77
v 0.28 -2.64 1.77
v 0.28 -2.64 1.77
v 0.28 -2.64 1.77
v 0.28 -2.64 1.77
v 0.28 -2.64 1.77
v 0.28 -2.64 1.77
g Body
usemtl BOAR_BROWN
f 1 2 18 17
f 2 3 19 18
f 3 4 20 19
f 4 5 21 20
f 5 6 22 21
f 6 7 23 22
f 7 8 24 23
f 8 9 25 24
f 9 10 26 25
f 10 11 27 26
f 11 12 28 27
f 12 13 29 28
f 13 14 30 29
f 14 15 31 30
f 15 16 32 31
f 16 1 17 32
f 17 18 34 33
f 18 19 35 34
f 19 20 36 35
f 20 21 37 36
f 21 22 38 37
f 22 23 39 38
f 23 24 40 39
f 24 25 41 40
f 25 26 42 41
f 26 27 43 42
f 27 28 44 43
f 28 29 45 44
f 29 30 46 45
f 30 31 47 46
f 31 32 48 47
f 32 17 33 48
f 33 34 50 49
f 34 35 51 50
f 35 36 52 51
f 36 37 53 52
f 37 38 54 53
f 38 39 55 54
f 39 40 56 55
f 40 41 57 56
f 41 42 58 57
f 42 43 59 58
f 43 44 60 59
f 44 45 61 60
f 45 46 62 61
f 46 47 63 62
f 47 48 64 63
f 48 33 49 64
f 49 50 66 65
f 50 51 67 66
f 51 52 68 67
f 52 53 69 68
f 53 54 70 69
f 54 55 71 70
f 55 56 72 71
f 56 57 73 72
f 57 58 74 73
f 58 59 75 74
f 59 60 76 75
f 60 61 77 76
f 61 62 78 77
f 62 63 79 78
f 63 64 80 79
f 64 49 65 80
f 65 66 82 81
f 66 67 83 82
f 67 68 84 83
f 68 69 85 84
f 69 70 86 85
f 70 71 87 86
f 71 72 88 87
f 72 73 89 88
f 73 74 90 89
f 74 75 91 90
f 75 76 92 91
f 76 77 93 92
f 77 78 94 93
f 78 79 95 94
f 79 80 96 95
f 80 65 81 96
f 81 82 98 97
f 82 83 99 98
f 83 84 100 99
f 84 85 101 100
f 85 86 102 101
f 86 87 103 102
f 87 88 104 103
f 88 89 105 104
f 89 90 106 105
f 90 91 107 106
f 91 92 108 107
f 92 93 109 108
f 93 94 110 109
f 94 95 111 110
f 95 96 112 111
f 96 81 97 112
f 97 98 114 113
f 98 99 115 114
f 99 100 116 115
f 100 101 117 116
f 101 102 118 117
f 102 103 119 118
f 103 104 120 119
f 104 105 121 120
f 105 106 122 121
f 106 107 123 122
f 107 108 124 123
f 108 109 125 124
f 109 110 126 125
f 110 111 127 126
f 111 112 128 127
f 112 97 113 128
f 113 114 130 129
f 114 115 131 130
f 115 116 132 131
f 116 117 133 132
f 117 118 134 133
f 118 119 135 134
f 119 120 136 135
f 120 121 137 136
f 121 122 138 137
f 122 123 139 138
f 123 124 140 139
f 124 125 141 140
f 125 126 142 141
f 126 127 143 142
f 127 128 144 143
f 128 113 129 144
f 129 130 146 145
f 130 131 147 146
f 131 132 148 147
f 132 133 149 148
f 133 134 150 149
f 134 135 151 150
f 135 136 152 151
f 136 137 153 152
f 137 138 154 153
f 138 139 155 154
f 139 140 156 155
f 140 141 157 156
f 141 142 158 157
f 142 143 159 158
f 143 144 160 159
f 144 129 145 160
f 145 146 162 161
f 146 147 163 162
f 147 148 164 163
f 148 149 165 164
f 149 150 166 165
f 150 151 167 166
f 151 152 168 167
f 152 153 169 168
f 153 154 170 169
f 154 155 171 170
f 155 156 172 171
f 156 157 173 172
f 157 158 174 173
f 158 159 175 174
f 159 160 176 175
f 160 145 161 176
g Shoulder
usemtl BOAR_DARK
f 177 178 192 191
f 178 179 193 192
f 179 180 194 193
f 180 181 195 194
f 181 182 196 195
f 182 183 197 196
f 183 184 198 197
f 184 185 199 198
f 185 186 200 199
f 186 187 201 200
f 187 188 202 201
f 188 189 203 202
f 189 190 204 203
f 190 177 191 204
f 191 192 206 205
f 192 193 207 206
f 193 194 208 207
f 194 195 209 208
f 195 196 210 209
f 196 197 211 210
f 197 198 212 211
f 198 199 213 212
f 199 200 214 213
f 200 201 215 214
f 201 202 216 215
f 202 203 217 216
f 203 204 218 217
f 204 191 205 218
f 205 206 220 219
f 206 207 221 220
f 207 208 222 221
f 208 209 223 222
f 209 210 224 223
f 210 211 225 224
f 211 212 226 225
f 212 213 227 226
f 213 214 228 227
f 214 215 229 228
f 215 216 230 229
f 216 217 231 230
f 217 218 232 231
f 218 205 219 232
f 219 220 234 233
f 220 221 235 234
f 221 222 236 235
f 222 223 237 236
f 223 224 238 237
f 224 225 239 238
f 225 226 240 239
f 226 227 241 240
f 227 228 242 241
f 228 229 243 242
f 229 230 244 243
f 230 231 245 244
f 231 232 246 245
f 232 219 233 246
f 233 234 248 247
f 234 235 249 248
f 235 236 250 249
f 236 237 251 250
f 237 238 252 251
f 238 239 253 252
f 239 240 254 253
f 240 241 255 254
f 241 242 256 255
f 242 243 257 256
f 243 244 258 257
f 244 245 259 258
f 245 246 260 259
f 246 233 247 260
f 247 248 262 261
f 248 249 263 262
f 249 250 264 263
f 250 251 265 264
f 251 252 266 265
f 252 253 267 266
f 253 254 268 267
f 254 255 269 268
f 255 256 270 269
f 256 257 271 270
f 257 258 272 271
f 258 259 273 272
f 259 260 274 273
f 260 247 261 274
f 261 262 276 275
f 262 263 277 276
f 263 264 278 277
f 264 265 279 278
f 265 266 280 279
f 266 267 281 280
f 267 268 282 281
f 268 269 283 282
f 269 270 284 283
f 270 271 285 284
f 271 272 286 285
f 272 273 287 286
f 273 274 288 287
f 274 261 275 288
f 275 276 290 289
f 276 277 291 290
f 277 278 292 291
f 278 279 293 292
f 279 280 294 293
f 280 281 295 294
f 281 282 296 295
f 282 283 297 296
f 283 284 298 297
f 284 285 299 298
f 285 286 300 299
f 286 287 301 300
f 287 288 302 301
f 288 275 289 302
g Head
usemtl BOAR_BROWN
f 303 304 318 317
f 304 305 319 318
f 305 306 320 319
f 306 307 321 320
f 307 308 322 321
f 308 309 323 322
f 309 310 324 323
f 310 311 325 324
f 311 312 326 325
f 312 313 327 326
f 313 314 328 327
f 314 315 329 328
f 315 316 330 329
f 316 303 317 330
f 317 318 332 331
f 318 319 333 332
f 319 320 334 333
f 320 321 335 334
f 321 322 336 335
f 322 323 337 336
f 323 324 338 337
f 324 325 339 338
f 325 326 340 339
f 326 327 341 340
f 327 328 342 341
f 328 329 343 342
f 329 330 344 343
f 330 317 331 344
f 331 332 346 345
f 332 333 347 346
f 333 334 348 347
f 334 335 349 348
f 335 336 350 349
f 336 337 351 350
f 337 338 352 351
f 338 339 353 352
f 339 340 354 353
f 340 341 355 354
f 341 342 356 355
f 342 343 357 356
f 343 344 358 357
f 344 331 345 358
f 345 346 360 359
f 346 347 361 360
f 347 348 362 361
f 348 349 363 362
f 349 350 364 363
f 350 351 365 364
f 351 352 366 365
f 352 353 367 366
f 353 354 368 367
f 354 355 369 368
f 355 356 370 369
f 356 357 371 370
f 357 358 372 371
f 358 345 359 372
f 359 360 374 373
f 360 361 375 374
f 361 362 376 375
f 362 363 377 376
f 363 364 378 377
f 364 365 379 378
f 365 366 380 379
f 366 367 381 380
f 367 368 382 381
f 368 369 383 382
f 369 370 384 383
f 370 371 385 384
f 371 372 386 385
f 372 359 373 386
f 373 374 388 387
f 374 375 389 388
f 375 376 390 389
f 376 377 391 390
f 377 378 392 391
f 378 379 393 392
f 379 380 394 393
f 380 381 395 394
f 381 382 396 395
f 382 383 397 396
f 383 384 398 397
f 384 385 399 398
f 385 386 400 399
f 386 373 387 400
f 387 388 402 401
f 388 389 403 402
f 389 390 404 403
f 390 391 405 404
f 391 392 406 405
f 392 393 407 406
f 393 394 408 407
f 394 395 409 408
f 395 396 410 409
f 396 397 411 410
f 397 398 412 411
f 398 399 413 412
f 399 400 414 413
f 400 387 401 414
f 401 402 416 415
f 402 403 417 416
f 403 404 418 417
f 404 405 419 418
f 405 406 420 419
f 406 407 421 420
f 407 408 422 421
f 408 409 423 422
f 409 410 424 423
f 410 411 425 424
f 411 412 426 425
f 412 413 427 426
f 413 414 428 427
f 414 401 415 428
g Snout
usemtl BOAR_MUZZLE
f 429 430 442 441
f 430 431 443 442
f 431 432 444 443
f 432 433 445 444
f 433 434 446 445
f 434 435 447 446
f 435 436 448 447
f 436 437 449 448
f 437 438 450 449
f 438 439 451 450
f 439 440 452 451
f 440 429 441 452
f 441 442 454 453
f 442 443 455 454
f 443 444 456 455
f 444 445 457 456
f 445 446 458 457
f 446 447 459 458
f 447 448 460 459
f 448 449 461 460
f 449 450 462 461
f 450 451 463 462
f 451 452 464 463
f 452 441 453 464
f 453 454 466 465
f 454 455 467 466
f 455 456 468 467
f 456 457 469 468
f 457 458 470 469
f 458 459 471 470
f 459 460 472 471
f 460 461 473 472
f 461 462 474 473
f 462 463 475 474
f 463 464 476 475
f 464 453 465 476
f 465 466 478 477
f 466 467 479 478
f 467 468 480 479
f 468 469 481 480
f 469 470 482 481
f 470 471 483 482
f 471 472 484 483
f 472 473 485 484
f 473 474 486 485
f 474 475 487 486
f 475 476 488 487
f 476 465 477 488
f 477 478 490 489
f 478 479 491 490
f 479 480 492 491
f 480 481 493 492
f 481 482 494 493
f 482 483 495 494
f 483 484 496 495
f 484 485 497 496
f 485 486 498 497
f 486 487 499 498
f 487 488 500 499
f 488 477 489 500
f 489 490 502 501
f 490 491 503 502
f 491 492 504 503
f 492 493 505 504
f 493 494 506 505
f 494 495 507 506
f 495 496 508 507
f 496 497 509 508
f 497 498 510 509
f 498 499 511 510
f 499 500 512 511
f 500 489 501 512
f 501 502 514 513
f 502 503 515 514
f 503 504 516 515
f 504 505 517 516
f 505 506 518 517
f 506 507 519 518
f 507 508 520 519
f 508 509 521 520
f 509 510 522 521
f 510 511 523 522
f 511 512 524 523
f 512 501 513 524
g FrontLeg-0.72
usemtl BOAR_DARK
f 525 526 536 535
f 526 527 537 536
f 527 528 538 537
f 528 529 539 538
f 529 530 540 539
f 530 531 541 540
f 531 532 542 541
f 532 533 543 542
f 533 534 544 543
f 534 525 535 544
f 545 526 525
f 546 535 536
f 545 527 526
f 546 536 537
f 545 528 527
f 546 537 538
f 545 529 528
f 546 538 539
f 545 530 529
f 546 539 540
f 545 531 530
f 546 540 541
f 545 532 531
f 546 541 542
f 545 533 532
f 546 542 543
f 545 534 533
f 546 543 544
f 545 525 534
f 546 544 535
g BackLeg-0.72
f 547 548 558 557
f 548 549 559 558
f 549 550 560 559
f 550 551 561 560
f 551 552 562 561
f 552 553 563 562
f 553 554 564 563
f 554 555 565 564
f 555 556 566 565
f 556 547 557 566
f 567 548 547
f 568 557 558
f 567 549 548
f 568 558 559
f 567 550 549
f 568 559 560
f 567 551 550
f 568 560 561
f 567 552 551
f 568 561 562
f 567 553 552
f 568 562 563
f 567 554 553
f 568 563 564
f 567 555 554
f 568 564 565
f 567 556 555
f 568 565 566
f 567 547 556
f 568 566 557
g FootF-0.72
f 569 570 580 579
f 570 571 581 580
f 571 572 582 581
f 572 573 583 582
f 573 574 584 583
f 574 575 585 584
f 575 576 586 585
f 576 577 587 586
f 577 578 588 587
f 578 569 579 588
f 579 580 590 589
f 580 581 591 590
f 581 582 592 591
f 582 583 593 592
f 583 584 594 593
f 584 585 595 594
f 585 586 596 595
f 586 587 597 596
f 587 588 598 597
f 588 579 589 598
f 589 590 600 599
f 590 591 601 600
f 591 592 602 601
f 592 593 603 602
f 593 594 604 603
f 594 595 605 604
f 595 596 606 605
f 596 597 607 606
f 597 598 608 607
f 598 589 599 608
f 599 600 610 609
f 600 601 611 610
f 601 602 612 611
f 602 603 613 612
f 603 604 614 613
f 604 605 615 614
f 605 606 616 615
f 606 607 617 616
f 607 608 618 617
f 608 599 609 618
f 609 610 620 619
f 610 611 621 620
f 611 612 622 621
f 612 613 623 622
f 613 614 624 623
f 614 615 625 624
f 615 616 626 625
f 616 617 627 626
f 617 618 628 627
f 618 609 619 628
f 619 620 630 629
f 620 621 631 630
f 621 622 632 631
f 622 623 633 632
f 623 624 634 633
f 624 625 635 634
f 625 626 636 635
f 626 627 637 636
f 627 628 638 637
f 628 619 629 638
g FootB-0.72
f 639 640 650 649
f 640 641 651 650
f 641 642 652 651
f 642 643 653 652
f 643 644 654 653
f 644 645 655 654
f 645 646 656 655
f 646 647 657 656
f 647 648 658 657
f 648 639 649 658
f 649 650 660 659
f 650 651 661 660
f 651 652 662 661
f 652 653 663 662
f 653 654 664 663
f 654 655 665 664
f 655 656 666 665
f 656 657 667 666
f 657 658 668 667
f 658 649 659 668
f 659 660 670 669
f 660 661 671 670
f 661 662 672 671
f 662 663 673 672
f 663 664 674 673
f 664 665 675 674
f 665 666 676 675
f 666 667 677 676
f 667 668 678 677
f 668 659 669 678
f 669 670 680 679
f 670 671 681 680
f 671 672 682 681
f 672 673 683 682
f 673 674 684 683
f 674 675 685 684
f 675 676 686 685
f 676 677 687 686
f 677 678 688 687
f 678 669 679 688
f 679 680 690 689
f 680 681 691 690
f 681 682 692 691
f 682 683 693 692
f 683 684 694 693
f 684 685 695 694
f 685 686 696 695
f 686 687 697 696
f 687 688 698 697
f 688 679 689 698
f 689 690 700 699
f 690 691 701 700
f 691 692 702 701
f 692 693 703 702
f 693 694 704 703
f 694 695 705 704
f 695 696 706 705
f 696 697 707 706
f 697 698 708 707
f 698 689 699 708
g FrontLeg0.72
f 709 710 720 719
f 710 711 721 720
f 711 712 722 721
f 712 713 723 722
f 713 714 724 723
f 714 715 725 724
f 715 716 726 725
f 716 717 727 726
f 717 718 728 727
f 718 709 719 728
f 729 710 709
f 730 719 720
f 729 711 710
f 730 720 721
f 729 712 711
f 730 721 722
f 729 713 712
f 730 722 723
f 729 714 713
f 730 723 724
f 729 715 714
f 730 724 725
f 729 716 715
f 730 725 726
f 729 717 716
f 730 726 727
f 729 718 717
f 730 727 728
f 729 709 718
f 730 728 719
g BackLeg0.72
f 731 732 742 741
f 732 733 743 742
f 733 734 744 743
f 734 735 745 744
f 735 736 746 745
f 736 737 747 746
f 737 738 748 747
f 738 739 749 748
f 739 740 750 749
f 740 731 741 750
f 751 732 731
f 752 741 742
f 751 733 732
f 752 742 743
f 751 734 733
f 752 743 744
f 751 735 734
f 752 744 745
f 751 736 735
f 752 745 746
f 751 737 736
f 752 746 747
f 751 738 737
f 752 747 748
f 751 739 738
f 752 748 749
f 751 740 739
f 752 749 750
f 751 731 740
f 752 750 741
g FootF0.72
f 753 754 764 763
f 754 755 765 764
f 755 756 766 765
f 756 757 767 766
f 757 758 768 767
f 758 759 769 768
f 759 760 770 769
f 760 761 771 770
f 761 762 772 771
f 762 753 763 772
f 763 764 774 773
f 764 765 775 774
f 765 766 776 775
f 766 767 777 776
f 767 768 778 777
f 768 769 779 778
f 769 770 780 779
f 770 771 781 780
f 771 772 782 781
f 772 763 773 782
f 773 774 784 783
f 774 775 785 784
f 775 776 786 785
f 776 777 787 786
f 777 778 788 787
f 778 779 789 788
f 779 780 790 789
f 780 781 791 790
f 781 782 792 791
f 782 773 783 792
f 783 784 794 793
f 784 785 795 794
f 785 786 796 795
f 786 787 797 796
f 787 788 798 797
f 788 789 799 798
f 789 790 800 799
f 790 791 801 800
f 791 792 802 801
f 792 783 793 802
f 793 794 804 803
f 794 795 805 804
f 795 796 806 805
f 796 797 807 806
f 797 798 808 807
f 798 799 809 808
f 799 800 810 809
f 800 801 811 810
f 801 802 812 811
f 802 793 803 812
f 803 804 814 813
f 804 805 815 814
f 805 806 816 815
f 806 807 817 816
f 807 808 818 817
f 808 809 819 818
f 809 810 820 819
f 810 811 821 820
f 811 812 822 821
f 812 803 813 822
g FootB0.72
f 823 824 834 833
f 824 825 835 834
f 825 826 836 835
f 826 827 837 836
f 827 828 838 837
f 828 829 839 838
f 829 830 840 839
f 830 831 841 840
f 831 832 842 841
f 832 823 833 842
f 833 834 844 843
f 834 835 845 844
f 835 836 846 845
f 836 837 847 846
f 837 838 848 847
f 838 839 849 848
f 839 840 850 849
f 840 841 851 850
f 841 842 852 851
f 842 833 843 852
f 843 844 854 853
f 844 845 855 854
f 845 846 856 855
f 846 847 857 856
f 847 848 858 857
f 848 849 859 858
f 849 850 860 859
f 850 851 861 860
f 851 852 862 861
f 852 843 853 862
f 853 854 864 863
f 854 855 865 864
f 855 856 866 865
f 856 857 867 866
f 857 858 868 867
f 858 859 869 868
f 859 860 870 869
f 860 861 871 870
f 861 862 872 871
f 862 853 863 872
f 863 864 874 873
f 864 865 875 874
f 865 866 876 875
f 866 867 877 876
f 867 868 878 877
f 868 869 879 878
f 869 870 880 879
f 870 871 881 880
f 871 872 882 881
f 872 863 873 882
f 873 874 884 883
f 874 875 885 884
f 875 876 886 885
f 876 877 887 886
f 877 878 888 887
f 878 879 889 888
f 879 880 890 889
f 880 881 891 890
f 881 882 892 891
f 882 873 883 892
g Tusk-0.34
usemtl IVORY
f 893 894 904 903
f 894 895 905 904
f 895 896 906 905
f 896 897 907 906
f 897 898 908 907
f 898 899 909 908
f 899 900 910 909
f 900 901 911 910
f 901 902 912 911
f 902 893 903 912
f 913 894 893
f 914 903 904
f 913 895 894
f 914 904 905
f 913 896 895
f 914 905 906
f 913 897 896
f 914 906 907
f 913 898 897
f 914 907 908
f 913 899 898
f 914 908 909
f 913 900 899
f 914 909 910
f 913 901 900
f 914 910 911
f 913 902 901
f 914 911 912
f 913 893 902
f 914 912 903
g Tusk0.34
f 915 916 926 925
f 916 917 927 926
f 917 918 928 927
f 918 919 929 928
f 919 920 930 929
f 920 921 931 930
f 921 922 932 931
f 922 923 933 932
f 923 924 934 933
f 924 915 925 934
f 935 916 915
f 936 925 926
f 935 917 916
f 936 926 927
f 935 918 917
f 936 927 928
f 935 919 918
f 936 928 929
f 935 920 919
f 936 929 930
f 935 921 920
f 936 930 931
f 935 922 921
f 936 931 932
f 935 923 922
f 936 932 933
f 935 924 923
f 936 933 934
f 935 915 924
f 936 934 925
g EarL
usemtl BOAR_DARK
f 937 938 941 940
f 938 939 942 941
f 939 937 940 942
f 939 938 937
f 940 941 942
g EarR
f 943 944 947 946
f 944 945 948 947
f 945 943 946 948
f 945 944 943
f 946 947 948
g Tail
f 949 950 958 957
f 950 951 959 958
f 951 952 960 959
f 952 953 961 960
f 953 954 962 961
f 954 955 963 962
f 955 956 964 963
f 956 949 957 964
f 965 950 949
f 966 957 958
f 965 951 950
f 966 958 959
f 965 952 951
f 966 959 960
f 965 953 952
f 966 960 961
f 965 954 953
f 966 961 962
f 965 955 954
f 966 962 963
f 965 956 955
f 966 963 964
f 965 949 956
f 966 964 957
g EyeL
usemtl EYE_DARK
f 967 968 978 977
f 968 969 979 978
f 969 970 980 979
f 970 971 981 980
f 971 972 982 981
f 972 973 983 982
f 973 974 984 983
f 974 975 985 984
f 975 976 986 985
f 976 967 977 986
f 977 978 988 987
f 978 979 989 988
f 979 980 990 989
f 980 981 991 990
f 981 982 992 991
f 982 983 993 992
f 983 984 994 993
f 984 985 995 994
f 985 986 996 995
f 986 977 987 996
f 987 988 998 997
f 988 989 999 998
f 989 990 1000 999
f 990 991 1001 1000
f 991 992 1002 1001
f 992 993 1003 1002
f 993 994 1004 1003
f 994 995 1005 1004
f 995 996 1006 1005
f 996 987 997 1006
f 997 998 1008 1007
f 998 999 1009 1008
f 999 1000 1010 1009
f 1000 1001 1011 1010
f 1001 1002 1012 1011
f 1002 1003 1013 1012
f 1003 1004 1014 1013
f 1004 1005 1015 1014
f 1005 1006 1016 1015
f 1006 997 1007 1016
f 1007 1008 1018 1017
f 1008 1009 1019 1018
f 1009 1010 1020 1019
f 1010 1011 1021 1020
f 1011 1012 1022 1021
f 1012 1013 1023 1022
f 1013 1014 1024 1023
f 1014 1015 1025 1024
f 1015 1016 1026 1025
f 1016 1007 1017 1026
f 1017 1018 1028 1027
f 1018 1019 1029 1028
f 1019 1020 1030 1029
f 1020 1021 1031 1030
f 1021 1022 1032 1031
f 1022 1023 1033 1032
f 1023 1024 1034 1033
f 1024 1025 1035 1034
f 1025 1026 1036 1035
f 1026 1017 1027 1036
g EyeR
f 1037 1038 1048 1047
f 1038 1039 1049 1048
f 1039 1040 1050 1049
f 1040 1041 1051 1050
f 1041 1042 1052 1051
f 1042 1043 1053 1052
f 1043 1044 1054 1053
f 1044 1045 1055 1054
f 1045 1046 1056 1055
f 1046 1037 1047 1056
f 1047 1048 1058 1057
f 1048 1049 1059 1058
f 1049 1050 1060 1059
f 1050 1051 1061 1060
f 1051 1052 1062 1061
f 1052 1053 1063 1062
f 1053 1054 1064 1063
f 1054 1055 1065 1064
f 1055 1056 1066 1065
f 1056 1047 1057 1066
f 1057 1058 1068 1067
f 1058 1059 1069 1068
f 1059 1060 1070 1069
f 1060 1061 1071 1070
f 1061 1062 1072 1071
f 1062 1063 1073 1072
f 1063 1064 1074 1073
f 1064 1065 1075 1074
f 1065 1066 1076 1075
f 1066 1057 1067 1076
f 1067 1068 1078 1077
f 1068 1069 1079 1078
f 1069 1070 1080 1079
f 1070 1071 1081 1080
f 1071 1072 1082 1081
f 1072 1073 1083 1082
f 1073 1074 1084 1083
f 1074 1075 1085 1084
f 1075 1076 1086 1085
f 1076 1067 1077 1086
f 1077 1078 1088 1087
f 1078 1079 1089 1088
f 1079 1080 1090 1089
f 1080 1081 1091 1090
f 1081 1082 1092 1091
f 1082 1083 1093 1092
f 1083 1084 1094 1093
f 1084 1085 1095 1094
f 1085 1086 1096 1095
f 1086 1077 1087 1096
f 1087 1088 1098 1097
f 1088 1089 1099 1098
f 1089 1090 1100 1099
f 1090 1091 1101 1100
f 1091 1092 1102 1101
f 1092 1093 1103 1102
f 1093 1094 1104 1103
f 1094 1095 1105 1104
f 1095 1096 1106 1105
f 1096 1087 1097 1106
