# head_canine - project-original survival modular asset
mtllib survival-combat-parts.mtl
o head_canine
v 0 0 0.79
v 0 0 0.79
v 0 0 0.79
v 0 0 0.79
v 0 0 0.79
v 0 0 0.79
v 0 0 0.79
v 0 0 0.79
v 0 0 0.79
v 0 0 0.79
v 0 0 0.79
v 0 0 0.79
v 0 0 0.79
v 0 0 0.79
v 0 0 0.79
v 0 0 0.79
v 0.26678 0 0.83583
v 0.24647 0.11518 0.83583
v 0.18864 0.21282 0.83583
v 0.10209 0.27807 0.83583
v 0 0.30098 0.83583
v -0.10209 0.27807 0.83583
v -0.18864 0.21282 0.83583
v -0.24647 0.11518 0.83583
v -0.26678 0 0.83583
v -0.24647 -0.11518 0.83583
v -0.18864 -0.21282 0.83583
v -0.10209 -0.27807 0.83583
v 0 -0.30098 0.83583
v 0.10209 -0.27807 0.83583
v 0.18864 -0.21282 0.83583
v 0.24647 -0.11518 0.83583
v 0.50137 0 0.96781
v 0.46321 0.21647 0.96781
v 0.35453 0.39998 0.96781
v 0.19187 0.5226 0.96781
v 0 0.56565 0.96781
v -0.19187 0.5226 0.96781
v -0.35453 0.39998 0.96781
v -0.46321 0.21647 0.96781
v -0.50137 0 0.96781
v -0.46321 -0.21647 0.96781
v -0.35453 -0.39998 0.96781
v -0.19187 -0.5226 0.96781
v 0 -0.56565 0.96781
v 0.19187 -0.5226 0.96781
v 0.35453 -0.39998 0.96781
v 0.46321 -0.21647 0.96781
v 0.6755 0 1.17
v 0.62408 0.29164 1.17
v 0.47765 0.53889 1.17
v 0.2585 0.70409 1.17
v 0 0.7621 1.17
v -0.2585 0.70409 1.17
v -0.47765 0.53889 1.17
v -0.62408 0.29164 1.17
v -0.6755 0 1.17
v -0.62408 -0.29164 1.17
v -0.47765 -0.53889 1.17
v -0.2585 -0.70409 1.17
v 0 -0.7621 1.17
v 0.2585 -0.70409 1.17
v 0.47765 -0.53889 1.17
v 0.62408 -0.29164 1.17
v 0.76815 0 1.41803
v 0.70968 0.33165 1.41803
v 0.54316 0.6128 1.41803
v 0.29396 0.80066 1.41803
v 0 0.86663 1.41803
v -0.29396 0.80066 1.41803
v -0.54316 0.6128 1.41803
v -0.70968 0.33165 1.41803
v -0.76815 0 1.41803
v -0.70968 -0.33165 1.41803
v -0.54316 -0.6128 1.41803
v -0.29396 -0.80066 1.41803
v 0 -0.86663 1.41803
v 0.29396 -0.80066 1.41803
v 0.54316 -0.6128 1.41803
v 0.70968 -0.33165 1.41803
v 0.76815 0 1.68197
v 0.70968 0.33165 1.68197
v 0.54316 0.6128 1.68197
v 0.29396 0.80066 1.68197
v 0 0.86663 1.68197
v -0.29396 0.80066 1.68197
v -0.54316 0.6128 1.68197
v -0.70968 0.33165 1.68197
v -0.76815 0 1.68197
v -0.70968 -0.33165 1.68197
v -0.54316 -0.6128 1.68197
v -0.29396 -0.80066 1.68197
v 0 -0.86663 1.68197
v 0.29396 -0.80066 1.68197
v 0.54316 -0.6128 1.68197
v 0.70968 -0.33165 1.68197
v 0.6755 0 1.93
v 0.62408 0.29164 1.93
v 0.47765 0.53889 1.93
v 0.2585 0.70409 1.93
v 0 0.7621 1.93
v -0.2585 0.70409 1.93
v -0.47765 0.53889 1.93
v -0.62408 0.29164 1.93
v -0.6755 0 1.93
v -0.62408 -0.29164 1.93
v -0.47765 -0.53889 1.93
v -0.2585 -0.70409 1.93
v 0 -0.7621 1.93
v 0.2585 -0.70409 1.93
v 0.47765 -0.53889 1.93
v 0.62408 -0.29164 1.93
v 0.50137 0 2.13219
v 0.46321 0.21647 2.13219
v 0.35453 0.39998 2.13219
v 0.19187 0.5226 2.13219
v 0 0.56565 2.13219
v -0.19187 0.5226 2.13219
v -0.35453 0.39998 2.13219
v -0.46321 0.21647 2.13219
v -0.50137 0 2.13219
v -0.46321 -0.21647 2.13219
v -0.35453 -0.39998 2.13219
v -0.19187 -0.5226 2.13219
v 0 -0.56565 2.13219
v 0.19187 -0.5226 2.13219
v 0.35453 -0.39998 2.13219
v 0.46321 -0.21647 2.13219
v 0.26678 0 2.26417
v 0.24647 0.11518 2.26417
v 0.18864 0.21282 2.26417
v 0.10209 0.27807 2.26417
v 0 0.30098 2.26417
v -0.10209 0.27807 2.26417
v -0.18864 0.21282 2.26417
v -0.24647 0.11518 2.26417
v -0.26678 0 2.26417
v -0.24647 -0.11518 2.26417
v -0.18864 -0.21282 2.26417
v -0.10209 -0.27807 2.26417
v 0 -0.30098 2.26417
v 0.10209 -0.27807 2.26417
v 0.18864 -0.21282 2.26417
v 0.24647 -0.11518 2.26417
v 0 0 2.31
v 0 0 2.31
v 0 0 2.31
v 0 0 2.31
v 0 0 2.31
v 0 0 2.31
v 0 0 2.31
v 0 0 2.31
v 0 0 2.31
v 0 0 2.31
v 0 0 2.31
v 0 0 2.31
v 0 0 2.31
v 0 0 2.31
v 0 0 2.31
v 0 0 2.31
v -0.5 -0.48 1
v -0.5 -0.48 1
v -0.5 -0.48 1
v -0.5 -0.48 1
v -0.5 -0.48 1
v -0.5 -0.48 1
v -0.5 -0.48 1
v -0.5 -0.48 1
v -0.5 -0.48 1
v -0.5 -0.48 1
v -0.5 -0.48 1
v -0.5 -0.48 1
v -0.35248 -0.48 1.04159
v -0.37224 -0.38888 1.04159
v -0.42624 -0.32218 1.04159
v -0.5 -0.29777 1.04159
v -0.57376 -0.32218 1.04159
v -0.62776 -0.38888 1.04159
v -0.64752 -0.48 1.04159
v -0.62776 -0.57112 1.04159
v -0.57376 -0.63782 1.04159
v -0.5 -0.66223 1.04159
v -0.42624 -0.63782 1.04159
v -0.37224 -0.57112 1.04159
v -0.23418 -0.48 1.15813
v -0.26979 -0.31582 1.15813
v -0.36709 -0.19562 1.15813
v -0.5 -0.15163 1.15813
v -0.63291 -0.19562 1.15813
v -0.73021 -0.31582 1.15813
v -0.76582 -0.48 1.15813
v -0.73021 -0.64418 1.15813
v -0.63291 -0.76438 1.15813
v -0.5 -0.80837 1.15813
v -0.36709 -0.76438 1.15813
v -0.26979 -0.64418 1.15813
v -0.16852 -0.48 1.32654
v -0.21293 -0.27527 1.32654
v -0.33426 -0.12539 1.32654
v -0.5 -0.07053 1.32654
v -0.66574 -0.12539 1.32654
v -0.78707 -0.27527 1.32654
v -0.83148 -0.48 1.32654
v -0.78707 -0.68473 1.32654
v -0.66574 -0.83461 1.32654
v -0.5 -0.88947 1.32654
v -0.33426 -0.83461 1.32654
v -0.21293 -0.68473 1.32654
v -0.16852 -0.48 1.51346
v -0.21293 -0.27527 1.51346
v -0.33426 -0.12539 1.51346
v -0.5 -0.07053 1.51346
v -0.66574 -0.12539 1.51346
v -0.78707 -0.27527 1.51346
v -0.83148 -0.48 1.51346
v -0.78707 -0.68473 1.51346
v -0.66574 -0.83461 1.51346
v -0.5 -0.88947 1.51346
v -0.33426 -0.83461 1.51346
v -0.21293 -0.68473 1.51346
v -0.23418 -0.48 1.68187
v -0.26979 -0.31582 1.68187
v -0.36709 -0.19562 1.68187
v -0.5 -0.15163 1.68187
v -0.63291 -0.19562 1.68187
v -0.73021 -0.31582 1.68187
v -0.76582 -0.48 1.68187
v -0.73021 -0.64418 1.68187
v -0.63291 -0.76438 1.68187
v -0.5 -0.80837 1.68187
v -0.36709 -0.76438 1.68187
v -0.26979 -0.64418 1.68187
v -0.35248 -0.48 1.79841
v -0.37224 -0.38888 1.79841
v -0.42624 -0.32218 1.79841
v -0.5 -0.29777 1.79841
v -0.57376 -0.32218 1.79841
v -0.62776 -0.38888 1.79841
v -0.64752 -0.48 1.79841
v -0.62776 -0.57112 1.79841
v -0.57376 -0.63782 1.79841
v -0.5 -0.66223 1.79841
v -0.42624 -0.63782 1.79841
v -0.37224 -0.57112 1.79841
v -0.5 -0.48 1.84
v -0.5 -0.48 1.84
v -0.5 -0.48 1.84
v -0.5 -0.48 1.84
v -0.5 -0.48 1.84
v -0.5 -0.48 1.84
v -0.5 -0.48 1.84
v -0.5 -0.48 1.84
v -0.5 -0.48 1.84
v -0.5 -0.48 1.84
v -0.5 -0.48 1.84
v -0.5 -0.48 1.84
v 0.5 -0.48 1
v 0.5 -0.48 1
v 0.5 -0.48 1
v 0.5 -0.48 1
v 0.5 -0.48 1
v 0.5 -0.48 1
v 0.5 -0.48 1
v 0.5 -0.48 1
v 0.5 -0.48 1
v 0.5 -0.48 1
v 0.5 -0.48 1
v 0.5 -0.48 1
v 0.64752 -0.48 1.04159
v 0.62776 -0.38888 1.04159
v 0.57376 -0.32218 1.04159
v 0.5 -0.29777 1.04159
v 0.42624 -0.32218 1.04159
v 0.37224 -0.38888 1.04159
v 0.35248 -0.48 1.04159
v 0.37224 -0.57112 1.04159
v 0.42624 -0.63782 1.04159
v 0.5 -0.66223 1.04159
v 0.57376 -0.63782 1.04159
v 0.62776 -0.57112 1.04159
v 0.76582 -0.48 1.15813
v 0.73021 -0.31582 1.15813
v 0.63291 -0.19562 1.15813
v 0.5 -0.15163 1.15813
v 0.36709 -0.19562 1.15813
v 0.26979 -0.31582 1.15813
v 0.23418 -0.48 1.15813
v 0.26979 -0.64418 1.15813
v 0.36709 -0.76438 1.15813
v 0.5 -0.80837 1.15813
v 0.63291 -0.76438 1.15813
v 0.73021 -0.64418 1.15813
v 0.83148 -0.48 1.32654
v 0.78707 -0.27527 1.32654
v 0.66574 -0.12539 1.32654
v 0.5 -0.07053 1.32654
v 0.33426 -0.12539 1.32654
v 0.21293 -0.27527 1.32654
v 0.16852 -0.48 1.32654
v 0.21293 -0.68473 1.32654
v 0.33426 -0.83461 1.32654
v 0.5 -0.88947 1.32654
v 0.66574 -0.83461 1.32654
v 0.78707 -0.68473 1.32654
v 0.83148 -0.48 1.51346
v 0.78707 -0.27527 1.51346
v 0.66574 -0.12539 1.51346
v 0.5 -0.07053 1.51346
v 0.33426 -0.12539 1.51346
v 0.21293 -0.27527 1.51346
v 0.16852 -0.48 1.51346
v 0.21293 -0.68473 1.51346
v 0.33426 -0.83461 1.51346
v 0.5 -0.88947 1.51346
v 0.66574 -0.83461 1.51346
v 0.78707 -0.68473 1.51346
v 0.76582 -0.48 1.68187
v 0.73021 -0.31582 1.68187
v 0.63291 -0.19562 1.68187
v 0.5 -0.15163 1.68187
v 0.36709 -0.19562 1.68187
v 0.26979 -0.31582 1.68187
v 0.23418 -0.48 1.68187
v 0.26979 -0.64418 1.68187
v 0.36709 -0.76438 1.68187
v 0.5 -0.80837 1.68187
v 0.63291 -0.76438 1.68187
v 0.73021 -0.64418 1.68187
v 0.64752 -0.48 1.79841
v 0.62776 -0.38888 1.79841
v 0.57376 -0.32218 1.79841
v 0.5 -0.29777 1.79841
v 0.42624 -0.32218 1.79841
v 0.37224 -0.38888 1.79841
v 0.35248 -0.48 1.79841
v 0.37224 -0.57112 1.79841
v 0.42624 -0.63782 1.79841
v 0.5 -0.66223 1.79841
v 0.57376 -0.63782 1.79841
v 0.62776 -0.57112 1.79841
v 0.5 -0.48 1.84
v 0.5 -0.48 1.84
v 0.5 -0.48 1.84
v 0.5 -0.48 1.84
v 0.5 -0.48 1.84
v 0.5 -0.48 1.84
v 0.5 -0.48 1.84
v 0.5 -0.48 1.84
v 0.5 -0.48 1.84
v 0.5 -0.48 1.84
v 0.5 -0.48 1.84
v 0.5 -0.48 1.84
v 0 -1.12 0.9
v 0 -1.12 0.9
v 0 -1.12 0.9
v 0 -1.12 0.9
v 0 -1.12 0.9
v 0 -1.12 0.9
v 0 -1.12 0.9
v 0 -1.12 0.9
v 0 -1.12 0.9
v 0 -1.12 0.9
v 0 -1.12 0.9
v 0 -1.12 0.9
v 0 -1.12 0.9
v 0 -1.12 0.9
v 0.20665 -1.12 0.93045
v 0.18618 -1.00377 0.93045
v 0.12884 -0.91056 0.93045
v 0.04598 -0.85884 0.93045
v -0.04598 -0.85884 0.93045
v -0.12884 -0.91056 0.93045
v -0.18618 -1.00377 0.93045
v -0.20665 -1.12 0.93045
v -0.18618 -1.23623 0.93045
v -0.12884 -1.32944 0.93045
v -0.04598 -1.38116 0.93045
v 0.04598 -1.38116 0.93045
v 0.12884 -1.32944 0.93045
v 0.18618 -1.23623 0.93045
v 0.38184 -1.12 1.01716
v 0.34402 -0.90524 1.01716
v 0.23807 -0.73301 1.01716
v 0.08497 -0.63744 1.01716
v -0.08497 -0.63744 1.01716
v -0.23807 -0.73301 1.01716
v -0.34402 -0.90524 1.01716
v -0.38184 -1.12 1.01716
v -0.34402 -1.33476 1.01716
v -0.23807 -1.50699 1.01716
v -0.08497 -1.60256 1.01716
v 0.08497 -1.60256 1.01716
v 0.23807 -1.50699 1.01716
v 0.34402 -1.33476 1.01716
v 0.49889 -1.12 1.14693
v 0.44949 -0.8394 1.14693
v 0.31106 -0.61438 1.14693
v 0.11101 -0.4895 1.14693
v -0.11101 -0.4895 1.14693
v -0.31106 -0.61438 1.14693
v -0.44949 -0.8394 1.14693
v -0.49889 -1.12 1.14693
v -0.44949 -1.4006 1.14693
v -0.31106 -1.62562 1.14693
v -0.11101 -1.7505 1.14693
v 0.11101 -1.7505 1.14693
v 0.31106 -1.62562 1.14693
v 0.44949 -1.4006 1.14693
v 0.54 -1.12 1.3
v 0.48652 -0.81628 1.3
v 0.33668 -0.57272 1.3
v 0.12016 -0.43755 1.3
v -0.12016 -0.43755 1.3
v -0.33668 -0.57272 1.3
v -0.48652 -0.81628 1.3
v -0.54 -1.12 1.3
v -0.48652 -1.42372 1.3
v -0.33668 -1.66728 1.3
v -0.12016 -1.80245 1.3
v 0.12016 -1.80245 1.3
v 0.33668 -1.66728 1.3
v 0.48652 -1.42372 1.3
v 0.49889 -1.12 1.45307
v 0.44949 -0.8394 1.45307
v 0.31106 -0.61438 1.45307
v 0.11101 -0.4895 1.45307
v -0.11101 -0.4895 1.45307
v -0.31106 -0.61438 1.45307
v -0.44949 -0.8394 1.45307
v -0.49889 -1.12 1.45307
v -0.44949 -1.4006 1.45307
v -0.31106 -1.62562 1.45307
v -0.11101 -1.7505 1.45307
v 0.11101 -1.7505 1.45307
v 0.31106 -1.62562 1.45307
v 0.44949 -1.4006 1.45307
v 0.38184 -1.12 1.58284
v 0.34402 -0.90524 1.58284
v 0.23807 -0.73301 1.58284
v 0.08497 -0.63744 1.58284
v -0.08497 -0.63744 1.58284
v -0.23807 -0.73301 1.58284
v -0.34402 -0.90524 1.58284
v -0.38184 -1.12 1.58284
v -0.34402 -1.33476 1.58284
v -0.23807 -1.50699 1.58284
v -0.08497 -1.60256 1.58284
v 0.08497 -1.60256 1.58284
v 0.23807 -1.50699 1.58284
v 0.34402 -1.33476 1.58284
v 0.20665 -1.12 1.66955
v 0.18618 -1.00377 1.66955
v 0.12884 -0.91056 1.66955
v 0.04598 -0.85884 1.66955
v -0.04598 -0.85884 1.66955
v -0.12884 -0.91056 1.66955
v -0.18618 -1.00377 1.66955
v -0.20665 -1.12 1.66955
v -0.18618 -1.23623 1.66955
v -0.12884 -1.32944 1.66955
v -0.04598 -1.38116 1.66955
v 0.04598 -1.38116 1.66955
v 0.12884 -1.32944 1.66955
v 0.18618 -1.23623 1.66955
v 0 -1.12 1.7
v 0 -1.12 1.7
v 0 -1.12 1.7
v 0 -1.12 1.7
v 0 -1.12 1.7
v 0 -1.12 1.7
v 0 -1.12 1.7
v 0 -1.12 1.7
v 0 -1.12 1.7
v 0 -1.12 1.7
v 0 -1.12 1.7
v 0 -1.12 1.7
v 0 -1.12 1.7
v 0 -1.12 1.7
v 0 -1.68 1.16
v 0 -1.68 1.16
v 0 -1.68 1.16
v 0 -1.68 1.16
v 0 -1.68 1.16
v 0 -1.68 1.16
v 0 -1.68 1.16
v 0 -1.68 1.16
v 0 -1.68 1.16
v 0 -1.68 1.16
v 0 -1.68 1.16
v 0 -1.68 1.16
v 0.12 -1.68 1.18412
v 0.10392 -1.635 1.18412
v 0.06 -1.60206 1.18412
v 0 -1.59 1.18412
v -0.06 -1.60206 1.18412
v -0.10392 -1.635 1.18412
v -0.12 -1.68 1.18412
v -0.10392 -1.725 1.18412
v -0.06 -1.75794 1.18412
v 0 -1.77 1.18412
v 0.06 -1.75794 1.18412
v 0.10392 -1.725 1.18412
v 0.20785 -1.68 1.25
v 0.18 -1.60206 1.25
v 0.10392 -1.545 1.25
v 0 -1.52412 1.25
v -0.10392 -1.545 1.25
v -0.18 -1.60206 1.25
v -0.20785 -1.68 1.25
v -0.18 -1.75794 1.25
v -0.10392 -1.815 1.25
v 0 -1.83588 1.25
v 0.10392 -1.815 1.25
v 0.18 -1.75794 1.25
v 0.24 -1.68 1.34
v 0.20785 -1.59 1.34
v 0.12 -1.52412 1.34
v 0 -1.5 1.34
v -0.12 -1.52412 1.34
v -0.20785 -1.59 1.34
v -0.24 -1.68 1.34
v -0.20785 -1.77 1.34
v -0.12 -1.83588 1.34
v 0 -1.86 1.34
v 0.12 -1.83588 1.34
v 0.20785 -1.77 1.34
v 0.20785 -1.68 1.43
v 0.18 -1.60206 1.43
v 0.10392 -1.545 1.43
v 0 -1.52412 1.43
v -0.10392 -1.545 1.43
v -0.18 -1.60206 1.43
v -0.20785 -1.68 1.43
v -0.18 -1.75794 1.43
v -0.10392 -1.815 1.43
v 0 -1.83588 1.43
v 0.10392 -1.815 1.43
v 0.18 -1.75794 1.43
v 0.12 -1.68 1.49588
v 0.10392 -1.635 1.49588
v 0.06 -1.60206 1.49588
v 0 -1.59 1.49588
v -0.06 -1.60206 1.49588
v -0.10392 -1.635 1.49588
v -0.12 -1.68 1.49588
v -0.10392 -1.725 1.49588
v -0.06 -1.75794 1.49588
v 0 -1.77 1.49588
v 0.06 -1.75794 1.49588
v 0.10392 -1.725 1.49588
v 0 -1.68 1.52
v 0 -1.68 1.52
v 0 -1.68 1.52
v 0 -1.68 1.52
v 0 -1.68 1.52
v 0 -1.68 1.52
v 0 -1.68 1.52
v 0 -1.68 1.52
v 0 -1.68 1.52
v 0 -1.68 1.52
v 0 -1.68 1.52
v 0 -1.68 1.52
v -0.66 -0.05 1.89
v -0.16 -0.12 1.95
v -0.48 0 2.71
v -0.66 -0.05 2.03
v -0.16 -0.12 2.09
v -0.48 0 2.85
v 0.16 -0.12 1.95
v 0.66 -0.05 1.89
v 0.48 0 2.71
v 0.16 -0.12 2.09
v 0.66 -0.05 2.03
v 0.48 0 2.85
v -0.52 -0.1 2
v -0.26 -0.12 2.04
v -0.43 -0.02 2.48
v -0.52 -0.1 2.08
v -0.26 -0.12 2.12
v -0.43 -0.02 2.56
v 0.26 -0.12 2.04
v 0.52 -0.1 2
v 0.43 -0.02 2.48
v 0.26 -0.12 2.12
v 0.52 -0.1 2.08
v 0.43 -0.02 2.56
v -0.28 -0.78 1.6
v -0.28 -0.78 1.6
v -0.28 -0.78 1.6
v -0.28 -0.78 1.6
v -0.28 -0.78 1.6
v -0.28 -0.78 1.6
v -0.28 -0.78 1.6
v -0.28 -0.78 1.6
v -0.28 -0.78 1.6
v -0.28 -0.78 1.6
v -0.22 -0.78 1.61608
v -0.23146 -0.76237 1.61608
v -0.26146 -0.75147 1.61608
v -0.29854 -0.75147 1.61608
v -0.32854 -0.76237 1.61608
v -0.34 -0.78 1.61608
v -0.32854 -0.79763 1.61608
v -0.29854 -0.80853 1.61608
v -0.26146 -0.80853 1.61608
v -0.23146 -0.79763 1.61608
v -0.17608 -0.78 1.66
v -0.19592 -0.74946 1.66
v -0.24789 -0.73058 1.66
v -0.31211 -0.73058 1.66
v -0.36408 -0.74946 1.66
v -0.38392 -0.78 1.66
v -0.36408 -0.81054 1.66
v -0.31211 -0.82942 1.66
v -0.24789 -0.82942 1.66
v -0.19592 -0.81054 1.66
v -0.16 -0.78 1.72
v -0.18292 -0.74473 1.72
v -0.24292 -0.72294 1.72
v -0.31708 -0.72294 1.72
v -0.37708 -0.74473 1.72
v -0.4 -0.78 1.72
v -0.37708 -0.81527 1.72
v -0.31708 -0.83706 1.72
v -0.24292 -0.83706 1.72
v -0.18292 -0.81527 1.72
v -0.17608 -0.78 1.78
v -0.19592 -0.74946 1.78
v -0.24789 -0.73058 1.78
v -0.31211 -0.73058 1.78
v -0.36408 -0.74946 1.78
v -0.38392 -0.78 1.78
v -0.36408 -0.81054 1.78
v -0.31211 -0.82942 1.78
v -0.24789 -0.82942 1.78
v -0.19592 -0.81054 1.78
v -0.22 -0.78 1.82392
v -0.23146 -0.76237 1.82392
v -0.26146 -0.75147 1.82392
v -0.29854 -0.75147 1.82392
v -0.32854 -0.76237 1.82392
v -0.34 -0.78 1.82392
v -0.32854 -0.79763 1.82392
v -0.29854 -0.80853 1.82392
v -0.26146 -0.80853 1.82392
v -0.23146 -0.79763 1.82392
v -0.28 -0.78 1.84
v -0.28 -0.78 1.84
v -0.28 -0.78 1.84
v -0.28 -0.78 1.84
v -0.28 -0.78 1.84
v -0.28 -0.78 1.84
v -0.28 -0.78 1.84
v -0.28 -0.78 1.84
v -0.28 -0.78 1.84
v -0.28 -0.78 1.84
v 0.28 -0.78 1.6
v 0.28 -0.78 1.6
v 0.28 -0.78 1.6
v 0.28 -0.78 1.6
v 0.28 -0.78 1.6
v 0.28 -0.78 1.6
v 0.28 -0.78 1.6
v 0.28 -0.78 1.6
v 0.28 -0.78 1.6
v 0.28 -0.78 1.6
v 0.34 -0.78 1.61608
v 0.32854 -0.76237 1.61608
v 0.29854 -0.75147 1.61608
v 0.26146 -0.75147 1.61608
v 0.23146 -0.76237 1.61608
v 0.22 -0.78 1.61608
v 0.23146 -0.79763 1.61608
v 0.26146 -0.80853 1.61608
v 0.29854 -0.80853 1.61608
v 0.32854 -0.79763 1.61608
v 0.38392 -0.78 1.66
v 0.36408 -0.74946 1.66
v 0.31211 -0.73058 1.66
v 0.24789 -0.73058 1.66
v 0.19592 -0.74946 1.66
v 0.17608 -0.78 1.66
v 0.19592 -0.81054 1.66
v 0.24789 -0.82942 1.66
v 0.31211 -0.82942 1.66
v 0.36408 -0.81054 1.66
v 0.4 -0.78 1.72
v 0.37708 -0.74473 1.72
v 0.31708 -0.72294 1.72
v 0.24292 -0.72294 1.72
v 0.18292 -0.74473 1.72
v 0.16 -0.78 1.72
v 0.18292 -0.81527 1.72
v 0.24292 -0.83706 1.72
v 0.31708 -0.83706 1.72
v 0.37708 -0.81527 1.72
v 0.38392 -0.78 1.78
v 0.36408 -0.74946 1.78
v 0.31211 -0.73058 1.78
v 0.24789 -0.73058 1.78
v 0.19592 -0.74946 1.78
v 0.17608 -0.78 1.78
v 0.19592 -0.81054 1.78
v 0.24789 -0.82942 1.78
v 0.31211 -0.82942 1.78
v 0.36408 -0.81054 1.78
v 0.34 -0.78 1.82392
v 0.32854 -0.76237 1.82392
v 0.29854 -0.75147 1.82392
v 0.26146 -0.75147 1.82392
v 0.23146 -0.76237 1.82392
v 0.22 -0.78 1.82392
v 0.23146 -0.79763 1.82392
v 0.26146 -0.80853 1.82392
v 0.29854 -0.80853 1.82392
v 0.32854 -0.79763 1.82392
v 0.28 -0.78 1.84
v 0.28 -0.78 1.84
v 0.28 -0.78 1.84
v 0.28 -0.78 1.84
v 0.28 -0.78 1.84
v 0.28 -0.78 1.84
v 0.28 -0.78 1.84
v 0.28 -0.78 1.84
v 0.28 -0.78 1.84
v 0.28 -0.78 1.84
v -0.47338 -0.74818 1.88
v -0.46433 -0.73115 1.84113
v -0.45202 -0.69067 1.83153
v -0.44572 -0.65721 1.85843
v -0.45017 -0.65598 1.90157
v -0.46202 -0.68789 1.92847
v -0.47235 -0.72892 1.91887
v -0.10937 -0.83372 1.92
v -0.10303 -0.82181 1.89279
v -0.09442 -0.79347 1.88607
v -0.09 -0.77005 1.9049
v -0.09312 -0.76918 1.9351
v -0.10142 -0.79152 1.95393
v -0.10865 -0.82025 1.94721
v 0.44662 -0.65182 1.88
v 0.44765 -0.67108 1.84113
v 0.45798 -0.71211 1.83153
v 0.46983 -0.74402 1.85843
v 0.47428 -0.74279 1.90157
v 0.46798 -0.70933 1.92847
v 0.45567 -0.66885 1.91887
v 0.09063 -0.76628 1.92
v 0.09135 -0.77975 1.89279
v 0.09858 -0.80848 1.88607
v 0.10688 -0.83082 1.9049
v 0.11 -0.82995 1.9351
v 0.10558 -0.80653 1.95393
v 0.09697 -0.77819 1.94721
g Skull
usemtl SURVIVAL_FUR
f 1 2 18 17
f 2 3 19 18
f 3 4 20 19
f 4 5 21 20
f 5 6 22 21
f 6 7 23 22
f 7 8 24 23
f 8 9 25 24
f 9 10 26 25
f 10 11 27 26
f 11 12 28 27
f 12 13 29 28
f 13 14 30 29
f 14 15 31 30
f 15 16 32 31
f 16 1 17 32
f 17 18 34 33
f 18 19 35 34
f 19 20 36 35
f 20 21 37 36
f 21 22 38 37
f 22 23 39 38
f 23 24 40 39
f 24 25 41 40
f 25 26 42 41
f 26 27 43 42
f 27 28 44 43
f 28 29 45 44
f 29 30 46 45
f 30 31 47 46
f 31 32 48 47
f 32 17 33 48
f 33 34 50 49
f 34 35 51 50
f 35 36 52 51
f 36 37 53 52
f 37 38 54 53
f 38 39 55 54
f 39 40 56 55
f 40 41 57 56
f 41 42 58 57
f 42 43 59 58
f 43 44 60 59
f 44 45 61 60
f 45 46 62 61
f 46 47 63 62
f 47 48 64 63
f 48 33 49 64
f 49 50 66 65
f 50 51 67 66
f 51 52 68 67
f 52 53 69 68
f 53 54 70 69
f 54 55 71 70
f 55 56 72 71
f 56 57 73 72
f 57 58 74 73
f 58 59 75 74
f 59 60 76 75
f 60 61 77 76
f 61 62 78 77
f 62 63 79 78
f 63 64 80 79
f 64 49 65 80
f 65 66 82 81
f 66 67 83 82
f 67 68 84 83
f 68 69 85 84
f 69 70 86 85
f 70 71 87 86
f 71 72 88 87
f 72 73 89 88
f 73 74 90 89
f 74 75 91 90
f 75 76 92 91
f 76 77 93 92
f 77 78 94 93
f 78 79 95 94
f 79 80 96 95
f 80 65 81 96
f 81 82 98 97
f 82 83 99 98
f 83 84 100 99
f 84 85 101 100
f 85 86 102 101
f 86 87 103 102
f 87 88 104 103
f 88 89 105 104
f 89 90 106 105
f 90 91 107 106
f 91 92 108 107
f 92 93 109 108
f 93 94 110 109
f 94 95 111 110
f 95 96 112 111
f 96 81 97 112
f 97 98 114 113
f 98 99 115 114
f 99 100 116 115
f 100 101 117 116
f 101 102 118 117
f 102 103 119 118
f 103 104 120 119
f 104 105 121 120
f 105 106 122 121
f 106 107 123 122
f 107 108 124 123
f 108 109 125 124
f 109 110 126 125
f 110 111 127 126
f 111 112 128 127
f 112 97 113 128
f 113 114 130 129
f 114 115 131 130
f 115 116 132 131
f 116 117 133 132
f 117 118 134 133
f 118 119 135 134
f 119 120 136 135
f 120 121 137 136
f 121 122 138 137
f 122 123 139 138
f 123 124 140 139
f 124 125 141 140
f 125 126 142 141
f 126 127 143 142
f 127 128 144 143
f 128 113 129 144
f 129 130 146 145
f 130 131 147 146
f 131 132 148 147
f 132 133 149 148
f 133 134 150 149
f 134 135 151 150
f 135 136 152 151
f 136 137 153 152
f 137 138 154 153
f 138 139 155 154
f 139 140 156 155
f 140 141 157 156
f 141 142 158 157
f 142 143 159 158
f 143 144 160 159
f 144 129 145 160
g CheekL
usemtl SURVIVAL_FUR_LIGHT
f 161 162 174 173
f 162 163 175 174
f 163 164 176 175
f 164 165 177 176
f 165 166 178 177
f 166 167 179 178
f 167 168 180 179
f 168 169 181 180
f 169 170 182 181
f 170 171 183 182
f 171 172 184 183
f 172 161 173 184
f 173 174 186 185
f 174 175 187 186
f 175 176 188 187
f 176 177 189 188
f 177 178 190 189
f 178 179 191 190
f 179 180 192 191
f 180 181 193 192
f 181 182 194 193
f 182 183 195 194
f 183 184 196 195
f 184 173 185 196
f 185 186 198 197
f 186 187 199 198
f 187 188 200 199
f 188 189 201 200
f 189 190 202 201
f 190 191 203 202
f 191 192 204 203
f 192 193 205 204
f 193 194 206 205
f 194 195 207 206
f 195 196 208 207
f 196 185 197 208
f 197 198 210 209
f 198 199 211 210
f 199 200 212 211
f 200 201 213 212
f 201 202 214 213
f 202 203 215 214
f 203 204 216 215
f 204 205 217 216
f 205 206 218 217
f 206 207 219 218
f 207 208 220 219
f 208 197 209 220
f 209 210 222 221
f 210 211 223 222
f 211 212 224 223
f 212 213 225 224
f 213 214 226 225
f 214 215 227 226
f 215 216 228 227
f 216 217 229 228
f 217 218 230 229
f 218 219 231 230
f 219 220 232 231
f 220 209 221 232
f 221 222 234 233
f 222 223 235 234
f 223 224 236 235
f 224 225 237 236
f 225 226 238 237
f 226 227 239 238
f 227 228 240 239
f 228 229 241 240
f 229 230 242 241
f 230 231 243 242
f 231 232 244 243
f 232 221 233 244
f 233 234 246 245
f 234 235 247 246
f 235 236 248 247
f 236 237 249 248
f 237 238 250 249
f 238 239 251 250
f 239 240 252 251
f 240 241 253 252
f 241 242 254 253
f 242 243 255 254
f 243 244 256 255
f 244 233 245 256
g CheekR
f 257 258 270 269
f 258 259 271 270
f 259 260 272 271
f 260 261 273 272
f 261 262 274 273
f 262 263 275 274
f 263 264 276 275
f 264 265 277 276
f 265 266 278 277
f 266 267 279 278
f 267 268 280 279
f 268 257 269 280
f 269 270 282 281
f 270 271 283 282
f 271 272 284 283
f 272 273 285 284
f 273 274 286 285
f 274 275 287 286
f 275 276 288 287
f 276 277 289 288
f 277 278 290 289
f 278 279 291 290
f 279 280 292 291
f 280 269 281 292
f 281 282 294 293
f 282 283 295 294
f 283 284 296 295
f 284 285 297 296
f 285 286 298 297
f 286 287 299 298
f 287 288 300 299
f 288 289 301 300
f 289 290 302 301
f 290 291 303 302
f 291 292 304 303
f 292 281 293 304
f 293 294 306 305
f 294 295 307 306
f 295 296 308 307
f 296 297 309 308
f 297 298 310 309
f 298 299 311 310
f 299 300 312 311
f 300 301 313 312
f 301 302 314 313
f 302 303 315 314
f 303 304 316 315
f 304 293 305 316
f 305 306 318 317
f 306 307 319 318
f 307 308 320 319
f 308 309 321 320
f 309 310 322 321
f 310 311 323 322
f 311 312 324 323
f 312 313 325 324
f 313 314 326 325
f 314 315 327 326
f 315 316 328 327
f 316 305 317 328
f 317 318 330 329
f 318 319 331 330
f 319 320 332 331
f 320 321 333 332
f 321 322 334 333
f 322 323 335 334
f 323 324 336 335
f 324 325 337 336
f 325 326 338 337
f 326 327 339 338
f 327 328 340 339
f 328 317 329 340
f 329 330 342 341
f 330 331 343 342
f 331 332 344 343
f 332 333 345 344
f 333 334 346 345
f 334 335 347 346
f 335 336 348 347
f 336 337 349 348
f 337 338 350 349
f 338 339 351 350
f 339 340 352 351
f 340 329 341 352
g Muzzle
f 353 354 368 367
f 354 355 369 368
f 355 356 370 369
f 356 357 371 370
f 357 358 372 371
f 358 359 373 372
f 359 360 374 373
f 360 361 375 374
f 361 362 376 375
f 362 363 377 376
f 363 364 378 377
f 364 365 379 378
f 365 366 380 379
f 366 353 367 380
f 367 368 382 381
f 368 369 383 382
f 369 370 384 383
f 370 371 385 384
f 371 372 386 385
f 372 373 387 386
f 373 374 388 387
f 374 375 389 388
f 375 376 390 389
f 376 377 391 390
f 377 378 392 391
f 378 379 393 392
f 379 380 394 393
f 380 367 381 394
f 381 382 396 395
f 382 383 397 396
f 383 384 398 397
f 384 385 399 398
f 385 386 400 399
f 386 387 401 400
f 387 388 402 401
f 388 389 403 402
f 389 390 404 403
f 390 391 405 404
f 391 392 406 405
f 392 393 407 406
f 393 394 408 407
f 394 381 395 408
f 395 396 410 409
f 396 397 411 410
f 397 398 412 411
f 398 399 413 412
f 399 400 414 413
f 400 401 415 414
f 401 402 416 415
f 402 403 417 416
f 403 404 418 417
f 404 405 419 418
f 405 406 420 419
f 406 407 421 420
f 407 408 422 421
f 408 395 409 422
f 409 410 424 423
f 410 411 425 424
f 411 412 426 425
f 412 413 427 426
f 413 414 428 427
f 414 415 429 428
f 415 416 430 429
f 416 417 431 430
f 417 418 432 431
f 418 419 433 432
f 419 420 434 433
f 420 421 435 434
f 421 422 436 435
f 422 409 423 436
f 423 424 438 437
f 424 425 439 438
f 425 426 440 439
f 426 427 441 440
f 427 428 442 441
f 428 429 443 442
f 429 430 444 443
f 430 431 445 444
f 431 432 446 445
f 432 433 447 446
f 433 434 448 447
f 434 435 449 448
f 435 436 450 449
f 436 423 437 450
f 437 438 452 451
f 438 439 453 452
f 439 440 454 453
f 440 441 455 454
f 441 442 456 455
f 442 443 457 456
f 443 444 458 457
f 444 445 459 458
f 445 446 460 459
f 446 447 461 460
f 447 448 462 461
f 448 449 463 462
f 449 450 464 463
f 450 437 451 464
f 451 452 466 465
f 452 453 467 466
f 453 454 468 467
f 454 455 469 468
f 455 456 470 469
f 456 457 471 470
f 457 458 472 471
f 458 459 473 472
f 459 460 474 473
f 460 461 475 474
f 461 462 476 475
f 462 463 477 476
f 463 464 478 477
f 464 451 465 478
g Nose
usemtl SURVIVAL_NOSE
f 479 480 492 491
f 480 481 493 492
f 481 482 494 493
f 482 483 495 494
f 483 484 496 495
f 484 485 497 496
f 485 486 498 497
f 486 487 499 498
f 487 488 500 499
f 488 489 501 500
f 489 490 502 501
f 490 479 491 502
f 491 492 504 503
f 492 493 505 504
f 493 494 506 505
f 494 495 507 506
f 495 496 508 507
f 496 497 509 508
f 497 498 510 509
f 498 499 511 510
f 499 500 512 511
f 500 501 513 512
f 501 502 514 513
f 502 491 503 514
f 503 504 516 515
f 504 505 517 516
f 505 506 518 517
f 506 507 519 518
f 507 508 520 519
f 508 509 521 520
f 509 510 522 521
f 510 511 523 522
f 511 512 524 523
f 512 513 525 524
f 513 514 526 525
f 514 503 515 526
f 515 516 528 527
f 516 517 529 528
f 517 518 530 529
f 518 519 531 530
f 519 520 532 531
f 520 521 533 532
f 521 522 534 533
f 522 523 535 534
f 523 524 536 535
f 524 525 537 536
f 525 526 538 537
f 526 515 527 538
f 527 528 540 539
f 528 529 541 540
f 529 530 542 541
f 530 531 543 542
f 531 532 544 543
f 532 533 545 544
f 533 534 546 545
f 534 535 547 546
f 535 536 548 547
f 536 537 549 548
f 537 538 550 549
f 538 527 539 550
f 539 540 552 551
f 540 541 553 552
f 541 542 554 553
f 542 543 555 554
f 543 544 556 555
f 544 545 557 556
f 545 546 558 557
f 546 547 559 558
f 547 548 560 559
f 548 549 561 560
f 549 550 562 561
f 550 539 551 562
g EarL
usemtl SURVIVAL_FUR_DARK
f 563 564 567 566
f 564 565 568 567
f 565 563 566 568
f 565 564 563
f 566 567 568
g EarR
f 569 570 573 572
f 570 571 574 573
f 571 569 572 574
f 571 570 569
f 572 573 574
g EarInnerL
usemtl SURVIVAL_EAR
f 575 576 579 578
f 576 577 580 579
f 577 575 578 580
f 577 576 575
f 578 579 580
g EarInnerR
f 581 582 585 584
f 582 583 586 585
f 583 581 584 586
f 583 582 581
f 584 585 586
g EyeL
usemtl SURVIVAL_EYE
f 587 588 598 597
f 588 589 599 598
f 589 590 600 599
f 590 591 601 600
f 591 592 602 601
f 592 593 603 602
f 593 594 604 603
f 594 595 605 604
f 595 596 606 605
f 596 587 597 606
f 597 598 608 607
f 598 599 609 608
f 599 600 610 609
f 600 601 611 610
f 601 602 612 611
f 602 603 613 612
f 603 604 614 613
f 604 605 615 614
f 605 606 616 615
f 606 597 607 616
f 607 608 618 617
f 608 609 619 618
f 609 610 620 619
f 610 611 621 620
f 611 612 622 621
f 612 613 623 622
f 613 614 624 623
f 614 615 625 624
f 615 616 626 625
f 616 607 617 626
f 617 618 628 627
f 618 619 629 628
f 619 620 630 629
f 620 621 631 630
f 621 622 632 631
f 622 623 633 632
f 623 624 634 633
f 624 625 635 634
f 625 626 636 635
f 626 617 627 636
f 627 628 638 637
f 628 629 639 638
f 629 630 640 639
f 630 631 641 640
f 631 632 642 641
f 632 633 643 642
f 633 634 644 643
f 634 635 645 644
f 635 636 646 645
f 636 627 637 646
f 637 638 648 647
f 638 639 649 648
f 639 640 650 649
f 640 641 651 650
f 641 642 652 651
f 642 643 653 652
f 643 644 654 653
f 644 645 655 654
f 645 646 656 655
f 646 637 647 656
g EyeR
f 657 658 668 667
f 658 659 669 668
f 659 660 670 669
f 660 661 671 670
f 661 662 672 671
f 662 663 673 672
f 663 664 674 673
f 664 665 675 674
f 665 666 676 675
f 666 657 667 676
f 667 668 678 677
f 668 669 679 678
f 669 670 680 679
f 670 671 681 680
f 671 672 682 681
f 672 673 683 682
f 673 674 684 683
f 674 675 685 684
f 675 676 686 685
f 676 667 677 686
f 677 678 688 687
f 678 679 689 688
f 679 680 690 689
f 680 681 691 690
f 681 682 692 691
f 682 683 693 692
f 683 684 694 693
f 684 685 695 694
f 685 686 696 695
f 686 677 687 696
f 687 688 698 697
f 688 689 699 698
f 689 690 700 699
f 690 691 701 700
f 691 692 702 701
f 692 693 703 702
f 693 694 704 703
f 694 695 705 704
f 695 696 706 705
f 696 687 697 706
f 697 698 708 707
f 698 699 709 708
f 699 700 710 709
f 700 701 711 710
f 701 702 712 711
f 702 703 713 712
f 703 704 714 713
f 704 705 715 714
f 705 706 716 715
f 706 697 707 716
f 707 708 718 717
f 708 709 719 718
f 709 710 720 719
f 710 711 721 720
f 711 712 722 721
f 712 713 723 722
f 713 714 724 723
f 714 715 725 724
f 715 716 726 725
f 716 707 717 726
g BrowL
usemtl SURVIVAL_FUR_DARK
f 727 728 735 734
f 728 729 736 735
f 729 730 737 736
f 730 731 738 737
f 731 732 739 738
f 732 733 740 739
f 733 727 734 740
g BrowR
f 741 742 749 748
f 742 743 750 749
f 743 744 751 750
f 744 745 752 751
f 745 746 753 752
f 746 747 754 753
f 747 741 748 754
