# shoulder_light - project-original survival modular asset
mtllib survival-combat-parts.mtl
o shoulder_light
v -0.92 0 1.61
v -0.92 0 1.61
v -0.92 0 1.61
v -0.92 0 1.61
v -0.92 0 1.61
v -0.92 0 1.61
v -0.92 0 1.61
v -0.92 0 1.61
v -0.92 0 1.61
v -0.92 0 1.61
v -0.92 0 1.61
v -0.92 0 1.61
v -0.92 0 1.61
v -0.92 0 1.61
v -0.65099 0 1.64367
v -0.67763 0.09036 1.64367
v -0.75228 0.16283 1.64367
v -0.86014 0.20304 1.64367
v -0.97986 0.20304 1.64367
v -1.08772 0.16283 1.64367
v -1.16237 0.09036 1.64367
v -1.18901 0 1.64367
v -1.16237 -0.09036 1.64367
v -1.08772 -0.16283 1.64367
v -0.97986 -0.20304 1.64367
v -0.86014 -0.20304 1.64367
v -0.75228 -0.16283 1.64367
v -0.67763 -0.09036 1.64367
v -0.43526 0 1.73801
v -0.48327 0.16283 1.73801
v -0.61777 0.29341 1.73801
v -0.81214 0.36587 1.73801
v -1.02786 0.36587 1.73801
v -1.22223 0.29341 1.73801
v -1.35673 0.16283 1.73801
v -1.40474 0 1.73801
v -1.35673 -0.16283 1.73801
v -1.22223 -0.29341 1.73801
v -1.02786 -0.36587 1.73801
v -0.81214 -0.36587 1.73801
v -0.61777 -0.29341 1.73801
v -0.48327 -0.16283 1.73801
v -0.31554 0 1.87434
v -0.3754 0.20304 1.87434
v -0.54313 0.36587 1.87434
v -0.7855 0.45623 1.87434
v -1.0545 0.45623 1.87434
v -1.29687 0.36587 1.87434
v -1.4646 0.20304 1.87434
v -1.52446 0 1.87434
v -1.4646 -0.20304 1.87434
v -1.29687 -0.36587 1.87434
v -1.0545 -0.45623 1.87434
v -0.7855 -0.45623 1.87434
v -0.54313 -0.36587 1.87434
v -0.3754 -0.20304 1.87434
v -0.31554 0 2.02566
v -0.3754 0.20304 2.02566
v -0.54313 0.36587 2.02566
v -0.7855 0.45623 2.02566
v -1.0545 0.45623 2.02566
v -1.29687 0.36587 2.02566
v -1.4646 0.20304 2.02566
v -1.52446 0 2.02566
v -1.4646 -0.20304 2.02566
v -1.29687 -0.36587 2.02566
v -1.0545 -0.45623 2.02566
v -0.7855 -0.45623 2.02566
v -0.54313 -0.36587 2.02566
v -0.3754 -0.20304 2.02566
v -0.43526 0 2.16199
v -0.48327 0.16283 2.16199
v -0.61777 0.29341 2.16199
v -0.81214 0.36587 2.16199
v -1.02786 0.36587 2.16199
v -1.22223 0.29341 2.16199
v -1.35673 0.16283 2.16199
v -1.40474 0 2.16199
v -1.35673 -0.16283 2.16199
v -1.22223 -0.29341 2.16199
v -1.02786 -0.36587 2.16199
v -0.81214 -0.36587 2.16199
v -0.61777 -0.29341 2.16199
v -0.48327 -0.16283 2.16199
v -0.65099 0 2.25633
v -0.67763 0.09036 2.25633
v -0.75228 0.16283 2.25633
v -0.86014 0.20304 2.25633
v -0.97986 0.20304 2.25633
v -1.08772 0.16283 2.25633
v -1.16237 0.09036 2.25633
v -1.18901 0 2.25633
v -1.16237 -0.09036 2.25633
v -1.08772 -0.16283 2.25633
v -0.97986 -0.20304 2.25633
v -0.86014 -0.20304 2.25633
v -0.75228 -0.16283 2.25633
v -0.67763 -0.09036 2.25633
v -0.92 0 2.29
v -0.92 0 2.29
v -0.92 0 2.29
v -0.92 0 2.29
v -0.92 0 2.29
v -0.92 0 2.29
v -0.92 0 2.29
v -0.92 0 2.29
v -0.92 0 2.29
v -0.92 0 2.29
v -0.92 0 2.29
v -0.92 0 2.29
v -0.92 0 2.29
v -0.92 0 2.29
v -0.46 -0.1 1.92
v -1.15 -0.16 2.12
v -1.42 -0.06 1.86
v -1.08 0.02 1.64
v -0.54 0.03 1.66
v -0.46 -0.1 2.04
v -1.15 -0.16 2.24
v -1.42 -0.06 1.98
v -1.08 0.02 1.76
v -0.54 0.03 1.78
v -0.675 0.38 1.78
v -0.65889 0.38 1.74111
v -0.62 0.38 1.725
v -0.58111 0.38 1.74111
v -0.565 0.38 1.78
v -0.58111 0.38 1.81889
v -0.62 0.38 1.835
v -0.65889 0.38 1.81889
v -0.665 -0.46 1.78
v -0.65182 -0.46 1.74818
v -0.62 -0.46 1.735
v -0.58818 -0.46 1.74818
v -0.575 -0.46 1.78
v -0.58818 -0.46 1.81182
v -0.62 -0.46 1.825
v -0.65182 -0.46 1.81182
v 0.92 0 1.61
v 0.92 0 1.61
v 0.92 0 1.61
v 0.92 0 1.61
v 0.92 0 1.61
v 0.92 0 1.61
v 0.92 0 1.61
v 0.92 0 1.61
v 0.92 0 1.61
v 0.92 0 1.61
v 0.92 0 1.61
v 0.92 0 1.61
v 0.92 0 1.61
v 0.92 0 1.61
v 1.18901 0 1.64367
v 1.16237 0.09036 1.64367
v 1.08772 0.16283 1.64367
v 0.97986 0.20304 1.64367
v 0.86014 0.20304 1.64367
v 0.75228 0.16283 1.64367
v 0.67763 0.09036 1.64367
v 0.65099 0 1.64367
v 0.67763 -0.09036 1.64367
v 0.75228 -0.16283 1.64367
v 0.86014 -0.20304 1.64367
v 0.97986 -0.20304 1.64367
v 1.08772 -0.16283 1.64367
v 1.16237 -0.09036 1.64367
v 1.40474 0 1.73801
v 1.35673 0.16283 1.73801
v 1.22223 0.29341 1.73801
v 1.02786 0.36587 1.73801
v 0.81214 0.36587 1.73801
v 0.61777 0.29341 1.73801
v 0.48327 0.16283 1.73801
v 0.43526 0 1.73801
v 0.48327 -0.16283 1.73801
v 0.61777 -0.29341 1.73801
v 0.81214 -0.36587 1.73801
v 1.02786 -0.36587 1.73801
v 1.22223 -0.29341 1.73801
v 1.35673 -0.16283 1.73801
v 1.52446 0 1.87434
v 1.4646 0.20304 1.87434
v 1.29687 0.36587 1.87434
v 1.0545 0.45623 1.87434
v 0.7855 0.45623 1.87434
v 0.54313 0.36587 1.87434
v 0.3754 0.20304 1.87434
v 0.31554 0 1.87434
v 0.3754 -0.20304 1.87434
v 0.54313 -0.36587 1.87434
v 0.7855 -0.45623 1.87434
v 1.0545 -0.45623 1.87434
v 1.29687 -0.36587 1.87434
v 1.4646 -0.20304 1.87434
v 1.52446 0 2.02566
v 1.4646 0.20304 2.02566
v 1.29687 0.36587 2.02566
v 1.0545 0.45623 2.02566
v 0.7855 0.45623 2.02566
v 0.54313 0.36587 2.02566
v 0.3754 0.20304 2.02566
v 0.31554 0 2.02566
v 0.3754 -0.20304 2.02566
v 0.54313 -0.36587 2.02566
v 0.7855 -0.45623 2.02566
v 1.0545 -0.45623 2.02566
v 1.29687 -0.36587 2.02566
v 1.4646 -0.20304 2.02566
v 1.40474 0 2.16199
v 1.35673 0.16283 2.16199
v 1.22223 0.29341 2.16199
v 1.02786 0.36587 2.16199
v 0.81214 0.36587 2.16199
v 0.61777 0.29341 2.16199
v 0.48327 0.16283 2.16199
v 0.43526 0 2.16199
v 0.48327 -0.16283 2.16199
v 0.61777 -0.29341 2.16199
v 0.81214 -0.36587 2.16199
v 1.02786 -0.36587 2.16199
v 1.22223 -0.29341 2.16199
v 1.35673 -0.16283 2.16199
v 1.18901 0 2.25633
v 1.16237 0.09036 2.25633
v 1.08772 0.16283 2.25633
v 0.97986 0.20304 2.25633
v 0.86014 0.20304 2.25633
v 0.75228 0.16283 2.25633
v 0.67763 0.09036 2.25633
v 0.65099 0 2.25633
v 0.67763 -0.09036 2.25633
v 0.75228 -0.16283 2.25633
v 0.86014 -0.20304 2.25633
v 0.97986 -0.20304 2.25633
v 1.08772 -0.16283 2.25633
v 1.16237 -0.09036 2.25633
v 0.92 0 2.29
v 0.92 0 2.29
v 0.92 0 2.29
v 0.92 0 2.29
v 0.92 0 2.29
v 0.92 0 2.29
v 0.92 0 2.29
v 0.92 0 2.29
v 0.92 0 2.29
v 0.92 0 2.29
v 0.92 0 2.29
v 0.92 0 2.29
v 0.92 0 2.29
v 0.92 0 2.29
v 0.46 -0.1 1.92
v 1.15 -0.16 2.12
v 1.42 -0.06 1.86
v 1.08 0.02 1.64
v 0.54 0.03 1.66
v 0.46 -0.1 2.04
v 1.15 -0.16 2.24
v 1.42 -0.06 1.98
v 1.08 0.02 1.76
v 0.54 0.03 1.78
v 0.565 0.38 1.78
v 0.58111 0.38 1.74111
v 0.62 0.38 1.725
v 0.65889 0.38 1.74111
v 0.675 0.38 1.78
v 0.65889 0.38 1.81889
v 0.62 0.38 1.835
v 0.58111 0.38 1.81889
v 0.575 -0.46 1.78
v 0.58818 -0.46 1.74818
v 0.62 -0.46 1.735
v 0.65182 -0.46 1.74818
v 0.665 -0.46 1.78
v 0.65182 -0.46 1.81182
v 0.62 -0.46 1.825
v 0.58818 -0.46 1.81182
v -0.36 -0.1 1.87
v 0.36 -0.1 1.87
v 0.36 0.14 1.87
v -0.36 0.14 1.87
v -0.36 -0.1 2.05
v 0.36 -0.1 2.05
v 0.36 0.14 2.05
v -0.36 0.14 2.05
g Pad-1
usemtl SURVIVAL_CLOTH_DARK
f 1 2 16 15
f 2 3 17 16
f 3 4 18 17
f 4 5 19 18
f 5 6 20 19
f 6 7 21 20
f 7 8 22 21
f 8 9 23 22
f 9 10 24 23
f 10 11 25 24
f 11 12 26 25
f 12 13 27 26
f 13 14 28 27
f 14 1 15 28
f 15 16 30 29
f 16 17 31 30
f 17 18 32 31
f 18 19 33 32
f 19 20 34 33
f 20 21 35 34
f 21 22 36 35
f 22 23 37 36
f 23 24 38 37
f 24 25 39 38
f 25 26 40 39
f 26 27 41 40
f 27 28 42 41
f 28 15 29 42
f 29 30 44 43
f 30 31 45 44
f 31 32 46 45
f 32 33 47 46
f 33 34 48 47
f 34 35 49 48
f 35 36 50 49
f 36 37 51 50
f 37 38 52 51
f 38 39 53 52
f 39 40 54 53
f 40 41 55 54
f 41 42 56 55
f 42 29 43 56
f 43 44 58 57
f 44 45 59 58
f 45 46 60 59
f 46 47 61 60
f 47 48 62 61
f 48 49 63 62
f 49 50 64 63
f 50 51 65 64
f 51 52 66 65
f 52 53 67 66
f 53 54 68 67
f 54 55 69 68
f 55 56 70 69
f 56 43 57 70
f 57 58 72 71
f 58 59 73 72
f 59 60 74 73
f 60 61 75 74
f 61 62 76 75
f 62 63 77 76
f 63 64 78 77
f 64 65 79 78
f 65 66 80 79
f 66 67 81 80
f 67 68 82 81
f 68 69 83 82
f 69 70 84 83
f 70 57 71 84
f 71 72 86 85
f 72 73 87 86
f 73 74 88 87
f 74 75 89 88
f 75 76 90 89
f 76 77 91 90
f 77 78 92 91
f 78 79 93 92
f 79 80 94 93
f 80 81 95 94
f 81 82 96 95
f 82 83 97 96
f 83 84 98 97
f 84 71 85 98
f 85 86 100 99
f 86 87 101 100
f 87 88 102 101
f 88 89 103 102
f 89 90 104 103
f 90 91 105 104
f 91 92 106 105
f 92 93 107 106
f 93 94 108 107
f 94 95 109 108
f 95 96 110 109
f 96 97 111 110
f 97 98 112 111
f 98 85 99 112
g Plate-1
usemtl SURVIVAL_LEATHER
f 113 114 119 118
f 114 115 120 119
f 115 116 121 120
f 116 117 122 121
f 117 113 118 122
f 117 116 115 114 113
f 118 119 120 121 122
g Tie-1
usemtl SURVIVAL_ROPE
f 123 124 132 131
f 124 125 133 132
f 125 126 134 133
f 126 127 135 134
f 127 128 136 135
f 128 129 137 136
f 129 130 138 137
f 130 123 131 138
g Pad1
usemtl SURVIVAL_CLOTH_DARK
f 139 140 154 153
f 140 141 155 154
f 141 142 156 155
f 142 143 157 156
f 143 144 158 157
f 144 145 159 158
f 145 146 160 159
f 146 147 161 160
f 147 148 162 161
f 148 149 163 162
f 149 150 164 163
f 150 151 165 164
f 151 152 166 165
f 152 139 153 166
f 153 154 168 167
f 154 155 169 168
f 155 156 170 169
f 156 157 171 170
f 157 158 172 171
f 158 159 173 172
f 159 160 174 173
f 160 161 175 174
f 161 162 176 175
f 162 163 177 176
f 163 164 178 177
f 164 165 179 178
f 165 166 180 179
f 166 153 167 180
f 167 168 182 181
f 168 169 183 182
f 169 170 184 183
f 170 171 185 184
f 171 172 186 185
f 172 173 187 186
f 173 174 188 187
f 174 175 189 188
f 175 176 190 189
f 176 177 191 190
f 177 178 192 191
f 178 179 193 192
f 179 180 194 193
f 180 167 181 194
f 181 182 196 195
f 182 183 197 196
f 183 184 198 197
f 184 185 199 198
f 185 186 200 199
f 186 187 201 200
f 187 188 202 201
f 188 189 203 202
f 189 190 204 203
f 190 191 205 204
f 191 192 206 205
f 192 193 207 206
f 193 194 208 207
f 194 181 195 208
f 195 196 210 209
f 196 197 211 210
f 197 198 212 211
f 198 199 213 212
f 199 200 214 213
f 200 201 215 214
f 201 202 216 215
f 202 203 217 216
f 203 204 218 217
f 204 205 219 218
f 205 206 220 219
f 206 207 221 220
f 207 208 222 221
f 208 195 209 222
f 209 210 224 223
f 210 211 225 224
f 211 212 226 225
f 212 213 227 226
f 213 214 228 227
f 214 215 229 228
f 215 216 230 229
f 216 217 231 230
f 217 218 232 231
f 218 219 233 232
f 219 220 234 233
f 220 221 235 234
f 221 222 236 235
f 222 209 223 236
f 223 224 238 237
f 224 225 239 238
f 225 226 240 239
f 226 227 241 240
f 227 228 242 241
f 228 229 243 242
f 229 230 244 243
f 230 231 245 244
f 231 232 246 245
f 232 233 247 246
f 233 234 248 247
f 234 235 249 248
f 235 236 250 249
f 236 223 237 250
g Plate1
usemtl SURVIVAL_LEATHER
f 251 252 257 256
f 252 253 258 257
f 253 254 259 258
f 254 255 260 259
f 255 251 256 260
f 255 254 253 252 251
f 256 257 258 259 260
g Tie1
usemtl SURVIVAL_ROPE
f 261 262 270 269
f 262 263 271 270
f 263 264 272 271
f 264 265 273 272
f 265 266 274 273
f 266 267 275 274
f 267 268 276 275
f 268 261 269 276
g CollarBridge
usemtl SURVIVAL_CLOTH_DARK
f 277 278 279 280
f 281 284 283 282
f 277 281 282 278
f 278 282 283 279
f 279 283 284 280
f 281 277 280 284
