# stormeagle - project-original Roblox source asset
mtllib monster-adventure.mtl
o stormeagle
v 0 0 0.7
v 0 0 0.7
v 0 0 0.7
v 0 0 0.7
v 0 0 0.7
v 0 0 0.7
v 0 0 0.7
v 0 0 0.7
v 0 0 0.7
v 0 0 0.7
v 0 0 0.7
v 0 0 0.7
v 0 0 0.7
v 0 0 0.7
v 0 0 0.7
v 0 0 0.7
v 0.27362 0 0.76332
v 0.25279 0.15968 0.76332
v 0.19348 0.29505 0.76332
v 0.10471 0.3855 0.76332
v 0 0.41726 0.76332
v -0.10471 0.3855 0.76332
v -0.19348 0.29505 0.76332
v -0.25279 0.15968 0.76332
v -0.27362 0 0.76332
v -0.25279 -0.15968 0.76332
v -0.19348 -0.29505 0.76332
v -0.10471 -0.3855 0.76332
v 0 -0.41726 0.76332
v 0.10471 -0.3855 0.76332
v 0.19348 -0.29505 0.76332
v 0.25279 -0.15968 0.76332
v 0.51423 0 0.94565
v 0.47509 0.3001 0.94565
v 0.36362 0.55451 0.94565
v 0.19679 0.72451 0.94565
v 0 0.7842 0.94565
v -0.19679 0.72451 0.94565
v -0.36362 0.55451 0.94565
v -0.47509 0.3001 0.94565
v -0.51423 0 0.94565
v -0.47509 -0.3001 0.94565
v -0.36362 -0.55451 0.94565
v -0.19679 -0.72451 0.94565
v 0 -0.7842 0.94565
v 0.19679 -0.72451 0.94565
v 0.36362 -0.55451 0.94565
v 0.47509 -0.3001 0.94565
v 0.69282 0 1.225
v 0.64008 0.40432 1.225
v 0.4899 0.74709 1.225
v 0.26513 0.97613 1.225
v 0 1.05655 1.225
v -0.26513 0.97613 1.225
v -0.4899 0.74709 1.225
v -0.64008 0.40432 1.225
v -0.69282 0 1.225
v -0.64008 -0.40432 1.225
v -0.4899 -0.74709 1.225
v -0.26513 -0.97613 1.225
v 0 -1.05655 1.225
v 0.26513 -0.97613 1.225
v 0.4899 -0.74709 1.225
v 0.64008 -0.40432 1.225
v 0.78785 0 1.56767
v 0.72787 0.45978 1.56767
v 0.55709 0.84956 1.56767
v 0.3015 1.11001 1.56767
v 0 1.20147 1.56767
v -0.3015 1.11001 1.56767
v -0.55709 0.84956 1.56767
v -0.72787 0.45978 1.56767
v -0.78785 0 1.56767
v -0.72787 -0.45978 1.56767
v -0.55709 -0.84956 1.56767
v -0.3015 -1.11001 1.56767
v 0 -1.20147 1.56767
v 0.3015 -1.11001 1.56767
v 0.55709 -0.84956 1.56767
v 0.72787 -0.45978 1.56767
v 0.78785 0 1.93233
v 0.72787 0.45978 1.93233
v 0.55709 0.84956 1.93233
v 0.3015 1.11001 1.93233
v 0 1.20147 1.93233
v -0.3015 1.11001 1.93233
v -0.55709 0.84956 1.93233
v -0.72787 0.45978 1.93233
v -0.78785 0 1.93233
v -0.72787 -0.45978 1.93233
v -0.55709 -0.84956 1.93233
v -0.3015 -1.11001 1.93233
v 0 -1.20147 1.93233
v 0.3015 -1.11001 1.93233
v 0.55709 -0.84956 1.93233
v 0.72787 -0.45978 1.93233
v 0.69282 0 2.275
v 0.64008 0.40432 2.275
v 0.4899 0.74709 2.275
v 0.26513 0.97613 2.275
v 0 1.05655 2.275
v -0.26513 0.97613 2.275
v -0.4899 0.74709 2.275
v -0.64008 0.40432 2.275
v -0.69282 0 2.275
v -0.64008 -0.40432 2.275
v -0.4899 -0.74709 2.275
v -0.26513 -0.97613 2.275
v 0 -1.05655 2.275
v 0.26513 -0.97613 2.275
v 0.4899 -0.74709 2.275
v 0.64008 -0.40432 2.275
v 0.51423 0 2.55435
v 0.47509 0.3001 2.55435
v 0.36362 0.55451 2.55435
v 0.19679 0.72451 2.55435
v 0 0.7842 2.55435
v -0.19679 0.72451 2.55435
v -0.36362 0.55451 2.55435
v -0.47509 0.3001 2.55435
v -0.51423 0 2.55435
v -0.47509 -0.3001 2.55435
v -0.36362 -0.55451 2.55435
v -0.19679 -0.72451 2.55435
v 0 -0.7842 2.55435
v 0.19679 -0.72451 2.55435
v 0.36362 -0.55451 2.55435
v 0.47509 -0.3001 2.55435
v 0.27362 0 2.73668
v 0.25279 0.15968 2.73668
v 0.19348 0.29505 2.73668
v 0.10471 0.3855 2.73668
v 0 0.41726 2.73668
v -0.10471 0.3855 2.73668
v -0.19348 0.29505 2.73668
v -0.25279 0.15968 2.73668
v -0.27362 0 2.73668
v -0.25279 -0.15968 2.73668
v -0.19348 -0.29505 2.73668
v -0.10471 -0.3855 2.73668
v 0 -0.41726 2.73668
v 0.10471 -0.3855 2.73668
v 0.19348 -0.29505 2.73668
v 0.25279 -0.15968 2.73668
v 0 0 2.8
v 0 0 2.8
v 0 0 2.8
v 0 0 2.8
v 0 0 2.8
v 0 0 2.8
v 0 0 2.8
v 0 0 2.8
v 0 0 2.8
v 0 0 2.8
v 0 0 2.8
v 0 0 2.8
v 0 0 2.8
v 0 0 2.8
v 0 0 2.8
v 0 0 2.8
v 0 -0.6 0.94
v 0 -0.6 0.94
v 0 -0.6 0.94
v 0 -0.6 0.94
v 0 -0.6 0.94
v 0 -0.6 0.94
v 0 -0.6 0.94
v 0 -0.6 0.94
v 0 -0.6 0.94
v 0 -0.6 0.94
v 0 -0.6 0.94
v 0 -0.6 0.94
v 0 -0.6 0.94
v 0 -0.6 0.94
v 0.29849 -0.6 1.01003
v 0.26893 -0.46385 1.01003
v 0.18611 -0.35466 1.01003
v 0.06642 -0.29407 1.01003
v -0.06642 -0.29407 1.01003
v -0.18611 -0.35466 1.01003
v -0.26893 -0.46385 1.01003
v -0.29849 -0.6 1.01003
v -0.26893 -0.73615 1.01003
v -0.18611 -0.84534 1.01003
v -0.06642 -0.90593 1.01003
v 0.06642 -0.90593 1.01003
v 0.18611 -0.84534 1.01003
v 0.26893 -0.73615 1.01003
v 0.55154 -0.6 1.20946
v 0.49692 -0.34842 1.20946
v 0.34388 -0.14667 1.20946
v 0.12273 -0.03471 1.20946
v -0.12273 -0.03471 1.20946
v -0.34388 -0.14667 1.20946
v -0.49692 -0.34842 1.20946
v -0.55154 -0.6 1.20946
v -0.49692 -0.85158 1.20946
v -0.34388 -1.05333 1.20946
v -0.12273 -1.16529 1.20946
v 0.12273 -1.16529 1.20946
v 0.34388 -1.05333 1.20946
v 0.49692 -0.85158 1.20946
v 0.72063 -0.6 1.50793
v 0.64926 -0.2713 1.50793
v 0.4493 -0.0077 1.50793
v 0.16035 0.13859 1.50793
v -0.16035 0.13859 1.50793
v -0.4493 -0.0077 1.50793
v -0.64926 -0.2713 1.50793
v -0.72063 -0.6 1.50793
v -0.64926 -0.9287 1.50793
v -0.4493 -1.1923 1.50793
v -0.16035 -1.33859 1.50793
v 0.16035 -1.33859 1.50793
v 0.4493 -1.1923 1.50793
v 0.64926 -0.9287 1.50793
v 0.78 -0.6 1.86
v 0.70276 -0.24422 1.86
v 0.48632 0.0411 1.86
v 0.17357 0.19944 1.86
v -0.17357 0.19944 1.86
v -0.48632 0.0411 1.86
v -0.70276 -0.24422 1.86
v -0.78 -0.6 1.86
v -0.70276 -0.95578 1.86
v -0.48632 -1.2411 1.86
v -0.17357 -1.39944 1.86
v 0.17357 -1.39944 1.86
v 0.48632 -1.2411 1.86
v 0.70276 -0.95578 1.86
v 0.72063 -0.6 2.21207
v 0.64926 -0.2713 2.21207
v 0.4493 -0.0077 2.21207
v 0.16035 0.13859 2.21207
v -0.16035 0.13859 2.21207
v -0.4493 -0.0077 2.21207
v -0.64926 -0.2713 2.21207
v -0.72063 -0.6 2.21207
v -0.64926 -0.9287 2.21207
v -0.4493 -1.1923 2.21207
v -0.16035 -1.33859 2.21207
v 0.16035 -1.33859 2.21207
v 0.4493 -1.1923 2.21207
v 0.64926 -0.9287 2.21207
v 0.55154 -0.6 2.51054
v 0.49692 -0.34842 2.51054
v 0.34388 -0.14667 2.51054
v 0.12273 -0.03471 2.51054
v -0.12273 -0.03471 2.51054
v -0.34388 -0.14667 2.51054
v -0.49692 -0.34842 2.51054
v -0.55154 -0.6 2.51054
v -0.49692 -0.85158 2.51054
v -0.34388 -1.05333 2.51054
v -0.12273 -1.16529 2.51054
v 0.12273 -1.16529 2.51054
v 0.34388 -1.05333 2.51054
v 0.49692 -0.85158 2.51054
v 0.29849 -0.6 2.70997
v 0.26893 -0.46385 2.70997
v 0.18611 -0.35466 2.70997
v 0.06642 -0.29407 2.70997
v -0.06642 -0.29407 2.70997
v -0.18611 -0.35466 2.70997
v -0.26893 -0.46385 2.70997
v -0.29849 -0.6 2.70997
v -0.26893 -0.73615 2.70997
v -0.18611 -0.84534 2.70997
v -0.06642 -0.90593 2.70997
v 0.06642 -0.90593 2.70997
v 0.18611 -0.84534 2.70997
v 0.26893 -0.73615 2.70997
v 0 -0.6 2.78
v 0 -0.6 2.78
v 0 -0.6 2.78
v 0 -0.6 2.78
v 0 -0.6 2.78
v 0 -0.6 2.78
v 0 -0.6 2.78
v 0 -0.6 2.78
v 0 -0.6 2.78
v 0 -0.6 2.78
v 0 -0.6 2.78
v 0 -0.6 2.78
v 0 -0.6 2.78
v 0 -0.6 2.78
v 0 -1.28 2
v 0 -1.28 2
v 0 -1.28 2
v 0 -1.28 2
v 0 -1.28 2
v 0 -1.28 2
v 0 -1.28 2
v 0 -1.28 2
v 0 -1.28 2
v 0 -1.28 2
v 0 -1.28 2
v 0 -1.28 2
v 0 -1.28 2
v 0 -1.28 2
v 0.22196 -1.28 2.04415
v 0.19998 -1.1837 2.04415
v 0.13839 -1.10647 2.04415
v 0.04939 -1.06361 2.04415
v -0.04939 -1.06361 2.04415
v -0.13839 -1.10647 2.04415
v -0.19998 -1.1837 2.04415
v -0.22196 -1.28 2.04415
v -0.19998 -1.3763 2.04415
v -0.13839 -1.45353 2.04415
v -0.04939 -1.49639 2.04415
v 0.04939 -1.49639 2.04415
v 0.13839 -1.45353 2.04415
v 0.19998 -1.3763 2.04415
v 0.41012 -1.28 2.16988
v 0.36951 -1.10205 2.16988
v 0.25571 -0.95935 2.16988
v 0.09126 -0.88016 2.16988
v -0.09126 -0.88016 2.16988
v -0.25571 -0.95935 2.16988
v -0.36951 -1.10205 2.16988
v -0.41012 -1.28 2.16988
v -0.36951 -1.45795 2.16988
v -0.25571 -1.60065 2.16988
v -0.09126 -1.67984 2.16988
v 0.09126 -1.67984 2.16988
v 0.25571 -1.60065 2.16988
v 0.36951 -1.45795 2.16988
v 0.53585 -1.28 2.35804
v 0.48278 -1.0475 2.35804
v 0.3341 -0.86106 2.35804
v 0.11924 -0.75758 2.35804
v -0.11924 -0.75758 2.35804
v -0.3341 -0.86106 2.35804
v -0.48278 -1.0475 2.35804
v -0.53585 -1.28 2.35804
v -0.48278 -1.5125 2.35804
v -0.3341 -1.69894 2.35804
v -0.11924 -1.80242 2.35804
v 0.11924 -1.80242 2.35804
v 0.3341 -1.69894 2.35804
v 0.48278 -1.5125 2.35804
v 0.58 -1.28 2.58
v 0.52256 -1.02835 2.58
v 0.36162 -0.82654 2.58
v 0.12906 -0.71454 2.58
v -0.12906 -0.71454 2.58
v -0.36162 -0.82654 2.58
v -0.52256 -1.02835 2.58
v -0.58 -1.28 2.58
v -0.52256 -1.53165 2.58
v -0.36162 -1.73346 2.58
v -0.12906 -1.84546 2.58
v 0.12906 -1.84546 2.58
v 0.36162 -1.73346 2.58
v 0.52256 -1.53165 2.58
v 0.53585 -1.28 2.80196
v 0.48278 -1.0475 2.80196
v 0.3341 -0.86106 2.80196
v 0.11924 -0.75758 2.80196
v -0.11924 -0.75758 2.80196
v -0.3341 -0.86106 2.80196
v -0.48278 -1.0475 2.80196
v -0.53585 -1.28 2.80196
v -0.48278 -1.5125 2.80196
v -0.3341 -1.69894 2.80196
v -0.11924 -1.80242 2.80196
v 0.11924 -1.80242 2.80196
v 0.3341 -1.69894 2.80196
v 0.48278 -1.5125 2.80196
v 0.41012 -1.28 2.99012
v 0.36951 -1.10205 2.99012
v 0.25571 -0.95935 2.99012
v 0.09126 -0.88016 2.99012
v -0.09126 -0.88016 2.99012
v -0.25571 -0.95935 2.99012
v -0.36951 -1.10205 2.99012
v -0.41012 -1.28 2.99012
v -0.36951 -1.45795 2.99012
v -0.25571 -1.60065 2.99012
v -0.09126 -1.67984 2.99012
v 0.09126 -1.67984 2.99012
v 0.25571 -1.60065 2.99012
v 0.36951 -1.45795 2.99012
v 0.22196 -1.28 3.11585
v 0.19998 -1.1837 3.11585
v 0.13839 -1.10647 3.11585
v 0.04939 -1.06361 3.11585
v -0.04939 -1.06361 3.11585
v -0.13839 -1.10647 3.11585
v -0.19998 -1.1837 3.11585
v -0.22196 -1.28 3.11585
v -0.19998 -1.3763 3.11585
v -0.13839 -1.45353 3.11585
v -0.04939 -1.49639 3.11585
v 0.04939 -1.49639 3.11585
v 0.13839 -1.45353 3.11585
v 0.19998 -1.3763 3.11585
v 0 -1.28 3.16
v 0 -1.28 3.16
v 0 -1.28 3.16
v 0 -1.28 3.16
v 0 -1.28 3.16
v 0 -1.28 3.16
v 0 -1.28 3.16
v 0 -1.28 3.16
v 0 -1.28 3.16
v 0 -1.28 3.16
v 0 -1.28 3.16
v 0 -1.28 3.16
v 0 -1.28 3.16
v 0 -1.28 3.16
v -0.22 -1.7 2.55
v -0.17798 -1.66475 2.42558
v -0.06798 -1.64296 2.34869
v 0.06798 -1.64296 2.34869
v 0.17798 -1.66475 2.42558
v 0.22 -1.7 2.55
v 0.17798 -1.73525 2.67442
v 0.06798 -1.75704 2.75131
v -0.06798 -1.75704 2.75131
v -0.17798 -1.73525 2.67442
v -0.03 -2.3 2.38
v -0.02427 -2.29519 2.36303
v -0.00927 -2.29222 2.35255
v 0.00927 -2.29222 2.35255
v 0.02427 -2.29519 2.36303
v 0.03 -2.3 2.38
v 0.02427 -2.30481 2.39697
v 0.00927 -2.30778 2.40745
v -0.00927 -2.30778 2.40745
v -0.02427 -2.30481 2.39697
v 0 -1.7 2.55
v 0 -2.3 2.38
v -0.48 -0.2 2.12
v -1.75 0.1 2.27
v -3.75 0.45 2.07
v -4.65 0.9 1.6
v -3.4 0.8 1.34
v -1.5 0.48 1.4
v -0.62 0.12 1.62
v -0.48 -0.2 2.28
v -1.75 0.1 2.43
v -3.75 0.45 2.23
v -4.65 0.9 1.76
v -3.4 0.8 1.5
v -1.5 0.48 1.56
v -0.62 0.12 1.78
v 0.48 -0.2 2.12
v 1.75 0.1 2.27
v 3.75 0.45 2.07
v 4.65 0.9 1.6
v 3.4 0.8 1.34
v 1.5 0.48 1.4
v 0.62 0.12 1.62
v 0.48 -0.2 2.28
v 1.75 0.1 2.43
v 3.75 0.45 2.23
v 4.65 0.9 1.76
v 3.4 0.8 1.5
v 1.5 0.48 1.56
v 0.62 0.12 1.78
v -0.55 0.85 1.28
v -0.28 2.45 0.63
v 0 2.7 0.51
v 0.28 2.45 0.63
v 0.55 0.85 1.28
v -0.55 0.85 1.42
v -0.28 2.45 0.77
v 0 2.7 0.65
v 0.28 2.45 0.77
v 0.55 0.85 1.42
v -0.22 0.1 0.98
v -0.24343 0.04379 0.97364
v -0.3 0.02051 0.971
v -0.35657 0.04379 0.97364
v -0.38 0.1 0.98
v -0.35657 0.15621 0.98636
v -0.3 0.17949 0.989
v -0.24343 0.15621 0.98636
v -0.24 0.16 0.45
v -0.25757 0.11784 0.44523
v -0.3 0.10038 0.44325
v -0.34243 0.11784 0.44523
v -0.36 0.16 0.45
v -0.34243 0.20216 0.45477
v -0.3 0.21962 0.45675
v -0.25757 0.20216 0.45477
v -0.3 0.1 0.98
v -0.3 0.16 0.45
v -0.33182 0.19182 0.45
v -0.29975 0.19993 0.42926
v -0.26786 0.17798 0.42413
v -0.26018 0.14248 0.43849
v -0.28248 0.12018 0.46151
v -0.31798 0.12786 0.47587
v -0.33993 0.15975 0.47074
v -0.46707 0.00707 0.14
v -0.45994 0.00887 0.13539
v -0.45286 0.00399 0.13425
v -0.45115 -0.00389 0.13744
v -0.45611 -0.00885 0.14256
v -0.46399 -0.00714 0.14575
v -0.46887 -0.00006 0.14461
v -0.3 0.16 0.45
v -0.46 0 0.14
v -0.345 0.16 0.45
v -0.32806 0.19126 0.43386
v -0.28999 0.19899 0.42988
v -0.25946 0.17735 0.44105
v -0.25946 0.14265 0.45895
v -0.28999 0.12101 0.47012
v -0.32806 0.12874 0.46614
v -0.31 0 0.14
v -0.30623 0.00695 0.13641
v -0.29777 0.00866 0.13553
v -0.29099 0.00386 0.13801
v -0.29099 -0.00386 0.14199
v -0.29777 -0.00866 0.14447
v -0.30623 -0.00695 0.14359
v -0.3 0.16 0.45
v -0.3 0 0.14
v -0.33182 0.12818 0.45
v -0.33993 0.16025 0.42926
v -0.31798 0.19214 0.42413
v -0.28248 0.19982 0.43849
v -0.26018 0.17752 0.46151
v -0.26786 0.14202 0.47587
v -0.29975 0.12007 0.47074
v -0.14707 -0.00707 0.14
v -0.14887 0.00006 0.13539
v -0.14399 0.00714 0.13425
v -0.13611 0.00885 0.13744
v -0.13115 0.00389 0.14256
v -0.13286 -0.00399 0.14575
v -0.13994 -0.00887 0.14461
v -0.3 0.16 0.45
v -0.14 0 0.14
v 0.38 0.1 0.98
v 0.35657 0.04379 0.97364
v 0.3 0.02051 0.971
v 0.24343 0.04379 0.97364
v 0.22 0.1 0.98
v 0.24343 0.15621 0.98636
v 0.3 0.17949 0.989
v 0.35657 0.15621 0.98636
v 0.36 0.16 0.45
v 0.34243 0.11784 0.44523
v 0.3 0.10038 0.44325
v 0.25757 0.11784 0.44523
v 0.24 0.16 0.45
v 0.25757 0.20216 0.45477
v 0.3 0.21962 0.45675
v 0.34243 0.20216 0.45477
v 0.3 0.1 0.98
v 0.3 0.16 0.45
v 0.26818 0.19182 0.45
v 0.30025 0.19993 0.42926
v 0.33214 0.17798 0.42413
v 0.33982 0.14248 0.43849
v 0.31752 0.12018 0.46151
v 0.28202 0.12786 0.47587
v 0.26007 0.15975 0.47074
v 0.13293 0.00707 0.14
v 0.14006 0.00887 0.13539
v 0.14714 0.00399 0.13425
v 0.14885 -0.00389 0.13744
v 0.14389 -0.00885 0.14256
v 0.13601 -0.00714 0.14575
v 0.13113 -0.00006 0.14461
v 0.3 0.16 0.45
v 0.14 0 0.14
v 0.255 0.16 0.45
v 0.27194 0.19126 0.43386
v 0.31001 0.19899 0.42988
v 0.34054 0.17735 0.44105
v 0.34054 0.14265 0.45895
v 0.31001 0.12101 0.47012
v 0.27194 0.12874 0.46614
v 0.29 0 0.14
v 0.29377 0.00695 0.13641
v 0.30223 0.00866 0.13553
v 0.30901 0.00386 0.13801
v 0.30901 -0.00386 0.14199
v 0.30223 -0.00866 0.14447
v 0.29377 -0.00695 0.14359
v 0.3 0.16 0.45
v 0.3 0 0.14
v 0.26818 0.12818 0.45
v 0.26007 0.16025 0.42926
v 0.28202 0.19214 0.42413
v 0.31752 0.19982 0.43849
v 0.33982 0.17752 0.46151
v 0.33214 0.14202 0.47587
v 0.30025 0.12007 0.47074
v 0.45293 -0.00707 0.14
v 0.45113 0.00006 0.13539
v 0.45601 0.00714 0.13425
v 0.46389 0.00885 0.13744
v 0.46885 0.00389 0.14256
v 0.46714 -0.00399 0.14575
v 0.46006 -0.00887 0.14461
v 0.3 0.16 0.45
v 0.46 0 0.14
v -1.27661 0.38233 2.14
v -1.24916 0.38229 2.11334
v -1.2222 0.35747 2.10229
v -1.21153 0.32242 2.11334
v -1.22339 0.29767 2.14
v -1.25084 0.29771 2.16666
v -1.2778 0.32253 2.17771
v -1.28847 0.35758 2.16666
v -1.60532 0.12847 1.78
v -1.59983 0.12846 1.77467
v -1.59444 0.12349 1.77246
v -1.59231 0.11648 1.77467
v -1.59468 0.11153 1.78
v -1.60017 0.11154 1.78533
v -1.60556 0.11651 1.78754
v -1.60769 0.12352 1.78533
v -1.25 0.34 2.14
v -1.6 0.12 1.78
v -2.12661 0.38233 2.04
v -2.0998 0.38188 2.01269
v -2.07311 0.3569 2.00138
v -2.06217 0.32202 2.01269
v -2.07339 0.29767 2.04
v -2.1002 0.29812 2.06731
v -2.12689 0.3231 2.07862
v -2.13783 0.35798 2.06731
v -2.45532 0.12847 1.7
v -2.44996 0.12838 1.69454
v -2.44462 0.12338 1.69228
v -2.44243 0.1164 1.69454
v -2.44468 0.11153 1.7
v -2.45004 0.11162 1.70546
v -2.45538 0.11662 1.70772
v -2.45757 0.1236 1.70546
v -2.1 0.34 2.04
v -2.45 0.12 1.7
v -2.97661 0.38233 1.94
v -2.95049 0.38145 1.91204
v -2.92409 0.35629 1.90046
v -2.91286 0.32158 1.91204
v -2.92339 0.29767 1.94
v -2.94951 0.29855 1.96796
v -2.97591 0.32371 1.97954
v -2.98714 0.35842 1.96796
v -3.30532 0.12847 1.62
v -3.3001 0.12829 1.61441
v -3.29482 0.12326 1.61209
v -3.29257 0.11632 1.61441
v -3.29468 0.11153 1.62
v -3.2999 0.11171 1.62559
v -3.30518 0.11674 1.62791
v -3.30743 0.12368 1.62559
v -2.95 0.34 1.94
v -3.3 0.12 1.62
v 1.22339 0.29767 2.14
v 1.21153 0.32242 2.11334
v 1.2222 0.35747 2.10229
v 1.24916 0.38229 2.11334
v 1.27661 0.38233 2.14
v 1.28847 0.35758 2.16666
v 1.2778 0.32253 2.17771
v 1.25084 0.29771 2.16666
v 1.59468 0.11153 1.78
v 1.59231 0.11648 1.77467
v 1.59444 0.12349 1.77246
v 1.59983 0.12846 1.77467
v 1.60532 0.12847 1.78
v 1.60769 0.12352 1.78533
v 1.60556 0.11651 1.78754
v 1.60017 0.11154 1.78533
v 1.25 0.34 2.14
v 1.6 0.12 1.78
v 2.07339 0.29767 2.04
v 2.06217 0.32202 2.01269
v 2.07311 0.3569 2.00138
v 2.0998 0.38188 2.01269
v 2.12661 0.38233 2.04
v 2.13783 0.35798 2.06731
v 2.12689 0.3231 2.07862
v 2.1002 0.29812 2.06731
v 2.44468 0.11153 1.7
v 2.44243 0.1164 1.69454
v 2.44462 0.12338 1.69228
v 2.44996 0.12838 1.69454
v 2.45532 0.12847 1.7
v 2.45757 0.1236 1.70546
v 2.45538 0.11662 1.70772
v 2.45004 0.11162 1.70546
v 2.1 0.34 2.04
v 2.45 0.12 1.7
v 2.92339 0.29767 1.94
v 2.91286 0.32158 1.91204
v 2.92409 0.35629 1.90046
v 2.95049 0.38145 1.91204
v 2.97661 0.38233 1.94
v 2.98714 0.35842 1.96796
v 2.97591 0.32371 1.97954
v 2.94951 0.29855 1.96796
v 3.29468 0.11153 1.62
v 3.29257 0.11632 1.61441
v 3.29482 0.12326 1.61209
v 3.3001 0.12829 1.61441
v 3.30532 0.12847 1.62
v 3.30743 0.12368 1.62559
v 3.30518 0.11674 1.62791
v 3.2999 0.11171 1.62559
v 2.95 0.34 1.94
v 3.3 0.12 1.62
v -0.22 -1.7 2.6
v -0.22 -1.7 2.6
v -0.22 -1.7 2.6
v -0.22 -1.7 2.6
v -0.22 -1.7 2.6
v -0.22 -1.7 2.6
v -0.22 -1.7 2.6
v -0.22 -1.7 2.6
v -0.22 -1.7 2.6
v -0.22 -1.7 2.6
v -0.17 -1.7 2.6134
v -0.17955 -1.68531 2.6134
v -0.20455 -1.67622 2.6134
v -0.23545 -1.67622 2.6134
v -0.26045 -1.68531 2.6134
v -0.27 -1.7 2.6134
v -0.26045 -1.71469 2.6134
v -0.23545 -1.72378 2.6134
v -0.20455 -1.72378 2.6134
v -0.17955 -1.71469 2.6134
v -0.1334 -1.7 2.65
v -0.14994 -1.67455 2.65
v -0.19324 -1.65882 2.65
v -0.24676 -1.65882 2.65
v -0.29006 -1.67455 2.65
v -0.3066 -1.7 2.65
v -0.29006 -1.72545 2.65
v -0.24676 -1.74118 2.65
v -0.19324 -1.74118 2.65
v -0.14994 -1.72545 2.65
v -0.12 -1.7 2.7
v -0.1391 -1.67061 2.7
v -0.1891 -1.65245 2.7
v -0.2509 -1.65245 2.7
v -0.3009 -1.67061 2.7
v -0.32 -1.7 2.7
v -0.3009 -1.72939 2.7
v -0.2509 -1.74755 2.7
v -0.1891 -1.74755 2.7
v -0.1391 -1.72939 2.7
v -0.1334 -1.7 2.75
v -0.14994 -1.67455 2.75
v -0.19324 -1.65882 2.75
v -0.24676 -1.65882 2.75
v -0.29006 -1.67455 2.75
v -0.3066 -1.7 2.75
v -0.29006 -1.72545 2.75
v -0.24676 -1.74118 2.75
v -0.19324 -1.74118 2.75
v -0.14994 -1.72545 2.75
v -0.17 -1.7 2.7866
v -0.17955 -1.68531 2.7866
v -0.20455 -1.67622 2.7866
v -0.23545 -1.67622 2.7866
v -0.26045 -1.68531 2.7866
v -0.27 -1.7 2.7866
v -0.26045 -1.71469 2.7866
v -0.23545 -1.72378 2.7866
v -0.20455 -1.72378 2.7866
v -0.17955 -1.71469 2.7866
v -0.22 -1.7 2.8
v -0.22 -1.7 2.8
v -0.22 -1.7 2.8
v -0.22 -1.7 2.8
v -0.22 -1.7 2.8
v -0.22 -1.7 2.8
v -0.22 -1.7 2.8
v -0.22 -1.7 2.8
v -0.22 -1.7 2.8
v -0.22 -1.7 2.8
v 0.22 -1.7 2.6
v 0.22 -1.7 2.6
v 0.22 -1.7 2.6
v 0.22 -1.7 2.6
v 0.22 -1.7 2.6
v 0.22 -1.7 2.6
v 0.22 -1.7 2.6
v 0.22 -1.7 2.6
v 0.22 -1.7 2.6
v 0.22 -1.7 2.6
v 0.27 -1.7 2.6134
v 0.26045 -1.68531 2.6134
v 0.23545 -1.67622 2.6134
v 0.20455 -1.67622 2.6134
v 0.17955 -1.68531 2.6134
v 0.17 -1.7 2.6134
v 0.17955 -1.71469 2.6134
v 0.20455 -1.72378 2.6134
v 0.23545 -1.72378 2.6134
v 0.26045 -1.71469 2.6134
v 0.3066 -1.7 2.65
v 0.29006 -1.67455 2.65
v 0.24676 -1.65882 2.65
v 0.19324 -1.65882 2.65
v 0.14994 -1.67455 2.65
v 0.1334 -1.7 2.65
v 0.14994 -1.72545 2.65
v 0.19324 -1.74118 2.65
v 0.24676 -1.74118 2.65
v 0.29006 -1.72545 2.65
v 0.32 -1.7 2.7
v 0.3009 -1.67061 2.7
v 0.2509 -1.65245 2.7
v 0.1891 -1.65245 2.7
v 0.1391 -1.67061 2.7
v 0.12 -1.7 2.7
v 0.1391 -1.72939 2.7
v 0.1891 -1.74755 2.7
v 0.2509 -1.74755 2.7
v 0.3009 -1.72939 2.7
v 0.3066 -1.7 2.75
v 0.29006 -1.67455 2.75
v 0.24676 -1.65882 2.75
v 0.19324 -1.65882 2.75
v 0.14994 -1.67455 2.75
v 0.1334 -1.7 2.75
v 0.14994 -1.72545 2.75
v 0.19324 -1.74118 2.75
v 0.24676 -1.74118 2.75
v 0.29006 -1.72545 2.75
v 0.27 -1.7 2.7866
v 0.26045 -1.68531 2.7866
v 0.23545 -1.67622 2.7866
v 0.20455 -1.67622 2.7866
v 0.17955 -1.68531 2.7866
v 0.17 -1.7 2.7866
v 0.17955 -1.71469 2.7866
v 0.20455 -1.72378 2.7866
v 0.23545 -1.72378 2.7866
v 0.26045 -1.71469 2.7866
v 0.22 -1.7 2.8
v 0.22 -1.7 2.8
v 0.22 -1.7 2.8
v 0.22 -1.7 2.8
v 0.22 -1.7 2.8
v 0.22 -1.7 2.8
v 0.22 -1.7 2.8
v 0.22 -1.7 2.8
v 0.22 -1.7 2.8
v 0.22 -1.7 2.8
g Body
usemtl EAGLE_GREY
f 1 2 18 17
f 2 3 19 18
f 3 4 20 19
f 4 5 21 20
f 5 6 22 21
f 6 7 23 22
f 7 8 24 23
f 8 9 25 24
f 9 10 26 25
f 10 11 27 26
f 11 12 28 27
f 12 13 29 28
f 13 14 30 29
f 14 15 31 30
f 15 16 32 31
f 16 1 17 32
f 17 18 34 33
f 18 19 35 34
f 19 20 36 35
f 20 21 37 36
f 21 22 38 37
f 22 23 39 38
f 23 24 40 39
f 24 25 41 40
f 25 26 42 41
f 26 27 43 42
f 27 28 44 43
f 28 29 45 44
f 29 30 46 45
f 30 31 47 46
f 31 32 48 47
f 32 17 33 48
f 33 34 50 49
f 34 35 51 50
f 35 36 52 51
f 36 37 53 52
f 37 38 54 53
f 38 39 55 54
f 39 40 56 55
f 40 41 57 56
f 41 42 58 57
f 42 43 59 58
f 43 44 60 59
f 44 45 61 60
f 45 46 62 61
f 46 47 63 62
f 47 48 64 63
f 48 33 49 64
f 49 50 66 65
f 50 51 67 66
f 51 52 68 67
f 52 53 69 68
f 53 54 70 69
f 54 55 71 70
f 55 56 72 71
f 56 57 73 72
f 57 58 74 73
f 58 59 75 74
f 59 60 76 75
f 60 61 77 76
f 61 62 78 77
f 62 63 79 78
f 63 64 80 79
f 64 49 65 80
f 65 66 82 81
f 66 67 83 82
f 67 68 84 83
f 68 69 85 84
f 69 70 86 85
f 70 71 87 86
f 71 72 88 87
f 72 73 89 88
f 73 74 90 89
f 74 75 91 90
f 75 76 92 91
f 76 77 93 92
f 77 78 94 93
f 78 79 95 94
f 79 80 96 95
f 80 65 81 96
f 81 82 98 97
f 82 83 99 98
f 83 84 100 99
f 84 85 101 100
f 85 86 102 101
f 86 87 103 102
f 87 88 104 103
f 88 89 105 104
f 89 90 106 105
f 90 91 107 106
f 91 92 108 107
f 92 93 109 108
f 93 94 110 109
f 94 95 111 110
f 95 96 112 111
f 96 81 97 112
f 97 98 114 113
f 98 99 115 114
f 99 100 116 115
f 100 101 117 116
f 101 102 118 117
f 102 103 119 118
f 103 104 120 119
f 104 105 121 120
f 105 106 122 121
f 106 107 123 122
f 107 108 124 123
f 108 109 125 124
f 109 110 126 125
f 110 111 127 126
f 111 112 128 127
f 112 97 113 128
f 113 114 130 129
f 114 115 131 130
f 115 116 132 131
f 116 117 133 132
f 117 118 134 133
f 118 119 135 134
f 119 120 136 135
f 120 121 137 136
f 121 122 138 137
f 122 123 139 138
f 123 124 140 139
f 124 125 141 140
f 125 126 142 141
f 126 127 143 142
f 127 128 144 143
f 128 113 129 144
f 129 130 146 145
f 130 131 147 146
f 131 132 148 147
f 132 133 149 148
f 133 134 150 149
f 134 135 151 150
f 135 136 152 151
f 136 137 153 152
f 137 138 154 153
f 138 139 155 154
f 139 140 156 155
f 140 141 157 156
f 141 142 158 157
f 142 143 159 158
f 143 144 160 159
f 144 129 145 160
g Chest
usemtl EAGLE_LIGHT
f 161 162 176 175
f 162 163 177 176
f 163 164 178 177
f 164 165 179 178
f 165 166 180 179
f 166 167 181 180
f 167 168 182 181
f 168 169 183 182
f 169 170 184 183
f 170 171 185 184
f 171 172 186 185
f 172 173 187 186
f 173 174 188 187
f 174 161 175 188
f 175 176 190 189
f 176 177 191 190
f 177 178 192 191
f 178 179 193 192
f 179 180 194 193
f 180 181 195 194
f 181 182 196 195
f 182 183 197 196
f 183 184 198 197
f 184 185 199 198
f 185 186 200 199
f 186 187 201 200
f 187 188 202 201
f 188 175 189 202
f 189 190 204 203
f 190 191 205 204
f 191 192 206 205
f 192 193 207 206
f 193 194 208 207
f 194 195 209 208
f 195 196 210 209
f 196 197 211 210
f 197 198 212 211
f 198 199 213 212
f 199 200 214 213
f 200 201 215 214
f 201 202 216 215
f 202 189 203 216
f 203 204 218 217
f 204 205 219 218
f 205 206 220 219
f 206 207 221 220
f 207 208 222 221
f 208 209 223 222
f 209 210 224 223
f 210 211 225 224
f 211 212 226 225
f 212 213 227 226
f 213 214 228 227
f 214 215 229 228
f 215 216 230 229
f 216 203 217 230
f 217 218 232 231
f 218 219 233 232
f 219 220 234 233
f 220 221 235 234
f 221 222 236 235
f 222 223 237 236
f 223 224 238 237
f 224 225 239 238
f 225 226 240 239
f 226 227 241 240
f 227 228 242 241
f 228 229 243 242
f 229 230 244 243
f 230 217 231 244
f 231 232 246 245
f 232 233 247 246
f 233 234 248 247
f 234 235 249 248
f 235 236 250 249
f 236 237 251 250
f 237 238 252 251
f 238 239 253 252
f 239 240 254 253
f 240 241 255 254
f 241 242 256 255
f 242 243 257 256
f 243 244 258 257
f 244 231 245 258
f 245 246 260 259
f 246 247 261 260
f 247 248 262 261
f 248 249 263 262
f 249 250 264 263
f 250 251 265 264
f 251 252 266 265
f 252 253 267 266
f 253 254 268 267
f 254 255 269 268
f 255 256 270 269
f 256 257 271 270
f 257 258 272 271
f 258 245 259 272
f 259 260 274 273
f 260 261 275 274
f 261 262 276 275
f 262 263 277 276
f 263 264 278 277
f 264 265 279 278
f 265 266 280 279
f 266 267 281 280
f 267 268 282 281
f 268 269 283 282
f 269 270 284 283
f 270 271 285 284
f 271 272 286 285
f 272 259 273 286
g Head
usemtl EAGLE_DARK
f 287 288 302 301
f 288 289 303 302
f 289 290 304 303
f 290 291 305 304
f 291 292 306 305
f 292 293 307 306
f 293 294 308 307
f 294 295 309 308
f 295 296 310 309
f 296 297 311 310
f 297 298 312 311
f 298 299 313 312
f 299 300 314 313
f 300 287 301 314
f 301 302 316 315
f 302 303 317 316
f 303 304 318 317
f 304 305 319 318
f 305 306 320 319
f 306 307 321 320
f 307 308 322 321
f 308 309 323 322
f 309 310 324 323
f 310 311 325 324
f 311 312 326 325
f 312 313 327 326
f 313 314 328 327
f 314 301 315 328
f 315 316 330 329
f 316 317 331 330
f 317 318 332 331
f 318 319 333 332
f 319 320 334 333
f 320 321 335 334
f 321 322 336 335
f 322 323 337 336
f 323 324 338 337
f 324 325 339 338
f 325 326 340 339
f 326 327 341 340
f 327 328 342 341
f 328 315 329 342
f 329 330 344 343
f 330 331 345 344
f 331 332 346 345
f 332 333 347 346
f 333 334 348 347
f 334 335 349 348
f 335 336 350 349
f 336 337 351 350
f 337 338 352 351
f 338 339 353 352
f 339 340 354 353
f 340 341 355 354
f 341 342 356 355
f 342 329 343 356
f 343 344 358 357
f 344 345 359 358
f 345 346 360 359
f 346 347 361 360
f 347 348 362 361
f 348 349 363 362
f 349 350 364 363
f 350 351 365 364
f 351 352 366 365
f 352 353 367 366
f 353 354 368 367
f 354 355 369 368
f 355 356 370 369
f 356 343 357 370
f 357 358 372 371
f 358 359 373 372
f 359 360 374 373
f 360 361 375 374
f 361 362 376 375
f 362 363 377 376
f 363 364 378 377
f 364 365 379 378
f 365 366 380 379
f 366 367 381 380
f 367 368 382 381
f 368 369 383 382
f 369 370 384 383
f 370 357 371 384
f 371 372 386 385
f 372 373 387 386
f 373 374 388 387
f 374 375 389 388
f 375 376 390 389
f 376 377 391 390
f 377 378 392 391
f 378 379 393 392
f 379 380 394 393
f 380 381 395 394
f 381 382 396 395
f 382 383 397 396
f 383 384 398 397
f 384 371 385 398
f 385 386 400 399
f 386 387 401 400
f 387 388 402 401
f 388 389 403 402
f 389 390 404 403
f 390 391 405 404
f 391 392 406 405
f 392 393 407 406
f 393 394 408 407
f 394 395 409 408
f 395 396 410 409
f 396 397 411 410
f 397 398 412 411
f 398 385 399 412
g Beak
usemtl BEAK_GOLD
f 413 414 424 423
f 414 415 425 424
f 415 416 426 425
f 416 417 427 426
f 417 418 428 427
f 418 419 429 428
f 419 420 430 429
f 420 421 431 430
f 421 422 432 431
f 422 413 423 432
f 433 414 413
f 434 423 424
f 433 415 414
f 434 424 425
f 433 416 415
f 434 425 426
f 433 417 416
f 434 426 427
f 433 418 417
f 434 427 428
f 433 419 418
f 434 428 429
f 433 420 419
f 434 429 430
f 433 421 420
f 434 430 431
f 433 422 421
f 434 431 432
f 433 413 422
f 434 432 423
g WingL
usemtl EAGLE_WING
f 435 436 443 442
f 436 437 444 443
f 437 438 445 444
f 438 439 446 445
f 439 440 447 446
f 440 441 448 447
f 441 435 442 448
f 441 440 439 438 437 436 435
f 442 443 444 445 446 447 448
g WingR
f 449 450 457 456
f 450 451 458 457
f 451 452 459 458
f 452 453 460 459
f 453 454 461 460
f 454 455 462 461
f 455 449 456 462
f 455 454 453 452 451 450 449
f 456 457 458 459 460 461 462
g Tail
usemtl EAGLE_DARK
f 463 464 469 468
f 464 465 470 469
f 465 466 471 470
f 466 467 472 471
f 467 463 468 472
f 467 466 465 464 463
f 468 469 470 471 472
g Leg-0.3
usemtl BEAK_GOLD
f 473 474 482 481
f 474 475 483 482
f 475 476 484 483
f 476 477 485 484
f 477 478 486 485
f 478 479 487 486
f 479 480 488 487
f 480 473 481 488
f 489 474 473
f 490 481 482
f 489 475 474
f 490 482 483
f 489 476 475
f 490 483 484
f 489 477 476
f 490 484 485
f 489 478 477
f 490 485 486
f 489 479 478
f 490 486 487
f 489 480 479
f 490 487 488
f 489 473 480
f 490 488 481
g Talon-0.3_-0.16
f 491 492 499 498
f 492 493 500 499
f 493 494 501 500
f 494 495 502 501
f 495 496 503 502
f 496 497 504 503
f 497 491 498 504
f 505 492 491
f 506 498 499
f 505 493 492
f 506 499 500
f 505 494 493
f 506 500 501
f 505 495 494
f 506 501 502
f 505 496 495
f 506 502 503
f 505 497 496
f 506 503 504
f 505 491 497
f 506 504 498
g Talon-0.3_0
f 507 508 515 514
f 508 509 516 515
f 509 510 517 516
f 510 511 518 517
f 511 512 519 518
f 512 513 520 519
f 513 507 514 520
f 521 508 507
f 522 514 515
f 521 509 508
f 522 515 516
f 521 510 509
f 522 516 517
f 521 511 510
f 522 517 518
f 521 512 511
f 522 518 519
f 521 513 512
f 522 519 520
f 521 507 513
f 522 520 514
g Talon-0.3_0.16
f 523 524 531 530
f 524 525 532 531
f 525 526 533 532
f 526 527 534 533
f 527 528 535 534
f 528 529 536 535
f 529 523 530 536
f 537 524 523
f 538 530 531
f 537 525 524
f 538 531 532
f 537 526 525
f 538 532 533
f 537 527 526
f 538 533 534
f 537 528 527
f 538 534 535
f 537 529 528
f 538 535 536
f 537 523 529
f 538 536 530
g Leg0.3
f 539 540 548 547
f 540 541 549 548
f 541 542 550 549
f 542 543 551 550
f 543 544 552 551
f 544 545 553 552
f 545 546 554 553
f 546 539 547 554
f 555 540 539
f 556 547 548
f 555 541 540
f 556 548 549
f 555 542 541
f 556 549 550
f 555 543 542
f 556 550 551
f 555 544 543
f 556 551 552
f 555 545 544
f 556 552 553
f 555 546 545
f 556 553 554
f 555 539 546
f 556 554 547
g Talon0.3_-0.16
f 557 558 565 564
f 558 559 566 565
f 559 560 567 566
f 560 561 568 567
f 561 562 569 568
f 562 563 570 569
f 563 557 564 570
f 571 558 557
f 572 564 565
f 571 559 558
f 572 565 566
f 571 560 559
f 572 566 567
f 571 561 560
f 572 567 568
f 571 562 561
f 572 568 569
f 571 563 562
f 572 569 570
f 571 557 563
f 572 570 564
g Talon0.3_0
f 573 574 581 580
f 574 575 582 581
f 575 576 583 582
f 576 577 584 583
f 577 578 585 584
f 578 579 586 585
f 579 573 580 586
f 587 574 573
f 588 580 581
f 587 575 574
f 588 581 582
f 587 576 575
f 588 582 583
f 587 577 576
f 588 583 584
f 587 578 577
f 588 584 585
f 587 579 578
f 588 585 586
f 587 573 579
f 588 586 580
g Talon0.3_0.16
f 589 590 597 596
f 590 591 598 597
f 591 592 599 598
f 592 593 600 599
f 593 594 601 600
f 594 595 602 601
f 595 589 596 602
f 603 590 589
f 604 596 597
f 603 591 590
f 604 597 598
f 603 592 591
f 604 598 599
f 603 593 592
f 604 599 600
f 603 594 593
f 604 600 601
f 603 595 594
f 604 601 602
f 603 589 595
f 604 602 596
g LightningFeather_-1_0
usemtl LIGHTNING_BLUE
f 605 606 614 613
f 606 607 615 614
f 607 608 616 615
f 608 609 617 616
f 609 610 618 617
f 610 611 619 618
f 611 612 620 619
f 612 605 613 620
f 621 606 605
f 622 613 614
f 621 607 606
f 622 614 615
f 621 608 607
f 622 615 616
f 621 609 608
f 622 616 617
f 621 610 609
f 622 617 618
f 621 611 610
f 622 618 619
f 621 612 611
f 622 619 620
f 621 605 612
f 622 620 613
g LightningFeather_-1_1
f 623 624 632 631
f 624 625 633 632
f 625 626 634 633
f 626 627 635 634
f 627 628 636 635
f 628 629 637 636
f 629 630 638 637
f 630 623 631 638
f 639 624 623
f 640 631 632
f 639 625 624
f 640 632 633
f 639 626 625
f 640 633 634
f 639 627 626
f 640 634 635
f 639 628 627
f 640 635 636
f 639 629 628
f 640 636 637
f 639 630 629
f 640 637 638
f 639 623 630
f 640 638 631
g LightningFeather_-1_2
f 641 642 650 649
f 642 643 651 650
f 643 644 652 651
f 644 645 653 652
f 645 646 654 653
f 646 647 655 654
f 647 648 656 655
f 648 641 649 656
f 657 642 641
f 658 649 650
f 657 643 642
f 658 650 651
f 657 644 643
f 658 651 652
f 657 645 644
f 658 652 653
f 657 646 645
f 658 653 654
f 657 647 646
f 658 654 655
f 657 648 647
f 658 655 656
f 657 641 648
f 658 656 649
g LightningFeather_1_0
f 659 660 668 667
f 660 661 669 668
f 661 662 670 669
f 662 663 671 670
f 663 664 672 671
f 664 665 673 672
f 665 666 674 673
f 666 659 667 674
f 675 660 659
f 676 667 668
f 675 661 660
f 676 668 669
f 675 662 661
f 676 669 670
f 675 663 662
f 676 670 671
f 675 664 663
f 676 671 672
f 675 665 664
f 676 672 673
f 675 666 665
f 676 673 674
f 675 659 666
f 676 674 667
g LightningFeather_1_1
f 677 678 686 685
f 678 679 687 686
f 679 680 688 687
f 680 681 689 688
f 681 682 690 689
f 682 683 691 690
f 683 684 692 691
f 684 677 685 692
f 693 678 677
f 694 685 686
f 693 679 678
f 694 686 687
f 693 680 679
f 694 687 688
f 693 681 680
f 694 688 689
f 693 682 681
f 694 689 690
f 693 683 682
f 694 690 691
f 693 684 683
f 694 691 692
f 693 677 684
f 694 692 685
g LightningFeather_1_2
f 695 696 704 703
f 696 697 705 704
f 697 698 706 705
f 698 699 707 706
f 699 700 708 707
f 700 701 709 708
f 701 702 710 709
f 702 695 703 710
f 711 696 695
f 712 703 704
f 711 697 696
f 712 704 705
f 711 698 697
f 712 705 706
f 711 699 698
f 712 706 707
f 711 700 699
f 712 707 708
f 711 701 700
f 712 708 709
f 711 702 701
f 712 709 710
f 711 695 702
f 712 710 703
g EyeL
usemtl EAGLE_EYE
f 713 714 724 723
f 714 715 725 724
f 715 716 726 725
f 716 717 727 726
f 717 718 728 727
f 718 719 729 728
f 719 720 730 729
f 720 721 731 730
f 721 722 732 731
f 722 713 723 732
f 723 724 734 733
f 724 725 735 734
f 725 726 736 735
f 726 727 737 736
f 727 728 738 737
f 728 729 739 738
f 729 730 740 739
f 730 731 741 740
f 731 732 742 741
f 732 723 733 742
f 733 734 744 743
f 734 735 745 744
f 735 736 746 745
f 736 737 747 746
f 737 738 748 747
f 738 739 749 748
f 739 740 750 749
f 740 741 751 750
f 741 742 752 751
f 742 733 743 752
f 743 744 754 753
f 744 745 755 754
f 745 746 756 755
f 746 747 757 756
f 747 748 758 757
f 748 749 759 758
f 749 750 760 759
f 750 751 761 760
f 751 752 762 761
f 752 743 753 762
f 753 754 764 763
f 754 755 765 764
f 755 756 766 765
f 756 757 767 766
f 757 758 768 767
f 758 759 769 768
f 759 760 770 769
f 760 761 771 770
f 761 762 772 771
f 762 753 763 772
f 763 764 774 773
f 764 765 775 774
f 765 766 776 775
f 766 767 777 776
f 767 768 778 777
f 768 769 779 778
f 769 770 780 779
f 770 771 781 780
f 771 772 782 781
f 772 763 773 782
g EyeR
f 783 784 794 793
f 784 785 795 794
f 785 786 796 795
f 786 787 797 796
f 787 788 798 797
f 788 789 799 798
f 789 790 800 799
f 790 791 801 800
f 791 792 802 801
f 792 783 793 802
f 793 794 804 803
f 794 795 805 804
f 795 796 806 805
f 796 797 807 806
f 797 798 808 807
f 798 799 809 808
f 799 800 810 809
f 800 801 811 810
f 801 802 812 811
f 802 793 803 812
f 803 804 814 813
f 804 805 815 814
f 805 806 816 815
f 806 807 817 816
f 807 808 818 817
f 808 809 819 818
f 809 810 820 819
f 810 811 821 820
f 811 812 822 821
f 812 803 813 822
f 813 814 824 823
f 814 815 825 824
f 815 816 826 825
f 816 817 827 826
f 817 818 828 827
f 818 819 829 828
f 819 820 830 829
f 820 821 831 830
f 821 822 832 831
f 822 813 823 832
f 823 824 834 833
f 824 825 835 834
f 825 826 836 835
f 826 827 837 836
f 827 828 838 837
f 828 829 839 838
f 829 830 840 839
f 830 831 841 840
f 831 832 842 841
f 832 823 833 842
f 833 834 844 843
f 834 835 845 844
f 835 836 846 845
f 836 837 847 846
f 837 838 848 847
f 838 839 849 848
f 839 840 850 849
f 840 841 851 850
f 841 842 852 851
f 842 833 843 852
