# back_cape - project-original survival modular asset
mtllib survival-combat-parts.mtl
o back_cape
v -0.72 0.2 2.19
v 0.72 0.2 2.19
v 1.08 0.28 0.34
v 0.55 0.35 -0.11
v 0 0.38 0.1
v -0.58 0.34 -0.14
v -1.06 0.28 0.36
v -0.72 0.2 2.31
v 0.72 0.2 2.31
v 1.08 0.28 0.46
v 0.55 0.35 0.01
v 0 0.38 0.22
v -0.58 0.34 -0.02
v -1.06 0.28 0.48
v -0.62507 0.14 2.08221
v -0.63809 0.11271 2.07935
v -0.66761 0.10597 2.07698
v -0.6914 0.12486 2.07689
v -0.69154 0.15514 2.07913
v -0.66793 0.17403 2.08203
v -0.63835 0.16729 2.0834
v -0.51625 0.28 0.20158
v -0.52555 0.26051 0.19954
v -0.54664 0.25569 0.19785
v -0.56363 0.26918 0.19778
v -0.56373 0.29082 0.19938
v -0.54687 0.30431 0.20145
v -0.52574 0.29949 0.20243
v -0.29502 0.14 2.08111
v -0.30812 0.11271 2.07866
v -0.3377 0.10597 2.07722
v -0.36148 0.12486 2.07788
v -0.36155 0.15514 2.08013
v -0.33786 0.17403 2.08229
v -0.30825 0.16729 2.08272
v -0.24561 0.28 0.20079
v -0.25497 0.26051 0.19904
v -0.2761 0.25569 0.19802
v -0.29309 0.26918 0.19848
v -0.29314 0.29082 0.20009
v -0.27622 0.30431 0.20163
v -0.25507 0.29949 0.20194
v 0.035 0.14 2.08
v 0.02182 0.11271 2.07797
v -0.00779 0.10597 2.07747
v -0.03153 0.12486 2.07887
v -0.03153 0.15514 2.08113
v -0.00779 0.17403 2.08253
v 0.02182 0.16729 2.08203
v 0.025 0.28 0.2
v 0.01559 0.26051 0.19855
v -0.00556 0.25569 0.19819
v -0.02252 0.26918 0.19919
v -0.02252 0.29082 0.20081
v -0.00556 0.30431 0.20181
v 0.01559 0.29949 0.20145
v 0.36498 0.14 2.07889
v 0.35175 0.11271 2.07728
v 0.32214 0.10597 2.07771
v 0.29845 0.12486 2.07987
v 0.29852 0.15514 2.08212
v 0.3223 0.17403 2.08278
v 0.35188 0.16729 2.08134
v 0.29559 0.28 0.19921
v 0.28613 0.26051 0.19806
v 0.26498 0.25569 0.19837
v 0.24806 0.26918 0.19991
v 0.24811 0.29082 0.20152
v 0.2651 0.30431 0.20198
v 0.28623 0.29949 0.20096
v 0.69493 0.14 2.07779
v 0.68165 0.11271 2.0766
v 0.65207 0.10597 2.07797
v 0.62846 0.12486 2.08087
v 0.6286 0.15514 2.08311
v 0.65239 0.17403 2.08302
v 0.68191 0.16729 2.08065
v 0.56615 0.28 0.19842
v 0.55666 0.26051 0.19757
v 0.53553 0.25569 0.19855
v 0.51867 0.26918 0.20062
v 0.51877 0.29082 0.20222
v 0.53576 0.30431 0.20215
v 0.55685 0.29949 0.20046
v -0.86 -0.02 2.25
v 0.86 -0.02 2.25
v 0.86 0.22 2.25
v -0.86 0.22 2.25
v -0.86 -0.02 2.47
v 0.86 -0.02 2.47
v 0.86 0.22 2.47
v -0.86 0.22 2.47
v -0.64 -0.04 2.22
v -0.64 -0.04 2.22
v -0.64 -0.04 2.22
v -0.64 -0.04 2.22
v -0.64 -0.04 2.22
v -0.64 -0.04 2.22
v -0.64 -0.04 2.22
v -0.64 -0.04 2.22
v -0.64 -0.04 2.22
v -0.64 -0.04 2.22
v -0.58 -0.04 2.23608
v -0.59146 -0.01649 2.23608
v -0.62146 -0.00196 2.23608
v -0.65854 -0.00196 2.23608
v -0.68854 -0.01649 2.23608
v -0.7 -0.04 2.23608
v -0.68854 -0.06351 2.23608
v -0.65854 -0.07804 2.23608
v -0.62146 -0.07804 2.23608
v -0.59146 -0.06351 2.23608
v -0.53608 -0.04 2.28
v -0.55592 0.00072 2.28
v -0.60789 0.02589 2.28
v -0.67211 0.02589 2.28
v -0.72408 0.00072 2.28
v -0.74392 -0.04 2.28
v -0.72408 -0.08072 2.28
v -0.67211 -0.10589 2.28
v -0.60789 -0.10589 2.28
v -0.55592 -0.08072 2.28
v -0.52 -0.04 2.34
v -0.54292 0.00702 2.34
v -0.60292 0.03608 2.34
v -0.67708 0.03608 2.34
v -0.73708 0.00702 2.34
v -0.76 -0.04 2.34
v -0.73708 -0.08702 2.34
v -0.67708 -0.11608 2.34
v -0.60292 -0.11608 2.34
v -0.54292 -0.08702 2.34
v -0.53608 -0.04 2.4
v -0.55592 0.00072 2.4
v -0.60789 0.02589 2.4
v -0.67211 0.02589 2.4
v -0.72408 0.00072 2.4
v -0.74392 -0.04 2.4
v -0.72408 -0.08072 2.4
v -0.67211 -0.10589 2.4
v -0.60789 -0.10589 2.4
v -0.55592 -0.08072 2.4
v -0.58 -0.04 2.44392
v -0.59146 -0.01649 2.44392
v -0.62146 -0.00196 2.44392
v -0.65854 -0.00196 2.44392
v -0.68854 -0.01649 2.44392
v -0.7 -0.04 2.44392
v -0.68854 -0.06351 2.44392
v -0.65854 -0.07804 2.44392
v -0.62146 -0.07804 2.44392
v -0.59146 -0.06351 2.44392
v -0.64 -0.04 2.46
v -0.64 -0.04 2.46
v -0.64 -0.04 2.46
v -0.64 -0.04 2.46
v -0.64 -0.04 2.46
v -0.64 -0.04 2.46
v -0.64 -0.04 2.46
v -0.64 -0.04 2.46
v -0.64 -0.04 2.46
v -0.64 -0.04 2.46
v 0.64 -0.04 2.22
v 0.64 -0.04 2.22
v 0.64 -0.04 2.22
v 0.64 -0.04 2.22
v 0.64 -0.04 2.22
v 0.64 -0.04 2.22
v 0.64 -0.04 2.22
v 0.64 -0.04 2.22
v 0.64 -0.04 2.22
v 0.64 -0.04 2.22
v 0.7 -0.04 2.23608
v 0.68854 -0.01649 2.23608
v 0.65854 -0.00196 2.23608
v 0.62146 -0.00196 2.23608
v 0.59146 -0.01649 2.23608
v 0.58 -0.04 2.23608
v 0.59146 -0.06351 2.23608
v 0.62146 -0.07804 2.23608
v 0.65854 -0.07804 2.23608
v 0.68854 -0.06351 2.23608
v 0.74392 -0.04 2.28
v 0.72408 0.00072 2.28
v 0.67211 0.02589 2.28
v 0.60789 0.02589 2.28
v 0.55592 0.00072 2.28
v 0.53608 -0.04 2.28
v 0.55592 -0.08072 2.28
v 0.60789 -0.10589 2.28
v 0.67211 -0.10589 2.28
v 0.72408 -0.08072 2.28
v 0.76 -0.04 2.34
v 0.73708 0.00702 2.34
v 0.67708 0.03608 2.34
v 0.60292 0.03608 2.34
v 0.54292 0.00702 2.34
v 0.52 -0.04 2.34
v 0.54292 -0.08702 2.34
v 0.60292 -0.11608 2.34
v 0.67708 -0.11608 2.34
v 0.73708 -0.08702 2.34
v 0.74392 -0.04 2.4
v 0.72408 0.00072 2.4
v 0.67211 0.02589 2.4
v 0.60789 0.02589 2.4
v 0.55592 0.00072 2.4
v 0.53608 -0.04 2.4
v 0.55592 -0.08072 2.4
v 0.60789 -0.10589 2.4
v 0.67211 -0.10589 2.4
v 0.72408 -0.08072 2.4
v 0.7 -0.04 2.44392
v 0.68854 -0.01649 2.44392
v 0.65854 -0.00196 2.44392
v 0.62146 -0.00196 2.44392
v 0.59146 -0.01649 2.44392
v 0.58 -0.04 2.44392
v 0.59146 -0.06351 2.44392
v 0.62146 -0.07804 2.44392
v 0.65854 -0.07804 2.44392
v 0.68854 -0.06351 2.44392
v 0.64 -0.04 2.46
v 0.64 -0.04 2.46
v 0.64 -0.04 2.46
v 0.64 -0.04 2.46
v 0.64 -0.04 2.46
v 0.64 -0.04 2.46
v 0.64 -0.04 2.46
v 0.64 -0.04 2.46
v 0.64 -0.04 2.46
v 0.64 -0.04 2.46
g CapeMain
usemtl SURVIVAL_CLOTH_DARK
f 1 2 9 8
f 2 3 10 9
f 3 4 11 10
f 4 5 12 11
f 5 6 13 12
f 6 7 14 13
f 7 1 8 14
f 7 6 5 4 3 2 1
f 8 9 10 11 12 13 14
g Fold0
usemtl SURVIVAL_CLOTH_LIGHT
f 15 16 23 22
f 16 17 24 23
f 17 18 25 24
f 18 19 26 25
f 19 20 27 26
f 20 21 28 27
f 21 15 22 28
g Fold1
usemtl SURVIVAL_CLOTH
f 29 30 37 36
f 30 31 38 37
f 31 32 39 38
f 32 33 40 39
f 33 34 41 40
f 34 35 42 41
f 35 29 36 42
g Fold2
usemtl SURVIVAL_CLOTH_LIGHT
f 43 44 51 50
f 44 45 52 51
f 45 46 53 52
f 46 47 54 53
f 47 48 55 54
f 48 49 56 55
f 49 43 50 56
g Fold3
usemtl SURVIVAL_CLOTH
f 57 58 65 64
f 58 59 66 65
f 59 60 67 66
f 60 61 68 67
f 61 62 69 68
f 62 63 70 69
f 63 57 64 70
g Fold4
usemtl SURVIVAL_CLOTH_LIGHT
f 71 72 79 78
f 72 73 80 79
f 73 74 81 80
f 74 75 82 81
f 75 76 83 82
f 76 77 84 83
f 77 71 78 84
g CapeCollar
usemtl SURVIVAL_LEATHER
f 85 86 87 88
f 89 92 91 90
f 85 89 90 86
f 86 90 91 87
f 87 91 92 88
f 89 85 88 92
g Clasp-1
usemtl SURVIVAL_METAL
f 93 94 104 103
f 94 95 105 104
f 95 96 106 105
f 96 97 107 106
f 97 98 108 107
f 98 99 109 108
f 99 100 110 109
f 100 101 111 110
f 101 102 112 111
f 102 93 103 112
f 103 104 114 113
f 104 105 115 114
f 105 106 116 115
f 106 107 117 116
f 107 108 118 117
f 108 109 119 118
f 109 110 120 119
f 110 111 121 120
f 111 112 122 121
f 112 103 113 122
f 113 114 124 123
f 114 115 125 124
f 115 116 126 125
f 116 117 127 126
f 117 118 128 127
f 118 119 129 128
f 119 120 130 129
f 120 121 131 130
f 121 122 132 131
f 122 113 123 132
f 123 124 134 133
f 124 125 135 134
f 125 126 136 135
f 126 127 137 136
f 127 128 138 137
f 128 129 139 138
f 129 130 140 139
f 130 131 141 140
f 131 132 142 141
f 132 123 133 142
f 133 134 144 143
f 134 135 145 144
f 135 136 146 145
f 136 137 147 146
f 137 138 148 147
f 138 139 149 148
f 139 140 150 149
f 140 141 151 150
f 141 142 152 151
f 142 133 143 152
f 143 144 154 153
f 144 145 155 154
f 145 146 156 155
f 146 147 157 156
f 147 148 158 157
f 148 149 159 158
f 149 150 160 159
f 150 151 161 160
f 151 152 162 161
f 152 143 153 162
g Clasp1
f 163 164 174 173
f 164 165 175 174
f 165 166 176 175
f 166 167 177 176
f 167 168 178 177
f 168 169 179 178
f 169 170 180 179
f 170 171 181 180
f 171 172 182 181
f 172 163 173 182
f 173 174 184 183
f 174 175 185 184
f 175 176 186 185
f 176 177 187 186
f 177 178 188 187
f 178 179 189 188
f 179 180 190 189
f 180 181 191 190
f 181 182 192 191
f 182 173 183 192
f 183 184 194 193
f 184 185 195 194
f 185 186 196 195
f 186 187 197 196
f 187 188 198 197
f 188 189 199 198
f 189 190 200 199
f 190 191 201 200
f 191 192 202 201
f 192 183 193 202
f 193 194 204 203
f 194 195 205 204
f 195 196 206 205
f 196 197 207 206
f 197 198 208 207
f 198 199 209 208
f 199 200 210 209
f 200 201 211 210
f 201 202 212 211
f 202 193 203 212
f 203 204 214 213
f 204 205 215 214
f 205 206 216 215
f 206 207 217 216
f 207 208 218 217
f 208 209 219 218
f 209 210 220 219
f 210 211 221 220
f 211 212 222 221
f 212 203 213 222
f 213 214 224 223
f 214 215 225 224
f 215 216 226 225
f 216 217 227 226
f 217 218 228 227
f 218 219 229 228
f 219 220 230 229
f 220 221 231 230
f 221 222 232 231
f 222 213 223 232
