# blade_long - project-original survival modular asset
mtllib survival-combat-parts.mtl
o blade_long
v -0.18 0 0.04
v 0.18 0 0.04
v 0.32 0 2.57
v 0.06 0 3.37
v -0.06 0 3.37
v -0.32 0 2.57
v -0.18 0 0.2
v 0.18 0 0.2
v 0.32 0 2.73
v 0.06 0 3.53
v -0.06 0 3.53
v -0.32 0 2.73
v -0.18 -0.01 0.09
v -0.1 -0.01 0.13
v -0.2 -0.01 2.59
v -0.02 -0.01 3.35
v -0.06 -0.01 3.42
v -0.32 -0.01 2.62
v -0.18 -0.01 0.15
v -0.1 -0.01 0.19
v -0.2 -0.01 2.65
v -0.02 -0.01 3.41
v -0.06 -0.01 3.48
v -0.32 -0.01 2.68
v 0.1 -0.01 0.13
v 0.18 -0.01 0.09
v 0.32 -0.01 2.62
v 0.06 -0.01 3.42
v 0.02 -0.01 3.35
v 0.2 -0.01 2.59
v 0.1 -0.01 0.19
v 0.18 -0.01 0.15
v 0.32 -0.01 2.68
v 0.06 -0.01 3.48
v 0.02 -0.01 3.41
v 0.2 -0.01 2.65
v -0.06 -0.14 0.47
v 0.06 -0.14 0.47
v 0.06 -0.1 0.47
v -0.06 -0.1 0.47
v -0.06 -0.14 2.77
v 0.06 -0.14 2.77
v 0.06 -0.1 2.77
v -0.06 -0.1 2.77
v -0.23 -0.11 0.03
v 0.23 -0.11 0.03
v 0.23 0.11 0.03
v -0.23 0.11 0.03
v -0.23 -0.11 0.37
v 0.23 -0.11 0.37
v 0.23 0.11 0.37
v -0.23 0.11 0.37
g BladeCore
usemtl SURVIVAL_BLADE
f 1 2 8 7
f 2 3 9 8
f 3 4 10 9
f 4 5 11 10
f 5 6 12 11
f 6 1 7 12
f 6 5 4 3 2 1
f 7 8 9 10 11 12
g LeftEdge
usemtl SURVIVAL_BLADE_EDGE
f 13 14 20 19
f 14 15 21 20
f 15 16 22 21
f 16 17 23 22
f 17 18 24 23
f 18 13 19 24
f 18 17 16 15 14 13
f 19 20 21 22 23 24
g RightEdge
f 25 26 32 31
f 26 27 33 32
f 27 28 34 33
f 28 29 35 34
f 29 30 36 35
f 30 25 31 36
f 30 29 28 27 26 25
f 31 32 33 34 35 36
g Fuller
usemtl SURVIVAL_METAL_DARK
f 37 38 39 40
f 41 44 43 42
f 37 41 42 38
f 38 42 43 39
f 39 43 44 40
f 41 37 40 44
g Ricasso
f 45 46 47 48
f 49 52 51 50
f 45 49 50 46
f 46 50 51 47
f 47 51 52 48
f 49 45 48 52
