# claw - project-original survival modular asset
mtllib survival-combat-parts.mtl
o claw
v 0 0 0.18
v 0 0 0.18
v 0 0 0.18
v 0 0 0.18
v 0 0 0.18
v 0 0 0.18
v 0 0 0.18
v 0 0 0.18
v 0 0 0.18
v 0 0 0.18
v 0 0 0.18
v 0 0 0.18
v 0 0 0.18
v 0 0 0.18
v 0.22196 0 0.21197
v 0.19998 0.11955 0.21197
v 0.13839 0.21542 0.21197
v 0.04939 0.26862 0.21197
v -0.04939 0.26862 0.21197
v -0.13839 0.21542 0.21197
v -0.19998 0.11955 0.21197
v -0.22196 0 0.21197
v -0.19998 -0.11955 0.21197
v -0.13839 -0.21542 0.21197
v -0.04939 -0.26862 0.21197
v 0.04939 -0.26862 0.21197
v 0.13839 -0.21542 0.21197
v 0.19998 -0.11955 0.21197
v 0.41012 0 0.30302
v 0.36951 0.2209 0.30302
v 0.25571 0.39804 0.30302
v 0.09126 0.49635 0.30302
v -0.09126 0.49635 0.30302
v -0.25571 0.39804 0.30302
v -0.36951 0.2209 0.30302
v -0.41012 0 0.30302
v -0.36951 -0.2209 0.30302
v -0.25571 -0.39804 0.30302
v -0.09126 -0.49635 0.30302
v 0.09126 -0.49635 0.30302
v 0.25571 -0.39804 0.30302
v 0.36951 -0.2209 0.30302
v 0.53585 0 0.43927
v 0.48278 0.28862 0.43927
v 0.3341 0.52007 0.43927
v 0.11924 0.64852 0.43927
v -0.11924 0.64852 0.43927
v -0.3341 0.52007 0.43927
v -0.48278 0.28862 0.43927
v -0.53585 0 0.43927
v -0.48278 -0.28862 0.43927
v -0.3341 -0.52007 0.43927
v -0.11924 -0.64852 0.43927
v 0.11924 -0.64852 0.43927
v 0.3341 -0.52007 0.43927
v 0.48278 -0.28862 0.43927
v 0.58 0 0.6
v 0.52256 0.3124 0.6
v 0.36162 0.56292 0.6
v 0.12906 0.70195 0.6
v -0.12906 0.70195 0.6
v -0.36162 0.56292 0.6
v -0.52256 0.3124 0.6
v -0.58 0 0.6
v -0.52256 -0.3124 0.6
v -0.36162 -0.56292 0.6
v -0.12906 -0.70195 0.6
v 0.12906 -0.70195 0.6
v 0.36162 -0.56292 0.6
v 0.52256 -0.3124 0.6
v 0.53585 0 0.76073
v 0.48278 0.28862 0.76073
v 0.3341 0.52007 0.76073
v 0.11924 0.64852 0.76073
v -0.11924 0.64852 0.76073
v -0.3341 0.52007 0.76073
v -0.48278 0.28862 0.76073
v -0.53585 0 0.76073
v -0.48278 -0.28862 0.76073
v -0.3341 -0.52007 0.76073
v -0.11924 -0.64852 0.76073
v 0.11924 -0.64852 0.76073
v 0.3341 -0.52007 0.76073
v 0.48278 -0.28862 0.76073
v 0.41012 0 0.89698
v 0.36951 0.2209 0.89698
v 0.25571 0.39804 0.89698
v 0.09126 0.49635 0.89698
v -0.09126 0.49635 0.89698
v -0.25571 0.39804 0.89698
v -0.36951 0.2209 0.89698
v -0.41012 0 0.89698
v -0.36951 -0.2209 0.89698
v -0.25571 -0.39804 0.89698
v -0.09126 -0.49635 0.89698
v 0.09126 -0.49635 0.89698
v 0.25571 -0.39804 0.89698
v 0.36951 -0.2209 0.89698
v 0.22196 0 0.98803
v 0.19998 0.11955 0.98803
v 0.13839 0.21542 0.98803
v 0.04939 0.26862 0.98803
v -0.04939 0.26862 0.98803
v -0.13839 0.21542 0.98803
v -0.19998 0.11955 0.98803
v -0.22196 0 0.98803
v -0.19998 -0.11955 0.98803
v -0.13839 -0.21542 0.98803
v -0.04939 -0.26862 0.98803
v 0.04939 -0.26862 0.98803
v 0.13839 -0.21542 0.98803
v 0.19998 -0.11955 0.98803
v 0 0 1.02
v 0 0 1.02
v 0 0 1.02
v 0 0 1.02
v 0 0 1.02
v 0 0 1.02
v 0 0 1.02
v 0 0 1.02
v 0 0 1.02
v 0 0 1.02
v 0 0 1.02
v 0 0 1.02
v 0 0 1.02
v 0 0 1.02
v -0.49 -0.64 0.62
v -0.45959 -0.61508 0.54024
v -0.38257 -0.60181 0.4978
v -0.295 -0.60642 0.51254
v -0.23784 -0.62674 0.57756
v -0.23784 -0.65326 0.66244
v -0.295 -0.67358 0.72746
v -0.38257 -0.67819 0.7422
v -0.45959 -0.66492 0.69976
v -0.45 -1.12 0.47
v -0.42894 -1.10274 0.41478
v -0.37563 -1.09356 0.3854
v -0.315 -1.09675 0.39561
v -0.27543 -1.11082 0.44062
v -0.27543 -1.12918 0.49938
v -0.315 -1.14325 0.54439
v -0.37563 -1.14644 0.5546
v -0.42894 -1.13726 0.52522
v -0.45 -1.12 0.47
v -0.42894 -1.09178 0.4195
v -0.37563 -1.07676 0.39263
v -0.315 -1.08198 0.40196
v -0.27543 -1.10498 0.44313
v -0.27543 -1.13502 0.49687
v -0.315 -1.15802 0.53804
v -0.37563 -1.16324 0.54737
v -0.42894 -1.14822 0.5205
v -0.368 -1.46 0.28
v -0.36613 -1.45749 0.27551
v -0.36139 -1.45616 0.27312
v -0.356 -1.45662 0.27395
v -0.35248 -1.45867 0.27761
v -0.35248 -1.46133 0.28239
v -0.356 -1.46338 0.28605
v -0.36139 -1.46384 0.28688
v -0.36613 -1.46251 0.28449
v -0.25 -0.58 0.62
v -0.21959 -0.55508 0.54024
v -0.14257 -0.54181 0.4978
v -0.055 -0.54642 0.51254
v 0.00216 -0.56674 0.57756
v 0.00216 -0.59326 0.66244
v -0.055 -0.61358 0.72746
v -0.14257 -0.61819 0.7422
v -0.21959 -0.60492 0.69976
v -0.21 -1.06 0.47
v -0.18894 -1.04274 0.41478
v -0.13563 -1.03356 0.3854
v -0.075 -1.03675 0.39561
v -0.03543 -1.05082 0.44062
v -0.03543 -1.06918 0.49938
v -0.075 -1.08325 0.54439
v -0.13563 -1.08644 0.5546
v -0.18894 -1.07726 0.52522
v -0.21 -1.06 0.47
v -0.18894 -1.03178 0.4195
v -0.13563 -1.01676 0.39263
v -0.075 -1.02198 0.40196
v -0.03543 -1.04498 0.44313
v -0.03543 -1.07502 0.49687
v -0.075 -1.09802 0.53804
v -0.13563 -1.10324 0.54737
v -0.18894 -1.08822 0.5205
v -0.128 -1.4 0.28
v -0.12613 -1.39749 0.27551
v -0.12139 -1.39616 0.27312
v -0.116 -1.39662 0.27395
v -0.11248 -1.39867 0.27761
v -0.11248 -1.40133 0.28239
v -0.116 -1.40338 0.28605
v -0.12139 -1.40384 0.28688
v -0.12613 -1.40251 0.28449
v -0.01 -0.58 0.62
v 0.02041 -0.55508 0.54024
v 0.09743 -0.54181 0.4978
v 0.185 -0.54642 0.51254
v 0.24216 -0.56674 0.57756
v 0.24216 -0.59326 0.66244
v 0.185 -0.61358 0.72746
v 0.09743 -0.61819 0.7422
v 0.02041 -0.60492 0.69976
v 0.03 -1.06 0.47
v 0.05106 -1.04274 0.41478
v 0.10437 -1.03356 0.3854
v 0.165 -1.03675 0.39561
v 0.20457 -1.05082 0.44062
v 0.20457 -1.06918 0.49938
v 0.165 -1.08325 0.54439
v 0.10437 -1.08644 0.5546
v 0.05106 -1.07726 0.52522
v 0.03 -1.06 0.47
v 0.05106 -1.03178 0.4195
v 0.10437 -1.01676 0.39263
v 0.165 -1.02198 0.40196
v 0.20457 -1.04498 0.44313
v 0.20457 -1.07502 0.49687
v 0.165 -1.09802 0.53804
v 0.10437 -1.10324 0.54737
v 0.05106 -1.08822 0.5205
v 0.112 -1.4 0.28
v 0.11387 -1.39749 0.27551
v 0.11861 -1.39616 0.27312
v 0.124 -1.39662 0.27395
v 0.12752 -1.39867 0.27761
v 0.12752 -1.40133 0.28239
v 0.124 -1.40338 0.28605
v 0.11861 -1.40384 0.28688
v 0.11387 -1.40251 0.28449
v 0.23 -0.64 0.62
v 0.26041 -0.61508 0.54024
v 0.33743 -0.60181 0.4978
v 0.425 -0.60642 0.51254
v 0.48216 -0.62674 0.57756
v 0.48216 -0.65326 0.66244
v 0.425 -0.67358 0.72746
v 0.33743 -0.67819 0.7422
v 0.26041 -0.66492 0.69976
v 0.27 -1.12 0.47
v 0.29106 -1.10274 0.41478
v 0.34437 -1.09356 0.3854
v 0.405 -1.09675 0.39561
v 0.44457 -1.11082 0.44062
v 0.44457 -1.12918 0.49938
v 0.405 -1.14325 0.54439
v 0.34437 -1.14644 0.5546
v 0.29106 -1.13726 0.52522
v 0.27 -1.12 0.47
v 0.29106 -1.09178 0.4195
v 0.34437 -1.07676 0.39263
v 0.405 -1.08198 0.40196
v 0.44457 -1.10498 0.44313
v 0.44457 -1.13502 0.49687
v 0.405 -1.15802 0.53804
v 0.34437 -1.16324 0.54737
v 0.29106 -1.14822 0.5205
v 0.352 -1.46 0.28
v 0.35387 -1.45749 0.27551
v 0.35861 -1.45616 0.27312
v 0.364 -1.45662 0.27395
v 0.36752 -1.45867 0.27761
v 0.36752 -1.46133 0.28239
v 0.364 -1.46338 0.28605
v 0.35861 -1.46384 0.28688
v 0.35387 -1.46251 0.28449
v -0.57043 -0.01313 0.6
v -0.52645 -0.01881 0.51512
v -0.46073 -0.07185 0.46996
v -0.40403 -0.14741 0.48565
v -0.38287 -0.21015 0.55484
v -0.40717 -0.23071 0.64516
v -0.46554 -0.19946 0.71435
v -0.53068 -0.13104 0.73004
v -0.5721 -0.05745 0.68488
v -0.79813 -0.2713 0.48
v -0.76986 -0.27495 0.42544
v -0.72761 -0.30904 0.3964
v -0.69116 -0.35762 0.40649
v -0.67756 -0.39795 0.45097
v -0.69318 -0.41117 0.50903
v -0.73071 -0.39108 0.55351
v -0.77258 -0.34709 0.5636
v -0.79921 -0.29979 0.53456
v -0.80966 -0.28301 0.48
v -0.77717 -0.27656 0.4281
v -0.7273 -0.29979 0.40049
v -0.68336 -0.34184 0.41008
v -0.66593 -0.38303 0.45239
v -0.68316 -0.40408 0.50761
v -0.72698 -0.39515 0.54992
v -0.77689 -0.36041 0.55951
v -0.80955 -0.31612 0.5319
v -0.92619 -0.55493 0.34
v -0.9233 -0.55436 0.33539
v -0.91887 -0.55643 0.33293
v -0.91497 -0.56016 0.33378
v -0.91342 -0.56382 0.33755
v -0.91495 -0.5657 0.34245
v -0.91884 -0.5649 0.34622
v -0.92328 -0.56181 0.34707
v -0.92618 -0.55788 0.34461
v 0 -0.05 0.18
v 0 -0.05 0.18
v 0 -0.05 0.18
v 0 -0.05 0.18
v 0 -0.05 0.18
v 0 -0.05 0.18
v 0 -0.05 0.18
v 0 -0.05 0.18
v 0 -0.05 0.18
v 0 -0.05 0.18
v 0 -0.05 0.18
v 0 -0.05 0.18
v 0.19985 -0.05 0.1991
v 0.17307 0.06756 0.1991
v 0.09992 0.15361 0.1991
v 0 0.18511 0.1991
v -0.09992 0.15361 0.1991
v -0.17307 0.06756 0.1991
v -0.19985 -0.05 0.1991
v -0.17307 -0.16756 0.1991
v -0.09992 -0.25361 0.1991
v 0 -0.28511 0.1991
v 0.09992 -0.25361 0.1991
v 0.17307 -0.16756 0.1991
v 0.32336 -0.05 0.2491
v 0.28004 0.14021 0.2491
v 0.16168 0.27946 0.2491
v 0 0.33042 0.2491
v -0.16168 0.27946 0.2491
v -0.28004 0.14021 0.2491
v -0.32336 -0.05 0.2491
v -0.28004 -0.24021 0.2491
v -0.16168 -0.37946 0.2491
v 0 -0.43042 0.2491
v 0.16168 -0.37946 0.2491
v 0.28004 -0.24021 0.2491
v 0.32336 -0.05 0.3109
v 0.28004 0.14021 0.3109
v 0.16168 0.27946 0.3109
v 0 0.33042 0.3109
v -0.16168 0.27946 0.3109
v -0.28004 0.14021 0.3109
v -0.32336 -0.05 0.3109
v -0.28004 -0.24021 0.3109
v -0.16168 -0.37946 0.3109
v 0 -0.43042 0.3109
v 0.16168 -0.37946 0.3109
v 0.28004 -0.24021 0.3109
v 0.19985 -0.05 0.3609
v 0.17307 0.06756 0.3609
v 0.09992 0.15361 0.3609
v 0 0.18511 0.3609
v -0.09992 0.15361 0.3609
v -0.17307 0.06756 0.3609
v -0.19985 -0.05 0.3609
v -0.17307 -0.16756 0.3609
v -0.09992 -0.25361 0.3609
v 0 -0.28511 0.3609
v 0.09992 -0.25361 0.3609
v 0.17307 -0.16756 0.3609
v 0 -0.05 0.38
v 0 -0.05 0.38
v 0 -0.05 0.38
v 0 -0.05 0.38
v 0 -0.05 0.38
v 0 -0.05 0.38
v 0 -0.05 0.38
v 0 -0.05 0.38
v 0 -0.05 0.38
v 0 -0.05 0.38
v 0 -0.05 0.38
v 0 -0.05 0.38
v -0.36 -0.48 0.25
v -0.36 -0.48 0.25
v -0.36 -0.48 0.25
v -0.36 -0.48 0.25
v -0.36 -0.48 0.25
v -0.36 -0.48 0.25
v -0.36 -0.48 0.25
v -0.36 -0.48 0.25
v -0.36 -0.48 0.25
v -0.28929 -0.48 0.2705
v -0.30583 -0.41637 0.2705
v -0.34772 -0.38251 0.2705
v -0.39536 -0.39427 0.2705
v -0.42645 -0.44614 0.2705
v -0.42645 -0.51386 0.2705
v -0.39536 -0.56573 0.2705
v -0.34772 -0.57749 0.2705
v -0.30583 -0.54363 0.2705
v -0.26 -0.48 0.32
v -0.2834 -0.39001 0.32
v -0.34264 -0.34213 0.32
v -0.41 -0.35876 0.32
v -0.45397 -0.43212 0.32
v -0.45397 -0.52788 0.32
v -0.41 -0.60124 0.32
v -0.34264 -0.61787 0.32
v -0.2834 -0.56999 0.32
v -0.28929 -0.48 0.3695
v -0.30583 -0.41637 0.3695
v -0.34772 -0.38251 0.3695
v -0.39536 -0.39427 0.3695
v -0.42645 -0.44614 0.3695
v -0.42645 -0.51386 0.3695
v -0.39536 -0.56573 0.3695
v -0.34772 -0.57749 0.3695
v -0.30583 -0.54363 0.3695
v -0.36 -0.48 0.39
v -0.36 -0.48 0.39
v -0.36 -0.48 0.39
v -0.36 -0.48 0.39
v -0.36 -0.48 0.39
v -0.36 -0.48 0.39
v -0.36 -0.48 0.39
v -0.36 -0.48 0.39
v -0.36 -0.48 0.39
v -0.12 -0.48 0.25
v -0.12 -0.48 0.25
v -0.12 -0.48 0.25
v -0.12 -0.48 0.25
v -0.12 -0.48 0.25
v -0.12 -0.48 0.25
v -0.12 -0.48 0.25
v -0.12 -0.48 0.25
v -0.12 -0.48 0.25
v -0.04929 -0.48 0.2705
v -0.06583 -0.41637 0.2705
v -0.10772 -0.38251 0.2705
v -0.15536 -0.39427 0.2705
v -0.18645 -0.44614 0.2705
v -0.18645 -0.51386 0.2705
v -0.15536 -0.56573 0.2705
v -0.10772 -0.57749 0.2705
v -0.06583 -0.54363 0.2705
v -0.02 -0.48 0.32
v -0.0434 -0.39001 0.32
v -0.10264 -0.34213 0.32
v -0.17 -0.35876 0.32
v -0.21397 -0.43212 0.32
v -0.21397 -0.52788 0.32
v -0.17 -0.60124 0.32
v -0.10264 -0.61787 0.32
v -0.0434 -0.56999 0.32
v -0.04929 -0.48 0.3695
v -0.06583 -0.41637 0.3695
v -0.10772 -0.38251 0.3695
v -0.15536 -0.39427 0.3695
v -0.18645 -0.44614 0.3695
v -0.18645 -0.51386 0.3695
v -0.15536 -0.56573 0.3695
v -0.10772 -0.57749 0.3695
v -0.06583 -0.54363 0.3695
v -0.12 -0.48 0.39
v -0.12 -0.48 0.39
v -0.12 -0.48 0.39
v -0.12 -0.48 0.39
v -0.12 -0.48 0.39
v -0.12 -0.48 0.39
v -0.12 -0.48 0.39
v -0.12 -0.48 0.39
v -0.12 -0.48 0.39
v 0.12 -0.48 0.25
v 0.12 -0.48 0.25
v 0.12 -0.48 0.25
v 0.12 -0.48 0.25
v 0.12 -0.48 0.25
v 0.12 -0.48 0.25
v 0.12 -0.48 0.25
v 0.12 -0.48 0.25
v 0.12 -0.48 0.25
v 0.19071 -0.48 0.2705
v 0.17417 -0.41637 0.2705
v 0.13228 -0.38251 0.2705
v 0.08464 -0.39427 0.2705
v 0.05355 -0.44614 0.2705
v 0.05355 -0.51386 0.2705
v 0.08464 -0.56573 0.2705
v 0.13228 -0.57749 0.2705
v 0.17417 -0.54363 0.2705
v 0.22 -0.48 0.32
v 0.1966 -0.39001 0.32
v 0.13736 -0.34213 0.32
v 0.07 -0.35876 0.32
v 0.02603 -0.43212 0.32
v 0.02603 -0.52788 0.32
v 0.07 -0.60124 0.32
v 0.13736 -0.61787 0.32
v 0.1966 -0.56999 0.32
v 0.19071 -0.48 0.3695
v 0.17417 -0.41637 0.3695
v 0.13228 -0.38251 0.3695
v 0.08464 -0.39427 0.3695
v 0.05355 -0.44614 0.3695
v 0.05355 -0.51386 0.3695
v 0.08464 -0.56573 0.3695
v 0.13228 -0.57749 0.3695
v 0.17417 -0.54363 0.3695
v 0.12 -0.48 0.39
v 0.12 -0.48 0.39
v 0.12 -0.48 0.39
v 0.12 -0.48 0.39
v 0.12 -0.48 0.39
v 0.12 -0.48 0.39
v 0.12 -0.48 0.39
v 0.12 -0.48 0.39
v 0.12 -0.48 0.39
v 0.36 -0.48 0.25
v 0.36 -0.48 0.25
v 0.36 -0.48 0.25
v 0.36 -0.48 0.25
v 0.36 -0.48 0.25
v 0.36 -0.48 0.25
v 0.36 -0.48 0.25
v 0.36 -0.48 0.25
v 0.36 -0.48 0.25
v 0.43071 -0.48 0.2705
v 0.41417 -0.41637 0.2705
v 0.37228 -0.38251 0.2705
v 0.32464 -0.39427 0.2705
v 0.29355 -0.44614 0.2705
v 0.29355 -0.51386 0.2705
v 0.32464 -0.56573 0.2705
v 0.37228 -0.57749 0.2705
v 0.41417 -0.54363 0.2705
v 0.46 -0.48 0.32
v 0.4366 -0.39001 0.32
v 0.37736 -0.34213 0.32
v 0.31 -0.35876 0.32
v 0.26603 -0.43212 0.32
v 0.26603 -0.52788 0.32
v 0.31 -0.60124 0.32
v 0.37736 -0.61787 0.32
v 0.4366 -0.56999 0.32
v 0.43071 -0.48 0.3695
v 0.41417 -0.41637 0.3695
v 0.37228 -0.38251 0.3695
v 0.32464 -0.39427 0.3695
v 0.29355 -0.44614 0.3695
v 0.29355 -0.51386 0.3695
v 0.32464 -0.56573 0.3695
v 0.37228 -0.57749 0.3695
v 0.41417 -0.54363 0.3695
v 0.36 -0.48 0.39
v 0.36 -0.48 0.39
v 0.36 -0.48 0.39
v 0.36 -0.48 0.39
v 0.36 -0.48 0.39
v 0.36 -0.48 0.39
v 0.36 -0.48 0.39
v 0.36 -0.48 0.39
v 0.36 -0.48 0.39
g Palm
usemtl SURVIVAL_FUR_DARK
f 1 2 16 15
f 2 3 17 16
f 3 4 18 17
f 4 5 19 18
f 5 6 20 19
f 6 7 21 20
f 7 8 22 21
f 8 9 23 22
f 9 10 24 23
f 10 11 25 24
f 11 12 26 25
f 12 13 27 26
f 13 14 28 27
f 14 1 15 28
f 15 16 30 29
f 16 17 31 30
f 17 18 32 31
f 18 19 33 32
f 19 20 34 33
f 20 21 35 34
f 21 22 36 35
f 22 23 37 36
f 23 24 38 37
f 24 25 39 38
f 25 26 40 39
f 26 27 41 40
f 27 28 42 41
f 28 15 29 42
f 29 30 44 43
f 30 31 45 44
f 31 32 46 45
f 32 33 47 46
f 33 34 48 47
f 34 35 49 48
f 35 36 50 49
f 36 37 51 50
f 37 38 52 51
f 38 39 53 52
f 39 40 54 53
f 40 41 55 54
f 41 42 56 55
f 42 29 43 56
f 43 44 58 57
f 44 45 59 58
f 45 46 60 59
f 46 47 61 60
f 47 48 62 61
f 48 49 63 62
f 49 50 64 63
f 50 51 65 64
f 51 52 66 65
f 52 53 67 66
f 53 54 68 67
f 54 55 69 68
f 55 56 70 69
f 56 43 57 70
f 57 58 72 71
f 58 59 73 72
f 59 60 74 73
f 60 61 75 74
f 61 62 76 75
f 62 63 77 76
f 63 64 78 77
f 64 65 79 78
f 65 66 80 79
f 66 67 81 80
f 67 68 82 81
f 68 69 83 82
f 69 70 84 83
f 70 57 71 84
f 71 72 86 85
f 72 73 87 86
f 73 74 88 87
f 74 75 89 88
f 75 76 90 89
f 76 77 91 90
f 77 78 92 91
f 78 79 93 92
f 79 80 94 93
f 80 81 95 94
f 81 82 96 95
f 82 83 97 96
f 83 84 98 97
f 84 71 85 98
f 85 86 100 99
f 86 87 101 100
f 87 88 102 101
f 88 89 103 102
f 89 90 104 103
f 90 91 105 104
f 91 92 106 105
f 92 93 107 106
f 93 94 108 107
f 94 95 109 108
f 95 96 110 109
f 96 97 111 110
f 97 98 112 111
f 98 85 99 112
f 99 100 114 113
f 100 101 115 114
f 101 102 116 115
f 102 103 117 116
f 103 104 118 117
f 104 105 119 118
f 105 106 120 119
f 106 107 121 120
f 107 108 122 121
f 108 109 123 122
f 109 110 124 123
f 110 111 125 124
f 111 112 126 125
f 112 99 113 126
g Digit0
usemtl SURVIVAL_FUR
f 127 128 137 136
f 128 129 138 137
f 129 130 139 138
f 130 131 140 139
f 131 132 141 140
f 132 133 142 141
f 133 134 143 142
f 134 135 144 143
f 135 127 136 144
g Claw0
usemtl SURVIVAL_BONE
f 145 146 155 154
f 146 147 156 155
f 147 148 157 156
f 148 149 158 157
f 149 150 159 158
f 150 151 160 159
f 151 152 161 160
f 152 153 162 161
f 153 145 154 162
g Digit1
usemtl SURVIVAL_FUR
f 163 164 173 172
f 164 165 174 173
f 165 166 175 174
f 166 167 176 175
f 167 168 177 176
f 168 169 178 177
f 169 170 179 178
f 170 171 180 179
f 171 163 172 180
g Claw1
usemtl SURVIVAL_BONE
f 181 182 191 190
f 182 183 192 191
f 183 184 193 192
f 184 185 194 193
f 185 186 195 194
f 186 187 196 195
f 187 188 197 196
f 188 189 198 197
f 189 181 190 198
g Digit2
usemtl SURVIVAL_FUR
f 199 200 209 208
f 200 201 210 209
f 201 202 211 210
f 202 203 212 211
f 203 204 213 212
f 204 205 214 213
f 205 206 215 214
f 206 207 216 215
f 207 199 208 216
g Claw2
usemtl SURVIVAL_BONE
f 217 218 227 226
f 218 219 228 227
f 219 220 229 228
f 220 221 230 229
f 221 222 231 230
f 222 223 232 231
f 223 224 233 232
f 224 225 234 233
f 225 217 226 234
g Digit3
usemtl SURVIVAL_FUR
f 235 236 245 244
f 236 237 246 245
f 237 238 247 246
f 238 239 248 247
f 239 240 249 248
f 240 241 250 249
f 241 242 251 250
f 242 243 252 251
f 243 235 244 252
g Claw3
usemtl SURVIVAL_BONE
f 253 254 263 262
f 254 255 264 263
f 255 256 265 264
f 256 257 266 265
f 257 258 267 266
f 258 259 268 267
f 259 260 269 268
f 260 261 270 269
f 261 253 262 270
g ThumbDigit
usemtl SURVIVAL_FUR
f 271 272 281 280
f 272 273 282 281
f 273 274 283 282
f 274 275 284 283
f 275 276 285 284
f 276 277 286 285
f 277 278 287 286
f 278 279 288 287
f 279 271 280 288
g ThumbClaw
usemtl SURVIVAL_BONE
f 289 290 299 298
f 290 291 300 299
f 291 292 301 300
f 292 293 302 301
f 293 294 303 302
f 294 295 304 303
f 295 296 305 304
f 296 297 306 305
f 297 289 298 306
g PadCenter
usemtl SURVIVAL_PAD
f 307 308 320 319
f 308 309 321 320
f 309 310 322 321
f 310 311 323 322
f 311 312 324 323
f 312 313 325 324
f 313 314 326 325
f 314 315 327 326
f 315 316 328 327
f 316 317 329 328
f 317 318 330 329
f 318 307 319 330
f 319 320 332 331
f 320 321 333 332
f 321 322 334 333
f 322 323 335 334
f 323 324 336 335
f 324 325 337 336
f 325 326 338 337
f 326 327 339 338
f 327 328 340 339
f 328 329 341 340
f 329 330 342 341
f 330 319 331 342
f 331 332 344 343
f 332 333 345 344
f 333 334 346 345
f 334 335 347 346
f 335 336 348 347
f 336 337 349 348
f 337 338 350 349
f 338 339 351 350
f 339 340 352 351
f 340 341 353 352
f 341 342 354 353
f 342 331 343 354
f 343 344 356 355
f 344 345 357 356
f 345 346 358 357
f 346 347 359 358
f 347 348 360 359
f 348 349 361 360
f 349 350 362 361
f 350 351 363 362
f 351 352 364 363
f 352 353 365 364
f 353 354 366 365
f 354 343 355 366
f 355 356 368 367
f 356 357 369 368
f 357 358 370 369
f 358 359 371 370
f 359 360 372 371
f 360 361 373 372
f 361 362 374 373
f 362 363 375 374
f 363 364 376 375
f 364 365 377 376
f 365 366 378 377
f 366 355 367 378
g ToePad0
f 379 380 389 388
f 380 381 390 389
f 381 382 391 390
f 382 383 392 391
f 383 384 393 392
f 384 385 394 393
f 385 386 395 394
f 386 387 396 395
f 387 379 388 396
f 388 389 398 397
f 389 390 399 398
f 390 391 400 399
f 391 392 401 400
f 392 393 402 401
f 393 394 403 402
f 394 395 404 403
f 395 396 405 404
f 396 388 397 405
f 397 398 407 406
f 398 399 408 407
f 399 400 409 408
f 400 401 410 409
f 401 402 411 410
f 402 403 412 411
f 403 404 413 412
f 404 405 414 413
f 405 397 406 414
f 406 407 416 415
f 407 408 417 416
f 408 409 418 417
f 409 410 419 418
f 410 411 420 419
f 411 412 421 420
f 412 413 422 421
f 413 414 423 422
f 414 406 415 423
g ToePad1
f 424 425 434 433
f 425 426 435 434
f 426 427 436 435
f 427 428 437 436
f 428 429 438 437
f 429 430 439 438
f 430 431 440 439
f 431 432 441 440
f 432 424 433 441
f 433 434 443 442
f 434 435 444 443
f 435 436 445 444
f 436 437 446 445
f 437 438 447 446
f 438 439 448 447
f 439 440 449 448
f 440 441 450 449
f 441 433 442 450
f 442 443 452 451
f 443 444 453 452
f 444 445 454 453
f 445 446 455 454
f 446 447 456 455
f 447 448 457 456
f 448 449 458 457
f 449 450 459 458
f 450 442 451 459
f 451 452 461 460
f 452 453 462 461
f 453 454 463 462
f 454 455 464 463
f 455 456 465 464
f 456 457 466 465
f 457 458 467 466
f 458 459 468 467
f 459 451 460 468
g ToePad2
f 469 470 479 478
f 470 471 480 479
f 471 472 481 480
f 472 473 482 481
f 473 474 483 482
f 474 475 484 483
f 475 476 485 484
f 476 477 486 485
f 477 469 478 486
f 478 479 488 487
f 479 480 489 488
f 480 481 490 489
f 481 482 491 490
f 482 483 492 491
f 483 484 493 492
f 484 485 494 493
f 485 486 495 494
f 486 478 487 495
f 487 488 497 496
f 488 489 498 497
f 489 490 499 498
f 490 491 500 499
f 491 492 501 500
f 492 493 502 501
f 493 494 503 502
f 494 495 504 503
f 495 487 496 504
f 496 497 506 505
f 497 498 507 506
f 498 499 508 507
f 499 500 509 508
f 500 501 510 509
f 501 502 511 510
f 502 503 512 511
f 503 504 513 512
f 504 496 505 513
g ToePad3
f 514 515 524 523
f 515 516 525 524
f 516 517 526 525
f 517 518 527 526
f 518 519 528 527
f 519 520 529 528
f 520 521 530 529
f 521 522 531 530
f 522 514 523 531
f 523 524 533 532
f 524 525 534 533
f 525 526 535 534
f 526 527 536 535
f 527 528 537 536
f 528 529 538 537
f 529 530 539 538
f 530 531 540 539
f 531 523 532 540
f 532 533 542 541
f 533 534 543 542
f 534 535 544 543
f 535 536 545 544
f 536 537 546 545
f 537 538 547 546
f 538 539 548 547
f 539 540 549 548
f 540 532 541 549
f 541 542 551 550
f 542 543 552 551
f 543 544 553 552
f 544 545 554 553
f 545 546 555 554
f 546 547 556 555
f 547 548 557 556
f 548 549 558 557
f 549 541 550 558
