# grip_long - project-original survival modular asset
mtllib survival-combat-parts.mtl
o grip_long
v -0.2 0 -1.55
v -0.18019 -0.08678 -1.55
v -0.1247 -0.15637 -1.55
v -0.0445 -0.19499 -1.55
v 0.0445 -0.19499 -1.55
v 0.1247 -0.15637 -1.55
v 0.18019 -0.08678 -1.55
v 0.2 0 -1.55
v 0.18019 0.08678 -1.55
v 0.1247 0.15637 -1.55
v 0.0445 0.19499 -1.55
v -0.0445 0.19499 -1.55
v -0.1247 0.15637 -1.55
v -0.18019 0.08678 -1.55
v -0.2 0 0.05
v -0.18019 -0.08678 0.05
v -0.1247 -0.15637 0.05
v -0.0445 -0.19499 0.05
v 0.0445 -0.19499 0.05
v 0.1247 -0.15637 0.05
v 0.18019 -0.08678 0.05
v 0.2 0 0.05
v 0.18019 0.08678 0.05
v 0.1247 0.15637 0.05
v 0.0445 0.19499 0.05
v -0.0445 0.19499 0.05
v -0.1247 0.15637 0.05
v -0.18019 0.08678 0.05
v -0.2 -0.035 -1.4
v -0.19214 -0.02182 -1.42621
v -0.19019 0.00779 -1.43268
v -0.19564 0.03153 -1.41455
v -0.20436 0.03153 -1.38545
v -0.20981 0.00779 -1.36732
v -0.20786 -0.02182 -1.37379
v 0.2 -0.035 -1.28
v 0.20786 -0.02182 -1.30621
v 0.20981 0.00779 -1.31268
v 0.20436 0.03153 -1.29455
v 0.19564 0.03153 -1.26545
v 0.19019 0.00779 -1.24732
v 0.19214 -0.02182 -1.25379
v -0.2 -0.035 -1.2
v -0.19214 -0.02182 -1.22621
v -0.19019 0.00779 -1.23268
v -0.19564 0.03153 -1.21455
v -0.20436 0.03153 -1.18545
v -0.20981 0.00779 -1.16732
v -0.20786 -0.02182 -1.17379
v 0.2 -0.035 -1.08
v 0.20786 -0.02182 -1.10621
v 0.20981 0.00779 -1.11268
v 0.20436 0.03153 -1.09455
v 0.19564 0.03153 -1.06545
v 0.19019 0.00779 -1.04732
v 0.19214 -0.02182 -1.05379
v -0.2 -0.035 -1
v -0.19214 -0.02182 -1.02621
v -0.19019 0.00779 -1.03268
v -0.19564 0.03153 -1.01455
v -0.20436 0.03153 -0.98545
v -0.20981 0.00779 -0.96732
v -0.20786 -0.02182 -0.97379
v 0.2 -0.035 -0.88
v 0.20786 -0.02182 -0.90621
v 0.20981 0.00779 -0.91268
v 0.20436 0.03153 -0.89455
v 0.19564 0.03153 -0.86545
v 0.19019 0.00779 -0.84732
v 0.19214 -0.02182 -0.85379
v -0.2 -0.035 -0.8
v -0.19214 -0.02182 -0.82621
v -0.19019 0.00779 -0.83268
v -0.19564 0.03153 -0.81455
v -0.20436 0.03153 -0.78545
v -0.20981 0.00779 -0.76732
v -0.20786 -0.02182 -0.77379
v 0.2 -0.035 -0.68
v 0.20786 -0.02182 -0.70621
v 0.20981 0.00779 -0.71268
v 0.20436 0.03153 -0.69455
v 0.19564 0.03153 -0.66545
v 0.19019 0.00779 -0.64732
v 0.19214 -0.02182 -0.65379
v -0.2 -0.035 -0.6
v -0.19214 -0.02182 -0.62621
v -0.19019 0.00779 -0.63268
v -0.19564 0.03153 -0.61455
v -0.20436 0.03153 -0.58545
v -0.20981 0.00779 -0.56732
v -0.20786 -0.02182 -0.57379
v 0.2 -0.035 -0.48
v 0.20786 -0.02182 -0.50621
v 0.20981 0.00779 -0.51268
v 0.20436 0.03153 -0.49455
v 0.19564 0.03153 -0.46545
v 0.19019 0.00779 -0.44732
v 0.19214 -0.02182 -0.45379
v -0.2 -0.035 -0.4
v -0.19214 -0.02182 -0.42621
v -0.19019 0.00779 -0.43268
v -0.19564 0.03153 -0.41455
v -0.20436 0.03153 -0.38545
v -0.20981 0.00779 -0.36732
v -0.20786 -0.02182 -0.37379
v 0.2 -0.035 -0.28
v 0.20786 -0.02182 -0.30621
v 0.20981 0.00779 -0.31268
v 0.20436 0.03153 -0.29455
v 0.19564 0.03153 -0.26545
v 0.19019 0.00779 -0.24732
v 0.19214 -0.02182 -0.25379
v -0.2 -0.035 -0.2
v -0.19214 -0.02182 -0.22621
v -0.19019 0.00779 -0.23268
v -0.19564 0.03153 -0.21455
v -0.20436 0.03153 -0.18545
v -0.20981 0.00779 -0.16732
v -0.20786 -0.02182 -0.17379
v 0.2 -0.035 -0.08
v 0.20786 -0.02182 -0.10621
v 0.20981 0.00779 -0.11268
v 0.20436 0.03153 -0.09455
v 0.19564 0.03153 -0.06545
v 0.19019 0.00779 -0.04732
v 0.19214 -0.02182 -0.05379
v -0.2 -0.035 0
v -0.19214 -0.02182 -0.02621
v -0.19019 0.00779 -0.03268
v -0.19564 0.03153 -0.01455
v -0.20436 0.03153 0.01455
v -0.20981 0.00779 0.03268
v -0.20786 -0.02182 0.02621
v 0.2 -0.035 0.12
v 0.20786 -0.02182 0.09379
v 0.20981 0.00779 0.08732
v 0.20436 0.03153 0.10545
v 0.19564 0.03153 0.13455
v 0.19019 0.00779 0.15268
v 0.19214 -0.02182 0.14621
v 0 0 -2.1
v 0 0 -2.1
v 0 0 -2.1
v 0 0 -2.1
v 0 0 -2.1
v 0 0 -2.1
v 0 0 -2.1
v 0 0 -2.1
v 0 0 -2.1
v 0 0 -2.1
v 0 0 -2.1
v 0 0 -2.1
v 0 0 -2.1
v 0 0 -2.1
v 0.13017 0 -2.07227
v 0.11727 0.05648 -2.07227
v 0.08116 0.10177 -2.07227
v 0.02896 0.1269 -2.07227
v -0.02896 0.1269 -2.07227
v -0.08116 0.10177 -2.07227
v -0.11727 0.05648 -2.07227
v -0.13017 0 -2.07227
v -0.11727 -0.05648 -2.07227
v -0.08116 -0.10177 -2.07227
v -0.02896 -0.1269 -2.07227
v 0.02896 -0.1269 -2.07227
v 0.08116 -0.10177 -2.07227
v 0.11727 -0.05648 -2.07227
v 0.23455 0 -1.99458
v 0.21132 0.10177 -1.99458
v 0.14624 0.18338 -1.99458
v 0.05219 0.22867 -1.99458
v -0.05219 0.22867 -1.99458
v -0.14624 0.18338 -1.99458
v -0.21132 0.10177 -1.99458
v -0.23455 0 -1.99458
v -0.21132 -0.10177 -1.99458
v -0.14624 -0.18338 -1.99458
v -0.05219 -0.22867 -1.99458
v 0.05219 -0.22867 -1.99458
v 0.14624 -0.18338 -1.99458
v 0.21132 -0.10177 -1.99458
v 0.29248 0 -1.88231
v 0.26351 0.1269 -1.88231
v 0.18236 0.22867 -1.88231
v 0.06508 0.28515 -1.88231
v -0.06508 0.28515 -1.88231
v -0.18236 0.22867 -1.88231
v -0.26351 0.1269 -1.88231
v -0.29248 0 -1.88231
v -0.26351 -0.1269 -1.88231
v -0.18236 -0.22867 -1.88231
v -0.06508 -0.28515 -1.88231
v 0.06508 -0.28515 -1.88231
v 0.18236 -0.22867 -1.88231
v 0.26351 -0.1269 -1.88231
v 0.29248 0 -1.75769
v 0.26351 0.1269 -1.75769
v 0.18236 0.22867 -1.75769
v 0.06508 0.28515 -1.75769
v -0.06508 0.28515 -1.75769
v -0.18236 0.22867 -1.75769
v -0.26351 0.1269 -1.75769
v -0.29248 0 -1.75769
v -0.26351 -0.1269 -1.75769
v -0.18236 -0.22867 -1.75769
v -0.06508 -0.28515 -1.75769
v 0.06508 -0.28515 -1.75769
v 0.18236 -0.22867 -1.75769
v 0.26351 -0.1269 -1.75769
v 0.23455 0 -1.64542
v 0.21132 0.10177 -1.64542
v 0.14624 0.18338 -1.64542
v 0.05219 0.22867 -1.64542
v -0.05219 0.22867 -1.64542
v -0.14624 0.18338 -1.64542
v -0.21132 0.10177 -1.64542
v -0.23455 0 -1.64542
v -0.21132 -0.10177 -1.64542
v -0.14624 -0.18338 -1.64542
v -0.05219 -0.22867 -1.64542
v 0.05219 -0.22867 -1.64542
v 0.14624 -0.18338 -1.64542
v 0.21132 -0.10177 -1.64542
v 0.13017 0 -1.56773
v 0.11727 0.05648 -1.56773
v 0.08116 0.10177 -1.56773
v 0.02896 0.1269 -1.56773
v -0.02896 0.1269 -1.56773
v -0.08116 0.10177 -1.56773
v -0.11727 0.05648 -1.56773
v -0.13017 0 -1.56773
v -0.11727 -0.05648 -1.56773
v -0.08116 -0.10177 -1.56773
v -0.02896 -0.1269 -1.56773
v 0.02896 -0.1269 -1.56773
v 0.08116 -0.10177 -1.56773
v 0.11727 -0.05648 -1.56773
v 0 0 -1.54
v 0 0 -1.54
v 0 0 -1.54
v 0 0 -1.54
v 0 0 -1.54
v 0 0 -1.54
v 0 0 -1.54
v 0 0 -1.54
v 0 0 -1.54
v 0 0 -1.54
v 0 0 -1.54
v 0 0 -1.54
v 0 0 -1.54
v 0 0 -1.54
v 0 0 -2.26
v 0 0 -2.26
v 0 0 -2.26
v 0 0 -2.26
v 0 0 -2.26
v 0 0 -2.26
v 0 0 -2.26
v 0 0 -2.26
v 0 0 -2.26
v 0 0 -2.26
v 0 0 -2.26
v 0 0 -2.26
v 0.09 0 -2.23588
v 0.07794 0.045 -2.23588
v 0.045 0.07794 -2.23588
v 0 0.09 -2.23588
v -0.045 0.07794 -2.23588
v -0.07794 0.045 -2.23588
v -0.09 0 -2.23588
v -0.07794 -0.045 -2.23588
v -0.045 -0.07794 -2.23588
v 0 -0.09 -2.23588
v 0.045 -0.07794 -2.23588
v 0.07794 -0.045 -2.23588
v 0.15588 0 -2.17
v 0.135 0.07794 -2.17
v 0.07794 0.135 -2.17
v 0 0.15588 -2.17
v -0.07794 0.135 -2.17
v -0.135 0.07794 -2.17
v -0.15588 0 -2.17
v -0.135 -0.07794 -2.17
v -0.07794 -0.135 -2.17
v 0 -0.15588 -2.17
v 0.07794 -0.135 -2.17
v 0.135 -0.07794 -2.17
v 0.18 0 -2.08
v 0.15588 0.09 -2.08
v 0.09 0.15588 -2.08
v 0 0.18 -2.08
v -0.09 0.15588 -2.08
v -0.15588 0.09 -2.08
v -0.18 0 -2.08
v -0.15588 -0.09 -2.08
v -0.09 -0.15588 -2.08
v 0 -0.18 -2.08
v 0.09 -0.15588 -2.08
v 0.15588 -0.09 -2.08
v 0.15588 0 -1.99
v 0.135 0.07794 -1.99
v 0.07794 0.135 -1.99
v 0 0.15588 -1.99
v -0.07794 0.135 -1.99
v -0.135 0.07794 -1.99
v -0.15588 0 -1.99
v -0.135 -0.07794 -1.99
v -0.07794 -0.135 -1.99
v 0 -0.15588 -1.99
v 0.07794 -0.135 -1.99
v 0.135 -0.07794 -1.99
v 0.09 0 -1.92412
v 0.07794 0.045 -1.92412
v 0.045 0.07794 -1.92412
v 0 0.09 -1.92412
v -0.045 0.07794 -1.92412
v -0.07794 0.045 -1.92412
v -0.09 0 -1.92412
v -0.07794 -0.045 -1.92412
v -0.045 -0.07794 -1.92412
v 0 -0.09 -1.92412
v 0.045 -0.07794 -1.92412
v 0.07794 -0.045 -1.92412
v 0 0 -1.9
v 0 0 -1.9
v 0 0 -1.9
v 0 0 -1.9
v 0 0 -1.9
v 0 0 -1.9
v 0 0 -1.9
v 0 0 -1.9
v 0 0 -1.9
v 0 0 -1.9
v 0 0 -1.9
v 0 0 -1.9
v -0.24 -0.17 -0.21
v 0.24 -0.17 -0.21
v 0.24 0.17 -0.21
v -0.24 0.17 -0.21
v -0.24 -0.17 0.05
v 0.24 -0.17 0.05
v 0.24 0.17 0.05
v -0.24 0.17 0.05
g GripCore
usemtl SURVIVAL_LEATHER
f 1 2 16 15
f 2 3 17 16
f 3 4 18 17
f 4 5 19 18
f 5 6 20 19
f 6 7 21 20
f 7 8 22 21
f 8 9 23 22
f 9 10 24 23
f 10 11 25 24
f 11 12 26 25
f 12 13 27 26
f 13 14 28 27
f 14 1 15 28
g Wrap0
usemtl SURVIVAL_LEATHER_LIGHT
f 29 30 37 36
f 30 31 38 37
f 31 32 39 38
f 32 33 40 39
f 33 34 41 40
f 34 35 42 41
f 35 29 36 42
g Wrap1
f 43 44 51 50
f 44 45 52 51
f 45 46 53 52
f 46 47 54 53
f 47 48 55 54
f 48 49 56 55
f 49 43 50 56
g Wrap2
f 57 58 65 64
f 58 59 66 65
f 59 60 67 66
f 60 61 68 67
f 61 62 69 68
f 62 63 70 69
f 63 57 64 70
g Wrap3
f 71 72 79 78
f 72 73 80 79
f 73 74 81 80
f 74 75 82 81
f 75 76 83 82
f 76 77 84 83
f 77 71 78 84
g Wrap4
f 85 86 93 92
f 86 87 94 93
f 87 88 95 94
f 88 89 96 95
f 89 90 97 96
f 90 91 98 97
f 91 85 92 98
g Wrap5
f 99 100 107 106
f 100 101 108 107
f 101 102 109 108
f 102 103 110 109
f 103 104 111 110
f 104 105 112 111
f 105 99 106 112
g Wrap6
f 113 114 121 120
f 114 115 122 121
f 115 116 123 122
f 116 117 124 123
f 117 118 125 124
f 118 119 126 125
f 119 113 120 126
g Wrap7
f 127 128 135 134
f 128 129 136 135
f 129 130 137 136
f 130 131 138 137
f 131 132 139 138
f 132 133 140 139
f 133 127 134 140
g Pommel
usemtl SURVIVAL_METAL_DARK
f 141 142 156 155
f 142 143 157 156
f 143 144 158 157
f 144 145 159 158
f 145 146 160 159
f 146 147 161 160
f 147 148 162 161
f 148 149 163 162
f 149 150 164 163
f 150 151 165 164
f 151 152 166 165
f 152 153 167 166
f 153 154 168 167
f 154 141 155 168
f 155 156 170 169
f 156 157 171 170
f 157 158 172 171
f 158 159 173 172
f 159 160 174 173
f 160 161 175 174
f 161 162 176 175
f 162 163 177 176
f 163 164 178 177
f 164 165 179 178
f 165 166 180 179
f 166 167 181 180
f 167 168 182 181
f 168 155 169 182
f 169 170 184 183
f 170 171 185 184
f 171 172 186 185
f 172 173 187 186
f 173 174 188 187
f 174 175 189 188
f 175 176 190 189
f 176 177 191 190
f 177 178 192 191
f 178 179 193 192
f 179 180 194 193
f 180 181 195 194
f 181 182 196 195
f 182 169 183 196
f 183 184 198 197
f 184 185 199 198
f 185 186 200 199
f 186 187 201 200
f 187 188 202 201
f 188 189 203 202
f 189 190 204 203
f 190 191 205 204
f 191 192 206 205
f 192 193 207 206
f 193 194 208 207
f 194 195 209 208
f 195 196 210 209
f 196 183 197 210
f 197 198 212 211
f 198 199 213 212
f 199 200 214 213
f 200 201 215 214
f 201 202 216 215
f 202 203 217 216
f 203 204 218 217
f 204 205 219 218
f 205 206 220 219
f 206 207 221 220
f 207 208 222 221
f 208 209 223 222
f 209 210 224 223
f 210 197 211 224
f 211 212 226 225
f 212 213 227 226
f 213 214 228 227
f 214 215 229 228
f 215 216 230 229
f 216 217 231 230
f 217 218 232 231
f 218 219 233 232
f 219 220 234 233
f 220 221 235 234
f 221 222 236 235
f 222 223 237 236
f 223 224 238 237
f 224 211 225 238
f 225 226 240 239
f 226 227 241 240
f 227 228 242 241
f 228 229 243 242
f 229 230 244 243
f 230 231 245 244
f 231 232 246 245
f 232 233 247 246
f 233 234 248 247
f 234 235 249 248
f 235 236 250 249
f 236 237 251 250
f 237 238 252 251
f 238 225 239 252
g PommelCap
usemtl SURVIVAL_METAL_LIGHT
f 253 254 266 265
f 254 255 267 266
f 255 256 268 267
f 256 257 269 268
f 257 258 270 269
f 258 259 271 270
f 259 260 272 271
f 260 261 273 272
f 261 262 274 273
f 262 263 275 274
f 263 264 276 275
f 264 253 265 276
f 265 266 278 277
f 266 267 279 278
f 267 268 280 279
f 268 269 281 280
f 269 270 282 281
f 270 271 283 282
f 271 272 284 283
f 272 273 285 284
f 273 274 286 285
f 274 275 287 286
f 275 276 288 287
f 276 265 277 288
f 277 278 290 289
f 278 279 291 290
f 279 280 292 291
f 280 281 293 292
f 281 282 294 293
f 282 283 295 294
f 283 284 296 295
f 284 285 297 296
f 285 286 298 297
f 286 287 299 298
f 287 288 300 299
f 288 277 289 300
f 289 290 302 301
f 290 291 303 302
f 291 292 304 303
f 292 293 305 304
f 293 294 306 305
f 294 295 307 306
f 295 296 308 307
f 296 297 309 308
f 297 298 310 309
f 298 299 311 310
f 299 300 312 311
f 300 289 301 312
f 301 302 314 313
f 302 303 315 314
f 303 304 316 315
f 304 305 317 316
f 305 306 318 317
f 306 307 319 318
f 307 308 320 319
f 308 309 321 320
f 309 310 322 321
f 310 311 323 322
f 311 312 324 323
f 312 301 313 324
f 313 314 326 325
f 314 315 327 326
f 315 316 328 327
f 316 317 329 328
f 317 318 330 329
f 318 319 331 330
f 319 320 332 331
f 320 321 333 332
f 321 322 334 333
f 322 323 335 334
f 323 324 336 335
f 324 313 325 336
g UpperCollar
usemtl SURVIVAL_METAL
f 337 338 339 340
f 341 344 343 342
f 337 341 342 338
f 338 342 343 339
f 339 343 344 340
f 341 337 340 344
