# guard_cross - project-original survival modular asset
mtllib survival-combat-parts.mtl
o guard_cross
v -1.125 -0.14 -0.12
v 1.125 -0.14 -0.12
v 1.125 0.14 -0.12
v -1.125 0.14 -0.12
v -1.125 -0.14 0.12
v 1.125 -0.14 0.12
v 1.125 0.14 0.12
v -1.125 0.14 0.12
v 0 0 -0.32
v 0 0 -0.32
v 0 0 -0.32
v 0 0 -0.32
v 0 0 -0.32
v 0 0 -0.32
v 0 0 -0.32
v 0 0 -0.32
v 0 0 -0.32
v 0 0 -0.32
v 0 0 -0.32
v 0 0 -0.32
v 0 0 -0.32
v 0 0 -0.32
v 0.1562 0 -0.28831
v 0.14073 0.04518 -0.28831
v 0.09739 0.08141 -0.28831
v 0.03476 0.10152 -0.28831
v -0.03476 0.10152 -0.28831
v -0.09739 0.08141 -0.28831
v -0.14073 0.04518 -0.28831
v -0.1562 0 -0.28831
v -0.14073 -0.04518 -0.28831
v -0.09739 -0.08141 -0.28831
v -0.03476 -0.10152 -0.28831
v 0.03476 -0.10152 -0.28831
v 0.09739 -0.08141 -0.28831
v 0.14073 -0.04518 -0.28831
v 0.28146 0 -0.19952
v 0.25359 0.08141 -0.19952
v 0.17549 0.1467 -0.19952
v 0.06263 0.18294 -0.19952
v -0.06263 0.18294 -0.19952
v -0.17549 0.1467 -0.19952
v -0.25359 0.08141 -0.19952
v -0.28146 0 -0.19952
v -0.25359 -0.08141 -0.19952
v -0.17549 -0.1467 -0.19952
v -0.06263 -0.18294 -0.19952
v 0.06263 -0.18294 -0.19952
v 0.17549 -0.1467 -0.19952
v 0.25359 -0.08141 -0.19952
v 0.35097 0 -0.07121
v 0.31622 0.10152 -0.07121
v 0.21883 0.18294 -0.07121
v 0.0781 0.22812 -0.07121
v -0.0781 0.22812 -0.07121
v -0.21883 0.18294 -0.07121
v -0.31622 0.10152 -0.07121
v -0.35097 0 -0.07121
v -0.31622 -0.10152 -0.07121
v -0.21883 -0.18294 -0.07121
v -0.0781 -0.22812 -0.07121
v 0.0781 -0.22812 -0.07121
v 0.21883 -0.18294 -0.07121
v 0.31622 -0.10152 -0.07121
v 0.35097 0 0.07121
v 0.31622 0.10152 0.07121
v 0.21883 0.18294 0.07121
v 0.0781 0.22812 0.07121
v -0.0781 0.22812 0.07121
v -0.21883 0.18294 0.07121
v -0.31622 0.10152 0.07121
v -0.35097 0 0.07121
v -0.31622 -0.10152 0.07121
v -0.21883 -0.18294 0.07121
v -0.0781 -0.22812 0.07121
v 0.0781 -0.22812 0.07121
v 0.21883 -0.18294 0.07121
v 0.31622 -0.10152 0.07121
v 0.28146 0 0.19952
v 0.25359 0.08141 0.19952
v 0.17549 0.1467 0.19952
v 0.06263 0.18294 0.19952
v -0.06263 0.18294 0.19952
v -0.17549 0.1467 0.19952
v -0.25359 0.08141 0.19952
v -0.28146 0 0.19952
v -0.25359 -0.08141 0.19952
v -0.17549 -0.1467 0.19952
v -0.06263 -0.18294 0.19952
v 0.06263 -0.18294 0.19952
v 0.17549 -0.1467 0.19952
v 0.25359 -0.08141 0.19952
v 0.1562 0 0.28831
v 0.14073 0.04518 0.28831
v 0.09739 0.08141 0.28831
v 0.03476 0.10152 0.28831
v -0.03476 0.10152 0.28831
v -0.09739 0.08141 0.28831
v -0.14073 0.04518 0.28831
v -0.1562 0 0.28831
v -0.14073 -0.04518 0.28831
v -0.09739 -0.08141 0.28831
v -0.03476 -0.10152 0.28831
v 0.03476 -0.10152 0.28831
v 0.09739 -0.08141 0.28831
v 0.14073 -0.04518 0.28831
v 0 0 0.32
v 0 0 0.32
v 0 0 0.32
v 0 0 0.32
v 0 0 0.32
v 0 0 0.32
v 0 0 0.32
v 0 0 0.32
v 0 0 0.32
v 0 0 0.32
v 0 0 0.32
v 0 0 0.32
v 0 0 0.32
v 0 0 0.32
v -0.35 0.16 0.02
v -0.37302 0.12944 -0.07119
v -0.38724 0.04944 -0.12754
v -0.38724 -0.04944 -0.12754
v -0.37302 -0.12944 -0.07119
v -0.35 -0.16 0.02
v -0.32698 -0.12944 0.11119
v -0.31276 -0.04944 0.16754
v -0.31276 0.04944 0.16754
v -0.32698 0.12944 0.11119
v -1.38 0.08 0.28
v -1.39151 0.06472 0.23441
v -1.39862 0.02472 0.20623
v -1.39862 -0.02472 0.20623
v -1.39151 -0.06472 0.23441
v -1.38 -0.08 0.28
v -1.36849 -0.06472 0.32559
v -1.36138 -0.02472 0.35377
v -1.36138 0.02472 0.35377
v -1.36849 0.06472 0.32559
v -1.38 0.08 0.28
v -1.41636 0.06128 0.24364
v -1.43571 0.01389 0.22429
v -1.42899 -0.04 0.23101
v -1.39935 -0.07518 0.26065
v -1.36065 -0.07518 0.29935
v -1.33101 -0.04 0.32899
v -1.32429 0.01389 0.33571
v -1.34364 0.06128 0.31636
v -1.58 0.03 0.48
v -1.59364 0.02298 0.46636
v -1.60089 0.00521 0.45911
v -1.59837 -0.015 0.46163
v -1.58726 -0.02819 0.47274
v -1.57274 -0.02819 0.48726
v -1.56163 -0.015 0.49837
v -1.55911 0.00521 0.50089
v -1.56636 0.02298 0.49364
v 0.35 -0.16 0.02
v 0.37302 -0.12944 -0.07119
v 0.38724 -0.04944 -0.12754
v 0.38724 0.04944 -0.12754
v 0.37302 0.12944 -0.07119
v 0.35 0.16 0.02
v 0.32698 0.12944 0.11119
v 0.31276 0.04944 0.16754
v 0.31276 -0.04944 0.16754
v 0.32698 -0.12944 0.11119
v 1.38 -0.08 0.28
v 1.39151 -0.06472 0.23441
v 1.39862 -0.02472 0.20623
v 1.39862 0.02472 0.20623
v 1.39151 0.06472 0.23441
v 1.38 0.08 0.28
v 1.36849 0.06472 0.32559
v 1.36138 0.02472 0.35377
v 1.36138 -0.02472 0.35377
v 1.36849 -0.06472 0.32559
v 1.38 -0.08 0.28
v 1.41636 -0.06128 0.24364
v 1.43571 -0.01389 0.22429
v 1.42899 0.04 0.23101
v 1.39935 0.07518 0.26065
v 1.36065 0.07518 0.29935
v 1.33101 0.04 0.32899
v 1.32429 -0.01389 0.33571
v 1.34364 -0.06128 0.31636
v 1.58 -0.03 0.48
v 1.59364 -0.02298 0.46636
v 1.60089 -0.00521 0.45911
v 1.59837 0.015 0.46163
v 1.58726 0.02819 0.47274
v 1.57274 0.02819 0.48726
v 1.56163 0.015 0.49837
v 1.55911 -0.00521 0.50089
v 1.56636 -0.02298 0.49364
v -0.15 -0.205 -0.06
v 0.15 -0.205 -0.06
v 0.15 -0.155 -0.06
v -0.15 -0.155 -0.06
v -0.15 -0.205 0.42
v 0.15 -0.205 0.42
v 0.15 -0.155 0.42
v -0.15 -0.155 0.42
g GuardCore
usemtl SURVIVAL_METAL_DARK
f 1 2 3 4
f 5 8 7 6
f 1 5 6 2
f 2 6 7 3
f 3 7 8 4
f 5 1 4 8
g CenterCollar
usemtl SURVIVAL_METAL
f 9 10 24 23
f 10 11 25 24
f 11 12 26 25
f 12 13 27 26
f 13 14 28 27
f 14 15 29 28
f 15 16 30 29
f 16 17 31 30
f 17 18 32 31
f 18 19 33 32
f 19 20 34 33
f 20 21 35 34
f 21 22 36 35
f 22 9 23 36
f 23 24 38 37
f 24 25 39 38
f 25 26 40 39
f 26 27 41 40
f 27 28 42 41
f 28 29 43 42
f 29 30 44 43
f 30 31 45 44
f 31 32 46 45
f 32 33 47 46
f 33 34 48 47
f 34 35 49 48
f 35 36 50 49
f 36 23 37 50
f 37 38 52 51
f 38 39 53 52
f 39 40 54 53
f 40 41 55 54
f 41 42 56 55
f 42 43 57 56
f 43 44 58 57
f 44 45 59 58
f 45 46 60 59
f 46 47 61 60
f 47 48 62 61
f 48 49 63 62
f 49 50 64 63
f 50 37 51 64
f 51 52 66 65
f 52 53 67 66
f 53 54 68 67
f 54 55 69 68
f 55 56 70 69
f 56 57 71 70
f 57 58 72 71
f 58 59 73 72
f 59 60 74 73
f 60 61 75 74
f 61 62 76 75
f 62 63 77 76
f 63 64 78 77
f 64 51 65 78
f 65 66 80 79
f 66 67 81 80
f 67 68 82 81
f 68 69 83 82
f 69 70 84 83
f 70 71 85 84
f 71 72 86 85
f 72 73 87 86
f 73 74 88 87
f 74 75 89 88
f 75 76 90 89
f 76 77 91 90
f 77 78 92 91
f 78 65 79 92
f 79 80 94 93
f 80 81 95 94
f 81 82 96 95
f 82 83 97 96
f 83 84 98 97
f 84 85 99 98
f 85 86 100 99
f 86 87 101 100
f 87 88 102 101
f 88 89 103 102
f 89 90 104 103
f 90 91 105 104
f 91 92 106 105
f 92 79 93 106
f 93 94 108 107
f 94 95 109 108
f 95 96 110 109
f 96 97 111 110
f 97 98 112 111
f 98 99 113 112
f 99 100 114 113
f 100 101 115 114
f 101 102 116 115
f 102 103 117 116
f 103 104 118 117
f 104 105 119 118
f 105 106 120 119
f 106 93 107 120
g Quillon-1
f 121 122 132 131
f 122 123 133 132
f 123 124 134 133
f 124 125 135 134
f 125 126 136 135
f 126 127 137 136
f 127 128 138 137
f 128 129 139 138
f 129 130 140 139
f 130 121 131 140
g QuillonTip-1
usemtl SURVIVAL_METAL_LIGHT
f 141 142 151 150
f 142 143 152 151
f 143 144 153 152
f 144 145 154 153
f 145 146 155 154
f 146 147 156 155
f 147 148 157 156
f 148 149 158 157
f 149 141 150 158
g Quillon1
usemtl SURVIVAL_METAL
f 159 160 170 169
f 160 161 171 170
f 161 162 172 171
f 162 163 173 172
f 163 164 174 173
f 164 165 175 174
f 165 166 176 175
f 166 167 177 176
f 167 168 178 177
f 168 159 169 178
g QuillonTip1
usemtl SURVIVAL_METAL_LIGHT
f 179 180 189 188
f 180 181 190 189
f 181 182 191 190
f 182 183 192 191
f 183 184 193 192
f 184 185 194 193
f 185 186 195 194
f 186 187 196 195
f 187 179 188 196
g BladeSlot
usemtl SURVIVAL_METAL_DARK
f 197 198 199 200
f 201 204 203 202
f 197 201 202 198
f 198 202 203 199
f 199 203 204 200
f 201 197 200 204
