# jaw_long - project-original survival modular asset
mtllib survival-combat-parts.mtl
o jaw_long
v 0 0 0.11
v 0 0 0.11
v 0 0 0.11
v 0 0 0.11
v 0 0 0.11
v 0 0 0.11
v 0 0 0.11
v 0 0 0.11
v 0 0 0.11
v 0 0 0.11
v 0 0 0.11
v 0 0 0.11
v 0 0 0.11
v 0 0 0.11
v 0.25165 0 0.14367
v 0.22673 0.15437 0.14367
v 0.1569 0.27816 0.14367
v 0.056 0.34686 0.14367
v -0.056 0.34686 0.14367
v -0.1569 0.27816 0.14367
v -0.22673 0.15437 0.14367
v -0.25165 0 0.14367
v -0.22673 -0.15437 0.14367
v -0.1569 -0.27816 0.14367
v -0.056 -0.34686 0.14367
v 0.056 -0.34686 0.14367
v 0.1569 -0.27816 0.14367
v 0.22673 -0.15437 0.14367
v 0.45346 0 0.23801
v 0.40856 0.27816 0.23801
v 0.28273 0.50123 0.23801
v 0.1009 0.62503 0.23801
v -0.1009 0.62503 0.23801
v -0.28273 0.50123 0.23801
v -0.40856 0.27816 0.23801
v -0.45346 0 0.23801
v -0.40856 -0.27816 0.23801
v -0.28273 -0.50123 0.23801
v -0.1009 -0.62503 0.23801
v 0.1009 -0.62503 0.23801
v 0.28273 -0.50123 0.23801
v 0.40856 -0.27816 0.23801
v 0.56546 0 0.37434
v 0.50946 0.34686 0.37434
v 0.35256 0.62503 0.37434
v 0.12583 0.7794 0.37434
v -0.12583 0.7794 0.37434
v -0.35256 0.62503 0.37434
v -0.50946 0.34686 0.37434
v -0.56546 0 0.37434
v -0.50946 -0.34686 0.37434
v -0.35256 -0.62503 0.37434
v -0.12583 -0.7794 0.37434
v 0.12583 -0.7794 0.37434
v 0.35256 -0.62503 0.37434
v 0.50946 -0.34686 0.37434
v 0.56546 0 0.52566
v 0.50946 0.34686 0.52566
v 0.35256 0.62503 0.52566
v 0.12583 0.7794 0.52566
v -0.12583 0.7794 0.52566
v -0.35256 0.62503 0.52566
v -0.50946 0.34686 0.52566
v -0.56546 0 0.52566
v -0.50946 -0.34686 0.52566
v -0.35256 -0.62503 0.52566
v -0.12583 -0.7794 0.52566
v 0.12583 -0.7794 0.52566
v 0.35256 -0.62503 0.52566
v 0.50946 -0.34686 0.52566
v 0.45346 0 0.66199
v 0.40856 0.27816 0.66199
v 0.28273 0.50123 0.66199
v 0.1009 0.62503 0.66199
v -0.1009 0.62503 0.66199
v -0.28273 0.50123 0.66199
v -0.40856 0.27816 0.66199
v -0.45346 0 0.66199
v -0.40856 -0.27816 0.66199
v -0.28273 -0.50123 0.66199
v -0.1009 -0.62503 0.66199
v 0.1009 -0.62503 0.66199
v 0.28273 -0.50123 0.66199
v 0.40856 -0.27816 0.66199
v 0.25165 0 0.75633
v 0.22673 0.15437 0.75633
v 0.1569 0.27816 0.75633
v 0.056 0.34686 0.75633
v -0.056 0.34686 0.75633
v -0.1569 0.27816 0.75633
v -0.22673 0.15437 0.75633
v -0.25165 0 0.75633
v -0.22673 -0.15437 0.75633
v -0.1569 -0.27816 0.75633
v -0.056 -0.34686 0.75633
v 0.056 -0.34686 0.75633
v 0.1569 -0.27816 0.75633
v 0.22673 -0.15437 0.75633
v 0 0 0.79
v 0 0 0.79
v 0 0 0.79
v 0 0 0.79
v 0 0 0.79
v 0 0 0.79
v 0 0 0.79
v 0 0 0.79
v 0 0 0.79
v 0 0 0.79
v 0 0 0.79
v 0 0 0.79
v 0 0 0.79
v 0 0 0.79
v -0.45 -1.15 0.37
v 0.45 -1.15 0.37
v 0.45 0.05 0.37
v -0.45 0.05 0.37
v -0.45 -1.15 0.67
v 0.45 -1.15 0.67
v 0.45 0.05 0.67
v -0.45 0.05 0.67
v 0 -1.2 0.14
v 0 -1.2 0.14
v 0 -1.2 0.14
v 0 -1.2 0.14
v 0 -1.2 0.14
v 0 -1.2 0.14
v 0 -1.2 0.14
v 0 -1.2 0.14
v 0 -1.2 0.14
v 0 -1.2 0.14
v 0 -1.2 0.14
v 0 -1.2 0.14
v 0.23 -1.2 0.17751
v 0.19919 -1.075 0.17751
v 0.115 -0.98349 0.17751
v 0 -0.95 0.17751
v -0.115 -0.98349 0.17751
v -0.19919 -1.075 0.17751
v -0.23 -1.2 0.17751
v -0.19919 -1.325 0.17751
v -0.115 -1.41651 0.17751
v 0 -1.45 0.17751
v 0.115 -1.41651 0.17751
v 0.19919 -1.325 0.17751
v 0.39837 -1.2 0.28
v 0.345 -0.98349 0.28
v 0.19919 -0.825 0.28
v 0 -0.76699 0.28
v -0.19919 -0.825 0.28
v -0.345 -0.98349 0.28
v -0.39837 -1.2 0.28
v -0.345 -1.41651 0.28
v -0.19919 -1.575 0.28
v 0 -1.63301 0.28
v 0.19919 -1.575 0.28
v 0.345 -1.41651 0.28
v 0.46 -1.2 0.42
v 0.39837 -0.95 0.42
v 0.23 -0.76699 0.42
v 0 -0.7 0.42
v -0.23 -0.76699 0.42
v -0.39837 -0.95 0.42
v -0.46 -1.2 0.42
v -0.39837 -1.45 0.42
v -0.23 -1.63301 0.42
v 0 -1.7 0.42
v 0.23 -1.63301 0.42
v 0.39837 -1.45 0.42
v 0.39837 -1.2 0.56
v 0.345 -0.98349 0.56
v 0.19919 -0.825 0.56
v 0 -0.76699 0.56
v -0.19919 -0.825 0.56
v -0.345 -0.98349 0.56
v -0.39837 -1.2 0.56
v -0.345 -1.41651 0.56
v -0.19919 -1.575 0.56
v 0 -1.63301 0.56
v 0.19919 -1.575 0.56
v 0.345 -1.41651 0.56
v 0.23 -1.2 0.66249
v 0.19919 -1.075 0.66249
v 0.115 -0.98349 0.66249
v 0 -0.95 0.66249
v -0.115 -0.98349 0.66249
v -0.19919 -1.075 0.66249
v -0.23 -1.2 0.66249
v -0.19919 -1.325 0.66249
v -0.115 -1.41651 0.66249
v 0 -1.45 0.66249
v 0.115 -1.41651 0.66249
v 0.19919 -1.325 0.66249
v 0 -1.2 0.7
v 0 -1.2 0.7
v 0 -1.2 0.7
v 0 -1.2 0.7
v 0 -1.2 0.7
v 0 -1.2 0.7
v 0 -1.2 0.7
v 0 -1.2 0.7
v 0 -1.2 0.7
v 0 -1.2 0.7
v 0 -1.2 0.7
v 0 -1.2 0.7
v -0.055 -0.55 0.57953
v -0.07396 -0.59467 0.59049
v -0.11989 -0.61317 0.59531
v -0.16588 -0.59467 0.59116
v -0.185 -0.55 0.58047
v -0.16604 -0.50533 0.56951
v -0.12011 -0.48683 0.56469
v -0.07412 -0.50533 0.56884
v -0.1104 -0.63 0.24991
v -0.1139 -0.63825 0.25194
v -0.12238 -0.64166 0.25283
v -0.13087 -0.63825 0.25206
v -0.1344 -0.63 0.25009
v -0.1309 -0.62175 0.24806
v -0.12242 -0.61834 0.24717
v -0.11393 -0.62175 0.24794
v -0.15501 -0.75 0.57913
v -0.1739 -0.79467 0.59021
v -0.2198 -0.81317 0.59531
v -0.26581 -0.79467 0.59144
v -0.28499 -0.75 0.58087
v -0.2661 -0.70533 0.56979
v -0.2202 -0.68683 0.56469
v -0.17419 -0.70533 0.56856
v -0.2124 -0.83 0.24984
v -0.21589 -0.83825 0.25189
v -0.22436 -0.84166 0.25283
v -0.23286 -0.83825 0.25211
v -0.2364 -0.83 0.25016
v -0.23291 -0.82175 0.24811
v -0.22444 -0.81834 0.24717
v -0.21594 -0.82175 0.24789
v -0.25501 -0.95 0.57874
v -0.27384 -0.99467 0.58993
v -0.3197 -1.01317 0.59531
v -0.36574 -0.99467 0.59172
v -0.38499 -0.95 0.58126
v -0.36616 -0.90533 0.57007
v -0.3203 -0.88683 0.56469
v -0.27426 -0.90533 0.56828
v -0.3144 -1.03 0.24977
v -0.31788 -1.03825 0.25183
v -0.32635 -1.04166 0.25283
v -0.33484 -1.03825 0.25216
v -0.3384 -1.03 0.25023
v -0.33492 -1.02175 0.24817
v -0.32645 -1.01834 0.24717
v -0.31796 -1.02175 0.24784
v -0.35502 -1.15 0.57835
v -0.37378 -1.19467 0.58965
v -0.41961 -1.21317 0.5953
v -0.46567 -1.19467 0.59199
v -0.48498 -1.15 0.58165
v -0.46622 -1.10533 0.57035
v -0.42039 -1.08683 0.5647
v -0.37433 -1.10533 0.56801
v -0.4164 -1.23 0.24969
v -0.41987 -1.23825 0.25178
v -0.42833 -1.24166 0.25283
v -0.43683 -1.23825 0.25221
v -0.4404 -1.23 0.25031
v -0.43693 -1.22175 0.24822
v -0.42847 -1.21834 0.24717
v -0.41997 -1.22175 0.24779
v 0.185 -0.55 0.58047
v 0.16588 -0.59467 0.59116
v 0.11989 -0.61317 0.59531
v 0.07396 -0.59467 0.59049
v 0.055 -0.55 0.57953
v 0.07412 -0.50533 0.56884
v 0.12011 -0.48683 0.56469
v 0.16604 -0.50533 0.56951
v 0.1344 -0.63 0.25009
v 0.13087 -0.63825 0.25206
v 0.12238 -0.64166 0.25283
v 0.1139 -0.63825 0.25194
v 0.1104 -0.63 0.24991
v 0.11393 -0.62175 0.24794
v 0.12242 -0.61834 0.24717
v 0.1309 -0.62175 0.24806
v 0.28499 -0.75 0.58087
v 0.26581 -0.79467 0.59144
v 0.2198 -0.81317 0.59531
v 0.1739 -0.79467 0.59021
v 0.15501 -0.75 0.57913
v 0.17419 -0.70533 0.56856
v 0.2202 -0.68683 0.56469
v 0.2661 -0.70533 0.56979
v 0.2364 -0.83 0.25016
v 0.23286 -0.83825 0.25211
v 0.22436 -0.84166 0.25283
v 0.21589 -0.83825 0.25189
v 0.2124 -0.83 0.24984
v 0.21594 -0.82175 0.24789
v 0.22444 -0.81834 0.24717
v 0.23291 -0.82175 0.24811
v 0.38499 -0.95 0.58126
v 0.36574 -0.99467 0.59172
v 0.3197 -1.01317 0.59531
v 0.27384 -0.99467 0.58993
v 0.25501 -0.95 0.57874
v 0.27426 -0.90533 0.56828
v 0.3203 -0.88683 0.56469
v 0.36616 -0.90533 0.57007
v 0.3384 -1.03 0.25023
v 0.33484 -1.03825 0.25216
v 0.32635 -1.04166 0.25283
v 0.31788 -1.03825 0.25183
v 0.3144 -1.03 0.24977
v 0.31796 -1.02175 0.24784
v 0.32645 -1.01834 0.24717
v 0.33492 -1.02175 0.24817
v 0.48498 -1.15 0.58165
v 0.46567 -1.19467 0.59199
v 0.41961 -1.21317 0.5953
v 0.37378 -1.19467 0.58965
v 0.35502 -1.15 0.57835
v 0.37433 -1.10533 0.56801
v 0.42039 -1.08683 0.5647
v 0.46622 -1.10533 0.57035
v 0.4404 -1.23 0.25031
v 0.43683 -1.23825 0.25221
v 0.42833 -1.24166 0.25283
v 0.41987 -1.23825 0.25178
v 0.4164 -1.23 0.24969
v 0.41997 -1.22175 0.24779
v 0.42847 -1.21834 0.24717
v 0.43693 -1.22175 0.24822
v 0 -0.72 0.55
v 0 -0.72 0.55
v 0 -0.72 0.55
v 0 -0.72 0.55
v 0 -0.72 0.55
v 0 -0.72 0.55
v 0 -0.72 0.55
v 0 -0.72 0.55
v 0 -0.72 0.55
v 0 -0.72 0.55
v 0 -0.72 0.55
v 0 -0.72 0.55
v 0.17634 -0.72 0.5691
v 0.15271 -0.58481 0.5691
v 0.08817 -0.48584 0.5691
v 0 -0.44962 0.5691
v -0.08817 -0.48584 0.5691
v -0.15271 -0.58481 0.5691
v -0.17634 -0.72 0.5691
v -0.15271 -0.85519 0.5691
v -0.08817 -0.95416 0.5691
v 0 -0.99038 0.5691
v 0.08817 -0.95416 0.5691
v 0.15271 -0.85519 0.5691
v 0.28532 -0.72 0.6191
v 0.24709 -0.50126 0.6191
v 0.14266 -0.34113 0.6191
v 0 -0.28251 0.6191
v -0.14266 -0.34113 0.6191
v -0.24709 -0.50126 0.6191
v -0.28532 -0.72 0.6191
v -0.24709 -0.93874 0.6191
v -0.14266 -1.09887 0.6191
v 0 -1.15749 0.6191
v 0.14266 -1.09887 0.6191
v 0.24709 -0.93874 0.6191
v 0.28532 -0.72 0.6809
v 0.24709 -0.50126 0.6809
v 0.14266 -0.34113 0.6809
v 0 -0.28251 0.6809
v -0.14266 -0.34113 0.6809
v -0.24709 -0.50126 0.6809
v -0.28532 -0.72 0.6809
v -0.24709 -0.93874 0.6809
v -0.14266 -1.09887 0.6809
v 0 -1.15749 0.6809
v 0.14266 -1.09887 0.6809
v 0.24709 -0.93874 0.6809
v 0.17634 -0.72 0.7309
v 0.15271 -0.58481 0.7309
v 0.08817 -0.48584 0.7309
v 0 -0.44962 0.7309
v -0.08817 -0.48584 0.7309
v -0.15271 -0.58481 0.7309
v -0.17634 -0.72 0.7309
v -0.15271 -0.85519 0.7309
v -0.08817 -0.95416 0.7309
v 0 -0.99038 0.7309
v 0.08817 -0.95416 0.7309
v 0.15271 -0.85519 0.7309
v 0 -0.72 0.75
v 0 -0.72 0.75
v 0 -0.72 0.75
v 0 -0.72 0.75
v 0 -0.72 0.75
v 0 -0.72 0.75
v 0 -0.72 0.75
v 0 -0.72 0.75
v 0 -0.72 0.75
v 0 -0.72 0.75
v 0 -0.72 0.75
v 0 -0.72 0.75
v -0.55 0.25 0.37
v -0.55 0.25 0.37
v -0.55 0.25 0.37
v -0.55 0.25 0.37
v -0.55 0.25 0.37
v -0.55 0.25 0.37
v -0.55 0.25 0.37
v -0.55 0.25 0.37
v -0.55 0.25 0.37
v -0.55 0.25 0.37
v -0.47 0.25 0.39412
v -0.48528 0.29702 0.39412
v -0.52528 0.32608 0.39412
v -0.57472 0.32608 0.39412
v -0.61472 0.29702 0.39412
v -0.63 0.25 0.39412
v -0.61472 0.20298 0.39412
v -0.57472 0.17392 0.39412
v -0.52528 0.17392 0.39412
v -0.48528 0.20298 0.39412
v -0.41144 0.25 0.46
v -0.4379 0.33145 0.46
v -0.50718 0.38178 0.46
v -0.59282 0.38178 0.46
v -0.6621 0.33145 0.46
v -0.68856 0.25 0.46
v -0.6621 0.16855 0.46
v -0.59282 0.11822 0.46
v -0.50718 0.11822 0.46
v -0.4379 0.16855 0.46
v -0.39 0.25 0.55
v -0.42056 0.34405 0.55
v -0.50056 0.40217 0.55
v -0.59944 0.40217 0.55
v -0.67944 0.34405 0.55
v -0.71 0.25 0.55
v -0.67944 0.15595 0.55
v -0.59944 0.09783 0.55
v -0.50056 0.09783 0.55
v -0.42056 0.15595 0.55
v -0.41144 0.25 0.64
v -0.4379 0.33145 0.64
v -0.50718 0.38178 0.64
v -0.59282 0.38178 0.64
v -0.6621 0.33145 0.64
v -0.68856 0.25 0.64
v -0.6621 0.16855 0.64
v -0.59282 0.11822 0.64
v -0.50718 0.11822 0.64
v -0.4379 0.16855 0.64
v -0.47 0.25 0.70588
v -0.48528 0.29702 0.70588
v -0.52528 0.32608 0.70588
v -0.57472 0.32608 0.70588
v -0.61472 0.29702 0.70588
v -0.63 0.25 0.70588
v -0.61472 0.20298 0.70588
v -0.57472 0.17392 0.70588
v -0.52528 0.17392 0.70588
v -0.48528 0.20298 0.70588
v -0.55 0.25 0.73
v -0.55 0.25 0.73
v -0.55 0.25 0.73
v -0.55 0.25 0.73
v -0.55 0.25 0.73
v -0.55 0.25 0.73
v -0.55 0.25 0.73
v -0.55 0.25 0.73
v -0.55 0.25 0.73
v -0.55 0.25 0.73
v 0.55 0.25 0.37
v 0.55 0.25 0.37
v 0.55 0.25 0.37
v 0.55 0.25 0.37
v 0.55 0.25 0.37
v 0.55 0.25 0.37
v 0.55 0.25 0.37
v 0.55 0.25 0.37
v 0.55 0.25 0.37
v 0.55 0.25 0.37
v 0.63 0.25 0.39412
v 0.61472 0.29702 0.39412
v 0.57472 0.32608 0.39412
v 0.52528 0.32608 0.39412
v 0.48528 0.29702 0.39412
v 0.47 0.25 0.39412
v 0.48528 0.20298 0.39412
v 0.52528 0.17392 0.39412
v 0.57472 0.17392 0.39412
v 0.61472 0.20298 0.39412
v 0.68856 0.25 0.46
v 0.6621 0.33145 0.46
v 0.59282 0.38178 0.46
v 0.50718 0.38178 0.46
v 0.4379 0.33145 0.46
v 0.41144 0.25 0.46
v 0.4379 0.16855 0.46
v 0.50718 0.11822 0.46
v 0.59282 0.11822 0.46
v 0.6621 0.16855 0.46
v 0.71 0.25 0.55
v 0.67944 0.34405 0.55
v 0.59944 0.40217 0.55
v 0.50056 0.40217 0.55
v 0.42056 0.34405 0.55
v 0.39 0.25 0.55
v 0.42056 0.15595 0.55
v 0.50056 0.09783 0.55
v 0.59944 0.09783 0.55
v 0.67944 0.15595 0.55
v 0.68856 0.25 0.64
v 0.6621 0.33145 0.64
v 0.59282 0.38178 0.64
v 0.50718 0.38178 0.64
v 0.4379 0.33145 0.64
v 0.41144 0.25 0.64
v 0.4379 0.16855 0.64
v 0.50718 0.11822 0.64
v 0.59282 0.11822 0.64
v 0.6621 0.16855 0.64
v 0.63 0.25 0.70588
v 0.61472 0.29702 0.70588
v 0.57472 0.32608 0.70588
v 0.52528 0.32608 0.70588
v 0.48528 0.29702 0.70588
v 0.47 0.25 0.70588
v 0.48528 0.20298 0.70588
v 0.52528 0.17392 0.70588
v 0.57472 0.17392 0.70588
v 0.61472 0.20298 0.70588
v 0.55 0.25 0.73
v 0.55 0.25 0.73
v 0.55 0.25 0.73
v 0.55 0.25 0.73
v 0.55 0.25 0.73
v 0.55 0.25 0.73
v 0.55 0.25 0.73
v 0.55 0.25 0.73
v 0.55 0.25 0.73
v 0.55 0.25 0.73
g JawBase
usemtl SURVIVAL_FUR_DARK
f 1 2 16 15
f 2 3 17 16
f 3 4 18 17
f 4 5 19 18
f 5 6 20 19
f 6 7 21 20
f 7 8 22 21
f 8 9 23 22
f 9 10 24 23
f 10 11 25 24
f 11 12 26 25
f 12 13 27 26
f 13 14 28 27
f 14 1 15 28
f 15 16 30 29
f 16 17 31 30
f 17 18 32 31
f 18 19 33 32
f 19 20 34 33
f 20 21 35 34
f 21 22 36 35
f 22 23 37 36
f 23 24 38 37
f 24 25 39 38
f 25 26 40 39
f 26 27 41 40
f 27 28 42 41
f 28 15 29 42
f 29 30 44 43
f 30 31 45 44
f 31 32 46 45
f 32 33 47 46
f 33 34 48 47
f 34 35 49 48
f 35 36 50 49
f 36 37 51 50
f 37 38 52 51
f 38 39 53 52
f 39 40 54 53
f 40 41 55 54
f 41 42 56 55
f 42 29 43 56
f 43 44 58 57
f 44 45 59 58
f 45 46 60 59
f 46 47 61 60
f 47 48 62 61
f 48 49 63 62
f 49 50 64 63
f 50 51 65 64
f 51 52 66 65
f 52 53 67 66
f 53 54 68 67
f 54 55 69 68
f 55 56 70 69
f 56 43 57 70
f 57 58 72 71
f 58 59 73 72
f 59 60 74 73
f 60 61 75 74
f 61 62 76 75
f 62 63 77 76
f 63 64 78 77
f 64 65 79 78
f 65 66 80 79
f 66 67 81 80
f 67 68 82 81
f 68 69 83 82
f 69 70 84 83
f 70 57 71 84
f 71 72 86 85
f 72 73 87 86
f 73 74 88 87
f 74 75 89 88
f 75 76 90 89
f 76 77 91 90
f 77 78 92 91
f 78 79 93 92
f 79 80 94 93
f 80 81 95 94
f 81 82 96 95
f 82 83 97 96
f 83 84 98 97
f 84 71 85 98
f 85 86 100 99
f 86 87 101 100
f 87 88 102 101
f 88 89 103 102
f 89 90 104 103
f 90 91 105 104
f 91 92 106 105
f 92 93 107 106
f 93 94 108 107
f 94 95 109 108
f 95 96 110 109
f 96 97 111 110
f 97 98 112 111
f 98 85 99 112
g JawBridge
f 113 114 115 116
f 117 120 119 118
f 113 117 118 114
f 114 118 119 115
f 115 119 120 116
f 117 113 116 120
g Chin
usemtl SURVIVAL_FUR_LIGHT
f 121 122 134 133
f 122 123 135 134
f 123 124 136 135
f 124 125 137 136
f 125 126 138 137
f 126 127 139 138
f 127 128 140 139
f 128 129 141 140
f 129 130 142 141
f 130 131 143 142
f 131 132 144 143
f 132 121 133 144
f 133 134 146 145
f 134 135 147 146
f 135 136 148 147
f 136 137 149 148
f 137 138 150 149
f 138 139 151 150
f 139 140 152 151
f 140 141 153 152
f 141 142 154 153
f 142 143 155 154
f 143 144 156 155
f 144 133 145 156
f 145 146 158 157
f 146 147 159 158
f 147 148 160 159
f 148 149 161 160
f 149 150 162 161
f 150 151 163 162
f 151 152 164 163
f 152 153 165 164
f 153 154 166 165
f 154 155 167 166
f 155 156 168 167
f 156 145 157 168
f 157 158 170 169
f 158 159 171 170
f 159 160 172 171
f 160 161 173 172
f 161 162 174 173
f 162 163 175 174
f 163 164 176 175
f 164 165 177 176
f 165 166 178 177
f 166 167 179 178
f 167 168 180 179
f 168 157 169 180
f 169 170 182 181
f 170 171 183 182
f 171 172 184 183
f 172 173 185 184
f 173 174 186 185
f 174 175 187 186
f 175 176 188 187
f 176 177 189 188
f 177 178 190 189
f 178 179 191 190
f 179 180 192 191
f 180 169 181 192
f 181 182 194 193
f 182 183 195 194
f 183 184 196 195
f 184 185 197 196
f 185 186 198 197
f 186 187 199 198
f 187 188 200 199
f 188 189 201 200
f 189 190 202 201
f 190 191 203 202
f 191 192 204 203
f 192 181 193 204
g Tooth_-1_0
usemtl SURVIVAL_BONE
f 205 206 214 213
f 206 207 215 214
f 207 208 216 215
f 208 209 217 216
f 209 210 218 217
f 210 211 219 218
f 211 212 220 219
f 212 205 213 220
g Tooth_-1_1
f 221 222 230 229
f 222 223 231 230
f 223 224 232 231
f 224 225 233 232
f 225 226 234 233
f 226 227 235 234
f 227 228 236 235
f 228 221 229 236
g Tooth_-1_2
f 237 238 246 245
f 238 239 247 246
f 239 240 248 247
f 240 241 249 248
f 241 242 250 249
f 242 243 251 250
f 243 244 252 251
f 244 237 245 252
g Tooth_-1_3
f 253 254 262 261
f 254 255 263 262
f 255 256 264 263
f 256 257 265 264
f 257 258 266 265
f 258 259 267 266
f 259 260 268 267
f 260 253 261 268
g Tooth_1_0
f 269 270 278 277
f 270 271 279 278
f 271 272 280 279
f 272 273 281 280
f 273 274 282 281
f 274 275 283 282
f 275 276 284 283
f 276 269 277 284
g Tooth_1_1
f 285 286 294 293
f 286 287 295 294
f 287 288 296 295
f 288 289 297 296
f 289 290 298 297
f 290 291 299 298
f 291 292 300 299
f 292 285 293 300
g Tooth_1_2
f 301 302 310 309
f 302 303 311 310
f 303 304 312 311
f 304 305 313 312
f 305 306 314 313
f 306 307 315 314
f 307 308 316 315
f 308 301 309 316
g Tooth_1_3
f 317 318 326 325
f 318 319 327 326
f 319 320 328 327
f 320 321 329 328
f 321 322 330 329
f 322 323 331 330
f 323 324 332 331
f 324 317 325 332
g Tongue
usemtl SURVIVAL_TONGUE
f 333 334 346 345
f 334 335 347 346
f 335 336 348 347
f 336 337 349 348
f 337 338 350 349
f 338 339 351 350
f 339 340 352 351
f 340 341 353 352
f 341 342 354 353
f 342 343 355 354
f 343 344 356 355
f 344 333 345 356
f 345 346 358 357
f 346 347 359 358
f 347 348 360 359
f 348 349 361 360
f 349 350 362 361
f 350 351 363 362
f 351 352 364 363
f 352 353 365 364
f 353 354 366 365
f 354 355 367 366
f 355 356 368 367
f 356 345 357 368
f 357 358 370 369
f 358 359 371 370
f 359 360 372 371
f 360 361 373 372
f 361 362 374 373
f 362 363 375 374
f 363 364 376 375
f 364 365 377 376
f 365 366 378 377
f 366 367 379 378
f 367 368 380 379
f 368 357 369 380
f 369 370 382 381
f 370 371 383 382
f 371 372 384 383
f 372 373 385 384
f 373 374 386 385
f 374 375 387 386
f 375 376 388 387
f 376 377 389 388
f 377 378 390 389
f 378 379 391 390
f 379 380 392 391
f 380 369 381 392
f 381 382 394 393
f 382 383 395 394
f 383 384 396 395
f 384 385 397 396
f 385 386 398 397
f 386 387 399 398
f 387 388 400 399
f 388 389 401 400
f 389 390 402 401
f 390 391 403 402
f 391 392 404 403
f 392 381 393 404
g Hinge-1
usemtl SURVIVAL_BONE_DARK
f 405 406 416 415
f 406 407 417 416
f 407 408 418 417
f 408 409 419 418
f 409 410 420 419
f 410 411 421 420
f 411 412 422 421
f 412 413 423 422
f 413 414 424 423
f 414 405 415 424
f 415 416 426 425
f 416 417 427 426
f 417 418 428 427
f 418 419 429 428
f 419 420 430 429
f 420 421 431 430
f 421 422 432 431
f 422 423 433 432
f 423 424 434 433
f 424 415 425 434
f 425 426 436 435
f 426 427 437 436
f 427 428 438 437
f 428 429 439 438
f 429 430 440 439
f 430 431 441 440
f 431 432 442 441
f 432 433 443 442
f 433 434 444 443
f 434 425 435 444
f 435 436 446 445
f 436 437 447 446
f 437 438 448 447
f 438 439 449 448
f 439 440 450 449
f 440 441 451 450
f 441 442 452 451
f 442 443 453 452
f 443 444 454 453
f 444 435 445 454
f 445 446 456 455
f 446 447 457 456
f 447 448 458 457
f 448 449 459 458
f 449 450 460 459
f 450 451 461 460
f 451 452 462 461
f 452 453 463 462
f 453 454 464 463
f 454 445 455 464
f 455 456 466 465
f 456 457 467 466
f 457 458 468 467
f 458 459 469 468
f 459 460 470 469
f 460 461 471 470
f 461 462 472 471
f 462 463 473 472
f 463 464 474 473
f 464 455 465 474
g Hinge1
f 475 476 486 485
f 476 477 487 486
f 477 478 488 487
f 478 479 489 488
f 479 480 490 489
f 480 481 491 490
f 481 482 492 491
f 482 483 493 492
f 483 484 494 493
f 484 475 485 494
f 485 486 496 495
f 486 487 497 496
f 487 488 498 497
f 488 489 499 498
f 489 490 500 499
f 490 491 501 500
f 491 492 502 501
f 492 493 503 502
f 493 494 504 503
f 494 485 495 504
f 495 496 506 505
f 496 497 507 506
f 497 498 508 507
f 498 499 509 508
f 499 500 510 509
f 500 501 511 510
f 501 502 512 511
f 502 503 513 512
f 503 504 514 513
f 504 495 505 514
f 505 506 516 515
f 506 507 517 516
f 507 508 518 517
f 508 509 519 518
f 509 510 520 519
f 510 511 521 520
f 511 512 522 521
f 512 513 523 522
f 513 514 524 523
f 514 505 515 524
f 515 516 526 525
f 516 517 527 526
f 517 518 528 527
f 518 519 529 528
f 519 520 530 529
f 520 521 531 530
f 521 522 532 531
f 522 523 533 532
f 523 524 534 533
f 524 515 525 534
f 525 526 536 535
f 526 527 537 536
f 527 528 538 537
f 528 529 539 538
f 529 530 540 539
f 530 531 541 540
f 531 532 542 541
f 532 533 543 542
f 533 534 544 543
f 534 525 535 544
