# torso_cloth - project-original survival modular asset
mtllib survival-combat-parts.mtl
o torso_cloth
v 0 0 -0.05
v 0 0 -0.05
v 0 0 -0.05
v 0 0 -0.05
v 0 0 -0.05
v 0 0 -0.05
v 0 0 -0.05
v 0 0 -0.05
v 0 0 -0.05
v 0 0 -0.05
v 0 0 -0.05
v 0 0 -0.05
v 0 0 -0.05
v 0 0 -0.05
v 0 0 -0.05
v 0 0 -0.05
v 0.30902 0 0.00873
v 0.28549 0.07332 0.00873
v 0.21851 0.13547 0.00873
v 0.11826 0.17701 0.00873
v 0 0.19159 0.00873
v -0.11826 0.17701 0.00873
v -0.21851 0.13547 0.00873
v -0.28549 0.07332 0.00873
v -0.30902 0 0.00873
v -0.28549 -0.07332 0.00873
v -0.21851 -0.13547 0.00873
v -0.11826 -0.17701 0.00873
v 0 -0.19159 0.00873
v 0.11826 -0.17701 0.00873
v 0.21851 -0.13547 0.00873
v 0.28549 -0.07332 0.00873
v 0.58779 0 0.17918
v 0.54304 0.13946 0.17918
v 0.41563 0.25769 0.17918
v 0.22494 0.33669 0.17918
v 0 0.36443 0.17918
v -0.22494 0.33669 0.17918
v -0.41563 0.25769 0.17918
v -0.54304 0.13946 0.17918
v -0.58779 0 0.17918
v -0.54304 -0.13946 0.17918
v -0.41563 -0.25769 0.17918
v -0.22494 -0.33669 0.17918
v 0 -0.36443 0.17918
v 0.22494 -0.33669 0.17918
v 0.41563 -0.25769 0.17918
v 0.54304 -0.13946 0.17918
v 0.80902 0 0.44466
v 0.74743 0.19195 0.44466
v 0.57206 0.35468 0.44466
v 0.3096 0.46341 0.44466
v 0 0.50159 0.44466
v -0.3096 0.46341 0.44466
v -0.57206 0.35468 0.44466
v -0.74743 0.19195 0.44466
v -0.80902 0 0.44466
v -0.74743 -0.19195 0.44466
v -0.57206 -0.35468 0.44466
v -0.3096 -0.46341 0.44466
v 0 -0.50159 0.44466
v 0.3096 -0.46341 0.44466
v 0.57206 -0.35468 0.44466
v 0.74743 -0.19195 0.44466
v 0.95106 0 0.77918
v 0.87866 0.22565 0.77918
v 0.6725 0.41695 0.77918
v 0.36395 0.54477 0.77918
v 0 0.58966 0.77918
v -0.36395 0.54477 0.77918
v -0.6725 0.41695 0.77918
v -0.87866 0.22565 0.77918
v -0.95106 0 0.77918
v -0.87866 -0.22565 0.77918
v -0.6725 -0.41695 0.77918
v -0.36395 -0.54477 0.77918
v 0 -0.58966 0.77918
v 0.36395 -0.54477 0.77918
v 0.6725 -0.41695 0.77918
v 0.87866 -0.22565 0.77918
v 1 0 1.15
v 0.92388 0.23726 1.15
v 0.70711 0.43841 1.15
v 0.38268 0.57281 1.15
v 0 0.62 1.15
v -0.38268 0.57281 1.15
v -0.70711 0.43841 1.15
v -0.92388 0.23726 1.15
v -1 0 1.15
v -0.92388 -0.23726 1.15
v -0.70711 -0.43841 1.15
v -0.38268 -0.57281 1.15
v 0 -0.62 1.15
v 0.38268 -0.57281 1.15
v 0.70711 -0.43841 1.15
v 0.92388 -0.23726 1.15
v 0.95106 0 1.52082
v 0.87866 0.22565 1.52082
v 0.6725 0.41695 1.52082
v 0.36395 0.54477 1.52082
v 0 0.58966 1.52082
v -0.36395 0.54477 1.52082
v -0.6725 0.41695 1.52082
v -0.87866 0.22565 1.52082
v -0.95106 0 1.52082
v -0.87866 -0.22565 1.52082
v -0.6725 -0.41695 1.52082
v -0.36395 -0.54477 1.52082
v 0 -0.58966 1.52082
v 0.36395 -0.54477 1.52082
v 0.6725 -0.41695 1.52082
v 0.87866 -0.22565 1.52082
v 0.80902 0 1.85534
v 0.74743 0.19195 1.85534
v 0.57206 0.35468 1.85534
v 0.3096 0.46341 1.85534
v 0 0.50159 1.85534
v -0.3096 0.46341 1.85534
v -0.57206 0.35468 1.85534
v -0.74743 0.19195 1.85534
v -0.80902 0 1.85534
v -0.74743 -0.19195 1.85534
v -0.57206 -0.35468 1.85534
v -0.3096 -0.46341 1.85534
v 0 -0.50159 1.85534
v 0.3096 -0.46341 1.85534
v 0.57206 -0.35468 1.85534
v 0.74743 -0.19195 1.85534
v 0.58779 0 2.12082
v 0.54304 0.13946 2.12082
v 0.41563 0.25769 2.12082
v 0.22494 0.33669 2.12082
v 0 0.36443 2.12082
v -0.22494 0.33669 2.12082
v -0.41563 0.25769 2.12082
v -0.54304 0.13946 2.12082
v -0.58779 0 2.12082
v -0.54304 -0.13946 2.12082
v -0.41563 -0.25769 2.12082
v -0.22494 -0.33669 2.12082
v 0 -0.36443 2.12082
v 0.22494 -0.33669 2.12082
v 0.41563 -0.25769 2.12082
v 0.54304 -0.13946 2.12082
v 0.30902 0 2.29127
v 0.28549 0.07332 2.29127
v 0.21851 0.13547 2.29127
v 0.11826 0.17701 2.29127
v 0 0.19159 2.29127
v -0.11826 0.17701 2.29127
v -0.21851 0.13547 2.29127
v -0.28549 0.07332 2.29127
v -0.30902 0 2.29127
v -0.28549 -0.07332 2.29127
v -0.21851 -0.13547 2.29127
v -0.11826 -0.17701 2.29127
v 0 -0.19159 2.29127
v 0.11826 -0.17701 2.29127
v 0.21851 -0.13547 2.29127
v 0.28549 -0.07332 2.29127
v 0 0 2.35
v 0 0 2.35
v 0 0 2.35
v 0 0 2.35
v 0 0 2.35
v 0 0 2.35
v 0 0 2.35
v 0 0 2.35
v 0 0 2.35
v 0 0 2.35
v 0 0 2.35
v 0 0 2.35
v 0 0 2.35
v 0 0 2.35
v 0 0 2.35
v 0 0 2.35
v -0.69 -0.68 0.25
v 0.69 -0.68 0.25
v 0.69 -0.58 0.25
v -0.69 -0.58 0.25
v -0.69 -0.68 1.91
v 0.69 -0.68 1.91
v 0.69 -0.58 1.91
v -0.69 -0.58 1.91
v -0.86 -0.74 0.17
v 0.86 -0.74 0.17
v 0.86 -0.62 0.17
v -0.86 -0.62 0.17
v -0.86 -0.74 0.43
v 0.86 -0.74 0.43
v 0.86 -0.62 0.43
v -0.86 -0.62 0.43
v -0.56026 -0.48 2.15649
v -0.58419 -0.53612 2.16168
v -0.64082 -0.55937 2.16003
v -0.69696 -0.53612 2.1525
v -0.71974 -0.48 2.14351
v -0.69581 -0.42388 2.13832
v -0.63918 -0.40063 2.13997
v -0.58304 -0.42388 2.1475
v -0.4394 -0.7 0.42487
v -0.45735 -0.74209 0.42876
v -0.49981 -0.75952 0.42752
v -0.54192 -0.74209 0.42188
v -0.559 -0.7 0.41513
v -0.54105 -0.65791 0.41124
v -0.49859 -0.64048 0.41248
v -0.45648 -0.65791 0.41812
v 0.71974 -0.48 2.14351
v 0.69696 -0.53612 2.1525
v 0.64082 -0.55937 2.16003
v 0.58419 -0.53612 2.16168
v 0.56026 -0.48 2.15649
v 0.58304 -0.42388 2.1475
v 0.63918 -0.40063 2.13997
v 0.69581 -0.42388 2.13832
v 0.559 -0.7 0.41513
v 0.54192 -0.74209 0.42188
v 0.49981 -0.75952 0.42752
v 0.45735 -0.74209 0.42876
v 0.4394 -0.7 0.42487
v 0.45648 -0.65791 0.41812
v 0.49859 -0.64048 0.41248
v 0.54105 -0.65791 0.41124
v -0.37 -0.715 0.6675
v 0.37 -0.715 0.6675
v 0.37 -0.685 0.6675
v -0.37 -0.685 0.6675
v -0.37 -0.715 0.6925
v 0.37 -0.715 0.6925
v 0.37 -0.685 0.6925
v -0.37 -0.685 0.6925
v -0.37 -0.715 0.9875
v 0.37 -0.715 0.9875
v 0.37 -0.685 0.9875
v -0.37 -0.685 0.9875
v -0.37 -0.715 1.0125
v 0.37 -0.715 1.0125
v 0.37 -0.685 1.0125
v -0.37 -0.685 1.0125
v -0.37 -0.715 1.3075
v 0.37 -0.715 1.3075
v 0.37 -0.685 1.3075
v -0.37 -0.685 1.3075
v -0.37 -0.715 1.3325
v 0.37 -0.715 1.3325
v 0.37 -0.685 1.3325
v -0.37 -0.685 1.3325
v -0.37 -0.715 1.6275
v 0.37 -0.715 1.6275
v 0.37 -0.685 1.6275
v -0.37 -0.685 1.6275
v -0.37 -0.715 1.6525
v 0.37 -0.715 1.6525
v 0.37 -0.685 1.6525
v -0.37 -0.685 1.6525
v -0.59 0.56 0.47
v 0.59 0.56 0.47
v 0.59 0.64 0.47
v -0.59 0.64 0.47
v -0.59 0.56 1.89
v 0.59 0.56 1.89
v 0.59 0.64 1.89
v -0.59 0.64 1.89
g TorsoShell
usemtl SURVIVAL_CLOTH
f 1 2 18 17
f 2 3 19 18
f 3 4 20 19
f 4 5 21 20
f 5 6 22 21
f 6 7 23 22
f 7 8 24 23
f 8 9 25 24
f 9 10 26 25
f 10 11 27 26
f 11 12 28 27
f 12 13 29 28
f 13 14 30 29
f 14 15 31 30
f 15 16 32 31
f 16 1 17 32
f 17 18 34 33
f 18 19 35 34
f 19 20 36 35
f 20 21 37 36
f 21 22 38 37
f 22 23 39 38
f 23 24 40 39
f 24 25 41 40
f 25 26 42 41
f 26 27 43 42
f 27 28 44 43
f 28 29 45 44
f 29 30 46 45
f 30 31 47 46
f 31 32 48 47
f 32 17 33 48
f 33 34 50 49
f 34 35 51 50
f 35 36 52 51
f 36 37 53 52
f 37 38 54 53
f 38 39 55 54
f 39 40 56 55
f 40 41 57 56
f 41 42 58 57
f 42 43 59 58
f 43 44 60 59
f 44 45 61 60
f 45 46 62 61
f 46 47 63 62
f 47 48 64 63
f 48 33 49 64
f 49 50 66 65
f 50 51 67 66
f 51 52 68 67
f 52 53 69 68
f 53 54 70 69
f 54 55 71 70
f 55 56 72 71
f 56 57 73 72
f 57 58 74 73
f 58 59 75 74
f 59 60 76 75
f 60 61 77 76
f 61 62 78 77
f 62 63 79 78
f 63 64 80 79
f 64 49 65 80
f 65 66 82 81
f 66 67 83 82
f 67 68 84 83
f 68 69 85 84
f 69 70 86 85
f 70 71 87 86
f 71 72 88 87
f 72 73 89 88
f 73 74 90 89
f 74 75 91 90
f 75 76 92 91
f 76 77 93 92
f 77 78 94 93
f 78 79 95 94
f 79 80 96 95
f 80 65 81 96
f 81 82 98 97
f 82 83 99 98
f 83 84 100 99
f 84 85 101 100
f 85 86 102 101
f 86 87 103 102
f 87 88 104 103
f 88 89 105 104
f 89 90 106 105
f 90 91 107 106
f 91 92 108 107
f 92 93 109 108
f 93 94 110 109
f 94 95 111 110
f 95 96 112 111
f 96 81 97 112
f 97 98 114 113
f 98 99 115 114
f 99 100 116 115
f 100 101 117 116
f 101 102 118 117
f 102 103 119 118
f 103 104 120 119
f 104 105 121 120
f 105 106 122 121
f 106 107 123 122
f 107 108 124 123
f 108 109 125 124
f 109 110 126 125
f 110 111 127 126
f 111 112 128 127
f 112 97 113 128
f 113 114 130 129
f 114 115 131 130
f 115 116 132 131
f 116 117 133 132
f 117 118 134 133
f 118 119 135 134
f 119 120 136 135
f 120 121 137 136
f 121 122 138 137
f 122 123 139 138
f 123 124 140 139
f 124 125 141 140
f 125 126 142 141
f 126 127 143 142
f 127 128 144 143
f 128 113 129 144
f 129 130 146 145
f 130 131 147 146
f 131 132 148 147
f 132 133 149 148
f 133 134 150 149
f 134 135 151 150
f 135 136 152 151
f 136 137 153 152
f 137 138 154 153
f 138 139 155 154
f 139 140 156 155
f 140 141 157 156
f 141 142 158 157
f 142 143 159 158
f 143 144 160 159
f 144 129 145 160
f 145 146 162 161
f 146 147 163 162
f 147 148 164 163
f 148 149 165 164
f 149 150 166 165
f 150 151 167 166
f 151 152 168 167
f 152 153 169 168
f 153 154 170 169
f 154 155 171 170
f 155 156 172 171
f 156 157 173 172
f 157 158 174 173
f 158 159 175 174
f 159 160 176 175
f 160 145 161 176
g FrontPanel
usemtl SURVIVAL_CLOTH_LIGHT
f 177 178 179 180
f 181 184 183 182
f 177 181 182 178
f 178 182 183 179
f 179 183 184 180
f 181 177 180 184
g WaistBand
usemtl SURVIVAL_LEATHER
f 185 186 187 188
f 189 192 191 190
f 185 189 190 186
f 186 190 191 187
f 187 191 192 188
f 189 185 188 192
g ShoulderStrap-0.64
f 193 194 202 201
f 194 195 203 202
f 195 196 204 203
f 196 197 205 204
f 197 198 206 205
f 198 199 207 206
f 199 200 208 207
f 200 193 201 208
g ShoulderStrap0.64
f 209 210 218 217
f 210 211 219 218
f 211 212 220 219
f 212 213 221 220
f 213 214 222 221
f 214 215 223 222
f 215 216 224 223
f 216 209 217 224
g Stitch0
usemtl SURVIVAL_STITCH
f 225 226 227 228
f 229 232 231 230
f 225 229 230 226
f 226 230 231 227
f 227 231 232 228
f 229 225 228 232
g Stitch1
f 233 234 235 236
f 237 240 239 238
f 233 237 238 234
f 234 238 239 235
f 235 239 240 236
f 237 233 236 240
g Stitch2
f 241 242 243 244
f 245 248 247 246
f 241 245 246 242
f 242 246 247 243
f 243 247 248 244
f 245 241 244 248
g Stitch3
f 249 250 251 252
f 253 256 255 254
f 249 253 254 250
f 250 254 255 251
f 251 255 256 252
f 253 249 252 256
g BackReinforcement
usemtl SURVIVAL_CLOTH_DARK
f 257 258 259 260
f 261 264 263 262
f 257 261 262 258
f 258 262 263 259
f 259 263 264 260
f 261 257 260 264
