<svg xmlns="http://www.w3.org/2000/svg" width="1200" height="675" viewBox="0 0 1200 675"><defs><linearGradient id="bg" x1="0" y1="0" x2="1" y2="1"><stop offset="0" stop-color="#163b32"/><stop offset="1" stop-color="#27745e"/></linearGradient></defs><rect width="1200" height="675" fill="url(#bg)"/><circle cx="1040" cy="90" r="190" fill="#82dfbd" opacity=".08"/><circle cx="120" cy="650" r="240" fill="#000" opacity=".16"/><text x="62" y="70" font-family="system-ui,-apple-system,'Noto Sans KR',sans-serif" font-size="20" font-weight="900" fill="#82dfbd" text-anchor="start">숲의 생존자들 · QA</text><text x="62" y="120" font-family="system-ui,-apple-system,'Noto Sans KR',sans-serif" font-size="36" font-weight="950" fill="#eef9ff" text-anchor="start">survival-25d</text><text x="62" y="156" font-family="system-ui,-apple-system,'Noto Sans KR',sans-serif" font-size="19" font-weight="700" fill="#cce8f5" text-anchor="start">survival-25d</text><g><circle cx="120" cy="385" r="45" fill="#07131d" fill-opacity=".72" stroke="#82dfbd" stroke-width="4"/><text x="120" y="392" font-family="system-ui,-apple-system,'Noto Sans KR',sans-serif" font-size="18" font-weight="900" fill="#fff" text-anchor="middle">headline</text></g><text x="120" y="458" font-family="system-ui,-apple-system,'Noto Sans KR',sans-serif" font-size="15" font-weight="700" fill="#d3eee5" text-anchor="middle">survival-25d</text><g stroke="#82dfbd" stroke-width="4" fill="none" stroke-linecap="round"><line x1="168" y1="385" x2="270" y2="385"/><polyline points="258,375 274,385 258,395"/></g><g><circle cx="330" cy="385" r="45" fill="#07131d" fill-opacity=".72" stroke="#82dfbd" stroke-width="4"/><text x="330" y="392" font-family="system-ui,-apple-system,'Noto Sans KR',sans-serif" font-size="18" font-weight="900" fill="#fff" text-anchor="middle">section</text></g><text x="330" y="458" font-family="system-ui,-apple-system,'Noto Sans KR',sans-serif" font-size="15" font-weight="700" fill="#d3eee5" text-anchor="middle">survival-25d</text><g stroke="#82dfbd" stroke-width="4" fill="none" stroke-linecap="round"><line x1="378" y1="385" x2="480" y2="385"/><polyline points="468,375 484,385 468,395"/></g><g><circle cx="540" cy="385" r="45" fill="#07131d" fill-opacity=".72" stroke="#82dfbd" stroke-width="4"/><text x="540" y="392" font-family="system-ui,-apple-system,'Noto Sans KR',sans-serif" font-size="18" font-weight="900" fill="#fff" text-anchor="middle">unverified</text></g><text x="540" y="458" font-family="system-ui,-apple-system,'Noto Sans KR',sans-serif" font-size="15" font-weight="700" fill="#d3eee5" text-anchor="middle">survival-25d</text><g stroke="#82dfbd" stroke-width="4" fill="none" stroke-linecap="round"><line x1="588" y1="385" x2="690" y2="385"/><polyline points="678,375 694,385 678,395"/></g><g><circle cx="750" cy="385" r="45" fill="#07131d" fill-opacity=".72" stroke="#82dfbd" stroke-width="4"/><text x="750" y="392" font-family="system-ui,-apple-system,'Noto Sans KR',sans-serif" font-size="18" font-weight="900" fill="#fff" text-anchor="middle">testScenari…</text></g><text x="750" y="458" font-family="system-ui,-apple-system,'Noto Sans KR',sans-serif" font-size="15" font-weight="700" fill="#d3eee5" text-anchor="middle">survival-25d</text><g stroke="#82dfbd" stroke-width="4" fill="none" stroke-linecap="round"><line x1="798" y1="385" x2="900" y2="385"/><polyline points="888,375 904,385 888,395"/></g><g><circle cx="960" cy="385" r="45" fill="#07131d" fill-opacity=".72" stroke="#82dfbd" stroke-width="4"/><text x="960" y="392" font-family="system-ui,-apple-system,'Noto Sans KR',sans-serif" font-size="18" font-weight="900" fill="#fff" text-anchor="middle">problemScen…</text></g><text x="960" y="458" font-family="system-ui,-apple-system,'Noto Sans KR',sans-serif" font-size="15" font-weight="700" fill="#d3eee5" text-anchor="middle">survival-25d</text><g><polygon points="185,250 205,215 225,250" fill="#ffd98a"/><circle cx="205" cy="0" r="0"/><text x="235" y="252" font-family="system-ui,-apple-system,'Noto Sans KR',sans-serif" font-size="16" font-weight="900" fill="#ffe7ae" text-anchor="start">testScenarios</text></g><g><polygon points="505,250 525,215 545,250" fill="#ffd98a"/><circle cx="205" cy="0" r="0"/><text x="555" y="252" font-family="system-ui,-apple-system,'Noto Sans KR',sans-serif" font-size="16" font-weight="900" fill="#ffe7ae" text-anchor="start">problemScenes</text></g><g><polygon points="825,250 845,215 865,250" fill="#ffd98a"/><circle cx="205" cy="0" r="0"/><text x="875" y="252" font-family="system-ui,-apple-system,'Noto Sans KR',sans-serif" font-size="16" font-weight="900" fill="#ffe7ae" text-anchor="start">mobileSaveErrorRisks</text></g><rect x="70" y="595" width="330" height="44" rx="18" fill="#07131d" fill-opacity=".65" stroke="#82dfbd" stroke-opacity=".45"/><text x="88" y="624" font-family="system-ui,-apple-system,'Noto Sans KR',sans-serif" font-size="16" font-weight="800" fill="#d8edf8" text-anchor="start">testScenarios</text><rect x="430" y="595" width="330" height="44" rx="18" fill="#07131d" fill-opacity=".65" stroke="#82dfbd" stroke-opacity=".45"/><text x="448" y="624" font-family="system-ui,-apple-system,'Noto Sans KR',sans-serif" font-size="16" font-weight="800" fill="#d8edf8" text-anchor="start">problemScenes</text><rect x="790" y="595" width="330" height="44" rx="18" fill="#07131d" fill-opacity=".65" stroke="#82dfbd" stroke-opacity=".45"/><text x="808" y="624" font-family="system-ui,-apple-system,'Noto Sans KR',sans-serif" font-size="16" font-weight="800" fill="#d8edf8" text-anchor="start">mobileSaveErrorRisks</text><rect x="38" y="38" width="1124" height="599" rx="30" fill="none" stroke="#ffffff" stroke-opacity=".16"/></svg>